<svg width="673" height="597" viewBox="0 0 673 597" fill="none" xmlns="http://www.w3.org/2000/svg">
<mask id="mask0_3039_245185" style="mask-type:alpha" maskUnits="userSpaceOnUse" x="0" y="0" width="673" height="458">
<path d="M0.533447 0.268311H672.474V457.508H0.533447V0.268311Z" fill="#C4C4C4"/>
</mask>
<g mask="url(#mask0_3039_245185)">
<path d="M618.573 412.347C618.573 554.627 491.069 669.967 333.785 669.967C176.5 669.967 48.9963 554.627 48.9963 412.347C48.9963 270.068 176.5 154.727 333.785 154.727C491.069 154.727 618.573 270.068 618.573 412.347Z" fill="url(#paint0_linear_3039_245185)"/>
<path d="M355.332 405.877C345.479 400.999 334.302 412.832 333.762 413.449C334.596 411.964 374.383 341.295 365.608 314.191C359.558 295.654 338.038 286.703 320.016 297.489L291.847 411.292C299.846 427.301 304.818 444.431 306.555 461.955H338.606C350.558 445.441 370.834 413.557 355.332 405.877Z" fill="url(#paint1_linear_3039_245185)"/>
<path d="M306.554 461.955H204.135C199.017 436.785 199.85 405.215 198.389 391.376C196.634 374.763 173.289 360.996 183.741 333.902C194.193 306.807 194.379 288.036 186.545 267.011C181.829 254.344 186.771 244.167 191.447 238.081C193.01 236.055 195.328 234.62 197.968 234.044H198.017C200.676 233.476 203.472 233.829 205.861 235.037C212.988 238.618 222.352 245.778 224.234 259.035C225.862 270.493 229.137 280.518 235.108 290.363C240.578 299.386 248.305 308.266 259.081 317.888C276.14 333.159 271.954 364.488 271.885 365.186C269.914 383.75 301.652 410.039 306.554 461.955Z" fill="url(#paint2_linear_3039_245185)"/>
<path d="M301.426 197.255C290.48 194.985 278.994 196.785 269.504 202.258C260.014 207.731 253.3 216.427 250.844 226.426L235.039 290.381C240.51 299.404 248.236 308.283 259.011 317.906C276.071 333.176 271.885 364.505 271.816 365.203C270.669 376.41 281.807 390.472 291.886 411.292L320.015 297.489L333.379 243.424C338.517 222.62 324.212 201.952 301.426 197.255Z" fill="url(#paint3_linear_3039_245185)"/>
<g style="mix-blend-mode:overlay" opacity="0.6">
<g style="mix-blend-mode:overlay" opacity="0.6">
<path d="M269.653 316.537L266.71 328.307C267.848 330.626 268.792 333.019 269.535 335.468L280.319 291.608C280.699 291.69 281.099 291.629 281.428 291.438L304.194 278.306C304.878 277.908 305.081 277.079 304.645 276.454L303.822 275.272C303.613 274.97 303.283 274.756 302.902 274.678C302.522 274.599 302.122 274.661 301.792 274.851L281.584 286.488L297.733 221.36C297.82 221.013 297.753 220.649 297.545 220.348C297.337 220.047 297.006 219.835 296.625 219.757L295.125 219.445C294.329 219.283 293.54 219.739 293.36 220.465L283.741 259.393L271.976 242.386C271.55 241.762 270.654 241.567 269.966 241.947L268.672 242.699C268.341 242.889 268.107 243.191 268.02 243.539C267.934 243.886 268.003 244.251 268.211 244.552L282.388 265.032L271.045 310.87L259.278 293.863C259.072 293.562 258.744 293.348 258.365 293.27C257.986 293.191 257.588 293.253 257.259 293.443L255.955 294.194C255.624 294.384 255.39 294.686 255.304 295.034C255.217 295.382 255.286 295.746 255.494 296.048L269.653 316.537Z" fill="#030F1C"/>
</g>
</g>
<g style="mix-blend-mode:overlay" opacity="0.6">
<g style="mix-blend-mode:overlay" opacity="0.6">
<path d="M337.585 315.552C337.121 315.427 336.621 315.475 336.197 315.687C335.772 315.899 335.457 316.256 335.32 316.68L301.651 421.371C299.52 420.722 297.444 419.926 295.445 418.99C296.072 420.44 296.68 421.908 297.278 423.466C298.357 423.886 299.465 424.271 300.621 424.62L299.269 428.819C299.935 430.725 300.582 432.667 301.229 434.663L338.909 317.665C339.058 317.224 339 316.746 338.75 316.345C338.499 315.945 338.077 315.658 337.585 315.552Z" fill="#030F1C"/>
</g>
</g>
<g style="mix-blend-mode:overlay" opacity="0.6">
<g style="mix-blend-mode:overlay" opacity="0.6">
<path d="M276.033 416.493C276.049 415.606 275.297 414.866 274.327 414.813C273.357 414.76 272.514 415.414 272.415 416.296C272.415 416.546 270.601 440.518 254.197 447.329L234.372 369.518C247.06 360.665 243.51 342.288 243.344 341.483C243.107 340.64 242.195 340.108 241.258 340.266C240.32 340.424 239.676 341.218 239.785 342.083C239.785 342.253 242.834 357.837 233.441 365.893L216.871 300.845C216.682 300.127 215.896 299.681 215.106 299.843L214.44 299.986C214.059 300.065 213.728 300.279 213.522 300.582C213.316 300.885 213.251 301.251 213.342 301.597L218.499 321.863C212.998 317.458 210.762 309.214 210.734 309.116C210.62 308.506 210.144 308.005 209.5 307.816C208.855 307.626 208.149 307.781 207.668 308.216C207.187 308.652 207.011 309.295 207.213 309.886C207.35 310.414 210.635 322.489 219.695 326.561L229.931 366.707L230.833 370.234L239.03 402.457C222.882 400.963 211.704 385.451 211.576 385.271C211.019 384.54 209.928 384.342 209.106 384.824C208.285 385.306 208.029 386.295 208.527 387.062C209.047 387.805 221.273 404.865 239.902 405.859L250.413 447.087V447.222L250.893 449.11L251.874 452.78L254.236 462.018H257.923L254.982 450.667C274.062 443.346 275.964 417.612 276.033 416.493Z" fill="#030F1C"/>
</g>
</g>
<path d="M310.882 493.737C298.251 508.045 131.41 436.364 112.828 347.976C110.362 336.239 104.819 309.865 122.365 291.504C131.561 281.927 148.521 272.922 166.561 274.944C171.693 275.516 181.139 277.455 191.839 285.758C222.483 309.506 222.768 353.815 234.471 390.186C257.324 461.028 318.447 485.174 310.882 493.737Z" fill="url(#paint4_linear_3039_245185)"/>
<path opacity="0.7" d="M262.676 460.922C231.519 439.72 205.061 413.304 184.71 383.081C172.827 365.337 163.173 346.426 155.929 326.708" stroke="white" stroke-width="1.28297" stroke-miterlimit="10"/>
<path d="M280.729 465.265C241.615 474.776 190.802 501.907 135.078 475.711C129.313 473.005 78.764 448.435 78.3715 408.785C78.3361 404.466 78.7293 385.08 94.5083 371.538C107.977 359.95 130.627 354.322 148.816 360.39C184.299 372.175 176.46 419.492 223.134 452.909C237.104 462.882 267.958 465.036 280.729 465.265Z" fill="url(#paint5_linear_3039_245185)"/>
<path opacity="0.7" d="M280.727 465.265C280.727 465.265 217.383 484.216 172.934 464.956C129.593 446.176 120.26 408.574 120.26 408.574" stroke="white" stroke-width="1.63397" stroke-miterlimit="10"/>
<path d="M297.807 161.334C299.238 161.334 300.654 161.068 301.969 160.553C303.283 160.037 304.469 159.283 305.454 158.336L309.85 154.124V146.877H277.587L272.101 159.37L292.082 165.546C292.367 164.353 293.09 163.284 294.131 162.518C295.172 161.752 296.47 161.334 297.807 161.334Z" fill="#F0B48B"/>
<path d="M408.126 164.976C408.126 164.976 413.716 158.933 423.493 148.29C433.271 137.647 435.537 116.142 416.542 114.871C416.542 114.871 420.896 103.393 408.926 100.472C396.956 97.5494 383.375 101.752 373.993 91.365C364.61 80.9775 351.445 78.4256 344.66 89.7238C337.875 101.021 346.416 129.821 362.999 138.387C379.583 146.953 406.131 156.6 408.126 164.976Z" fill="url(#paint6_linear_3039_245185)"/>
<path d="M399.345 122.706C399.345 122.706 384.341 132.724 356.109 127.26C356.109 127.26 360.265 165.071 362.998 171.635C365.731 178.2 374.147 175.866 374.147 175.866V196.138C374.147 196.138 383.572 212.909 408.125 194.317V155.471C408.125 155.471 421.269 149.22 414.713 140.834C409.621 134.317 400.945 142.523 400.945 142.523C400.945 142.523 396.155 134.545 399.345 122.706Z" fill="url(#paint7_linear_3039_245185)"/>
<path d="M383.4 166.095C383.403 166.366 383.29 166.628 383.085 166.823C382.881 167.018 382.6 167.13 382.307 167.134C380.847 167.166 378.15 167.238 376.073 167.373C373.877 167.617 371.7 167.996 369.556 168.507C369.184 168.591 368.792 168.492 368.521 168.245C368.249 167.998 368.135 167.638 368.218 167.292C368.86 164.635 370.705 159.589 375.468 159.633C381.258 159.686 383.298 163.098 383.4 166.095Z" fill="#161B36"/>
<path d="M368.393 166.725C368.393 166.725 377.168 162.748 383.421 165.756C383.421 165.756 384.427 167.893 378.287 167.482C376.421 167.357 374.536 167.569 372.751 168.082C366.719 169.817 368.393 166.725 368.393 166.725Z" fill="#E55151"/>
<path d="M379.239 129.973C379.996 129.434 380.955 129.081 383.493 129.679C386.031 130.277 389.462 133.202 388.488 133.627C387.511 134.053 385.346 131.651 383.188 131.943C381.032 132.235 379.76 132.563 379.153 132.088C378.389 131.493 378.876 130.232 379.239 129.973Z" fill="#161B36"/>
<path d="M366.976 129.475C366.055 129.247 365.023 129.261 362.926 130.715C360.828 132.169 358.869 136.088 359.944 136.135C361.021 136.182 362.029 133.194 364.144 132.697C366.256 132.2 367.566 132.052 367.929 131.399C368.39 130.576 367.42 129.586 366.976 129.475Z" fill="#161B36"/>
<path d="M362.492 141.969C362.171 141.969 361.871 141.817 361.695 141.567C361.519 141.316 361.492 141.001 361.623 140.727C362.377 139.149 363.373 138.282 364.584 138.148C366.434 137.954 367.776 139.539 367.925 139.72C368.244 140.108 368.165 140.661 367.748 140.957C367.332 141.254 366.735 141.182 366.414 140.797C366.2 140.541 365.439 139.834 364.806 139.903C364.325 139.958 363.813 140.504 363.365 141.443C363.212 141.763 362.87 141.969 362.492 141.969Z" fill="#161B36"/>
<path d="M384.622 141.968C384.245 141.969 383.903 141.762 383.75 141.442C383.301 140.504 382.789 139.958 382.309 139.903C381.683 139.836 380.914 140.541 380.7 140.796C380.379 141.181 379.783 141.251 379.367 140.956C378.951 140.66 378.871 140.107 379.19 139.72C379.339 139.538 380.703 137.952 382.53 138.148C383.742 138.281 384.738 139.149 385.492 140.727C385.622 141 385.595 141.316 385.419 141.566C385.244 141.817 384.944 141.968 384.622 141.968Z" fill="#161B36"/>
<g style="mix-blend-mode:overlay" opacity="0.6">
<g style="mix-blend-mode:overlay" opacity="0.6">
<path d="M371.575 156.83C370.656 156.862 369.744 156.666 368.933 156.262C368.402 155.987 368.032 155.504 367.926 154.949C367.728 153.797 368.998 152.014 370.553 149.975C370.947 149.488 371.309 148.979 371.636 148.451C371.952 147.823 371.862 142.103 371.591 136.937L372.543 136.894C372.637 138.686 373.075 147.681 372.499 148.824C372.152 149.402 371.762 149.957 371.331 150.485C370.352 151.769 368.714 153.92 368.866 154.81C368.93 155.111 369.138 155.368 369.432 155.509C370.801 156.055 372.341 156.099 373.743 155.634L374.035 156.474C373.24 156.709 372.41 156.829 371.575 156.83Z" fill="#030F1C"/>
</g>
</g>
<g style="mix-blend-mode:overlay" opacity="0.6">
<g style="mix-blend-mode:overlay" opacity="0.6">
<path d="M374.149 175.866C382.762 174.928 390.663 171.035 396.25 164.976C396.25 164.976 390.368 181.833 374.149 181.833V175.866Z" fill="#030F1C"/>
</g>
</g>
<path d="M372.09 312.445C373.881 312.445 375.332 311.121 375.332 309.486C375.332 307.851 373.881 306.526 372.09 306.526C370.3 306.526 368.848 307.851 368.848 309.486C368.848 311.121 370.3 312.445 372.09 312.445Z" fill="white"/>
<path d="M388.964 312.445C390.755 312.445 392.206 311.121 392.206 309.486C392.206 307.851 390.755 306.526 388.964 306.526C387.174 306.526 385.722 307.851 385.722 309.486C385.722 311.121 387.174 312.445 388.964 312.445Z" fill="white"/>
<path d="M280.538 120.525L324.231 126.501C325.846 126.697 327.402 127.188 328.805 127.944C330.208 128.7 331.43 129.706 332.398 130.903C333.781 132.683 334.509 134.819 334.477 137.002C334.476 139.23 333.861 141.422 332.689 143.376C331.769 144.888 330.481 146.188 328.925 147.174C327.369 148.161 325.585 148.809 323.712 149.068L280.518 155.471L280.538 120.525Z" fill="#C9E2F4"/>
<path d="M280.537 155.471C291.108 155.471 299.677 147.648 299.677 137.998C299.677 128.348 291.108 120.525 280.537 120.525C269.966 120.525 261.397 128.348 261.397 137.998C261.397 147.648 269.966 155.471 280.537 155.471Z" fill="url(#paint8_linear_3039_245185)"/>
<path d="M280.537 151.279C288.571 151.279 295.083 145.333 295.083 137.998C295.083 130.664 288.571 124.718 280.537 124.718C272.503 124.718 265.99 130.664 265.99 137.998C265.99 145.333 272.503 151.279 280.537 151.279Z" fill="url(#paint9_linear_3039_245185)"/>
<path d="M293.503 137.999C293.514 138.121 293.514 138.245 293.503 138.368C293.405 141.375 292.053 144.234 289.724 146.361C287.396 148.489 284.266 149.725 280.972 149.818H280.567C279.892 149.818 279.218 149.771 278.551 149.676C275.639 149.275 272.969 147.964 270.997 145.967C270.801 145.793 270.624 145.602 270.467 145.398C268.597 143.307 267.579 140.689 267.589 137.989C267.59 135.757 268.283 133.571 269.586 131.683C270.89 129.794 272.752 128.281 274.956 127.317C277.162 126.353 279.62 125.978 282.049 126.235C284.477 126.492 286.777 127.37 288.682 128.769C288.902 128.92 289.11 129.085 289.305 129.262C289.736 129.616 290.135 130 290.5 130.41C291.58 131.565 292.393 132.907 292.89 134.356C293.1 134.942 293.262 135.542 293.379 136.149C293.468 136.762 293.509 137.38 293.503 137.999Z" fill="url(#paint10_linear_3039_245185)"/>
<path d="M277.087 135.75C279.038 135.75 280.62 134.306 280.62 132.525C280.62 130.744 279.038 129.3 277.087 129.3C275.136 129.3 273.555 130.744 273.555 132.525C273.555 134.306 275.136 135.75 277.087 135.75Z" fill="white"/>
<path d="M292.875 134.364L276.572 149.248C274.984 148.798 273.511 148.063 272.239 147.085L290.485 130.418C291.562 131.575 292.375 132.916 292.875 134.364Z" fill="url(#paint11_linear_3039_245185)"/>
<path d="M289.288 129.271L270.97 145.975C270.777 145.801 270.603 145.61 270.45 145.406L288.665 128.777C288.882 128.932 289.09 129.096 289.288 129.271Z" fill="url(#paint12_linear_3039_245185)"/>
<path d="M293.496 137.997C293.496 138.121 293.496 138.254 293.496 138.367L280.955 149.817H280.539C279.868 149.817 279.197 149.769 278.534 149.675L293.361 136.157C293.458 136.766 293.503 137.382 293.496 137.997Z" fill="url(#paint13_linear_3039_245185)"/>
<path d="M371.43 128.475H379.545C381.365 128.469 383.16 128.876 384.765 129.66C386.371 130.443 387.739 131.578 388.745 132.964C389.752 134.349 390.365 135.941 390.532 137.596C390.697 139.252 390.41 140.919 389.696 142.448L389.53 142.77C388.63 144.444 387.229 145.851 385.489 146.827C383.75 147.805 381.743 148.312 379.701 148.291H363.003L371.43 128.475Z" fill="url(#paint14_linear_3039_245185)"/>
<path d="M321.906 119.168L369.942 125.743C371.716 125.959 373.424 126.498 374.964 127.329C376.505 128.161 377.846 129.266 378.909 130.58C380.437 132.537 381.248 134.884 381.227 137.287C381.218 139.734 380.539 142.141 379.252 144.288C378.243 145.954 376.828 147.385 375.116 148.472C373.404 149.559 371.442 150.273 369.381 150.558L321.906 157.596V119.168Z" fill="url(#paint15_linear_3039_245185)"/>
<path d="M321.906 157.587C333.527 157.587 342.947 148.987 342.947 138.378C342.947 127.769 333.527 119.168 321.906 119.168C310.286 119.168 300.865 127.769 300.865 138.378C300.865 148.987 310.286 157.587 321.906 157.587Z" fill="url(#paint16_linear_3039_245185)"/>
<path d="M321.905 152.977C330.737 152.977 337.897 146.441 337.897 138.377C337.897 130.315 330.737 123.779 321.905 123.779C313.074 123.779 305.914 130.315 305.914 138.377C305.914 146.441 313.074 152.977 321.905 152.977Z" fill="url(#paint17_linear_3039_245185)"/>
<path d="M336.152 138.34C336.152 141.789 334.652 145.096 331.983 147.536C329.315 149.976 325.694 151.35 321.916 151.354C321.403 151.353 320.889 151.328 320.378 151.279C319.562 151.203 318.755 151.059 317.968 150.852C316.098 150.359 314.359 149.523 312.855 148.395C312.331 148.001 311.838 147.572 311.38 147.114L310.757 146.46C308.574 143.958 307.476 140.811 307.673 137.617C307.87 134.424 309.349 131.409 311.826 129.147C314.303 126.886 317.606 125.536 321.104 125.356C324.601 125.176 328.05 126.178 330.79 128.171C331.039 128.351 331.278 128.541 331.517 128.74C333.462 130.361 334.876 132.443 335.601 134.754C335.829 135.47 335.986 136.203 336.068 136.945C336.127 137.409 336.154 137.874 336.152 138.34Z" fill="url(#paint18_linear_3039_245185)"/>
<path d="M317.519 136.462C319.666 136.462 321.405 134.874 321.405 132.914C321.405 130.955 319.666 129.366 317.519 129.366C315.373 129.366 313.633 130.955 313.633 132.914C313.633 134.874 315.373 136.462 317.519 136.462Z" fill="white"/>
<path d="M335.601 134.783L317.936 150.909C316.066 150.412 314.327 149.573 312.824 148.442L332.878 130.125C334.123 131.492 335.05 133.077 335.601 134.783Z" fill="url(#paint19_linear_3039_245185)"/>
<path d="M331.518 128.769L311.381 147.153L310.757 146.498L330.79 128.2C331.039 128.389 331.279 128.569 331.518 128.769Z" fill="url(#paint20_linear_3039_245185)"/>
<path d="M336.15 138.387C336.152 138.828 336.128 139.268 336.078 139.706L323.339 151.326C322.866 151.372 322.391 151.394 321.915 151.393C321.401 151.396 320.888 151.371 320.378 151.317L336.067 136.984C336.126 137.45 336.154 137.918 336.15 138.387Z" fill="url(#paint21_linear_3039_245185)"/>
<path d="M457.323 620.411C451.335 579.357 456.754 551.936 450.927 535.976C450.927 535.976 459.308 451.933 456.718 396.367H320.206C320.206 396.367 308.775 529.082 309.423 550.954C310.071 572.825 308.408 641.202 307.181 675.682C306.978 681.397 312.036 685.02 313.018 685.423C312.862 690.881 312.398 699.024 312.523 701.545C312.792 706.97 321.117 707.353 328.929 707.26C341.391 707.108 342.342 705.69 342.793 701.928C342.945 700.661 344.179 691.607 344.393 686.287C344.721 686.149 350.186 685.436 352.992 680.704C359.472 669.789 357.011 625.633 361.543 600.806C366.076 575.978 361.374 548.19 361.223 540.905C377.759 520.215 384.534 488.294 384.534 488.294L419.486 680.196C419.486 680.196 419.859 683.727 422.747 685.614C423.091 691.105 423.889 700.945 425.243 702.034C427.131 703.565 437.491 703.268 443.265 702.773C449.038 702.284 453.193 700.707 453.841 697.652C454.298 695.494 454.109 686.96 453.958 682.143C456.299 681.087 457.843 678.969 458.007 676.593C458.007 676.593 462.179 653.712 457.323 620.411Z" fill="url(#paint22_linear_3039_245185)"/>
<g style="mix-blend-mode:overlay" opacity="0.6">
<g style="mix-blend-mode:overlay" opacity="0.6">
<path d="M457.326 433.177C457.297 433.177 457.268 433.174 457.24 433.17C427.124 428.278 432.07 397.802 432.124 397.495C432.166 397.254 432.415 397.089 432.68 397.128C432.945 397.166 433.126 397.392 433.084 397.634C433.033 397.933 428.241 427.557 457.41 432.295C457.658 432.335 457.832 432.542 457.81 432.772C457.788 433.001 457.578 433.177 457.326 433.177Z" fill="#030F1C"/>
</g>
</g>
<g style="mix-blend-mode:overlay" opacity="0.6">
<g style="mix-blend-mode:overlay" opacity="0.6">
<path d="M317.376 426.966C317.151 426.966 316.956 426.826 316.903 426.627C316.849 426.428 316.951 426.222 317.15 426.127C317.36 426.026 338.2 415.859 337.098 397.589C337.091 397.472 337.135 397.357 337.221 397.269C337.307 397.181 337.428 397.128 337.558 397.122C337.687 397.114 337.814 397.153 337.911 397.232C338.007 397.312 338.065 397.423 338.07 397.541C339.207 416.387 317.817 426.812 317.6 426.915C317.531 426.948 317.454 426.966 317.376 426.966Z" fill="#030F1C"/>
</g>
</g>
<g style="mix-blend-mode:overlay" opacity="0.6">
<g style="mix-blend-mode:overlay" opacity="0.6">
<path d="M320.211 396.367L319.397 406.048C373.522 425.635 456.995 412.038 456.995 412.038L456.723 396.367H320.211Z" fill="#030F1C"/>
</g>
</g>
<g style="mix-blend-mode:overlay" opacity="0.6">
<g style="mix-blend-mode:overlay" opacity="0.6">
<path d="M384.537 488.294L371.578 444.255C371.578 444.255 364.789 468.106 367.702 493.91C370.616 519.715 369.664 528.048 369.664 528.048C369.664 528.048 380.51 508.245 384.537 488.294Z" fill="#030F1C"/>
</g>
</g>
<g style="mix-blend-mode:overlay" opacity="0.6">
<g style="mix-blend-mode:overlay" opacity="0.6">
<path d="M317.541 429.329C317.541 429.329 323.341 427.112 325.607 435.388C327.873 443.663 325.186 484.451 322.597 507.506C320.007 530.559 316.89 565.732 316.397 584.057C315.904 602.382 309.124 610.806 309.124 610.806C309.124 610.806 309.61 549.919 309.743 540.297C309.931 526.775 314.142 473.516 317.541 429.329Z" fill="white"/>
</g>
</g>
<path d="M531.566 317.34L480.589 402.05L459.632 391.397L473.077 354.165L487.624 314.058L488.414 311.848L456.078 272.68L457.148 399.282C457.174 402.315 454.464 404.774 451.144 404.733L323.707 403.167C321.366 403.138 319.496 401.38 319.532 399.243L321.914 259.561L258.271 283.873C240.077 290.827 221.706 274.312 229.042 257.597L272.101 159.408L292.093 165.583L278.335 226.028L326.185 200.263C330.7 197.828 335.849 196.543 341.095 196.545H357.626L374.158 196.137L387.755 209.996L408.146 194.306L424.771 199.467L460.566 208.317C469.575 210.555 477.314 215.839 482.21 223.097L530.963 295.38C533.182 298.665 534.407 302.428 534.512 306.286C534.619 310.143 533.602 313.958 531.566 317.34Z" fill="url(#paint23_linear_3039_245185)"/>
<path d="M237.343 271.896C234.886 267.972 242.092 244.686 244.14 234.409C240.406 229.751 232.408 248.297 228.876 258.152C226.808 263.18 225.273 274.791 235.688 281.004C248.707 288.771 256.036 283.456 263.712 281.004C271.387 278.552 278.678 272.946 271.003 271.896C263.328 270.844 240.415 276.8 237.343 271.896Z" fill="#DDF0FC"/>
<g style="mix-blend-mode:overlay" opacity="0.6">
<path style="mix-blend-mode:overlay" opacity="0.6" d="M354.126 402.05C354.126 402.05 402.328 401.282 421.177 378.715C440.026 356.147 417.707 349.203 432.877 329.159C448.047 309.116 435.672 307.285 444.65 293.226C451.071 283.181 438.597 255.552 438.597 255.552L456.037 272.67V402.05H354.126Z" fill="url(#paint24_linear_3039_245185)"/>
</g>
<g style="mix-blend-mode:overlay" opacity="0.6">
<path style="mix-blend-mode:overlay" opacity="0.6" d="M321.912 259.561V224.235C321.912 225.828 321.518 244.288 306.628 249.259C291.042 254.457 297.941 262.378 282.376 266.476C271.985 269.198 271.455 275.962 267.829 280.221L321.912 259.561Z" fill="url(#paint25_linear_3039_245185)"/>
</g>
<g style="mix-blend-mode:overlay" opacity="0.6">
<path style="mix-blend-mode:overlay" opacity="0.6" d="M278.335 226.028L274.033 243.795L289.89 219.834L278.335 226.028Z" fill="url(#paint26_linear_3039_245185)"/>
</g>
<g style="mix-blend-mode:overlay">
<g style="mix-blend-mode:overlay">
<path d="M373.294 192.109C373.294 192.109 376.71 199.852 384.219 202.972L374.074 213.48L366.856 199.054L373.294 192.109Z" fill="white"/>
</g>
</g>
<path d="M409.274 183.203C404.707 192.967 395.462 200.261 384.219 202.973C388.706 206.891 389.876 213.48 389.876 213.48L413.286 196.917L409.274 183.203Z" fill="white"/>
<path d="M387.641 282.391L385.462 214.861L388.853 210.011C388.853 210.011 386.98 205.065 384.219 202.973L376.352 211.121L377.811 214.861L363.002 334.766L374.967 347.233L389.311 334.159L388.448 307.405C388.448 299.881 387.641 293.536 387.641 282.391Z" fill="#D83637"/>
<path d="M378.447 345.516C378.61 351.608 377.954 362.686 377.316 373.467C376.547 386.441 375.752 399.857 376.391 404.531C376.413 404.687 376.622 404.807 376.873 404.807C376.887 404.807 376.901 404.807 376.915 404.806C377.043 404.799 377.16 404.761 377.244 404.7C377.326 404.639 377.367 404.56 377.356 404.481C376.722 399.843 377.515 386.445 378.282 373.489C378.916 362.784 379.568 351.788 379.417 345.636C379.091 345.595 378.767 345.556 378.447 345.516Z" fill="#0B122D"/>
<g style="mix-blend-mode:overlay" opacity="0.6">
<g style="mix-blend-mode:overlay" opacity="0.6">
<path d="M423.517 272.496L412.417 277.196L401.317 272.496V249.481H423.517V272.496Z" fill="white"/>
</g>
</g>
<g style="mix-blend-mode:overlay" opacity="0.6">
<g style="mix-blend-mode:overlay" opacity="0.6">
<path d="M362.524 248.66H338.393V251.934H362.524V248.66Z" fill="white"/>
</g>
</g>
<path d="M498.662 305.039C493.888 298.846 479.088 293.667 472.285 291.85L488.3 311.346C487.463 313.448 485.349 318.8 483.59 323.387C481.392 329.121 485.474 349.189 489.87 341.162C494.267 333.134 504.63 312.779 498.662 305.039Z" fill="#DDF0FC"/>
<path d="M478.756 299.911C482.188 303.502 489.052 310.997 489.053 312.251C489.053 313.504 485.049 321.522 483.046 325.374" stroke="black" stroke-width="0.819607" stroke-linecap="round"/>
<path d="M456.021 284.27C456.505 280.883 456.846 273.489 454.329 271.015C451.182 267.923 440.535 260.633 439.567 254.447" stroke="black" stroke-width="0.819607" stroke-linecap="round"/>
<path d="M321.776 241.966C321.16 254.143 320.299 282.317 321.776 297.604" stroke="black" stroke-width="0.819607" stroke-linecap="round"/>
<path d="M280.223 213.023C280.224 214.428 277.143 222.858 277.76 225.106C278.254 226.904 285.559 222.671 289.151 220.329" stroke="black" stroke-width="0.819607" stroke-linecap="round"/>
<path d="M492.025 382.525L526.786 322.12" stroke="black" stroke-width="0.819607" stroke-linecap="round"/>
<path d="M271.606 160.194C274.889 161.037 282.811 163.285 288.228 165.533" stroke="black" stroke-width="0.819607" stroke-linecap="round"/>
<path d="M398.675 161.636C397.257 164.893 390.992 172.181 377.272 175.286" stroke="black" stroke-width="0.819607" stroke-linecap="round"/>
<path opacity="0.6" d="M380.053 371.089C395.276 365.566 411.297 371.873 417.347 385.77C423.396 399.667 415.936 415.475 400.714 420.998C385.492 426.521 369.47 420.214 363.421 406.317C357.371 392.42 364.83 376.612 380.053 371.089Z" fill="#81D4FA"/>
<path d="M380.053 371.089C395.275 365.566 411.296 371.873 417.347 385.77C423.396 399.667 415.936 415.475 400.714 420.998C385.492 426.521 369.47 420.214 363.42 406.317C357.37 392.42 364.83 376.612 380.053 371.089ZM358.595 382.198C349.501 401.452 365.672 418.893 373.961 422.249C389.299 428.455 412.219 426.843 421.411 407.367C429.928 389.336 417.728 374.817 403.419 368.424C393.92 364.185 367.685 362.954 358.595 382.198Z" fill="#616161"/>
<path d="M443.876 411.32L440.042 419.505L418.962 411.102C418.962 411.102 416.716 409.331 418.231 406.121C419.747 402.913 422.795 402.917 422.795 402.917L443.876 411.32Z" fill="#BDBDBD"/>
<path d="M430.99 404.727C429.849 404.412 426.203 404.032 424.202 408.228C422.209 412.421 424.581 414.3 425.614 414.939C425.614 414.939 459.35 430.157 460.842 430.75C463.039 431.615 465.735 429.219 467.537 425.403C469.339 421.588 469.632 418.425 467.274 417.497C465.355 416.742 432.131 405.043 430.99 404.727Z" fill="#D83637"/>
<path d="M375.981 369.3C391.203 363.777 408.51 370.59 414.56 384.487C420.61 398.384 413.147 414.184 397.924 419.708C382.702 425.231 365.395 418.418 359.345 404.521C353.295 390.623 360.758 374.823 375.981 369.3ZM374.773 366.527C357.856 372.666 349.589 390.169 356.313 405.612C363.036 421.057 382.208 428.604 399.125 422.466C416.043 416.328 424.312 398.832 417.586 383.381C410.86 367.93 391.691 360.389 374.773 366.527Z" fill="#BDBDBD"/>
<path d="M467.541 425.403C469.21 421.869 469.356 418.529 467.866 417.942C466.376 417.356 463.816 419.746 462.146 423.28C460.477 426.814 460.331 430.154 461.821 430.741C463.312 431.327 465.872 428.937 467.541 425.403Z" fill="#B61415"/>
<path d="M367.196 384.615C364.278 391.211 364.619 397.217 367.133 403.114C368.059 405.283 369.386 407.452 371.588 408.615C373.79 409.778 377.048 409.529 378.413 407.566C379.32 406.264 379.213 404.609 379.263 403.074C379.34 400.72 379.852 398.369 380.785 396.166C381.947 393.41 383.747 390.892 384.786 388.1C385.826 385.307 385.985 381.981 384.048 379.612C382.143 377.296 378.538 376.479 375.485 377.238C372.432 377.998 368.879 380.81 367.196 384.615Z" fill="url(#paint27_linear_3039_245185)"/>
<path opacity="0.59" d="M411.881 410.705C411.741 410.383 411.781 410.027 411.983 409.735C413.054 408.22 416.09 404.483 416.931 397.174C417.412 392.914 416.899 389.695 416.656 388.567C415.97 385.379 418.105 385.755 418.702 387.76C419.377 390.044 421.483 400.411 413.951 410.87C413.427 411.603 412.235 411.517 411.881 410.705ZM363.376 376.103C363.672 377.05 362.352 378.526 362.129 378.809C360.977 380.281 357.919 383.458 357.042 390.764C356.631 394.164 356.716 397.481 356.942 399.061C357.311 401.644 355.351 401.811 354.856 399.778C354.294 397.468 352.722 387.022 360.771 376.894C361.342 376.184 362.982 374.852 363.376 376.103Z" fill="white"/>
<path d="M405.081 411.671C401.915 413.476 400.336 412.542 400.202 411.091C400.091 409.939 401.156 409.042 402.15 408.325C407.446 404.498 410.544 398.112 412.271 392.265C414.058 396.148 413.919 398.826 412.868 401.898C411.835 404.892 409.945 408.893 405.081 411.671Z" fill="url(#paint28_linear_3039_245185)"/>
<path d="M461.415 392.316C461.415 392.316 453.361 392.047 443.654 398.259C437.8 402.003 431.298 404.82 424.419 406.593C425.515 412.045 443.311 407.798 443.311 407.798C443.311 407.798 430.045 425.067 432.803 427.564C435.563 430.061 437.686 427.899 437.686 427.899C441.038 431.812 445.287 427.564 445.287 427.564C447.173 431.698 452.619 427.226 452.619 427.226C452.619 427.226 453.269 430.414 457.511 428.089C461.752 425.763 472.818 406.272 472.818 406.272L476.525 402.237L477.98 400.631C468.021 396.017 464.568 393.549 461.415 392.316Z" fill="#F2AC7D"/>
<path d="M432.152 79.8339C431.645 79.7375 431.269 79.4901 431.024 79.0921C430.779 78.6935 430.724 78.2005 430.858 77.6112C431.456 75.0038 432.474 72.8715 433.912 71.2144C435.396 69.5665 437.355 67.8335 439.791 66.0167C441.772 64.5072 443.276 63.1921 444.302 62.0711C445.375 60.9591 446.089 59.6249 446.446 58.0687C446.86 56.2603 446.469 54.7149 445.273 53.4326C444.085 52.1084 442.271 51.213 439.83 50.7465C437.757 50.3504 435.758 50.3637 433.833 50.7863C431.919 51.1669 429.683 51.903 427.124 52.9946C426.225 53.3497 425.522 53.4788 425.016 53.382C424.463 53.2764 424.051 52.9781 423.778 52.4871C423.562 51.9628 423.521 51.4063 423.656 50.8175C423.849 49.9763 424.386 49.3107 425.268 48.8206C427.477 47.5745 430.001 46.7396 432.839 46.316C435.732 45.8591 438.492 45.8816 441.118 46.3832C445.126 47.1489 448.144 48.6693 450.171 50.9443C452.244 53.228 452.943 55.842 452.268 58.786C451.757 61.0151 450.784 62.8486 449.349 64.2864C447.969 65.6909 445.968 67.2844 443.348 69.0663C440.895 70.7491 438.932 72.2835 437.46 73.6707C436.044 75.0242 434.984 76.7097 434.282 78.7265C434.129 79.1805 433.863 79.5026 433.483 79.6933C433.103 79.8841 432.659 79.9309 432.152 79.8339ZM429.561 91.4555C428.455 91.2443 427.61 90.7315 427.028 89.9178C426.491 89.1127 426.338 88.2059 426.569 87.1962C426.801 86.1872 427.339 85.4117 428.185 84.8712C429.086 84.2971 430.089 84.1156 431.194 84.3268C432.3 84.538 433.116 85.0666 433.644 85.9139C434.227 86.7277 434.402 87.639 434.171 88.6487C433.94 89.6578 433.378 90.4286 432.487 90.9612C431.642 91.5017 430.666 91.6667 429.561 91.4555Z" fill="#27303F"/>
<path d="M455.933 111.431C455.589 111.302 455.359 111.082 455.242 110.771C455.126 110.461 455.157 110.105 455.337 109.706C456.133 107.933 457.157 106.546 458.411 105.547C459.696 104.558 461.33 103.567 463.312 102.572C464.928 101.741 466.179 100.991 467.066 100.321C467.983 99.6626 468.679 98.8046 469.154 97.7468C469.706 96.5179 469.651 95.3782 468.988 94.3289C468.338 93.2512 467.184 92.4019 465.524 91.7809C464.115 91.2536 462.7 91.0246 461.279 91.0939C459.871 91.1348 458.184 91.3882 456.219 91.8548C455.533 91.9987 455.017 92.0066 454.673 91.8772C454.297 91.7367 454.048 91.4766 453.926 91.0972C453.848 90.7006 453.899 90.3026 454.078 89.902C454.335 89.3305 454.81 88.924 455.504 88.6824C457.244 88.0647 459.148 87.7757 461.215 87.8146C463.326 87.8364 465.274 88.1816 467.059 88.8494C469.784 89.869 471.699 91.3037 472.807 93.1536C473.946 95.0159 474.067 96.9476 473.168 98.9485C472.488 100.464 471.537 101.644 470.316 102.489C469.14 103.317 467.498 104.206 465.39 105.153C463.414 106.05 461.807 106.901 460.568 107.706C459.374 108.495 458.383 109.56 457.597 110.902C457.425 111.204 457.19 111.4 456.895 111.49C456.598 111.58 456.278 111.56 455.933 111.431ZM452.438 119.339C451.686 119.058 451.163 118.594 450.867 117.95C450.603 117.316 450.625 116.657 450.933 115.97C451.241 115.285 451.733 114.801 452.408 114.519C453.127 114.22 453.862 114.212 454.613 114.493C455.365 114.775 455.867 115.246 456.118 115.908C456.414 116.552 456.408 117.218 456.1 117.904C455.792 118.59 455.284 119.068 454.578 119.338C453.903 119.619 453.19 119.62 452.438 119.339Z" fill="#27303F"/>
<path d="M403.209 73.6536C402.987 73.7077 402.784 73.6787 402.599 73.5658C402.415 73.453 402.285 73.2675 402.209 73.0088C401.874 71.8665 401.809 70.835 402.015 69.915C402.241 68.9904 402.638 67.9451 403.205 66.779C403.658 65.8182 403.966 65.0219 404.127 64.3898C404.307 63.7527 404.298 63.0932 404.098 62.4111C403.865 61.6184 403.371 61.0775 402.615 60.7881C401.854 60.4804 400.938 60.4574 399.868 60.7192C398.96 60.9415 398.17 61.3124 397.5 61.8319C396.825 62.333 396.1 63.0339 395.326 63.9347C395.047 64.2399 394.797 64.4196 394.575 64.474C394.332 64.5333 394.103 64.4905 393.888 64.3456C393.687 64.1774 393.549 63.9643 393.473 63.7062C393.365 63.3375 393.432 62.9754 393.673 62.6198C394.275 61.7218 395.092 60.9291 396.124 60.242C397.171 59.5316 398.27 59.0355 399.421 58.7539C401.178 58.3242 402.708 58.3748 404.01 58.9057C405.333 59.4316 406.185 60.3398 406.564 61.6302C406.85 62.6073 406.866 63.5121 406.613 64.3446C406.375 65.1539 405.932 66.1514 405.284 67.3373C404.681 68.4526 404.24 69.4201 403.96 70.239C403.697 71.0349 403.647 71.8968 403.811 72.8247C403.85 73.0326 403.815 73.2088 403.706 73.354C403.598 73.4992 403.432 73.5988 403.209 73.6536ZM404.733 78.7338C404.249 78.8526 403.801 78.8038 403.392 78.588C403.003 78.3669 402.743 78.0356 402.613 77.5928C402.483 77.1506 402.526 76.7448 402.742 76.3759C402.974 75.9832 403.332 75.7278 403.817 75.6097C404.301 75.4909 404.74 75.5509 405.136 75.7905C405.545 76.0063 405.815 76.3356 405.945 76.7778C406.075 77.2206 406.021 77.6284 405.785 78.0026C405.568 78.3715 405.218 78.6157 404.733 78.7338Z" fill="#27303F"/>
<path d="M437.77 428.163L443.754 417.775" stroke="black" stroke-width="0.819607" stroke-linecap="round"/>
<path d="M445.439 427.624L451.424 417.236" stroke="black" stroke-width="0.819607" stroke-linecap="round"/>
<path d="M452.688 427.086L458.673 416.698" stroke="black" stroke-width="0.819607" stroke-linecap="round"/>
</g>
<path d="M77.864 539.48C74.6 539.48 71.736 538.76 69.272 537.32C66.84 535.88 64.952 533.864 63.608 531.272C62.264 528.648 61.592 525.576 61.592 522.056C61.592 518.504 62.264 515.432 63.608 512.84C64.952 510.248 66.84 508.248 69.272 506.84C71.704 505.4 74.568 504.68 77.864 504.68C81.16 504.68 84.024 505.4 86.456 506.84C88.888 508.248 90.776 510.248 92.12 512.84C93.464 515.432 94.136 518.488 94.136 522.008C94.136 525.56 93.464 528.648 92.12 531.272C90.776 533.864 88.888 535.88 86.456 537.32C84.024 538.76 81.16 539.48 77.864 539.48ZM77.864 534.2C80.968 534.2 83.384 533.128 85.112 530.984C86.84 528.84 87.704 525.864 87.704 522.056C87.704 518.216 86.84 515.24 85.112 513.128C83.416 511.016 81 509.96 77.864 509.96C74.76 509.96 72.344 511.016 70.616 513.128C68.888 515.24 68.024 518.216 68.024 522.056C68.024 525.864 68.888 528.84 70.616 530.984C72.344 533.128 74.76 534.2 77.864 534.2ZM110.512 539.48C108.08 539.48 105.968 538.984 104.176 537.992C102.384 537 100.992 535.592 99.9995 533.768C99.0075 531.912 98.5115 529.736 98.5115 527.24C98.5115 524.744 99.0075 522.584 99.9995 520.76C100.992 518.936 102.384 517.528 104.176 516.536C105.968 515.544 108.08 515.048 110.512 515.048C112.944 515.048 115.056 515.544 116.848 516.536C118.64 517.528 120.032 518.936 121.024 520.76C122.016 522.584 122.512 524.744 122.512 527.24C122.512 529.736 122.016 531.912 121.024 533.768C120.032 535.592 118.64 537 116.848 537.992C115.056 538.984 112.944 539.48 110.512 539.48ZM110.512 534.92C112.304 534.92 113.744 534.28 114.832 533C115.92 531.688 116.464 529.768 116.464 527.24C116.464 524.68 115.92 522.776 114.832 521.528C113.744 520.248 112.304 519.608 110.512 519.608C108.72 519.608 107.28 520.248 106.192 521.528C105.104 522.776 104.56 524.68 104.56 527.24C104.56 529.768 105.104 531.688 106.192 533C107.28 534.28 108.72 534.92 110.512 534.92ZM130.44 548.024C128.456 548.024 127.464 547.016 127.464 545V518.168C127.464 516.152 128.44 515.144 130.392 515.144C132.376 515.144 133.368 516.152 133.368 518.168V519.176C134.04 517.928 135.048 516.936 136.392 516.2C137.736 515.432 139.272 515.048 141 515.048C143.048 515.048 144.84 515.544 146.376 516.536C147.944 517.528 149.16 518.936 150.024 520.76C150.888 522.552 151.32 524.712 151.32 527.24C151.32 529.736 150.888 531.912 150.024 533.768C149.16 535.592 147.96 537 146.424 537.992C144.888 538.984 143.08 539.48 141 539.48C139.336 539.48 137.832 539.128 136.488 538.424C135.176 537.688 134.168 536.712 133.464 535.496V545C133.464 547.016 132.456 548.024 130.44 548.024ZM139.32 534.92C141.112 534.92 142.552 534.28 143.64 533C144.728 531.688 145.272 529.768 145.272 527.24C145.272 524.68 144.728 522.776 143.64 521.528C142.552 520.248 141.112 519.608 139.32 519.608C137.528 519.608 136.088 520.248 135 521.528C133.912 522.776 133.368 524.68 133.368 527.24C133.368 529.768 133.912 531.688 135 533C136.088 534.28 137.528 534.92 139.32 534.92ZM164.837 539.48C163.461 539.48 162.005 539.336 160.469 539.048C158.933 538.76 157.557 538.264 156.341 537.56C155.669 537.176 155.253 536.712 155.093 536.168C154.933 535.592 154.949 535.064 155.141 534.584C155.365 534.072 155.717 533.704 156.197 533.48C156.709 533.256 157.301 533.304 157.973 533.624C159.253 534.232 160.453 534.664 161.573 534.92C162.693 535.144 163.797 535.256 164.885 535.256C166.421 535.256 167.557 535 168.293 534.488C169.061 533.944 169.445 533.24 169.445 532.376C169.445 531.032 168.453 530.168 166.469 529.784L161.669 528.872C157.605 528.104 155.573 525.992 155.573 522.536C155.573 521 155.989 519.672 156.821 518.552C157.685 517.432 158.869 516.568 160.373 515.96C161.877 515.352 163.605 515.048 165.557 515.048C168.373 515.048 170.885 515.672 173.093 516.92C173.701 517.24 174.053 517.688 174.149 518.264C174.277 518.808 174.213 519.336 173.957 519.848C173.733 520.328 173.365 520.68 172.853 520.904C172.341 521.096 171.749 521.032 171.077 520.712C170.085 520.2 169.125 519.832 168.197 519.608C167.301 519.384 166.437 519.272 165.605 519.272C164.037 519.272 162.869 519.544 162.101 520.088C161.365 520.632 160.997 521.352 160.997 522.248C160.997 523.656 161.909 524.52 163.733 524.84L168.533 525.752C170.613 526.136 172.181 526.84 173.237 527.864C174.325 528.888 174.869 530.264 174.869 531.992C174.869 534.328 173.957 536.168 172.133 537.512C170.309 538.824 167.877 539.48 164.837 539.48ZM182.562 529.256C181.315 529.256 180.643 528.52 180.547 527.048L179.107 508.712C179.011 507.528 179.267 506.584 179.875 505.88C180.483 505.144 181.379 504.776 182.562 504.776C183.715 504.776 184.579 505.144 185.155 505.88C185.763 506.584 186.019 507.528 185.923 508.712L184.483 527.048C184.387 528.52 183.747 529.256 182.562 529.256ZM182.562 539.24C181.475 539.24 180.595 538.904 179.923 538.232C179.283 537.56 178.963 536.696 178.963 535.64C178.963 534.616 179.283 533.784 179.923 533.144C180.595 532.472 181.475 532.136 182.562 532.136C183.683 532.136 184.547 532.472 185.155 533.144C185.795 533.784 186.115 534.616 186.115 535.64C186.115 536.696 185.795 537.56 185.155 538.232C184.547 538.904 183.683 539.24 182.562 539.24Z" fill="#CBD5E0"/>
<path d="M66.23 587.24C65.61 587.24 65.13 587.07 64.79 586.73C64.47 586.37 64.31 585.88 64.31 585.26V567.59C64.31 566.95 64.47 566.46 64.79 566.12C65.13 565.78 65.61 565.61 66.23 565.61C66.85 565.61 67.32 565.78 67.64 566.12C67.98 566.46 68.15 566.95 68.15 567.59V574.67H79.04V567.59C79.04 566.95 79.2 566.46 79.52 566.12C79.86 565.78 80.34 565.61 80.96 565.61C81.58 565.61 82.05 565.78 82.37 566.12C82.71 566.46 82.88 566.95 82.88 567.59V585.26C82.88 585.88 82.71 586.37 82.37 586.73C82.05 587.07 81.58 587.24 80.96 587.24C80.34 587.24 79.86 587.07 79.52 586.73C79.2 586.37 79.04 585.88 79.04 585.26V577.88H68.15V585.26C68.15 585.88 67.99 586.37 67.67 586.73C67.35 587.07 66.87 587.24 66.23 587.24ZM91.9831 587.3C90.9231 587.3 89.9731 587.1 89.1331 586.7C88.3131 586.28 87.6631 585.72 87.1831 585.02C86.7231 584.32 86.4931 583.53 86.4931 582.65C86.4931 581.57 86.7731 580.72 87.3331 580.1C87.8931 579.46 88.8031 579 90.0631 578.72C91.3231 578.44 93.0131 578.3 95.1331 578.3H96.6331V580.46H95.1631C93.9231 580.46 92.9331 580.52 92.1931 580.64C91.4531 580.76 90.9231 580.97 90.6031 581.27C90.3031 581.55 90.1531 581.95 90.1531 582.47C90.1531 583.13 90.3831 583.67 90.8431 584.09C91.3031 584.51 91.9431 584.72 92.7631 584.72C93.4231 584.72 94.0031 584.57 94.5031 584.27C95.0231 583.95 95.4331 583.52 95.7331 582.98C96.0331 582.44 96.1831 581.82 96.1831 581.12V577.67C96.1831 576.67 95.9631 575.95 95.5231 575.51C95.0831 575.07 94.3431 574.85 93.3031 574.85C92.7231 574.85 92.0931 574.92 91.4131 575.06C90.7531 575.2 90.0531 575.44 89.3131 575.78C88.9331 575.96 88.5931 576.01 88.2931 575.93C88.0131 575.85 87.7931 575.69 87.6331 575.45C87.4731 575.19 87.3931 574.91 87.3931 574.61C87.3931 574.31 87.4731 574.02 87.6331 573.74C87.7931 573.44 88.0631 573.22 88.4431 573.08C89.3631 572.7 90.2431 572.43 91.0831 572.27C91.9431 572.11 92.7231 572.03 93.4231 572.03C94.8631 572.03 96.0431 572.25 96.9631 572.69C97.9031 573.13 98.6031 573.8 99.0631 574.7C99.5231 575.58 99.7531 576.72 99.7531 578.12V585.32C99.7531 585.94 99.6031 586.42 99.3031 586.76C99.0031 587.08 98.5731 587.24 98.0131 587.24C97.4531 587.24 97.0131 587.08 96.6931 586.76C96.3931 586.42 96.2431 585.94 96.2431 585.32V583.88H96.4831C96.3431 584.58 96.0631 585.19 95.6431 585.71C95.2431 586.21 94.7331 586.6 94.1131 586.88C93.4931 587.16 92.7831 587.3 91.9831 587.3ZM108.569 587.3C106.909 587.3 105.659 586.83 104.819 585.89C103.979 584.93 103.559 583.53 103.559 581.69V567.5C103.559 566.88 103.719 566.41 104.039 566.09C104.359 565.77 104.819 565.61 105.419 565.61C106.019 565.61 106.479 565.77 106.799 566.09C107.139 566.41 107.309 566.88 107.309 567.5V581.51C107.309 582.43 107.499 583.11 107.879 583.55C108.279 583.99 108.839 584.21 109.559 584.21C109.719 584.21 109.869 584.21 110.009 584.21C110.149 584.19 110.289 584.17 110.429 584.15C110.709 584.11 110.899 584.19 110.999 584.39C111.099 584.57 111.149 584.95 111.149 585.53C111.149 586.03 111.049 586.42 110.849 586.7C110.649 586.98 110.319 587.15 109.859 587.21C109.659 587.23 109.449 587.25 109.229 587.27C109.009 587.29 108.789 587.3 108.569 587.3ZM117.969 587.3C116.909 587.3 115.959 587.1 115.119 586.7C114.299 586.28 113.649 585.72 113.169 585.02C112.709 584.32 112.479 583.53 112.479 582.65C112.479 581.57 112.759 580.72 113.319 580.1C113.879 579.46 114.789 579 116.049 578.72C117.309 578.44 118.999 578.3 121.119 578.3H122.619V580.46H121.149C119.909 580.46 118.919 580.52 118.179 580.64C117.439 580.76 116.909 580.97 116.589 581.27C116.289 581.55 116.139 581.95 116.139 582.47C116.139 583.13 116.369 583.67 116.829 584.09C117.289 584.51 117.929 584.72 118.749 584.72C119.409 584.72 119.989 584.57 120.489 584.27C121.009 583.95 121.419 583.52 121.719 582.98C122.019 582.44 122.169 581.82 122.169 581.12V577.67C122.169 576.67 121.949 575.95 121.509 575.51C121.069 575.07 120.329 574.85 119.289 574.85C118.709 574.85 118.079 574.92 117.399 575.06C116.739 575.2 116.039 575.44 115.299 575.78C114.919 575.96 114.579 576.01 114.279 575.93C113.999 575.85 113.779 575.69 113.619 575.45C113.459 575.19 113.379 574.91 113.379 574.61C113.379 574.31 113.459 574.02 113.619 573.74C113.779 573.44 114.049 573.22 114.429 573.08C115.349 572.7 116.229 572.43 117.069 572.27C117.929 572.11 118.709 572.03 119.409 572.03C120.849 572.03 122.029 572.25 122.949 572.69C123.889 573.13 124.589 573.8 125.049 574.7C125.509 575.58 125.739 576.72 125.739 578.12V585.32C125.739 585.94 125.589 586.42 125.289 586.76C124.989 587.08 124.559 587.24 123.999 587.24C123.439 587.24 122.999 587.08 122.679 586.76C122.379 586.42 122.229 585.94 122.229 585.32V583.88H122.469C122.329 584.58 122.049 585.19 121.629 585.71C121.229 586.21 120.719 586.6 120.099 586.88C119.479 587.16 118.769 587.3 117.969 587.3ZM131.466 587.24C130.866 587.24 130.406 587.08 130.086 586.76C129.766 586.42 129.606 585.94 129.606 585.32V573.98C129.606 573.36 129.766 572.89 130.086 572.57C130.406 572.25 130.856 572.09 131.436 572.09C132.016 572.09 132.466 572.25 132.786 572.57C133.106 572.89 133.266 573.36 133.266 573.98V576.17L132.936 575.27C133.336 574.27 133.956 573.48 134.796 572.9C135.636 572.32 136.636 572.03 137.796 572.03C138.976 572.03 139.946 572.31 140.706 572.87C141.466 573.43 141.996 574.29 142.296 575.45H141.876C142.276 574.39 142.936 573.56 143.856 572.96C144.776 572.34 145.836 572.03 147.036 572.03C148.156 572.03 149.076 572.25 149.796 572.69C150.536 573.13 151.086 573.8 151.446 574.7C151.806 575.58 151.986 576.7 151.986 578.06V585.32C151.986 585.94 151.816 586.42 151.476 586.76C151.156 587.08 150.696 587.24 150.096 587.24C149.496 587.24 149.036 587.08 148.716 586.76C148.396 586.42 148.236 585.94 148.236 585.32V578.21C148.236 577.09 148.046 576.27 147.666 575.75C147.306 575.23 146.686 574.97 145.806 574.97C144.826 574.97 144.056 575.32 143.496 576.02C142.936 576.7 142.656 577.65 142.656 578.87V585.32C142.656 585.94 142.496 586.42 142.176 586.76C141.856 587.08 141.396 587.24 140.796 587.24C140.196 587.24 139.726 587.08 139.386 586.76C139.066 586.42 138.906 585.94 138.906 585.32V578.21C138.906 577.09 138.716 576.27 138.336 575.75C137.976 575.23 137.366 574.97 136.506 574.97C135.526 574.97 134.756 575.32 134.196 576.02C133.636 576.7 133.356 577.65 133.356 578.87V585.32C133.356 586.6 132.726 587.24 131.466 587.24ZM160.684 587.3C159.624 587.3 158.674 587.1 157.834 586.7C157.014 586.28 156.364 585.72 155.884 585.02C155.424 584.32 155.194 583.53 155.194 582.65C155.194 581.57 155.474 580.72 156.034 580.1C156.594 579.46 157.504 579 158.764 578.72C160.024 578.44 161.714 578.3 163.834 578.3H165.334V580.46H163.864C162.624 580.46 161.634 580.52 160.894 580.64C160.154 580.76 159.624 580.97 159.304 581.27C159.004 581.55 158.854 581.95 158.854 582.47C158.854 583.13 159.084 583.67 159.544 584.09C160.004 584.51 160.644 584.72 161.464 584.72C162.124 584.72 162.704 584.57 163.204 584.27C163.724 583.95 164.134 583.52 164.434 582.98C164.734 582.44 164.884 581.82 164.884 581.12V577.67C164.884 576.67 164.664 575.95 164.224 575.51C163.784 575.07 163.044 574.85 162.004 574.85C161.424 574.85 160.794 574.92 160.114 575.06C159.454 575.2 158.754 575.44 158.014 575.78C157.634 575.96 157.294 576.01 156.994 575.93C156.714 575.85 156.494 575.69 156.334 575.45C156.174 575.19 156.094 574.91 156.094 574.61C156.094 574.31 156.174 574.02 156.334 573.74C156.494 573.44 156.764 573.22 157.144 573.08C158.064 572.7 158.944 572.43 159.784 572.27C160.644 572.11 161.424 572.03 162.124 572.03C163.564 572.03 164.744 572.25 165.664 572.69C166.604 573.13 167.304 573.8 167.764 574.7C168.224 575.58 168.454 576.72 168.454 578.12V585.32C168.454 585.94 168.304 586.42 168.004 586.76C167.704 587.08 167.274 587.24 166.714 587.24C166.154 587.24 165.714 587.08 165.394 586.76C165.094 586.42 164.944 585.94 164.944 585.32V583.88H165.184C165.044 584.58 164.764 585.19 164.344 585.71C163.944 586.21 163.434 586.6 162.814 586.88C162.194 587.16 161.484 587.3 160.684 587.3ZM174.121 587.24C173.521 587.24 173.061 587.08 172.741 586.76C172.421 586.42 172.261 585.94 172.261 585.32V573.98C172.261 573.36 172.421 572.89 172.741 572.57C173.061 572.25 173.511 572.09 174.091 572.09C174.671 572.09 175.121 572.25 175.441 572.57C175.761 572.89 175.921 573.36 175.921 573.98V576.02L175.591 575.27C176.031 574.21 176.711 573.41 177.631 572.87C178.571 572.31 179.631 572.03 180.811 572.03C181.991 572.03 182.961 572.25 183.721 572.69C184.481 573.13 185.051 573.8 185.431 574.7C185.811 575.58 186.001 576.7 186.001 578.06V585.32C186.001 585.94 185.841 586.42 185.521 586.76C185.201 587.08 184.741 587.24 184.141 587.24C183.541 587.24 183.071 587.08 182.731 586.76C182.411 586.42 182.251 585.94 182.251 585.32V578.24C182.251 577.1 182.031 576.27 181.591 575.75C181.171 575.23 180.511 574.97 179.611 574.97C178.511 574.97 177.631 575.32 176.971 576.02C176.331 576.7 176.011 577.61 176.011 578.75V585.32C176.011 586.6 175.381 587.24 174.121 587.24ZM201.674 592.64C201.234 592.64 200.874 592.52 200.594 592.28C200.314 592.06 200.144 591.76 200.084 591.38C200.044 591 200.114 590.6 200.294 590.18L202.334 585.65V587.21L196.874 574.58C196.694 574.14 196.634 573.73 196.694 573.35C196.754 572.97 196.934 572.67 197.234 572.45C197.554 572.21 197.984 572.09 198.524 572.09C198.984 572.09 199.354 572.2 199.634 572.42C199.914 572.62 200.164 573.01 200.384 573.59L204.434 583.7H203.534L207.674 573.56C207.894 573 208.154 572.62 208.454 572.42C208.754 572.2 209.154 572.09 209.654 572.09C210.094 572.09 210.444 572.21 210.704 572.45C210.964 572.67 211.124 572.97 211.184 573.35C211.244 573.71 211.174 574.11 210.974 574.55L203.684 591.2C203.424 591.76 203.144 592.14 202.844 592.34C202.544 592.54 202.154 592.64 201.674 592.64ZM218.282 587.3C217.222 587.3 216.272 587.1 215.432 586.7C214.612 586.28 213.962 585.72 213.482 585.02C213.022 584.32 212.792 583.53 212.792 582.65C212.792 581.57 213.072 580.72 213.632 580.1C214.192 579.46 215.102 579 216.362 578.72C217.622 578.44 219.312 578.3 221.432 578.3H222.932V580.46H221.462C220.222 580.46 219.232 580.52 218.492 580.64C217.752 580.76 217.222 580.97 216.902 581.27C216.602 581.55 216.452 581.95 216.452 582.47C216.452 583.13 216.682 583.67 217.142 584.09C217.602 584.51 218.242 584.72 219.062 584.72C219.722 584.72 220.302 584.57 220.802 584.27C221.322 583.95 221.732 583.52 222.032 582.98C222.332 582.44 222.482 581.82 222.482 581.12V577.67C222.482 576.67 222.262 575.95 221.822 575.51C221.382 575.07 220.642 574.85 219.602 574.85C219.022 574.85 218.392 574.92 217.712 575.06C217.052 575.2 216.352 575.44 215.612 575.78C215.232 575.96 214.892 576.01 214.592 575.93C214.312 575.85 214.092 575.69 213.932 575.45C213.772 575.19 213.692 574.91 213.692 574.61C213.692 574.31 213.772 574.02 213.932 573.74C214.092 573.44 214.362 573.22 214.742 573.08C215.662 572.7 216.542 572.43 217.382 572.27C218.242 572.11 219.022 572.03 219.722 572.03C221.162 572.03 222.342 572.25 223.262 572.69C224.202 573.13 224.902 573.8 225.362 574.7C225.822 575.58 226.052 576.72 226.052 578.12V585.32C226.052 585.94 225.902 586.42 225.602 586.76C225.302 587.08 224.872 587.24 224.312 587.24C223.752 587.24 223.312 587.08 222.992 586.76C222.692 586.42 222.542 585.94 222.542 585.32V583.88H222.782C222.642 584.58 222.362 585.19 221.942 585.71C221.542 586.21 221.032 586.6 220.412 586.88C219.792 587.16 219.082 587.3 218.282 587.3ZM231.718 587.24C231.118 587.24 230.658 587.08 230.338 586.76C230.018 586.42 229.858 585.94 229.858 585.32V573.98C229.858 573.36 230.018 572.89 230.338 572.57C230.658 572.25 231.108 572.09 231.688 572.09C232.268 572.09 232.718 572.25 233.038 572.57C233.358 572.89 233.518 573.36 233.518 573.98V576.02L233.188 575.27C233.628 574.21 234.308 573.41 235.228 572.87C236.168 572.31 237.228 572.03 238.408 572.03C239.588 572.03 240.558 572.25 241.318 572.69C242.078 573.13 242.648 573.8 243.028 574.7C243.408 575.58 243.598 576.7 243.598 578.06V585.32C243.598 585.94 243.438 586.42 243.118 586.76C242.798 587.08 242.338 587.24 241.738 587.24C241.138 587.24 240.668 587.08 240.328 586.76C240.008 586.42 239.848 585.94 239.848 585.32V578.24C239.848 577.1 239.628 576.27 239.188 575.75C238.768 575.23 238.108 574.97 237.208 574.97C236.108 574.97 235.228 575.32 234.568 576.02C233.928 576.7 233.608 577.61 233.608 578.75V585.32C233.608 586.6 232.978 587.24 231.718 587.24ZM254.247 592.7C253.167 592.7 252.117 592.6 251.097 592.4C250.097 592.2 249.187 591.89 248.367 591.47C247.987 591.27 247.727 591.03 247.587 590.75C247.467 590.47 247.427 590.18 247.467 589.88C247.527 589.6 247.647 589.35 247.827 589.13C248.027 588.91 248.267 588.76 248.547 588.68C248.827 588.6 249.117 588.64 249.417 588.8C250.297 589.24 251.127 589.52 251.907 589.64C252.707 589.78 253.387 589.85 253.947 589.85C255.287 589.85 256.287 589.52 256.947 588.86C257.627 588.22 257.967 587.26 257.967 585.98V583.28H258.237C257.937 584.3 257.307 585.12 256.347 585.74C255.407 586.34 254.337 586.64 253.137 586.64C251.817 586.64 250.667 586.34 249.687 585.74C248.707 585.12 247.947 584.26 247.407 583.16C246.867 582.06 246.597 580.78 246.597 579.32C246.597 578.22 246.747 577.23 247.047 576.35C247.367 575.45 247.807 574.68 248.367 574.04C248.947 573.4 249.637 572.91 250.437 572.57C251.257 572.21 252.157 572.03 253.137 572.03C254.377 572.03 255.457 572.34 256.377 572.96C257.317 573.56 257.927 574.36 258.207 575.36L257.907 576.11V573.98C257.907 573.36 258.067 572.89 258.387 572.57C258.727 572.25 259.187 572.09 259.767 572.09C260.367 572.09 260.827 572.25 261.147 572.57C261.467 572.89 261.627 573.36 261.627 573.98V585.53C261.627 587.91 260.997 589.7 259.737 590.9C258.477 592.1 256.647 592.7 254.247 592.7ZM254.157 583.79C254.937 583.79 255.607 583.61 256.167 583.25C256.727 582.89 257.157 582.38 257.457 581.72C257.777 581.04 257.937 580.24 257.937 579.32C257.937 577.94 257.597 576.86 256.917 576.08C256.237 575.28 255.317 574.88 254.157 574.88C253.377 574.88 252.707 575.06 252.147 575.42C251.587 575.78 251.147 576.29 250.827 576.95C250.527 577.61 250.377 578.4 250.377 579.32C250.377 580.7 250.717 581.79 251.397 582.59C252.077 583.39 252.997 583.79 254.157 583.79ZM275.517 587.24C274.917 587.24 274.457 587.08 274.137 586.76C273.817 586.42 273.657 585.94 273.657 585.32V567.5C273.657 566.88 273.817 566.41 274.137 566.09C274.457 565.77 274.917 565.61 275.517 565.61C276.117 565.61 276.577 565.77 276.897 566.09C277.237 566.41 277.407 566.88 277.407 567.5V578.57H277.467L282.417 573.35C282.817 572.95 283.167 572.64 283.467 572.42C283.767 572.2 284.177 572.09 284.697 572.09C285.217 572.09 285.607 572.23 285.867 572.51C286.147 572.77 286.287 573.09 286.287 573.47C286.287 573.85 286.107 574.23 285.747 574.61L280.527 580.13V578.57L286.257 584.75C286.617 585.13 286.777 585.52 286.737 585.92C286.717 586.3 286.557 586.62 286.257 586.88C285.957 587.12 285.577 587.24 285.117 587.24C284.557 587.24 284.107 587.13 283.767 586.91C283.447 586.69 283.087 586.36 282.687 585.92L277.467 580.46H277.407V585.32C277.407 586.6 276.777 587.24 275.517 587.24ZM294.425 587.3C293.365 587.3 292.415 587.1 291.575 586.7C290.755 586.28 290.105 585.72 289.625 585.02C289.165 584.32 288.935 583.53 288.935 582.65C288.935 581.57 289.215 580.72 289.775 580.1C290.335 579.46 291.245 579 292.505 578.72C293.765 578.44 295.455 578.3 297.575 578.3H299.075V580.46H297.605C296.365 580.46 295.375 580.52 294.635 580.64C293.895 580.76 293.365 580.97 293.045 581.27C292.745 581.55 292.595 581.95 292.595 582.47C292.595 583.13 292.825 583.67 293.285 584.09C293.745 584.51 294.385 584.72 295.205 584.72C295.865 584.72 296.445 584.57 296.945 584.27C297.465 583.95 297.875 583.52 298.175 582.98C298.475 582.44 298.625 581.82 298.625 581.12V577.67C298.625 576.67 298.405 575.95 297.965 575.51C297.525 575.07 296.785 574.85 295.745 574.85C295.165 574.85 294.535 574.92 293.855 575.06C293.195 575.2 292.495 575.44 291.755 575.78C291.375 575.96 291.035 576.01 290.735 575.93C290.455 575.85 290.235 575.69 290.075 575.45C289.915 575.19 289.835 574.91 289.835 574.61C289.835 574.31 289.915 574.02 290.075 573.74C290.235 573.44 290.505 573.22 290.885 573.08C291.805 572.7 292.685 572.43 293.525 572.27C294.385 572.11 295.165 572.03 295.865 572.03C297.305 572.03 298.485 572.25 299.405 572.69C300.345 573.13 301.045 573.8 301.505 574.7C301.965 575.58 302.195 576.72 302.195 578.12V585.32C302.195 585.94 302.045 586.42 301.745 586.76C301.445 587.08 301.015 587.24 300.455 587.24C299.895 587.24 299.455 587.08 299.135 586.76C298.835 586.42 298.685 585.94 298.685 585.32V583.88H298.925C298.785 584.58 298.505 585.19 298.085 585.71C297.685 586.21 297.175 586.6 296.555 586.88C295.935 587.16 295.225 587.3 294.425 587.3ZM307.921 587.24C307.321 587.24 306.861 587.08 306.541 586.76C306.221 586.42 306.061 585.94 306.061 585.32V573.98C306.061 573.36 306.221 572.89 306.541 572.57C306.861 572.25 307.311 572.09 307.891 572.09C308.471 572.09 308.921 572.25 309.241 572.57C309.561 572.89 309.721 573.36 309.721 573.98V576.17L309.391 575.27C309.791 574.27 310.411 573.48 311.251 572.9C312.091 572.32 313.091 572.03 314.251 572.03C315.431 572.03 316.401 572.31 317.161 572.87C317.921 573.43 318.451 574.29 318.751 575.45H318.331C318.731 574.39 319.391 573.56 320.311 572.96C321.231 572.34 322.291 572.03 323.491 572.03C324.611 572.03 325.531 572.25 326.251 572.69C326.991 573.13 327.541 573.8 327.901 574.7C328.261 575.58 328.441 576.7 328.441 578.06V585.32C328.441 585.94 328.271 586.42 327.931 586.76C327.611 587.08 327.151 587.24 326.551 587.24C325.951 587.24 325.491 587.08 325.171 586.76C324.851 586.42 324.691 585.94 324.691 585.32V578.21C324.691 577.09 324.501 576.27 324.121 575.75C323.761 575.23 323.141 574.97 322.261 574.97C321.281 574.97 320.511 575.32 319.951 576.02C319.391 576.7 319.111 577.65 319.111 578.87V585.32C319.111 585.94 318.951 586.42 318.631 586.76C318.311 587.08 317.851 587.24 317.251 587.24C316.651 587.24 316.181 587.08 315.841 586.76C315.521 586.42 315.361 585.94 315.361 585.32V578.21C315.361 577.09 315.171 576.27 314.791 575.75C314.431 575.23 313.821 574.97 312.961 574.97C311.981 574.97 311.211 575.32 310.651 576.02C310.091 576.7 309.811 577.65 309.811 578.87V585.32C309.811 586.6 309.181 587.24 307.921 587.24ZM337.619 587.3C336.399 587.3 335.389 587.08 334.589 586.64C333.789 586.18 333.189 585.5 332.789 584.6C332.409 583.7 332.219 582.58 332.219 581.24V573.98C332.219 573.34 332.379 572.87 332.699 572.57C333.019 572.25 333.479 572.09 334.079 572.09C334.679 572.09 335.139 572.25 335.459 572.57C335.799 572.87 335.969 573.34 335.969 573.98V581.3C335.969 582.34 336.179 583.11 336.599 583.61C337.019 584.11 337.689 584.36 338.609 584.36C339.609 584.36 340.429 584.02 341.069 583.34C341.709 582.64 342.029 581.72 342.029 580.58V573.98C342.029 573.34 342.189 572.87 342.509 572.57C342.829 572.25 343.289 572.09 343.889 572.09C344.489 572.09 344.949 572.25 345.269 572.57C345.609 572.87 345.779 573.34 345.779 573.98V585.32C345.779 586.6 345.169 587.24 343.949 587.24C343.369 587.24 342.919 587.08 342.599 586.76C342.279 586.42 342.119 585.94 342.119 585.32V583.04L342.539 583.94C342.119 585.02 341.479 585.85 340.619 586.43C339.779 587.01 338.779 587.3 337.619 587.3ZM364.607 587.3C363.067 587.3 361.727 586.99 360.587 586.37C359.447 585.73 358.567 584.83 357.947 583.67C357.327 582.51 357.017 581.15 357.017 579.59C357.017 578.41 357.187 577.36 357.527 576.44C357.887 575.5 358.397 574.71 359.057 574.07C359.717 573.41 360.517 572.91 361.457 572.57C362.397 572.21 363.447 572.03 364.607 572.03C365.267 572.03 365.977 572.12 366.737 572.3C367.517 572.48 368.247 572.78 368.927 573.2C369.247 573.4 369.457 573.64 369.557 573.92C369.657 574.2 369.677 574.49 369.617 574.79C369.557 575.07 369.427 575.32 369.227 575.54C369.047 575.74 368.817 575.87 368.537 575.93C368.257 575.97 367.947 575.9 367.607 575.72C367.167 575.46 366.717 575.27 366.257 575.15C365.797 575.01 365.357 574.94 364.937 574.94C364.277 574.94 363.697 575.05 363.197 575.27C362.697 575.47 362.267 575.77 361.907 576.17C361.567 576.55 361.307 577.03 361.127 577.61C360.947 578.19 360.857 578.86 360.857 579.62C360.857 581.1 361.207 582.27 361.907 583.13C362.627 583.97 363.637 584.39 364.937 584.39C365.357 584.39 365.787 584.33 366.227 584.21C366.687 584.09 367.147 583.9 367.607 583.64C367.947 583.46 368.247 583.4 368.507 583.46C368.787 583.52 369.017 583.66 369.197 583.88C369.377 584.08 369.487 584.33 369.527 584.63C369.567 584.91 369.527 585.19 369.407 585.47C369.307 585.75 369.107 585.98 368.807 586.16C368.147 586.56 367.447 586.85 366.707 587.03C365.967 587.21 365.267 587.3 364.607 587.3ZM376.719 587.3C375.659 587.3 374.709 587.1 373.869 586.7C373.049 586.28 372.399 585.72 371.919 585.02C371.459 584.32 371.229 583.53 371.229 582.65C371.229 581.57 371.509 580.72 372.069 580.1C372.629 579.46 373.539 579 374.799 578.72C376.059 578.44 377.749 578.3 379.869 578.3H381.369V580.46H379.899C378.659 580.46 377.669 580.52 376.929 580.64C376.189 580.76 375.659 580.97 375.339 581.27C375.039 581.55 374.889 581.95 374.889 582.47C374.889 583.13 375.119 583.67 375.579 584.09C376.039 584.51 376.679 584.72 377.499 584.72C378.159 584.72 378.739 584.57 379.239 584.27C379.759 583.95 380.169 583.52 380.469 582.98C380.769 582.44 380.919 581.82 380.919 581.12V577.67C380.919 576.67 380.699 575.95 380.259 575.51C379.819 575.07 379.079 574.85 378.039 574.85C377.459 574.85 376.829 574.92 376.149 575.06C375.489 575.2 374.789 575.44 374.049 575.78C373.669 575.96 373.329 576.01 373.029 575.93C372.749 575.85 372.529 575.69 372.369 575.45C372.209 575.19 372.129 574.91 372.129 574.61C372.129 574.31 372.209 574.02 372.369 573.74C372.529 573.44 372.799 573.22 373.179 573.08C374.099 572.7 374.979 572.43 375.819 572.27C376.679 572.11 377.459 572.03 378.159 572.03C379.599 572.03 380.779 572.25 381.699 572.69C382.639 573.13 383.339 573.8 383.799 574.7C384.259 575.58 384.489 576.72 384.489 578.12V585.32C384.489 585.94 384.339 586.42 384.039 586.76C383.739 587.08 383.309 587.24 382.749 587.24C382.189 587.24 381.749 587.08 381.429 586.76C381.129 586.42 380.979 585.94 380.979 585.32V583.88H381.219C381.079 584.58 380.799 585.19 380.379 585.71C379.979 586.21 379.469 586.6 378.849 586.88C378.229 587.16 377.519 587.3 376.719 587.3ZM390.216 587.24C389.596 587.24 389.116 587.08 388.776 586.76C388.456 586.42 388.296 585.94 388.296 585.32V573.98C388.296 573.36 388.456 572.89 388.776 572.57C389.096 572.25 389.546 572.09 390.126 572.09C390.706 572.09 391.156 572.25 391.476 572.57C391.796 572.89 391.956 573.36 391.956 573.98V575.87H391.656C391.936 574.67 392.486 573.76 393.306 573.14C394.126 572.52 395.216 572.15 396.576 572.03C396.996 571.99 397.326 572.1 397.566 572.36C397.826 572.6 397.976 572.98 398.016 573.5C398.056 574 397.936 574.41 397.656 574.73C397.396 575.03 396.996 575.21 396.456 575.27L395.796 575.33C394.576 575.45 393.656 575.83 393.036 576.47C392.416 577.09 392.106 577.97 392.106 579.11V585.32C392.106 585.94 391.946 586.42 391.626 586.76C391.306 587.08 390.836 587.24 390.216 587.24ZM401.904 587.21C401.304 587.21 400.844 587.03 400.524 586.67C400.204 586.31 400.044 585.81 400.044 585.17V574.16C400.044 573.5 400.204 573 400.524 572.66C400.844 572.3 401.304 572.12 401.904 572.12C402.504 572.12 402.964 572.3 403.284 572.66C403.624 573 403.794 573.5 403.794 574.16V585.17C403.794 585.81 403.634 586.31 403.314 586.67C402.994 587.03 402.524 587.21 401.904 587.21ZM401.904 569.33C401.204 569.33 400.654 569.16 400.254 568.82C399.874 568.46 399.684 567.97 399.684 567.35C399.684 566.71 399.874 566.22 400.254 565.88C400.654 565.54 401.204 565.37 401.904 565.37C402.624 565.37 403.174 565.54 403.554 565.88C403.934 566.22 404.124 566.71 404.124 567.35C404.124 567.97 403.934 568.46 403.554 568.82C403.174 569.16 402.624 569.33 401.904 569.33ZM422.555 587.3C421.255 587.3 420.165 587.08 419.285 586.64C418.425 586.2 417.785 585.56 417.365 584.72C416.945 583.86 416.735 582.8 416.735 581.54V575.15H415.175C414.695 575.15 414.325 575.03 414.065 574.79C413.805 574.53 413.675 574.18 413.675 573.74C413.675 573.28 413.805 572.93 414.065 572.69C414.325 572.45 414.695 572.33 415.175 572.33H416.735V569.6C416.735 568.98 416.895 568.51 417.215 568.19C417.555 567.87 418.025 567.71 418.625 567.71C419.225 567.71 419.685 567.87 420.005 568.19C420.325 568.51 420.485 568.98 420.485 569.6V572.33H423.665C424.145 572.33 424.515 572.45 424.775 572.69C425.035 572.93 425.165 573.28 425.165 573.74C425.165 574.18 425.035 574.53 424.775 574.79C424.515 575.03 424.145 575.15 423.665 575.15H420.485V581.33C420.485 582.29 420.695 583.01 421.115 583.49C421.535 583.97 422.215 584.21 423.155 584.21C423.495 584.21 423.795 584.18 424.055 584.12C424.315 584.06 424.545 584.02 424.745 584C424.985 583.98 425.185 584.06 425.345 584.24C425.505 584.4 425.585 584.74 425.585 585.26C425.585 585.66 425.515 586.02 425.375 586.34C425.255 586.64 425.025 586.85 424.685 586.97C424.425 587.05 424.085 587.12 423.665 587.18C423.245 587.26 422.875 587.3 422.555 587.3ZM429.589 587.21C428.989 587.21 428.529 587.03 428.209 586.67C427.889 586.31 427.729 585.81 427.729 585.17V574.16C427.729 573.5 427.889 573 428.209 572.66C428.529 572.3 428.989 572.12 429.589 572.12C430.189 572.12 430.649 572.3 430.969 572.66C431.309 573 431.479 573.5 431.479 574.16V585.17C431.479 585.81 431.319 586.31 430.999 586.67C430.679 587.03 430.209 587.21 429.589 587.21ZM429.589 569.33C428.889 569.33 428.339 569.16 427.939 568.82C427.559 568.46 427.369 567.97 427.369 567.35C427.369 566.71 427.559 566.22 427.939 565.88C428.339 565.54 428.889 565.37 429.589 565.37C430.309 565.37 430.859 565.54 431.239 565.88C431.619 566.22 431.809 566.71 431.809 567.35C431.809 567.97 431.619 568.46 431.239 568.82C430.859 569.16 430.309 569.33 429.589 569.33ZM441.016 587.3C439.736 587.3 438.606 586.99 437.626 586.37C436.666 585.75 435.916 584.87 435.376 583.73C434.836 582.57 434.566 581.21 434.566 579.65C434.566 578.07 434.836 576.72 435.376 575.6C435.916 574.46 436.666 573.58 437.626 572.96C438.606 572.34 439.736 572.03 441.016 572.03C442.236 572.03 443.296 572.33 444.196 572.93C445.116 573.53 445.736 574.32 446.056 575.3H445.726V567.5C445.726 566.88 445.886 566.41 446.206 566.09C446.526 565.77 446.986 565.61 447.586 565.61C448.186 565.61 448.646 565.77 448.966 566.09C449.306 566.41 449.476 566.88 449.476 567.5V585.32C449.476 585.94 449.316 586.42 448.996 586.76C448.676 587.08 448.216 587.24 447.616 587.24C447.016 587.24 446.556 587.08 446.236 586.76C445.916 586.42 445.756 585.94 445.756 585.32V582.98L446.086 583.88C445.786 584.92 445.176 585.75 444.256 586.37C443.336 586.99 442.256 587.3 441.016 587.3ZM442.066 584.45C442.806 584.45 443.456 584.27 444.016 583.91C444.576 583.55 445.006 583.02 445.306 582.32C445.626 581.6 445.786 580.71 445.786 579.65C445.786 578.05 445.446 576.86 444.766 576.08C444.086 575.28 443.186 574.88 442.066 574.88C441.326 574.88 440.676 575.06 440.116 575.42C439.556 575.76 439.116 576.29 438.796 577.01C438.496 577.71 438.346 578.59 438.346 579.65C438.346 581.23 438.686 582.43 439.366 583.25C440.046 584.05 440.946 584.45 442.066 584.45ZM458.194 587.3C457.134 587.3 456.184 587.1 455.344 586.7C454.524 586.28 453.874 585.72 453.394 585.02C452.934 584.32 452.704 583.53 452.704 582.65C452.704 581.57 452.984 580.72 453.544 580.1C454.104 579.46 455.014 579 456.274 578.72C457.534 578.44 459.224 578.3 461.344 578.3H462.844V580.46H461.374C460.134 580.46 459.144 580.52 458.404 580.64C457.664 580.76 457.134 580.97 456.814 581.27C456.514 581.55 456.364 581.95 456.364 582.47C456.364 583.13 456.594 583.67 457.054 584.09C457.514 584.51 458.154 584.72 458.974 584.72C459.634 584.72 460.214 584.57 460.714 584.27C461.234 583.95 461.644 583.52 461.944 582.98C462.244 582.44 462.394 581.82 462.394 581.12V577.67C462.394 576.67 462.174 575.95 461.734 575.51C461.294 575.07 460.554 574.85 459.514 574.85C458.934 574.85 458.304 574.92 457.624 575.06C456.964 575.2 456.264 575.44 455.524 575.78C455.144 575.96 454.804 576.01 454.504 575.93C454.224 575.85 454.004 575.69 453.844 575.45C453.684 575.19 453.604 574.91 453.604 574.61C453.604 574.31 453.684 574.02 453.844 573.74C454.004 573.44 454.274 573.22 454.654 573.08C455.574 572.7 456.454 572.43 457.294 572.27C458.154 572.11 458.934 572.03 459.634 572.03C461.074 572.03 462.254 572.25 463.174 572.69C464.114 573.13 464.814 573.8 465.274 574.7C465.734 575.58 465.964 576.72 465.964 578.12V585.32C465.964 585.94 465.814 586.42 465.514 586.76C465.214 587.08 464.784 587.24 464.224 587.24C463.664 587.24 463.224 587.08 462.904 586.76C462.604 586.42 462.454 585.94 462.454 585.32V583.88H462.694C462.554 584.58 462.274 585.19 461.854 585.71C461.454 586.21 460.944 586.6 460.324 586.88C459.704 587.16 458.994 587.3 458.194 587.3ZM471.63 587.24C471.03 587.24 470.57 587.08 470.25 586.76C469.93 586.42 469.77 585.94 469.77 585.32V567.5C469.77 566.88 469.93 566.41 470.25 566.09C470.57 565.77 471.03 565.61 471.63 565.61C472.23 565.61 472.69 565.77 473.01 566.09C473.35 566.41 473.52 566.88 473.52 567.5V578.57H473.58L478.53 573.35C478.93 572.95 479.28 572.64 479.58 572.42C479.88 572.2 480.29 572.09 480.81 572.09C481.33 572.09 481.72 572.23 481.98 572.51C482.26 572.77 482.4 573.09 482.4 573.47C482.4 573.85 482.22 574.23 481.86 574.61L476.64 580.13V578.57L482.37 584.75C482.73 585.13 482.89 585.52 482.85 585.92C482.83 586.3 482.67 586.62 482.37 586.88C482.07 587.12 481.69 587.24 481.23 587.24C480.67 587.24 480.22 587.13 479.88 586.91C479.56 586.69 479.2 586.36 478.8 585.92L473.58 580.46H473.52V585.32C473.52 586.6 472.89 587.24 471.63 587.24ZM498.829 587.3C497.769 587.3 496.819 587.1 495.979 586.7C495.159 586.28 494.509 585.72 494.029 585.02C493.569 584.32 493.339 583.53 493.339 582.65C493.339 581.57 493.619 580.72 494.179 580.1C494.739 579.46 495.649 579 496.909 578.72C498.169 578.44 499.859 578.3 501.979 578.3H503.479V580.46H502.009C500.769 580.46 499.779 580.52 499.039 580.64C498.299 580.76 497.769 580.97 497.449 581.27C497.149 581.55 496.999 581.95 496.999 582.47C496.999 583.13 497.229 583.67 497.689 584.09C498.149 584.51 498.789 584.72 499.609 584.72C500.269 584.72 500.849 584.57 501.349 584.27C501.869 583.95 502.279 583.52 502.579 582.98C502.879 582.44 503.029 581.82 503.029 581.12V577.67C503.029 576.67 502.809 575.95 502.369 575.51C501.929 575.07 501.189 574.85 500.149 574.85C499.569 574.85 498.939 574.92 498.259 575.06C497.599 575.2 496.899 575.44 496.159 575.78C495.779 575.96 495.439 576.01 495.139 575.93C494.859 575.85 494.639 575.69 494.479 575.45C494.319 575.19 494.239 574.91 494.239 574.61C494.239 574.31 494.319 574.02 494.479 573.74C494.639 573.44 494.909 573.22 495.289 573.08C496.209 572.7 497.089 572.43 497.929 572.27C498.789 572.11 499.569 572.03 500.269 572.03C501.709 572.03 502.889 572.25 503.809 572.69C504.749 573.13 505.449 573.8 505.909 574.7C506.369 575.58 506.599 576.72 506.599 578.12V585.32C506.599 585.94 506.449 586.42 506.149 586.76C505.849 587.08 505.419 587.24 504.859 587.24C504.299 587.24 503.859 587.08 503.539 586.76C503.239 586.42 503.089 585.94 503.089 585.32V583.88H503.329C503.189 584.58 502.909 585.19 502.489 585.71C502.089 586.21 501.579 586.6 500.959 586.88C500.339 587.16 499.629 587.3 498.829 587.3ZM516.045 587.3C514.765 587.3 513.635 586.99 512.655 586.37C511.695 585.75 510.945 584.87 510.405 583.73C509.865 582.57 509.595 581.21 509.595 579.65C509.595 578.07 509.865 576.72 510.405 575.6C510.945 574.46 511.695 573.58 512.655 572.96C513.635 572.34 514.765 572.03 516.045 572.03C517.265 572.03 518.325 572.33 519.225 572.93C520.145 573.53 520.765 574.32 521.085 575.3H520.755V567.5C520.755 566.88 520.915 566.41 521.235 566.09C521.555 565.77 522.015 565.61 522.615 565.61C523.215 565.61 523.675 565.77 523.995 566.09C524.335 566.41 524.505 566.88 524.505 567.5V585.32C524.505 585.94 524.345 586.42 524.025 586.76C523.705 587.08 523.245 587.24 522.645 587.24C522.045 587.24 521.585 587.08 521.265 586.76C520.945 586.42 520.785 585.94 520.785 585.32V582.98L521.115 583.88C520.815 584.92 520.205 585.75 519.285 586.37C518.365 586.99 517.285 587.3 516.045 587.3ZM517.095 584.45C517.835 584.45 518.485 584.27 519.045 583.91C519.605 583.55 520.035 583.02 520.335 582.32C520.655 581.6 520.815 580.71 520.815 579.65C520.815 578.05 520.475 576.86 519.795 576.08C519.115 575.28 518.215 574.88 517.095 574.88C516.355 574.88 515.705 575.06 515.145 575.42C514.585 575.76 514.145 576.29 513.825 577.01C513.525 577.71 513.375 578.59 513.375 579.65C513.375 581.23 513.715 582.43 514.395 583.25C515.075 584.05 515.975 584.45 517.095 584.45ZM533.223 587.3C532.163 587.3 531.213 587.1 530.373 586.7C529.553 586.28 528.903 585.72 528.423 585.02C527.963 584.32 527.733 583.53 527.733 582.65C527.733 581.57 528.013 580.72 528.573 580.1C529.133 579.46 530.043 579 531.303 578.72C532.563 578.44 534.253 578.3 536.373 578.3H537.873V580.46H536.403C535.163 580.46 534.173 580.52 533.433 580.64C532.693 580.76 532.163 580.97 531.843 581.27C531.543 581.55 531.393 581.95 531.393 582.47C531.393 583.13 531.623 583.67 532.083 584.09C532.543 584.51 533.183 584.72 534.003 584.72C534.663 584.72 535.243 584.57 535.743 584.27C536.263 583.95 536.673 583.52 536.973 582.98C537.273 582.44 537.423 581.82 537.423 581.12V577.67C537.423 576.67 537.203 575.95 536.763 575.51C536.323 575.07 535.583 574.85 534.543 574.85C533.963 574.85 533.333 574.92 532.653 575.06C531.993 575.2 531.293 575.44 530.553 575.78C530.173 575.96 529.833 576.01 529.533 575.93C529.253 575.85 529.033 575.69 528.873 575.45C528.713 575.19 528.633 574.91 528.633 574.61C528.633 574.31 528.713 574.02 528.873 573.74C529.033 573.44 529.303 573.22 529.683 573.08C530.603 572.7 531.483 572.43 532.323 572.27C533.183 572.11 533.963 572.03 534.663 572.03C536.103 572.03 537.283 572.25 538.203 572.69C539.143 573.13 539.843 573.8 540.303 574.7C540.763 575.58 540.993 576.72 540.993 578.12V585.32C540.993 585.94 540.843 586.42 540.543 586.76C540.243 587.08 539.813 587.24 539.253 587.24C538.693 587.24 538.253 587.08 537.933 586.76C537.633 586.42 537.483 585.94 537.483 585.32V583.88H537.723C537.583 584.58 537.303 585.19 536.883 585.71C536.483 586.21 535.973 586.6 535.353 586.88C534.733 587.16 534.023 587.3 533.223 587.3Z" fill="#CBD5E0"/>
<defs>
<linearGradient id="paint0_linear_3039_245185" x1="333.785" y1="662.721" x2="333.785" y2="152.809" gradientUnits="userSpaceOnUse">
<stop stop-color="white" stop-opacity="0"/>
<stop offset="1" stop-color="#E3EFF9"/>
</linearGradient>
<linearGradient id="paint1_linear_3039_245185" x1="329.359" y1="292.836" x2="329.359" y2="461.955" gradientUnits="userSpaceOnUse">
<stop stop-color="#D1E6D3"/>
<stop offset="1" stop-color="#B6D9BE"/>
</linearGradient>
<linearGradient id="paint2_linear_3039_245185" x1="243.807" y1="233.779" x2="243.807" y2="461.955" gradientUnits="userSpaceOnUse">
<stop stop-color="#D1E6D3"/>
<stop offset="0.853828" stop-color="#97C0A0"/>
</linearGradient>
<linearGradient id="paint3_linear_3039_245185" x1="284.732" y1="196.297" x2="284.732" y2="411.292" gradientUnits="userSpaceOnUse">
<stop stop-color="#D1E6D3"/>
<stop offset="1" stop-color="#B6D9BE"/>
</linearGradient>
<linearGradient id="paint4_linear_3039_245185" x1="90.513" y1="378.962" x2="262.589" y2="459.472" gradientUnits="userSpaceOnUse">
<stop stop-color="#D1E6D3"/>
<stop offset="0.785955" stop-color="#A5D7B0"/>
</linearGradient>
<linearGradient id="paint5_linear_3039_245185" x1="146.243" y1="350.983" x2="190.08" y2="493.205" gradientUnits="userSpaceOnUse">
<stop stop-color="#D1E6D3"/>
<stop offset="1" stop-color="#B6D9BE"/>
</linearGradient>
<linearGradient id="paint6_linear_3039_245185" x1="386.601" y1="82.337" x2="386.601" y2="164.976" gradientUnits="userSpaceOnUse">
<stop stop-color="#2D3748"/>
<stop offset="1" stop-color="#1A202C"/>
</linearGradient>
<linearGradient id="paint7_linear_3039_245185" x1="386.327" y1="122.706" x2="386.327" y2="203.08" gradientUnits="userSpaceOnUse">
<stop stop-color="#E2B291"/>
<stop offset="1" stop-color="#F7B487"/>
</linearGradient>
<linearGradient id="paint8_linear_3039_245185" x1="284.53" y1="152.335" x2="264.903" y2="104.522" gradientUnits="userSpaceOnUse">
<stop stop-color="#1D164D"/>
<stop offset="1" stop-color="#4A4975"/>
</linearGradient>
<linearGradient id="paint9_linear_3039_245185" x1="285.143" y1="139.749" x2="266.824" y2="105.809" gradientUnits="userSpaceOnUse">
<stop stop-color="#C9E2F4"/>
<stop offset="1" stop-color="#EAF5FF"/>
</linearGradient>
<linearGradient id="paint10_linear_3039_245185" x1="281.409" y1="144.862" x2="273.583" y2="117.634" gradientUnits="userSpaceOnUse">
<stop stop-color="#1D164D"/>
<stop offset="1" stop-color="#4A4975"/>
</linearGradient>
<linearGradient id="paint11_linear_3039_245185" x1="257.551" y1="125.549" x2="285.386" y2="149.879" gradientUnits="userSpaceOnUse">
<stop stop-color="white"/>
<stop offset="1" stop-color="white" stop-opacity="0"/>
</linearGradient>
<linearGradient id="paint12_linear_3039_245185" x1="258.12" y1="123.033" x2="285.87" y2="147.453" gradientUnits="userSpaceOnUse">
<stop stop-color="white"/>
<stop offset="1" stop-color="white" stop-opacity="0"/>
</linearGradient>
<linearGradient id="paint13_linear_3039_245185" x1="259.074" y1="122.341" x2="286.844" y2="146.648" gradientUnits="userSpaceOnUse">
<stop stop-color="white"/>
<stop offset="1" stop-color="white" stop-opacity="0"/>
</linearGradient>
<linearGradient id="paint14_linear_3039_245185" x1="380.758" y1="148.405" x2="376.99" y2="133.8" gradientUnits="userSpaceOnUse">
<stop stop-color="#1D164D"/>
<stop offset="1" stop-color="#4A4975"/>
</linearGradient>
<linearGradient id="paint15_linear_3039_245185" x1="359.382" y1="163.862" x2="351.347" y2="127.376" gradientUnits="userSpaceOnUse">
<stop stop-color="#C9E2F4"/>
<stop offset="1" stop-color="#EAF5FF"/>
</linearGradient>
<linearGradient id="paint16_linear_3039_245185" x1="330.953" y1="158.312" x2="316.526" y2="119.332" gradientUnits="userSpaceOnUse">
<stop stop-color="#1D164D"/>
<stop offset="1" stop-color="#4A4975"/>
</linearGradient>
<linearGradient id="paint17_linear_3039_245185" x1="326.752" y1="144.707" x2="311.514" y2="110.517" gradientUnits="userSpaceOnUse">
<stop stop-color="#C9E2F4"/>
<stop offset="1" stop-color="#EAF5FF"/>
</linearGradient>
<linearGradient id="paint18_linear_3039_245185" x1="325.084" y1="139.248" x2="313.462" y2="113.546" gradientUnits="userSpaceOnUse">
<stop stop-color="#1D164D"/>
<stop offset="1" stop-color="#4A4975"/>
</linearGradient>
<linearGradient id="paint19_linear_3039_245185" x1="305.768" y1="122.013" x2="326.069" y2="144.428" gradientUnits="userSpaceOnUse">
<stop stop-color="white"/>
<stop offset="1" stop-color="white" stop-opacity="0"/>
</linearGradient>
<linearGradient id="paint20_linear_3039_245185" x1="308.004" y1="122.669" x2="328.37" y2="145.161" gradientUnits="userSpaceOnUse">
<stop stop-color="white"/>
<stop offset="1" stop-color="white" stop-opacity="0"/>
</linearGradient>
<linearGradient id="paint21_linear_3039_245185" x1="307.884" y1="123.547" x2="328.381" y2="145.982" gradientUnits="userSpaceOnUse">
<stop stop-color="white"/>
<stop offset="1" stop-color="white" stop-opacity="0"/>
</linearGradient>
<linearGradient id="paint22_linear_3039_245185" x1="383.424" y1="396.367" x2="383.424" y2="707.267" gradientUnits="userSpaceOnUse">
<stop stop-color="#2D3748"/>
<stop offset="1" stop-color="#1A202C"/>
</linearGradient>
<linearGradient id="paint23_linear_3039_245185" x1="380.953" y1="159.408" x2="380.953" y2="404.807" gradientUnits="userSpaceOnUse">
<stop stop-color="#BEE3F8"/>
<stop offset="1" stop-color="#90CDF4"/>
</linearGradient>
<linearGradient id="paint24_linear_3039_245185" x1="440.065" y1="273.479" x2="388.324" y2="419.07" gradientUnits="userSpaceOnUse">
<stop stop-color="#030F1C"/>
<stop offset="0.741034" stop-color="#030F1C" stop-opacity="0"/>
</linearGradient>
<linearGradient id="paint25_linear_3039_245185" x1="313.436" y1="234.74" x2="300.424" y2="289.665" gradientUnits="userSpaceOnUse">
<stop stop-color="#030F1C"/>
<stop offset="1" stop-color="#030F1C" stop-opacity="0"/>
</linearGradient>
<linearGradient id="paint26_linear_3039_245185" x1="287.404" y1="224.33" x2="279.735" y2="246.505" gradientUnits="userSpaceOnUse">
<stop stop-color="#030F1C"/>
<stop offset="1" stop-color="#030F1C" stop-opacity="0"/>
</linearGradient>
<linearGradient id="paint27_linear_3039_245185" x1="360.792" y1="382.419" x2="380.095" y2="398.16" gradientUnits="userSpaceOnUse">
<stop offset="0.285" stop-color="white"/>
<stop offset="1" stop-color="white" stop-opacity="0"/>
</linearGradient>
<linearGradient id="paint28_linear_3039_245185" x1="413.982" y1="425.935" x2="405.666" y2="394.473" gradientUnits="userSpaceOnUse">
<stop offset="0.285" stop-color="white"/>
<stop offset="1" stop-color="white" stop-opacity="0"/>
</linearGradient>
</defs>
</svg>
