<svg width="725" height="653" viewBox="0 0 725 653" fill="none" xmlns="http://www.w3.org/2000/svg">
<mask id="mask0_10368_65401" style="mask-type:alpha" maskUnits="userSpaceOnUse" x="0" y="0" width="725" height="653">
<path d="M724.742 0.774414H0.488281V652.117H724.742V0.774414Z" fill="#C4C4C4"/>
</mask>
<g mask="url(#mask0_10368_65401)">
<path d="M658.061 388.009C658.061 544.11 530.35 670.655 372.811 670.655C215.272 670.655 87.5605 544.11 87.5605 388.009C87.5605 231.907 215.272 105.362 372.811 105.362C530.35 105.362 658.061 231.907 658.061 388.009Z" fill="url(#paint0_linear_10368_65401)"/>
<path d="M320.112 564.482C304.848 583.423 103.22 488.534 80.763 371.531C77.7828 355.994 71.0852 321.081 92.2895 296.776C103.402 284.098 123.899 272.177 145.7 274.854C151.902 275.612 163.318 278.178 176.248 289.169C213.283 320.607 213.626 379.259 227.769 427.406C255.388 521.184 329.255 553.147 320.112 564.482Z" fill="url(#paint1_linear_10368_65401)"/>
<path opacity="0.7" d="M188.754 421.8C151.101 393.734 119.125 358.766 94.5316 318.759C80.1714 295.269 68.5039 270.237 59.75 244.134" stroke="white" stroke-width="1.28297" stroke-miterlimit="10"/>
<path d="M109.072 479.674C108.528 479.47 113.156 470.592 115.878 455.13C117.407 446.022 118.166 436.801 118.147 427.566C118.147 417.144 117.467 405.678 116.446 393.644C115.425 381.61 114.495 370.122 114.177 359.586C113.881 350.289 114.306 340.982 115.447 331.75C116.237 325.52 117.581 319.372 119.463 313.381C120.038 311.145 120.899 308.993 122.027 306.979C122.549 307.137 118.669 316.242 116.786 331.954C115.737 341.133 115.366 350.376 115.674 359.609C115.924 370.031 116.877 381.497 117.943 393.531C119.009 405.564 119.69 417.076 119.645 427.588C119.718 436.901 118.959 446.202 117.376 455.38C116.287 461.588 114.584 467.672 112.294 473.544C111.962 474.467 111.576 475.369 111.137 476.246L110.207 478.198C109.458 479.197 109.14 479.719 109.072 479.674Z" fill="#F1F1F4"/>
<path d="M179.126 249.139C182.923 217.503 164.853 189.315 138.765 186.178C112.677 183.042 88.45 206.145 84.6525 237.781C80.8551 269.417 98.9252 297.606 125.013 300.742C151.101 303.879 175.328 280.775 179.126 249.139Z" fill="#A3D6F6"/>
<path d="M153.427 190.955C157.964 216.135 164.77 284.523 108.981 295.172C113.872 298.146 119.34 300.042 125.021 300.735C151.09 303.868 175.32 280.754 179.132 249.126C182.149 223.855 171.282 200.809 153.427 190.955Z" fill="#77C6F3"/>
<path d="M118.647 216.975C114.11 222.47 107.644 224.513 104.354 221.516C101.064 218.519 102.085 211.639 106.623 206.145C111.16 200.65 117.627 198.607 120.939 201.604C124.251 204.601 123.253 211.48 118.647 216.975Z" fill="#77C6F3"/>
<path d="M127.813 308.273C127.756 307.875 127.649 307.486 127.496 307.115C127.114 306.188 126.635 305.305 126.066 304.481C125 302.914 123.525 301.393 123.571 299.486L121.007 299.032C120.787 300.295 120.266 301.487 119.487 302.506C118.829 303.368 117.967 304.095 117.218 304.935C116.48 305.76 116.069 306.825 116.061 307.932C116.103 308.476 116.34 308.986 116.727 309.37C117.115 309.753 117.627 309.985 118.171 310.021C119.147 310.021 119.986 309.067 120.871 308.75C121.863 308.405 122.942 308.405 123.934 308.75C123.4 308.766 122.876 308.89 122.391 309.113L123.525 310.18C123.898 310.499 124.348 310.713 124.83 310.801C125.313 310.889 125.81 310.847 126.271 310.68C126.743 310.485 127.144 310.149 127.42 309.719C127.696 309.289 127.833 308.784 127.813 308.273Z" fill="#3D8BB8"/>
<path d="M86.3397 445.117C85.6817 445.117 88.8807 433.878 88.2228 415.464C87.7773 404.704 86.4187 394.002 84.1617 383.473C81.7114 371.62 78.2628 358.633 74.1337 345.146C70.0045 331.659 66.2837 318.74 63.5158 306.82C60.9595 296.269 59.2299 285.535 58.343 274.715C57.7499 267.413 57.8106 260.073 58.5245 252.782C58.6662 250.092 59.1386 247.431 59.9311 244.857C60.5664 244.857 58.2976 256.21 59.9311 274.601C60.9202 285.314 62.7024 295.939 65.2627 306.388C68.0533 318.241 71.8422 331.092 75.8806 344.579C79.919 358.065 83.481 371.075 85.9086 383.177C88.1747 393.801 89.4883 404.606 89.8336 415.464C90.0691 422.792 89.5674 430.125 88.3362 437.352C88.1799 438.491 87.9603 439.62 87.6783 440.735C87.4514 441.711 87.2472 442.529 87.0884 443.187C86.68 444.459 86.4531 445.14 86.3397 445.117Z" fill="#F1F1F4"/>
<path d="M61.897 236.93C92.4438 234.282 114.609 202.118 111.404 165.088C108.199 128.059 80.8389 100.188 50.292 102.835C19.7452 105.483 -2.42003 137.647 0.784579 174.677C3.9892 211.706 31.3501 239.577 61.897 236.93Z" fill="#5EC4BC"/>
<path d="M68.1671 104.789C79.3068 132.489 103.356 208.96 42.2803 234.436C48.5681 236.664 55.2589 237.524 61.9053 236.956C92.443 234.299 114.564 202.126 111.388 165.003C108.824 135.486 90.8549 111.805 68.1671 104.789Z" fill="#35A9A1"/>
<path d="M34.6573 142.82C30.7323 150.2 23.9032 154.173 19.4111 151.426C14.9189 148.678 14.4651 140.709 18.4128 133.262C22.3605 125.814 29.1668 122.045 33.659 124.656C38.1512 127.267 38.6049 135.487 34.6573 142.82Z" fill="#38A8A1"/>
<path d="M66.9186 244.903C66.7857 244.451 66.5703 244.028 66.2833 243.654C65.6356 242.675 64.8741 241.775 64.0146 240.975C62.4037 239.454 60.3618 238.046 59.9534 235.889H56.9133C56.9789 237.388 56.6669 238.879 56.0058 240.226C55.4613 241.361 54.6672 242.496 54.0773 243.541C53.4086 244.643 53.1892 245.96 53.4647 247.219C53.626 247.839 54.0135 248.377 54.551 248.726C55.0885 249.075 55.737 249.209 56.3688 249.104C57.4805 248.808 58.2292 247.582 59.1594 247.015C60.1822 246.355 61.3968 246.06 62.6079 246.175C62.0075 246.324 61.4439 246.594 60.9517 246.969C60.9517 246.969 61.8819 247.56 62.5172 247.923C63.0147 248.196 63.5766 248.329 64.1436 248.309C64.7106 248.289 65.2617 248.117 65.7388 247.809C66.2083 247.503 66.573 247.061 66.7839 246.541C66.9948 246.022 67.0418 245.45 66.9186 244.903Z" fill="#217D7D"/>
<path d="M283.667 539.553C236.398 552.144 174.991 588.058 107.649 553.381C100.682 549.799 39.5931 517.274 39.1182 464.787C39.0758 459.071 39.5505 433.409 58.62 415.482C74.8963 400.142 102.269 392.693 124.25 400.725C167.132 416.325 157.658 478.961 214.064 523.197C230.947 536.399 268.234 539.25 283.667 539.553Z" fill="url(#paint2_linear_10368_65401)"/>
<path opacity="0.7" d="M283.666 539.554C283.666 539.554 207.115 564.639 153.397 539.144C101.02 514.284 89.7412 464.508 89.7412 464.508" stroke="white" stroke-width="1.63397" stroke-miterlimit="10"/>
<path d="M336.52 583.445C339.295 568.574 343.127 544.433 339.748 522.099C335.454 493.718 327.508 486.83 322.599 459.86C292.919 447.023 253.428 446.178 222.49 462.122C211.614 545.279 205.713 613.212 205.406 624.836C205.178 633.489 193.302 794.153 186.466 830.053C184.701 839.322 238.39 836.988 242.996 830.898C249.005 822.952 260.961 684.761 264.825 648.016C268.718 630.594 273.086 583.27 273.086 583.27C273.086 583.27 274.428 599.288 280.311 635.462C288.742 687.305 301.281 836.177 301.281 836.177C302.748 836.992 335.723 838.697 341.072 833.347C349.008 825.407 332.145 606.886 336.52 583.445Z" fill="url(#paint3_linear_10368_65401)"/>
<g style="mix-blend-mode:overlay" opacity="0.6">
<g style="mix-blend-mode:overlay" opacity="0.6">
<path d="M209.526 574.948C209.526 574.948 218.499 578.749 218.921 591.42C219.344 604.091 216.284 676.736 214.224 706.724C212.164 736.712 206.082 748.1 195.607 749.375L209.526 574.948Z" fill="white"/>
</g>
</g>
<g style="mix-blend-mode:overlay" opacity="0.6">
<g style="mix-blend-mode:overlay" opacity="0.6">
<path d="M277.727 618.986C281.835 621.383 286.922 625.209 289.879 639.991C292.835 654.774 307.052 732.911 303.112 745.581C299.171 758.252 294.244 758.239 294.244 758.239C294.244 758.239 285.003 657.337 277.727 618.986Z" fill="white"/>
</g>
</g>
<g style="mix-blend-mode:overlay" opacity="0.6">
<g style="mix-blend-mode:overlay" opacity="0.6">
<path d="M273.086 583.27L259.289 525.026C259.289 525.026 247.766 551.146 249.013 571.414C250.26 591.681 259.784 607.998 266.84 636.837L273.086 583.27Z" fill="#030F1C"/>
</g>
</g>
<g style="mix-blend-mode:overlay" opacity="0.6">
<g style="mix-blend-mode:overlay" opacity="0.6">
<path d="M222.49 462.122L220.624 476.624C220.624 476.624 258.822 498.44 329.721 487.197C329.721 487.197 323.574 468.814 322.598 459.86L222.49 462.122Z" fill="#030F1C"/>
</g>
</g>
<path d="M317.991 236.676C315.812 215.723 314.178 195.929 275.204 193.774C258.165 192.831 247.496 199.361 241.731 207.541L241.727 207.534C241.727 207.534 230.732 205.924 231.452 242.436C231.933 266.825 227.596 273.281 216.417 291.115C222.795 301.589 237.451 305.948 249.308 307.752C273.586 312.288 276.072 313.6 294.264 311.437C294.264 311.437 321.771 310.741 343.821 284.696C327.682 274.481 319.337 249.606 317.991 236.676Z" fill="url(#paint4_linear_10368_65401)"/>
<path d="M129.336 246.18C129.969 245.951 132.129 245.07 132.129 245.07C132.129 245.07 133.119 243.238 134.245 242.763C135.161 242.534 136.126 242.607 136.997 242.97C136.997 242.97 141.286 242.02 141.448 240.558C141.755 237.792 143.518 235.907 144.115 235.738C147.141 234.88 153.717 231.225 156.745 237.204C160.14 243.908 154.51 255.188 153.764 256.628C153.712 256.728 153.682 256.782 153.682 256.782L154.119 262.564L154.794 266.037C150.357 272.016 143.005 275.087 135.633 274.042C134.705 269.126 133.993 265.64 133.691 264.773C133.325 263.682 132.862 262.625 132.308 261.616C131.65 260.463 127.93 257.504 127.215 251.078C127.067 249.752 127.808 246.735 129.336 246.18Z" fill="#F2AC7D"/>
<path d="M128.092 251.881C128.314 251.769 128.585 251.858 128.697 252.079L129.445 253.555C129.917 254.796 131.235 255.494 132.526 255.188C133.422 254.921 134.574 254.239 134.253 251.467L133.431 248.073C133.393 247.917 133.441 247.753 133.557 247.642C133.673 247.53 133.84 247.49 133.994 247.535C134.149 247.58 134.267 247.704 134.305 247.86L134.922 250.414C134.991 250.476 135.038 250.56 135.056 250.651C135.234 251.811 135.793 252.878 136.645 253.685C136.987 253.918 137.41 253.999 137.814 253.907C138.709 253.639 139.861 252.957 139.54 250.186L138.753 246.94L138.725 246.836C138.724 246.831 138.726 246.826 138.725 246.822L138.717 246.793C138.659 246.551 138.807 246.308 139.048 246.249C139.29 246.19 139.533 246.338 139.592 246.579L139.983 248.2L140.516 250.188C140.748 251.35 141.507 252.338 142.571 252.861C143.231 253.118 143.976 253.031 144.56 252.629L145.009 252.341C145.169 252.242 145.375 252.258 145.517 252.382C145.572 251.663 145.674 250.948 145.822 250.243L144.214 245.299C144.141 245.072 144.266 244.828 144.493 244.755C144.72 244.681 144.964 244.804 145.038 245.031L146.222 248.672C147.235 245.389 149.179 242.47 151.818 240.27C150.612 240.539 149.352 240.43 148.211 239.957C147.494 241.394 146.123 242.393 144.534 242.635C144.507 242.642 144.479 242.645 144.45 242.646C144.227 242.654 144.035 242.491 144.006 242.27C143.976 242.049 144.119 241.842 144.336 241.791C147.17 241.127 147.532 239.304 147.546 239.23C147.573 239.074 147.683 238.946 147.832 238.894C147.982 238.843 148.149 238.877 148.267 238.982C148.282 238.995 149.786 240.283 153.79 238.855C153.8 238.851 153.81 238.853 153.82 238.851C154.006 238.739 154.189 238.621 154.38 238.516C154.515 238.442 154.68 238.445 154.813 238.526C154.945 238.606 155.025 238.751 155.021 238.906C155.018 239.061 154.932 239.202 154.796 239.276C149.395 242.32 146.136 248.116 146.341 254.312C146.352 254.551 146.167 254.754 145.928 254.765H145.923C145.686 254.773 145.486 254.589 145.475 254.351C145.456 253.923 145.457 253.495 145.471 253.068L145.025 253.354C144.524 253.685 143.938 253.864 143.338 253.869C142.969 253.868 142.604 253.799 142.26 253.665C141.481 253.342 140.827 252.778 140.393 252.055C140.245 253.361 139.31 254.442 138.039 254.777C137.851 254.82 137.658 254.842 137.465 254.842C136.994 254.842 136.533 254.7 136.144 254.434C135.724 254.133 135.373 253.747 135.115 253.299C134.915 254.937 133.531 256.172 131.881 256.184C130.466 256.12 129.211 255.258 128.642 253.962L127.894 252.486C127.84 252.379 127.831 252.256 127.868 252.142C127.905 252.029 127.986 251.935 128.092 251.881Z" fill="#0B122D"/>
<path d="M232.406 314.67C232.406 314.67 226.8 316.722 225.761 324.84C222.263 352.193 215.69 372.578 214.975 380.942C214.009 392.241 217.169 397.382 220.5 405.809C223.845 414.27 225.853 433.877 221.38 463.613C221.037 465.777 221.879 467.96 223.587 469.334C240.008 482.244 305.911 477.639 321.993 466.814C323.67 465.652 324.464 463.581 323.993 461.595C321.043 448.554 314.25 419.529 320.09 390.582C325.594 363.305 324.807 312.15 321.477 310.917C315.554 308.722 303.479 305.597 303.479 305.597C303.479 305.597 292.129 323.493 266.504 325.085C247.909 326.241 248.969 309.016 248.969 309.016L232.406 314.67Z" fill="url(#paint5_linear_10368_65401)"/>
<path fill-rule="evenodd" clip-rule="evenodd" d="M242.586 311.118L254.431 307.045C254.431 307.045 252.919 308.021 250.7 309.68C249.914 318.662 245.294 372.122 245.294 386.917C245.294 390.048 246.169 400.558 247.332 414.543C249.647 442.363 253.105 483.937 253.102 508.538C238.257 508.283 222.967 502.563 216.809 497.722C215.101 496.348 214.259 494.165 214.602 492.001C215.463 486.28 216.486 480.297 217.524 474.226C221.884 448.738 226.512 421.68 220.5 405.809C219.934 404.314 219.365 402.924 218.818 401.587C216.265 395.344 214.18 390.247 214.975 380.942C215.047 380.107 215.12 379.163 215.201 378.112C215.496 374.281 215.902 369.02 216.752 362.37C202.973 363.808 184.966 365.031 169.567 363.915C159.099 363.156 151.492 356.263 149.478 345.696C149.478 345.696 139.871 297.334 135.053 273.039C149.054 276.27 159.432 267.913 159.432 267.913L180.025 326.64L219.842 318.94L231.449 314.948C231.792 314.762 232.147 314.6 232.512 314.463L242.586 311.118ZM346.225 326.96C359.531 338.073 384.248 363.922 394.321 375.642C398.869 380.933 398.595 392.367 394.018 403.322C390.519 411.697 372.669 449.813 367.396 460.338C362.327 451.047 353.876 447.676 345.984 448.753C346.779 446.471 348.211 442.372 349.815 437.777C353.329 427.716 357.671 415.284 357.969 414.381C362.798 399.788 364.262 394.855 362.688 393.221C361.248 391.735 349.312 383.209 337.676 374.899C332.491 371.196 327.366 367.535 323.256 364.559C322.746 373.291 321.689 381.983 320.09 390.582C314.25 419.529 329.336 473.658 333.39 486.399C333.54 486.871 333.715 487.347 333.891 487.829C334.866 490.487 335.898 493.303 333.153 496.266C327.939 501.892 315.401 503.092 300.505 504.519C293.985 505.143 287.013 505.811 280.005 506.912C280.504 494.856 280.301 457.658 280.126 425.72C280.006 403.967 279.901 384.653 280.04 377.386C284.51 332.004 299.437 304.511 299.437 304.511C299.437 304.511 310.545 307.414 317.706 309.655C325.336 311.409 334.709 317.342 346.225 326.96Z" fill="url(#paint6_linear_10368_65401)"/>
<g style="mix-blend-mode:overlay" opacity="0.6">
<path style="mix-blend-mode:overlay" opacity="0.6" d="M220.459 340.653C216.013 342.89 212.132 346.108 209.11 350.063C201.167 360.241 191.205 357.683 183.935 358.087C176.665 358.491 173.832 360.745 171.816 364.061C186.829 364.473 201.852 363.838 216.777 362.161C217.554 356.121 218.701 348.939 220.459 340.653Z" fill="url(#paint7_linear_10368_65401)"/>
</g>
<g style="mix-blend-mode:overlay" opacity="0.6">
<g style="mix-blend-mode:overlay" opacity="0.6">
<path d="M210.756 327.418C205.416 329.133 189.842 332.521 179.94 334.613C175.131 335.629 170.379 332.664 169.177 327.899L164.078 296.415C163.661 292.637 166.974 289.427 166.974 289.427L180.024 326.64L219.84 318.94C218.308 321.951 215.482 325.902 210.756 327.418Z" fill="white"/>
</g>
</g>
<path d="M168.072 343.693C168.054 343.694 168.037 343.693 168.019 343.69C167.912 343.676 167.816 343.621 167.75 343.535C167.685 343.45 167.656 343.342 167.67 343.236C168.048 340.353 169.505 337.483 172.125 334.46C173.211 333.207 174.401 332.023 175.552 330.879C176.668 329.769 177.822 328.622 178.869 327.421C179.016 327.253 179.272 327.236 179.441 327.383C179.609 327.53 179.627 327.786 179.48 327.954C178.414 329.176 177.249 330.334 176.123 331.453C174.982 332.587 173.803 333.761 172.737 334.99C170.224 337.89 168.83 340.621 168.473 343.342C168.446 343.543 168.275 343.693 168.072 343.693Z" fill="#0B122D"/>
<g style="mix-blend-mode:overlay" opacity="0.6">
<path style="mix-blend-mode:overlay" opacity="0.6" d="M217.817 399.263C217.817 399.263 225.898 406.715 234.215 406.87C239.896 406.975 241.105 410.054 235.247 411.314C232.528 411.898 227.477 411.428 222.104 411.283C221.02 407.161 219.586 403.14 217.817 399.263Z" fill="url(#paint8_linear_10368_65401)"/>
</g>
<g style="mix-blend-mode:overlay" opacity="0.6">
<path style="mix-blend-mode:overlay" opacity="0.6" d="M318.773 404.51C318.518 392.348 322.304 386.678 323.036 364.401C319.043 361.508 316.04 359.282 314.932 358.333C314.761 358.186 314.601 358.042 314.432 357.895C314.916 368.214 314.995 382.382 312.54 390.583C309.689 400.108 298.354 404.968 290.683 406.285C278.963 408.297 280.505 413.113 296.776 412.726C306.799 412.488 310.075 432.269 310.006 444.164C309.815 477.171 284.765 496.25 280.005 506.913C301.395 503.061 324.12 505.516 333.153 496.267C333.153 496.267 336.715 493.954 333.39 486.4C331.735 482.64 319.609 444.382 318.773 404.51Z" fill="url(#paint9_linear_10368_65401)"/>
</g>
<path d="M214.53 383.404C214.283 383.404 214.077 383.213 214.057 382.967C213.793 379.782 217.65 353.563 217.814 352.449C217.852 352.189 218.095 352.009 218.355 352.047C218.616 352.086 218.796 352.328 218.757 352.589C218.716 352.86 214.752 379.811 215.005 382.889C215.016 383.015 214.976 383.139 214.894 383.236C214.813 383.332 214.696 383.392 214.57 383.402C214.557 383.403 214.544 383.404 214.53 383.404Z" fill="#0B122D"/>
<path d="M317.332 360.372C317.27 360.372 317.209 360.358 317.154 360.33C304.505 354.114 301.853 336.818 301.827 336.644C301.795 336.422 301.948 336.217 302.17 336.184C302.39 336.155 302.594 336.307 302.629 336.527C302.654 336.697 305.248 353.577 317.511 359.604C317.68 359.688 317.769 359.876 317.726 360.059C317.684 360.242 317.52 360.372 317.332 360.372Z" fill="#0B122D"/>
<g style="mix-blend-mode:overlay" opacity="0.6">
<g style="mix-blend-mode:overlay" opacity="0.6">
<path d="M370.015 395.473C369.46 402.515 367.339 409.344 363.805 415.46C363.148 416.58 359.654 419.485 356.582 418.565C362.509 400.703 364.565 394.831 362.687 393.222C357.534 388.807 338.313 375.355 330.788 369.977C332.658 368.714 336.429 367.166 340.242 369.069C346.518 372.21 370.832 386.752 370.015 395.473Z" fill="white"/>
</g>
</g>
<path d="M373.067 401.103C372.865 401.103 372.695 400.954 372.667 400.755C372.629 400.488 371.654 394.218 364.261 393.828C364.038 393.816 363.867 393.626 363.879 393.403C363.883 393.295 363.931 393.194 364.011 393.122C364.091 393.049 364.197 393.013 364.304 393.02C368.793 393.03 372.641 396.231 373.468 400.643C373.499 400.864 373.345 401.068 373.124 401.099C373.105 401.102 373.086 401.103 373.067 401.103Z" fill="#0B122D"/>
<path fill-rule="evenodd" clip-rule="evenodd" d="M253.305 307.432L256.969 306.029L295.774 303.099L299.438 304.511C299.438 304.511 291.422 319.297 285.378 345.056C272.627 348.33 256.328 349.665 247.596 347.522C248.878 330.684 250.296 314.299 250.7 309.68C252.92 308.021 254.432 307.045 254.432 307.045L253.305 307.432ZM348.601 448.571C355.416 448.526 361.804 451.889 365.624 457.533L359.891 469.366C359.895 469.373 359.9 469.38 359.904 469.387C359.909 469.394 359.913 469.401 359.917 469.408C359.669 469.915 359.396 470.441 359.111 470.977L359.102 470.995H359.101C358.472 472.175 357.759 473.414 356.937 474.679C354.34 478.68 351.148 483.235 341.654 492.135C332.16 501.036 328.237 503.951 325.575 502.895C324.506 502.47 324.394 501.746 324.286 501.048C324.214 500.583 324.144 500.13 323.795 499.784C323.407 499.399 322.671 499.512 321.709 499.661C320.504 499.846 318.944 500.086 317.265 499.473C315.48 498.82 315.762 497.822 316.028 496.883C316.178 496.353 316.323 495.842 316.088 495.423C315.849 494.999 315.354 495 314.725 495.001C313.632 495.003 312.133 495.006 310.874 492.777C310.418 491.97 310.562 491.42 310.727 490.792C310.958 489.916 311.228 488.886 309.972 486.791C308.189 483.819 319.381 477.048 324.334 474.052C325.377 473.42 326.144 472.957 326.454 472.731C328.196 471.464 327.264 465.071 327.264 465.071C327.264 465.071 335.934 464.755 340.109 463.463C341.998 462.855 343.548 461.486 344.385 459.686L344.563 459.169L344.58 459.172L348.601 448.571Z" fill="#F2AC7D"/>
<path d="M324.515 480.932C324.461 480.839 324.372 480.771 324.269 480.744C324.165 480.716 324.054 480.731 323.961 480.785L310.636 488.473C310.477 488.565 310.399 488.751 310.447 488.928C310.495 489.105 310.655 489.228 310.838 489.228C310.909 489.228 310.979 489.209 311.04 489.174L324.366 481.486C324.459 481.432 324.527 481.343 324.555 481.24C324.583 481.136 324.568 481.025 324.515 480.932Z" fill="#0B122D"/>
<path d="M331.139 486.738C331.085 486.645 330.997 486.577 330.893 486.549C330.789 486.522 330.678 486.537 330.586 486.591L315.884 495.072C315.725 495.164 315.647 495.351 315.695 495.528C315.742 495.705 315.903 495.828 316.086 495.828C316.157 495.828 316.227 495.809 316.288 495.773L330.99 487.291C331.083 487.238 331.151 487.149 331.179 487.046C331.207 486.942 331.193 486.831 331.139 486.738Z" fill="#0B122D"/>
<path d="M333.386 493.449C333.327 493.359 333.235 493.297 333.13 493.275C333.024 493.254 332.915 493.275 332.825 493.335L323.57 499.446C323.42 499.545 323.353 499.729 323.405 499.9C323.456 500.072 323.614 500.189 323.793 500.188C323.872 500.189 323.95 500.166 324.015 500.121L333.271 494.01C333.458 493.887 333.509 493.636 333.386 493.449Z" fill="#0B122D"/>
<path d="M246.019 267.352C247.151 277.457 253.097 284.344 255.928 286.525L255.999 286.829C257.838 294.691 256.32 302.965 251.808 309.662L274.532 346.072L297.801 303.781C294.669 300.228 292.722 295.788 292.232 291.077L291.923 288.103C299.041 284.855 302.573 271.412 303.449 265.096C323.671 266.45 316.573 233.942 311.538 235.323C301.942 237.953 306.395 251.35 299.108 238.973C287.008 218.422 270.948 216.832 254.836 227.491C248.519 231.67 245.885 243.668 244.604 247.052C244.604 243.217 232.066 225.398 231.055 247.503C230.246 265.187 240.694 268.104 246.019 267.352Z" fill="#F2AC7D"/>
<path d="M282.16 274.958C282.118 274.632 281.954 274.338 281.703 274.139C281.452 273.941 281.135 273.856 280.824 273.902C279.268 274.117 276.394 274.497 274.167 274.695C271.795 274.784 269.42 274.708 267.058 274.468C266.648 274.431 266.25 274.618 266.004 274.961C265.758 275.305 265.698 275.756 265.847 276.156C266.982 279.23 269.802 284.957 274.847 284.078C280.983 283.01 282.564 278.568 282.16 274.958Z" fill="#161B36"/>
<path d="M281.338 279.814C281.338 279.814 273.675 275.062 267.552 279.751C267.552 279.751 269.815 285.167 274.704 284.383C279.967 283.539 281.338 279.814 281.338 279.814Z" fill="#E55151"/>
<path d="M264.46 238.618C263.779 237.818 262.842 237.196 260.031 237.374C257.221 237.552 252.962 240.307 253.899 241.019C254.836 241.73 257.647 239.33 259.861 240.13C262.075 240.93 263.347 241.588 264.091 241.152C265.028 240.604 264.788 239.003 264.46 238.618Z" fill="#161B36"/>
<path d="M256.548 252.566C257.944 251.081 261.74 248.84 265.756 251.761" stroke="url(#paint10_linear_10368_65401)" stroke-width="1.17087" stroke-linecap="round"/>
<path d="M282.104 252.566C283.5 251.081 287.296 248.84 291.312 251.761" stroke="url(#paint11_linear_10368_65401)" stroke-width="1.17087" stroke-linecap="round"/>
<path d="M284.072 237.516C284.965 236.988 286.044 236.715 288.649 237.83C291.254 238.946 294.432 242.989 293.325 243.346C292.219 243.704 290.301 240.485 287.958 240.496C285.614 240.507 284.208 240.701 283.638 240.038C282.921 239.203 283.643 237.769 284.072 237.516Z" fill="#161B36"/>
<g style="mix-blend-mode:overlay" opacity="0.6">
<g style="mix-blend-mode:overlay" opacity="0.6">
<path d="M274.353 266.724C275.342 266.761 276.322 266.524 277.194 266.035C277.765 265.702 278.163 265.118 278.278 264.446C278.491 263.051 277.125 260.894 275.454 258.425C275.03 257.836 274.641 257.219 274.29 256.579C273.95 255.82 274.047 248.896 274.337 242.641L273.314 242.589C273.213 244.759 272.743 255.648 273.361 257.032C273.734 257.732 274.154 258.404 274.618 259.042C275.67 260.597 277.431 263.2 277.267 264.277C277.198 264.642 276.974 264.954 276.657 265.124C275.186 265.784 273.531 265.838 272.023 265.275L271.71 266.293C272.565 266.577 273.456 266.722 274.353 266.724Z" fill="#030F1C"/>
</g>
</g>
<path d="M278.466 226.188C258.42 221.718 255.466 224.869 253.693 224.869C277.096 204.657 305.061 232.216 306.125 234.344C307.189 236.471 303.693 241.945 303.339 245.845C302.984 249.746 301.186 255.705 297.86 244.85C294.546 234.034 293.4 229.518 278.466 226.188Z" fill="url(#paint12_linear_10368_65401)"/>
<g style="mix-blend-mode:overlay" opacity="0.6">
<g style="mix-blend-mode:overlay" opacity="0.6">
<path d="M255.865 285.967C261.223 291.006 275.772 298.392 291.108 287.627C286.057 298.491 271.938 313.367 255.865 285.967Z" fill="#030F1C"/>
</g>
</g>
<path d="M312.586 244.267C310.102 244.278 308.646 247.038 307.804 249.882L307.801 249.889C307.237 251.894 306.87 253.949 306.706 256.024C306.694 256.198 306.776 256.366 306.921 256.463C307.066 256.56 307.252 256.572 307.408 256.496C307.565 256.419 307.669 256.264 307.68 256.09C307.828 254.141 308.166 252.21 308.689 250.326C309.586 249.833 310.629 249.675 311.631 249.882C312.669 250.214 313.519 250.969 313.969 251.962C314.083 252.172 314.331 252.269 314.557 252.192C314.583 252.183 314.607 252.172 314.631 252.159C314.745 252.098 314.829 251.994 314.867 251.87C314.904 251.746 314.89 251.612 314.829 251.498C314.254 250.262 313.178 249.33 311.872 248.937C310.949 248.716 309.98 248.773 309.089 249.099C309.862 246.967 310.99 245.247 312.59 245.244C312.765 245.244 312.926 245.15 313.013 244.998C313.1 244.847 313.1 244.66 313.012 244.509C312.923 244.358 312.761 244.266 312.586 244.267Z" fill="#0B122D"/>
<path d="M236.922 245.78C239.406 245.791 240.862 248.551 241.705 251.395L241.707 251.403C242.272 253.407 242.638 255.462 242.802 257.538C242.814 257.712 242.732 257.879 242.587 257.976C242.442 258.073 242.257 258.086 242.1 258.009C241.943 257.932 241.84 257.777 241.828 257.603C241.68 255.654 241.342 253.723 240.82 251.839C239.923 251.346 238.88 251.189 237.877 251.396C236.839 251.727 235.99 252.483 235.539 253.475C235.425 253.685 235.177 253.782 234.951 253.705C234.926 253.696 234.901 253.686 234.878 253.673C234.764 253.611 234.679 253.507 234.642 253.383C234.605 253.259 234.618 253.125 234.68 253.012C235.255 251.775 236.33 250.843 237.636 250.45C238.56 250.229 239.528 250.286 240.42 250.612C239.647 248.48 238.519 246.761 236.918 246.757C236.744 246.757 236.582 246.663 236.495 246.512C236.408 246.36 236.409 246.173 236.497 246.022C236.585 245.871 236.747 245.779 236.922 245.78Z" fill="#0B122D"/>
<path d="M309.158 510.165L167.734 535.139L188.36 651.943L329.784 626.969L309.158 510.165Z" fill="#2C4F7B"/>
<path d="M315.435 545.704L313.138 532.725L171.723 557.748L174.019 570.727L315.435 545.704Z" fill="#F44336"/>
<path d="M244.943 521.504L231.964 523.796L252.59 640.601L265.57 638.308L244.943 521.504Z" fill="#F44336"/>
<path d="M306.793 491.715L163.596 517.002L166.105 531.21L309.302 505.923L306.793 491.715Z" fill="#2C4F7B"/>
<path d="M308.422 506.078L166.999 531.052L167.721 535.142L309.145 510.167L308.422 506.078Z" fill="#F44336"/>
<path d="M267.909 451.318C244.344 440.123 235.198 504.386 235.198 504.386L238.925 503.728C238.925 503.728 256.648 459.84 263.947 462.135C271.246 464.43 244.184 499.605 238.925 503.728L241.716 503.235C241.716 503.235 301.539 467.269 267.909 451.318Z" fill="#F44336"/>
<path d="M278.138 463.515C274.615 457.258 263.949 462.135 263.949 462.135C271.32 464.431 244.185 499.605 238.921 503.7L241.712 503.207C241.712 503.207 279.062 480.809 278.138 463.515Z" fill="#D87D6E"/>
<path d="M186.266 465.75C204.571 447.161 235.199 504.386 235.199 504.386L231.529 505.034C231.529 505.034 199.834 469.888 193.709 474.567C187.584 479.247 225.122 502.985 231.529 505.034L228.737 505.527C228.737 505.527 160.194 492.273 186.266 465.75Z" fill="#F44336"/>
<path d="M180.851 480.724C182.001 473.627 193.709 474.567 193.709 474.567C187.584 479.247 225.122 502.985 231.529 505.035L228.738 505.527C228.738 505.527 185.971 497.249 180.851 480.724Z" fill="#D87D6E"/>
<path d="M245.569 502.555C244.716 500.186 243.052 498.194 240.873 496.931C238.693 495.668 236.138 495.216 233.657 495.654C231.177 496.092 228.931 497.392 227.316 499.325C225.701 501.258 224.82 503.699 224.83 506.218L245.569 502.555Z" fill="#F44336"/>
<path d="M622.895 603.682C614.583 599.175 605.155 610.108 604.7 610.679C605.403 609.306 638.964 544.012 631.562 518.969C626.46 501.841 608.306 493.571 593.105 503.536L569.344 608.686C576.091 623.478 580.285 639.305 581.75 655.496H608.786C618.867 640.237 635.97 610.778 622.895 603.682Z" fill="url(#paint13_linear_10368_65401)"/>
<path d="M581.75 655.496H495.357C491.04 632.24 491.743 603.07 490.511 590.284C489.03 574.934 469.339 562.214 478.155 537.18C486.971 512.145 487.128 494.802 480.52 475.375C476.542 463.673 480.71 454.269 484.655 448.645C485.973 446.774 487.929 445.448 490.155 444.915H490.196C492.439 444.39 494.797 444.718 496.813 445.833C502.825 449.142 510.724 455.758 512.311 468.006C513.684 478.592 516.447 487.855 521.483 496.953C526.098 505.289 532.615 513.493 541.704 522.384C556.095 536.493 552.563 565.44 552.505 566.085C550.843 583.238 577.614 607.528 581.75 655.496Z" fill="url(#paint14_linear_10368_65401)"/>
<path d="M577.424 410.924C568.19 408.827 558.502 410.49 550.497 415.547C542.492 420.604 536.829 428.639 534.757 437.878L521.425 496.969C526.04 505.306 532.557 513.51 541.646 522.401C556.036 536.51 552.505 565.456 552.447 566.102C551.479 576.456 560.875 589.449 569.376 608.686L593.104 503.536L604.377 453.583C608.71 434.361 596.644 415.264 577.424 410.924Z" fill="url(#paint15_linear_10368_65401)"/>
<g style="mix-blend-mode:overlay" opacity="0.6">
<g style="mix-blend-mode:overlay" opacity="0.6">
<path d="M550.622 521.135L548.141 532.01C549.1 534.153 549.896 536.364 550.523 538.627L559.62 498.102C559.94 498.178 560.277 498.121 560.555 497.945L579.759 485.812C580.336 485.444 580.506 484.678 580.139 484.1L579.444 483.008C579.269 482.73 578.99 482.532 578.669 482.459C578.348 482.386 578.011 482.444 577.732 482.62L560.687 493.371L574.308 433.196C574.382 432.875 574.325 432.539 574.15 432.261C573.974 431.983 573.695 431.786 573.374 431.715L572.108 431.426C571.437 431.277 570.772 431.698 570.62 432.369L562.507 468.337L552.582 452.623C552.223 452.047 551.468 451.866 550.887 452.218L549.795 452.912C549.516 453.088 549.319 453.367 549.246 453.688C549.173 454.009 549.231 454.346 549.406 454.624L561.365 473.547L551.796 515.9L541.872 500.186C541.698 499.908 541.421 499.71 541.101 499.637C540.781 499.564 540.446 499.622 540.168 499.797L539.068 500.492C538.79 500.667 538.592 500.946 538.519 501.267C538.446 501.588 538.504 501.925 538.68 502.204L550.622 521.135Z" fill="#030F1C"/>
</g>
</g>
<g style="mix-blend-mode:overlay" opacity="0.6">
<g style="mix-blend-mode:overlay" opacity="0.6">
<path d="M607.925 520.226C607.533 520.11 607.112 520.155 606.754 520.351C606.396 520.546 606.13 520.876 606.015 521.268L577.614 617.998C575.816 617.398 574.066 616.663 572.379 615.798C572.908 617.138 573.421 618.494 573.925 619.933C574.835 620.322 575.77 620.678 576.746 621L575.604 624.879C576.167 626.641 576.713 628.435 577.258 630.28L609.042 522.178C609.167 521.77 609.119 521.329 608.907 520.959C608.696 520.589 608.34 520.324 607.925 520.226Z" fill="#030F1C"/>
</g>
</g>
<g style="mix-blend-mode:overlay" opacity="0.6">
<g style="mix-blend-mode:overlay" opacity="0.6">
<path d="M556.005 613.49C556.019 612.67 555.385 611.986 554.567 611.937C553.749 611.888 553.038 612.493 552.954 613.308C552.954 613.539 551.424 635.687 537.587 641.981L520.865 570.087C531.566 561.907 528.573 544.928 528.432 544.184C528.232 543.405 527.463 542.913 526.672 543.059C525.881 543.205 525.338 543.939 525.43 544.738C525.43 544.895 528.002 559.294 520.079 566.737L506.102 506.636C505.942 505.973 505.279 505.56 504.613 505.71L504.051 505.842C503.73 505.915 503.451 506.113 503.277 506.393C503.103 506.673 503.048 507.011 503.125 507.331L507.475 526.055C502.835 521.986 500.949 514.369 500.925 514.278C500.829 513.715 500.428 513.252 499.884 513.077C499.34 512.902 498.744 513.045 498.339 513.447C497.933 513.849 497.785 514.444 497.956 514.989C498.071 515.477 500.842 526.634 508.484 530.397L517.118 567.49L517.879 570.748L524.793 600.522C511.172 599.14 501.743 584.808 501.636 584.643C501.166 583.966 500.245 583.784 499.552 584.229C498.86 584.675 498.644 585.588 499.064 586.297C499.502 586.983 509.815 602.746 525.529 603.664L534.395 641.758V641.882L534.8 643.627L535.627 647.018L537.62 655.553H540.73L538.249 645.066C554.343 638.301 555.947 614.523 556.005 613.49Z" fill="#030F1C"/>
</g>
</g>
<path d="M549.155 616.666C549.751 616.5 545.557 606.635 544.079 589.661C543.34 579.726 543.444 569.745 544.389 559.827C545.295 548.607 547.129 536.364 549.298 523.527C551.466 510.69 553.563 498.4 554.755 487.156C555.927 477.185 556.318 467.139 555.922 457.108C555.659 450.329 554.774 443.589 553.277 436.972C552.832 434.52 552.105 432.127 551.109 429.841C550.513 429.96 553.873 440.11 554.469 457.131C554.762 467.087 554.324 477.05 553.158 486.942C551.919 498.138 549.87 510.381 547.677 523.218C545.485 536.055 543.65 548.393 542.769 559.685C541.87 569.688 541.87 579.752 542.769 589.756C543.373 596.516 544.659 603.198 546.605 609.701C546.878 610.732 547.204 611.747 547.582 612.744C547.916 613.6 548.202 614.313 548.416 614.907C548.869 616.12 549.155 616.714 549.155 616.666Z" fill="#F1F1F4"/>
<path d="M553.306 422.597C581.728 421.597 603.784 392.929 602.569 358.565C601.354 324.202 577.329 297.155 548.907 298.156C520.485 299.156 498.429 327.823 499.644 362.187C500.859 396.551 524.884 423.597 553.306 422.597Z" fill="#F44336"/>
<path d="M565.358 300.876C574.366 327.026 593.024 398.77 535.215 419.405C540.935 421.756 547.094 422.858 553.277 422.638C581.705 421.639 603.771 392.994 602.555 358.619C601.578 331.138 586.066 308.436 565.358 300.876Z" fill="#E33126"/>
<path d="M532.474 334.419C528.47 341.051 521.965 344.284 517.914 341.551C513.863 338.817 513.863 331.424 517.914 324.91C521.965 318.397 528.447 315.045 532.474 317.778C536.501 320.512 536.525 327.787 532.474 334.419Z" fill="#F16255"/>
<path d="M557.519 430.221C557.404 429.801 557.227 429.401 556.995 429.032C556.44 428.107 555.784 427.246 555.04 426.465C553.634 424.991 551.799 423.589 551.537 421.568H548.725C548.693 422.947 548.335 424.3 547.677 425.514C547.106 426.56 546.318 427.463 545.722 428.486C545.055 429.485 544.792 430.699 544.985 431.885C545.106 432.464 545.439 432.978 545.919 433.325C546.4 433.673 546.992 433.829 547.581 433.763C548.63 433.525 549.368 432.432 550.274 431.956C551.259 431.384 552.412 431.165 553.539 431.338C552.976 431.439 552.438 431.658 551.966 431.98C551.966 431.98 552.777 432.574 553.349 432.931C553.801 433.206 554.319 433.352 554.849 433.352C555.379 433.352 555.898 433.206 556.35 432.931C556.798 432.651 557.15 432.242 557.358 431.758C557.567 431.274 557.623 430.738 557.519 430.221Z" fill="#E33126"/>
<path d="M488.962 129.078C491.483 125.385 495.53 128.48 495.53 128.48C495.53 128.48 492.577 120.179 495.529 118.062C498.175 116.165 503.823 122.345 503.823 122.345C503.823 122.345 501.289 113.968 505.336 114.398C510.313 114.92 512.794 118.207 513.089 119.079C512.325 105.181 509.271 86.8777 514.968 92.8852C520.602 98.8204 522.803 124.204 522.803 124.204C525.266 124.011 527.666 125.041 529.219 126.959C531.639 130.167 530.311 139.819 530.311 139.819C529.893 147.456 529.289 160.367 529.289 160.367C529.681 162.6 530.207 164.808 530.865 166.978L544.051 210.018L520.771 216.273L509.864 175.975C508.856 172.673 508.111 169.758 508.111 169.758C497.82 162.719 492.864 145.48 492.262 144.088L492.256 144.082C489.137 136.895 487.845 130.721 488.962 129.078Z" fill="#F2AC7D"/>
<path d="M519.578 138.148C524.205 137.019 528.533 132.26 528.756 132.012C528.872 131.883 528.911 131.701 528.857 131.536C528.803 131.37 528.665 131.246 528.494 131.211C528.324 131.175 528.147 131.233 528.031 131.362C527.967 131.433 521.632 138.392 516.572 137.297C515.573 137.173 514.699 136.565 514.237 135.672C513.279 133.593 515.003 130.351 515.021 130.318C515.148 130.081 515.06 129.787 514.823 129.659C514.587 129.532 514.292 129.62 514.164 129.856C514.083 130.006 512.191 133.556 513.35 136.078C513.938 137.251 515.064 138.062 516.365 138.248C517.43 138.459 518.529 138.425 519.578 138.148Z" fill="#0B122D"/>
<path d="M502.678 149.197C503.122 149.087 503.531 148.866 503.867 148.556C505.539 147.047 504.811 144.291 503.907 142.246C504.907 143.004 506.092 143.481 507.34 143.625C508.65 143.717 509.938 143.247 510.882 142.334C513.156 140.269 512.993 137.425 510.436 134.53C509.79 133.798 509.245 132.983 508.814 132.106L505.096 124.558C505.02 124.401 504.866 124.297 504.691 124.285C504.517 124.274 504.35 124.356 504.253 124.501C504.156 124.646 504.144 124.832 504.221 124.988L507.939 132.536C508.408 133.49 509.002 134.377 509.705 135.175C511.251 136.924 512.596 139.462 510.226 141.613C509.48 142.345 508.456 142.724 507.414 142.654C504.819 142.46 502.513 139.664 502.489 139.636C502.325 139.435 502.032 139.398 501.823 139.552C501.613 139.706 501.561 139.996 501.705 140.213C502.743 141.774 505.036 146.189 503.214 147.834C502.846 148.176 502.349 148.344 501.849 148.297C499.71 148.151 497.158 145.143 497.132 145.112C497.02 144.979 496.845 144.915 496.673 144.945C496.501 144.975 496.359 145.095 496.299 145.258C496.24 145.422 496.272 145.605 496.384 145.738C496.499 145.875 499.228 149.093 501.78 149.269C502.081 149.291 502.384 149.267 502.678 149.197Z" fill="#0B122D"/>
<path d="M516.014 155.003C516.189 154.96 516.326 154.825 516.371 154.651C516.416 154.477 516.361 154.292 516.228 154.171C514.456 152.71 513.381 150.571 513.267 148.278C513.174 144.14 516.596 140.66 516.63 140.625C516.819 140.435 516.818 140.128 516.629 139.938C516.439 139.749 516.131 139.749 515.941 139.938C515.788 140.091 512.194 143.737 512.293 148.294C512.406 150.855 513.595 153.25 515.569 154.889C515.688 154.999 515.856 155.042 516.014 155.003Z" fill="#0B122D"/>
<path d="M502.226 140.416C502.266 140.406 502.304 140.392 502.339 140.373C502.453 140.312 502.539 140.209 502.577 140.085C502.615 139.962 502.602 139.828 502.541 139.715L497.795 130.787C497.714 130.633 497.556 130.534 497.382 130.528C497.208 130.522 497.043 130.609 496.951 130.757C496.859 130.904 496.852 131.09 496.934 131.243L501.68 140.171C501.785 140.368 502.01 140.469 502.226 140.416Z" fill="#0B122D"/>
<path d="M381.257 196.414C379.992 226.787 387.877 237.773 402.073 248.705C421.038 256.143 433.575 254.232 441.64 248.219C461.191 233.644 460.271 189.554 460.959 178.078C461.508 168.897 454.316 164.211 450.65 163.015C454.086 139.346 435.532 130.738 420.413 136.477C405.294 142.215 409.208 148.391 400.004 154.635C390.8 160.879 382.838 158.448 381.257 196.414Z" fill="url(#paint16_linear_10368_65401)"/>
<g style="mix-blend-mode:overlay" opacity="0.6">
<g style="mix-blend-mode:overlay" opacity="0.6">
<path d="M550.137 210.604L519.377 216.891C517.53 217.269 534.493 207.008 543.682 208.989C549.632 210.271 550.094 205.101 549.029 202.487C547.536 198.822 540.629 195.774 540.629 195.774C540.62 195.732 545.188 194.908 545.178 194.866L545.517 194.797C547.407 194.411 550.96 197.588 551.346 199.477L552.86 206.483C553.045 207.39 552.862 208.334 552.352 209.107C551.841 209.88 551.045 210.418 550.137 210.604Z" fill="#030F1C"/>
</g>
</g>
<path d="M402.348 248.709V275.092L420.952 304.429L438.95 275.514L438.343 250.186C445.461 247.147 448.993 234.567 449.869 228.658C470.091 229.924 462.609 198.476 457.958 200.797C453.307 203.119 454.52 215.572 451.285 211.984C448.05 208.396 446.836 189.189 447.847 184.124C448.858 179.058 447.038 175.47 441.781 178.847C436.523 182.224 424.592 190.244 410.033 185.812C395.473 181.38 394.866 183.701 394.866 192.988C394.866 200.418 392.305 208.607 391.024 211.773C391.024 208.185 378.486 191.511 377.475 212.195C376.666 228.742 387.114 231.472 392.439 230.768C393.571 240.224 399.517 246.668 402.348 248.709Z" fill="#F2AC7D"/>
<path d="M489.428 489.135C489.428 489.135 500.945 634.141 500.293 658.2C499.64 682.259 497.683 830.512 497.683 830.512C497.683 830.512 482.024 838.965 465.713 830.512C465.713 830.512 455.926 738.829 451.359 711.519C446.792 684.21 448.097 647.146 448.097 647.146L424.609 589.275L384.045 832.397C384.045 832.397 363.279 837.665 353.493 831.162C353.493 831.162 355.45 784.996 353.493 739.479C351.535 693.963 355.45 660.801 361.322 643.245C361.322 643.245 348.283 550.257 350.892 489.135H489.428Z" fill="url(#paint17_linear_10368_65401)"/>
<g style="mix-blend-mode:overlay" opacity="0.6">
<g style="mix-blend-mode:overlay" opacity="0.6">
<path d="M351.264 528.649C351.294 528.648 351.323 528.646 351.352 528.641C381.695 523.26 376.713 489.737 376.659 489.399C376.616 489.133 376.365 488.952 376.098 488.994C375.831 489.037 375.648 489.286 375.69 489.552C375.742 489.881 380.571 522.467 351.179 527.679C350.929 527.723 350.755 527.95 350.777 528.203C350.799 528.455 351.011 528.648 351.264 528.649Z" fill="#030F1C"/>
</g>
</g>
<g style="mix-blend-mode:overlay" opacity="0.6">
<g style="mix-blend-mode:overlay" opacity="0.6">
<path d="M492.281 521.814C492.507 521.814 492.704 521.66 492.758 521.442C492.812 521.223 492.709 520.996 492.509 520.892C492.297 520.781 471.298 509.598 472.409 489.502C472.416 489.373 472.371 489.246 472.284 489.149C472.198 489.053 472.076 488.994 471.946 488.987C471.816 488.978 471.687 489.022 471.59 489.109C471.493 489.196 471.435 489.319 471.43 489.449C470.284 510.179 491.837 521.645 492.055 521.759C492.125 521.795 492.203 521.814 492.281 521.814Z" fill="#030F1C"/>
</g>
</g>
<g style="mix-blend-mode:overlay" opacity="0.6">
<g style="mix-blend-mode:overlay" opacity="0.6">
<path d="M489.427 489.135L490.047 498.885C435.509 520.429 350.618 505.395 350.618 505.395L350.891 489.135H489.427Z" fill="#030F1C"/>
</g>
</g>
<g style="mix-blend-mode:overlay" opacity="0.6">
<g style="mix-blend-mode:overlay" opacity="0.6">
<path d="M424.609 589.275L437.667 540.833C437.667 540.833 444.508 567.068 441.572 595.453C438.636 623.837 441.572 631.071 441.572 631.071L424.609 589.275Z" fill="#030F1C"/>
</g>
</g>
<g style="mix-blend-mode:overlay" opacity="0.6">
<path style="mix-blend-mode:overlay" opacity="0.6" d="M492.044 524.547C492.044 524.547 486.274 521.976 483.99 531.079C481.707 540.183 484.414 585.049 487.024 610.408C489.633 635.767 492.774 674.456 493.271 694.613C493.768 714.77 499.248 718.685 499.248 718.685C499.248 718.685 500.942 661.323 499.975 646.479C499.008 631.634 496.497 572.504 492.044 524.547Z" fill="url(#paint18_linear_10368_65401)"/>
</g>
<g style="mix-blend-mode:overlay" opacity="0.6">
<path style="mix-blend-mode:overlay" opacity="0.6" d="M420.805 612.704C420.805 612.704 402.236 634.233 397.928 663.123C393.62 692.012 390.031 749.341 387.856 764.08C385.682 778.818 380.545 795.129 390.052 796.402L420.805 612.704Z" fill="url(#paint19_linear_10368_65401)"/>
</g>
<g style="mix-blend-mode:overlay" opacity="0.6">
<g style="mix-blend-mode:overlay" opacity="0.6">
<path d="M447.942 655.65C447.958 655.65 447.975 655.649 447.991 655.647C448.12 655.635 448.239 655.571 448.322 655.471C448.404 655.371 448.444 655.242 448.431 655.113C448.415 654.954 446.937 639.111 453.3 628.541C453.439 628.309 453.364 628.009 453.131 627.87C452.899 627.732 452.598 627.807 452.459 628.038C445.927 638.888 447.438 655.048 447.455 655.209C447.479 655.459 447.69 655.65 447.942 655.65Z" fill="#030F1C"/>
</g>
</g>
<path d="M461.144 275.529C461.144 275.529 470.925 275.152 481.138 274.283C494.362 273.274 504.308 271.04 515.446 269.605C533.838 267.233 530.116 257.411 529.747 254.826C528.024 246.456 520.696 218.748 519.518 216.858C511.59 219.153 510.686 219.292 510.147 216.531L506.957 206.063C506.172 203.55 507.585 202.412 509.326 202.153L544.144 193.62C548.355 192.345 548.458 194.62 549.588 197.703L552.694 206.934C553.502 208.635 553.552 209.744 547.683 210.823C549.618 216.463 578.67 287.876 568.726 296.11C557.147 305.286 492.98 324.635 492.98 324.635C492.98 324.635 477.419 341.723 461.144 275.529Z" fill="url(#paint20_linear_10368_65401)"/>
<path fill-rule="evenodd" clip-rule="evenodd" d="M317.423 354.989C313.917 363.997 309.965 374.152 305.418 385.614C297.305 406.066 310.912 426.146 338.776 423.381C344.842 422.78 350.829 422.124 357.005 421.337C357.502 431.892 357.455 442.334 352.642 460.627C349.943 471.559 348.488 482.761 348.305 494.02C348.305 494.02 462.99 513.319 486.433 494.02C491.297 490.016 488.912 480.418 486.744 471.694C485.674 467.388 484.657 463.296 484.59 460.193C484.402 451.457 483.998 443.152 483.615 435.289C483.366 430.176 483.127 425.25 482.962 420.515C483.09 403.923 482.394 382.857 484.542 373.191C486.859 353.105 493.111 323.874 487.688 314.35C482.542 306.207 479.346 279.667 479.341 279.66C474.137 272.721 449.787 276.527 449.787 276.527L420.5 298.182L401.299 273.003C401.299 273.003 382.518 277.236 371.295 280.15C344.278 285.993 340.613 295.41 317.423 354.989ZM355.305 380.83L355.362 382.307L353.482 382.396C354.106 381.124 354.653 380.008 355.228 378.846C355.254 379.511 355.279 380.172 355.305 380.83Z" fill="url(#paint21_linear_10368_65401)"/>
<path d="M459.632 207.702C457.148 207.713 455.692 210.472 454.849 213.316L454.847 213.324C454.282 215.328 453.915 217.383 453.752 219.459C453.74 219.633 453.822 219.8 453.967 219.897C454.111 219.994 454.297 220.007 454.454 219.93C454.61 219.853 454.714 219.699 454.726 219.525C454.874 217.575 455.211 215.645 455.734 213.761C456.631 213.267 457.674 213.11 458.677 213.317C459.715 213.649 460.564 214.404 461.015 215.396C461.128 215.606 461.377 215.703 461.603 215.626C461.628 215.618 461.653 215.607 461.676 215.594C461.79 215.533 461.875 215.428 461.912 215.304C461.949 215.18 461.935 215.047 461.874 214.933C461.299 213.696 460.224 212.764 458.918 212.371C457.994 212.151 457.026 212.207 456.134 212.534C456.907 210.402 458.035 208.682 459.635 208.678C459.81 208.678 459.972 208.585 460.059 208.433C460.146 208.281 460.145 208.095 460.057 207.944C459.969 207.793 459.807 207.7 459.632 207.702Z" fill="#0B122D"/>
<path d="M383.462 207.702C385.946 207.713 387.402 210.472 388.245 213.316L388.247 213.324C388.811 215.328 389.178 217.383 389.342 219.459C389.354 219.633 389.272 219.8 389.127 219.897C388.982 219.994 388.796 220.007 388.64 219.93C388.483 219.853 388.38 219.699 388.368 219.525C388.22 217.575 387.882 215.645 387.359 213.761C386.463 213.267 385.419 213.11 384.417 213.317C383.379 213.649 382.529 214.404 382.079 215.396C381.965 215.606 381.717 215.703 381.491 215.626C381.466 215.618 381.441 215.607 381.417 215.594C381.303 215.533 381.219 215.428 381.182 215.304C381.144 215.18 381.158 215.047 381.22 214.933C381.794 213.696 382.87 212.764 384.176 212.371C385.099 212.151 386.068 212.207 386.96 212.534C386.186 210.402 385.058 208.682 383.458 208.678C383.283 208.678 383.122 208.585 383.035 208.433C382.948 208.281 382.948 208.095 383.037 207.944C383.125 207.793 383.287 207.7 383.462 207.702Z" fill="#0B122D"/>
<g style="mix-blend-mode:overlay" opacity="0.6">
<g style="mix-blend-mode:overlay" opacity="0.6">
<path d="M539.553 261.837C539.707 259.545 535.647 246.061 533.076 234.434C531.648 227.976 525.322 224.711 522.322 225.582L526.571 241.807L530.407 257.801C530.44 258.814 530.407 261.179 529.193 263.185C528.454 264.03 527.979 264.821 526.923 265.666C522.523 269.682 510.215 269.906 490.552 273.257C489.633 280.512 502.659 278.936 509.882 277.795C518.595 276.418 527.32 273.875 531.678 272.782C533.578 272.73 538.98 270.327 539.553 261.837Z" fill="white"/>
</g>
</g>
<path d="M486.354 359.366C486.596 359.365 486.801 359.188 486.837 358.949C490.097 337.293 488.55 321.629 488.534 321.473C488.506 321.205 488.266 321.011 487.998 321.038C487.73 321.066 487.535 321.305 487.562 321.573C487.577 321.727 489.11 337.279 485.87 358.804C485.851 358.932 485.883 359.063 485.96 359.167C486.037 359.271 486.152 359.341 486.281 359.36C486.305 359.364 486.33 359.366 486.354 359.366Z" fill="#0B122D"/>
<path d="M481.151 497.191C481.237 497.191 481.321 497.168 481.395 497.125C492.483 493.071 488.969 482.36 489.09 481.914C489.136 481.745 489.089 481.565 488.966 481.441C488.843 481.317 488.663 481.268 488.494 481.312C488.325 481.356 488.193 481.488 488.146 481.656C488.118 481.761 491.64 492.429 480.906 496.279C480.715 496.389 480.622 496.615 480.679 496.828C480.736 497.042 480.93 497.191 481.151 497.191Z" fill="#0B122D"/>
<g style="mix-blend-mode:overlay" opacity="0.6">
<path style="mix-blend-mode:overlay" opacity="0.6" d="M364.702 360.368C365.054 359.693 365.406 359.009 365.768 358.324C366.12 357.649 366.482 356.964 366.844 356.28C369.793 350.663 372.978 344.692 376.308 338.578C376.868 347.016 376.936 361.186 374.232 381.417L356.006 382.276C355.941 380.725 355.875 379.194 355.807 377.682C357.504 374.282 359.698 369.998 364.702 360.368Z" fill="url(#paint22_linear_10368_65401)"/>
</g>
<g style="mix-blend-mode:overlay" opacity="0.6">
<path style="mix-blend-mode:overlay" opacity="0.6" d="M356.928 421.347C360.786 420.857 364.723 420.313 368.8 419.696C367.792 447.449 378.223 466.446 389.721 478.624C401.454 491.05 425.717 494.02 443.136 502.597C409.779 504.428 348.304 494.02 348.304 494.02C348.304 494.02 347.552 477.93 354.178 454.342C356.191 449.664 356.9 436.794 356.928 421.347Z" fill="url(#paint23_linear_10368_65401)"/>
</g>
<g style="mix-blend-mode:overlay" opacity="0.6">
<path style="mix-blend-mode:overlay" opacity="0.6" d="M411.69 293.317L374.729 278.846L390.692 275.272L411.69 293.317Z" fill="url(#paint24_linear_10368_65401)"/>
</g>
<path d="M335.231 393.271C335.472 393.27 335.677 393.095 335.717 392.857C335.771 392.534 337.141 384.93 346.151 384.671C346.423 384.662 346.637 384.435 346.629 384.163C346.61 383.896 346.39 383.688 346.122 383.685C336.284 383.968 334.759 392.611 334.744 392.698C334.723 392.827 334.754 392.959 334.83 393.065C334.906 393.171 335.022 393.243 335.151 393.264C335.177 393.268 335.204 393.27 335.231 393.271Z" fill="#0B122D"/>
<g style="mix-blend-mode:overlay" opacity="0.6">
<g style="mix-blend-mode:overlay" opacity="0.6">
<path d="M373.074 390.459C384.303 389.067 386.855 385.459 386.855 381.885L351.095 383.571C353.688 378.277 365.378 355.694 365.743 355.004C362.369 353.924 358.068 356.909 354.467 362.59C350.26 369.229 338.484 385.377 343.303 389.994C346.075 392.651 366.712 391.247 373.074 390.459Z" fill="white"/>
</g>
</g>
<g style="mix-blend-mode:overlay" opacity="0.6">
<g style="mix-blend-mode:overlay" opacity="0.6">
<path d="M388.829 414.463L387.649 382.837C387.578 380.938 394.985 399.498 391.5 408.31C389.243 414.015 394.309 415.326 397.083 414.699C400.975 413.818 405.144 407.453 405.144 407.453C405.188 407.451 405.254 412.129 405.297 412.126L405.31 412.474C405.382 414.417 401.637 417.426 399.694 417.499L392.478 417.849C391.545 417.884 390.637 417.547 389.952 416.912C389.268 416.277 388.864 415.396 388.829 414.463Z" fill="#030F1C"/>
</g>
</g>
<path d="M363.452 383.204L363.475 383.203L387.864 382.051C388.096 382.041 388.289 381.87 388.327 381.641C388.499 380.592 389.378 379.806 390.439 379.752L397.524 379.358C397.796 379.343 398.004 379.111 397.989 378.839C397.975 378.567 397.742 378.359 397.471 378.374L390.385 378.768C389.013 378.837 387.835 379.766 387.446 381.084L363.429 382.219C363.162 382.232 362.954 382.456 362.96 382.723C362.966 382.99 363.184 383.204 363.452 383.204Z" fill="#0B122D"/>
<path d="M338.038 424.556C338.064 424.556 338.09 424.554 338.115 424.55L385.879 417.1C386.053 417.074 386.2 416.956 386.264 416.791C386.328 416.626 386.299 416.44 386.188 416.303C386.077 416.165 385.901 416.098 385.727 416.126L337.963 423.576C337.709 423.615 337.528 423.844 337.548 424.101C337.567 424.357 337.781 424.555 338.038 424.556Z" fill="#0B122D"/>
<path d="M454 344.799L475.627 346.935L476.722 348.607L468.481 369.318L457.531 396.836L434.367 392.119L433.266 389.91L450.464 346.946C451.034 345.523 452.475 344.648 454 344.799Z" fill="url(#paint25_linear_10368_65401)"/>
<g style="mix-blend-mode:overlay" opacity="0.6">
<g style="mix-blend-mode:overlay" opacity="0.6">
<path d="M458.425 351.319L454.291 350.95C453.98 350.936 453.698 350.764 453.545 350.494C453.392 350.223 453.389 349.893 453.537 349.62C453.827 348.931 454.51 348.491 455.257 348.511L459.391 348.88C459.702 348.893 459.983 349.066 460.136 349.336C460.29 349.607 460.293 349.937 460.145 350.21C459.855 350.899 459.172 351.339 458.425 351.319Z" fill="#030F1C"/>
</g>
</g>
<g style="mix-blend-mode:overlay" opacity="0.6">
<g style="mix-blend-mode:overlay" opacity="0.6">
<path d="M454 344.799L475.627 346.935L476.722 348.607L455.026 346.8C453.516 346.674 452.101 347.551 451.54 348.959L434.367 392.119L443.455 393.969L434.367 392.119L433.266 389.91L450.464 346.946C451.034 345.523 452.475 344.648 454 344.799Z" fill="#030F1C"/>
</g>
</g>
<path d="M416.667 383.369L418.861 382.856C418.861 382.856 420.987 375.218 430.582 369.346C436.366 365.804 441.512 361.313 445.806 356.063C450.588 359.277 439.804 373.002 439.804 373.002C439.804 373.002 477.728 365.772 479.064 369.208C480.4 372.643 461.093 376.44 461.093 376.44C463.553 380.98 457.896 382.917 457.896 382.917C461.123 386.271 454.799 389.156 454.799 389.156C454.799 389.156 457.592 391.043 453.77 393.77C449.948 396.497 427.182 398.045 427.182 398.045L421.894 399.61L404.486 405.35C403.481 398.525 401.754 391.915 400.64 385.107L416.667 383.369Z" fill="#F2AC7D"/>
<path d="M452.932 377.56L460.175 376.736C460.405 376.71 460.57 376.502 460.544 376.272C460.518 376.042 460.31 375.877 460.08 375.903L452.837 376.728C452.607 376.754 452.442 376.962 452.468 377.191C452.495 377.421 452.702 377.587 452.932 377.56Z" fill="#030F1C"/>
<path d="M447.525 384.453L457.03 383.371C457.26 383.345 457.425 383.138 457.399 382.908C457.373 382.678 457.165 382.512 456.935 382.539L447.43 383.62C447.2 383.647 447.035 383.854 447.061 384.084C447.087 384.314 447.295 384.479 447.525 384.453Z" fill="#030F1C"/>
<path d="M447.348 390.327L453.735 389.6C453.965 389.574 454.13 389.367 454.104 389.137C454.078 388.907 453.87 388.741 453.641 388.768L447.253 389.495C447.023 389.521 446.858 389.728 446.884 389.958C446.91 390.188 447.118 390.354 447.348 390.327Z" fill="#030F1C"/>
<path d="M410.844 295.62L402.968 301.308L390.281 275.35L401.656 270.1L416.385 291.975L420.468 297.37L426.155 290.079L439.426 269.663L452.113 275.787L438.259 301.308L430.53 295.329L420.176 298.537L410.844 295.62Z" fill="url(#paint26_linear_10368_65401)"/>
<path d="M429.877 236.516C429.839 236.224 429.691 235.958 429.465 235.78C429.24 235.602 428.955 235.525 428.675 235.566C427.275 235.76 424.688 236.102 422.683 236.28C420.549 236.36 418.411 236.292 416.285 236.076C415.917 236.043 415.559 236.211 415.337 236.52C415.115 236.829 415.062 237.235 415.196 237.595C416.217 240.361 418.756 245.516 423.296 244.725C428.818 243.763 430.241 239.766 429.877 236.516Z" fill="#161B36"/>
<path d="M429.136 240.888C429.136 240.888 422.239 236.611 416.729 240.831C416.729 240.831 418.765 245.705 423.165 244.999C427.902 244.24 429.136 240.888 429.136 240.888Z" fill="#E55151"/>
<path d="M412.263 212.314C411.31 212.314 410.538 210.989 410.538 209.354C410.538 207.719 411.31 206.394 412.263 206.394C413.215 206.394 413.987 207.719 413.987 209.354C413.987 210.989 413.215 212.314 412.263 212.314Z" fill="#161B36"/>
<path d="M431.694 211.712C430.742 211.712 429.97 210.387 429.97 208.752C429.97 207.117 430.742 205.792 431.694 205.792C432.647 205.792 433.419 207.117 433.419 208.752C433.419 210.387 432.647 211.712 431.694 211.712Z" fill="#161B36"/>
<path d="M414.226 196C413.613 195.28 412.77 194.72 410.24 194.88C407.711 195.04 403.878 197.52 404.722 198.16C405.565 198.8 408.094 196.64 410.087 197.36C412.08 198.08 413.224 198.672 413.894 198.28C414.737 197.787 414.521 196.346 414.226 196Z" fill="#161B36"/>
<path d="M430.072 194.707C430.875 194.233 431.846 193.987 434.191 194.991C436.535 195.994 439.395 199.633 438.399 199.955C437.403 200.276 435.678 197.38 433.569 197.389C431.46 197.399 430.194 197.574 429.681 196.977C429.036 196.226 429.686 194.936 430.072 194.707Z" fill="#161B36"/>
<g style="mix-blend-mode:overlay" opacity="0.6">
<g style="mix-blend-mode:overlay" opacity="0.6">
<path d="M424.879 228.204C425.769 228.239 426.651 228.025 427.435 227.585C427.95 227.285 428.308 226.76 428.411 226.154C428.603 224.9 427.374 222.958 425.87 220.736C425.488 220.206 425.138 219.651 424.822 219.075C424.516 218.392 424.604 212.161 424.865 206.531L423.944 206.485C423.853 208.437 423.43 218.237 423.986 219.482C424.322 220.112 424.7 220.717 425.117 221.292C426.064 222.691 427.649 225.033 427.501 226.003C427.439 226.331 427.237 226.612 426.953 226.765C425.629 227.359 424.139 227.407 422.782 226.901L422.5 227.817C423.27 228.072 424.072 228.203 424.879 228.204Z" fill="#030F1C"/>
</g>
</g>
<g style="mix-blend-mode:overlay" opacity="0.6">
<g style="mix-blend-mode:overlay" opacity="0.6">
<path d="M402.634 248.914C407.991 253.953 422.54 261.339 437.876 250.574C432.826 261.438 418.706 276.314 402.634 248.914Z" fill="#030F1C"/>
</g>
</g>
<path d="M523.876 499.475L391.932 471.76L356.414 640.853L488.358 668.568L523.876 499.475Z" fill="#293242"/>
<path d="M509.313 568.351L511.857 556.241L379.913 528.527L377.37 540.636L509.313 568.351Z" fill="#F44336"/>
<path d="M463.965 486.891L451.855 484.347L416.338 653.44L428.448 655.984L463.965 486.891Z" fill="#F44336"/>
<path d="M528.284 482.564L394.687 454.502L391.903 467.757L525.5 495.819L528.284 482.564Z" fill="#293242"/>
<path d="M524.681 495.647L392.737 467.932L391.936 471.747L523.879 499.462L524.681 495.647Z" fill="#F44336"/>
<path d="M508.582 433.641C491.966 415.658 461.51 468.415 461.51 468.415L464.987 469.146C464.987 469.146 495.725 437.113 501.331 441.689C506.936 446.265 471.018 467.421 464.987 469.146L467.591 469.693C467.591 469.693 532.284 459.312 508.582 433.641Z" fill="#F44336"/>
<path d="M513.21 447.855C512.345 441.162 501.331 441.689 501.331 441.689C506.949 446.268 471.019 467.422 464.987 469.146L467.591 469.693C467.591 469.693 507.916 463.221 513.21 447.855Z" fill="#D87D6E"/>
<path d="M432.403 417.667C454.856 407.863 461.51 468.416 461.51 468.416L458.047 467.688C458.047 467.688 442.766 426.003 435.793 427.937C428.82 429.871 453.219 463.683 458.047 467.688L455.443 467.141C455.443 467.141 400.372 431.645 432.403 417.667Z" fill="#F44336"/>
<path d="M422.46 428.82C425.958 423.043 435.819 427.942 435.819 427.942C428.843 429.889 453.245 463.688 458.073 467.693L455.469 467.146C455.469 467.146 421.124 445.018 422.46 428.82Z" fill="#D87D6E"/>
<path d="M471.198 470.45C471.274 468.09 470.517 465.779 469.058 463.922C467.6 462.065 465.534 460.781 463.223 460.295C460.912 459.81 458.504 460.154 456.422 461.267C454.339 462.381 452.716 464.192 451.836 466.383L471.198 470.45Z" fill="#F44336"/>
<path d="M71.9417 446.178C65.6913 432.063 72.0667 415.554 86.1817 409.303L129.473 390.133C143.588 383.882 160.098 390.258 166.348 404.372L184.318 444.953C188.27 453.876 184.239 464.314 175.316 468.265C170.591 470.357 167.02 474.412 165.54 479.362L159.421 499.831C157.884 504.972 152.119 507.525 147.28 505.207L128.011 495.98C123.351 493.749 117.948 493.669 113.224 495.761C104.301 499.712 93.8632 495.682 89.9116 486.758L71.9417 446.178Z" fill="url(#paint27_linear_10368_65401)"/>
<path d="M129.682 417.964C124.677 420.181 121.375 424.637 120.614 429.678C116.369 426.853 110.851 426.303 105.846 428.52C97.9799 432.003 94.394 441.289 97.8773 449.155C104.157 463.338 136.764 466.148 136.764 466.148C136.764 466.148 156.651 440.235 150.318 425.933C146.834 418.067 137.548 414.481 129.682 417.964Z" fill="#F44336"/>
<path d="M459.334 170.152L425.551 85.543C425.426 85.2731 425.229 85.0433 424.981 84.8794C424.733 84.7155 424.444 84.624 424.147 84.6152C423.85 84.6064 423.556 84.6807 423.299 84.8296C423.041 84.9785 422.831 85.1962 422.69 85.4582L384.314 168.09C384.185 168.222 384.107 168.395 384.091 168.579C384.015 171.16 400.848 173.714 421.683 174.284C442.518 174.853 459.467 173.227 459.535 170.654C459.529 170.468 459.458 170.291 459.334 170.152Z" fill="url(#paint28_linear_10368_65401)"/>
<path d="M414.113 103.929C419.964 103.268 425.694 101.79 431.135 99.5378L428.753 93.5645C425.077 95.0968 421.253 96.246 417.341 96.9938L414.113 103.929Z" fill="url(#paint29_linear_10368_65401)"/>
<path d="M434.989 109.066C426.531 112.78 417.56 115.194 408.381 116.229L405.238 122.982C416.301 122.173 427.146 119.495 437.314 115.062L434.989 109.066Z" fill="url(#paint30_linear_10368_65401)"/>
<path d="M440.942 124.088C427.929 130.075 413.974 133.757 399.7 134.968L396.616 141.611C412.776 140.693 428.624 136.774 443.349 130.054L440.942 124.088Z" fill="url(#paint31_linear_10368_65401)"/>
<path d="M450.563 148.184L448.217 142.315C444.21 144.204 439.61 145.3 435.632 146.478C429.307 148.343 422.886 149.865 416.397 151.035C408.003 152.551 399.51 153.454 390.986 153.738L387.97 160.223C398.471 160.03 408.937 158.96 419.259 157.023C426.39 155.681 433.434 153.916 440.356 151.737C443.818 150.732 447.225 149.546 450.563 148.184Z" fill="url(#paint32_linear_10368_65401)"/>
<path d="M427.602 166.724C414.725 169.398 401.543 170.232 388.438 170.891C394.732 172.542 407.25 173.888 421.684 174.276L421.747 174.277C424.214 173.887 426.683 173.448 429.129 172.936C438.661 170.928 447.896 167.707 456.608 163.352L454.227 157.379C445.793 161.632 436.843 164.773 427.602 166.724Z" fill="url(#paint33_linear_10368_65401)"/>
<path d="M426.501 83.7557C426.489 84.2177 426.34 84.6657 426.073 85.043C425.806 85.4203 425.433 85.7099 425.002 85.8752C424.57 86.0404 424.099 86.0739 423.648 85.9713C423.198 85.8687 422.788 85.6347 422.47 85.2989C422.153 84.9632 421.942 84.5407 421.865 84.0851C421.787 83.6294 421.847 83.1611 422.036 82.7394C422.225 82.3177 422.535 81.9615 422.927 81.7161C423.318 81.4707 423.774 81.3469 424.236 81.3606C424.853 81.3789 425.439 81.6413 425.863 82.0902C426.288 82.5391 426.517 83.138 426.501 83.7557Z" fill="url(#paint34_linear_10368_65401)"/>
<path d="M310.362 206.593L266.153 120.858C265.994 120.587 265.763 120.365 265.485 120.217C265.207 120.07 264.893 120.003 264.579 120.023C264.265 120.044 263.963 120.153 263.707 120.336C263.451 120.519 263.251 120.77 263.129 121.06L231.087 212.049C230.965 212.202 230.9 212.392 230.902 212.588C231.084 215.316 249.085 216.296 271.101 214.777C293.117 213.258 310.815 209.821 310.625 207.102C310.599 206.907 310.506 206.727 310.362 206.593Z" fill="url(#paint35_linear_10368_65401)"/>
<path d="M255.969 141.399C262.069 140.107 267.957 137.967 273.463 135.04L270.344 128.987C266.626 130.976 262.713 132.576 258.667 133.761L255.969 141.399Z" fill="url(#paint36_linear_10368_65401)"/>
<path d="M278.493 144.689C269.956 149.463 260.748 152.92 251.179 154.944L248.553 162.381C260.13 160.403 271.288 156.478 281.554 150.772L278.493 144.689Z" fill="url(#paint37_linear_10368_65401)"/>
<path d="M286.294 159.916C273.188 167.55 258.855 172.849 243.935 175.577L241.36 182.892C258.298 180.281 274.601 174.539 289.437 165.959L286.294 159.916Z" fill="url(#paint38_linear_10368_65401)"/>
<path d="M298.885 184.333L295.816 178.387C291.785 180.785 287.048 182.407 282.976 184.053C276.499 186.662 269.887 188.919 263.167 190.812C254.475 193.264 245.616 195.079 236.66 196.245L234.142 203.387C245.189 202.115 256.11 199.923 266.792 196.832C274.171 194.693 281.416 192.116 288.488 189.115C292.035 187.704 295.505 186.108 298.885 184.333Z" fill="url(#paint39_linear_10368_65401)"/>
<path d="M276.571 206.208C263.272 210.336 249.464 212.554 235.72 214.582C242.521 215.681 255.85 215.827 271.102 214.768L271.169 214.764C273.73 214.101 276.287 213.387 278.813 212.599C288.654 209.514 298.059 205.18 306.799 199.704L303.68 193.651C295.225 198.991 286.112 203.212 276.571 206.208Z" fill="url(#paint40_linear_10368_65401)"/>
<path d="M266.973 118.878C267.007 119.366 266.895 119.853 266.652 120.278C266.41 120.703 266.046 121.046 265.608 121.264C265.17 121.482 264.677 121.565 264.192 121.503C263.706 121.441 263.25 121.236 262.882 120.914C262.513 120.593 262.248 120.169 262.12 119.696C261.992 119.224 262.007 118.724 262.164 118.261C262.32 117.797 262.61 117.39 262.998 117.092C263.386 116.793 263.854 116.617 264.342 116.584C264.995 116.541 265.638 116.757 266.131 117.187C266.624 117.617 266.927 118.225 266.973 118.878Z" fill="url(#paint41_linear_10368_65401)"/>
</g>
<defs>
<linearGradient id="paint0_linear_10368_65401" x1="372.811" y1="662.708" x2="372.811" y2="103.258" gradientUnits="userSpaceOnUse">
<stop stop-color="white" stop-opacity="0"/>
<stop offset="1" stop-color="#E3EFF9"/>
</linearGradient>
<linearGradient id="paint1_linear_10368_65401" x1="239.068" y1="458.944" x2="126.274" y2="265.014" gradientUnits="userSpaceOnUse">
<stop stop-color="#38B2AC"/>
<stop offset="0.697917" stop-color="#81E6D9"/>
<stop offset="1" stop-color="#B2F5EA"/>
</linearGradient>
<linearGradient id="paint2_linear_10368_65401" x1="269.842" y1="588.136" x2="32.5268" y2="405.864" gradientUnits="userSpaceOnUse">
<stop stop-color="#38B2AC"/>
<stop offset="0.411458" stop-color="#81E6D9"/>
<stop offset="0.755208" stop-color="#B2F5EA"/>
<stop offset="1" stop-color="#E6FFFA"/>
</linearGradient>
<linearGradient id="paint3_linear_10368_65401" x1="264.825" y1="450.191" x2="264.825" y2="837.094" gradientUnits="userSpaceOnUse">
<stop stop-color="#2D3748"/>
<stop offset="1" stop-color="#1A202C"/>
</linearGradient>
<linearGradient id="paint4_linear_10368_65401" x1="290.591" y1="195.48" x2="275.473" y2="312.309" gradientUnits="userSpaceOnUse">
<stop stop-color="#2D3748"/>
<stop offset="1" stop-color="#1A202C"/>
</linearGradient>
<linearGradient id="paint5_linear_10368_65401" x1="269.463" y1="305.597" x2="269.463" y2="477.171" gradientUnits="userSpaceOnUse">
<stop stop-color="#2D3748"/>
<stop offset="1" stop-color="#1A202C"/>
</linearGradient>
<linearGradient id="paint6_linear_10368_65401" x1="266.324" y1="267.913" x2="266.324" y2="508.538" gradientUnits="userSpaceOnUse">
<stop stop-color="#FFAEAE"/>
<stop offset="1" stop-color="#D93333"/>
</linearGradient>
<linearGradient id="paint7_linear_10368_65401" x1="221.27" y1="341.914" x2="166.843" y2="358.16" gradientUnits="userSpaceOnUse">
<stop stop-color="#030F1C"/>
<stop offset="1" stop-color="#030F1C" stop-opacity="0"/>
</linearGradient>
<linearGradient id="paint8_linear_10368_65401" x1="228.458" y1="399.263" x2="230.612" y2="417.461" gradientUnits="userSpaceOnUse">
<stop stop-color="#030F1C"/>
<stop offset="1" stop-color="#030F1C" stop-opacity="0"/>
</linearGradient>
<linearGradient id="paint9_linear_10368_65401" x1="307.407" y1="357.895" x2="293.569" y2="533.626" gradientUnits="userSpaceOnUse">
<stop offset="0.265984" stop-color="#030F1C"/>
<stop offset="1" stop-color="#030F1C" stop-opacity="0"/>
</linearGradient>
<linearGradient id="paint10_linear_10368_65401" x1="261.152" y1="250.337" x2="261.152" y2="252.566" gradientUnits="userSpaceOnUse">
<stop stop-color="#2D3748"/>
<stop offset="1" stop-color="#1A202C"/>
</linearGradient>
<linearGradient id="paint11_linear_10368_65401" x1="286.708" y1="250.337" x2="286.708" y2="252.566" gradientUnits="userSpaceOnUse">
<stop stop-color="#2D3748"/>
<stop offset="1" stop-color="#1A202C"/>
</linearGradient>
<linearGradient id="paint12_linear_10368_65401" x1="280.009" y1="217.502" x2="280.009" y2="251.028" gradientUnits="userSpaceOnUse">
<stop stop-color="#2D3748"/>
<stop offset="1" stop-color="#1A202C"/>
</linearGradient>
<linearGradient id="paint13_linear_10368_65401" x1="600.986" y1="499.237" x2="600.986" y2="655.496" gradientUnits="userSpaceOnUse">
<stop stop-color="#D1E6D3"/>
<stop offset="1" stop-color="#C6E2C9"/>
</linearGradient>
<linearGradient id="paint14_linear_10368_65401" x1="528.821" y1="444.671" x2="528.821" y2="655.496" gradientUnits="userSpaceOnUse">
<stop stop-color="#D1E6D3"/>
<stop offset="1" stop-color="#C6E2C9"/>
</linearGradient>
<linearGradient id="paint15_linear_10368_65401" x1="563.341" y1="410.039" x2="563.341" y2="608.686" gradientUnits="userSpaceOnUse">
<stop stop-color="#D1E6D3"/>
<stop offset="1" stop-color="#AED2B2"/>
</linearGradient>
<linearGradient id="paint16_linear_10368_65401" x1="421.057" y1="134.761" x2="421.057" y2="253.546" gradientUnits="userSpaceOnUse">
<stop stop-color="#2D3748"/>
<stop offset="1" stop-color="#1A202C"/>
</linearGradient>
<linearGradient id="paint17_linear_10368_65401" x1="425.433" y1="489.135" x2="425.433" y2="834.411" gradientUnits="userSpaceOnUse">
<stop stop-color="#2C5282"/>
<stop offset="1" stop-color="#2A4365"/>
</linearGradient>
<linearGradient id="paint18_linear_10368_65401" x1="491.703" y1="524.212" x2="491.703" y2="718.685" gradientUnits="userSpaceOnUse">
<stop stop-color="white"/>
<stop offset="1" stop-color="white" stop-opacity="0"/>
</linearGradient>
<linearGradient id="paint19_linear_10368_65401" x1="402.656" y1="612.704" x2="402.656" y2="796.402" gradientUnits="userSpaceOnUse">
<stop stop-color="white"/>
<stop offset="1" stop-color="white" stop-opacity="0"/>
</linearGradient>
<linearGradient id="paint20_linear_10368_65401" x1="436.944" y1="193.259" x2="436.944" y2="502.598" gradientUnits="userSpaceOnUse">
<stop stop-color="#81E6D9"/>
<stop offset="1" stop-color="#319795"/>
</linearGradient>
<linearGradient id="paint21_linear_10368_65401" x1="436.944" y1="193.259" x2="436.944" y2="502.598" gradientUnits="userSpaceOnUse">
<stop stop-color="#81E6D9"/>
<stop offset="1" stop-color="#319795"/>
</linearGradient>
<linearGradient id="paint22_linear_10368_65401" x1="356.566" y1="348.44" x2="380.149" y2="385.322" gradientUnits="userSpaceOnUse">
<stop stop-color="#030F1C"/>
<stop offset="1" stop-color="#030F1C" stop-opacity="0"/>
</linearGradient>
<linearGradient id="paint23_linear_10368_65401" x1="351.739" y1="438.454" x2="373.849" y2="510.946" gradientUnits="userSpaceOnUse">
<stop stop-color="#030F1C"/>
<stop offset="1" stop-color="#030F1C" stop-opacity="0"/>
</linearGradient>
<linearGradient id="paint24_linear_10368_65401" x1="393.209" y1="275.272" x2="384.028" y2="299.04" gradientUnits="userSpaceOnUse">
<stop stop-color="#030F1C"/>
<stop offset="1" stop-color="#030F1C" stop-opacity="0"/>
</linearGradient>
<linearGradient id="paint25_linear_10368_65401" x1="453.153" y1="344.81" x2="457.073" y2="396.87" gradientUnits="userSpaceOnUse">
<stop stop-color="#2C5282"/>
<stop offset="1" stop-color="#2A4365"/>
</linearGradient>
<linearGradient id="paint26_linear_10368_65401" x1="421.197" y1="269.663" x2="421.197" y2="301.308" gradientUnits="userSpaceOnUse">
<stop stop-color="#2D3748"/>
<stop offset="1" stop-color="#1A202C"/>
</linearGradient>
<linearGradient id="paint27_linear_10368_65401" x1="107.828" y1="399.718" x2="156.495" y2="509.62" gradientUnits="userSpaceOnUse">
<stop stop-color="#F7FAFC"/>
<stop offset="1" stop-color="#EDF2F7"/>
</linearGradient>
<linearGradient id="paint28_linear_10368_65401" x1="424.331" y1="84.6207" x2="421.675" y2="174.284" gradientUnits="userSpaceOnUse">
<stop stop-color="#FEB2B2"/>
<stop offset="1" stop-color="#F56565"/>
</linearGradient>
<linearGradient id="paint29_linear_10368_65401" x1="422.871" y1="93.3903" x2="422.552" y2="104.179" gradientUnits="userSpaceOnUse">
<stop stop-color="#BEE3F8"/>
<stop offset="1" stop-color="#90CDF4"/>
</linearGradient>
<linearGradient id="paint30_linear_10368_65401" x1="421.583" y1="108.669" x2="421.145" y2="123.454" gradientUnits="userSpaceOnUse">
<stop stop-color="#BEE3F8"/>
<stop offset="1" stop-color="#90CDF4"/>
</linearGradient>
<linearGradient id="paint31_linear_10368_65401" x1="420.348" y1="123.478" x2="419.791" y2="142.298" gradientUnits="userSpaceOnUse">
<stop stop-color="#BEE3F8"/>
<stop offset="1" stop-color="#90CDF4"/>
</linearGradient>
<linearGradient id="paint32_linear_10368_65401" x1="419.644" y1="141.469" x2="419.061" y2="161.144" gradientUnits="userSpaceOnUse">
<stop stop-color="#BEE3F8"/>
<stop offset="1" stop-color="#90CDF4"/>
</linearGradient>
<linearGradient id="paint33_linear_10368_65401" x1="422.839" y1="156.449" x2="422.311" y2="174.295" gradientUnits="userSpaceOnUse">
<stop stop-color="#BEE3F8"/>
<stop offset="1" stop-color="#90CDF4"/>
</linearGradient>
<linearGradient id="paint34_linear_10368_65401" x1="424.236" y1="81.3606" x2="424.098" y2="86.0285" gradientUnits="userSpaceOnUse">
<stop stop-color="#BEE3F8"/>
<stop offset="1" stop-color="#90CDF4"/>
</linearGradient>
<linearGradient id="paint35_linear_10368_65401" x1="264.773" y1="120.011" x2="271.093" y2="214.778" gradientUnits="userSpaceOnUse">
<stop stop-color="#BEE3F8"/>
<stop offset="1" stop-color="#90CDF4"/>
</linearGradient>
<linearGradient id="paint36_linear_10368_65401" x1="264.128" y1="129.401" x2="264.888" y2="140.804" gradientUnits="userSpaceOnUse">
<stop stop-color="#FEB2B2"/>
<stop offset="1" stop-color="#F56565"/>
</linearGradient>
<linearGradient id="paint37_linear_10368_65401" x1="264.324" y1="145.634" x2="265.366" y2="161.26" gradientUnits="userSpaceOnUse">
<stop stop-color="#FEB2B2"/>
<stop offset="1" stop-color="#F56565"/>
</linearGradient>
<linearGradient id="paint38_linear_10368_65401" x1="264.528" y1="161.368" x2="265.854" y2="181.259" gradientUnits="userSpaceOnUse">
<stop stop-color="#FEB2B2"/>
<stop offset="1" stop-color="#F56565"/>
</linearGradient>
<linearGradient id="paint39_linear_10368_65401" x1="265.616" y1="180.401" x2="267.002" y2="201.196" gradientUnits="userSpaceOnUse">
<stop stop-color="#FEB2B2"/>
<stop offset="1" stop-color="#F56565"/>
</linearGradient>
<linearGradient id="paint40_linear_10368_65401" x1="270.507" y1="195.863" x2="271.765" y2="214.725" gradientUnits="userSpaceOnUse">
<stop stop-color="#FEB2B2"/>
<stop offset="1" stop-color="#F56565"/>
</linearGradient>
<linearGradient id="paint41_linear_10368_65401" x1="264.342" y1="116.584" x2="264.671" y2="121.518" gradientUnits="userSpaceOnUse">
<stop stop-color="#FEB2B2"/>
<stop offset="1" stop-color="#F56565"/>
</linearGradient>
</defs>
</svg>
