<svg width="96" height="24" viewBox="0 0 96 24" fill="none" xmlns="http://www.w3.org/2000/svg">
<path d="M1.75488 0.523069C1.22693 0.630484 0.807912 0.954679 0.608882 1.41168C0.489463 1.689 0.497843 0.942963 0.502033 12.0652C0.508319 21.8146 0.510414 22.3048 0.54603 22.4161C0.678019 22.8321 0.975518 23.168 1.36729 23.3438C1.71926 23.502 1.36939 23.4883 5.2285 23.4941C7.12034 23.498 8.66859 23.4941 8.66859 23.4863C8.66859 23.4648 8.07988 21.422 8.06731 21.4064C8.06311 21.3966 6.86264 21.3908 5.39819 21.3908H2.73956V11.9969V2.603H7.63991C10.7448 2.603 12.6366 2.61082 12.8084 2.62253C14.9035 2.77487 16.8519 3.51896 18.4965 4.7923C18.8401 5.05791 19.5168 5.69263 19.7955 6.01097C21.1342 7.53626 21.8863 9.26075 22.0791 11.2352C22.0938 11.3797 22.1042 11.7235 22.1042 11.9969C22.1042 12.2703 22.0938 12.614 22.0791 12.7586C21.8842 14.7623 21.1216 16.4888 19.7431 18.0453C19.4833 18.3382 18.7689 18.9964 18.4421 19.2444C17.2709 20.135 15.9887 20.7482 14.5767 21.0959C13.8476 21.2736 12.821 21.4044 12.2847 21.3869L12.0961 21.381L10.8642 17.5434C10.1854 15.4322 9.61975 13.6433 9.60718 13.569C9.58204 13.4109 9.5967 13.1062 9.6386 12.9636C9.78526 12.4734 10.1645 12.077 10.6589 11.8934C10.8663 11.8172 11.0234 11.7938 11.2874 11.7957C11.587 11.7977 11.7798 11.8426 12.0479 11.9715C12.203 12.0457 12.2784 12.0984 12.4313 12.241C12.6513 12.4441 12.7644 12.6121 12.8587 12.8738C12.9341 13.0847 12.9614 13.3562 12.9237 13.571C12.9111 13.6472 12.6743 14.4108 12.3978 15.2681L11.895 16.8286L12.4648 18.4164C12.7791 19.2894 13.041 20.0041 13.0473 20.0041C13.0536 20.0041 13.5103 18.7191 14.0613 17.1489C14.7317 15.2428 15.0816 14.2174 15.113 14.0671C15.3183 13.1316 15.1193 12.1551 14.5641 11.3661C13.9649 10.5126 13.1101 9.96968 12.0312 9.75876C11.7819 9.70798 11.719 9.70408 11.2874 9.70408C10.793 9.70212 10.6778 9.71384 10.2923 9.80368C9.8502 9.90523 9.37043 10.1103 9.0038 10.3525C8.78382 10.497 8.39623 10.8368 8.22024 11.038C7.59801 11.7508 7.26909 12.7175 7.3487 13.6042C7.36127 13.7468 7.3906 13.946 7.41155 14.0495C7.44088 14.1842 10.2231 22.8965 10.4096 23.4356L10.4326 23.5H11.3985C12.8231 23.5 13.4768 23.4531 14.3986 23.2832C17.669 22.6817 20.512 20.8928 22.3535 18.2758C23.4074 16.7817 24.061 15.0904 24.2852 13.2761C24.3983 12.364 24.3795 11.284 24.2349 10.3388C24.0589 9.2002 23.6755 8.04208 23.1266 6.98747C21.3374 3.55216 17.8177 1.14998 13.7805 0.612907C12.932 0.499634 13.3092 0.505491 7.35917 0.501587C2.73537 0.497681 1.87011 0.499634 1.75488 0.523069Z" fill="#E53E3E"/>
<path d="M11.0885 4.82158C10.3698 4.88407 9.7518 5.2278 9.36421 5.78245C9.14423 6.09883 9.029 6.4367 9.01015 6.82339C8.99129 7.21594 9.06043 7.53233 9.23642 7.86434C9.51925 8.39555 10.0179 8.78224 10.6485 8.96387C10.8287 9.01465 10.858 9.0166 11.2665 9.0166C11.6751 9.0166 11.7044 9.01465 11.8825 8.96387C12.5173 8.78029 13.0033 8.40532 13.2862 7.87801C13.4726 7.53233 13.5418 7.22376 13.5229 6.82339C13.5041 6.4367 13.3888 6.09883 13.1688 5.78245C12.8357 5.30592 12.2931 4.96024 11.717 4.85869C11.5557 4.82939 11.2204 4.80986 11.0885 4.82158Z" fill="#E53E3E"/>
<path d="M28.9905 4.8826C28.1494 5.17049 27.6377 5.983 27.8269 6.74432C27.9181 7.12179 27.9882 7.23694 28.2966 7.54403C28.5699 7.82553 29.1447 8.05585 29.5722 8.05585C29.7124 8.05585 29.9788 8.01106 30.147 7.95988C31.6399 7.49285 31.7521 5.61193 30.3292 4.94018C30.0278 4.79943 29.3269 4.76744 28.9905 4.8826Z" fill="#E53E3E"/>
<path d="M60.419 4.85026C59.8653 5.0166 59.3817 5.43245 59.2415 5.87389C59.0242 6.52005 59.2415 7.26858 59.7601 7.65884C60.9377 8.54172 62.683 7.80599 62.676 6.42409C62.676 5.53481 61.9891 4.86945 61.0148 4.81827C60.7835 4.80548 60.5171 4.81827 60.419 4.85026Z" fill="#E53E3E"/>
<path d="M53.4662 9.39906C52.9475 9.5654 52.3868 9.86609 52.0714 10.1476L51.8121 10.3715L51.763 10.1732C51.6298 9.61018 51.041 9.36707 49.8775 9.41185C48.7771 9.45024 48.4196 9.66776 48.2935 10.3907C48.2093 10.8769 48.2023 17.9783 48.2935 18.3174C48.3776 18.6565 48.5598 18.874 48.8962 19.0276C49.1275 19.1363 49.3098 19.1555 50.0457 19.1555C51.006 19.1555 51.3424 19.066 51.6018 18.7397C51.8261 18.4582 51.8681 17.94 51.8681 15.6048V13.3208L52.0714 13.0649C52.506 12.5147 53.3821 12.3228 54.2302 12.5979C54.7769 12.7706 55.2886 12.7642 55.59 12.5787C56.1157 12.2588 56.5783 11.0561 56.4241 10.3843C56.2979 9.8405 56.0175 9.60378 55.2676 9.42465C54.6087 9.26471 53.9078 9.25191 53.4662 9.39906Z" fill="#E53E3E"/>
<path d="M67.0499 9.40535C66.5453 9.47572 66.2509 9.62287 66.0617 9.91077C65.9285 10.1219 65.9215 10.2562 65.9004 12.4379C65.8864 13.9989 65.9004 14.8946 65.9565 15.2208C66.307 17.2489 67.877 18.7971 69.9027 19.1106C71.0382 19.2898 71.8302 19.0786 72.6643 18.3941L73.0848 18.0422L73.1269 18.3045C73.211 18.8739 73.6456 19.1362 74.5778 19.1746C75.7133 19.2258 76.3511 18.9827 76.5263 18.4325C76.6385 18.0934 76.6455 10.5058 76.5333 10.1411C76.3651 9.58449 75.8815 9.37976 74.788 9.37976C73.8769 9.38616 73.4843 9.52051 73.246 9.91077L73.0708 10.1987L73.0358 12.5018C73.0077 14.0501 72.9727 14.8626 72.9166 14.9713C72.7834 15.24 72.4049 15.5983 72.0965 15.7455C71.8792 15.8542 71.676 15.8862 71.2835 15.8862C70.6246 15.8926 70.3162 15.7966 69.9587 15.464C69.4891 15.0417 69.4611 14.8626 69.4611 12.5594C69.4611 10.269 69.426 10.0067 69.0686 9.72523C68.6901 9.41815 67.863 9.29019 67.0499 9.40535Z" fill="#E53E3E"/>
<path d="M85.3017 9.37319C84.6779 9.47555 84.0401 9.82742 83.6125 10.32C83.3251 10.6463 83.3111 10.6399 83.234 10.2177C83.1289 9.62909 82.5471 9.37319 81.3906 9.41157C80.5355 9.43716 80.2271 9.55872 79.9748 9.97457L79.7995 10.2625L79.7785 13.9539C79.7575 17.7925 79.7925 18.4387 80.0308 18.733C80.2972 19.0657 80.5775 19.1552 81.4257 19.1808C82.6873 19.2128 83.1709 18.9889 83.3321 18.2916C83.3812 18.0932 83.4092 17.14 83.4092 15.8668C83.4092 13.5637 83.4513 13.2822 83.8088 12.9687C84.4256 12.4313 85.3998 12.6168 85.7363 13.3333C85.7994 13.4741 85.8344 14.1778 85.8624 15.9244C85.8975 17.7861 85.9255 18.3683 86.0026 18.5155C86.276 19.0529 86.7106 19.2128 87.811 19.1744C88.7432 19.1488 89.0376 19.0337 89.2969 18.6114L89.4722 18.3235L89.5072 15.8924C89.5423 13.6212 89.5493 13.4421 89.6824 13.2118C89.8787 12.8599 90.131 12.7128 90.5726 12.6744C91.2315 12.6296 91.7081 12.9303 91.8833 13.5253C91.9324 13.6852 91.9604 14.5617 91.9604 15.8732C91.9604 18.234 91.9955 18.5283 92.3389 18.8418C92.6473 19.1232 93.0398 19.2064 93.923 19.1744C94.8272 19.1488 95.1496 19.0273 95.3598 18.6434C95.493 18.4003 95.5 18.2596 95.5 15.6685C95.5 12.668 95.465 12.3481 95.0374 11.414C94.5258 10.2945 93.5234 9.58431 92.1847 9.39878C91.1824 9.25163 90.1591 9.62269 89.2268 10.4736L88.7082 10.947L88.596 10.7999C88.3928 10.4992 87.79 9.96177 87.4886 9.80183C86.9348 9.50114 85.8484 9.29002 85.3017 9.37319Z" fill="#E53E3E"/>
<path d="M28.682 9.48862C28.2614 9.58459 28.0722 9.71894 27.911 10.0388C27.8058 10.2372 27.7918 10.6914 27.7708 13.999C27.7498 17.8632 27.7778 18.4326 28.0231 18.7397C28.3105 19.0915 28.5488 19.1555 29.5441 19.1555C30.6586 19.1555 30.9249 19.066 31.1772 18.6117L31.3314 18.3302V14.2997C31.3314 10.3651 31.3314 10.2627 31.1842 10.0004C30.974 9.59738 30.5955 9.45024 29.7263 9.42465C29.3198 9.41185 28.9063 9.43744 28.682 9.48862Z" fill="#E53E3E"/>
<path d="M38.1724 9.50155C36.4972 9.87261 34.9201 11.3441 34.4015 13.0267C34.2122 13.6536 34.1912 14.7732 34.3664 15.4258C34.8781 17.3387 36.7846 18.9829 38.7051 19.162C39.6513 19.2516 40.7097 18.9637 41.2564 18.4711L41.5508 18.2152L41.5999 18.4135C41.6629 18.695 41.9784 18.9701 42.3428 19.0661C42.5111 19.1109 42.9807 19.1492 43.3872 19.1492C44.3054 19.1556 44.6909 19.0213 44.9012 18.6374C45.0273 18.4007 45.0343 18.2088 45.0343 14.2934C45.0343 10.2821 45.0343 10.1925 44.8872 9.94299C44.6699 9.55913 44.3545 9.43757 43.4433 9.41198C42.8755 9.39279 42.6162 9.41198 42.3428 9.49515C41.9503 9.61031 41.6489 9.88541 41.5858 10.1733C41.5368 10.4036 41.4877 10.4036 41.3055 10.1797C41.1232 9.95578 40.4504 9.62311 39.9177 9.49515C39.413 9.37999 38.7261 9.37999 38.1724 9.50155ZM40.3382 12.7836C40.913 13.0203 41.3475 13.66 41.3545 14.2742C41.3545 14.8628 41.0812 15.3362 40.5345 15.6625C39.2308 16.4494 37.4364 15.2403 37.871 13.8712C38.0112 13.4425 38.4528 12.9499 38.8663 12.7836C39.2378 12.6236 39.9597 12.6236 40.3382 12.7836Z" fill="#E53E3E"/>
<path d="M60.0479 9.48862C59.6064 9.59738 59.361 9.77011 59.2559 10.0452C59.1368 10.3459 59.1157 18.1703 59.2349 18.4902C59.4311 19.0084 59.8657 19.1875 60.9381 19.1875C61.9474 19.1811 62.3259 19.034 62.5782 18.5477C62.6834 18.343 62.6974 17.9208 62.6974 14.2933C62.6974 10.3267 62.6974 10.2563 62.5502 10.0068C62.3259 9.61017 61.9124 9.45023 61.0643 9.42464C60.6297 9.40545 60.2582 9.43104 60.0479 9.48862Z" fill="#E53E3E"/>
</svg>
