<svg width="103" height="125" viewBox="0 0 103 125" fill="none" xmlns="http://www.w3.org/2000/svg">
<path d="M102.239 45.8299C102.239 70.7546 81.7918 90.9601 56.5695 90.9601C31.3471 90.9601 10.9004 70.7546 10.9004 45.8299C10.9004 20.9052 31.3471 0.699707 56.5695 0.699707C81.7918 0.699707 102.239 20.9052 102.239 45.8299Z" fill="url(#paint0_linear_5104_54805)"/>
<path d="M48.1332 74.0071C45.6894 77.0315 13.4084 61.8805 9.81298 43.1987C9.33586 40.7179 8.26355 35.1434 11.6584 31.2625C13.4375 29.2382 16.7191 27.3348 20.2094 27.7623C21.2025 27.8833 23.0301 28.293 25.1003 30.0479C31.0296 35.0676 31.0846 44.4327 33.3489 52.1202C37.7707 67.0938 49.5969 72.1973 48.1332 74.0071Z" fill="url(#paint1_linear_5104_54805)"/>
<path opacity="0.7" d="M38.8066 67.071C32.7783 62.5897 27.659 57.0064 23.7215 50.6184C21.4224 46.8679 19.5544 42.8709 18.1529 38.7031" stroke="white" stroke-width="1.09574" stroke-miterlimit="10"/>
<path d="M42.2981 70.0441C34.7338 72.0503 24.909 77.7804 14.1269 72.2345C13.0114 71.6617 3.2304 66.4603 3.14892 58.0766C3.14154 57.1636 3.21485 53.0647 6.26515 50.2033C8.86864 47.7548 13.2491 46.5678 16.7681 47.853C23.6332 50.3493 22.1233 60.3529 31.156 67.4244C33.8596 69.5349 39.8279 69.9941 42.2981 70.0441Z" fill="url(#paint2_linear_5104_54805)"/>
<path opacity="0.7" d="M42.2986 70.0397C42.2986 70.0397 30.0483 74.0387 21.4474 69.9608C13.0613 65.9843 11.2508 58.0322 11.2508 58.0322" stroke="white" stroke-width="1.39552" stroke-miterlimit="10"/>
<path fill-rule="evenodd" clip-rule="evenodd" d="M50.0377 110.213L50.243 118.683C50.243 118.683 51.6222 122.367 51.6213 122.726C51.6177 124.086 47.0701 123.963 46.9028 122.795C46.8774 122.618 47.2762 118.839 47.2762 118.839L46.2925 110.513L50.0377 110.213ZM31.3363 114.025L34.4349 114.514C34.4349 114.514 34.4175 118.732 34.4305 119.157C34.4342 119.279 34.4566 119.522 34.485 119.831C34.589 120.961 34.7743 122.974 34.4291 123.193C33.9415 123.503 32.8231 123.482 31.8154 123.464C31.3086 123.454 30.8298 123.446 30.4733 123.48C30.1806 123.508 29.8327 123.558 29.445 123.615C27.8276 123.85 25.5163 124.187 23.6141 123.393C23.5634 122.655 24.2187 122.225 25.5032 122.114C27.7643 121.918 29.2659 121.201 30.3653 119.564C31.1466 118.401 31.3363 114.025 31.3363 114.025Z" fill="#F2AC7D"/>
<path fill-rule="evenodd" clip-rule="evenodd" d="M50.5806 122.228C50.7269 122.886 47.8285 122.683 47.7981 122.421C47.7481 121.99 47.7782 121.361 47.8139 120.613C47.8508 119.842 47.8937 118.945 47.8615 118.005C47.8498 117.663 49.5845 117.595 49.6112 118.005C49.7177 119.639 50.1018 120.762 50.3625 121.524C50.4587 121.805 50.5381 122.038 50.5806 122.228ZM51.347 120.997C51.7245 121.753 52.1279 122.561 52.2606 123.265C52.3025 123.43 52.3176 123.602 52.3055 123.772L52.3055 123.773L52.3055 123.775L52.3052 123.775C52.3037 123.939 52.1697 124.072 52.005 124.072H46.7738C46.6515 124.072 46.5414 123.998 46.4955 123.885L46.4902 123.885L46.4901 123.867C46.4793 123.837 46.4736 123.804 46.4733 123.772C46.4733 123.772 46.4958 123.177 46.5643 122.602C46.618 122.061 46.708 121.343 46.8578 120.398C46.8954 120.037 47.0193 119.69 47.219 119.387C47.1098 120.441 46.8836 122.66 46.9029 122.795C47.0702 123.963 51.6178 124.086 51.6214 122.726C51.6221 122.443 50.7687 120.104 50.4047 119.119C50.5434 119.3 50.6955 119.629 50.8751 120.017C50.9545 120.189 51.0393 120.373 51.1306 120.56C51.2003 120.703 51.2731 120.849 51.347 120.997ZM25.91 122.331C27.7655 122.195 30.3849 120.916 30.9306 119.528C31.4764 118.141 30.6851 118.005 30.6851 118.005C29.5391 122.032 24 121.95 24 121.95C23.9454 122.277 24.0546 122.467 25.91 122.331ZM33.4683 119.773C33.9048 118.113 34.778 118.249 34.778 118.249C34.5047 119.346 34.6534 120.266 34.7739 121.011C34.8259 121.332 34.8726 121.621 34.878 121.878C34.8996 122.313 34.866 122.748 34.778 123.175V124.073H31.1226V123.623C30.3795 123.623 29.4683 123.734 28.5488 123.845C27.6124 123.959 26.6675 124.073 25.8827 124.073C24.9909 124.064 24.1069 123.906 23.2678 123.605C23.2168 123.586 23.176 123.547 23.1553 123.497C23.1346 123.447 23.1358 123.39 23.1588 123.341V123.341C23.2024 123.248 23.3114 123.205 23.4072 123.243C25.1787 123.922 27.0724 123.679 28.8023 123.393C29.8058 123.252 30.8177 123.179 31.8311 123.175C32.5678 122.685 33.0317 121.433 33.4683 119.773Z" fill="url(#paint3_linear_5104_54805)"/>
<path fill-rule="evenodd" clip-rule="evenodd" d="M30.74 119.23V118.711C30.74 118.667 30.7763 118.63 30.8211 118.63H34.0689V119.311H30.8211C30.7763 119.311 30.74 119.274 30.74 119.23ZM30.048 120.039L30.3194 119.78C30.3422 119.759 30.3736 119.748 30.4049 119.752C30.4362 119.756 30.464 119.774 30.4805 119.801C31.3825 121.31 31.1324 123.22 31.1324 123.22L30.6409 123.243C30.7897 121.435 30.2107 120.432 30.0331 120.171C30.0051 120.129 30.0114 120.074 30.048 120.039ZM51.0201 120.495C50.726 120.088 50.2634 119.836 49.7615 119.809L49.8328 120.112C50.3816 120.095 50.9278 120.583 51.085 120.724L51.085 120.724L51.0851 120.724C51.1098 120.746 51.1249 120.759 51.1288 120.761C51.1577 120.772 51.0201 120.495 51.0201 120.495ZM48.1281 119.809V120.112C47.5753 120.095 47.1441 120.583 47.0199 120.724C47.0004 120.746 46.9884 120.759 46.9848 120.761C46.9586 120.772 47.0308 120.495 47.0308 120.495C47.2455 120.085 47.665 119.823 48.1281 119.809ZM46.9195 121.413C46.9195 121.413 46.8345 121.739 46.8654 121.726C47.1954 121.305 47.6788 121.031 48.2105 120.963V120.607C48.2105 120.607 47.3209 120.604 46.9195 121.413ZM46.831 122.298C46.831 122.298 46.7401 122.647 46.7732 122.633C46.7776 122.631 46.791 122.614 46.813 122.586L46.813 122.586C46.9553 122.405 47.4569 121.767 48.2105 121.817V121.437C47.6388 121.487 47.1257 121.807 46.831 122.298ZM51.6446 122.298C50.8857 121.443 50.0622 121.437 50.0622 121.437L50.1518 121.817C50.8936 121.767 51.5453 122.405 51.7303 122.586C51.7589 122.614 51.7763 122.631 51.7812 122.633C51.8176 122.647 51.6446 122.298 51.6446 122.298ZM49.8668 120.607C50.457 120.639 51.0009 120.936 51.3477 121.413C51.3477 121.413 51.5095 121.739 51.4755 121.726C51.062 121.316 50.5276 121.048 49.9507 120.963L49.8668 120.607ZM28.8565 121.03L28.521 121.185C28.4829 121.203 28.4661 121.248 28.4832 121.287C28.7537 121.954 28.8631 122.675 28.8027 123.393L29.3396 123.339C29.3396 123.339 29.3739 121.926 28.9594 121.065C28.9405 121.027 28.8947 121.012 28.8565 121.03ZM26.821 121.862L27.0992 121.748C27.1254 121.737 27.155 121.738 27.1804 121.75C27.2058 121.763 27.2247 121.785 27.2324 121.813C27.4059 122.407 27.4996 123.021 27.5112 123.64L26.9702 123.697C26.9786 123.117 26.909 122.54 26.7634 121.979C26.75 121.931 26.7748 121.88 26.821 121.862ZM25.5838 122.114H25.1645C25.1452 122.114 25.1267 122.121 25.1131 122.135C25.0995 122.148 25.0918 122.167 25.0918 122.186V123.648L25.6565 123.697V122.186C25.6565 122.167 25.6488 122.148 25.6352 122.135C25.6216 122.121 25.6031 122.114 25.5838 122.114Z" fill="url(#paint4_linear_5104_54805)"/>
<path d="M50.7592 77.0354C51.2035 74.661 51.8171 70.8064 51.2761 67.2402C50.5886 62.7087 49.3165 61.6089 48.5304 57.3025C43.7787 55.2528 37.4561 55.118 32.5029 57.6638C30.7617 70.9414 29.8168 81.7883 29.7677 83.6443C29.7312 85.026 27.8298 110.679 26.7353 116.411C26.4527 117.891 35.0485 117.519 35.7859 116.546C36.748 115.277 38.6622 93.2126 39.2808 87.3455C39.9041 84.5637 40.6034 77.0074 40.6034 77.0074C40.6034 77.0074 40.8182 79.5651 41.7601 85.341C43.11 93.6187 45.1175 117.389 45.1175 117.389C45.3524 117.519 50.6317 117.792 51.488 116.937C52.7587 115.67 50.0589 80.7782 50.7592 77.0354Z" fill="url(#paint5_linear_5104_54805)"/>
<g style="mix-blend-mode:overlay" opacity="0.6">
<path d="M30.4276 75.6787C30.4276 75.6787 31.8642 76.2857 31.9318 78.3088C31.9995 80.3319 31.5095 91.9313 31.1797 96.7194C30.8499 101.508 29.8762 103.326 28.1992 103.529L30.4276 75.6787Z" fill="white"/>
</g>
<g style="mix-blend-mode:overlay" opacity="0.6">
<path d="M41.3457 82.7104C42.0034 83.0932 42.8179 83.7041 43.2912 86.0644C43.7645 88.4247 46.0407 100.901 45.4098 102.924C44.7789 104.947 43.99 104.945 43.99 104.945C43.99 104.945 42.5105 88.8339 41.3457 82.7104Z" fill="white"/>
</g>
<g style="mix-blend-mode:overlay" opacity="0.6">
<path d="M40.6036 77.0077L38.3947 67.708C38.3947 67.708 36.5498 71.8786 36.7495 75.1147C36.9492 78.3508 38.474 80.956 39.6036 85.5608L40.6036 77.0077Z" fill="#030F1C"/>
</g>
<g style="mix-blend-mode:overlay" opacity="0.6">
<path d="M32.5039 57.664L32.2051 59.9795C32.2051 59.9795 38.3207 63.4628 49.6718 61.6677C49.6718 61.6677 48.6876 58.7325 48.5314 57.3027L32.5039 57.664Z" fill="#030F1C"/>
</g>
<path d="M47.7949 21.6667C47.4459 18.3213 47.1844 15.1606 40.9446 14.8165C38.2165 14.6661 36.5084 15.7087 35.5855 17.0148L35.5848 17.0136C35.5848 17.0136 33.8246 16.7566 33.9398 22.5864C34.0168 26.4806 33.3224 27.5115 31.5328 30.359C32.5538 32.0314 34.9002 32.7274 36.7985 33.0154C40.6856 33.7397 41.0836 33.9492 43.9961 33.6038C43.9961 33.6038 48.4 33.4927 51.9303 29.3342C49.3464 27.7031 48.0103 23.7313 47.7949 21.6667Z" fill="url(#paint6_linear_5104_54805)"/>
<path d="M34.0925 34.1201C34.0925 34.1201 33.1948 34.4478 33.0286 35.7439C32.4686 40.1114 31.4162 43.3663 31.3017 44.7018C31.1471 46.5058 31.6529 47.3267 32.1862 48.6723C32.7217 50.0233 33.0433 53.1539 32.3271 57.9018C32.2723 58.2475 32.407 58.596 32.6804 58.8153C35.3095 60.8767 45.8607 60.1414 48.4355 58.413C48.704 58.2275 48.8311 57.8967 48.7556 57.5797C48.2833 55.4974 47.1957 50.8629 48.1309 46.2411C49.0121 41.8856 48.8859 33.7178 48.3528 33.5208C47.4045 33.1705 45.4713 32.6714 45.4713 32.6714C45.4713 32.6714 43.6541 35.5288 39.5515 35.7831C36.5744 35.9677 36.7442 33.2173 36.7442 33.2173L34.0925 34.1201Z" fill="url(#paint7_linear_5104_54805)"/>
<path fill-rule="evenodd" clip-rule="evenodd" d="M35.7222 33.5529L37.6186 32.9025C37.6186 32.9025 37.3765 33.0584 37.0212 33.3233C36.8954 34.7574 36.1558 43.2935 36.1558 45.6558C36.1558 46.1557 36.2957 47.8338 36.482 50.0668C36.8526 54.5089 37.4063 61.147 37.4058 65.075C35.0291 65.0342 32.5811 64.1209 31.5951 63.348C31.3218 63.1286 31.187 62.7801 31.2419 62.4344C31.3797 61.521 31.5435 60.5658 31.7098 59.5963C32.4077 55.5268 33.1487 51.2063 32.1862 48.6722C32.0955 48.4335 32.0045 48.2116 31.9169 47.998C31.5081 47.0013 31.1743 46.1875 31.3017 44.7018C31.3131 44.5684 31.3248 44.4177 31.3377 44.2498C31.3851 43.6382 31.45 42.7981 31.5861 41.7362C29.38 41.9659 26.4971 42.1613 24.0318 41.983C22.3557 41.8618 21.1379 40.7612 20.8153 39.0739C20.8153 39.0739 19.2772 31.3519 18.5059 27.4728C20.7475 27.9887 22.4091 26.6543 22.4091 26.6543L25.7061 36.0312L32.0808 34.8018L33.9392 34.1645C33.994 34.1348 34.0509 34.1089 34.1093 34.087L35.7222 33.5529ZM52.3149 36.0823C54.4453 37.8568 58.4025 41.984 60.0152 43.8555C60.7433 44.7003 60.6995 46.5259 59.9667 48.2751C59.4064 49.6123 56.5486 55.6983 55.7044 57.3789C54.893 55.8953 53.5398 55.3572 52.2764 55.5291C52.4036 55.1649 52.6327 54.5107 52.8894 53.7776C53.452 52.1709 54.1474 50.1851 54.1952 50.041C54.9683 47.7108 55.2027 46.9232 54.9506 46.6623C54.7202 46.425 52.8091 45.0637 50.9462 43.7368C50.1161 43.1455 49.2956 42.561 48.6376 42.0859C48.5559 43.4801 48.3867 44.8679 48.1307 46.241C47.1956 50.8628 49.611 59.5057 50.2601 61.5401C50.2841 61.6153 50.312 61.6914 50.3403 61.7683C50.4963 62.1927 50.6616 62.6424 50.222 63.1154C49.3872 64.0137 47.38 64.2054 44.995 64.4332C43.9511 64.5329 42.8349 64.6395 41.713 64.8153C41.7929 62.8904 41.7603 56.9511 41.7323 51.8515C41.7132 48.3781 41.6963 45.2943 41.7185 44.134C42.4343 36.8878 44.8241 32.4979 44.8241 32.4979C44.8241 32.4979 46.6025 32.9614 47.749 33.3193C48.9706 33.5994 50.4712 34.5466 52.3149 36.0823Z" fill="url(#paint8_linear_5104_54805)"/>
<g style="mix-blend-mode:overlay" opacity="0.6">
<path d="M32.1785 38.2686C31.4667 38.6258 30.8454 39.1396 30.3616 39.7711C29.0899 41.3962 27.4949 40.9877 26.331 41.0523C25.167 41.1167 24.7135 41.4767 24.3906 42.0061C26.7942 42.0719 29.1995 41.9706 31.5889 41.7028C31.7134 40.7384 31.8971 39.5915 32.1785 38.2686Z" fill="url(#paint9_linear_5104_54805)"/>
</g>
<g style="mix-blend-mode:overlay" opacity="0.6">
<path d="M30.6256 36.1555C29.7705 36.4292 27.2772 36.9702 25.6918 37.3042C24.9219 37.4665 24.161 36.9931 23.9685 36.2322L23.1523 31.2052C23.0856 30.6019 23.616 30.0894 23.616 30.0894L25.7052 36.0312L32.0799 34.8018C31.8346 35.2826 31.3821 35.9133 30.6256 36.1555Z" fill="white"/>
</g>
<path d="M23.7914 38.7541C23.7886 38.7541 23.7858 38.7539 23.783 38.7536C23.7659 38.7514 23.7504 38.7424 23.74 38.7288C23.7295 38.7152 23.7249 38.698 23.7271 38.681C23.7876 38.2208 24.0209 37.7625 24.4403 37.2798C24.6142 37.0797 24.8048 36.8907 24.989 36.708C25.1677 36.5308 25.3525 36.3476 25.5201 36.1559C25.5436 36.129 25.5846 36.1263 25.6116 36.1497C25.6386 36.1732 25.6414 36.2141 25.6178 36.241C25.4472 36.4361 25.2608 36.6209 25.0804 36.7997C24.8978 36.9807 24.7089 37.1681 24.5383 37.3644C24.136 37.8274 23.9128 38.2635 23.8556 38.6979C23.8514 38.73 23.8239 38.7541 23.7914 38.7541Z" fill="#0B122D"/>
<g style="mix-blend-mode:overlay" opacity="0.6">
<path d="M31.7559 47.627C31.7559 47.627 33.0496 48.8169 34.3813 48.8415C35.2908 48.8584 35.4844 49.35 34.5465 49.5511C34.1111 49.6445 33.3024 49.5693 32.4422 49.5462C32.2688 48.8881 32.0391 48.246 31.7559 47.627H31.7559Z" fill="url(#paint10_linear_5104_54805)"/>
</g>
<g style="mix-blend-mode:overlay" opacity="0.6">
<path d="M47.9197 48.4645C47.8789 46.5226 48.4851 45.6172 48.6023 42.0603C47.963 41.5984 47.4822 41.243 47.3048 41.0914C47.2774 41.0679 47.2518 41.0449 47.2247 41.0215C47.3023 42.6691 47.3149 44.9313 46.9219 46.2409C46.4654 47.7616 44.6506 48.5376 43.4225 48.7479C41.546 49.0691 41.793 49.8381 44.3979 49.7763C46.0027 49.7383 46.5271 52.8968 46.5161 54.796C46.4856 60.0664 42.475 63.1127 41.7129 64.8152C45.1375 64.2002 48.7757 64.5921 50.222 63.1153C50.222 63.1153 50.7923 62.746 50.26 61.5399C49.995 60.9395 48.0535 54.8308 47.9197 48.4645Z" fill="url(#paint11_linear_5104_54805)"/>
</g>
<path d="M31.2302 45.0945C31.1906 45.0944 31.1576 45.0641 31.1544 45.0247C31.1123 44.5161 31.7297 40.3299 31.756 40.1519C31.7621 40.1103 31.8009 40.0816 31.8426 40.0877C31.8843 40.0939 31.9131 40.1326 31.907 40.1742C31.9004 40.2176 31.2657 44.5209 31.3063 45.0122C31.308 45.0323 31.3016 45.0522 31.2885 45.0676C31.2755 45.083 31.2568 45.0926 31.2366 45.0942C31.2345 45.0943 31.2324 45.0945 31.2302 45.0945Z" fill="#0B122D"/>
<path d="M47.6881 41.4173C47.6782 41.4173 47.6684 41.415 47.6595 41.4107C45.6344 40.4181 45.2098 37.6564 45.2058 37.6286C45.2006 37.5933 45.2252 37.5605 45.2606 37.5553C45.2959 37.5506 45.3285 37.5748 45.3341 37.6099C45.338 37.6371 45.7534 40.3323 47.7168 41.2948C47.7438 41.308 47.758 41.3381 47.7512 41.3674C47.7444 41.3966 47.7183 41.4173 47.6881 41.4173V41.4173Z" fill="#0B122D"/>
<g style="mix-blend-mode:overlay" opacity="0.6">
<path d="M56.124 47.0218C56.0352 48.1462 55.6956 49.2365 55.1299 50.2131C55.0247 50.3919 54.4653 50.8558 53.9734 50.7089C54.9223 47.8569 55.2515 46.9194 54.9508 46.6624C54.1258 45.9574 51.0485 43.8095 49.8438 42.9508C50.1432 42.7491 50.7468 42.502 51.3574 42.8059C52.3621 43.3075 56.2549 45.6294 56.124 47.0218Z" fill="white"/>
</g>
<path d="M56.6117 47.9207C56.5795 47.9206 56.5522 47.8969 56.5477 47.865C56.5416 47.8225 56.3855 46.8213 55.202 46.7591C55.1663 46.7571 55.1388 46.7268 55.1407 46.6911C55.1414 46.6739 55.149 46.6578 55.1618 46.6462C55.1747 46.6347 55.1916 46.6289 55.2088 46.63C55.9275 46.6317 56.5435 47.1427 56.676 47.8472C56.6809 47.8825 56.6562 47.9151 56.6209 47.9201C56.6178 47.9205 56.6148 47.9207 56.6117 47.9207Z" fill="#0B122D"/>
<path fill-rule="evenodd" clip-rule="evenodd" d="M22.4576 20.8689C22.2683 20.995 22.1189 21.1588 21.9882 21.3023C21.7557 21.5573 21.5819 21.7478 21.3474 21.5474C21.3044 21.5107 21.2354 21.3835 21.1993 21.0386C21.1995 20.8821 21.2004 18.3775 21.087 18.157C20.9698 17.9293 20.5992 17.7846 20.4635 18.1751C20.3664 18.4546 20.3789 19.8371 20.3938 20.6009C20.3519 20.6132 20.3089 20.6262 20.2649 20.6397C20.1263 19.7486 19.7998 17.7112 19.6876 17.5461C19.5437 17.3342 19.1582 17.2354 19.0709 17.6395C19.0008 17.9639 19.305 20.0945 19.4276 20.9216C19.3922 20.9344 19.357 20.9474 19.3218 20.9606C19.083 19.9903 18.6817 18.4078 18.5705 18.2707C18.4093 18.0716 18.0168 18.0054 17.9639 18.4152C17.9268 18.7022 18.2886 20.3335 18.5091 21.2865C18.4451 21.3146 18.3827 21.3426 18.3237 21.3702C17.9986 20.5332 17.4796 19.2268 17.3675 19.1198C17.2015 18.9616 16.8456 18.9477 16.8457 19.3175C16.8458 19.5783 17.3621 21.0036 17.6665 21.8213C17.6832 21.971 17.6891 22.1605 17.6957 22.3728C17.7164 23.0353 17.744 23.9203 18.1289 24.5115C18.6208 25.2671 18.7658 26.7508 18.7658 26.7508L18.9262 27.5496C19.9694 27.68 21.027 27.4715 21.9419 26.9549L21.2535 24.5378C21.2331 24.3941 21.234 24.2482 21.2562 24.1047C21.4365 23.6735 21.6564 23.2598 21.9128 22.8688C22.204 22.411 22.8055 21.9152 23.2252 21.5694L23.2252 21.5694C23.4743 21.3641 23.6594 21.2116 23.6775 21.1511C23.7263 20.9886 22.9832 20.5186 22.4576 20.8689ZM38.0242 32.7404L37.4375 32.9644L37.6179 32.9026C37.6179 32.9026 37.3758 33.0584 37.0205 33.3234C36.9558 34.0609 36.7287 36.677 36.5234 39.3656C37.9215 39.7077 40.531 39.4946 42.5725 38.9718C43.54 34.8588 44.8235 32.498 44.8235 32.498L44.2368 32.2725L38.0242 32.7404ZM52.6946 55.5001C53.7857 55.4929 54.8083 56.0298 55.42 56.931L54.5021 58.8203L54.5063 58.8272C54.4665 58.908 54.4228 58.9921 54.3772 59.0776L54.3757 59.0806L54.3756 59.0805C54.2749 59.2689 54.1607 59.4667 54.0292 59.6687C53.6133 60.3075 53.1023 61.0349 51.5823 62.456C50.0623 63.8771 49.4343 64.3426 49.0081 64.1739C48.8369 64.1062 48.819 63.9906 48.8017 63.8791C48.7902 63.8049 48.779 63.7325 48.7231 63.6772C48.6609 63.6158 48.5432 63.6339 48.3891 63.6575C48.1962 63.6871 47.9465 63.7255 47.6776 63.6275C47.3918 63.5233 47.437 63.364 47.4796 63.2141C47.5037 63.1294 47.5268 63.0478 47.4891 62.9809C47.4509 62.9132 47.3716 62.9133 47.271 62.9135C47.0959 62.9138 46.856 62.9143 46.6544 62.5585C46.5813 62.4296 46.6044 62.3418 46.6309 62.2414C46.6678 62.1015 46.7111 61.9371 46.51 61.6026C46.2246 61.128 48.0164 60.047 48.8093 59.5686C48.9764 59.4678 49.0991 59.3937 49.1488 59.3577C49.4277 59.1554 49.2785 58.1346 49.2785 58.1346C49.2785 58.1346 50.6665 58.0842 51.3349 57.8778C51.6374 57.7808 51.8856 57.5622 52.0196 57.2749L52.0481 57.1922L52.0508 57.1928L52.6946 55.5001Z" fill="#F2AC7D"/>
<path d="M48.8365 60.6671C48.8279 60.6522 48.8137 60.6414 48.7971 60.637C48.7805 60.6325 48.7628 60.6349 48.7479 60.6435L46.6145 61.8711C46.589 61.8857 46.5766 61.9156 46.5843 61.9438C46.5919 61.9721 46.6176 61.9917 46.6469 61.9916C46.6583 61.9917 46.6694 61.9887 46.6793 61.9829L48.8128 60.7554C48.8277 60.7468 48.8385 60.7327 48.843 60.7162C48.8474 60.6996 48.8451 60.6819 48.8365 60.6671Z" fill="#0B122D"/>
<path d="M49.8987 61.5939C49.8901 61.579 49.8759 61.5681 49.8593 61.5637C49.8427 61.5593 49.8249 61.5617 49.8101 61.5704L47.4563 62.9246C47.4308 62.9392 47.4184 62.9691 47.4261 62.9973C47.4337 63.0256 47.4594 63.0453 47.4887 63.0452C47.5001 63.0452 47.5113 63.0422 47.5211 63.0365L49.8749 61.6822C49.8898 61.6736 49.9007 61.6595 49.9051 61.643C49.9096 61.6264 49.9073 61.6087 49.8987 61.5939Z" fill="#0B122D"/>
<path d="M50.257 62.6658C50.2476 62.6515 50.2328 62.6414 50.2159 62.638C50.1991 62.6346 50.1815 62.638 50.1672 62.6475L48.6854 63.6233C48.6615 63.639 48.6508 63.6685 48.659 63.6959C48.6672 63.7232 48.6925 63.7419 48.7211 63.7419C48.7338 63.7419 48.7462 63.7382 48.7568 63.7312L50.2386 62.7554C50.2685 62.7357 50.2767 62.6956 50.257 62.6658Z" fill="#0B122D"/>
<path d="M18.5039 23.3632C18.4781 23.3631 18.4542 23.3494 18.4413 23.327C18.4284 23.3047 18.4284 23.2772 18.4413 23.2549C19.5448 21.3451 20.9951 21.3711 21.0564 21.3717C21.0963 21.373 21.1276 21.4063 21.1264 21.4461C21.1226 21.4847 21.0908 21.5145 21.0519 21.516C21.0357 21.5148 19.6244 21.4966 18.5667 23.3271C18.5538 23.3495 18.5298 23.3632 18.5039 23.3632Z" fill="#0B122D"/>
<path d="M36.272 26.565C36.4533 28.1785 37.4052 29.2781 37.8584 29.6263L37.8695 29.6734C38.1642 30.9295 37.9211 32.2515 37.1989 33.3206L40.837 39.1342L44.5624 32.3815C44.061 31.8144 43.7492 31.1048 43.6707 30.3518L43.6213 29.8783C44.7609 29.3597 45.3264 27.2132 45.4667 26.2048C48.7043 26.4209 47.5679 21.2304 46.7617 21.4508C45.2253 21.8709 45.9383 24.0099 44.7716 22.0337C42.8344 18.7523 40.2631 18.4984 37.6836 20.2004C36.6723 20.8677 36.2505 22.7834 36.0455 23.3236C36.0455 22.7114 34.0381 19.8662 33.8762 23.3957C33.7467 26.2192 35.4194 26.685 36.272 26.565Z" fill="#F2AC7D"/>
<path d="M42.0576 27.7799C42.0508 27.7279 42.0244 27.6808 41.9842 27.6491C41.9441 27.6174 41.8934 27.6037 41.8436 27.6111C41.5946 27.6452 41.1346 27.7056 40.778 27.7371C40.3983 27.751 40.0182 27.7386 39.64 27.6999C39.5745 27.6941 39.5107 27.7238 39.4713 27.7786C39.432 27.8334 39.4225 27.9055 39.4463 27.9694C39.6283 28.4606 40.0804 29.3757 40.8879 29.2359C41.87 29.0659 42.1226 28.3566 42.0576 27.7799Z" fill="#161B36"/>
<path d="M41.9267 28.5553C41.9267 28.5553 40.6995 27.7952 39.7197 28.5437C39.7197 28.5437 40.0826 29.4091 40.8651 29.2844C41.7076 29.1501 41.9267 28.5553 41.9267 28.5553Z" fill="#E55151"/>
<path d="M39.223 21.977C39.1139 21.8493 38.9639 21.7499 38.5139 21.7783C38.0639 21.8067 37.3821 22.2467 37.5321 22.3603C37.6821 22.4738 38.1321 22.0906 38.4866 22.2183C38.8412 22.3461 39.0447 22.4511 39.1639 22.3816C39.3139 22.294 39.2754 22.0384 39.223 21.977Z" fill="#161B36"/>
<path d="M37.957 24.2041C38.1805 23.9669 38.7883 23.6091 39.4312 24.0755" stroke="url(#paint12_linear_5104_54805)" stroke-linecap="round"/>
<path d="M42.0488 24.2041C42.2723 23.9669 42.8801 23.6091 43.523 24.0755" stroke="url(#paint13_linear_5104_54805)" stroke-linecap="round"/>
<path d="M42.3632 21.8008C42.5061 21.7166 42.6789 21.6729 43.096 21.8511C43.513 22.0292 44.0218 22.6748 43.8446 22.7318C43.6675 22.7889 43.3605 22.2749 42.9853 22.2767C42.6101 22.2784 42.3849 22.3094 42.2937 22.2036C42.1789 22.0703 42.2945 21.8413 42.3632 21.8008Z" fill="#161B36"/>
<g style="mix-blend-mode:overlay" opacity="0.6">
<path d="M40.8076 26.4643C40.9658 26.4704 41.1228 26.4325 41.2623 26.3545C41.3538 26.3012 41.4176 26.2081 41.4359 26.1006C41.47 25.878 41.2513 25.5336 40.9838 25.1393C40.9159 25.0452 40.8536 24.9468 40.7974 24.8446C40.743 24.7233 40.7586 23.6178 40.805 22.6191L40.6412 22.6108C40.6251 22.9572 40.5498 24.696 40.6488 24.9168C40.7085 25.0286 40.7757 25.1359 40.8499 25.2379C41.0184 25.4861 41.3003 25.9017 41.274 26.0738C41.2631 26.132 41.2271 26.1818 41.1765 26.209C40.941 26.3144 40.6759 26.3229 40.4345 26.233L40.3844 26.3956C40.5212 26.4409 40.664 26.4641 40.8076 26.4643Z" fill="#030F1C"/>
</g>
<path d="M41.4662 19.9923C38.2568 19.2785 37.7839 19.7817 37.5 19.7817C41.247 16.5544 45.7242 20.9548 45.8945 21.2945C46.0648 21.6342 45.5051 22.5082 45.4484 23.131C45.3916 23.7538 45.1037 24.7052 44.5713 22.9721C44.0407 21.245 43.8571 20.524 41.4662 19.9923Z" fill="url(#paint14_linear_5104_54805)"/>
<g style="mix-blend-mode:overlay" opacity="0.6">
<path d="M37.8477 29.5371C38.7054 30.3416 41.0347 31.5209 43.4901 29.8022C42.6814 31.5367 40.4209 33.9121 37.8477 29.5371Z" fill="#030F1C"/>
</g>
<path d="M46.929 22.8786C46.5313 22.8803 46.2982 23.3209 46.1633 23.7751L46.1629 23.7763C46.0726 24.0963 46.0138 24.4244 45.9876 24.7559C45.9857 24.7837 45.9988 24.8103 46.022 24.8259C46.0452 24.8414 46.0749 24.8434 46.1 24.8311C46.1251 24.8188 46.1417 24.7942 46.1436 24.7664C46.1673 24.4551 46.2213 24.1469 46.305 23.846C46.4486 23.7673 46.6156 23.7421 46.7761 23.7752C46.9423 23.8282 47.0783 23.9488 47.1505 24.1072C47.1686 24.1407 47.2084 24.1562 47.2445 24.1439C47.2486 24.1426 47.2526 24.1408 47.2563 24.1388C47.2746 24.129 47.2882 24.1123 47.2941 24.0925C47.3 24.0727 47.2978 24.0514 47.288 24.0332C47.196 23.8358 47.0238 23.6869 46.8147 23.6242C46.6668 23.589 46.5118 23.598 46.369 23.6501C46.4928 23.3097 46.6734 23.0351 46.9296 23.0345C46.9576 23.0345 46.9834 23.0196 46.9974 22.9954C47.0113 22.9712 47.0112 22.9414 46.9971 22.9173C46.983 22.8931 46.957 22.8784 46.929 22.8786Z" fill="#0B122D"/>
<path d="M34.8151 23.1203C35.2128 23.122 35.446 23.5626 35.5808 24.0168L35.5812 24.018C35.6716 24.338 35.7303 24.6661 35.7565 24.9976C35.7584 25.0254 35.7453 25.052 35.7221 25.0676C35.6989 25.0831 35.6692 25.0851 35.6441 25.0728C35.6191 25.0605 35.6025 25.0359 35.6006 25.0081C35.5769 24.6968 35.5228 24.3886 35.4391 24.0877C35.2956 24.009 35.1285 23.9838 34.968 24.0169C34.8018 24.0699 34.6659 24.1905 34.5937 24.3489C34.5755 24.3824 34.5357 24.3979 34.4996 24.3856C34.4955 24.3843 34.4916 24.3825 34.4878 24.3805C34.4696 24.3707 34.456 24.354 34.45 24.3342C34.4441 24.3144 34.4463 24.2931 34.4561 24.2749C34.5482 24.0775 34.7204 23.9286 34.9294 23.8659C35.0773 23.8307 35.2323 23.8397 35.3751 23.8918C35.2513 23.5514 35.0708 23.2768 34.8145 23.2762C34.7865 23.2762 34.7607 23.2613 34.7468 23.2371C34.7328 23.2129 34.7329 23.1831 34.747 23.159C34.7612 23.1348 34.7871 23.1201 34.8151 23.1203L34.8151 23.1203Z" fill="#0B122D"/>
<path d="M96.6087 80.2662C95.278 79.5465 93.7685 81.2922 93.6957 81.3834C93.8082 81.1641 99.1815 70.7385 97.9964 66.74C97.1794 64.0052 94.273 62.6846 91.8393 64.2759L88.0352 81.0651C89.1153 83.4269 89.7868 85.954 90.0213 88.5393H94.3498C95.9639 86.1029 98.7021 81.3992 96.6087 80.2662Z" fill="url(#paint15_linear_5104_54805)"/>
<path d="M90.0221 88.5394H76.1906C75.4994 84.8261 75.6119 80.1685 75.4146 78.127C75.1776 75.6761 72.0249 73.6451 73.4364 69.6479C74.8479 65.6506 74.8731 62.8814 73.8151 59.7795C73.1782 57.911 73.8456 56.4095 74.4772 55.5116C74.6882 55.2128 75.0013 55.001 75.3577 54.916H75.3643C75.7234 54.8322 76.101 54.8844 76.4236 55.0626C77.3862 55.5908 78.6508 56.6472 78.905 58.6029C79.1248 60.2932 79.567 61.7722 80.3734 63.2248C81.1123 64.5559 82.1556 65.8659 83.6108 67.2854C85.9148 69.5383 85.3494 74.1601 85.3401 74.2631C85.074 77.0019 89.3601 80.8803 90.0221 88.5394Z" fill="url(#paint16_linear_5104_54805)"/>
<path d="M89.3288 49.4885C87.8505 49.1537 86.2994 49.4192 85.0178 50.2267C83.7362 51.0341 82.8295 52.317 82.4977 53.7921L80.3633 63.2273C81.1021 64.5584 82.1455 65.8684 83.6007 67.288C85.9047 69.5408 85.3393 74.1627 85.33 74.2657C85.1751 75.919 86.6793 77.9935 88.0404 81.0651L91.8393 64.2759L93.644 56.2998C94.3378 53.2306 92.4061 50.1815 89.3288 49.4885Z" fill="url(#paint17_linear_5104_54805)"/>
<g style="mix-blend-mode:overlay" opacity="0.6">
<path d="M85.0383 67.0859L84.6411 68.8224C84.7947 69.1645 84.9222 69.5176 85.0224 69.8788L86.479 63.4082C86.5302 63.4204 86.5842 63.4114 86.6286 63.3831L89.7032 61.4459C89.7956 61.3872 89.8229 61.2648 89.7641 61.1726L89.6528 60.9983C89.6248 60.9538 89.5801 60.9222 89.5287 60.9106C89.4773 60.8989 89.4233 60.9081 89.3787 60.9362L86.6498 62.6529L88.8306 53.0447C88.8424 52.9936 88.8333 52.9398 88.8052 52.8954C88.7771 52.851 88.7323 52.8197 88.6809 52.8083L88.4784 52.7621C88.3709 52.7383 88.2644 52.8056 88.24 52.9127L86.9411 58.6556L85.3522 56.1466C85.2947 56.0546 85.1737 56.0258 85.0807 56.0819L84.9059 56.1929C84.8613 56.2208 84.8297 56.2654 84.818 56.3167C84.8063 56.3679 84.8156 56.4217 84.8437 56.4662L86.7583 59.4876L85.2264 66.25L83.6374 63.741C83.6096 63.6966 83.5652 63.6651 83.514 63.6534C83.4628 63.6418 83.4091 63.651 83.3647 63.6789L83.1886 63.7899C83.1439 63.8179 83.1123 63.8624 83.1006 63.9137C83.089 63.965 83.0982 64.0188 83.1263 64.0632L85.0383 67.0859Z" fill="#030F1C"/>
</g>
<g style="mix-blend-mode:overlay" opacity="0.6">
<path d="M94.2125 66.9407C94.1498 66.9223 94.0823 66.9294 94.025 66.9607C93.9676 66.9919 93.925 67.0445 93.9066 67.1071L89.3596 82.552C89.0718 82.4562 88.7916 82.3388 88.5215 82.2007C88.6062 82.4147 88.6883 82.6312 88.7691 82.861C88.9147 82.9231 89.0644 82.9799 89.2206 83.0314L89.0379 83.6507C89.1279 83.932 89.2153 84.2185 89.3027 84.513L94.3912 67.2523C94.4114 67.1873 94.4036 67.1168 94.3697 67.0578C94.3358 66.9987 94.2789 66.9563 94.2125 66.9407Z" fill="#030F1C"/>
</g>
<g style="mix-blend-mode:overlay" opacity="0.6">
<path d="M85.9007 81.8323C85.9029 81.7015 85.8013 81.5922 85.6704 81.5844C85.5394 81.5766 85.4256 81.6731 85.4121 81.8032C85.4121 81.8402 85.1672 85.3766 82.9519 86.3815L80.2746 74.9021C81.988 73.5961 81.5087 70.885 81.4862 70.7662C81.4542 70.6418 81.3311 70.5633 81.2044 70.5866C81.0778 70.61 80.9909 70.7271 81.0055 70.8547C81.0055 70.8798 81.4173 73.1788 80.1488 74.3673L77.9111 64.771C77.8855 64.665 77.7794 64.5991 77.6727 64.6231L77.5827 64.6442C77.5313 64.6558 77.4866 64.6875 77.4588 64.7322C77.4309 64.7768 77.4221 64.8307 77.4344 64.8819L78.1309 67.8716C77.3881 67.2219 77.0862 66.0057 77.0822 65.9912C77.0669 65.9012 77.0027 65.8272 76.9156 65.7993C76.8285 65.7714 76.7331 65.7942 76.6682 65.8584C76.6032 65.9227 76.5796 66.0176 76.6068 66.1047C76.6254 66.1826 77.069 67.964 78.2924 68.5649L79.6748 74.4875L79.7966 75.0077L80.9036 79.7617C78.7228 79.5411 77.2133 77.2527 77.1961 77.2262C77.1208 77.1183 76.9734 77.0891 76.8625 77.1602C76.7516 77.2314 76.717 77.3773 76.7843 77.4903C76.8544 77.6 78.5056 80.1169 81.0214 80.2635L82.4408 86.3458V86.3656L82.5057 86.6443L82.6381 87.1857L82.9572 88.5485H83.4551L83.0579 86.8741C85.6346 85.7939 85.8914 81.9973 85.9007 81.8323Z" fill="#030F1C"/>
</g>
<path d="M57.9215 15.2378C57.719 20.0874 58.9814 21.8416 61.2543 23.587C64.2906 24.7747 66.2978 24.4695 67.589 23.5095C70.7191 21.1822 70.5719 14.1425 70.6819 12.3101C70.7699 10.8441 69.6183 10.0959 69.0315 9.90498C69.5817 6.12561 66.611 4.7513 64.1905 5.66751C61.7699 6.58372 62.3964 7.56983 60.9229 8.56683C59.4494 9.56383 58.1747 9.17575 57.9215 15.2378Z" fill="url(#paint18_linear_5104_54805)"/>
<path d="M78.7932 12.5426C78.308 12.1647 77.7889 11.8323 77.2424 11.5495C76.2396 11.0125 74.2715 10.873 74.1107 10.7182C73.9498 10.5635 74.4977 9.54613 75.3263 9.60884C76.1549 9.67155 76.8192 10.2661 77.0368 9.67105C77.0623 9.60122 77.0592 9.41113 76.8777 8.99251C76.7762 8.81286 75.1575 5.94411 75.1451 5.61826C75.1322 5.28185 75.4634 4.8773 75.8712 5.2373C76.163 5.49494 77.0418 7.08729 77.518 7.97205C77.5741 7.95922 77.6317 7.94637 77.6908 7.93352C77.274 6.82315 76.332 4.27814 76.3539 4.01665C76.382 3.68113 76.7598 3.31954 77.1208 3.72624C77.4107 4.05284 78.4386 6.69031 78.8324 7.71702C78.8812 7.70899 78.93 7.70115 78.9788 7.6935C78.6255 6.42785 78.0633 4.35604 78.102 4.12716C78.1582 3.79515 78.5651 3.46645 78.8906 3.90198C79.1184 4.20692 79.7576 6.30936 80.1206 7.54343C80.2121 7.53442 80.3017 7.52623 80.387 7.51973C80.2189 6.35119 79.9696 4.51981 80.0291 4.32508C80.1171 4.0368 80.5159 3.79163 80.7547 4.21545C80.9231 4.51439 81.2521 6.4802 81.4316 7.61341C81.751 8.36445 82.7176 9.772 82.6394 10.9939C82.5991 11.625 82.8059 12.428 83.0075 13.0416L84.4862 17.4383L80.2165 18.4084L79.2768 13.5063C79.0955 13.0599 78.9073 12.6479 78.7932 12.5426Z" fill="#F2AC7D"/>
<path d="M81.4976 9.86007C81.5074 9.82495 81.4924 9.78771 81.461 9.76911C78.9696 8.29511 77.3293 9.25405 77.2607 9.29562C77.2225 9.31876 77.2103 9.36839 77.2334 9.40651C77.2565 9.44463 77.3062 9.45682 77.3444 9.43375C77.3604 9.42406 78.9753 8.48629 81.3782 9.90812C81.4167 9.93082 81.4663 9.91818 81.4892 9.87985C81.4929 9.87365 81.4957 9.867 81.4976 9.86007Z" fill="#0B122D"/>
<g style="mix-blend-mode:overlay" opacity="0.6">
<path d="M84.9606 17.5038L80.0359 18.5077C79.7401 18.568 82.4559 16.9296 83.9272 17.2459C84.8797 17.4507 84.9536 16.6252 84.7832 16.2079C84.5441 15.6226 83.4384 15.1359 83.4384 15.1359C83.437 15.1292 84.1683 14.9976 84.1667 14.991L84.2209 14.9799C84.5235 14.9183 85.0923 15.4255 85.1541 15.7273L85.3965 16.8458C85.4262 16.9907 85.397 17.1414 85.3152 17.2648C85.2335 17.3882 85.1059 17.4742 84.9606 17.5038Z" fill="#030F1C"/>
</g>
<path d="M61.2999 23.5878V27.8003L64.2784 32.4847L67.1599 27.8677L67.0627 23.8237C68.2023 23.3384 68.7678 21.3298 68.9081 20.3862C72.1457 20.5884 70.9478 15.5671 70.2031 15.9378C69.4585 16.3085 69.6528 18.2968 69.1348 17.7239C68.6168 17.151 68.4225 14.0843 68.5844 13.2755C68.7463 12.4667 68.4549 11.8938 67.6131 12.433C66.7713 12.9722 64.8612 14.2528 62.5302 13.5451C60.1991 12.8374 60.102 13.2081 60.102 14.6909C60.102 15.8771 59.6919 17.1847 59.4869 17.6902C59.4869 17.1173 57.4795 14.455 57.3177 17.7576C57.1882 20.3997 58.8609 20.8356 59.7134 20.7233C59.8947 22.233 60.8466 23.262 61.2999 23.5878Z" fill="#F2AC7D"/>
<path fill-rule="evenodd" clip-rule="evenodd" d="M72.2519 119.18H75.8145V114.685H72.0779L72.2519 119.18ZM58.1153 114.824L54.4322 114.696L54.2758 119.18H57.8384L58.1153 114.824Z" fill="url(#paint19_linear_5104_54805)"/>
<path fill-rule="evenodd" clip-rule="evenodd" d="M51.1151 122.781L51.1244 122.781C51.0466 122.908 51.0049 123.054 51.0037 123.202V123.815H58.7457V123.202C58.7455 123.129 58.735 123.056 58.7144 122.985L58.0723 118.535C58.0499 118.379 57.5808 118.253 57.3913 118.289C57.3092 118.265 57.2253 118.246 57.1404 118.234C57.2086 118.127 57.2517 118.006 57.2664 117.88C57.2802 117.675 57.1852 117.478 57.0158 117.359C56.9281 117.283 56.8071 117.258 56.6961 117.293C56.4406 117.371 56.1952 117.755 55.9985 118.167C55.8551 118.166 55.7128 118.167 55.5761 118.169C55.4809 117.781 55.3241 117.392 55.064 117.185C54.896 117.048 54.6731 116.997 54.4616 117.047C54.1965 117.101 54.0405 117.22 53.9982 117.4C53.9457 117.622 54.0902 117.908 54.3059 118.19C54.1854 118.195 54.0657 118.216 54.0262 118.277L51.1151 122.781ZM54.6274 117.185C54.751 117.185 54.8709 117.228 54.9657 117.307C55.1871 117.483 55.3262 117.822 55.4144 118.172C55.0615 118.179 54.7668 118.193 54.6305 118.199L54.6304 118.199C54.5854 118.201 54.5578 118.202 54.551 118.202C54.5421 118.201 54.5312 118.2 54.5202 118.199L54.5202 118.199L54.5131 118.198C54.2732 117.91 54.1058 117.627 54.1511 117.435C54.1783 117.32 54.2935 117.241 54.4935 117.199C54.5375 117.19 54.5824 117.185 54.6274 117.185ZM57.1098 117.868C57.1188 117.714 57.0456 117.567 56.9173 117.481C56.8705 117.437 56.8036 117.422 56.7426 117.442C56.5538 117.5 56.3516 117.808 56.1742 118.169C56.4593 118.173 56.7389 118.186 56.9729 118.212C57.0467 118.11 57.0938 117.992 57.1098 117.868ZM75.815 118.266C74.1501 119.787 72.2273 118.266 72.2273 118.266C72.2273 118.266 71.2427 118.756 71.2079 119.497C71.173 120.238 71.2056 122.818 71.2056 122.818V123.3C71.2056 123.436 71.2602 123.567 71.3574 123.664C71.4545 123.76 71.5863 123.815 71.7237 123.815H84.896C85.0334 123.815 85.1652 123.76 85.2623 123.664C85.3595 123.567 85.4141 123.436 85.4141 123.3V122.671H85.3857C85.1887 122.024 83.9593 121.294 82.6982 120.991L82.6223 120.973C82.4355 120.927 81.9184 120.796 81.3311 120.615C81.1426 120.555 80.9398 120.487 80.7264 120.412L80.7477 120.391C80.7795 120.362 80.7813 120.313 80.7518 120.281C80.7223 120.25 80.6727 120.248 80.6409 120.277C80.6366 120.281 80.6076 120.308 80.5614 120.353C80.4639 120.317 80.3639 120.28 80.2615 120.241C80.0163 120.143 79.7513 120.029 79.4841 119.91L79.4952 119.899C79.527 119.87 79.5288 119.821 79.4993 119.789C79.4699 119.757 79.4202 119.756 79.3884 119.785C79.3848 119.788 79.3634 119.808 79.3299 119.84C78.9921 119.687 78.6568 119.528 78.3574 119.384C78.618 119.369 79.1449 119.308 79.3885 119.053C79.4816 118.96 79.5296 118.831 79.5202 118.699C79.5282 118.595 79.4696 118.496 79.3734 118.453C79.1371 118.362 78.6771 118.714 78.4058 118.95C78.4571 118.69 78.499 118.303 78.3479 118.115C78.282 118.034 78.1795 117.992 78.0754 118.003C77.9763 118.005 77.8851 118.057 77.834 118.142C77.6817 118.395 77.8713 118.939 77.9769 119.198C77.8129 119.117 77.6687 119.046 77.5556 118.989C77.4685 118.944 77.3832 118.901 77.299 118.859L77.2787 118.848L77.2785 118.849C76.8143 118.6 76.3234 118.405 75.815 118.266Z" fill="url(#paint20_linear_5104_54805)"/>
<g style="mix-blend-mode:overlay" opacity="0.4">
<path d="M72.2183 122.299C71.9106 122.299 71.6612 122.051 71.6612 121.745C71.6612 121.439 71.9106 121.191 72.2183 121.191C72.526 121.191 72.7754 121.439 72.7754 121.745C72.7754 122.051 72.526 122.299 72.2183 122.299Z" fill="#030F1C"/>
</g>
<g style="mix-blend-mode:overlay" opacity="0.4">
<path d="M72.409 120.843H71.1918V120.687H72.409C72.9713 120.687 73.4271 121.14 73.4278 121.699V122.671H85.4141V123.3C85.4141 123.437 85.3595 123.568 85.2623 123.664C85.1652 123.761 85.0334 123.815 84.896 123.815H71.7237C71.5863 123.815 71.4545 123.761 71.3574 123.664C71.2602 123.568 71.2056 123.437 71.2056 123.3V122.671H73.2707V121.699C73.2702 121.226 72.8847 120.843 72.409 120.843Z" fill="#030F1C"/>
</g>
<g style="mix-blend-mode:overlay" opacity="0.4">
<path d="M52.6244 122.089H57.1257C58.0206 122.089 58.7461 122.587 58.7461 123.202V123.815H51.004V123.202C51.004 122.587 51.7295 122.089 52.6244 122.089Z" fill="#030F1C"/>
</g>
<g style="mix-blend-mode:overlay" opacity="0.4">
<path d="M77.976 119.198C78.0035 119.266 78.0257 119.315 78.0341 119.333C78.0374 119.341 78.0419 119.347 78.0473 119.353C77.8015 119.594 77.573 119.851 77.3637 120.123C77.3379 120.158 77.3451 120.207 77.3797 120.232C77.4143 120.258 77.4634 120.251 77.4895 120.217C77.717 119.922 77.9668 119.645 78.2367 119.388C78.2631 119.388 78.3051 119.387 78.3564 119.384C78.6558 119.528 78.9914 119.687 79.329 119.84C79.0658 120.093 78.8219 120.366 78.5993 120.655C78.5733 120.69 78.5804 120.738 78.6151 120.764C78.6499 120.79 78.6991 120.783 78.7251 120.749C78.9558 120.45 79.2092 120.17 79.4832 119.91C79.7549 120.031 80.0244 120.147 80.2731 120.246C80.3661 120.283 80.4618 120.319 80.5583 120.355C80.3038 120.602 80.0677 120.867 79.8518 121.147C79.826 121.182 79.8332 121.231 79.8678 121.256C79.9024 121.282 79.9515 121.275 79.9776 121.241C80.2046 120.947 80.4537 120.671 80.7226 120.414C81.6836 120.752 82.6973 120.991 82.6973 120.991C82.6973 120.991 82.5319 121.65 81.9573 121.805C81.3828 121.961 78.1186 120.845 77.2558 120.43C76.3931 120.015 77.2777 118.848 77.2777 118.848C77.2777 118.848 77.5592 118.993 77.976 119.198Z" fill="#030F1C"/>
</g>
<g style="mix-blend-mode:overlay" opacity="0.4">
<path d="M55.6985 118.9C55.6754 118.654 55.635 118.41 55.5776 118.169C55.7143 118.167 55.8566 118.166 56 118.167C55.8776 118.423 55.7738 118.69 55.6985 118.9Z" fill="#030F1C"/>
</g>
<g style="mix-blend-mode:overlay" opacity="0.4">
<path fill-rule="evenodd" clip-rule="evenodd" d="M54.447 118.364C54.7113 118.662 54.9989 118.938 55.3071 119.19C54.9882 119.214 54.6757 119.291 54.3828 119.419C54.3576 119.431 54.3407 119.456 54.3387 119.484C54.3366 119.512 54.3497 119.538 54.3729 119.554C54.3961 119.57 54.426 119.572 54.4512 119.56C54.7887 119.42 55.149 119.344 55.5143 119.333C55.5347 119.313 55.5657 119.307 55.5923 119.318C55.6188 119.33 55.6353 119.357 55.6338 119.386C55.6721 119.391 55.7087 119.368 55.7198 119.331C55.8431 118.933 55.9952 118.544 56.1751 118.168C56.4603 118.173 56.7399 118.185 56.974 118.211C56.6402 118.711 55.8159 119.181 55.8057 119.187C55.7761 119.204 55.7607 119.238 55.7675 119.271C55.7744 119.304 55.8019 119.329 55.8358 119.333C56.2645 119.382 56.6895 119.46 57.108 119.565C57.1149 119.567 57.1221 119.568 57.1292 119.568C57.1684 119.568 57.2016 119.539 57.207 119.5C57.2123 119.461 57.1882 119.425 57.1504 119.414C56.7969 119.323 56.4381 119.253 56.076 119.206C56.365 119.021 56.8983 118.643 57.1414 118.233C57.3982 118.274 57.5708 118.336 57.5811 118.43C57.6342 118.915 57.4375 121.066 57.1764 121.217C56.9152 121.369 53.2393 121.334 53.2165 121.246C53.1644 121.044 54.1197 118.964 54.447 118.364ZM57.1201 119.948C57.0746 119.935 55.9842 119.627 54.1078 119.946C54.0651 119.953 54.0365 119.994 54.0438 120.036C54.051 120.079 54.0915 120.107 54.1342 120.1C55.9681 119.787 57.0613 120.094 57.0759 120.098L57.076 120.098C57.1029 120.106 57.132 120.099 57.1522 120.079C57.1725 120.06 57.181 120.032 57.1743 120.005C57.1677 119.978 57.1471 119.956 57.1202 119.948L57.1201 119.948ZM57.2438 120.71C56.093 120.58 54.9312 120.58 53.7805 120.71L53.7805 120.71C53.7376 120.714 53.699 120.684 53.6934 120.641C53.6884 120.599 53.7193 120.56 53.7624 120.555C54.9264 120.424 56.1016 120.424 57.2656 120.555C57.3063 120.561 57.3358 120.597 57.3329 120.638C57.3301 120.679 57.296 120.71 57.2548 120.711C57.2511 120.711 57.2474 120.71 57.2438 120.71Z" fill="#030F1C"/>
</g>
<g style="mix-blend-mode:overlay" opacity="0.4">
<path d="M54.5339 118.221C54.5423 118.21 54.5493 118.202 54.5529 118.202C54.58 118.202 54.9468 118.182 55.4162 118.172C55.4961 118.507 55.5451 118.849 55.5625 119.194C55.1904 118.901 54.8461 118.576 54.5339 118.221Z" fill="#030F1C"/>
</g>
<path d="M75.2406 61.9766C75.2406 61.9766 77.0846 85.1298 76.9801 88.9713C76.8756 92.8127 76.5623 116.484 76.5623 116.484C76.5623 116.484 74.0553 117.834 71.4439 116.484C71.4439 116.484 69.877 101.845 69.1458 97.4847C68.4146 93.1242 68.6235 87.2063 68.6235 87.2063L64.863 77.966L58.3687 116.785C58.3687 116.785 55.044 117.626 53.4772 116.588C53.4772 116.588 53.7906 109.217 53.4772 101.949C53.1638 94.6815 53.7906 89.3865 54.7307 86.5833C54.7307 86.5833 52.643 71.7359 53.0609 61.9766H75.2406Z" fill="url(#paint21_linear_5104_54805)"/>
<g style="mix-blend-mode:overlay" opacity="0.6">
<path d="M58.8594 113.845C58.8594 113.845 56.5956 114.805 53.5593 113.845V114.477C55.2382 115.052 57.0603 115.065 58.7474 114.514L58.8594 113.845Z" fill="white"/>
</g>
<g style="mix-blend-mode:overlay" opacity="0.6">
<path d="M76.5977 113.845C76.5977 113.845 74.1927 114.805 71.1564 113.845L71.2358 114.568C71.2358 114.568 73.8526 115.449 76.5886 114.515L76.5977 113.845Z" fill="white"/>
</g>
<g style="mix-blend-mode:overlay" opacity="0.6">
<path d="M53.1208 68.2857C53.1255 68.2857 53.1301 68.2853 53.1347 68.2845C57.9928 67.4253 57.1951 62.0727 57.1865 62.0187C57.1796 61.9762 57.1394 61.9474 57.0967 61.9541C57.0539 61.9608 57.0247 62.0007 57.0313 62.0432C57.0397 62.0957 57.8128 67.2986 53.1071 68.1308C53.0671 68.1379 53.0392 68.1742 53.0427 68.2145C53.0463 68.2547 53.0801 68.2856 53.1208 68.2857Z" fill="#030F1C"/>
</g>
<g style="mix-blend-mode:overlay" opacity="0.6">
<path d="M75.6968 67.1947C75.733 67.1947 75.7645 67.1702 75.7731 67.1353C75.7817 67.1004 75.7653 67.0641 75.7332 67.0475C75.6993 67.0299 72.3374 65.2442 72.5151 62.0355C72.5163 62.0148 72.5091 61.9945 72.4952 61.9791C72.4813 61.9637 72.4619 61.9544 72.4411 61.9533C72.4202 61.9519 72.3996 61.9589 72.3841 61.9728C72.3685 61.9866 72.3592 62.0062 72.3584 62.0269C72.1749 65.3369 75.6257 67.1677 75.6605 67.1859C75.6718 67.1917 75.6842 67.1947 75.6968 67.1947Z" fill="#030F1C"/>
</g>
<g style="mix-blend-mode:overlay" opacity="0.6">
<path d="M75.2405 61.9766L75.3398 63.5334C66.6082 66.9734 53.017 64.5729 53.017 64.5729L53.0608 61.9766H75.2405Z" fill="#030F1C"/>
</g>
<g style="mix-blend-mode:overlay" opacity="0.6">
<path d="M64.8622 77.9662L66.9528 70.2314C66.9528 70.2314 68.0481 74.4204 67.5781 78.9526C67.108 83.4847 67.5781 84.6398 67.5781 84.6398L64.8622 77.9662Z" fill="#030F1C"/>
</g>
<g style="mix-blend-mode:overlay" opacity="0.6">
<path d="M75.659 67.6311C75.659 67.6311 74.7352 67.2206 74.3696 68.6741C74.004 70.1277 74.4374 77.2914 74.8552 81.3405C75.2731 85.3896 75.7759 91.5671 75.8555 94.7856C75.935 98.0041 76.8125 98.6292 76.8125 98.6292C76.8125 98.6292 77.0836 89.4702 76.9288 87.1C76.7739 84.7297 76.3719 75.2884 75.659 67.6311Z" fill="url(#paint22_linear_5104_54805)"/>
</g>
<g style="mix-blend-mode:overlay" opacity="0.6">
<path d="M64.2539 81.707C64.2539 81.707 61.281 85.1446 60.5913 89.7574C59.9015 94.3702 59.327 103.524 58.9788 105.877C58.6306 108.231 57.8082 110.835 59.3304 111.038L64.2539 81.707Z" fill="url(#paint23_linear_5104_54805)"/>
</g>
<g style="mix-blend-mode:overlay" opacity="0.6">
<path d="M68.5979 88.5644C68.6004 88.5644 68.603 88.5642 68.6056 88.5639C68.6263 88.5619 68.6454 88.5518 68.6586 88.5358C68.6718 88.5198 68.6781 88.4993 68.6761 88.4787C68.6735 88.4532 68.4369 85.9235 69.4556 84.2358C69.4779 84.1988 69.4658 84.1509 69.4286 84.1288C69.3914 84.1066 69.3432 84.1186 69.321 84.1556C68.2751 85.888 68.5172 88.4682 68.5198 88.4939C68.5237 88.5339 68.5575 88.5643 68.5979 88.5644Z" fill="#030F1C"/>
</g>
<path d="M70.7122 27.8704C70.7122 27.8704 72.2783 27.8102 73.9132 27.6715C76.0305 27.5105 77.6229 27.1537 79.4061 26.9246C82.3507 26.5458 81.7548 24.9776 81.6957 24.5649C81.4198 23.2284 80.2467 18.8043 80.0581 18.5024C78.7888 18.8689 78.644 18.891 78.5577 18.4503L78.0469 16.7788C77.9212 16.3776 78.1475 16.1958 78.4262 16.1545L84.0007 14.7921C84.6748 14.5884 84.6913 14.9518 84.8723 15.444L85.3695 16.9178C85.499 17.1895 85.5069 17.3666 84.5673 17.5389C84.8772 18.4394 89.5284 29.8419 87.9363 31.1567C86.0825 32.6218 75.8093 35.7112 75.8093 35.7112C75.8093 35.7112 73.3179 38.4397 70.7122 27.8704Z" fill="url(#paint24_linear_5104_54805)"/>
<path fill-rule="evenodd" clip-rule="evenodd" d="M47.7023 40.5579C47.141 41.9962 46.5082 43.6176 45.7803 45.4478C44.4814 48.7134 46.6598 51.9195 51.1209 51.4781C52.0921 51.382 53.0505 51.2773 54.0394 51.1516C54.1191 52.837 54.1115 54.5042 53.3408 57.425C52.9087 59.1706 52.6758 60.9593 52.6465 62.757C52.6465 62.757 71.0078 65.8385 74.7611 62.757C75.5398 62.1177 75.158 60.5852 74.8109 59.1921C74.6396 58.5047 74.4767 57.8512 74.466 57.3558C74.4358 55.9609 74.3712 54.6348 74.3099 53.3794C74.2701 52.563 74.2317 51.7764 74.2053 51.0204C74.2259 48.3711 74.1144 45.0076 74.4583 43.4642C74.8292 40.2571 75.8302 35.5898 74.9619 34.069C74.1382 32.7688 73.6264 28.5313 73.6256 28.5301C72.7924 27.4222 68.894 28.0299 68.894 28.0299L64.2051 31.4875L61.1309 27.4671C61.1309 27.4671 58.1241 28.143 56.3272 28.6083C52.0018 29.5412 51.4149 31.0448 47.7023 40.5579ZM53.7672 44.6838L53.7764 44.9198L53.4754 44.9339C53.5752 44.7308 53.6628 44.5526 53.755 44.3671C53.7591 44.4733 53.7632 44.5789 53.7672 44.6838Z" fill="url(#paint25_linear_5104_54805)"/>
<path d="M70.47 17.0402C70.0724 17.042 69.8392 17.4826 69.7043 17.9367L69.7039 17.9379C69.6136 18.258 69.5548 18.5861 69.5286 18.9175C69.5267 18.9453 69.5399 18.972 69.563 18.9875C69.5862 19.003 69.616 19.005 69.641 18.9927C69.6661 18.9805 69.6827 18.9558 69.6846 18.928C69.7083 18.6167 69.7623 18.3085 69.846 18.0077C69.9896 17.9289 70.1566 17.9038 70.3171 17.9368C70.4833 17.9898 70.6193 18.1104 70.6915 18.2688C70.7096 18.3023 70.7494 18.3179 70.7856 18.3056C70.7896 18.3042 70.7936 18.3025 70.7973 18.3004C70.8156 18.2906 70.8292 18.274 70.8351 18.2542C70.8411 18.2344 70.8389 18.213 70.829 18.1948C70.737 17.9974 70.5648 17.8486 70.3557 17.7858C70.2078 17.7506 70.0528 17.7596 69.91 17.8118C70.0338 17.4713 70.2144 17.1967 70.4706 17.1962C70.4986 17.1961 70.5245 17.1812 70.5384 17.157C70.5523 17.1328 70.5522 17.103 70.5381 17.0789C70.524 17.0548 70.498 17.04 70.47 17.0402Z" fill="#0B122D"/>
<path d="M58.2761 17.0402C58.6737 17.042 58.9069 17.4826 59.0418 17.9367L59.0422 17.9379C59.1325 18.258 59.1912 18.5861 59.2175 18.9175C59.2194 18.9453 59.2062 18.972 59.1831 18.9875C59.1599 19.003 59.1301 19.005 59.1051 18.9927C59.08 18.9805 59.0634 18.9558 59.0615 18.928C59.0378 18.6167 58.9838 18.3085 58.9001 18.0077C58.7565 17.9289 58.5895 17.9038 58.429 17.9368C58.2628 17.9898 58.1268 18.1104 58.0546 18.2688C58.0365 18.3023 57.9967 18.3179 57.9605 18.3056C57.9565 18.3042 57.9525 18.3025 57.9488 18.3004C57.9305 18.2906 57.9169 18.274 57.911 18.2542C57.905 18.2344 57.9072 18.213 57.9171 18.1948C58.0091 17.9974 58.1813 17.8486 58.3904 17.7858C58.5383 17.7506 58.6933 17.7596 58.8361 17.8118C58.7123 17.4713 58.5317 17.1967 58.2755 17.1962C58.2475 17.1961 58.2216 17.1812 58.2077 17.157C58.1938 17.1328 58.1939 17.103 58.208 17.0789C58.2221 17.0548 58.2481 17.04 58.2761 17.0402L58.2761 17.0402Z" fill="#0B122D"/>
<g style="mix-blend-mode:overlay" opacity="0.6">
<path d="M83.2648 25.6838C83.2896 25.318 82.6396 23.165 82.228 21.3085C81.9993 20.2773 80.9864 19.7559 80.5062 19.8951L81.1865 22.4856L81.8006 25.0395C81.8058 25.2011 81.8006 25.5789 81.6062 25.8991C81.4879 26.034 81.4119 26.1604 81.2428 26.2952C80.5383 26.9365 78.5677 26.9722 75.4197 27.5072C75.2725 28.6667 77.358 28.4141 78.5149 28.2318C79.9096 28.012 81.3064 27.606 82.0041 27.4315C82.3082 27.4232 83.1731 27.0395 83.2648 25.6838Z" fill="white"/>
</g>
<path d="M74.7483 41.2564C74.787 41.2563 74.8198 41.2281 74.8255 41.1899C75.3475 37.7321 75.0999 35.231 75.0973 35.2061C75.0928 35.1633 75.0544 35.1323 75.0115 35.1366C74.9686 35.141 74.9373 35.1792 74.9416 35.222C74.944 35.2467 75.1895 37.7298 74.6708 41.1667C74.6677 41.1872 74.6729 41.208 74.6852 41.2247C74.6975 41.2413 74.716 41.2524 74.7365 41.2555C74.7404 41.2561 74.7443 41.2564 74.7483 41.2564Z" fill="#0B122D"/>
<path d="M73.915 63.263C73.9287 63.2631 73.9422 63.2594 73.9541 63.2525C75.7293 62.6053 75.1666 60.895 75.1861 60.8238C75.1934 60.7969 75.1859 60.7681 75.1662 60.7483C75.1465 60.7284 75.1177 60.7206 75.0906 60.7277C75.0636 60.7347 75.0423 60.7557 75.035 60.7826C75.0304 60.7994 75.5943 62.5028 73.8758 63.1174C73.8452 63.1351 73.8302 63.1711 73.8394 63.2052C73.8486 63.2393 73.8796 63.263 73.915 63.263Z" fill="#0B122D"/>
<g style="mix-blend-mode:overlay" opacity="0.6">
<path d="M55.2716 41.4163C55.328 41.3085 55.3843 41.1993 55.4423 41.0899C55.4986 40.9822 55.5566 40.8728 55.6146 40.7635C56.0866 39.8667 56.5966 38.9133 57.1297 37.937C57.2195 39.2844 57.2304 41.5469 56.7973 44.7772L53.8793 44.9144C53.869 44.6667 53.8584 44.4222 53.8475 44.1808C54.1192 43.6379 54.4704 42.9539 55.2716 41.4163Z" fill="url(#paint26_linear_5104_54805)"/>
</g>
<g style="mix-blend-mode:overlay" opacity="0.6">
<path d="M54.0279 51.1528C54.6457 51.0744 55.2759 50.9876 55.9287 50.8892C55.7673 55.3204 57.4372 58.3538 59.2782 60.2981C61.1567 62.2823 65.0411 62.7564 67.8301 64.1259C62.4895 64.4183 52.6472 62.7564 52.6472 62.7564C52.6472 62.7564 52.5268 60.1874 53.5877 56.421C53.9099 55.6741 54.0235 53.6191 54.0279 51.1528Z" fill="url(#paint27_linear_5104_54805)"/>
</g>
<g style="mix-blend-mode:overlay" opacity="0.6">
<path d="M62.7949 30.7102L56.8774 28.3996L59.4331 27.8291L62.7949 30.7102Z" fill="url(#paint28_linear_5104_54805)"/>
</g>
<path d="M50.554 46.6698C50.5926 46.6696 50.6254 46.6417 50.6317 46.6038C50.6404 46.5521 50.8597 45.3379 52.3023 45.2966C52.3458 45.2953 52.3801 45.259 52.3789 45.2156C52.3758 45.1729 52.3405 45.1397 52.2976 45.1392C50.7225 45.1844 50.4783 46.5644 50.476 46.5783C50.4726 46.5989 50.4776 46.62 50.4898 46.6369C50.502 46.6539 50.5204 46.6653 50.5411 46.6687C50.5454 46.6693 50.5497 46.6697 50.554 46.6698Z" fill="#0B122D"/>
<g style="mix-blend-mode:overlay" opacity="0.6">
<path d="M56.612 46.2208C58.4098 45.9986 58.8184 45.4225 58.8184 44.8519L53.0931 45.1211C53.5083 44.2758 55.3798 40.67 55.4382 40.5598C54.898 40.3873 54.2094 40.864 53.633 41.771C52.9594 42.8311 51.074 45.4094 51.8455 46.1467C52.2894 46.5709 55.5934 46.3467 56.612 46.2208Z" fill="white"/>
</g>
<g style="mix-blend-mode:overlay" opacity="0.6">
<path d="M59.1347 50.0537L58.9457 45.004C58.9344 44.7008 60.1203 47.6643 59.5623 49.0713C59.201 49.9822 60.012 50.1916 60.4562 50.0914C61.0792 49.9508 61.7468 48.9344 61.7468 48.9344C61.7537 48.9342 61.7643 49.6811 61.7712 49.6806L61.7733 49.7362C61.7849 50.0465 61.1853 50.5269 60.8742 50.5385L59.719 50.5944C59.5696 50.6 59.4241 50.5461 59.3145 50.4447C59.205 50.3433 59.1403 50.2027 59.1347 50.0537Z" fill="#030F1C"/>
</g>
<path d="M55.0719 45.0624L55.0756 45.0623L58.9804 44.8782C59.0175 44.8766 59.0484 44.8493 59.0545 44.8128C59.082 44.6454 59.2228 44.5198 59.3926 44.5111L60.527 44.4483C60.5705 44.4459 60.6038 44.4088 60.6014 44.3654C60.5991 44.322 60.5619 44.2888 60.5184 44.2911L59.384 44.354C59.1643 44.3652 58.9756 44.5135 58.9135 44.7239L55.0682 44.9052C55.0254 44.9072 54.9922 44.9429 54.9932 44.9856C54.9942 45.0283 55.0291 45.0623 55.0719 45.0624V45.0624Z" fill="#0B122D"/>
<path d="M51.0021 51.6654C51.0062 51.6654 51.0104 51.6651 51.0144 51.6645L58.6615 50.4749C58.6894 50.4707 58.7129 50.4519 58.7232 50.4256C58.7334 50.3993 58.7287 50.3695 58.711 50.3476C58.6932 50.3257 58.665 50.3149 58.6371 50.3193L50.9901 51.5089C50.9494 51.5152 50.9204 51.5517 50.9235 51.5927C50.9267 51.6336 50.9609 51.6653 51.0021 51.6654Z" fill="#0B122D"/>
<path d="M69.5665 38.9301L73.0283 39.2719L73.2037 39.5389L71.8852 42.8461L70.1334 47.2402L66.4253 46.4862L66.249 46.1334L69.0005 39.2729C69.0917 39.0457 69.3223 38.906 69.5665 38.9301Z" fill="url(#paint29_linear_5104_54805)"/>
<g style="mix-blend-mode:overlay" opacity="0.6">
<path d="M70.2756 39.972L69.6137 39.9129C69.564 39.9107 69.519 39.8832 69.4944 39.84C69.4699 39.7968 69.4694 39.7441 69.4931 39.7004C69.5395 39.5905 69.6488 39.5202 69.7684 39.5234L70.4302 39.5825C70.4799 39.5846 70.525 39.6122 70.5495 39.6554C70.5741 39.6985 70.5746 39.7513 70.5509 39.7949C70.5045 39.9049 70.3952 39.9752 70.2756 39.972Z" fill="#030F1C"/>
</g>
<g style="mix-blend-mode:overlay" opacity="0.6">
<path d="M69.5664 38.9301L73.0283 39.2719L73.2037 39.5389L69.7307 39.2497C69.4889 39.2296 69.2624 39.3695 69.1728 39.5944L66.4252 46.4863L67.88 46.7821L66.4252 46.4863L66.2489 46.1335L69.0005 39.2729C69.0916 39.0457 69.3223 38.906 69.5664 38.9301Z" fill="#030F1C"/>
</g>
<path d="M63.5914 45.0883L63.9425 45.0064C63.9425 45.0064 64.2825 43.7864 65.8183 42.8489C66.744 42.2833 67.5676 41.5663 68.2547 40.7279C69.0204 41.2415 67.2948 43.4334 67.2948 43.4334C67.2948 43.4334 73.3654 42.2803 73.5794 42.8291C73.7934 43.3779 70.7028 43.9836 70.7028 43.9836C71.0969 44.7088 70.1914 45.0179 70.1914 45.0179C70.7082 45.5539 69.696 46.0144 69.696 46.0144C69.696 46.0144 70.1431 46.316 69.5314 46.7514C68.9197 47.1868 65.2754 47.4331 65.2754 47.4331L64.4289 47.6827L61.6425 48.5988C61.4812 47.5086 61.2046 46.4526 61.0259 45.3651L63.5914 45.0883Z" fill="#F2AC7D"/>
<path d="M69.3984 44.1618L70.558 44.0305C70.5948 44.0263 70.6212 43.9931 70.617 43.9563C70.6128 43.9195 70.5795 43.893 70.5427 43.8972L69.3832 44.0285C69.3464 44.0327 69.3199 44.0659 69.3241 44.1027C69.3284 44.1395 69.3616 44.166 69.3984 44.1618Z" fill="#030F1C"/>
<path d="M68.5323 45.2625L70.0541 45.0901C70.0909 45.0859 70.1173 45.0527 70.1131 45.0159C70.1089 44.9791 70.0756 44.9526 70.0388 44.9568L68.5171 45.1292C68.4802 45.1333 68.4538 45.1666 68.458 45.2034C68.4622 45.2402 68.4955 45.2667 68.5323 45.2625Z" fill="#030F1C"/>
<path d="M68.5042 46.2005L69.5267 46.0847C69.5635 46.0805 69.59 46.0473 69.5857 46.0105C69.5815 45.9737 69.5483 45.9472 69.5115 45.9514L68.4889 46.0672C68.4521 46.0714 68.4257 46.1046 68.4299 46.1414C68.4341 46.1782 68.4673 46.2046 68.5042 46.2005Z" fill="#030F1C"/>
<path d="M62.6592 31.0783L61.3983 31.9864L59.3672 27.8417L61.1883 27.0035L63.5464 30.4962L64.2001 31.3577L65.1107 30.1935L67.2353 26.9336L69.2666 27.9115L67.0485 31.9864L65.8111 31.0317L64.1534 31.5439L62.6592 31.0783Z" fill="url(#paint30_linear_5104_54805)"/>
<path d="M65.7069 21.642C65.7008 21.5952 65.677 21.5528 65.6409 21.5243C65.6047 21.4958 65.5592 21.4835 65.5143 21.4901C65.2902 21.5208 64.8762 21.5752 64.5553 21.6035C64.2136 21.616 63.8715 21.6048 63.5312 21.57C63.4722 21.5648 63.4148 21.5916 63.3794 21.6409C63.344 21.6902 63.3354 21.7551 63.3569 21.8126C63.5207 22.2546 63.9275 23.0781 64.6543 22.9523C65.5381 22.7993 65.7654 22.161 65.7069 21.642Z" fill="#161B36"/>
<path d="M65.5883 22.3396C65.5883 22.3396 64.4839 21.6556 63.6021 22.3292C63.6021 22.3292 63.9287 23.108 64.6329 22.9958C65.3911 22.875 65.5883 22.3396 65.5883 22.3396Z" fill="#E55151"/>
<ellipse rx="0.276112" ry="0.472633" transform="matrix(-1 0 0 1 62.886 17.3042)" fill="#161B36"/>
<ellipse rx="0.276112" ry="0.472633" transform="matrix(-1 0 0 1 65.9973 17.208)" fill="#161B36"/>
<path d="M63.2003 15.172C63.1021 15.057 62.9671 14.9676 62.5622 14.9932C62.1572 15.0187 61.5436 15.4147 61.6786 15.5169C61.8136 15.6191 62.2185 15.2742 62.5376 15.3892C62.8567 15.5041 63.0399 15.5987 63.1471 15.5361C63.2821 15.4573 63.2475 15.2273 63.2003 15.172Z" fill="#161B36"/>
<path d="M65.7377 14.9654C65.8663 14.8895 66.0218 14.8503 66.3971 15.0106C66.7725 15.1709 67.2304 15.7519 67.0709 15.8032C66.9115 15.8546 66.6352 15.392 66.2975 15.3936C65.9599 15.3952 65.7572 15.4231 65.6751 15.3278C65.5718 15.2079 65.6759 15.0018 65.7377 14.9654Z" fill="#161B36"/>
<g style="mix-blend-mode:overlay" opacity="0.6">
<path d="M64.906 20.3137C65.0484 20.3191 65.1896 20.285 65.3152 20.2148C65.3976 20.1669 65.4549 20.083 65.4715 19.9863C65.5021 19.786 65.3053 19.476 65.0646 19.1212C65.0034 19.0365 64.9474 18.9479 64.8968 18.856C64.8479 18.7468 64.8618 17.7519 64.9036 16.8531L64.7562 16.8457C64.7417 17.1574 64.6739 18.7222 64.763 18.921C64.8168 19.0216 64.8773 19.1181 64.9441 19.2099C65.0957 19.4333 65.3494 19.8073 65.3257 19.9622C65.3159 20.0146 65.2835 20.0594 65.2379 20.0839C65.026 20.1787 64.7874 20.1864 64.5702 20.1055L64.5251 20.2518C64.6483 20.2926 64.7767 20.3135 64.906 20.3137Z" fill="#030F1C"/>
</g>
<g style="mix-blend-mode:overlay" opacity="0.6">
<path d="M61.3438 23.6206C62.2015 24.4251 64.5308 25.6044 66.9862 23.8857C66.1775 25.6202 63.917 27.9956 61.3438 23.6206Z" fill="#030F1C"/>
</g>
<path d="M9.51013 57.6022C7.8973 53.9721 9.53461 49.7296 13.1672 48.1263L15.1191 47.2648C18.7516 45.6615 23.0038 47.3046 24.6166 50.9347L26.3888 54.9233C27.0229 56.3506 26.3791 58.0186 24.9509 58.649C24.1953 58.9825 23.6242 59.6296 23.3878 60.4201L22.7468 62.5635C22.3245 63.9755 20.7388 64.6754 19.4059 64.038L17.3828 63.0705C16.6366 62.7136 15.7721 62.7002 15.0164 63.0337C13.5882 63.6641 11.9164 63.0181 11.2822 61.5908L9.51013 57.6022Z" fill="url(#paint31_linear_5104_54805)"/>
<path d="M17.6426 50.6113C16.8415 50.9649 16.3134 51.6762 16.192 52.4813C15.5123 52.0298 14.629 51.9414 13.8279 52.295C12.569 52.8506 11.9959 54.3334 12.5542 55.59C13.5609 57.8559 18.7807 58.3077 18.7807 58.3077C18.7807 58.3077 21.9617 54.1708 20.9465 51.886C20.3882 50.6293 18.9014 50.0557 17.6426 50.6113Z" fill="#F44336"/>
<rect x="81.4199" y="55.498" width="15.0925" height="15.0518" rx="7.52591" fill="url(#paint32_linear_5104_54805)"/>
<path d="M92.515 62.7839C92.657 62.5967 92.7357 62.3673 92.7357 62.1286C92.7357 61.75 92.5234 61.3915 92.1818 61.1917C92.0938 61.1402 91.9937 61.1132 91.8917 61.1132H89.8639L89.9147 60.0768C89.9265 59.8263 89.8377 59.5885 89.6652 59.4072C89.5806 59.3178 89.4784 59.2467 89.3651 59.1982C89.2518 59.1498 89.1298 59.125 89.0065 59.1255C88.5668 59.1255 88.1778 59.4207 88.0611 59.8432L87.3347 62.466H87.3321V66.0755H91.326C91.4038 66.0755 91.4799 66.0603 91.5501 66.0299C91.9526 65.8587 92.2122 65.4666 92.2122 65.0314C92.2122 64.9251 92.197 64.8206 92.1666 64.7194C92.3086 64.5321 92.3873 64.3028 92.3873 64.0641C92.3873 63.9578 92.372 63.8533 92.3416 63.7521C92.4837 63.5648 92.5623 63.3354 92.5623 63.0968C92.5606 62.9905 92.5454 62.8851 92.515 62.7839ZM85.9707 62.7358V65.8056C85.9707 65.9549 86.0916 66.0755 86.2413 66.0755H86.791V62.466H86.2413C86.0916 62.466 85.9707 62.5866 85.9707 62.7358Z" fill="url(#paint33_linear_5104_54805)"/>
<defs>
<linearGradient id="paint0_linear_5104_54805" x1="56.5695" y1="89.6911" x2="56.5695" y2="0.363774" gradientUnits="userSpaceOnUse">
<stop stop-color="white" stop-opacity="0"/>
<stop offset="1" stop-color="#E3EFF9"/>
</linearGradient>
<linearGradient id="paint1_linear_5104_54805" x1="35.1579" y1="57.1559" x2="17.1721" y2="26.149" gradientUnits="userSpaceOnUse">
<stop stop-color="#38B2AC"/>
<stop offset="0.697917" stop-color="#81E6D9"/>
<stop offset="1" stop-color="#B2F5EA"/>
</linearGradient>
<linearGradient id="paint2_linear_5104_54805" x1="40.0904" y1="77.8027" x2="2.13595" y2="48.6018" gradientUnits="userSpaceOnUse">
<stop stop-color="#38B2AC"/>
<stop offset="0.411458" stop-color="#81E6D9"/>
<stop offset="0.755208" stop-color="#B2F5EA"/>
<stop offset="1" stop-color="#E6FFFA"/>
</linearGradient>
<linearGradient id="paint3_linear_5104_54805" x1="37.7251" y1="117.722" x2="37.7251" y2="124.073" gradientUnits="userSpaceOnUse">
<stop stop-color="#FFAEAE"/>
<stop offset="1" stop-color="#D93333"/>
</linearGradient>
<linearGradient id="paint4_linear_5104_54805" x1="38.439" y1="118.63" x2="38.439" y2="123.697" gradientUnits="userSpaceOnUse">
<stop stop-color="#2D3748"/>
<stop offset="1" stop-color="#1A202C"/>
</linearGradient>
<linearGradient id="paint5_linear_5104_54805" x1="39.2808" y1="55.7588" x2="39.2808" y2="117.536" gradientUnits="userSpaceOnUse">
<stop stop-color="#2D3748"/>
<stop offset="1" stop-color="#1A202C"/>
</linearGradient>
<linearGradient id="paint6_linear_5104_54805" x1="43.4081" y1="15.0891" x2="41.0005" y2="33.7448" gradientUnits="userSpaceOnUse">
<stop stop-color="#2D3748"/>
<stop offset="1" stop-color="#1A202C"/>
</linearGradient>
<linearGradient id="paint7_linear_5104_54805" x1="40.0253" y1="32.6714" x2="40.0253" y2="60.0666" gradientUnits="userSpaceOnUse">
<stop stop-color="#2D3748"/>
<stop offset="1" stop-color="#1A202C"/>
</linearGradient>
<linearGradient id="paint8_linear_5104_54805" x1="39.5226" y1="26.6543" x2="39.5226" y2="65.075" gradientUnits="userSpaceOnUse">
<stop stop-color="#FFAEAE"/>
<stop offset="1" stop-color="#D93333"/>
</linearGradient>
<linearGradient id="paint9_linear_5104_54805" x1="32.3084" y1="38.4699" x2="23.5984" y2="41.0769" gradientUnits="userSpaceOnUse">
<stop stop-color="#030F1C"/>
<stop offset="1" stop-color="#030F1C" stop-opacity="0"/>
</linearGradient>
<linearGradient id="paint10_linear_5104_54805" x1="33.4595" y1="47.627" x2="33.8025" y2="50.5329" gradientUnits="userSpaceOnUse">
<stop stop-color="#030F1C"/>
<stop offset="1" stop-color="#030F1C" stop-opacity="0"/>
</linearGradient>
<linearGradient id="paint11_linear_5104_54805" x1="46.1" y1="41.0215" x2="43.8964" y2="69.0813" gradientUnits="userSpaceOnUse">
<stop offset="0.265984" stop-color="#030F1C"/>
<stop offset="1" stop-color="#030F1C" stop-opacity="0"/>
</linearGradient>
<linearGradient id="paint12_linear_5104_54805" x1="38.6941" y1="23.8481" x2="38.6941" y2="24.2041" gradientUnits="userSpaceOnUse">
<stop stop-color="#2D3748"/>
<stop offset="1" stop-color="#1A202C"/>
</linearGradient>
<linearGradient id="paint13_linear_5104_54805" x1="42.7859" y1="23.8481" x2="42.7859" y2="24.2041" gradientUnits="userSpaceOnUse">
<stop stop-color="#2D3748"/>
<stop offset="1" stop-color="#1A202C"/>
</linearGradient>
<linearGradient id="paint14_linear_5104_54805" x1="41.7133" y1="18.6055" x2="41.7133" y2="23.9585" gradientUnits="userSpaceOnUse">
<stop stop-color="#2D3748"/>
<stop offset="1" stop-color="#1A202C"/>
</linearGradient>
<linearGradient id="paint15_linear_5104_54805" x1="93.1011" y1="63.5894" x2="93.1011" y2="88.5393" gradientUnits="userSpaceOnUse">
<stop stop-color="#D1E6D3"/>
<stop offset="1" stop-color="#C6E2C9"/>
</linearGradient>
<linearGradient id="paint16_linear_5104_54805" x1="81.5482" y1="54.877" x2="81.5482" y2="88.5394" gradientUnits="userSpaceOnUse">
<stop stop-color="#D1E6D3"/>
<stop offset="1" stop-color="#C6E2C9"/>
</linearGradient>
<linearGradient id="paint17_linear_5104_54805" x1="87.0742" y1="49.3472" x2="87.0742" y2="81.0651" gradientUnits="userSpaceOnUse">
<stop stop-color="#D1E6D3"/>
<stop offset="1" stop-color="#AED2B2"/>
</linearGradient>
<linearGradient id="paint18_linear_5104_54805" x1="64.2935" y1="5.39355" x2="64.2935" y2="24.36" gradientUnits="userSpaceOnUse">
<stop stop-color="#2D3748"/>
<stop offset="1" stop-color="#1A202C"/>
</linearGradient>
<linearGradient id="paint19_linear_5104_54805" x1="65.0451" y1="114.685" x2="65.0451" y2="119.18" gradientUnits="userSpaceOnUse">
<stop stop-color="#FFD2D2"/>
<stop offset="1" stop-color="#FF9998"/>
</linearGradient>
<linearGradient id="paint20_linear_5104_54805" x1="68.2089" y1="117.028" x2="68.2089" y2="123.815" gradientUnits="userSpaceOnUse">
<stop stop-color="#FFAEAE"/>
<stop offset="1" stop-color="#D93333"/>
</linearGradient>
<linearGradient id="paint21_linear_5104_54805" x1="64.995" y1="61.9766" x2="64.995" y2="117.107" gradientUnits="userSpaceOnUse">
<stop stop-color="#2C5282"/>
<stop offset="1" stop-color="#2A4365"/>
</linearGradient>
<linearGradient id="paint22_linear_5104_54805" x1="75.6043" y1="67.5776" x2="75.6043" y2="98.6292" gradientUnits="userSpaceOnUse">
<stop stop-color="white"/>
<stop offset="1" stop-color="white" stop-opacity="0"/>
</linearGradient>
<linearGradient id="paint23_linear_5104_54805" x1="61.3483" y1="81.707" x2="61.3483" y2="111.038" gradientUnits="userSpaceOnUse">
<stop stop-color="white"/>
<stop offset="1" stop-color="white" stop-opacity="0"/>
</linearGradient>
<linearGradient id="paint24_linear_5104_54805" x1="66.8378" y1="14.7344" x2="66.8378" y2="64.1266" gradientUnits="userSpaceOnUse">
<stop stop-color="#81E6D9"/>
<stop offset="1" stop-color="#319795"/>
</linearGradient>
<linearGradient id="paint25_linear_5104_54805" x1="66.8378" y1="14.7344" x2="66.8378" y2="64.1266" gradientUnits="userSpaceOnUse">
<stop stop-color="#81E6D9"/>
<stop offset="1" stop-color="#319795"/>
</linearGradient>
<linearGradient id="paint26_linear_5104_54805" x1="53.9691" y1="39.5117" x2="57.7302" y2="45.4098" gradientUnits="userSpaceOnUse">
<stop stop-color="#030F1C"/>
<stop offset="1" stop-color="#030F1C" stop-opacity="0"/>
</linearGradient>
<linearGradient id="paint27_linear_5104_54805" x1="53.1971" y1="53.8843" x2="56.7195" y2="65.4644" gradientUnits="userSpaceOnUse">
<stop stop-color="#030F1C"/>
<stop offset="1" stop-color="#030F1C" stop-opacity="0"/>
</linearGradient>
<linearGradient id="paint28_linear_5104_54805" x1="59.8362" y1="27.8291" x2="58.3731" y2="31.6267" gradientUnits="userSpaceOnUse">
<stop stop-color="#030F1C"/>
<stop offset="1" stop-color="#030F1C" stop-opacity="0"/>
</linearGradient>
<linearGradient id="paint29_linear_5104_54805" x1="69.4309" y1="38.9319" x2="70.0538" y2="47.2461" gradientUnits="userSpaceOnUse">
<stop stop-color="#2C5282"/>
<stop offset="1" stop-color="#2A4365"/>
</linearGradient>
<linearGradient id="paint30_linear_5104_54805" x1="64.3169" y1="26.9336" x2="64.3169" y2="31.9864" gradientUnits="userSpaceOnUse">
<stop stop-color="#2D3748"/>
<stop offset="1" stop-color="#1A202C"/>
</linearGradient>
<linearGradient id="paint31_linear_5104_54805" x1="14.1431" y1="47.6956" x2="21.8999" y2="65.2703" gradientUnits="userSpaceOnUse">
<stop stop-color="#F7FAFC"/>
<stop offset="1" stop-color="#EDF2F7"/>
</linearGradient>
<linearGradient id="paint32_linear_5104_54805" x1="88.9662" y1="55.498" x2="88.9662" y2="70.5499" gradientUnits="userSpaceOnUse">
<stop stop-color="#BEE3F8"/>
<stop offset="1" stop-color="#90CDF4"/>
</linearGradient>
<linearGradient id="paint33_linear_5104_54805" x1="89.3532" y1="59.1255" x2="89.3532" y2="66.0755" gradientUnits="userSpaceOnUse">
<stop stop-color="#F7FAFC"/>
<stop offset="1" stop-color="#EDF2F7"/>
</linearGradient>
</defs>
</svg>
