<svg width="387" height="426" viewBox="0 0 387 426" fill="none" xmlns="http://www.w3.org/2000/svg">
<path d="M46.7042 349.594C46.7042 349.594 -23.0448 247.799 8.77364 165.065C40.5921 82.3309 97.0032 216.949 133.65 216.337C170.297 215.724 20.6747 59.6377 131.262 19.2872C225.025 -21.914 267.478 4.7596 251.267 85.9033C232.004 182.331 262.276 202.311 294.774 164.036C332.271 119.807 369.751 171.691 335.484 221.916C301.218 272.142 407.044 234.717 383.148 284.271C360.978 330.202 375.497 343.079 375.497 343.079L347.709 349.628L46.7042 349.594Z" fill="url(#paint0_linear_3451_219885)"/>
<path d="M204.317 83.2731C204.317 76.3657 196.699 78.5675 195.403 79.0004C194.106 79.4328 191.081 69.4797 191.081 69.4797C191.081 69.4797 175.524 68.1814 172.499 71.2109C172.499 71.2109 171.634 84.1934 172.066 92.4154C172.499 100.638 175.137 104.092 178.162 104.092C179.119 104.038 180.059 103.818 180.941 103.442V118.578L199.24 109.08L196.986 91.2004C197.078 91.146 197.132 91.1171 197.132 91.1171C197.132 91.1171 204.317 89.7968 204.317 83.2731Z" fill="url(#paint1_linear_3451_219885)"/>
<path d="M172.004 82.4651C172.004 82.4651 172.848 75.3586 172.955 73.3912C173.11 70.5614 175.742 69.9676 177.289 71.9523C179.515 74.9002 183.293 76.2181 186.866 75.2932C190.001 74.5621 191.321 73.7229 191.608 76.8907C191.896 80.059 192.973 85.3204 193.979 83.9127C194.985 82.5057 196.111 79.4114 198.104 79.0519C201.15 78.5021 203.033 82.1433 202.315 84.315C201.596 86.4867 200.58 87.8411 196.82 89.8947L197.993 99.1972C207.308 86.8282 210.817 69.842 198.183 65.9084C193.463 64.4389 188.56 54.9156 179.426 57.082C172.955 58.6172 172.955 63.5816 172.495 67.8989C163.8 68.259 172.004 82.4651 172.004 82.4651Z" fill="url(#paint2_linear_3451_219885)"/>
<path d="M199.548 81.7972C197.473 81.0933 195.552 85.6103 195.471 85.8031C195.425 85.9136 195.476 86.0404 195.586 86.0867C195.613 86.0977 195.641 86.1035 195.67 86.1035C195.757 86.1041 195.836 86.0514 195.869 85.9715C196.205 85.1913 196.616 84.4464 197.096 83.746C197.532 83.6702 197.981 83.753 198.361 83.9787C198.739 84.2606 198.981 84.69 199.026 85.1606C199.043 85.2648 199.133 85.3418 199.239 85.3418C199.251 85.3418 199.262 85.3406 199.274 85.3389C199.331 85.3296 199.382 85.2984 199.415 85.2515C199.448 85.2052 199.461 85.1467 199.452 85.0906C199.378 84.0441 198.486 83.2471 197.44 83.2899C198.055 82.5288 198.756 81.9864 199.409 82.207C199.482 82.2319 199.563 82.2156 199.621 82.1647C199.679 82.1138 199.706 82.0356 199.69 81.9598C199.675 81.884 199.621 81.8221 199.548 81.7972Z" fill="#0B122D"/>
<path d="M180.941 103.659C180.838 103.659 180.75 103.587 180.729 103.487C180.708 103.388 180.76 103.286 180.853 103.245C180.924 103.214 188.025 100.032 191.021 96.1874C191.095 96.0931 191.23 96.0763 191.324 96.1498C191.418 96.2233 191.435 96.3593 191.362 96.4537C188.298 100.385 181.323 103.51 181.028 103.641C181 103.653 180.971 103.659 180.941 103.659Z" fill="#0B122D"/>
<path d="M191.066 73.1394C191.018 73.1394 190.971 73.1232 190.934 73.0937C187.672 70.5579 188.886 65.6422 188.939 65.4344C188.958 65.3591 189.016 65.3001 189.09 65.2787C189.165 65.2578 189.245 65.2781 189.3 65.3325C189.356 65.3869 189.378 65.4668 189.358 65.5414C189.346 65.5901 188.163 70.3918 191.199 72.7522C191.272 72.8089 191.3 72.9056 191.27 72.993C191.24 73.0804 191.159 73.1394 191.066 73.1394Z" fill="white"/>
<g style="mix-blend-mode:overlay" opacity="0.6">
<g style="mix-blend-mode:overlay" opacity="0.6">
<path d="M180.955 103.542C180.955 103.542 187.182 100.641 189.194 98.5299C189.194 98.5299 188.73 104.221 184.617 108.22C180.504 112.219 180.955 108.987 180.955 108.987V103.542Z" fill="#030F1C"/>
</g>
</g>
<path d="M182.447 80.4087C182.508 81.1414 182.197 81.7654 181.752 81.8024C181.307 81.8395 180.897 81.2757 180.836 80.5429C180.775 79.8102 181.086 79.1862 181.531 79.1492C181.976 79.1121 182.386 79.6759 182.447 80.4087Z" fill="#161B36"/>
<path d="M174.523 81.6253C174.584 82.3581 174.273 82.9821 173.828 83.0191C173.383 83.0561 172.973 82.4924 172.912 81.7596C172.851 81.0269 173.162 80.4029 173.607 80.3659C174.052 80.3288 174.462 80.8926 174.523 81.6253Z" fill="#161B36"/>
<path d="M179.723 76.0948C180.09 75.8668 180.541 75.7383 181.657 76.1458C182.772 76.5527 184.177 78.1357 183.716 78.2983C183.255 78.4616 182.396 77.1911 181.408 77.2357C180.421 77.2791 179.83 77.3809 179.58 77.1216C179.264 76.7969 179.546 76.2042 179.723 76.0948Z" fill="#161B36"/>
<path d="M174.114 76.6772C173.694 76.5759 173.226 76.5944 172.293 77.33C171.36 78.0657 170.518 80.007 171.007 80.018C171.495 80.029 171.916 78.5542 172.869 78.2868C173.821 78.02 174.413 77.9326 174.57 77.609C174.769 77.201 174.317 76.7269 174.114 76.6772Z" fill="#161B36"/>
<g style="mix-blend-mode:overlay" opacity="0.6">
<g style="mix-blend-mode:overlay" opacity="0.6">
<path d="M177.074 89.8559C176.75 89.8657 176.428 89.8009 176.132 89.666C175.881 89.552 175.694 89.3303 175.623 89.0635C175.487 88.5084 175.989 87.5899 176.608 86.5359C176.767 86.2829 176.91 86.0207 177.036 85.751C177.153 85.4321 176.879 82.6428 176.547 80.1308L176.976 80.0741C177.091 80.9452 177.655 85.3204 177.441 85.9003C177.308 86.1955 177.154 86.4815 176.981 86.7552C176.591 87.4191 175.937 88.531 176.042 88.9599C176.083 89.1046 176.188 89.2227 176.327 89.28C176.967 89.4953 177.666 89.4583 178.281 89.1775L178.447 89.5775C178.011 89.7581 177.545 89.8524 177.074 89.8559Z" fill="#030F1C"/>
</g>
</g>
<path d="M183.992 94.62C183.992 95.9744 182.552 97.0695 180.781 97.0695C180.247 97.0719 179.718 96.9671 179.225 96.7622C178.235 96.3466 177.565 95.5421 177.565 94.62C177.565 93.2656 179.005 92.1705 180.781 92.1705C182.341 92.1705 183.646 93.0231 183.931 94.1529C183.971 94.3052 183.991 94.4626 183.992 94.62Z" fill="#161B36"/>
<path d="M183.992 94.62C183.992 95.9744 182.553 97.0695 180.781 97.0695C180.247 97.0718 179.718 96.967 179.226 96.7621C179.709 96.074 181.399 93.9578 183.931 94.1529C183.971 94.3051 183.992 94.4626 183.992 94.62Z" fill="#E55151"/>
<path fill-rule="evenodd" clip-rule="evenodd" d="M169.159 361.258H159.356V348.797H169.638L169.159 361.258ZM208.056 349.18L218.19 348.829L218.621 361.258H208.818L208.056 349.18Z" fill="url(#paint3_linear_3451_219885)"/>
<path fill-rule="evenodd" clip-rule="evenodd" d="M227.319 371.24L227.294 371.241C227.508 371.593 227.623 371.996 227.626 372.408V374.106H206.323V372.408C206.324 372.204 206.353 372.001 206.41 371.805L208.176 359.469C208.238 359.038 209.529 358.687 210.05 358.789C210.276 358.72 210.507 358.668 210.741 358.635C210.553 358.338 210.435 358.003 210.394 357.655C210.356 357.086 210.617 356.538 211.084 356.209C211.325 355.999 211.657 355.929 211.963 356.025C212.666 356.243 213.341 357.307 213.883 358.449C214.277 358.447 214.668 358.449 215.044 358.455C215.306 357.378 215.738 356.302 216.454 355.727C216.916 355.346 217.53 355.205 218.112 355.344C218.841 355.495 219.27 355.824 219.386 356.322C219.531 356.938 219.133 357.73 218.54 358.514C218.872 358.526 219.201 358.585 219.31 358.754L227.319 371.24ZM217.655 355.727C217.315 355.726 216.985 355.845 216.724 356.064C216.115 356.553 215.732 357.494 215.49 358.463C216.461 358.484 217.272 358.521 217.646 358.538C217.771 358.544 217.847 358.547 217.865 358.547C217.89 358.544 217.92 358.54 217.95 358.537L217.97 358.535C218.63 357.737 219.09 356.953 218.966 356.42C218.891 356.101 218.574 355.881 218.024 355.767C217.903 355.741 217.779 355.728 217.655 355.727ZM210.824 357.619C210.8 357.193 211.001 356.786 211.354 356.547C211.483 356.426 211.667 356.385 211.835 356.439C212.355 356.6 212.91 357.453 213.399 358.454C212.614 358.467 211.845 358.502 211.201 358.573C210.998 358.291 210.868 357.964 210.824 357.619ZM159.356 358.725C163.938 362.94 169.229 358.725 169.229 358.725C169.229 358.725 171.938 360.081 172.034 362.136C172.129 364.191 172.039 371.342 172.039 371.342V372.678C172.039 373.057 171.89 373.42 171.622 373.687C171.355 373.955 170.992 374.106 170.614 374.106H134.37C133.992 374.106 133.629 373.955 133.362 373.687C133.095 373.42 132.944 373.057 132.944 372.678V370.934H133.022C133.564 369.142 136.947 367.118 140.418 366.278C140.484 366.262 140.555 366.244 140.626 366.227C141.14 366.1 142.563 365.738 144.179 365.234C144.698 365.069 145.255 364.881 145.843 364.672C145.812 364.642 145.792 364.623 145.786 364.618V364.617L145.784 364.615C145.697 364.534 145.692 364.398 145.773 364.31C145.854 364.222 145.991 364.218 146.078 364.299C146.09 364.31 146.169 364.384 146.297 364.508C146.565 364.411 146.84 364.308 147.122 364.199C147.797 363.927 148.526 363.611 149.261 363.28L149.231 363.251C149.143 363.17 149.138 363.033 149.219 362.946C149.3 362.858 149.437 362.853 149.524 362.934C149.534 362.943 149.593 362.998 149.685 363.088C150.614 362.663 151.537 362.223 152.361 361.822C151.644 361.782 150.194 361.612 149.524 360.906C149.268 360.646 149.136 360.289 149.162 359.925C149.139 359.635 149.301 359.362 149.566 359.242C150.216 358.991 151.482 359.966 152.228 360.62C152.087 359.9 151.972 358.826 152.387 358.305C152.569 358.081 152.851 357.964 153.137 357.995C153.41 358 153.661 358.146 153.801 358.379C154.221 359.08 153.699 360.589 153.408 361.308C153.86 361.084 154.257 360.885 154.567 360.727C154.807 360.603 155.042 360.484 155.273 360.367L155.33 360.338L155.33 360.339C156.607 359.65 157.958 359.109 159.356 358.725Z" fill="#F47D7D"/>
<g style="mix-blend-mode:overlay" opacity="0.4">
<g style="mix-blend-mode:overlay" opacity="0.4">
<path d="M169.254 369.903C170.101 369.903 170.787 369.216 170.787 368.368C170.787 367.521 170.101 366.833 169.254 366.833C168.408 366.833 167.721 367.521 167.722 368.368C167.722 369.216 168.408 369.903 169.254 369.903Z" fill="#030F1C"/>
</g>
</g>
<g style="mix-blend-mode:overlay" opacity="0.4">
<g style="mix-blend-mode:overlay" opacity="0.4">
<path d="M168.728 365.866H172.078V365.433H168.728C167.181 365.435 165.927 366.691 165.925 368.24V370.934H132.944V372.678C132.944 373.057 133.095 373.42 133.362 373.688C133.629 373.955 133.992 374.106 134.37 374.106H170.614C170.992 374.106 171.355 373.955 171.622 373.688C171.889 373.42 172.039 373.057 172.039 372.678V370.934H166.357V368.24C166.359 366.93 167.42 365.867 168.728 365.866Z" fill="#030F1C"/>
</g>
</g>
<g style="mix-blend-mode:overlay" opacity="0.4">
<g style="mix-blend-mode:overlay" opacity="0.4">
<path d="M223.167 369.322H210.782C208.32 369.322 206.323 370.703 206.323 372.408V374.106H227.626V372.408C227.626 370.703 225.63 369.322 223.167 369.322Z" fill="#030F1C"/>
</g>
</g>
<g style="mix-blend-mode:overlay" opacity="0.4">
<g style="mix-blend-mode:overlay" opacity="0.4">
<path d="M153.408 361.308C153.332 361.496 153.271 361.632 153.248 361.683C153.238 361.703 153.226 361.721 153.211 361.738C153.888 362.404 154.516 363.118 155.092 363.873C155.163 363.969 155.144 364.104 155.048 364.176C154.953 364.247 154.818 364.228 154.746 364.133C154.12 363.315 153.433 362.547 152.69 361.835C152.618 361.834 152.502 361.83 152.361 361.822C151.537 362.223 150.614 362.664 149.685 363.088C150.409 363.79 151.08 364.545 151.693 365.347C151.764 365.443 151.745 365.578 151.649 365.65C151.553 365.722 151.418 365.702 151.347 365.606C150.712 364.779 150.014 364.001 149.261 363.28C148.513 363.617 147.772 363.938 147.087 364.214C146.831 364.317 146.568 364.416 146.302 364.515C147.002 365.199 147.652 365.933 148.246 366.711C148.317 366.807 148.298 366.942 148.202 367.014C148.107 367.085 147.972 367.066 147.9 366.971C147.275 366.156 146.59 365.39 145.85 364.679C143.206 365.616 140.417 366.278 140.417 366.278C140.417 366.278 140.872 368.105 142.453 368.536C144.034 368.968 153.016 365.874 155.389 364.723C157.763 363.571 155.329 360.338 155.329 360.338C155.329 360.338 154.554 360.739 153.408 361.308Z" fill="#030F1C"/>
</g>
</g>
<g style="mix-blend-mode:overlay" opacity="0.4">
<g style="mix-blend-mode:overlay" opacity="0.4">
<path d="M214.712 360.482C214.776 359.8 214.887 359.122 215.045 358.455C214.669 358.449 214.277 358.447 213.883 358.449C214.219 359.158 214.505 359.898 214.712 360.482Z" fill="#030F1C"/>
</g>
</g>
<g style="mix-blend-mode:overlay" opacity="0.4">
<g style="mix-blend-mode:overlay" opacity="0.4">
<path fill-rule="evenodd" clip-rule="evenodd" d="M218.154 358.996C217.427 359.821 216.635 360.586 215.787 361.284C216.664 361.352 217.524 361.567 218.33 361.921C218.4 361.955 218.446 362.023 218.452 362.1C218.457 362.177 218.421 362.251 218.357 362.295C218.294 362.338 218.212 362.344 218.142 362.311C217.213 361.925 216.222 361.712 215.217 361.682C215.161 361.625 215.075 361.609 215.002 361.642C214.929 361.674 214.884 361.748 214.888 361.828C214.782 361.843 214.682 361.779 214.651 361.676C214.312 360.573 213.893 359.496 213.399 358.453C212.614 358.466 211.844 358.501 211.201 358.572C212.119 359.958 214.387 361.261 214.415 361.277C214.497 361.324 214.539 361.418 214.52 361.51C214.501 361.601 214.426 361.67 214.332 361.681C213.152 361.818 211.983 362.033 210.831 362.324C210.812 362.329 210.793 362.332 210.773 362.332C210.665 362.332 210.574 362.252 210.56 362.145C210.545 362.038 210.611 361.937 210.715 361.907C211.688 361.654 212.675 361.46 213.671 361.329C212.876 360.818 211.409 359.769 210.739 358.634C210.033 358.746 209.558 358.918 209.53 359.179C209.384 360.524 209.925 366.486 210.643 366.905C211.362 367.325 221.477 367.229 221.539 366.984C221.682 366.426 219.054 360.659 218.154 358.996ZM210.798 363.387C210.923 363.35 213.923 362.496 219.087 363.381C219.204 363.402 219.283 363.513 219.263 363.631C219.243 363.749 219.131 363.828 219.014 363.808C213.968 362.942 210.96 363.791 210.92 363.802H210.919C210.845 363.824 210.765 363.805 210.71 363.751C210.654 363.698 210.631 363.619 210.649 363.544C210.667 363.469 210.724 363.409 210.798 363.387ZM210.458 365.499C213.624 365.14 216.821 365.14 219.988 365.499C220.106 365.511 220.211 365.427 220.227 365.309C220.241 365.191 220.156 365.083 220.037 365.069C216.834 364.706 213.601 364.706 210.398 365.07C210.286 365.086 210.205 365.186 210.213 365.299C210.221 365.412 210.314 365.5 210.428 365.501C210.438 365.5 210.448 365.5 210.458 365.499Z" fill="#030F1C"/>
</g>
</g>
<g style="mix-blend-mode:overlay" opacity="0.4">
<g style="mix-blend-mode:overlay" opacity="0.4">
<path d="M217.917 358.599C217.894 358.569 217.875 358.547 217.865 358.547C217.79 358.547 216.781 358.491 215.49 358.463C215.27 359.393 215.135 360.341 215.087 361.295C216.111 360.486 217.058 359.583 217.917 358.599Z" fill="#030F1C"/>
</g>
</g>
<path d="M160.937 202.681C160.937 202.681 155.863 266.866 156.15 277.515C156.438 288.164 157.3 353.786 157.3 353.786C157.3 353.786 164.198 357.527 171.384 353.786C171.384 353.786 175.695 313.204 177.707 301.116C179.719 289.028 179.144 272.622 179.144 272.622L189.491 247.006L207.361 354.62C207.361 354.62 216.509 356.951 220.82 354.074C220.82 354.074 219.957 333.639 220.82 313.492C221.682 293.345 219.957 278.666 217.37 270.895C217.37 270.895 223.115 229.736 221.965 202.681H160.937Z" fill="url(#paint4_linear_3451_219885)"/>
<g style="mix-blend-mode:overlay" opacity="0.6">
<g style="mix-blend-mode:overlay" opacity="0.6">
<path d="M206.007 346.469C206.007 346.469 212.236 349.13 220.59 346.469V348.221C215.97 349.814 210.957 349.851 206.315 348.324L206.007 346.469Z" fill="white"/>
</g>
</g>
<g style="mix-blend-mode:overlay" opacity="0.6">
<g style="mix-blend-mode:overlay" opacity="0.6">
<path d="M157.202 346.469C157.202 346.469 163.819 349.13 172.174 346.469L171.956 348.473C171.956 348.473 164.755 350.915 157.227 348.325L157.202 346.469Z" fill="white"/>
</g>
</g>
<g style="mix-blend-mode:overlay" opacity="0.6">
<g style="mix-blend-mode:overlay" opacity="0.6">
<path d="M221.801 220.171C221.788 220.171 221.775 220.17 221.763 220.168C208.395 217.786 210.59 202.948 210.614 202.798C210.633 202.68 210.743 202.6 210.861 202.619C210.979 202.638 211.059 202.748 211.04 202.866C211.017 203.012 208.89 217.435 221.838 219.742C221.948 219.762 222.025 219.862 222.015 219.974C222.005 220.085 221.912 220.171 221.801 220.171Z" fill="#030F1C"/>
</g>
</g>
<g style="mix-blend-mode:overlay" opacity="0.6">
<g style="mix-blend-mode:overlay" opacity="0.6">
<path d="M159.679 217.146C159.58 217.146 159.493 217.078 159.469 216.982C159.445 216.885 159.491 216.784 159.579 216.738C159.672 216.689 168.923 211.739 168.434 202.844C168.43 202.786 168.45 202.73 168.488 202.687C168.526 202.645 168.58 202.619 168.637 202.616C168.695 202.612 168.751 202.631 168.794 202.67C168.837 202.708 168.862 202.763 168.865 202.82C169.37 211.996 159.875 217.071 159.779 217.122C159.748 217.138 159.714 217.146 159.679 217.146Z" fill="#030F1C"/>
</g>
</g>
<g style="mix-blend-mode:overlay" opacity="0.6">
<g style="mix-blend-mode:overlay" opacity="0.6">
<path d="M160.937 202.681L160.663 206.997C184.688 216.533 222.085 209.878 222.085 209.878L221.965 202.681H160.937Z" fill="#030F1C"/>
</g>
</g>
<g style="mix-blend-mode:overlay" opacity="0.6">
<g style="mix-blend-mode:overlay" opacity="0.6">
<path d="M189.491 247.006L183.738 225.565C183.738 225.565 180.724 237.177 182.018 249.741C183.311 262.305 182.018 265.507 182.018 265.507L189.491 247.006Z" fill="#030F1C"/>
</g>
</g>
<g style="mix-blend-mode:overlay" opacity="0.6">
<g style="mix-blend-mode:overlay" opacity="0.6">
<path d="M159.783 218.356C159.783 218.356 162.325 217.218 163.331 221.247C164.337 225.276 163.145 245.136 161.995 256.361C160.846 267.585 159.462 284.71 159.243 293.633C159.025 302.555 156.61 304.288 156.61 304.288C156.61 304.288 155.864 278.897 156.289 272.327C156.716 265.756 157.822 239.583 159.783 218.356Z" fill="white"/>
</g>
</g>
<g style="mix-blend-mode:overlay" opacity="0.6">
<g style="mix-blend-mode:overlay" opacity="0.6">
<path d="M191.167 257.377C191.167 257.377 199.347 266.906 201.245 279.694C203.143 292.481 204.724 317.857 205.682 324.381C206.64 330.905 208.902 338.124 204.714 338.688L191.167 257.377Z" fill="white"/>
</g>
</g>
<g style="mix-blend-mode:overlay" opacity="0.6">
<g style="mix-blend-mode:overlay" opacity="0.6">
<path d="M179.211 276.386C179.204 276.386 179.197 276.385 179.19 276.385C179.133 276.379 179.081 276.351 179.044 276.307C179.008 276.263 178.99 276.205 178.996 276.149C179.003 276.078 179.654 269.065 176.851 264.387C176.79 264.284 176.823 264.151 176.925 264.09C177.028 264.029 177.16 264.062 177.221 264.165C180.099 268.967 179.433 276.119 179.426 276.191C179.415 276.301 179.322 276.386 179.211 276.386Z" fill="#030F1C"/>
</g>
</g>
<path d="M101.689 349.512C88.8436 349.362 81.2766 337.867 79.0986 332.139C96.1255 335.128 102.374 332.762 103.369 331.205C107.999 338.228 120.483 342.849 126.146 344.281C123.346 346.087 114.534 349.661 101.689 349.512Z" fill="#DEE6EE"/>
<path d="M85.0459 336.619C89.5262 337.304 99.347 337.702 102.782 333.817" stroke="#122746" stroke-width="0.819607" stroke-linecap="round"/>
<path d="M87.874 339.797C92.3549 340.482 102.175 340.881 105.611 336.995" stroke="#122746" stroke-width="0.819607" stroke-linecap="round"/>
<path d="M95.1523 346.59C95.7522 346.762 99.0067 347.619 100.892 346.59C102.777 345.561 102.52 345.819 103.891 346.59C104.987 347.207 105.604 347.761 105.775 347.961H106.118H106.718" stroke="#122746" stroke-width="0.819607" stroke-linecap="round"/>
<path d="M271.318 133.794L260.879 127.023C260.165 126.556 258.189 127.283 257.722 127.997L255.96 130.632C255.593 131.196 255.635 131.933 256.063 132.452L242.732 147.504C242.436 147.84 241.987 147.999 241.546 147.924C241.105 147.849 240.733 147.552 240.564 147.137C238.409 141.867 235.953 136.728 233.205 131.742C228.909 124.023 223.685 116.237 217.61 112.785C217.086 112.386 216.502 112.072 215.881 111.855C212.048 110.511 200.264 108.017 200.264 108.017L185.442 114.692L177.462 109.168C177.462 109.168 162.996 115.404 160.696 118.474C160.614 118.591 160.547 118.72 160.5 118.855C156.733 122.752 154.196 129.502 150.468 136.201C147.073 142.304 143.74 148.491 140.841 151.812C140.395 152.315 139.755 152.601 139.085 152.599C138.414 152.597 137.776 152.307 137.332 151.802C137.332 151.802 131.126 144.853 124.034 136.855C124.436 136.282 124.402 135.509 123.95 134.974L121.514 132.097C120.963 131.447 119.062 131.56 118.412 132.112L108.961 140.208C108.31 140.76 108.445 142.865 108.996 143.516L111.016 145.957C111.435 146.449 112.114 146.627 112.719 146.405C124.132 165.894 129.905 174.757 134.276 176.328C138.128 177.713 142.827 176.436 146.421 172.84C152.862 166.395 158.025 160.472 162.19 155.484C162.583 160.322 162.878 164.5 162.9 167.115C162.957 173.855 162.275 181.654 162.085 190.428C161.996 194.582 158.062 202.748 161.271 205.394C171.629 213.932 222.299 205.394 222.299 205.394C222.218 200.413 221.576 195.456 220.384 190.62C217.941 181.326 218.276 176.613 218.563 171.144C218.68 168.925 219.002 160.666 219.356 151.433C224.067 157.43 228.694 162.776 233.258 167.056C241.736 175.009 246.493 174.25 259.782 153.515C261.368 151.041 265.639 144.743 268.298 140.518C268.978 140.785 269.752 140.537 270.153 139.925L272.214 136.768C272.68 136.054 272.031 134.261 271.318 133.794Z" fill="url(#paint5_linear_3451_219885)"/>
<g style="mix-blend-mode:overlay" opacity="0.6">
<g style="mix-blend-mode:overlay" opacity="0.6">
<path d="M153.34 139.186C152.385 141.588 150.946 144.751 147.783 149.932C144.624 155.111 140.548 159.31 135.428 154.995C131.292 151.507 126.037 144.081 124.464 141.969C122.891 139.862 124.464 137.339 124.464 137.339C131.374 145.128 137.333 151.801 137.333 151.801C137.776 152.305 138.414 152.595 139.085 152.598C139.756 152.601 140.396 152.315 140.842 151.814C143.738 148.491 147.074 142.303 150.466 136.201C150.808 135.581 151.145 134.967 151.465 134.349H151.469C151.469 134.349 154.3 136.789 153.34 139.186Z" fill="#DCE4EF"/>
</g>
</g>
<g style="mix-blend-mode:overlay" opacity="0.6">
<g style="mix-blend-mode:overlay" opacity="0.6">
<path d="M160.649 136.709C156.527 142.069 158.139 154.141 154.731 158.327C151.293 162.551 144.859 165.796 146.421 172.84C152.789 166.131 158.128 160.454 162.192 155.524C161.719 149.69 161.101 142.891 160.649 136.709Z" fill="#030F1C"/>
</g>
</g>
<path d="M136.842 160.412C136.756 160.412 136.677 160.36 136.643 160.28C136.609 160.2 136.626 160.108 136.687 160.045C139.229 157.42 138.846 153.809 138.841 153.773C138.835 153.716 138.851 153.659 138.887 153.614C138.922 153.569 138.975 153.54 139.032 153.533C139.088 153.526 139.146 153.542 139.191 153.578C139.237 153.613 139.265 153.666 139.271 153.723C139.289 153.879 139.685 157.57 136.997 160.346C136.957 160.388 136.901 160.412 136.842 160.412Z" fill="#0B122D"/>
<path d="M161.307 145.819C161.2 145.818 161.11 145.74 161.094 145.634C159.654 136.053 160.337 129.123 160.344 129.054C160.358 128.936 160.463 128.851 160.581 128.86C160.638 128.866 160.69 128.895 160.726 128.939C160.763 128.984 160.779 129.04 160.773 129.098C160.767 129.166 160.089 136.047 161.521 145.57C161.53 145.627 161.515 145.684 161.481 145.731C161.447 145.777 161.396 145.808 161.339 145.816C161.329 145.818 161.318 145.819 161.307 145.819Z" fill="#0B122D"/>
<path d="M167.115 197.552C167.077 197.552 167.04 197.542 167.007 197.523C163.237 195.345 161.931 190.682 161.877 190.485C161.856 190.41 161.877 190.331 161.932 190.276C161.986 190.221 162.065 190.199 162.14 190.218C162.215 190.238 162.274 190.296 162.294 190.371C162.307 190.417 163.61 195.061 167.223 197.148C167.307 197.197 167.349 197.297 167.324 197.391C167.298 197.486 167.213 197.552 167.115 197.552Z" fill="#0B122D"/>
<g style="mix-blend-mode:overlay" opacity="0.6">
<g style="mix-blend-mode:overlay" opacity="0.6">
<path d="M219.548 151.678C216.541 147.861 213.5 143.773 210.418 139.521C210.189 143.084 209.781 153.938 212.323 164.597C216.264 181.122 210.106 192.107 204.001 198.583C198.817 204.081 188.097 205.394 180.4 209.189C195.139 209.999 222.3 205.394 222.3 205.394C222.3 205.394 222.3 196.271 219.704 187.839C217.219 179.189 218.953 158.008 219.548 151.678Z" fill="#030F1C"/>
</g>
</g>
<g style="mix-blend-mode:overlay" opacity="0.6">
<g style="mix-blend-mode:overlay" opacity="0.6">
<path d="M190.987 116.001L207.317 109.598L200.265 108.017L190.987 116.001Z" fill="#030F1C"/>
</g>
</g>
<g style="mix-blend-mode:overlay" opacity="0.6">
<g style="mix-blend-mode:overlay" opacity="0.6">
<path d="M113.191 146.136L123.771 137.152C124.406 136.612 116.211 139.71 114.392 143.449C113.214 145.869 111.291 144.617 110.673 143.532C109.808 142.011 110.634 138.775 110.634 138.775C110.621 138.76 109.088 140.124 109.077 140.109L108.96 140.208C108.31 140.76 108.445 142.865 108.996 143.516L111.017 145.957C111.281 146.269 111.659 146.464 112.067 146.497C112.475 146.531 112.879 146.401 113.191 146.136Z" fill="#030F1C"/>
</g>
</g>
<path d="M243.549 155.745C243.49 155.745 243.434 155.722 243.393 155.679C240.705 152.903 241.101 149.212 241.119 149.057C241.134 148.938 241.241 148.853 241.359 148.867C241.477 148.881 241.562 148.988 241.549 149.106C241.545 149.143 241.162 152.753 243.704 155.378C243.764 155.441 243.781 155.533 243.748 155.613C243.714 155.693 243.636 155.745 243.549 155.745Z" fill="#0B122D"/>
<g style="mix-blend-mode:overlay" opacity="0.6">
<g style="mix-blend-mode:overlay" opacity="0.6">
<path d="M256.407 132.77L268.017 140.372C268.714 140.829 263.418 133.843 259.32 133.159C256.668 132.716 257.321 130.515 258.183 129.613C259.394 128.349 262.726 128.222 262.726 128.222C262.737 128.206 260.995 127.122 261.006 127.107L260.878 127.023C260.165 126.556 258.188 127.283 257.722 127.997L255.959 130.632C255.736 130.975 255.657 131.393 255.741 131.794C255.825 132.195 256.064 132.546 256.407 132.77Z" fill="#030F1C"/>
</g>
</g>
<path d="M213.415 143.199C213.371 143.199 213.328 143.186 213.292 143.161C207.112 138.864 207.093 129.512 207.094 129.418C207.092 129.36 207.115 129.305 207.156 129.264C207.197 129.223 207.253 129.201 207.311 129.204C207.43 129.204 207.526 129.301 207.526 129.421C207.525 129.513 207.548 138.64 213.538 142.805C213.616 142.859 213.65 142.957 213.621 143.047C213.593 143.138 213.51 143.199 213.415 143.199Z" fill="#0B122D"/>
<path fill-rule="evenodd" clip-rule="evenodd" d="M187.529 110.375C195.783 105.199 198.294 100.63 198.294 100.63L200.264 108.017L190.987 116C190.6 114.979 190.126 113.993 189.573 113.051L185.441 114.692L183.031 113.024L180.654 116.165L177.462 109.168L180.624 105.427C180.624 105.427 180.821 108.484 184.509 110.164L185.441 114.692L187.529 110.375Z" fill="#2D2B72"/>
<g style="mix-blend-mode:overlay" opacity="0.6">
<g style="mix-blend-mode:overlay" opacity="0.6">
<path d="M187.53 110.375L185.441 114.692L189.573 113.051C189.038 112.056 188.348 111.153 187.53 110.375Z" fill="#030F1C"/>
</g>
</g>
<g style="mix-blend-mode:overlay" opacity="0.6">
<g style="mix-blend-mode:overlay" opacity="0.6">
<path d="M184.509 110.164L185.442 114.693L183.031 113.024L184.509 110.164Z" fill="#030F1C"/>
</g>
</g>
<path fill-rule="evenodd" clip-rule="evenodd" d="M293.282 98.1108C293.677 97.5864 295.248 97.4296 295.248 97.4296C295.248 97.4296 294.057 101.698 294.347 105.431C294.549 108.023 293.68 109.559 292.869 110.99C292.513 111.619 292.168 112.228 291.931 112.898C291.154 115.091 289.358 117.666 284.447 118.363C280.258 118.956 274.4 126.77 270.277 133.119L262.854 128.304L273.098 116.549C273.098 116.549 273.425 114.71 275.765 112.528C277.576 110.84 281.731 110.449 283.521 110.359C284.091 110.331 284.646 110.16 285.133 109.863L287.836 108.216C288.21 107.988 288.45 107.59 288.478 107.153C288.61 105.609 288.573 104.055 288.368 102.518C287.989 100.585 289.92 100.206 289.92 100.206L290.947 108.147C290.947 108.147 291.457 102.055 291.407 100.015C291.351 99.4988 291.53 98.986 291.893 98.6167C292.257 98.2474 292.766 98.0616 293.282 98.1108ZM103.719 115.911C101.908 114.222 97.7524 113.832 95.9638 113.742C95.3928 113.714 94.8386 113.543 94.3504 113.246L91.6483 111.599C91.2741 111.371 91.034 110.974 91.0062 110.535C90.8743 108.991 90.9108 107.437 91.1161 105.901C91.4945 103.968 89.5647 103.589 89.5647 103.589L88.5373 111.529C88.5373 111.529 88.0265 105.438 88.0768 103.397C88.1329 102.882 87.9542 102.369 87.5909 102C87.2276 101.631 86.7174 101.445 86.2026 101.494C85.8069 100.97 84.2363 100.813 84.2363 100.813C84.2363 100.813 85.4274 105.081 85.1364 108.813C84.9345 111.407 85.804 112.942 86.6144 114.373C86.9708 115.002 87.3155 115.611 87.5533 116.281C88.3302 118.474 90.1258 121.049 95.0365 121.745C99.7412 122.412 106.553 132.188 110.645 138.765L117.603 132.805L106.386 119.931C106.386 119.931 106.059 118.093 103.719 115.911ZM185.442 114.693L186.839 111.805L184.897 112.048L185.442 114.693Z" fill="url(#paint6_linear_3451_219885)"/>
<path d="M86.3613 102.023C86.3642 101.966 86.3445 101.91 86.3064 101.868C86.2682 101.825 86.2144 101.799 86.1577 101.796C86.0998 101.791 86.0426 101.81 85.9998 101.849C85.9564 101.887 85.9315 101.942 85.9298 102C85.9147 102.28 85.5653 108.885 86.0547 110.513C86.0767 110.588 86.1369 110.645 86.2121 110.663C86.2879 110.681 86.3671 110.657 86.4203 110.6C86.473 110.543 86.4915 110.462 86.4683 110.388C86.0009 108.833 86.3579 102.091 86.3613 102.023Z" fill="#0B122D"/>
<path d="M88.8949 113.115C88.855 113.002 88.7318 112.943 88.619 112.983C88.5062 113.023 88.4472 113.147 88.4871 113.26C88.5212 113.355 89.3259 115.609 90.2318 116.303C90.2931 116.351 90.3752 116.361 90.447 116.332C90.5181 116.302 90.5684 116.236 90.5783 116.159C90.5881 116.082 90.5563 116.006 90.4944 115.959C89.6903 115.343 88.9024 113.137 88.8949 113.115Z" fill="#0B122D"/>
<path d="M100.082 116.624C95.2952 116.38 91.6023 112.032 91.5647 111.988C91.4883 111.897 91.3524 111.885 91.261 111.962C91.1696 112.039 91.1574 112.175 91.2338 112.266C91.3888 112.451 95.0818 116.802 100.06 117.056H100.071C100.187 117.056 100.283 116.963 100.286 116.846C100.289 116.729 100.198 116.63 100.082 116.624Z" fill="#0B122D"/>
<path d="M293.553 98.6173C293.551 98.5594 293.527 98.5038 293.483 98.4651C293.44 98.4263 293.383 98.4078 293.325 98.413C293.268 98.4164 293.214 98.4419 293.176 98.4847C293.138 98.5276 293.118 98.5837 293.121 98.641C293.125 98.7087 293.482 105.449 293.014 107.006C292.997 107.061 293.004 107.12 293.031 107.171C293.058 107.221 293.104 107.259 293.159 107.275C293.179 107.281 293.2 107.284 293.221 107.284C293.316 107.284 293.401 107.222 293.428 107.13C293.917 105.502 293.568 98.898 293.553 98.6173Z" fill="#0B122D"/>
<path d="M290.865 109.601C290.752 109.561 290.629 109.62 290.589 109.732C290.581 109.755 289.793 111.96 288.989 112.576C288.895 112.649 288.876 112.785 288.949 112.88C289.021 112.975 289.157 112.993 289.251 112.921C290.158 112.226 290.963 109.972 290.996 109.877C291.036 109.764 290.977 109.641 290.865 109.601Z" fill="#0B122D"/>
<path d="M287.918 108.605C287.881 108.649 284.188 112.997 279.402 113.241C279.285 113.247 279.194 113.346 279.197 113.462C279.2 113.58 279.296 113.673 279.413 113.674L279.424 113.673C284.402 113.42 288.095 109.068 288.25 108.883C288.326 108.791 288.314 108.655 288.223 108.579C288.131 108.502 287.995 108.514 287.918 108.605Z" fill="#0B122D"/>
<path d="M282.865 364.452C297.129 364.287 305.531 351.523 307.95 345.162C289.043 348.481 282.105 345.853 280.999 344.125C275.858 351.924 261.996 357.054 255.707 358.645C258.816 360.649 268.602 364.618 282.865 364.452Z" fill="#ACDBF7" fill-opacity="0.48"/>
<path d="M301.346 350.137C296.371 350.897 285.466 351.339 281.651 347.025" stroke="#122746" stroke-width="0.819607" stroke-linecap="round"/>
<path d="M298.206 353.666C293.231 354.427 282.326 354.87 278.512 350.555" stroke="#122746" stroke-width="0.819607" stroke-linecap="round"/>
<path d="M290.122 361.209C289.457 361.399 285.842 362.351 283.749 361.209C281.656 360.067 281.942 360.352 280.419 361.209C279.202 361.894 278.517 362.509 278.327 362.731H277.946H277.28" stroke="#122746" stroke-width="0.819607" stroke-linecap="round"/>
<path d="M60.0179 425.561C82.1388 425.304 95.1701 405.509 98.9203 395.644C69.5986 400.791 58.8389 396.716 57.1239 394.035C49.1504 406.131 27.652 414.088 17.8994 416.554C22.7221 419.664 37.8976 425.819 60.0179 425.561Z" fill="#D1E7F5"/>
<path d="M88.6783 403.359C80.962 404.539 64.0503 405.224 58.1348 398.533" stroke="#122746" stroke-width="0.819607" stroke-linecap="round"/>
<path d="M83.8094 408.833C76.0931 410.013 59.1813 410.699 53.2656 404.008" stroke="#122746" stroke-width="0.819607" stroke-linecap="round"/>
<path d="M71.2724 420.53C70.2399 420.825 64.6344 422.302 61.388 420.53C58.1422 418.759 58.5847 419.202 56.224 420.53C54.3356 421.593 53.2734 422.547 52.9783 422.892H52.3882H51.3555" stroke="#122746" stroke-width="0.819607" stroke-linecap="round"/>
<path d="M242.47 412.559C226.704 412.376 217.416 398.267 214.743 391.236C235.642 394.905 243.311 392 244.533 390.09C250.215 398.711 265.538 404.382 272.489 406.14C269.052 408.356 258.236 412.743 242.47 412.559Z" fill="#DEE6EE"/>
<path d="M222.043 396.735C227.543 397.576 239.596 398.065 243.812 393.296" stroke="#122746" stroke-width="0.819607" stroke-linecap="round"/>
<path d="M225.513 400.637C231.012 401.477 243.066 401.966 247.282 397.198" stroke="#122746" stroke-width="0.819607" stroke-linecap="round"/>
<path d="M234.447 408.973C235.184 409.184 239.179 410.236 241.492 408.973C243.806 407.711 243.49 408.026 245.173 408.973C246.518 409.731 247.276 410.411 247.486 410.656H247.907H248.642" stroke="#122746" stroke-width="0.819607" stroke-linecap="round"/>
<path d="M217.85 40.0081C217.445 39.9232 217.144 39.7062 216.947 39.3571C216.751 39.0079 216.707 38.5752 216.815 38.0587C217.293 35.7717 218.108 33.9016 219.258 32.4484C220.446 31.0029 222.014 29.4832 223.964 27.8893C225.549 26.5656 226.752 25.4122 227.573 24.4291C228.432 23.4537 229.003 22.2836 229.289 20.9187C229.621 19.3326 229.308 17.9772 228.35 16.8526C227.4 15.6912 225.948 14.9058 223.994 14.4967C222.335 14.1494 220.736 14.161 219.196 14.5316C217.664 14.8654 215.874 15.511 213.827 16.4684C213.107 16.7798 212.545 16.8931 212.14 16.8082C211.697 16.7155 211.367 16.4539 211.149 16.0233C210.976 15.5635 210.943 15.0754 211.052 14.559C211.206 13.8212 211.636 13.2374 212.342 12.8077C214.109 11.7147 216.129 10.9825 218.4 10.6109C220.716 10.2102 222.924 10.2299 225.025 10.6699C228.233 11.3414 230.647 12.6749 232.269 14.6701C233.928 16.6732 234.488 18.9657 233.948 21.5478C233.539 23.5028 232.761 25.1108 231.612 26.3719C230.507 27.6038 228.907 29.0013 226.81 30.5643C224.846 32.0399 223.276 33.3858 222.098 34.6023C220.964 35.7896 220.117 37.2677 219.555 39.0365C219.432 39.4346 219.22 39.7173 218.915 39.8845C218.611 40.0518 218.256 40.093 217.85 40.0081ZM215.776 50.2006C214.891 50.0153 214.216 49.5658 213.75 48.8521C213.32 48.1462 213.198 47.3505 213.383 46.4652C213.568 45.5799 213.999 44.9001 214.675 44.4257C215.396 43.9221 216.199 43.7629 217.084 43.9482C217.969 44.1334 218.622 44.5975 219.044 45.3404C219.511 46.0541 219.651 46.8536 219.466 47.7389C219.281 48.6242 218.831 49.3002 218.118 49.7669C217.442 50.2413 216.661 50.3858 215.776 50.2006Z" fill="#27303F"/>
<path d="M236.881 67.7201C236.605 67.6072 236.421 67.4145 236.328 67.1419C236.235 66.8693 236.26 66.5579 236.404 66.2065C237.04 64.6519 237.861 63.4364 238.864 62.5595C239.892 61.6924 241.199 60.8231 242.786 59.9508C244.079 59.2221 245.081 58.564 245.79 57.9759C246.524 57.3987 247.081 56.6461 247.461 55.7185C247.902 54.6404 247.859 53.6412 247.328 52.7209C246.808 51.7756 245.884 51.0305 244.556 50.4859C243.428 50.0235 242.296 49.8226 241.159 49.8834C240.032 49.9192 238.682 50.1417 237.11 50.551C236.561 50.6772 236.148 50.6838 235.873 50.5707C235.572 50.4474 235.373 50.2193 235.275 49.8863C235.212 49.5386 235.253 49.1892 235.397 48.8382C235.602 48.3368 235.982 47.9802 236.538 47.7686C237.93 47.2269 239.453 46.9732 241.108 47.0073C242.797 47.0267 244.356 47.3292 245.785 47.915C247.964 48.809 249.498 50.0674 250.384 51.6901C251.296 53.3232 251.392 55.0172 250.673 56.7723C250.128 58.101 249.368 59.1364 248.391 59.8779C247.45 60.6043 246.136 61.3834 244.449 62.2139C242.868 63.0011 241.582 63.7472 240.59 64.4533C239.634 65.1444 238.841 66.0786 238.213 67.2559C238.075 67.5216 237.887 67.6935 237.65 67.7722C237.414 67.8503 237.157 67.833 236.881 67.7201ZM234.084 74.6553C233.483 74.4088 233.064 74.003 232.827 73.437C232.616 72.8819 232.633 72.3037 232.879 71.7017C233.126 71.0997 233.52 70.6755 234.06 70.4283C234.635 70.1667 235.224 70.1592 235.825 70.4058C236.427 70.6523 236.828 71.0662 237.029 71.6461C237.265 72.2116 237.261 72.7956 237.014 73.397C236.768 73.999 236.362 74.418 235.797 74.6548C235.256 74.9019 234.685 74.9019 234.084 74.6553Z" fill="#27303F"/>
<path d="M194.689 34.5873C194.512 34.635 194.349 34.6093 194.201 34.5102C194.053 34.4113 193.949 34.2486 193.889 34.0222C193.62 33.0198 193.568 32.1152 193.734 31.3085C193.915 30.4974 194.232 29.5806 194.685 28.5579C195.048 27.7154 195.294 27.0169 195.423 26.4625C195.568 25.9039 195.56 25.3254 195.4 24.7272C195.214 24.032 194.818 23.5575 194.214 23.3037C193.605 23.0338 192.872 23.0137 192.015 23.2433C191.288 23.4382 190.656 23.7635 190.12 24.2192C189.58 24.6587 189 25.2734 188.38 26.0634C188.157 26.3311 187.957 26.4888 187.779 26.5364C187.586 26.5884 187.402 26.5509 187.23 26.4239C187.069 26.2763 186.958 26.0894 186.898 25.863C186.811 25.5397 186.864 25.222 187.058 24.9102C187.54 24.1225 188.194 23.4274 189.02 22.8248C189.857 22.2016 190.737 21.7666 191.657 21.5196C193.063 21.1427 194.288 21.1871 195.33 21.6527C196.389 22.114 197.07 22.9105 197.373 24.0423C197.602 24.8992 197.616 25.6928 197.413 26.4229C197.222 27.1327 196.867 28.0075 196.349 29.0475C195.866 30.0261 195.514 30.8745 195.29 31.5929C195.079 32.2908 195.039 33.0467 195.17 33.8605C195.202 34.0427 195.174 34.1975 195.087 34.3248C194.999 34.4522 194.867 34.5396 194.689 34.5873ZM195.909 39.0432C195.52 39.1472 195.163 39.1045 194.835 38.9151C194.523 38.7214 194.316 38.4305 194.212 38.0425C194.108 37.6545 194.143 37.2986 194.316 36.975C194.501 36.6307 194.787 36.4067 195.175 36.3027C195.563 36.1987 195.914 36.2517 196.23 36.4616C196.558 36.6509 196.774 36.9396 196.878 37.3277C196.982 37.7157 196.939 38.0738 196.75 38.4018C196.577 38.7254 196.296 38.9392 195.909 39.0432Z" fill="#27303F"/>
<defs>
<linearGradient id="paint0_linear_3451_219885" x1="193.578" y1="344.715" x2="193.578" y2="-1.16366" gradientUnits="userSpaceOnUse">
<stop stop-color="white" stop-opacity="0"/>
<stop offset="1" stop-color="#E3EFF9"/>
</linearGradient>
<linearGradient id="paint1_linear_3451_219885" x1="188.131" y1="69.203" x2="188.131" y2="118.578" gradientUnits="userSpaceOnUse">
<stop stop-color="#E2B291"/>
<stop offset="1" stop-color="#F7B487"/>
</linearGradient>
<linearGradient id="paint2_linear_3451_219885" x1="187.438" y1="56.7629" x2="187.438" y2="99.1972" gradientUnits="userSpaceOnUse">
<stop stop-color="#2D3748"/>
<stop offset="1" stop-color="#1A202C"/>
</linearGradient>
<linearGradient id="paint3_linear_3451_219885" x1="188.989" y1="348.797" x2="188.989" y2="361.258" gradientUnits="userSpaceOnUse">
<stop stop-color="#E2B291"/>
<stop offset="1" stop-color="#F7B487"/>
</linearGradient>
<linearGradient id="paint4_linear_3451_219885" x1="189.128" y1="202.681" x2="189.128" y2="355.511" gradientUnits="userSpaceOnUse">
<stop stop-color="#2C5282"/>
<stop offset="1" stop-color="#2A4365"/>
</linearGradient>
<linearGradient id="paint5_linear_3451_219885" x1="190.449" y1="108.017" x2="190.449" y2="209.189" gradientUnits="userSpaceOnUse">
<stop stop-color="#81E6D9"/>
<stop offset="1" stop-color="#319795"/>
</linearGradient>
<linearGradient id="paint6_linear_3451_219885" x1="189.742" y1="97.4296" x2="189.742" y2="138.765" gradientUnits="userSpaceOnUse">
<stop stop-color="#E2B291"/>
<stop offset="1" stop-color="#F7B487"/>
</linearGradient>
</defs>
</svg>
