<svg width="18" height="17" viewBox="0 0 18 17" fill="none" xmlns="http://www.w3.org/2000/svg">
<path d="M9.76465 8C9.86816 8 9.96984 8.00786 10.0691 8.02303C8.67398 9.02062 7.76465 10.6541 7.76465 12.5C7.76465 13.3244 7.94605 14.1065 8.27111 14.8085C7.66832 14.9334 6.99698 15 6.26465 15C2.85269 15 0.764648 13.5544 0.764648 11.5V10C0.764648 8.89543 1.66008 8 2.76465 8H9.76465ZM15.7646 4.5C15.7646 5.88071 14.6454 7 13.2646 7C11.8839 7 10.7646 5.88071 10.7646 4.5C10.7646 3.11929 11.8839 2 13.2646 2C14.6454 2 15.7646 3.11929 15.7646 4.5ZM6.26465 0C8.19765 0 9.76465 1.567 9.76465 3.5C9.76465 5.433 8.19765 7 6.26465 7C4.33165 7 2.76465 5.433 2.76465 3.5C2.76465 1.567 4.33165 0 6.26465 0ZM17.7646 12.5C17.7646 14.9853 15.7499 17 13.2646 17C10.7794 17 8.76465 14.9853 8.76465 12.5C8.76465 10.0147 10.7794 8 13.2646 8C15.7499 8 17.7646 10.0147 17.7646 12.5ZM13.7646 10.5C13.7646 10.2239 13.5408 10 13.2646 10C12.9885 10 12.7646 10.2239 12.7646 10.5V12H11.2646C10.9885 12 10.7646 12.2239 10.7646 12.5C10.7646 12.7761 10.9885 13 11.2646 13H12.7646V14.5C12.7646 14.7761 12.9885 15 13.2646 15C13.5408 15 13.7646 14.7761 13.7646 14.5V13H15.2646C15.5408 13 15.7646 12.7761 15.7646 12.5C15.7646 12.2239 15.5408 12 15.2646 12H13.7646V10.5Z" fill="#319795"/>
</svg>
