<svg width="16" height="16" viewBox="0 0 16 16" fill="none" xmlns="http://www.w3.org/2000/svg">
<g clip-path="url(#clip0_1963_73797)">
<path d="M4.49978 0.357V12.822L0.180101 15.8604C-0.287613 16.1892 -0.921354 15.8937 -0.994294 15.3514L-1.00122 15.2469V4.61434C-1.00122 4.40502 -0.913869 4.20693 -0.763101 4.06617L-0.682543 4.00077L4.49978 0.357ZM16.9942 0.646819L17.0011 0.751309V11.3838C17.0011 11.5932 16.9138 11.7912 16.763 11.932L16.6824 11.9974L11.4998 15.639V3.173L15.8198 0.137744C16.2875 -0.191048 16.9213 0.104479 16.9942 0.646819ZM5.99978 0.358L9.99978 3.17V15.637L5.99978 12.823V0.358Z" fill="#A0AEC0"/>
</g>
<defs>
<clipPath id="clip0_1963_73797">
<rect width="16" height="16" fill="white"/>
</clipPath>
</defs>
</svg>
