<svg width="13" height="12" viewBox="0 0 13 12" fill="none" xmlns="http://www.w3.org/2000/svg">
<path d="M6.35337 11.8537C6.15846 12.0493 5.84188 12.0499 5.64627 11.855L0.161785 6.39C-0.0539287 6.17505 -0.0539278 5.82574 0.161785 5.6108L5.64627 0.145817C5.84188 -0.0490969 6.15846 -0.0485323 6.35337 0.147077C6.54829 0.342687 6.54772 0.659269 6.35212 0.854182L1.18753 6.0004L6.35211 11.1466C6.54772 11.3415 6.54829 11.6581 6.35337 11.8537Z" fill="#E53E3E"/>
<path d="M12.3534 11.8537C12.1585 12.0493 11.8419 12.0499 11.6463 11.855L6.16178 6.39C5.94607 6.17505 5.94607 5.82574 6.16178 5.6108L11.6463 0.145817C11.8419 -0.0490969 12.1585 -0.0485323 12.3534 0.147077C12.5483 0.342687 12.5477 0.659269 12.3521 0.854182L7.18753 6.0004L12.3521 11.1466C12.5477 11.3415 12.5483 11.6581 12.3534 11.8537Z" fill="#E53E3E"/>
</svg>
