<svg width="21" height="18" viewBox="0 0 21 18" fill="none" xmlns="http://www.w3.org/2000/svg">
<path d="M17.4189 1.5C16.5905 1.5 15.9189 2.17157 15.9189 3C15.9189 3.82843 16.5905 4.5 17.4189 4.5C18.2474 4.5 18.9189 3.82843 18.9189 3C18.9189 2.17157 18.2474 1.5 17.4189 1.5ZM14.4189 3C14.4189 1.34315 15.7621 0 17.4189 0C19.0758 0 20.4189 1.34315 20.4189 3C20.4189 4.65685 19.0758 6 17.4189 6C17.2572 6 17.0984 5.98719 16.9435 5.96254L14.9054 9.32094C15.2296 9.80008 15.4189 10.3779 15.4189 11C15.4189 12.6569 14.0758 14 12.4189 14C11.5161 14 10.7064 13.6012 10.1564 12.9701L6.41478 14.8406C6.41755 14.8934 6.41895 14.9465 6.41895 15C6.41895 16.6569 5.0758 18 3.41895 18C1.76209 18 0.418945 16.6569 0.418945 15C0.418945 13.3431 1.76209 12 3.41895 12C4.48511 12 5.42137 12.5562 5.95344 13.3942L9.48494 11.6287C9.4417 11.426 9.41895 11.2156 9.41895 11C9.41895 9.34315 10.7621 8 12.4189 8C12.9012 8 13.3569 8.1138 13.7607 8.31602L15.5585 5.35358C14.8643 4.80411 14.4189 3.95406 14.4189 3ZM12.4189 9.5C11.5905 9.5 10.9189 10.1716 10.9189 11C10.9189 11.8284 11.5905 12.5 12.4189 12.5C13.2474 12.5 13.9189 11.8284 13.9189 11C13.9189 10.1716 13.2474 9.5 12.4189 9.5ZM3.41895 13.5C2.59052 13.5 1.91895 14.1716 1.91895 15C1.91895 15.8284 2.59052 16.5 3.41895 16.5C4.24737 16.5 4.91895 15.8284 4.91895 15C4.91895 14.1716 4.24737 13.5 3.41895 13.5Z" fill="#718096"/>
</svg>
