<svg width="33" height="30" viewBox="0 0 33 30" fill="none" xmlns="http://www.w3.org/2000/svg">
<path d="M5.972 12.69L12.1798 18.8973C12.8632 19.5808 12.8632 20.6888 12.1798 21.3722C11.5366 22.0154 10.5173 22.0533 9.82979 21.4857L9.70495 21.3722L0.512563 12.1798C-0.130654 11.5366 -0.168489 10.5173 0.399055 9.82979L0.512563 9.70495L9.70495 0.512563C10.3884 -0.170854 11.4964 -0.170854 12.1798 0.512563C12.823 1.15578 12.8609 2.17513 12.2933 2.8626L12.1798 2.98744L5.976 9.19H13.75C17.092 9.19 20.205 9.93343 22.9069 11.3572L23.3091 11.5758C26.0716 13.1247 28.3153 15.3684 29.8642 18.1309C31.4304 20.9242 32.25 24.1809 32.25 27.69C32.25 28.6565 31.4665 29.44 30.5 29.44C29.5335 29.44 28.75 28.6565 28.75 27.69C28.75 24.77 28.0789 22.1033 26.8113 19.8426C25.5776 17.6421 23.7979 15.8625 21.5974 14.6287C19.4623 13.4315 16.9651 12.7664 14.2343 12.6962L13.75 12.69H5.972L12.1798 18.8973L5.972 12.69Z" fill="#38B2AC"/>
</svg>
