<svg width="24" height="23" viewBox="0 0 24 23" fill="none" xmlns="http://www.w3.org/2000/svg">
<path d="M12 0C10.8604 0 10.0974 0.825569 9.67603 1.55249C9.2421 2.30105 9 3.21458 9 3.93421C9 4.53242 9.0754 5.35482 9.519 6.0476C10.0106 6.8153 10.8452 7.26316 12 7.26316C13.1548 7.26316 13.9894 6.8153 14.481 6.0476C14.9246 5.35482 15 4.53242 15 3.93421C15 3.21458 14.7579 2.30105 14.324 1.55249C13.9026 0.825569 13.1396 0 12 0ZM10.8 3.93421C10.8 3.55984 10.9452 2.96022 11.2299 2.46911C11.5271 1.95638 11.8142 1.81579 12 1.81579C12.1858 1.81579 12.4729 1.95638 12.7701 2.46911C13.0548 2.96022 13.2 3.55984 13.2 3.93421C13.2 4.43 13.1254 4.81813 12.969 5.06237C12.8606 5.2317 12.6452 5.44737 12 5.44737C11.3548 5.44737 11.1394 5.2317 11.031 5.06237C10.8746 4.81813 10.8 4.43 10.8 3.93421ZM22.2 11.1974V21.1842H23.1C23.5971 21.1842 24 21.5907 24 22.0921C24 22.5935 23.5971 23 23.1 23H0.9C0.402944 23 0 22.5935 0 22.0921C0 21.5907 0.402944 21.1842 0.9 21.1842H1.8V11.1974C1.8 9.69312 3.00883 8.47368 4.5 8.47368H19.5C20.9912 8.47368 22.2 9.69312 22.2 11.1974ZM3.6 11.1974V13.729L6.53681 15.6403C7.03189 15.9625 7.66811 15.9625 8.16319 15.6403L10.2601 14.2756C11.3144 13.5894 12.6633 13.5658 13.7407 14.2146L16.1507 15.6661C16.6586 15.9719 17.2972 15.9482 17.7813 15.6055L20.4 13.7517V11.1974C20.4 10.696 19.9971 10.2895 19.5 10.2895H4.5C4.00294 10.2895 3.6 10.696 3.6 11.1974ZM18.8153 17.0918C17.7502 17.8458 16.3453 17.898 15.228 17.2252L12.818 15.7737C12.3283 15.4788 11.7151 15.4895 11.2359 15.8014L9.13902 17.1661C8.04984 17.875 6.65016 17.875 5.56098 17.1661L3.6 15.8899V21.1842H20.4V15.9699L18.8153 17.0918Z" fill="#38B2AC"/>
</svg>
