<svg width="24" height="25" viewBox="0 0 24 25" fill="none" xmlns="http://www.w3.org/2000/svg">
<path d="M21 8.75369V18.0037C21 19.7986 19.5449 21.2537 17.75 21.2537H6.25C4.45507 21.2537 3 19.7986 3 18.0037V8.75369H21ZM7.25 15.2537C6.55964 15.2537 6 15.8133 6 16.5037C6 17.194 6.55964 17.7537 7.25 17.7537C7.94036 17.7537 8.5 17.194 8.5 16.5037C8.5 15.8133 7.94036 15.2537 7.25 15.2537ZM12 15.2537C11.3096 15.2537 10.75 15.8133 10.75 16.5037C10.75 17.194 11.3096 17.7537 12 17.7537C12.6904 17.7537 13.25 17.194 13.25 16.5037C13.25 15.8133 12.6904 15.2537 12 15.2537ZM7.25 10.7537C6.55964 10.7537 6 11.3133 6 12.0037C6 12.694 6.55964 13.2537 7.25 13.2537C7.94036 13.2537 8.5 12.694 8.5 12.0037C8.5 11.3133 7.94036 10.7537 7.25 10.7537ZM12 10.7537C11.3096 10.7537 10.75 11.3133 10.75 12.0037C10.75 12.694 11.3096 13.2537 12 13.2537C12.6904 13.2537 13.25 12.694 13.25 12.0037C13.25 11.3133 12.6904 10.7537 12 10.7537ZM16.75 10.7537C16.0596 10.7537 15.5 11.3133 15.5 12.0037C15.5 12.694 16.0596 13.2537 16.75 13.2537C17.4404 13.2537 18 12.694 18 12.0037C18 11.3133 17.4404 10.7537 16.75 10.7537ZM17.75 3.25369C19.5449 3.25369 21 4.70877 21 6.50369V7.25369H3V6.50369C3 4.70877 4.45507 3.25369 6.25 3.25369H17.75Z" fill="#718096"/>
</svg>
