<svg width="23" height="22" viewBox="0 0 23 22" fill="none" xmlns="http://www.w3.org/2000/svg">
<path d="M22.8948 6.5V18.75C22.8948 20.5449 21.4397 22 19.6448 22H4.14478C2.34985 22 0.894775 20.5449 0.894775 18.75V6.5H22.8948ZM6.63603 14.5014C5.94567 14.5014 5.38603 15.0611 5.38603 15.7514C5.38603 16.4418 5.94567 17.0014 6.63603 17.0014C7.32638 17.0014 7.88603 16.4418 7.88603 15.7514C7.88603 15.0611 7.32638 14.5014 6.63603 14.5014ZM11.8905 14.5014C11.2002 14.5014 10.6405 15.0611 10.6405 15.7514C10.6405 16.4418 11.2002 17.0014 11.8905 17.0014C12.5809 17.0014 13.1405 16.4418 13.1405 15.7514C13.1405 15.0611 12.5809 14.5014 11.8905 14.5014ZM6.63603 9.50141C5.94567 9.50141 5.38603 10.0611 5.38603 10.7514C5.38603 11.4418 5.94567 12.0014 6.63603 12.0014C7.32638 12.0014 7.88603 11.4418 7.88603 10.7514C7.88603 10.0611 7.32638 9.50141 6.63603 9.50141ZM11.8905 9.50141C11.2002 9.50141 10.6405 10.0611 10.6405 10.7514C10.6405 11.4418 11.2002 12.0014 11.8905 12.0014C12.5809 12.0014 13.1405 11.4418 13.1405 10.7514C13.1405 10.0611 12.5809 9.50141 11.8905 9.50141ZM17.145 9.50141C16.4546 9.50141 15.895 10.0611 15.895 10.7514C15.895 11.4418 16.4546 12.0014 17.145 12.0014C17.8353 12.0014 18.395 11.4418 18.395 10.7514C18.395 10.0611 17.8353 9.50141 17.145 9.50141ZM19.6448 0C21.4397 0 22.8948 1.45507 22.8948 3.25V5H0.894775V3.25C0.894775 1.45507 2.34985 0 4.14478 0H19.6448Z" fill="white"/>
</svg>
