<svg width="570" height="281" viewBox="0 0 570 281" fill="none" xmlns="http://www.w3.org/2000/svg">
<g filter="url(#filter0_dd_1152_214394)">
<rect x="20" y="16" width="530" height="241" rx="10" fill="#EDF5FB"/>
<mask id="mask0_1152_214394" style="mask-type:alpha" maskUnits="userSpaceOnUse" x="20" y="16" width="530" height="241">
<rect x="20" y="16" width="530" height="241" rx="10" fill="#EDF5FB"/>
</mask>
<g mask="url(#mask0_1152_214394)">
<ellipse cx="49.7507" cy="197.283" rx="79.3347" ry="66.115" fill="#D2ECFF"/>
<ellipse cx="285" cy="167.958" rx="8.26404" ry="7.99779" fill="#D2ECFF"/>
<path d="M200.496 20.6275C193.298 1.11522 178.124 5.53073 169.303 18.2726C164.87 24.6646 161.305 32.7807 157.558 40.4342C154.153 47.3728 149.88 56.7505 144.395 57.4654C141.973 57.7598 140.35 54.732 138.202 53.4704C132.055 49.8539 126.525 61.124 125.588 71.4268C123.691 92.453 134.477 104.9 143.938 110.199C166.173 122.647 196.908 102.756 202.987 58.0962C204.655 46.0692 204.427 31.2247 200.496 20.6275Z" fill="#D2ECFF"/>
<path opacity="0.52" d="M448.698 279.752C455.37 278.342 462.175 273.43 465.432 261.985C465.449 261.968 465.439 261.932 465.456 261.915C468.848 250.019 467.373 232.2 463.004 220.641C461.478 216.629 459.376 213.32 457.015 212.315C451.58 210.004 447.273 221.479 441.89 216.885C437.573 213.202 435.991 203.459 432.412 198.004C429.038 192.847 424.443 191.714 420.814 194.552C407.617 204.971 412.074 240.63 420.131 259.815C425.909 273.587 434.849 279.788 443.085 280.211C444.878 280.271 446.77 280.143 448.698 279.752Z" fill="#D2ECFF"/>
</g>
<path d="M379.795 145.637C379.795 194.185 417.624 233.54 464.29 233.54C510.955 233.54 548.785 194.185 548.785 145.637C548.785 97.0902 510.955 57.7349 464.29 57.7349C417.624 57.7349 379.795 97.0902 379.795 145.637Z" fill="url(#paint0_linear_1152_214394)"/>
<rect width="148.272" height="124.064" transform="matrix(-1 0 0 1 483.412 38.0274)" fill="url(#paint1_linear_1152_214394)"/>
<path opacity="0.26" d="M335.137 113.45L336.924 113.096V107.466H340.574V92.3015C343.228 92.303 345.38 94.5716 345.381 97.3707V97.4197H348.581V110.767L350.663 110.353V131.469H353.456V97.9018L359.965 90.3266L366.471 97.9018V113.543H368.935V123.643H383.256V141.051H386.461V103.815H400.774V121.521H403.958V103.249C404.591 102.704 405.227 102.203 405.862 101.743V94.7094H408.559V93.5408H410.01V87.935L410.411 83.1954C410.422 83.088 410.508 83.007 410.611 83.007C410.713 83.007 410.799 83.088 410.811 83.1954L411.214 87.935V93.5408H412.663V94.7094H418.973V98.4739C421.887 99.1367 424.801 100.724 427.714 103.235V135.936H438.586V121.518H445.302V110.138H448.613V97.0465L465.775 103.856V108.37H467.702V144.001H471.811V113.6L481.089 109.459V149.7H483.21V119.669L483.414 119.527V159.841H335.15L335.137 113.45Z" fill="#3268AE"/>
<path fill-rule="evenodd" clip-rule="evenodd" d="M324.559 160.241H332.417V35.9681H484.414V161.323H484.447V175.277H332.355V165.169H324.559V160.241ZM403.512 41.0946H342.036V160.13H403.512V41.0946ZM413.327 41.0946H474.802V160.13H413.327V41.0946Z" fill="url(#paint2_linear_1152_214394)"/>
<g style="mix-blend-mode:overlay" opacity="0.6">
<rect width="4.75789" height="119.046" transform="matrix(-1 0 0 1 413.318 41.0945)" fill="#231F20"/>
</g>
<g style="mix-blend-mode:overlay" opacity="0.6">
<rect width="4.75789" height="119.046" transform="matrix(-1 0 0 1 342.035 41.0945)" fill="#231F20"/>
</g>
<g style="mix-blend-mode:screen">
<path d="M408.368 98.5392L474.723 155.292V158.264L408.368 101.508V98.5392Z" fill="#231F20"/>
</g>
<g style="mix-blend-mode:screen">
<path d="M403.264 125.348V158.354L337.273 101.911V68.9058L403.264 125.348Z" fill="#231F20"/>
</g>
<g style="mix-blend-mode:screen">
<path d="M474.723 125.351L409.055 69.1836C408.797 57.8575 408.538 41.1027 408.538 41.1027H431.878L474.891 78.5266V139.698L474.71 139.529L474.723 125.351Z" fill="#231F20"/>
</g>
<g style="mix-blend-mode:screen">
<path d="M337.324 118.473L386.223 160.299H382.749L337.324 121.445V118.473Z" fill="#231F20"/>
</g>
<g style="mix-blend-mode:screen">
<path d="M376.916 41.1027L403.299 63.6677V76.8705L361.48 41.1027H376.916Z" fill="#231F20"/>
</g>
<path d="M340.789 142.225C340.789 142.225 341.305 135.089 338.968 130.058C338.603 129.325 338.156 128.641 337.637 128.02C337.617 127.835 337.599 127.658 337.58 127.497C337.146 123.471 338.273 115.24 338.273 115.24C338.273 115.24 341.153 120.361 342.858 125.857C342.385 128.135 341.969 130.376 341.744 132.171C340.969 138.393 342.873 141.779 342.873 141.779C343.215 141.717 343.56 141.683 343.906 141.675C343.777 142.661 343.666 143.241 343.666 143.241L339.977 142.31C340.406 142.31 340.724 142.294 340.789 142.225Z" fill="#8BC59F"/>
<path d="M350.679 133.626C350.698 133.884 350.698 134.144 350.679 134.402C349.591 135.898 348.096 137.685 346.804 139.164C346.439 136.618 346.307 134.041 346.411 131.469C346.796 129.764 347.186 128.186 347.54 127.13C348.754 123.471 353.006 119.17 353.006 119.17C352.414 120.726 350.418 130.698 350.679 133.626Z" fill="#8BC59F"/>
<path d="M342.87 141.768C342.87 141.768 340.963 138.382 341.743 132.161C342.523 125.939 345.561 114.417 345.561 114.417C345.561 114.417 347.031 124.659 346.514 130.24C345.998 135.822 347.209 141.493 347.209 141.493C347.209 141.493 342.957 141.675 342.87 141.768Z" fill="#8BC59F"/>
<path d="M340.789 142.225C340.789 142.225 341.306 135.089 338.968 130.058C337.395 126.68 331.162 121.916 331.162 121.916C331.162 121.916 335.065 127.219 335.585 131.978C336.104 136.737 336.184 141.95 336.184 141.95C336.184 141.95 340.531 142.501 340.789 142.225Z" fill="#8BC59F"/>
<path d="M335.549 131.747C335.549 131.826 335.575 131.902 335.583 131.978C336.053 136.276 336.169 140.932 336.188 141.784L334.976 141.664C334.976 141.664 335.513 140.234 333.762 136.543C331.073 130.869 328.296 128.126 328.296 128.126C328.296 128.126 332.907 129.309 335.549 131.747Z" fill="#8BC59F"/>
<path d="M345.37 140.812C347.258 138.695 350.825 134.582 351.892 132.528C352.859 130.754 354.27 129.295 355.971 128.309C355.364 128.949 353.974 135.536 353.54 137.184C353.305 138.08 352.321 139.6 351.474 140.801L345.37 140.812Z" fill="#8BC59F"/>
<path d="M353.119 140.809V143.658H351.492L351.311 145.38L350.751 150.757L349.991 158.019H349.159V160.247H346.297V158.019H339.011V160.247H336.149V158.019H334.852L334.266 152.427L333.349 143.658H331.724V140.809H353.119Z" fill="url(#paint3_linear_1152_214394)"/>
<g style="mix-blend-mode:overlay" opacity="0.6">
<rect width="2.86194" height="1.20396" transform="matrix(-1 0 0 1 349.16 157.991)" fill="#030F1C"/>
</g>
<g style="mix-blend-mode:overlay" opacity="0.6">
<rect width="2.86198" height="1.20396" transform="matrix(-1 0 0 1 339.012 157.991)" fill="#030F1C"/>
</g>
<g style="mix-blend-mode:overlay" opacity="0.6">
<path d="M342.46 140.812H340.832C340.856 138.477 340.664 133.713 338.962 130.058C338.597 129.325 338.151 128.641 337.632 128.02C337.611 127.835 337.593 127.658 337.575 127.497C337.141 123.471 338.267 115.24 338.267 115.24C338.267 115.24 341.153 120.361 342.857 125.857C342.385 128.135 341.969 130.376 341.744 132.171C341.204 136.459 341.948 139.401 342.46 140.812Z" fill="#030F1C"/>
</g>
<g style="mix-blend-mode:overlay" opacity="0.6">
<path d="M350.679 133.626C350.698 133.884 350.698 134.144 350.679 134.402C349.591 135.898 348.096 137.685 346.804 139.164C346.439 136.618 346.307 134.041 346.411 131.469C346.796 129.764 347.186 128.186 347.54 127.13C348.754 123.471 353.006 119.17 353.006 119.17C352.414 120.726 350.418 130.698 350.679 133.626Z" fill="#030F1C"/>
</g>
<g style="mix-blend-mode:overlay" opacity="0.6">
<path d="M335.55 131.747C335.55 131.826 335.576 131.902 335.584 131.978C335.958 135.391 336.1 139.025 336.162 140.812H335.049C335.013 140.022 334.76 138.654 333.757 136.554C331.068 130.88 328.292 128.137 328.292 128.137C328.292 128.137 332.908 129.309 335.55 131.747Z" fill="#030F1C"/>
</g>
<g style="mix-blend-mode:overlay" opacity="0.6">
<path d="M351.498 143.62L351.312 145.38H333.531L333.347 143.62H351.498Z" fill="#030F1C"/>
</g>
<g style="mix-blend-mode:overlay" opacity="0.6">
<path d="M332.329 165.262H479.656V35.9681H484.414V175.294H479.656V169.62H332.329V165.262Z" fill="#231F20"/>
</g>
<mask id="mask1_1152_214394" style="mask-type:alpha" maskUnits="userSpaceOnUse" x="295" y="56" width="255" height="141">
<rect width="254.851" height="139.625" transform="matrix(-1 0 0 1 550 56.5466)" fill="#C4C4C4"/>
</mask>
<g mask="url(#mask1_1152_214394)">
<path d="M403.453 335.654L420.31 269.402L420.908 267.068H417.78C414.481 267.068 411.807 264.26 411.807 260.797C411.807 257.333 414.481 254.526 417.78 254.526H468.477H471.931L489.531 136.932C489.697 135.76 490.302 134.705 491.21 134.001C492.119 133.297 493.258 133.003 494.374 133.182H541.697C541.894 133.142 542.094 133.121 542.294 133.119C542.508 133.116 542.721 133.131 542.932 133.166C544.049 133.34 545.054 133.974 545.725 134.928C546.396 135.882 546.677 137.078 546.507 138.25L528.367 259.64C528.056 261.826 526.271 263.446 524.166 263.453C523.954 263.453 523.742 263.437 523.532 263.407H519.27C519.27 263.445 519.242 263.483 519.222 263.521C518.229 265.698 516.133 267.082 513.834 267.08H511.413L512.01 269.415L528.871 335.654C529.062 336.4 528.962 337.196 528.593 337.864C528.224 338.533 527.617 339.02 526.906 339.218C526.746 339.263 526.583 339.291 526.418 339.302H526.288C526.133 339.317 525.976 339.317 525.82 339.302H525.76C525.667 339.302 525.578 339.273 525.485 339.247H525.51C524.531 338.996 523.759 338.208 523.492 337.188L514.536 301.999L513.818 299.181L506.271 269.402L505.868 267.881L505.662 267.068H469.114L469.046 267.339L469.252 268.152L469.34 268.495L469.57 269.402L486.428 335.654C486.823 337.202 485.951 338.794 484.478 339.213C484.318 339.258 484.155 339.286 483.99 339.298H483.861C483.705 339.313 483.548 339.313 483.393 339.298H483.328C483.239 339.298 483.147 339.268 483.058 339.243H483.078C482.099 338.993 481.326 338.204 481.06 337.184L472.105 301.994L471.382 299.177L466.164 278.669L451.268 337.184C450.931 338.513 449.752 339.413 448.443 339.34C448.254 339.329 448.066 339.296 447.882 339.243C447.171 339.045 446.564 338.558 446.195 337.89C445.826 337.221 445.726 336.426 445.917 335.68L462.774 269.432L463.371 267.097L463.303 267.356L463.238 267.11H426.658L408.825 337.154C408.392 338.663 406.897 339.539 405.447 339.134C403.997 338.729 403.115 337.189 403.453 335.654Z" fill="url(#paint4_linear_1152_214394)"/>
<g style="mix-blend-mode:overlay" opacity="0.6">
<path d="M519.956 258.314L520.396 255.148L538.097 136.932C538.369 134.977 539.837 133.444 541.701 133.17H542.912C544.029 133.344 545.034 133.979 545.705 134.933C546.376 135.887 546.657 137.082 546.487 138.254L528.367 259.64C528.056 261.826 526.271 263.446 524.166 263.453C523.954 263.453 523.742 263.437 523.532 263.407C521.211 263.032 519.614 260.761 519.956 258.322V258.314Z" fill="#030F1C"/>
</g>
<g style="mix-blend-mode:overlay" opacity="0.6">
<path d="M519.956 258.314L520.396 255.148L538.097 136.932C538.369 134.977 539.837 133.444 541.701 133.17H542.912C544.029 133.344 545.034 133.979 545.705 134.933C546.376 135.887 546.657 137.082 546.487 138.254L528.367 259.64C528.056 261.826 526.271 263.446 524.166 263.453C523.954 263.453 523.742 263.437 523.532 263.407C521.211 263.032 519.614 260.761 519.956 258.322V258.314Z" fill="#030F1C"/>
</g>
<path fill-rule="evenodd" clip-rule="evenodd" d="M464.078 103.563C463.044 95.5747 462.852 82.8367 462.852 82.8367C465.434 79.6365 480.013 79.6472 480.013 79.6472C480.013 79.6472 483.593 89.1152 484.766 88.5883C485.94 88.0613 492.861 85.2976 493.391 92.038C493.806 97.3069 489.365 99.4949 487.823 100.092L490.034 118.487L472.945 127.787V113.725C472.072 114.146 471.284 114.409 470.648 114.464C467.832 114.709 465.111 111.551 464.078 103.563Z" fill="#F2AC7D"/>
<path d="M463.256 93.8585C463.256 93.8585 463.495 86.8561 463.444 84.9277C463.371 82.1536 465.775 81.3616 467.368 83.1735C469.665 85.8701 473.282 86.8511 476.537 85.6604C479.398 84.6938 480.562 83.7681 481.073 86.8364C481.584 89.9047 482.991 94.9516 483.819 93.497C484.647 92.0425 485.458 88.9325 487.285 88.4205C490.077 87.6381 492.11 91.039 491.608 93.2162C491.106 95.3935 490.264 96.7972 486.923 99.1048L488.729 108.087C496.448 95.2655 498.41 78.4069 486.349 75.5888C481.843 74.536 476.548 65.6391 468.214 68.4906C462.309 70.5109 462.691 75.3555 462.594 79.6054C454.53 80.6585 463.256 93.8585 463.256 93.8585Z" fill="url(#paint5_linear_1152_214394)"/>
<ellipse rx="0.755159" ry="1.30293" transform="matrix(0.996258 -0.0864303 0.0784605 0.996917 472.235 91.7717)" fill="#161B36"/>
<ellipse rx="0.755158" ry="1.30293" transform="matrix(0.996258 -0.0864305 0.0784604 0.996917 464.833 92.9572)" fill="#161B36"/>
<path d="M470.272 86.7109C470.515 86.3718 470.863 86.0941 471.972 86.0686C473.081 86.0431 474.838 86.9863 474.493 87.2991C474.147 87.6118 472.969 86.7597 472.125 87.1511C471.28 87.5425 470.801 87.8456 470.496 87.6989C470.111 87.5143 470.155 86.874 470.272 86.7109Z" fill="#161B36"/>
<path d="M465.464 86.8035C465.097 86.6255 464.665 86.5544 463.677 87.0836C462.689 87.6128 461.567 89.3178 462.013 89.4212C462.458 89.5247 463.111 88.1882 464.031 88.1127C464.952 88.0372 465.51 88.0661 465.713 87.7848C465.969 87.4307 465.64 86.889 465.464 86.8035Z" fill="#161B36"/>
<g style="mix-blend-mode:overlay" opacity="0.6">
<path d="M467.965 100.953C467.662 100.962 467.36 100.898 467.084 100.766C466.849 100.654 466.675 100.437 466.609 100.176C466.482 99.6323 466.95 98.7344 467.529 97.7028C467.678 97.4552 467.812 97.1982 467.93 96.9332C468.039 96.6212 467.786 93.8902 467.478 91.4303L467.878 91.3748C467.985 92.2281 468.508 96.5124 468.308 97.0801C468.184 97.3698 468.04 97.6498 467.877 97.918C467.513 98.5676 466.903 99.6546 467.001 100.075C467.039 100.216 467.136 100.332 467.266 100.388C467.864 100.599 468.516 100.564 469.09 100.29L469.245 100.681C468.839 100.857 468.404 100.949 467.965 100.953Z" fill="#030F1C"/>
</g>
<path d="M468.05 105.001C468.006 104.88 468.01 104.745 468.061 104.626C468.113 104.508 468.207 104.416 468.323 104.37C468.901 104.139 469.965 103.706 470.772 103.337C471.61 102.902 472.419 102.408 473.195 101.859C473.33 101.766 473.502 101.753 473.649 101.824C473.796 101.895 473.897 102.041 473.918 102.209C474.076 103.504 474.127 106.055 472.221 106.742C469.903 107.576 468.558 106.339 468.05 105.001Z" fill="#161B36"/>
<path d="M469.207 106.532C469.207 106.532 471.009 103.368 473.973 103.798C473.973 103.798 474.161 106.131 472.326 106.82C470.351 107.561 469.207 106.532 469.207 106.532Z" fill="#E55151"/>
<path d="M489.002 94.2039C488.899 93.6326 488.569 93.1346 488.094 92.8351C487.754 92.6483 487.37 92.57 486.988 92.61C487.503 91.8155 488.114 91.2284 488.741 91.3939C488.849 91.4222 488.959 91.3531 488.986 91.2395C489.013 91.126 488.947 91.0109 488.839 90.9826C487.86 90.7283 487.012 91.7135 486.397 92.7983L486.393 92.8057C485.972 93.5733 485.623 94.3824 485.352 95.2214C485.317 95.3327 485.375 95.4524 485.481 95.4887C485.587 95.525 485.701 95.4643 485.736 95.353C485.987 94.5649 486.312 93.8044 486.704 93.0823C487.105 92.9728 487.529 93.0172 487.901 93.2075C488.275 93.4524 488.533 93.8519 488.611 94.3073C488.633 94.4015 488.714 94.4674 488.807 94.4675C488.823 94.4674 488.84 94.4653 488.856 94.4613C488.964 94.4325 489.029 94.3174 489.002 94.2039Z" fill="#0B122D"/>
<path d="M472.946 113.91C472.854 113.91 472.773 113.845 472.75 113.751C472.728 113.657 472.768 113.559 472.849 113.513C472.916 113.474 479.556 109.636 482.36 105.864C482.404 105.804 482.475 105.774 482.547 105.784C482.618 105.795 482.679 105.844 482.706 105.915C482.733 105.985 482.723 106.065 482.678 106.125C479.822 109.966 473.11 113.846 473.043 113.884C473.013 113.901 472.98 113.91 472.946 113.91Z" fill="#0B122D"/>
<path d="M480.263 83.2204C480.224 83.2204 480.186 83.2084 480.153 83.1861C476.923 80.9748 477.675 76.0802 477.708 75.8729C477.729 75.7588 477.832 75.6823 477.941 75.6995C478.051 75.7194 478.125 75.8287 478.106 75.944C478.099 75.992 477.367 80.7729 480.373 82.831C480.448 82.8823 480.482 82.9791 480.457 83.069C480.431 83.1589 480.352 83.2205 480.263 83.2204V83.2204Z" fill="white"/>
<g style="mix-blend-mode:overlay" opacity="0.6">
<path d="M472.945 113.698C473.025 113.353 478.897 109.693 480.653 108.158C480.653 108.158 480.219 113.729 476.379 117.645C472.538 121.561 472.959 118.397 472.959 118.397L472.945 113.698Z" fill="#030F1C"/>
</g>
<path fill-rule="evenodd" clip-rule="evenodd" d="M508.17 181.753C507.909 186.92 507.676 191.528 509.893 200.372C511.007 205.108 511.607 209.961 511.682 214.838C511.682 214.838 464.363 223.198 454.69 214.838C452.683 213.104 453.668 208.946 454.562 205.167C455.003 203.301 455.423 201.528 455.451 200.184C455.529 196.399 455.695 192.801 455.853 189.395C455.926 187.82 455.997 186.285 456.057 184.792L454.224 184.728C454.008 184.708 453.801 184.627 453.624 184.495C450.065 185.542 446.38 186.042 442.684 185.981H426.18L424.998 171.499L433.018 169.605C435.675 168.978 437.891 167.065 438.991 164.451L448.427 139.848C449.712 136.496 451.934 131.85 454.241 129.29L454.12 129.79C454.125 129.782 454.129 129.774 454.134 129.766C454.14 129.754 454.147 129.743 454.153 129.733C456.301 126.727 469.811 120.621 469.811 120.621L477.262 126.03L491.104 119.494C491.104 119.494 502.109 121.936 505.688 123.252C506.805 123.659 507.778 124.41 508.481 125.408C510.061 127 511.017 129.156 511.158 131.45C511.389 135.017 511.159 137.772 510.878 141.142C510.688 143.425 510.473 145.991 510.363 149.282C510.036 159.054 509.319 166.658 508.678 173.447C508.581 174.478 508.485 175.49 508.393 176.488C508.305 178.773 508.235 180.472 508.193 181.303C508.186 181.454 508.178 181.603 508.17 181.753ZM453.608 132.449C453.627 132.152 453.65 131.876 453.678 131.62L453.563 132.095L453.608 132.449Z" fill="url(#paint6_linear_1152_214394)"/>
<path d="M454.722 156.507C454.623 156.507 454.538 156.43 454.523 156.326C453.178 146.945 453.816 140.159 453.823 140.092C453.837 139.977 453.934 139.895 454.044 139.903C454.097 139.909 454.146 139.936 454.18 139.98C454.214 140.023 454.23 140.079 454.224 140.135C454.218 140.202 453.585 146.939 454.922 156.263C454.93 156.319 454.917 156.376 454.885 156.421C454.853 156.466 454.806 156.496 454.753 156.504C454.743 156.506 454.733 156.507 454.722 156.507Z" fill="#0B122D"/>
<g style="mix-blend-mode:overlay" opacity="0.6">
<path d="M482.439 127.311L497.689 121.042L491.103 119.494L482.439 127.311Z" fill="#030F1C"/>
</g>
<path fill-rule="evenodd" clip-rule="evenodd" d="M479.212 121.803C486.92 116.735 489.264 112.261 489.264 112.261L491.104 119.494L482.441 127.311C482.079 126.311 481.637 125.345 481.12 124.423L477.262 126.03L477.262 126.03L477.262 126.03L477.262 126.03L477.262 126.03L475.011 124.396L472.791 127.472L469.811 120.621L472.763 116.958C472.763 116.958 472.947 119.951 476.391 121.597L477.262 126.03L479.212 121.803Z" fill="url(#paint7_linear_1152_214394)"/>
<g style="mix-blend-mode:overlay" opacity="0.6">
<path d="M509.259 197.65C508.206 195.081 508.018 186.808 508.171 177.787C507.53 180.229 505.554 182.461 503.252 183.629C503.407 195.117 499.207 203.039 494.594 208.169C489.753 213.552 479.742 214.838 472.555 218.554C486.318 219.347 511.683 214.838 511.683 214.838C511.683 214.838 511.993 207.868 509.259 197.65Z" fill="#030F1C"/>
</g>
<path d="M459.812 181.239C459.786 181.275 459.759 181.309 459.734 181.344L459.822 181.32L459.812 181.239Z" fill="#3268AE"/>
<g style="mix-blend-mode:overlay" opacity="0.6">
<path d="M452.413 182.544L452.731 171.457C452.75 170.697 454.353 169.632 455.149 169.66L455.824 169.676C455.285 162.056 454.324 151.676 453.836 143.377C448.302 147.248 448.353 153.537 449.546 165.924C450.083 171.496 447.148 176.502 445.886 178.987C444.624 181.471 439.102 182.134 431.844 182.631C429.485 182.792 427.612 184.182 426.154 185.981H442.671C446.361 186.037 450.039 185.528 453.589 184.47C452.969 184.027 452.4 183.109 452.413 182.544Z" fill="#030F1C"/>
</g>
<g style="mix-blend-mode:overlay" opacity="0.6">
<path d="M468.048 121.324L469.282 124.734C469.282 124.734 456.982 128.609 451.668 132.961C451.958 132.499 453.437 129.472 456.17 127.743C459.376 125.566 468.048 121.324 468.048 121.324Z" fill="white"/>
</g>
<path d="M476.555 122.545L477.263 126.03L479.212 121.803L476.555 122.545Z" fill="#F2AC7D"/>
<path d="M452.674 173.447L438.246 175.243L423.26 171.147C422.26 170.874 421.198 171.011 420.291 171.532L416.121 173.922L412.018 173.764C412.018 173.764 409.204 175.007 407.694 175.866L389.02 178.981L389.735 184.099H426.026L425.875 182.25C428.044 183.138 430.394 183.883 431.974 183.769C433.226 183.654 434.456 183.355 435.629 182.88C437.494 183.194 440.883 183.711 442.983 183.711C443.878 183.711 447.822 183.745 452.926 183.793C452.637 183.442 452.458 183.006 452.413 182.544L452.674 173.447Z" fill="#F2AC7D"/>
<path d="M492.609 147.012C492.6 147.012 492.591 147.012 492.582 147.01C492.472 146.996 492.394 146.889 492.408 146.773C493.439 138.256 494.698 133.443 494.71 133.395C494.74 133.283 494.851 133.217 494.958 133.248C495.066 133.279 495.128 133.396 495.099 133.508C495.087 133.555 493.835 138.343 492.808 146.827C492.795 146.933 492.71 147.012 492.609 147.012Z" fill="#0B122D"/>
<g style="mix-blend-mode:overlay" opacity="0.6">
<path d="M459.51 171.159L459.212 183.527C459.194 184.269 456.627 176.816 458.268 173.481C459.33 171.322 457.294 170.663 456.145 170.828C454.534 171.058 452.674 173.42 452.674 173.42C452.656 173.419 452.745 171.593 452.727 171.593L452.731 171.457C452.749 170.697 454.353 169.632 455.148 169.66L458.103 169.733C458.865 169.725 459.491 170.36 459.51 171.159Z" fill="#030F1C"/>
</g>
<g style="mix-blend-mode:overlay" opacity="0.6">
<path d="M496.07 149.786C495.8 154.493 495.328 167.374 493.148 169.531C490.969 171.683 475.722 173.234 472.611 173.094C469.499 172.954 469.104 169.675 469.104 169.675L469.107 169.671C471.016 169.383 472.655 169.145 473.858 168.984C482.417 167.84 490.166 166.705 490.751 165.251C490.751 165.251 491.845 154.769 493.152 144.879C493.29 144.892 496.332 145.184 496.07 149.786Z" fill="white"/>
</g>
<path d="M463.051 170.556C462.945 170.556 462.857 170.47 462.85 170.359C462.843 170.248 462.918 170.15 463.023 170.134L483.993 167.046C484.102 167.031 484.203 167.111 484.22 167.226C484.236 167.342 484.159 167.449 484.048 167.466L463.079 170.554C463.07 170.555 463.06 170.556 463.051 170.556Z" fill="#0B122D"/>
<path d="M411.114 181.175C411.024 181.175 410.945 181.112 410.92 181.022C410.895 180.931 410.931 180.834 411.007 180.783L420.795 174.347C420.856 174.306 420.933 174.303 420.996 174.339C421.06 174.374 421.101 174.443 421.104 174.519C421.106 174.594 421.07 174.666 421.009 174.706L411.221 181.143C411.189 181.164 411.152 181.175 411.114 181.175Z" fill="#0B122D"/>
<g style="mix-blend-mode:overlay" opacity="0.6">
<path d="M479.212 121.803L477.262 126.03L481.12 124.423C480.62 123.449 479.976 122.565 479.212 121.803Z" fill="#030F1C"/>
</g>
<g style="mix-blend-mode:overlay" opacity="0.6">
<path d="M476.39 121.597L477.261 126.031L475.01 124.396L476.39 121.597Z" fill="#030F1C"/>
</g>
<g style="mix-blend-mode:overlay" opacity="0.6">
<path d="M425.875 182.25C423.634 181.333 421.588 180.265 420.79 179.835C420.562 179.713 420.295 179.701 420.058 179.803L415.38 181.804C414.259 182.283 412.984 182.148 411.977 181.443L411.659 181.221C411.435 181.064 411.156 181.024 410.9 181.11L408.48 181.933C407.583 182.237 406.6 181.936 406.001 181.172L405.895 181.037C405.728 180.824 405.661 180.545 405.711 180.274C405.76 180.004 405.923 179.771 406.153 179.638L414.8 174.68H414.8L416.121 173.922L412.018 173.764C412.018 173.764 409.204 175.007 407.694 175.866L389.02 178.981L389.735 184.099H426.026L425.875 182.25Z" fill="#030F1C"/>
</g>
<path d="M427.804 181.477V182.892C427.805 183.116 427.72 183.331 427.569 183.489C427.419 183.647 427.214 183.736 427.001 183.736H356.89C356.854 183.736 356.818 183.735 356.781 183.731C356.573 183.727 356.365 183.695 356.164 183.638C356.159 183.635 356.154 183.633 356.148 183.634C355.469 183.444 354.881 182.999 354.493 182.384C354.289 182.064 354.147 181.706 354.073 181.329L353.835 180.126L346.927 144.705C346.775 143.939 346.961 143.142 347.431 142.536C347.902 141.929 348.607 141.577 349.352 141.578H398.178C399.355 141.575 400.369 142.444 400.604 143.654L407.823 180.634H427.001C427.214 180.634 427.419 180.723 427.569 180.881C427.72 181.039 427.804 181.254 427.804 181.477Z" fill="url(#paint8_linear_1152_214394)"/>
<g style="mix-blend-mode:overlay" opacity="0.6">
<path d="M427.804 181.477V182.892C427.804 183.116 427.72 183.331 427.569 183.489C427.419 183.647 427.214 183.736 427.001 183.736H407.476C406.112 183.737 404.935 182.731 404.659 181.329L397.512 144.705C397.027 144.071 397 143.177 397.445 142.511C397.891 141.846 398.702 141.57 399.434 141.835C400.166 142.1 400.643 142.842 400.604 143.654L407.823 180.634H427.001C427.214 180.634 427.419 180.723 427.569 180.881C427.72 181.039 427.804 181.254 427.804 181.477Z" fill="black"/>
</g>
<g style="mix-blend-mode:overlay" opacity="0.6">
<path d="M371.928 167.129C370.637 167.129 369.526 166.174 369.271 164.846L369.249 164.732C369.088 163.895 369.294 163.027 369.808 162.367C370.323 161.706 371.093 161.323 371.906 161.323C373.196 161.323 374.308 162.278 374.563 163.607L374.585 163.721C374.746 164.558 374.54 165.426 374.025 166.086C373.511 166.747 372.741 167.129 371.928 167.129Z" fill="white"/>
</g>
<path d="M419.274 183.813H521.6L533.643 191.999H507.657L533.485 334.096C533.836 335.966 532.676 337.782 530.894 338.151C530.819 338.162 530.744 338.169 530.668 338.172H530.527C530.354 338.189 530.18 338.189 530.007 338.172H527.339C527.339 338.172 525.579 337.286 525.228 335.413L492.45 196.906H467.166L437.899 335.43C437.597 337.026 436.277 338.185 434.727 338.214C433.95 338.259 433.172 338.236 432.398 338.146C430.617 337.777 429.457 335.962 429.808 334.091L445.656 231.37L446.132 228.273H347.015L366.273 334.096C366.443 334.993 366.265 335.924 365.78 336.684C365.295 337.444 364.541 337.97 363.686 338.146C363.614 338.146 363.537 338.146 363.464 338.172H363.287C363.121 338.184 362.956 338.184 362.79 338.172H360.135C360.135 338.172 358.375 337.286 358.024 335.413L332.639 228.277H293.291L270.663 335.43C270.367 337.028 269.045 338.19 267.495 338.214C266.718 338.259 265.939 338.236 265.166 338.146C264.308 337.973 263.551 337.449 263.061 336.689C262.571 335.929 262.389 334.996 262.555 334.096L278.896 228.277H275.332L281.483 194.448L281.926 191.999H259.298V191.974L249.641 183.813H419.274Z" fill="url(#paint9_linear_1152_214394)"/>
<g style="mix-blend-mode:overlay" opacity="0.6">
<path d="M453.324 194.448H508.101L507.657 191.995H453.768L453.324 194.448Z" fill="#030F1C"/>
</g>
<g style="mix-blend-mode:overlay" opacity="0.6">
<path d="M431.446 334.096C431.219 335.307 431.625 336.553 432.51 337.365C433.395 338.177 434.626 338.431 435.738 338.032C436.851 337.633 437.676 336.641 437.903 335.43L467.166 196.906H497.793L527.044 335.43C527.395 337.302 529.125 338.521 530.909 338.153C532.692 337.784 533.853 335.968 533.501 334.096L507.673 191.999H533.659L521.6 183.813H419.274L431.317 191.995H281.926L281.479 194.448H453.324L447.173 228.277H446.128L445.414 232.938H449.853L431.446 334.096Z" fill="#030F1C"/>
</g>
</g>
<ellipse cx="175.365" cy="225.009" rx="12.1206" ry="11.7301" fill="#D2ECFF"/>
<path d="M40.9118 58.16C40.0585 58.16 39.6318 57.72 39.6318 56.84V45.06C39.6318 44.18 40.0585 43.74 40.9118 43.74C41.7651 43.74 42.1918 44.18 42.1918 45.06V49.78H49.4518V45.06C49.4518 44.18 49.8785 43.74 50.7318 43.74C51.5851 43.74 52.0118 44.18 52.0118 45.06V56.84C52.0118 57.72 51.5851 58.16 50.7318 58.16C49.8785 58.16 49.4518 57.72 49.4518 56.84V51.92H42.1918V56.84C42.1918 57.72 41.7651 58.16 40.9118 58.16ZM58.0805 58.2C57.3739 58.2 56.7405 58.0667 56.1805 57.8C55.6339 57.52 55.2005 57.1467 54.8805 56.68C54.5739 56.2133 54.4205 55.6867 54.4205 55.1C54.4205 54.38 54.6072 53.8133 54.9805 53.4C55.3539 52.9733 55.9605 52.6667 56.8005 52.48C57.6405 52.2933 58.7672 52.2 60.1805 52.2H60.8805V51.78C60.8805 51.1133 60.7339 50.6333 60.4405 50.34C60.1472 50.0467 59.6539 49.9 58.9605 49.9C58.5739 49.9 58.1539 49.9467 57.7005 50.04C57.2605 50.1333 56.7939 50.2933 56.3005 50.52C55.9805 50.6667 55.7139 50.6867 55.5005 50.58C55.2872 50.46 55.1405 50.28 55.0605 50.04C54.9939 49.7867 55.0072 49.5333 55.1005 49.28C55.2072 49.0267 55.4139 48.84 55.7205 48.72C56.3339 48.4667 56.9205 48.2867 57.4805 48.18C58.0539 48.0733 58.5739 48.02 59.0405 48.02C60.4672 48.02 61.5272 48.3533 62.2205 49.02C62.9139 49.6733 63.2605 50.6933 63.2605 52.08V56.88C63.2605 57.7333 62.8739 58.16 62.1005 58.16C61.3139 58.16 60.9205 57.7333 60.9205 56.88V56.44C60.6939 56.9867 60.3339 57.42 59.8405 57.74C59.3472 58.0467 58.7605 58.2 58.0805 58.2ZM58.6005 56.48C59.2539 56.48 59.7939 56.2533 60.2205 55.8C60.6605 55.3467 60.8805 54.7733 60.8805 54.08V53.64H60.2005C58.9472 53.64 58.0739 53.74 57.5805 53.94C57.1005 54.1267 56.8605 54.4733 56.8605 54.98C56.8605 55.42 57.0139 55.78 57.3205 56.06C57.6272 56.34 58.0539 56.48 58.6005 56.48ZM69.138 58.2C66.9114 58.2 65.798 56.9533 65.798 54.46V45C65.798 44.16 66.2114 43.74 67.038 43.74C67.878 43.74 68.298 44.16 68.298 45V54.34C68.298 55.54 68.798 56.14 69.798 56.14C69.9047 56.14 70.0047 56.14 70.098 56.14C70.1914 56.1267 70.2847 56.1133 70.378 56.1C70.5647 56.0733 70.6914 56.1267 70.758 56.26C70.8247 56.38 70.858 56.6333 70.858 57.02C70.858 57.3533 70.7914 57.6133 70.658 57.8C70.5247 57.9867 70.3047 58.1 69.998 58.14C69.718 58.18 69.4314 58.2 69.138 58.2ZM76.5471 58.2C75.5338 58.2 74.6538 57.9933 73.9071 57.58C73.1604 57.1667 72.5804 56.58 72.1671 55.82C71.7538 55.0467 71.5471 54.14 71.5471 53.1C71.5471 52.06 71.7538 51.16 72.1671 50.4C72.5804 49.64 73.1604 49.0533 73.9071 48.64C74.6538 48.2267 75.5338 48.02 76.5471 48.02C77.5604 48.02 78.4404 48.2267 79.1871 48.64C79.9338 49.0533 80.5138 49.64 80.9271 50.4C81.3404 51.16 81.5471 52.06 81.5471 53.1C81.5471 54.14 81.3404 55.0467 80.9271 55.82C80.5138 56.58 79.9338 57.1667 79.1871 57.58C78.4404 57.9933 77.5604 58.2 76.5471 58.2ZM76.5471 56.3C77.2938 56.3 77.8938 56.0333 78.3471 55.5C78.8004 54.9533 79.0271 54.1533 79.0271 53.1C79.0271 52.0333 78.8004 51.24 78.3471 50.72C77.8938 50.1867 77.2938 49.92 76.5471 49.92C75.8004 49.92 75.2004 50.1867 74.7471 50.72C74.2938 51.24 74.0671 52.0333 74.0671 53.1C74.0671 54.1533 74.2938 54.9533 74.7471 55.5C75.2004 56.0333 75.8004 56.3 76.5471 56.3ZM84.779 60.14C84.6057 60.3533 84.419 60.4733 84.219 60.5C84.0323 60.54 83.8657 60.5067 83.719 60.4C83.5723 60.2933 83.4923 60.14 83.479 59.94C83.4657 59.7533 83.5523 59.5467 83.739 59.32C83.899 59.12 84.0257 58.9133 84.119 58.7C84.2123 58.4867 84.2857 58.2867 84.339 58.1C83.9257 58.06 83.5923 57.9067 83.339 57.64C83.0857 57.3733 82.959 57.0267 82.959 56.6C82.959 56.1733 83.0923 55.8267 83.359 55.56C83.6257 55.28 83.9857 55.14 84.439 55.14C84.9057 55.14 85.2723 55.3 85.539 55.62C85.8057 55.9267 85.939 56.3733 85.939 56.96C85.939 57.44 85.859 57.94 85.699 58.46C85.5523 58.9933 85.2457 59.5533 84.779 60.14ZM44.4918 86.2C43.5985 86.2 42.7251 86.1 41.8718 85.9C41.0318 85.7 40.2985 85.4 39.6718 85C39.3651 84.8 39.1785 84.5533 39.1118 84.26C39.0451 83.9667 39.0651 83.6933 39.1718 83.44C39.2918 83.1733 39.4718 82.9933 39.7118 82.9C39.9651 82.7933 40.2518 82.84 40.5718 83.04C41.1585 83.3867 41.7785 83.64 42.4318 83.8C43.0851 83.96 43.7718 84.04 44.4918 84.04C45.5451 84.04 46.3118 83.8667 46.7918 83.52C47.2718 83.16 47.5118 82.7 47.5118 82.14C47.5118 81.6733 47.3385 81.3067 46.9918 81.04C46.6585 80.7733 46.0785 80.5533 45.2518 80.38L43.0518 79.92C40.5451 79.3867 39.2918 78.1 39.2918 76.06C39.2918 75.18 39.5251 74.4133 39.9918 73.76C40.4585 73.1067 41.1051 72.6 41.9318 72.24C42.7585 71.88 43.7118 71.7 44.7918 71.7C45.5918 71.7 46.3518 71.8 47.0718 72C47.7918 72.2 48.4385 72.4933 49.0118 72.88C49.2785 73.0667 49.4385 73.3 49.4918 73.58C49.5451 73.8467 49.5118 74.1 49.3918 74.34C49.2718 74.5667 49.0785 74.7267 48.8118 74.82C48.5585 74.9 48.2585 74.84 47.9118 74.64C47.4185 74.36 46.9185 74.16 46.4118 74.04C45.9051 73.92 45.3585 73.86 44.7718 73.86C43.8518 73.86 43.1318 74.0533 42.6118 74.44C42.0918 74.8267 41.8318 75.3333 41.8318 75.96C41.8318 76.44 41.9918 76.8267 42.3118 77.12C42.6318 77.4 43.1785 77.62 43.9518 77.78L46.1318 78.24C47.4518 78.52 48.4318 78.96 49.0718 79.56C49.7251 80.16 50.0518 80.96 50.0518 81.96C50.0518 82.8 49.8251 83.54 49.3718 84.18C48.9185 84.82 48.2718 85.32 47.4318 85.68C46.6051 86.0267 45.6251 86.2 44.4918 86.2ZM56.829 86.2C55.7223 86.2 54.769 85.9933 53.969 85.58C53.169 85.1667 52.549 84.58 52.109 83.82C51.6823 83.06 51.469 82.16 51.469 81.12C51.469 80.1067 51.6757 79.22 52.089 78.46C52.5157 77.7 53.0957 77.1067 53.829 76.68C54.5757 76.24 55.4223 76.02 56.369 76.02C57.7557 76.02 58.849 76.46 59.649 77.34C60.4623 78.22 60.869 79.42 60.869 80.94C60.869 81.4333 60.549 81.68 59.909 81.68H53.869C54.0557 83.4267 55.0557 84.3 56.869 84.3C57.2157 84.3 57.6023 84.26 58.029 84.18C58.469 84.0867 58.8823 83.9333 59.269 83.72C59.6157 83.52 59.909 83.46 60.149 83.54C60.389 83.6067 60.5557 83.7467 60.649 83.96C60.7557 84.1733 60.769 84.4133 60.689 84.68C60.6223 84.9333 60.4357 85.1533 60.129 85.34C59.6623 85.6333 59.1223 85.8533 58.509 86C57.909 86.1333 57.349 86.2 56.829 86.2ZM56.469 77.72C55.7357 77.72 55.1423 77.9467 54.689 78.4C54.2357 78.8533 53.9623 79.4667 53.869 80.24H58.789C58.7357 79.4267 58.509 78.8067 58.109 78.38C57.7223 77.94 57.1757 77.72 56.469 77.72ZM66.1888 86.2C63.9622 86.2 62.8488 84.9533 62.8488 82.46V73C62.8488 72.16 63.2622 71.74 64.0888 71.74C64.9288 71.74 65.3488 72.16 65.3488 73V82.34C65.3488 83.54 65.8488 84.14 66.8488 84.14C66.9555 84.14 67.0555 84.14 67.1488 84.14C67.2422 84.1267 67.3355 84.1133 67.4288 84.1C67.6155 84.0733 67.7422 84.1267 67.8088 84.26C67.8755 84.38 67.9088 84.6333 67.9088 85.02C67.9088 85.3533 67.8422 85.6133 67.7088 85.8C67.5755 85.9867 67.3555 86.1 67.0488 86.14C66.7688 86.18 66.4822 86.2 66.1888 86.2ZM72.4555 86.2C71.7489 86.2 71.1155 86.0667 70.5555 85.8C70.0089 85.52 69.5755 85.1467 69.2555 84.68C68.9489 84.2133 68.7955 83.6867 68.7955 83.1C68.7955 82.38 68.9822 81.8133 69.3555 81.4C69.7289 80.9733 70.3355 80.6667 71.1755 80.48C72.0155 80.2933 73.1422 80.2 74.5555 80.2H75.2555V79.78C75.2555 79.1133 75.1089 78.6333 74.8155 78.34C74.5222 78.0467 74.0289 77.9 73.3355 77.9C72.9489 77.9 72.5289 77.9467 72.0755 78.04C71.6355 78.1333 71.1689 78.2933 70.6755 78.52C70.3555 78.6667 70.0889 78.6867 69.8755 78.58C69.6622 78.46 69.5155 78.28 69.4355 78.04C69.3689 77.7867 69.3822 77.5333 69.4755 77.28C69.5822 77.0267 69.7889 76.84 70.0955 76.72C70.7089 76.4667 71.2955 76.2867 71.8555 76.18C72.4289 76.0733 72.9489 76.02 73.4155 76.02C74.8422 76.02 75.9022 76.3533 76.5955 77.02C77.2889 77.6733 77.6355 78.6933 77.6355 80.08V84.88C77.6355 85.7333 77.2489 86.16 76.4755 86.16C75.6889 86.16 75.2955 85.7333 75.2955 84.88V84.44C75.0689 84.9867 74.7089 85.42 74.2155 85.74C73.7222 86.0467 73.1355 86.2 72.4555 86.2ZM72.9755 84.48C73.6289 84.48 74.1689 84.2533 74.5955 83.8C75.0355 83.3467 75.2555 82.7733 75.2555 82.08V81.64H74.5755C73.3222 81.64 72.4489 81.74 71.9555 81.94C71.4755 82.1267 71.2355 82.4733 71.2355 82.98C71.2355 83.42 71.3889 83.78 71.6955 84.06C72.0022 84.34 72.4289 84.48 72.9755 84.48ZM81.453 86.16C80.6264 86.16 80.213 85.7333 80.213 84.88V77.32C80.213 76.48 80.6197 76.06 81.433 76.06C82.2464 76.06 82.653 76.48 82.653 77.32V77.72C82.9464 77.1867 83.353 76.7733 83.873 76.48C84.393 76.1733 84.993 76.02 85.673 76.02C87.1397 76.02 88.0997 76.66 88.553 77.94C88.8597 77.34 89.2997 76.8733 89.873 76.54C90.4464 76.1933 91.0997 76.02 91.833 76.02C94.033 76.02 95.133 77.36 95.133 80.04V84.88C95.133 85.7333 94.713 86.16 93.873 86.16C93.0464 86.16 92.633 85.7333 92.633 84.88V80.14C92.633 79.3933 92.5064 78.8467 92.253 78.5C92.013 78.1533 91.5997 77.98 91.013 77.98C90.3597 77.98 89.8464 78.2133 89.473 78.68C89.0997 79.1333 88.913 79.7667 88.913 80.58V84.88C88.913 85.7333 88.4997 86.16 87.673 86.16C86.833 86.16 86.413 85.7333 86.413 84.88V80.14C86.413 79.3933 86.2864 78.8467 86.033 78.5C85.793 78.1533 85.3864 77.98 84.813 77.98C84.1597 77.98 83.6464 78.2133 83.273 78.68C82.8997 79.1333 82.713 79.7667 82.713 80.58V84.88C82.713 85.7333 82.293 86.16 81.453 86.16ZM100.932 86.2C100.225 86.2 99.5921 86.0667 99.0321 85.8C98.4854 85.52 98.0521 85.1467 97.7321 84.68C97.4254 84.2133 97.2721 83.6867 97.2721 83.1C97.2721 82.38 97.4588 81.8133 97.8321 81.4C98.2054 80.9733 98.8121 80.6667 99.6521 80.48C100.492 80.2933 101.619 80.2 103.032 80.2H103.732V79.78C103.732 79.1133 103.585 78.6333 103.292 78.34C102.999 78.0467 102.505 77.9 101.812 77.9C101.425 77.9 101.005 77.9467 100.552 78.04C100.112 78.1333 99.6454 78.2933 99.1521 78.52C98.8321 78.6667 98.5654 78.6867 98.3521 78.58C98.1388 78.46 97.9921 78.28 97.9121 78.04C97.8454 77.7867 97.8588 77.5333 97.9521 77.28C98.0588 77.0267 98.2654 76.84 98.5721 76.72C99.1854 76.4667 99.7721 76.2867 100.332 76.18C100.905 76.0733 101.425 76.02 101.892 76.02C103.319 76.02 104.379 76.3533 105.072 77.02C105.765 77.6733 106.112 78.6933 106.112 80.08V84.88C106.112 85.7333 105.725 86.16 104.952 86.16C104.165 86.16 103.772 85.7333 103.772 84.88V84.44C103.545 84.9867 103.185 85.42 102.692 85.74C102.199 86.0467 101.612 86.2 100.932 86.2ZM101.452 84.48C102.105 84.48 102.645 84.2533 103.072 83.8C103.512 83.3467 103.732 82.7733 103.732 82.08V81.64H103.052C101.799 81.64 100.925 81.74 100.432 81.94C99.9521 82.1267 99.7121 82.4733 99.7121 82.98C99.7121 83.42 99.8654 83.78 100.172 84.06C100.479 84.34 100.905 84.48 101.452 84.48ZM113.13 86.2C110.543 86.2 109.25 84.92 109.25 82.36V78.1H108.21C107.543 78.1 107.21 77.7867 107.21 77.16C107.21 76.5333 107.543 76.22 108.21 76.22H109.25V74.4C109.25 73.56 109.67 73.14 110.51 73.14C111.336 73.14 111.75 73.56 111.75 74.4V76.22H113.87C114.536 76.22 114.87 76.5333 114.87 77.16C114.87 77.7867 114.536 78.1 113.87 78.1H111.75V82.22C111.75 82.86 111.89 83.34 112.17 83.66C112.45 83.98 112.903 84.14 113.53 84.14C113.756 84.14 113.956 84.12 114.13 84.08C114.303 84.04 114.456 84.0133 114.59 84C114.75 83.9867 114.883 84.04 114.99 84.16C115.096 84.2667 115.15 84.4933 115.15 84.84C115.15 85.1067 115.103 85.3467 115.01 85.56C114.93 85.76 114.776 85.9 114.55 85.98C114.376 86.0333 114.15 86.08 113.87 86.12C113.59 86.1733 113.343 86.2 113.13 86.2ZM125.515 86.2C124.662 86.2 123.908 85.9933 123.255 85.58C122.615 85.1667 122.115 84.58 121.755 83.82C121.395 83.0467 121.215 82.14 121.215 81.1C121.215 80.0467 121.395 79.1467 121.755 78.4C122.115 77.64 122.615 77.0533 123.255 76.64C123.908 76.2267 124.662 76.02 125.515 76.02C126.208 76.02 126.835 76.1733 127.395 76.48C127.955 76.7867 128.375 77.1933 128.655 77.7V73C128.655 72.16 129.068 71.74 129.895 71.74C130.735 71.74 131.155 72.16 131.155 73V84.88C131.155 85.7333 130.742 86.16 129.915 86.16C129.088 86.16 128.675 85.7333 128.675 84.88V84.46C128.395 84.9933 127.975 85.42 127.415 85.74C126.855 86.0467 126.222 86.2 125.515 86.2ZM126.215 84.3C126.962 84.3 127.562 84.0333 128.015 83.5C128.468 82.9533 128.695 82.1533 128.695 81.1C128.695 80.0333 128.468 79.24 128.015 78.72C127.562 78.1867 126.962 77.92 126.215 77.92C125.468 77.92 124.868 78.1867 124.415 78.72C123.962 79.24 123.735 80.0333 123.735 81.1C123.735 82.1533 123.962 82.9533 124.415 83.5C124.868 84.0333 125.468 84.3 126.215 84.3ZM136.967 86.2C136.261 86.2 135.627 86.0667 135.067 85.8C134.521 85.52 134.087 85.1467 133.767 84.68C133.461 84.2133 133.307 83.6867 133.307 83.1C133.307 82.38 133.494 81.8133 133.867 81.4C134.241 80.9733 134.847 80.6667 135.687 80.48C136.527 80.2933 137.654 80.2 139.067 80.2H139.767V79.78C139.767 79.1133 139.621 78.6333 139.327 78.34C139.034 78.0467 138.541 77.9 137.847 77.9C137.461 77.9 137.041 77.9467 136.587 78.04C136.147 78.1333 135.681 78.2933 135.187 78.52C134.867 78.6667 134.601 78.6867 134.387 78.58C134.174 78.46 134.027 78.28 133.947 78.04C133.881 77.7867 133.894 77.5333 133.987 77.28C134.094 77.0267 134.301 76.84 134.607 76.72C135.221 76.4667 135.807 76.2867 136.367 76.18C136.941 76.0733 137.461 76.02 137.927 76.02C139.354 76.02 140.414 76.3533 141.107 77.02C141.801 77.6733 142.147 78.6933 142.147 80.08V84.88C142.147 85.7333 141.761 86.16 140.987 86.16C140.201 86.16 139.807 85.7333 139.807 84.88V84.44C139.581 84.9867 139.221 85.42 138.727 85.74C138.234 86.0467 137.647 86.2 136.967 86.2ZM137.487 84.48C138.141 84.48 138.681 84.2533 139.107 83.8C139.547 83.3467 139.767 82.7733 139.767 82.08V81.64H139.087C137.834 81.64 136.961 81.74 136.467 81.94C135.987 82.1267 135.747 82.4733 135.747 82.98C135.747 83.42 135.901 83.78 136.207 84.06C136.514 84.34 136.941 84.48 137.487 84.48ZM149.165 86.2C146.578 86.2 145.285 84.92 145.285 82.36V78.1H144.245C143.578 78.1 143.245 77.7867 143.245 77.16C143.245 76.5333 143.578 76.22 144.245 76.22H145.285V74.4C145.285 73.56 145.705 73.14 146.545 73.14C147.371 73.14 147.785 73.56 147.785 74.4V76.22H149.905C150.571 76.22 150.905 76.5333 150.905 77.16C150.905 77.7867 150.571 78.1 149.905 78.1H147.785V82.22C147.785 82.86 147.925 83.34 148.205 83.66C148.485 83.98 148.938 84.14 149.565 84.14C149.791 84.14 149.991 84.12 150.165 84.08C150.338 84.04 150.491 84.0133 150.625 84C150.785 83.9867 150.918 84.04 151.025 84.16C151.131 84.2667 151.185 84.4933 151.185 84.84C151.185 85.1067 151.138 85.3467 151.045 85.56C150.965 85.76 150.811 85.9 150.585 85.98C150.411 86.0333 150.185 86.08 149.905 86.12C149.625 86.1733 149.378 86.2 149.165 86.2ZM155.581 86.2C154.874 86.2 154.241 86.0667 153.681 85.8C153.134 85.52 152.701 85.1467 152.381 84.68C152.074 84.2133 151.921 83.6867 151.921 83.1C151.921 82.38 152.107 81.8133 152.481 81.4C152.854 80.9733 153.461 80.6667 154.301 80.48C155.141 80.2933 156.267 80.2 157.681 80.2H158.381V79.78C158.381 79.1133 158.234 78.6333 157.941 78.34C157.647 78.0467 157.154 77.9 156.461 77.9C156.074 77.9 155.654 77.9467 155.201 78.04C154.761 78.1333 154.294 78.2933 153.801 78.52C153.481 78.6667 153.214 78.6867 153.001 78.58C152.787 78.46 152.641 78.28 152.561 78.04C152.494 77.7867 152.507 77.5333 152.601 77.28C152.707 77.0267 152.914 76.84 153.221 76.72C153.834 76.4667 154.421 76.2867 154.981 76.18C155.554 76.0733 156.074 76.02 156.541 76.02C157.967 76.02 159.027 76.3533 159.721 77.02C160.414 77.6733 160.761 78.6933 160.761 80.08V84.88C160.761 85.7333 160.374 86.16 159.601 86.16C158.814 86.16 158.421 85.7333 158.421 84.88V84.44C158.194 84.9867 157.834 85.42 157.341 85.74C156.847 86.0467 156.261 86.2 155.581 86.2ZM156.101 84.48C156.754 84.48 157.294 84.2533 157.721 83.8C158.161 83.3467 158.381 82.7733 158.381 82.08V81.64H157.701C156.447 81.64 155.574 81.74 155.081 81.94C154.601 82.1267 154.361 82.4733 154.361 82.98C154.361 83.42 154.514 83.78 154.821 84.06C155.127 84.34 155.554 84.48 156.101 84.48ZM164.538 86.16C163.711 86.16 163.298 85.7333 163.298 84.88V77.32C163.298 76.48 163.705 76.06 164.518 76.06C165.331 76.06 165.738 76.48 165.738 77.32V77.74C166.071 77.18 166.518 76.7533 167.078 76.46C167.651 76.1667 168.291 76.02 168.998 76.02C171.305 76.02 172.458 77.36 172.458 80.04V84.88C172.458 85.7333 172.045 86.16 171.218 86.16C170.378 86.16 169.958 85.7333 169.958 84.88V80.16C169.958 79.4 169.811 78.8467 169.518 78.5C169.238 78.1533 168.798 77.98 168.198 77.98C167.465 77.98 166.878 78.2133 166.438 78.68C166.011 79.1333 165.798 79.74 165.798 80.5V84.88C165.798 85.7333 165.378 86.16 164.538 86.16ZM179.557 89.8C178.837 89.8 178.137 89.7333 177.457 89.6C176.791 89.4667 176.184 89.26 175.637 88.98C175.317 88.82 175.124 88.6133 175.057 88.36C175.004 88.12 175.031 87.8867 175.137 87.66C175.244 87.4333 175.404 87.2667 175.617 87.16C175.844 87.0667 176.084 87.08 176.337 87.2C176.924 87.4933 177.477 87.68 177.997 87.76C178.531 87.8533 178.984 87.9 179.357 87.9C181.144 87.9 182.037 87.04 182.037 85.32V83.98C181.757 84.5267 181.324 84.96 180.737 85.28C180.164 85.6 179.524 85.76 178.817 85.76C177.937 85.76 177.171 85.56 176.517 85.16C175.864 84.7467 175.357 84.1733 174.997 83.44C174.637 82.7067 174.457 81.8533 174.457 80.88C174.457 79.9067 174.637 79.06 174.997 78.34C175.357 77.6067 175.864 77.04 176.517 76.64C177.171 76.2267 177.937 76.02 178.817 76.02C179.524 76.02 180.164 76.1733 180.737 76.48C181.311 76.7867 181.731 77.2067 181.997 77.74V77.32C181.997 76.9067 182.104 76.5933 182.317 76.38C182.544 76.1667 182.851 76.06 183.237 76.06C184.064 76.06 184.477 76.48 184.477 77.32V85.02C184.477 86.6067 184.057 87.8 183.217 88.6C182.377 89.4 181.157 89.8 179.557 89.8ZM179.497 83.86C180.271 83.86 180.884 83.5933 181.337 83.06C181.791 82.5267 182.017 81.8 182.017 80.88C182.017 79.96 181.791 79.24 181.337 78.72C180.884 78.1867 180.271 77.92 179.497 77.92C178.724 77.92 178.111 78.1867 177.657 78.72C177.204 79.24 176.977 79.96 176.977 80.88C176.977 81.8 177.204 82.5267 177.657 83.06C178.111 83.5933 178.724 83.86 179.497 83.86ZM193.737 86.16C192.911 86.16 192.497 85.7333 192.497 84.88V73C192.497 72.16 192.911 71.74 193.737 71.74C194.577 71.74 194.997 72.16 194.997 73V80.38H195.037L198.337 76.9C198.604 76.6333 198.837 76.4267 199.037 76.28C199.237 76.1333 199.511 76.06 199.857 76.06C200.204 76.06 200.464 76.1533 200.637 76.34C200.824 76.5133 200.917 76.7267 200.917 76.98C200.917 77.2333 200.797 77.4867 200.557 77.74L197.557 80.9L200.897 84.5C201.137 84.7533 201.244 85.0133 201.217 85.28C201.204 85.5333 201.097 85.7467 200.897 85.92C200.697 86.08 200.444 86.16 200.137 86.16C199.764 86.16 199.464 86.0867 199.237 85.94C199.024 85.7933 198.784 85.5733 198.517 85.28L195.037 81.64H194.997V84.88C194.997 85.7333 194.577 86.16 193.737 86.16ZM207.845 86.2C206.738 86.2 205.785 85.9933 204.985 85.58C204.185 85.1667 203.565 84.58 203.125 83.82C202.698 83.06 202.485 82.16 202.485 81.12C202.485 80.1067 202.691 79.22 203.105 78.46C203.531 77.7 204.111 77.1067 204.845 76.68C205.591 76.24 206.438 76.02 207.385 76.02C208.771 76.02 209.865 76.46 210.665 77.34C211.478 78.22 211.885 79.42 211.885 80.94C211.885 81.4333 211.565 81.68 210.925 81.68H204.885C205.071 83.4267 206.071 84.3 207.885 84.3C208.231 84.3 208.618 84.26 209.045 84.18C209.485 84.0867 209.898 83.9333 210.285 83.72C210.631 83.52 210.925 83.46 211.165 83.54C211.405 83.6067 211.571 83.7467 211.665 83.96C211.771 84.1733 211.785 84.4133 211.705 84.68C211.638 84.9333 211.451 85.1533 211.145 85.34C210.678 85.6333 210.138 85.8533 209.525 86C208.925 86.1333 208.365 86.2 207.845 86.2ZM207.485 77.72C206.751 77.72 206.158 77.9467 205.705 78.4C205.251 78.8533 204.978 79.4667 204.885 80.24H209.805C209.751 79.4267 209.525 78.8067 209.125 78.38C208.738 77.94 208.191 77.72 207.485 77.72ZM215.144 86.16C214.318 86.16 213.904 85.7333 213.904 84.88V77.32C213.904 76.48 214.311 76.06 215.124 76.06C215.938 76.06 216.344 76.48 216.344 77.32V77.72C216.638 77.1867 217.044 76.7733 217.564 76.48C218.084 76.1733 218.684 76.02 219.364 76.02C220.831 76.02 221.791 76.66 222.244 77.94C222.551 77.34 222.991 76.8733 223.564 76.54C224.138 76.1933 224.791 76.02 225.524 76.02C227.724 76.02 228.824 77.36 228.824 80.04V84.88C228.824 85.7333 228.404 86.16 227.564 86.16C226.738 86.16 226.324 85.7333 226.324 84.88V80.14C226.324 79.3933 226.198 78.8467 225.944 78.5C225.704 78.1533 225.291 77.98 224.704 77.98C224.051 77.98 223.538 78.2133 223.164 78.68C222.791 79.1333 222.604 79.7667 222.604 80.58V84.88C222.604 85.7333 222.191 86.16 221.364 86.16C220.524 86.16 220.104 85.7333 220.104 84.88V80.14C220.104 79.3933 219.978 78.8467 219.724 78.5C219.484 78.1533 219.078 77.98 218.504 77.98C217.851 77.98 217.338 78.2133 216.964 78.68C216.591 79.1333 216.404 79.7667 216.404 80.58V84.88C216.404 85.7333 215.984 86.16 215.144 86.16ZM237.044 86.2C236.324 86.2 235.684 86.0467 235.124 85.74C234.564 85.42 234.144 84.9933 233.864 84.46V84.88C233.864 85.7333 233.457 86.16 232.644 86.16C231.817 86.16 231.404 85.7333 231.404 84.88V73C231.404 72.16 231.817 71.74 232.644 71.74C233.484 71.74 233.904 72.16 233.904 73V77.66C234.197 77.1667 234.617 76.7733 235.164 76.48C235.724 76.1733 236.35 76.02 237.044 76.02C237.91 76.02 238.664 76.2267 239.304 76.64C239.944 77.0533 240.444 77.64 240.804 78.4C241.164 79.1467 241.344 80.0467 241.344 81.1C241.344 82.14 241.164 83.0467 240.804 83.82C240.444 84.58 239.937 85.1667 239.284 85.58C238.644 85.9933 237.897 86.2 237.044 86.2ZM236.344 84.3C237.09 84.3 237.69 84.0333 238.144 83.5C238.597 82.9533 238.824 82.1533 238.824 81.1C238.824 80.0333 238.597 79.24 238.144 78.72C237.69 78.1867 237.09 77.92 236.344 77.92C235.597 77.92 234.997 78.1867 234.544 78.72C234.09 79.24 233.864 80.0333 233.864 81.1C233.864 82.1533 234.09 82.9533 234.544 83.5C234.997 84.0333 235.597 84.3 236.344 84.3ZM246.616 86.2C245.909 86.2 245.276 86.0667 244.716 85.8C244.169 85.52 243.736 85.1467 243.416 84.68C243.109 84.2133 242.956 83.6867 242.956 83.1C242.956 82.38 243.142 81.8133 243.516 81.4C243.889 80.9733 244.496 80.6667 245.336 80.48C246.176 80.2933 247.302 80.2 248.716 80.2H249.416V79.78C249.416 79.1133 249.269 78.6333 248.976 78.34C248.682 78.0467 248.189 77.9 247.496 77.9C247.109 77.9 246.689 77.9467 246.236 78.04C245.796 78.1333 245.329 78.2933 244.836 78.52C244.516 78.6667 244.249 78.6867 244.036 78.58C243.822 78.46 243.676 78.28 243.596 78.04C243.529 77.7867 243.542 77.5333 243.636 77.28C243.742 77.0267 243.949 76.84 244.256 76.72C244.869 76.4667 245.456 76.2867 246.016 76.18C246.589 76.0733 247.109 76.02 247.576 76.02C249.002 76.02 250.062 76.3533 250.756 77.02C251.449 77.6733 251.796 78.6933 251.796 80.08V84.88C251.796 85.7333 251.409 86.16 250.636 86.16C249.849 86.16 249.456 85.7333 249.456 84.88V84.44C249.229 84.9867 248.869 85.42 248.376 85.74C247.882 86.0467 247.296 86.2 246.616 86.2ZM247.136 84.48C247.789 84.48 248.329 84.2533 248.756 83.8C249.196 83.3467 249.416 82.7733 249.416 82.08V81.64H248.736C247.482 81.64 246.609 81.74 246.116 81.94C245.636 82.1267 245.396 82.4733 245.396 82.98C245.396 83.42 245.549 83.78 245.856 84.06C246.162 84.34 246.589 84.48 247.136 84.48ZM257.673 86.2C255.447 86.2 254.333 84.9533 254.333 82.46V73C254.333 72.16 254.747 71.74 255.573 71.74C256.413 71.74 256.833 72.16 256.833 73V82.34C256.833 83.54 257.333 84.14 258.333 84.14C258.44 84.14 258.54 84.14 258.633 84.14C258.727 84.1267 258.82 84.1133 258.913 84.1C259.1 84.0733 259.227 84.1267 259.293 84.26C259.36 84.38 259.393 84.6333 259.393 85.02C259.393 85.3533 259.327 85.6133 259.193 85.8C259.06 85.9867 258.84 86.1 258.533 86.14C258.253 86.18 257.967 86.2 257.673 86.2ZM261.96 74.22C261.493 74.22 261.127 74.1067 260.86 73.88C260.607 73.64 260.48 73.3133 260.48 72.9C260.48 72.4733 260.607 72.1467 260.86 71.92C261.127 71.6933 261.493 71.58 261.96 71.58C262.947 71.58 263.44 72.02 263.44 72.9C263.44 73.78 262.947 74.22 261.96 74.22ZM261.96 86.14C261.56 86.14 261.253 86.02 261.04 85.78C260.827 85.54 260.72 85.2067 260.72 84.78V77.44C260.72 76.5333 261.133 76.08 261.96 76.08C262.8 76.08 263.22 76.5333 263.22 77.44V84.78C263.22 85.2067 263.113 85.54 262.9 85.78C262.687 86.02 262.373 86.14 261.96 86.14ZM276.347 86.2C275.454 86.2 274.581 86.1 273.727 85.9C272.887 85.7 272.154 85.4 271.527 85C271.221 84.8 271.034 84.5533 270.967 84.26C270.901 83.9667 270.921 83.6933 271.027 83.44C271.147 83.1733 271.327 82.9933 271.567 82.9C271.821 82.7933 272.107 82.84 272.427 83.04C273.014 83.3867 273.634 83.64 274.287 83.8C274.941 83.96 275.627 84.04 276.347 84.04C277.401 84.04 278.167 83.8667 278.647 83.52C279.127 83.16 279.367 82.7 279.367 82.14C279.367 81.6733 279.194 81.3067 278.847 81.04C278.514 80.7733 277.934 80.5533 277.107 80.38L274.907 79.92C272.401 79.3867 271.147 78.1 271.147 76.06C271.147 75.18 271.381 74.4133 271.847 73.76C272.314 73.1067 272.961 72.6 273.787 72.24C274.614 71.88 275.567 71.7 276.647 71.7C277.447 71.7 278.207 71.8 278.927 72C279.647 72.2 280.294 72.4933 280.867 72.88C281.134 73.0667 281.294 73.3 281.347 73.58C281.401 73.8467 281.367 74.1 281.247 74.34C281.127 74.5667 280.934 74.7267 280.667 74.82C280.414 74.9 280.114 74.84 279.767 74.64C279.274 74.36 278.774 74.16 278.267 74.04C277.761 73.92 277.214 73.86 276.627 73.86C275.707 73.86 274.987 74.0533 274.467 74.44C273.947 74.8267 273.687 75.3333 273.687 75.96C273.687 76.44 273.847 76.8267 274.167 77.12C274.487 77.4 275.034 77.62 275.807 77.78L277.987 78.24C279.307 78.52 280.287 78.96 280.927 79.56C281.581 80.16 281.907 80.96 281.907 81.96C281.907 82.8 281.681 83.54 281.227 84.18C280.774 84.82 280.127 85.32 279.287 85.68C278.461 86.0267 277.481 86.2 276.347 86.2ZM287.084 86.2C286.378 86.2 285.744 86.0667 285.184 85.8C284.638 85.52 284.204 85.1467 283.884 84.68C283.578 84.2133 283.424 83.6867 283.424 83.1C283.424 82.38 283.611 81.8133 283.984 81.4C284.358 80.9733 284.964 80.6667 285.804 80.48C286.644 80.2933 287.771 80.2 289.184 80.2H289.884V79.78C289.884 79.1133 289.738 78.6333 289.444 78.34C289.151 78.0467 288.658 77.9 287.964 77.9C287.578 77.9 287.158 77.9467 286.704 78.04C286.264 78.1333 285.798 78.2933 285.304 78.52C284.984 78.6667 284.718 78.6867 284.504 78.58C284.291 78.46 284.144 78.28 284.064 78.04C283.998 77.7867 284.011 77.5333 284.104 77.28C284.211 77.0267 284.418 76.84 284.724 76.72C285.338 76.4667 285.924 76.2867 286.484 76.18C287.058 76.0733 287.578 76.02 288.044 76.02C289.471 76.02 290.531 76.3533 291.224 77.02C291.918 77.6733 292.264 78.6933 292.264 80.08V84.88C292.264 85.7333 291.878 86.16 291.104 86.16C290.318 86.16 289.924 85.7333 289.924 84.88V84.44C289.698 84.9867 289.338 85.42 288.844 85.74C288.351 86.0467 287.764 86.2 287.084 86.2ZM287.604 84.48C288.258 84.48 288.798 84.2533 289.224 83.8C289.664 83.3467 289.884 82.7733 289.884 82.08V81.64H289.204C287.951 81.64 287.078 81.74 286.584 81.94C286.104 82.1267 285.864 82.4733 285.864 82.98C285.864 83.42 286.018 83.78 286.324 84.06C286.631 84.34 287.058 84.48 287.604 84.48ZM296.082 86.16C295.229 86.16 294.802 85.7333 294.802 84.88V77.32C294.802 76.48 295.209 76.06 296.022 76.06C296.835 76.06 297.242 76.48 297.242 77.32V77.94C297.722 76.7933 298.749 76.1533 300.322 76.02C300.895 75.9533 301.215 76.28 301.282 77C301.349 77.7067 301.002 78.1 300.242 78.18L299.802 78.22C298.162 78.38 297.342 79.22 297.342 80.74V84.88C297.342 85.7333 296.922 86.16 296.082 86.16ZM305.756 86.2C305.05 86.2 304.416 86.0667 303.856 85.8C303.31 85.52 302.876 85.1467 302.556 84.68C302.25 84.2133 302.096 83.6867 302.096 83.1C302.096 82.38 302.283 81.8133 302.656 81.4C303.03 80.9733 303.636 80.6667 304.476 80.48C305.316 80.2933 306.443 80.2 307.856 80.2H308.556V79.78C308.556 79.1133 308.41 78.6333 308.116 78.34C307.823 78.0467 307.33 77.9 306.636 77.9C306.25 77.9 305.83 77.9467 305.376 78.04C304.936 78.1333 304.47 78.2933 303.976 78.52C303.656 78.6667 303.39 78.6867 303.176 78.58C302.963 78.46 302.816 78.28 302.736 78.04C302.67 77.7867 302.683 77.5333 302.776 77.28C302.883 77.0267 303.09 76.84 303.396 76.72C304.01 76.4667 304.596 76.2867 305.156 76.18C305.73 76.0733 306.25 76.02 306.716 76.02C308.143 76.02 309.203 76.3533 309.896 77.02C310.59 77.6733 310.936 78.6933 310.936 80.08V84.88C310.936 85.7333 310.55 86.16 309.776 86.16C308.99 86.16 308.596 85.7333 308.596 84.88V84.44C308.37 84.9867 308.01 85.42 307.516 85.74C307.023 86.0467 306.436 86.2 305.756 86.2ZM306.276 84.48C306.93 84.48 307.47 84.2533 307.896 83.8C308.336 83.3467 308.556 82.7733 308.556 82.08V81.64H307.876C306.623 81.64 305.75 81.74 305.256 81.94C304.776 82.1267 304.536 82.4733 304.536 82.98C304.536 83.42 304.69 83.78 304.996 84.06C305.303 84.34 305.73 84.48 306.276 84.48ZM314.714 86.16C313.887 86.16 313.474 85.7333 313.474 84.88V73C313.474 72.16 313.887 71.74 314.714 71.74C315.554 71.74 315.974 72.16 315.974 73V77.64C316.307 77.1067 316.754 76.7067 317.314 76.44C317.874 76.16 318.494 76.02 319.174 76.02C321.48 76.02 322.634 77.36 322.634 80.04V84.88C322.634 85.7333 322.22 86.16 321.394 86.16C320.554 86.16 320.134 85.7333 320.134 84.88V80.16C320.134 79.4 319.987 78.8467 319.694 78.5C319.414 78.1533 318.974 77.98 318.374 77.98C317.64 77.98 317.054 78.2133 316.614 78.68C316.187 79.1333 315.974 79.74 315.974 80.5V84.88C315.974 85.7333 315.554 86.16 314.714 86.16ZM331.803 81.94C331.283 81.94 331.003 81.6333 330.963 81.02L330.363 73.38C330.323 72.8867 330.429 72.4933 330.683 72.2C330.936 71.8933 331.309 71.74 331.803 71.74C332.283 71.74 332.643 71.8933 332.883 72.2C333.136 72.4933 333.243 72.8867 333.203 73.38L332.603 81.02C332.563 81.6333 332.296 81.94 331.803 81.94ZM331.803 86.1C331.349 86.1 330.983 85.96 330.703 85.68C330.436 85.4 330.303 85.04 330.303 84.6C330.303 84.1733 330.436 83.8267 330.703 83.56C330.983 83.28 331.349 83.14 331.803 83.14C332.269 83.14 332.629 83.28 332.883 83.56C333.149 83.8267 333.283 84.1733 333.283 84.6C333.283 85.04 333.149 85.4 332.883 85.68C332.629 85.96 332.269 86.1 331.803 86.1Z" fill="#38B2AC"/>
<path d="M39.0998 115.096C38.8198 115.096 38.6198 115 38.4998 114.808C38.3798 114.616 38.3838 114.384 38.5118 114.112L41.6798 107.092C41.7838 106.86 41.9078 106.696 42.0518 106.6C42.2038 106.496 42.3758 106.444 42.5678 106.444C42.7518 106.444 42.9158 106.496 43.0598 106.6C43.2118 106.696 43.3398 106.86 43.4438 107.092L46.6238 114.112C46.7518 114.392 46.7598 114.628 46.6478 114.82C46.5358 115.004 46.3438 115.096 46.0718 115.096C45.8478 115.096 45.6718 115.044 45.5438 114.94C45.4238 114.828 45.3158 114.66 45.2198 114.436L44.6198 113.044H40.4918L39.9038 114.436C39.7998 114.668 39.6918 114.836 39.5798 114.94C39.4678 115.044 39.3078 115.096 39.0998 115.096ZM42.5438 108.208L41.0198 111.82H44.0918L42.5678 108.208H42.5438ZM48.9496 117.256C48.6776 117.256 48.4896 117.156 48.3856 116.956C48.2816 116.756 48.2856 116.528 48.3976 116.272L49.0816 114.76L47.0296 110.032C46.9176 109.768 46.9176 109.536 47.0296 109.336C47.1416 109.136 47.3616 109.036 47.6896 109.036C47.8736 109.036 48.0216 109.08 48.1336 109.168C48.2456 109.248 48.3456 109.404 48.4336 109.636L49.8736 113.236L51.3496 109.624C51.4376 109.4 51.5416 109.248 51.6616 109.168C51.7816 109.08 51.9416 109.036 52.1416 109.036C52.3976 109.036 52.5776 109.136 52.6816 109.336C52.7856 109.536 52.7816 109.764 52.6696 110.02L49.7536 116.68C49.6496 116.904 49.5376 117.056 49.4176 117.136C49.2976 117.216 49.1416 117.256 48.9496 117.256ZM56.3369 115.12C55.7289 115.12 55.2009 114.996 54.7529 114.748C54.3049 114.5 53.9569 114.148 53.7089 113.692C53.4609 113.228 53.3369 112.684 53.3369 112.06C53.3369 111.436 53.4609 110.896 53.7089 110.44C53.9569 109.984 54.3049 109.632 54.7529 109.384C55.2009 109.136 55.7289 109.012 56.3369 109.012C56.9449 109.012 57.4729 109.136 57.9209 109.384C58.3689 109.632 58.7169 109.984 58.9649 110.44C59.2129 110.896 59.3369 111.436 59.3369 112.06C59.3369 112.684 59.2129 113.228 58.9649 113.692C58.7169 114.148 58.3689 114.5 57.9209 114.748C57.4729 114.996 56.9449 115.12 56.3369 115.12ZM56.3369 113.98C56.7849 113.98 57.1449 113.82 57.4169 113.5C57.6889 113.172 57.8249 112.692 57.8249 112.06C57.8249 111.42 57.6889 110.944 57.4169 110.632C57.1449 110.312 56.7849 110.152 56.3369 110.152C55.8889 110.152 55.5289 110.312 55.2569 110.632C54.9849 110.944 54.8489 111.42 54.8489 112.06C54.8489 112.692 54.9849 113.172 55.2569 113.5C55.5289 113.82 55.8889 113.98 56.3369 113.98ZM67.2167 115.12C66.7847 115.12 66.4007 115.028 66.0647 114.844C65.7287 114.652 65.4767 114.396 65.3087 114.076V114.328C65.3087 114.84 65.0647 115.096 64.5767 115.096C64.0807 115.096 63.8327 114.84 63.8327 114.328V107.2C63.8327 106.696 64.0807 106.444 64.5767 106.444C65.0807 106.444 65.3327 106.696 65.3327 107.2V109.996C65.5087 109.7 65.7607 109.464 66.0887 109.288C66.4247 109.104 66.8007 109.012 67.2167 109.012C67.7367 109.012 68.1887 109.136 68.5727 109.384C68.9567 109.632 69.2567 109.984 69.4727 110.44C69.6887 110.888 69.7967 111.428 69.7967 112.06C69.7967 112.684 69.6887 113.228 69.4727 113.692C69.2567 114.148 68.9527 114.5 68.5607 114.748C68.1767 114.996 67.7287 115.12 67.2167 115.12ZM66.7967 113.98C67.2447 113.98 67.6047 113.82 67.8767 113.5C68.1487 113.172 68.2847 112.692 68.2847 112.06C68.2847 111.42 68.1487 110.944 67.8767 110.632C67.6047 110.312 67.2447 110.152 66.7967 110.152C66.3487 110.152 65.9887 110.312 65.7167 110.632C65.4447 110.944 65.3087 111.42 65.3087 112.06C65.3087 112.692 65.4447 113.172 65.7167 113.5C65.9887 113.82 66.3487 113.98 66.7967 113.98ZM73.152 115.12C71.712 115.12 70.992 114.312 70.992 112.696V109.792C70.992 109.288 71.24 109.036 71.736 109.036C72.24 109.036 72.492 109.288 72.492 109.792V112.72C72.492 113.136 72.576 113.444 72.744 113.644C72.912 113.844 73.18 113.944 73.548 113.944C73.948 113.944 74.276 113.808 74.532 113.536C74.788 113.256 74.916 112.888 74.916 112.432V109.792C74.916 109.288 75.164 109.036 75.66 109.036C76.164 109.036 76.416 109.288 76.416 109.792V114.328C76.416 114.84 76.172 115.096 75.684 115.096C75.196 115.096 74.952 114.84 74.952 114.328V114.124C74.56 114.788 73.96 115.12 73.152 115.12ZM79.9093 115.12C79.4853 115.12 79.1053 115.04 78.7693 114.88C78.4413 114.712 78.1813 114.488 77.9893 114.208C77.8053 113.928 77.7133 113.612 77.7133 113.26C77.7133 112.828 77.8253 112.488 78.0493 112.24C78.2733 111.984 78.6373 111.8 79.1413 111.688C79.6453 111.576 80.3213 111.52 81.1693 111.52H81.5893V111.268C81.5893 110.868 81.5013 110.58 81.3253 110.404C81.1493 110.228 80.8533 110.14 80.4373 110.14C80.2053 110.14 79.9533 110.168 79.6813 110.224C79.4173 110.28 79.1373 110.376 78.8413 110.512C78.6493 110.6 78.4893 110.612 78.3613 110.548C78.2333 110.476 78.1453 110.368 78.0973 110.224C78.0573 110.072 78.0653 109.92 78.1213 109.768C78.1853 109.616 78.3093 109.504 78.4933 109.432C78.8613 109.28 79.2133 109.172 79.5493 109.108C79.8933 109.044 80.2053 109.012 80.4853 109.012C81.3413 109.012 81.9773 109.212 82.3933 109.612C82.8093 110.004 83.0173 110.616 83.0173 111.448V114.328C83.0173 114.84 82.7853 115.096 82.3213 115.096C81.8493 115.096 81.6133 114.84 81.6133 114.328V114.064C81.4773 114.392 81.2613 114.652 80.9653 114.844C80.6693 115.028 80.3173 115.12 79.9093 115.12ZM80.2213 114.088C80.6133 114.088 80.9373 113.952 81.1933 113.68C81.4573 113.408 81.5893 113.064 81.5893 112.648V112.384H81.1813C80.4293 112.384 79.9053 112.444 79.6093 112.564C79.3213 112.676 79.1773 112.884 79.1773 113.188C79.1773 113.452 79.2693 113.668 79.4533 113.836C79.6373 114.004 79.8933 114.088 80.2213 114.088ZM87.2278 115.12C85.6758 115.12 84.8998 114.352 84.8998 112.816V110.26H84.2758C83.8758 110.26 83.6758 110.072 83.6758 109.696C83.6758 109.32 83.8758 109.132 84.2758 109.132H84.8998V108.04C84.8998 107.536 85.1518 107.284 85.6558 107.284C86.1518 107.284 86.3998 107.536 86.3998 108.04V109.132H87.6718C88.0718 109.132 88.2718 109.32 88.2718 109.696C88.2718 110.072 88.0718 110.26 87.6718 110.26H86.3998V112.732C86.3998 113.116 86.4838 113.404 86.6518 113.596C86.8198 113.788 87.0918 113.884 87.4678 113.884C87.6038 113.884 87.7238 113.872 87.8278 113.848C87.9318 113.824 88.0238 113.808 88.1038 113.8C88.1998 113.792 88.2798 113.824 88.3438 113.896C88.4078 113.96 88.4398 114.096 88.4398 114.304C88.4398 114.464 88.4118 114.608 88.3558 114.736C88.3078 114.856 88.2158 114.94 88.0798 114.988C87.9758 115.02 87.8398 115.048 87.6718 115.072C87.5038 115.104 87.3558 115.12 87.2278 115.12ZM93.147 115.096C92.651 115.096 92.403 114.84 92.403 114.328V107.2C92.403 106.696 92.651 106.444 93.147 106.444C93.651 106.444 93.903 106.696 93.903 107.2V109.984C94.103 109.664 94.371 109.424 94.707 109.264C95.043 109.096 95.415 109.012 95.823 109.012C97.207 109.012 97.899 109.816 97.899 111.424V114.328C97.899 114.84 97.651 115.096 97.155 115.096C96.651 115.096 96.399 114.84 96.399 114.328V111.496C96.399 111.04 96.311 110.708 96.135 110.5C95.967 110.292 95.703 110.188 95.343 110.188C94.903 110.188 94.551 110.328 94.287 110.608C94.031 110.88 93.903 111.244 93.903 111.7V114.328C93.903 114.84 93.651 115.096 93.147 115.096ZM101.355 115.12C100.931 115.12 100.551 115.04 100.215 114.88C99.8866 114.712 99.6266 114.488 99.4346 114.208C99.2506 113.928 99.1586 113.612 99.1586 113.26C99.1586 112.828 99.2706 112.488 99.4946 112.24C99.7186 111.984 100.083 111.8 100.587 111.688C101.091 111.576 101.767 111.52 102.615 111.52H103.035V111.268C103.035 110.868 102.947 110.58 102.771 110.404C102.595 110.228 102.299 110.14 101.883 110.14C101.651 110.14 101.399 110.168 101.127 110.224C100.863 110.28 100.583 110.376 100.287 110.512C100.095 110.6 99.9346 110.612 99.8066 110.548C99.6786 110.476 99.5906 110.368 99.5426 110.224C99.5026 110.072 99.5106 109.92 99.5666 109.768C99.6306 109.616 99.7546 109.504 99.9386 109.432C100.307 109.28 100.659 109.172 100.995 109.108C101.339 109.044 101.651 109.012 101.931 109.012C102.787 109.012 103.423 109.212 103.839 109.612C104.255 110.004 104.463 110.616 104.463 111.448V114.328C104.463 114.84 104.231 115.096 103.767 115.096C103.295 115.096 103.059 114.84 103.059 114.328V114.064C102.923 114.392 102.707 114.652 102.411 114.844C102.115 115.028 101.763 115.12 101.355 115.12ZM101.667 114.088C102.059 114.088 102.383 113.952 102.639 113.68C102.903 113.408 103.035 113.064 103.035 112.648V112.384H102.627C101.875 112.384 101.351 112.444 101.055 112.564C100.767 112.676 100.623 112.884 100.623 113.188C100.623 113.452 100.715 113.668 100.899 113.836C101.083 114.004 101.339 114.088 101.667 114.088ZM106.753 115.096C106.241 115.096 105.985 114.84 105.985 114.328V109.792C105.985 109.288 106.229 109.036 106.717 109.036C107.205 109.036 107.449 109.288 107.449 109.792V110.164C107.737 109.476 108.353 109.092 109.297 109.012C109.641 108.972 109.833 109.168 109.873 109.6C109.913 110.024 109.705 110.26 109.249 110.308L108.985 110.332C108.001 110.428 107.509 110.932 107.509 111.844V114.328C107.509 114.84 107.257 115.096 106.753 115.096ZM111.428 107.932C111.148 107.932 110.928 107.864 110.768 107.728C110.616 107.584 110.54 107.388 110.54 107.14C110.54 106.884 110.616 106.688 110.768 106.552C110.928 106.416 111.148 106.348 111.428 106.348C112.02 106.348 112.316 106.612 112.316 107.14C112.316 107.668 112.02 107.932 111.428 107.932ZM111.428 115.084C111.188 115.084 111.004 115.012 110.876 114.868C110.748 114.724 110.684 114.524 110.684 114.268V109.864C110.684 109.32 110.932 109.048 111.428 109.048C111.932 109.048 112.184 109.32 112.184 109.864V114.268C112.184 114.524 112.12 114.724 111.992 114.868C111.864 115.012 111.676 115.084 111.428 115.084ZM114.511 115.096C114.015 115.096 113.767 114.84 113.767 114.328V109.792C113.767 109.288 114.011 109.036 114.499 109.036C114.987 109.036 115.231 109.288 115.231 109.792V110.032C115.407 109.712 115.651 109.464 115.963 109.288C116.275 109.104 116.635 109.012 117.043 109.012C117.923 109.012 118.499 109.396 118.771 110.164C118.955 109.804 119.219 109.524 119.563 109.324C119.907 109.116 120.299 109.012 120.739 109.012C122.059 109.012 122.719 109.816 122.719 111.424V114.328C122.719 114.84 122.467 115.096 121.963 115.096C121.467 115.096 121.219 114.84 121.219 114.328V111.484C121.219 111.036 121.143 110.708 120.991 110.5C120.847 110.292 120.599 110.188 120.247 110.188C119.855 110.188 119.547 110.328 119.323 110.608C119.099 110.88 118.987 111.26 118.987 111.748V114.328C118.987 114.84 118.739 115.096 118.243 115.096C117.739 115.096 117.487 114.84 117.487 114.328V111.484C117.487 111.036 117.411 110.708 117.259 110.5C117.115 110.292 116.871 110.188 116.527 110.188C116.135 110.188 115.827 110.328 115.603 110.608C115.379 110.88 115.267 111.26 115.267 111.748V114.328C115.267 114.84 115.015 115.096 114.511 115.096ZM126.39 115.12C124.95 115.12 124.23 114.312 124.23 112.696V109.792C124.23 109.288 124.478 109.036 124.974 109.036C125.478 109.036 125.73 109.288 125.73 109.792V112.72C125.73 113.136 125.814 113.444 125.982 113.644C126.15 113.844 126.418 113.944 126.786 113.944C127.186 113.944 127.514 113.808 127.77 113.536C128.026 113.256 128.154 112.888 128.154 112.432V109.792C128.154 109.288 128.402 109.036 128.898 109.036C129.402 109.036 129.654 109.288 129.654 109.792V114.328C129.654 114.84 129.41 115.096 128.922 115.096C128.434 115.096 128.19 114.84 128.19 114.328V114.124C127.798 114.788 127.198 115.12 126.39 115.12ZM136.477 115.12C135.141 115.12 134.473 114.372 134.473 112.876V107.2C134.473 106.696 134.721 106.444 135.217 106.444C135.721 106.444 135.973 106.696 135.973 107.2V112.804C135.973 113.524 136.273 113.884 136.873 113.884C136.937 113.884 136.997 113.884 137.053 113.884C137.109 113.876 137.165 113.868 137.221 113.86C137.333 113.844 137.409 113.876 137.449 113.956C137.489 114.028 137.509 114.18 137.509 114.412C137.509 114.612 137.469 114.768 137.389 114.88C137.309 114.992 137.177 115.06 136.993 115.084C136.825 115.108 136.653 115.12 136.477 115.12ZM141.139 115.12C140.475 115.12 139.903 114.996 139.423 114.748C138.943 114.5 138.571 114.148 138.307 113.692C138.051 113.236 137.923 112.696 137.923 112.072C137.923 111.464 138.047 110.932 138.295 110.476C138.551 110.02 138.899 109.664 139.339 109.408C139.787 109.144 140.295 109.012 140.863 109.012C141.695 109.012 142.351 109.276 142.831 109.804C143.319 110.332 143.563 111.052 143.563 111.964C143.563 112.26 143.371 112.408 142.987 112.408H139.363C139.475 113.456 140.075 113.98 141.163 113.98C141.371 113.98 141.603 113.956 141.859 113.908C142.123 113.852 142.371 113.76 142.603 113.632C142.811 113.512 142.987 113.476 143.131 113.524C143.275 113.564 143.375 113.648 143.431 113.776C143.495 113.904 143.503 114.048 143.455 114.208C143.415 114.36 143.303 114.492 143.119 114.604C142.839 114.78 142.515 114.912 142.147 115C141.787 115.08 141.451 115.12 141.139 115.12ZM140.923 110.032C140.483 110.032 140.127 110.168 139.855 110.44C139.583 110.712 139.419 111.08 139.363 111.544H142.315C142.283 111.056 142.147 110.684 141.907 110.428C141.675 110.164 141.347 110.032 140.923 110.032ZM148.135 115.12C147.703 115.12 147.319 115.028 146.983 114.844C146.647 114.652 146.395 114.396 146.227 114.076V114.328C146.227 114.84 145.983 115.096 145.495 115.096C144.999 115.096 144.751 114.84 144.751 114.328V107.2C144.751 106.696 144.999 106.444 145.495 106.444C145.999 106.444 146.251 106.696 146.251 107.2V109.996C146.427 109.7 146.679 109.464 147.007 109.288C147.343 109.104 147.719 109.012 148.135 109.012C148.655 109.012 149.107 109.136 149.491 109.384C149.875 109.632 150.175 109.984 150.391 110.44C150.607 110.888 150.715 111.428 150.715 112.06C150.715 112.684 150.607 113.228 150.391 113.692C150.175 114.148 149.871 114.5 149.479 114.748C149.095 114.996 148.647 115.12 148.135 115.12ZM147.715 113.98C148.163 113.98 148.523 113.82 148.795 113.5C149.067 113.172 149.203 112.692 149.203 112.06C149.203 111.42 149.067 110.944 148.795 110.632C148.523 110.312 148.163 110.152 147.715 110.152C147.267 110.152 146.907 110.312 146.635 110.632C146.363 110.944 146.227 111.42 146.227 112.06C146.227 112.692 146.363 113.172 146.635 113.5C146.907 113.82 147.267 113.98 147.715 113.98ZM152.69 107.932C152.41 107.932 152.19 107.864 152.03 107.728C151.878 107.584 151.802 107.388 151.802 107.14C151.802 106.884 151.878 106.688 152.03 106.552C152.19 106.416 152.41 106.348 152.69 106.348C153.282 106.348 153.578 106.612 153.578 107.14C153.578 107.668 153.282 107.932 152.69 107.932ZM152.69 115.084C152.45 115.084 152.266 115.012 152.138 114.868C152.01 114.724 151.946 114.524 151.946 114.268V109.864C151.946 109.32 152.194 109.048 152.69 109.048C153.194 109.048 153.446 109.32 153.446 109.864V114.268C153.446 114.524 153.382 114.724 153.254 114.868C153.126 115.012 152.938 115.084 152.69 115.084ZM161.646 115.12C161.214 115.12 160.83 115.028 160.494 114.844C160.158 114.652 159.906 114.396 159.738 114.076V114.328C159.738 114.84 159.494 115.096 159.006 115.096C158.51 115.096 158.262 114.84 158.262 114.328V107.2C158.262 106.696 158.51 106.444 159.006 106.444C159.51 106.444 159.762 106.696 159.762 107.2V109.996C159.938 109.7 160.19 109.464 160.518 109.288C160.854 109.104 161.23 109.012 161.646 109.012C162.166 109.012 162.618 109.136 163.002 109.384C163.386 109.632 163.686 109.984 163.902 110.44C164.118 110.888 164.226 111.428 164.226 112.06C164.226 112.684 164.118 113.228 163.902 113.692C163.686 114.148 163.382 114.5 162.99 114.748C162.606 114.996 162.158 115.12 161.646 115.12ZM161.226 113.98C161.674 113.98 162.034 113.82 162.306 113.5C162.578 113.172 162.714 112.692 162.714 112.06C162.714 111.42 162.578 110.944 162.306 110.632C162.034 110.312 161.674 110.152 161.226 110.152C160.778 110.152 160.418 110.312 160.146 110.632C159.874 110.944 159.738 111.42 159.738 112.06C159.738 112.692 159.874 113.172 160.146 113.5C160.418 113.82 160.778 113.98 161.226 113.98ZM168.35 115.12C167.686 115.12 167.114 114.996 166.634 114.748C166.154 114.5 165.782 114.148 165.518 113.692C165.262 113.236 165.134 112.696 165.134 112.072C165.134 111.464 165.258 110.932 165.506 110.476C165.762 110.02 166.11 109.664 166.55 109.408C166.998 109.144 167.506 109.012 168.074 109.012C168.906 109.012 169.562 109.276 170.042 109.804C170.53 110.332 170.774 111.052 170.774 111.964C170.774 112.26 170.582 112.408 170.198 112.408H166.574C166.686 113.456 167.286 113.98 168.374 113.98C168.582 113.98 168.814 113.956 169.07 113.908C169.334 113.852 169.582 113.76 169.814 113.632C170.022 113.512 170.198 113.476 170.342 113.524C170.486 113.564 170.586 113.648 170.642 113.776C170.706 113.904 170.714 114.048 170.666 114.208C170.626 114.36 170.514 114.492 170.33 114.604C170.05 114.78 169.726 114.912 169.358 115C168.998 115.08 168.662 115.12 168.35 115.12ZM168.134 110.032C167.694 110.032 167.338 110.168 167.066 110.44C166.794 110.712 166.63 111.08 166.574 111.544H169.526C169.494 111.056 169.358 110.684 169.118 110.428C168.886 110.164 168.558 110.032 168.134 110.032ZM172.73 115.096C172.218 115.096 171.962 114.84 171.962 114.328V109.792C171.962 109.288 172.206 109.036 172.694 109.036C173.182 109.036 173.426 109.288 173.426 109.792V110.164C173.714 109.476 174.33 109.092 175.274 109.012C175.618 108.972 175.81 109.168 175.85 109.6C175.89 110.024 175.682 110.26 175.226 110.308L174.962 110.332C173.978 110.428 173.486 110.932 173.486 111.844V114.328C173.486 114.84 173.234 115.096 172.73 115.096ZM177.405 115.096C176.909 115.096 176.661 114.84 176.661 114.328V109.792C176.661 109.288 176.905 109.036 177.393 109.036C177.881 109.036 178.125 109.288 178.125 109.792V110.044C178.325 109.708 178.593 109.452 178.929 109.276C179.273 109.1 179.657 109.012 180.081 109.012C181.465 109.012 182.157 109.816 182.157 111.424V114.328C182.157 114.84 181.909 115.096 181.413 115.096C180.909 115.096 180.657 114.84 180.657 114.328V111.496C180.657 111.04 180.569 110.708 180.393 110.5C180.225 110.292 179.961 110.188 179.601 110.188C179.161 110.188 178.809 110.328 178.545 110.608C178.289 110.88 178.161 111.244 178.161 111.7V114.328C178.161 114.84 177.909 115.096 177.405 115.096ZM184.424 107.932C184.144 107.932 183.924 107.864 183.764 107.728C183.612 107.584 183.536 107.388 183.536 107.14C183.536 106.884 183.612 106.688 183.764 106.552C183.924 106.416 184.144 106.348 184.424 106.348C185.016 106.348 185.312 106.612 185.312 107.14C185.312 107.668 185.016 107.932 184.424 107.932ZM184.424 115.084C184.184 115.084 184 115.012 183.872 114.868C183.744 114.724 183.68 114.524 183.68 114.268V109.864C183.68 109.32 183.928 109.048 184.424 109.048C184.928 109.048 185.18 109.32 185.18 109.864V114.268C185.18 114.524 185.116 114.724 184.988 114.868C184.86 115.012 184.672 115.084 184.424 115.084ZM188.743 115.12C187.407 115.12 186.739 114.372 186.739 112.876V107.2C186.739 106.696 186.987 106.444 187.483 106.444C187.987 106.444 188.239 106.696 188.239 107.2V112.804C188.239 113.524 188.539 113.884 189.139 113.884C189.203 113.884 189.263 113.884 189.319 113.884C189.375 113.876 189.431 113.868 189.487 113.86C189.599 113.844 189.675 113.876 189.715 113.956C189.755 114.028 189.775 114.18 189.775 114.412C189.775 114.612 189.735 114.768 189.655 114.88C189.575 114.992 189.443 115.06 189.259 115.084C189.091 115.108 188.919 115.12 188.743 115.12ZM192.503 115.12C192.079 115.12 191.699 115.04 191.363 114.88C191.035 114.712 190.775 114.488 190.583 114.208C190.399 113.928 190.307 113.612 190.307 113.26C190.307 112.828 190.419 112.488 190.643 112.24C190.867 111.984 191.231 111.8 191.735 111.688C192.239 111.576 192.915 111.52 193.763 111.52H194.183V111.268C194.183 110.868 194.095 110.58 193.919 110.404C193.743 110.228 193.447 110.14 193.031 110.14C192.799 110.14 192.547 110.168 192.275 110.224C192.011 110.28 191.731 110.376 191.435 110.512C191.243 110.6 191.083 110.612 190.955 110.548C190.827 110.476 190.739 110.368 190.691 110.224C190.651 110.072 190.659 109.92 190.715 109.768C190.779 109.616 190.903 109.504 191.087 109.432C191.455 109.28 191.807 109.172 192.143 109.108C192.487 109.044 192.799 109.012 193.079 109.012C193.935 109.012 194.571 109.212 194.987 109.612C195.403 110.004 195.611 110.616 195.611 111.448V114.328C195.611 114.84 195.379 115.096 194.915 115.096C194.443 115.096 194.207 114.84 194.207 114.328V114.064C194.071 114.392 193.855 114.652 193.559 114.844C193.263 115.028 192.911 115.12 192.503 115.12ZM192.815 114.088C193.207 114.088 193.531 113.952 193.787 113.68C194.051 113.408 194.183 113.064 194.183 112.648V112.384H193.775C193.023 112.384 192.499 112.444 192.203 112.564C191.915 112.676 191.771 112.884 191.771 113.188C191.771 113.452 191.863 113.668 192.047 113.836C192.231 114.004 192.487 114.088 192.815 114.088ZM197.878 107.932C197.598 107.932 197.378 107.864 197.218 107.728C197.066 107.584 196.99 107.388 196.99 107.14C196.99 106.884 197.066 106.688 197.218 106.552C197.378 106.416 197.598 106.348 197.878 106.348C198.47 106.348 198.766 106.612 198.766 107.14C198.766 107.668 198.47 107.932 197.878 107.932ZM197.878 115.084C197.638 115.084 197.454 115.012 197.326 114.868C197.198 114.724 197.134 114.524 197.134 114.268V109.864C197.134 109.32 197.382 109.048 197.878 109.048C198.382 109.048 198.634 109.32 198.634 109.864V114.268C198.634 114.524 198.57 114.724 198.442 114.868C198.314 115.012 198.126 115.084 197.878 115.084ZM204.194 115.096C203.698 115.096 203.45 114.84 203.45 114.328V107.2C203.45 106.696 203.698 106.444 204.194 106.444C204.698 106.444 204.95 106.696 204.95 107.2V109.984C205.15 109.664 205.418 109.424 205.754 109.264C206.09 109.096 206.462 109.012 206.87 109.012C208.254 109.012 208.946 109.816 208.946 111.424V114.328C208.946 114.84 208.698 115.096 208.202 115.096C207.698 115.096 207.446 114.84 207.446 114.328V111.496C207.446 111.04 207.358 110.708 207.182 110.5C207.014 110.292 206.75 110.188 206.39 110.188C205.95 110.188 205.598 110.328 205.334 110.608C205.078 110.88 204.95 111.244 204.95 111.7V114.328C204.95 114.84 204.698 115.096 204.194 115.096ZM212.401 115.12C211.977 115.12 211.597 115.04 211.261 114.88C210.933 114.712 210.673 114.488 210.481 114.208C210.297 113.928 210.205 113.612 210.205 113.26C210.205 112.828 210.317 112.488 210.541 112.24C210.765 111.984 211.129 111.8 211.633 111.688C212.137 111.576 212.813 111.52 213.661 111.52H214.081V111.268C214.081 110.868 213.993 110.58 213.817 110.404C213.641 110.228 213.345 110.14 212.929 110.14C212.697 110.14 212.445 110.168 212.173 110.224C211.909 110.28 211.629 110.376 211.333 110.512C211.141 110.6 210.981 110.612 210.853 110.548C210.725 110.476 210.637 110.368 210.589 110.224C210.549 110.072 210.557 109.92 210.613 109.768C210.677 109.616 210.801 109.504 210.985 109.432C211.353 109.28 211.705 109.172 212.041 109.108C212.385 109.044 212.697 109.012 212.977 109.012C213.833 109.012 214.469 109.212 214.885 109.612C215.301 110.004 215.509 110.616 215.509 111.448V114.328C215.509 114.84 215.277 115.096 214.813 115.096C214.341 115.096 214.105 114.84 214.105 114.328V114.064C213.969 114.392 213.753 114.652 213.457 114.844C213.161 115.028 212.809 115.12 212.401 115.12ZM212.713 114.088C213.105 114.088 213.429 113.952 213.685 113.68C213.949 113.408 214.081 113.064 214.081 112.648V112.384H213.673C212.921 112.384 212.397 112.444 212.101 112.564C211.813 112.676 211.669 112.884 211.669 113.188C211.669 113.452 211.761 113.668 211.945 113.836C212.129 114.004 212.385 114.088 212.713 114.088ZM217.8 115.096C217.288 115.096 217.032 114.84 217.032 114.328V109.792C217.032 109.288 217.276 109.036 217.764 109.036C218.252 109.036 218.496 109.288 218.496 109.792V110.164C218.784 109.476 219.4 109.092 220.344 109.012C220.688 108.972 220.88 109.168 220.92 109.6C220.96 110.024 220.752 110.26 220.296 110.308L220.032 110.332C219.048 110.428 218.556 110.932 218.556 111.844V114.328C218.556 114.84 218.304 115.096 217.8 115.096ZM222.475 107.932C222.195 107.932 221.975 107.864 221.815 107.728C221.663 107.584 221.587 107.388 221.587 107.14C221.587 106.884 221.663 106.688 221.815 106.552C221.975 106.416 222.195 106.348 222.475 106.348C223.067 106.348 223.363 106.612 223.363 107.14C223.363 107.668 223.067 107.932 222.475 107.932ZM222.475 115.084C222.235 115.084 222.051 115.012 221.923 114.868C221.795 114.724 221.731 114.524 221.731 114.268V109.864C221.731 109.32 221.979 109.048 222.475 109.048C222.979 109.048 223.231 109.32 223.231 109.864V114.268C223.231 114.524 223.167 114.724 223.039 114.868C222.911 115.012 222.723 115.084 222.475 115.084ZM228.792 107.932C228.512 107.932 228.292 107.864 228.132 107.728C227.98 107.584 227.904 107.388 227.904 107.14C227.904 106.884 227.98 106.688 228.132 106.552C228.292 106.416 228.512 106.348 228.792 106.348C229.384 106.348 229.68 106.612 229.68 107.14C229.68 107.668 229.384 107.932 228.792 107.932ZM228.792 115.084C228.552 115.084 228.368 115.012 228.24 114.868C228.112 114.724 228.048 114.524 228.048 114.268V109.864C228.048 109.32 228.296 109.048 228.792 109.048C229.296 109.048 229.548 109.32 229.548 109.864V114.268C229.548 114.524 229.484 114.724 229.356 114.868C229.228 115.012 229.04 115.084 228.792 115.084ZM231.85 115.096C231.354 115.096 231.106 114.84 231.106 114.328V109.792C231.106 109.288 231.35 109.036 231.838 109.036C232.326 109.036 232.57 109.288 232.57 109.792V110.044C232.77 109.708 233.038 109.452 233.374 109.276C233.718 109.1 234.102 109.012 234.526 109.012C235.91 109.012 236.602 109.816 236.602 111.424V114.328C236.602 114.84 236.354 115.096 235.858 115.096C235.354 115.096 235.102 114.84 235.102 114.328V111.496C235.102 111.04 235.014 110.708 234.838 110.5C234.67 110.292 234.406 110.188 234.046 110.188C233.606 110.188 233.254 110.328 232.99 110.608C232.734 110.88 232.606 111.244 232.606 111.7V114.328C232.606 114.84 232.354 115.096 231.85 115.096ZM238.87 107.932C238.59 107.932 238.37 107.864 238.21 107.728C238.058 107.584 237.982 107.388 237.982 107.14C237.982 106.884 238.058 106.688 238.21 106.552C238.37 106.416 238.59 106.348 238.87 106.348C239.462 106.348 239.758 106.612 239.758 107.14C239.758 107.668 239.462 107.932 238.87 107.932ZM238.87 115.084C238.63 115.084 238.446 115.012 238.318 114.868C238.19 114.724 238.126 114.524 238.126 114.268V109.864C238.126 109.32 238.374 109.048 238.87 109.048C239.374 109.048 239.626 109.32 239.626 109.864V114.268C239.626 114.524 239.562 114.724 239.434 114.868C239.306 115.012 239.118 115.084 238.87 115.084Z" fill="#38B2AC"/>
<rect opacity="0.7" width="34.4551" height="38" rx="5" transform="matrix(-1 0 0 1 82.4688 138)" fill="white"/>
<path d="M67.3595 148.893C67.75 149.283 67.75 149.917 67.3595 150.307L61.0666 156.6L67.3594 162.893C67.75 163.283 67.75 163.917 67.3594 164.307C66.9689 164.698 66.3358 164.698 65.9452 164.307L58.9452 157.307C58.5547 156.917 58.5547 156.283 58.9452 155.893L65.9452 148.893C66.3358 148.502 66.9689 148.502 67.3595 148.893Z" fill="black"/>
<rect opacity="0.7" x="487.822" y="138" width="34.455" height="38" rx="5" fill="white"/>
<path d="M502.932 148.893C502.541 149.283 502.541 149.917 502.932 150.307L509.224 156.6L502.932 162.893C502.541 163.283 502.541 163.917 502.932 164.307C503.322 164.698 503.955 164.698 504.346 164.307L511.346 157.307C511.736 156.917 511.736 156.283 511.346 155.893L504.346 148.893C503.955 148.502 503.322 148.502 502.932 148.893Z" fill="black"/>
</g>
<defs>
<filter id="filter0_dd_1152_214394" x="0" y="0" width="570" height="281" filterUnits="userSpaceOnUse" color-interpolation-filters="sRGB">
<feFlood flood-opacity="0" result="BackgroundImageFix"/>
<feColorMatrix in="SourceAlpha" type="matrix" values="0 0 0 0 0 0 0 0 0 0 0 0 0 0 0 0 0 0 127 0" result="hardAlpha"/>
<feOffset/>
<feGaussianBlur stdDeviation="1.5"/>
<feColorMatrix type="matrix" values="0 0 0 0 0 0 0 0 0 0 0 0 0 0 0 0 0 0 0.1 0"/>
<feBlend mode="normal" in2="BackgroundImageFix" result="effect1_dropShadow_1152_214394"/>
<feColorMatrix in="SourceAlpha" type="matrix" values="0 0 0 0 0 0 0 0 0 0 0 0 0 0 0 0 0 0 127 0" result="hardAlpha"/>
<feOffset dy="4"/>
<feGaussianBlur stdDeviation="10"/>
<feColorMatrix type="matrix" values="0 0 0 0 0 0 0 0 0 0 0 0 0 0 0 0 0 0 0.15 0"/>
<feBlend mode="normal" in2="effect1_dropShadow_1152_214394" result="effect2_dropShadow_1152_214394"/>
<feBlend mode="normal" in="SourceGraphic" in2="effect2_dropShadow_1152_214394" result="shape"/>
</filter>
<linearGradient id="paint0_linear_1152_214394" x1="464.29" y1="231.068" x2="464.29" y2="57.0806" gradientUnits="userSpaceOnUse">
<stop stop-color="white" stop-opacity="0"/>
<stop offset="1" stop-color="#E3EFF9"/>
</linearGradient>
<linearGradient id="paint1_linear_1152_214394" x1="74.136" y1="0" x2="74.136" y2="124.064" gradientUnits="userSpaceOnUse">
<stop stop-color="#BEE3F8"/>
<stop offset="1" stop-color="#90CDF4"/>
</linearGradient>
<linearGradient id="paint2_linear_1152_214394" x1="404.503" y1="35.9681" x2="404.503" y2="175.277" gradientUnits="userSpaceOnUse">
<stop stop-color="#F7FAFC"/>
<stop offset="0.328125" stop-color="#E2E8F0"/>
</linearGradient>
<linearGradient id="paint3_linear_1152_214394" x1="333.088" y1="140.994" x2="354.711" y2="158.648" gradientUnits="userSpaceOnUse">
<stop stop-color="#E2E8F0"/>
<stop offset="0.338542" stop-color="#CBD5E0"/>
<stop offset="0.59375" stop-color="#C5D0DC"/>
<stop offset="1" stop-color="#A0AEC0"/>
</linearGradient>
<linearGradient id="paint4_linear_1152_214394" x1="537.427" y1="135.081" x2="346.824" y2="233.237" gradientUnits="userSpaceOnUse">
<stop stop-color="#E2E8F0"/>
<stop offset="0.338542" stop-color="#CBD5E0"/>
<stop offset="0.59375" stop-color="#C5D0DC"/>
<stop offset="1" stop-color="#A0AEC0"/>
</linearGradient>
<linearGradient id="paint5_linear_1152_214394" x1="477.065" y1="67.9297" x2="477.065" y2="108.087" gradientUnits="userSpaceOnUse">
<stop stop-color="#2D3748"/>
<stop offset="1" stop-color="#1A202C"/>
</linearGradient>
<linearGradient id="paint6_linear_1152_214394" x1="468.34" y1="119.494" x2="468.34" y2="218.554" gradientUnits="userSpaceOnUse">
<stop stop-color="#81E6D9"/>
<stop offset="1" stop-color="#319795"/>
</linearGradient>
<linearGradient id="paint7_linear_1152_214394" x1="480.457" y1="112.261" x2="480.457" y2="127.472" gradientUnits="userSpaceOnUse">
<stop stop-color="#2C5282"/>
<stop offset="1" stop-color="#2A4365"/>
</linearGradient>
<linearGradient id="paint8_linear_1152_214394" x1="364.578" y1="144.965" x2="385.117" y2="191.685" gradientUnits="userSpaceOnUse">
<stop stop-color="#BDC6CB"/>
<stop offset="1" stop-color="#5D666A"/>
</linearGradient>
<linearGradient id="paint9_linear_1152_214394" x1="515.535" y1="185.282" x2="348.338" y2="413.369" gradientUnits="userSpaceOnUse">
<stop stop-color="#E2E8F0"/>
<stop offset="0.338542" stop-color="#CBD5E0"/>
<stop offset="0.59375" stop-color="#C5D0DC"/>
<stop offset="1" stop-color="#A0AEC0"/>
</linearGradient>
</defs>
</svg>
