<svg width="20" height="20" viewBox="0 0 20 20" fill="none" xmlns="http://www.w3.org/2000/svg">
<path d="M4.00098 3C2.89641 3 2.00098 3.89543 2.00098 5V13C2.00098 14.1046 2.89641 15 4.00098 15H11.501V14.3287C11.4154 14.223 11.3346 14.1133 11.2588 14H4.00098C3.44869 14 3.00098 13.5523 3.00098 13V5C3.00098 4.44772 3.44869 4 4.00098 4H16.001C16.5533 4 17.001 4.44772 17.001 5V7.46776C17.365 7.64868 17.7011 7.87745 18.001 8.14584V5C18.001 3.89543 17.1055 3 16.001 3H4.00098ZM18.501 11.5C18.501 13.433 16.934 15 15.001 15C13.068 15 11.501 13.433 11.501 11.5C11.501 9.567 13.068 8 15.001 8C16.934 8 18.501 9.567 18.501 11.5ZM15.001 16C15.9261 16 16.7859 15.7209 17.501 15.2422V18C17.501 18.412 17.0306 18.6472 16.701 18.4L15.301 17.35C15.1232 17.2167 14.8788 17.2167 14.701 17.35L13.301 18.4C12.9714 18.6472 12.501 18.412 12.501 18V15.2422C13.216 15.7209 14.0759 16 15.001 16ZM5.00098 6.5C5.00098 6.22386 5.22483 6 5.50098 6H14.501C14.7771 6 15.001 6.22386 15.001 6.5C15.001 6.77614 14.7771 7 14.501 7H5.50098C5.22483 7 5.00098 6.77614 5.00098 6.5ZM5.50098 11C5.22483 11 5.00098 11.2239 5.00098 11.5C5.00098 11.7761 5.22483 12 5.50098 12H9.50098C9.77712 12 10.001 11.7761 10.001 11.5C10.001 11.2239 9.77712 11 9.50098 11H5.50098Z" fill="white"/>
</svg>
