<svg width="77" height="73" viewBox="0 0 77 73" fill="none" xmlns="http://www.w3.org/2000/svg">
<path d="M76.9991 35.2679C76.9991 54.6311 61.1242 70.3281 41.5415 70.3281C21.9589 70.3281 6.08398 54.6311 6.08398 35.2679C6.08398 15.9047 21.9589 0.207764 41.5415 0.207764C61.1242 0.207764 76.9991 15.9047 76.9991 35.2679Z" fill="url(#paint0_linear_2312_236328)"/>
<path d="M46.9184 20.2016C47.2574 20.0267 47.435 20.422 47.435 20.422C47.435 20.422 47.5508 19.6808 47.858 19.6414C48.1333 19.6062 48.3057 20.2973 48.3057 20.2973C48.3057 20.2973 48.456 19.5673 48.7419 19.763C49.0937 20.0032 49.1461 20.3496 49.1328 20.4268C49.64 19.3547 50.1545 17.8601 50.3375 18.5402C50.5187 19.2125 49.6528 21.2032 49.6528 21.2032C49.8452 21.2882 49.9832 21.4623 50.0218 21.6687C50.0729 22.0068 49.5814 22.6763 49.5814 22.6763C49.2398 23.2316 48.6702 24.1745 48.6702 24.1745C48.6089 24.3577 48.5587 24.5444 48.5198 24.7335V24.7335L47.7602 28.4907L45.7612 28.0192L46.5804 24.5594V24.5594C46.6389 24.2713 46.7015 24.0229 46.7015 24.0229C46.216 23.0798 46.5447 21.5881 46.5561 21.4595L46.5559 21.4588C46.6141 20.7943 46.7679 20.2796 46.9184 20.2016Z" fill="#F2AC7D"/>
<path d="M48.8439 22.1196C49.237 22.2219 49.7554 22.04 49.7822 22.0304C49.7962 22.0254 49.8065 22.0134 49.8092 21.9988C49.8119 21.9842 49.8065 21.9693 49.7952 21.9597C49.7838 21.9501 49.7682 21.9473 49.7542 21.9524C49.7466 21.9551 48.9881 22.2209 48.6529 21.9341C48.5829 21.8845 48.542 21.8036 48.5437 21.7179C48.5563 21.5233 48.8176 21.3498 48.8202 21.3481C48.8394 21.3355 48.8448 21.3098 48.8322 21.2907C48.8196 21.2715 48.7939 21.2662 48.7747 21.2788C48.7625 21.2867 48.4761 21.4765 48.4606 21.7125C48.457 21.8242 48.5086 21.9306 48.5987 21.9971C48.6699 22.056 48.7538 22.0979 48.8439 22.1196Z" fill="#0B122D"/>
<path d="M47.1257 22.2632C47.1635 22.2729 47.2031 22.2729 47.2409 22.2632C47.4277 22.2177 47.4851 21.9817 47.5004 21.7919C47.5445 21.8891 47.6141 21.9727 47.7019 22.034C47.7964 22.0938 47.9121 22.1106 48.02 22.0803C48.2745 22.0174 48.3779 21.7977 48.3037 21.4774C48.2851 21.3964 48.2773 21.3133 48.2806 21.2302L48.3085 20.5143C48.3092 20.4994 48.3018 20.4854 48.2892 20.4775C48.2766 20.4696 48.2607 20.469 48.2476 20.4759C48.2344 20.4829 48.2259 20.4963 48.2254 20.5111L48.1974 21.2271C48.1939 21.3175 48.2024 21.408 48.2227 21.4962C48.2676 21.6898 48.2653 21.9343 48.0001 21.9998C47.9144 22.0245 47.8222 22.0115 47.7468 21.9642C47.5601 21.8448 47.5007 21.542 47.5001 21.539C47.496 21.5173 47.4755 21.5027 47.4535 21.5058C47.4316 21.5088 47.4159 21.5285 47.4178 21.5505C47.4322 21.7095 47.4248 22.133 47.2213 22.1827C47.1798 22.1934 47.1356 22.186 47.1 22.1623C46.9456 22.0649 46.8764 21.7363 46.8756 21.733C46.8727 21.7184 46.8622 21.7066 46.8481 21.7019C46.834 21.6972 46.8184 21.7004 46.8073 21.7103C46.7961 21.7201 46.7911 21.7352 46.7942 21.7497C46.7972 21.7646 46.8711 22.116 47.0554 22.2323C47.0771 22.2462 47.1008 22.2566 47.1257 22.2632V22.2632Z" fill="#0B122D"/>
<path d="M47.8916 23.2369C47.9064 23.2408 47.9222 23.2362 47.9326 23.225C47.943 23.2137 47.9464 23.1977 47.9414 23.1832C47.8679 23.0022 47.8742 22.7985 47.9588 22.6221C48.1199 22.3083 48.5179 22.1857 48.5218 22.1845C48.5437 22.1779 48.5562 22.1548 48.5496 22.133C48.5431 22.1111 48.52 22.0987 48.4981 22.1051C48.4804 22.1104 48.0628 22.2384 47.8851 22.5839C47.7895 22.7804 47.7814 23.0078 47.8628 23.2104C47.8673 23.2235 47.8781 23.2334 47.8916 23.2369Z" fill="#0B122D"/>
<path d="M47.449 21.5866C47.4523 21.5874 47.4558 21.5879 47.4592 21.5879C47.4702 21.588 47.4808 21.5837 47.4887 21.576C47.4965 21.5682 47.501 21.5577 47.5011 21.5467L47.5079 20.6862C47.5081 20.6713 47.5002 20.6576 47.4874 20.6501C47.4746 20.6426 47.4588 20.6425 47.4459 20.6498C47.4329 20.6572 47.4249 20.6708 47.4248 20.6856L47.418 21.5462C47.4178 21.5652 47.4306 21.5818 47.449 21.5866V21.5866Z" fill="#0B122D"/>
<path d="M64.6423 30.4486C64.5814 28.9097 64.2835 27.7247 62.1536 28.7615C62.1536 28.7615 62.3691 27.2799 61.7814 26.5906C61.1937 25.9014 57.3099 22.6345 56.4738 26.8855C56.4738 26.8855 55.8553 30.3088 55.7205 31.1665C55.5857 32.0242 56.3731 35.1226 57.407 35.2828C57.7301 35.3248 58.058 35.3126 58.3771 35.2466C58.0435 36.4399 57.4809 37.5576 56.7207 38.5377L63.2665 38.2842C63.2665 38.2842 62.4051 36.3379 62.7519 32.8303C63.7699 32.1691 64.6838 31.499 64.6423 30.4486Z" fill="#F2AC7D"/>
<path d="M66.6729 29.3088C66.4742 26.6929 66.1953 22.9403 61.0133 22.4989C58.7477 22.3059 57.298 23.0706 56.4944 24.0625L56.4939 24.0615C56.4939 24.0615 55.1842 25.0956 55.1204 29.6404C55.0779 32.6762 54.4719 33.46 52.905 35.6285C53.7087 36.9598 55.6418 37.5672 57.2133 37.8443C57.7257 37.0392 58.118 36.1641 58.378 35.2466C58.0588 35.3127 57.7309 35.3249 57.4079 35.2829C56.3739 35.1227 55.5866 32.0243 55.7213 31.1666C55.8461 30.3729 56.3846 27.3844 56.4644 26.9424C56.8371 26.5976 57.3687 26.0737 57.6183 25.6751C57.6183 25.6751 57.7519 27.4443 60.0778 28.453C61.3148 28.9895 61.2838 30.2048 61.7219 30.1639C61.8977 30.1475 62.1224 28.949 63.2133 28.9387C64.3042 28.9284 65.0727 30.6538 64.241 31.5058C63.7912 31.98 63.29 32.403 62.7468 32.767C62.7468 32.767 62.4588 35.9992 63.1509 37.9651C63.1509 37.9651 66.8525 38.5384 69.9035 35.3969C67.7984 34.0545 66.7956 30.9232 66.6729 29.3088Z" fill="url(#paint1_linear_2312_236328)"/>
<g style="mix-blend-mode:overlay" opacity="0.6">
<path d="M58.378 35.2465C58.378 35.2465 59.9239 34.8391 61.1026 34.0321C60.9738 35.0704 60.4589 36.0232 59.66 36.7016C59.0339 37.2174 58.1738 37.2621 57.5831 37.2111C57.9227 36.5888 58.1894 35.9296 58.378 35.2465Z" fill="#030F1C"/>
</g>
<path d="M66.6954 35.9525C66.6871 35.9512 66.6792 35.9484 66.6721 35.944C66.0549 35.5688 65.6435 34.7854 65.4822 33.6787C65.4092 33.1604 65.3894 32.6359 65.4232 32.1134C65.4264 32.0786 65.4571 32.0529 65.492 32.0558C65.5268 32.0588 65.5527 32.0893 65.5498 32.1242C65.5473 32.1526 65.3202 34.9736 66.7383 35.8358C66.7641 35.8515 66.7752 35.8833 66.7648 35.9117C66.7543 35.9401 66.7253 35.9572 66.6954 35.9525V35.9525Z" fill="white"/>
<path d="M61.7708 26.6532C61.7445 26.6492 61.7236 26.6292 61.7184 26.6033C61.4548 25.3 59.8104 24.461 59.7938 24.4527C59.7736 24.4425 59.7603 24.4223 59.759 24.3997C59.7577 24.3771 59.7686 24.3556 59.7876 24.3431C59.8066 24.3307 59.8308 24.3293 59.851 24.3394C59.9209 24.3745 61.5669 25.2139 61.8428 26.578C61.8469 26.5983 61.8408 26.6193 61.8265 26.6343C61.8121 26.6493 61.7913 26.6564 61.7708 26.6532Z" fill="white"/>
<path d="M58.7878 27.7606C58.8878 27.6783 59.0165 27.6221 59.364 27.6977C59.7115 27.7733 60.1914 28.1846 60.0611 28.2514C59.9309 28.3182 59.625 27.9773 59.3336 28.03C59.0421 28.0827 58.8711 28.1366 58.7863 28.0702C58.6797 27.9867 58.7397 27.8002 58.7878 27.7606Z" fill="#161B36"/>
<path d="M57.2821 27.4278C57.1806 27.3475 57.051 27.294 56.7049 27.3768C56.3588 27.4596 55.8862 27.8809 56.0177 27.9449C56.1491 28.009 56.4489 27.6618 56.7412 27.7084C57.0335 27.755 57.2055 27.8054 57.2891 27.7373C57.3942 27.6515 57.3309 27.4663 57.2821 27.4278Z" fill="#161B36"/>
<g style="mix-blend-mode:overlay" opacity="0.6">
<path d="M57.2113 31.8216C57.0693 31.8019 56.9353 31.7446 56.8232 31.6555C56.7424 31.5949 56.6928 31.5016 56.6879 31.4007C56.6875 31.212 56.9096 30.8767 57.1373 30.5496C57.1742 30.4967 57.2042 30.4535 57.2222 30.4252C57.5248 29.9498 57.5761 28.9638 57.5766 28.9539C57.5777 28.9313 57.5908 28.911 57.6109 28.9006C57.6311 28.8902 57.6553 28.8914 57.6743 28.9036C57.6934 28.9158 57.7045 28.9373 57.7033 28.9599C57.7013 29.0016 57.6498 29.9896 57.3294 30.493C57.3108 30.5222 57.2797 30.567 57.2415 30.6217C57.1029 30.821 56.8144 31.2355 56.8148 31.4002C56.8212 31.4636 56.8542 31.5213 56.9056 31.559C57.058 31.6746 57.2504 31.7246 57.4401 31.6981C57.4625 31.6945 57.4851 31.7032 57.4994 31.7208C57.5136 31.7384 57.5173 31.7622 57.5092 31.7834C57.501 31.8045 57.4822 31.8197 57.4597 31.8232C57.3773 31.8354 57.2935 31.8349 57.2113 31.8216Z" fill="#030F1C"/>
</g>
<path d="M56.7781 33.0153C56.7732 32.9759 56.7842 32.9362 56.8087 32.9049C56.8333 32.8737 56.8693 32.8535 56.9088 32.8488C57.1054 32.8236 57.4683 32.775 57.7466 32.7262C58.0392 32.6598 58.327 32.5741 58.6082 32.4697C58.6572 32.4522 58.7116 32.4611 58.7523 32.4932C58.7929 32.5254 58.8141 32.5762 58.8083 32.6276C58.7645 33.0233 58.5966 33.7833 57.953 33.8438C57.1703 33.9175 56.8401 33.4499 56.7781 33.0153Z" fill="#161B36"/>
<path d="M57.0283 33.5558C57.0283 33.5558 57.8179 32.753 58.7108 33.1027C58.7108 33.1027 58.6014 33.8082 57.9799 33.8748C57.3108 33.9464 57.0283 33.5558 57.0283 33.5558Z" fill="#F76161"/>
<path d="M59.4558 29.1161C59.3397 29.0707 59.2194 29.037 59.0966 29.0153C58.9645 28.9949 58.8298 29.1541 58.7957 29.3709C58.7617 29.5878 58.8411 29.7802 58.9733 29.8006C59.1054 29.8211 59.2401 29.6619 59.2742 29.445C59.2909 29.3501 59.2823 29.2525 59.2495 29.162C59.345 29.18 59.4381 29.2093 59.5268 29.2491C59.6124 29.289 59.6346 29.188 59.4558 29.1161Z" fill="#161B36"/>
<path d="M57.0395 28.909C56.9323 28.8671 56.8214 28.8351 56.7083 28.8133C56.7068 28.8131 56.7055 28.8122 56.7041 28.812C56.703 28.8118 56.702 28.8121 56.701 28.812C56.6888 28.8097 56.6803 28.8083 56.6803 28.8083L56.6786 28.8122C56.5551 28.8142 56.435 28.9647 56.4032 29.1676C56.3691 29.3844 56.4486 29.5768 56.5807 29.5973C56.7128 29.6177 56.8475 29.4585 56.8816 29.2417C56.8982 29.1471 56.8898 29.05 56.8573 28.9597C56.9444 28.978 57.0293 29.0056 57.1105 29.042C57.1961 29.0819 57.2183 28.981 57.0395 28.909Z" fill="#161B36"/>
<path d="M63.8295 29.9848C63.5433 29.8358 63.2082 30.0646 62.9385 30.3403L62.9377 30.341C62.751 30.537 62.584 30.7508 62.439 30.9793C62.427 30.9985 62.4263 31.0227 62.4371 31.0426C62.4478 31.0625 62.4684 31.0752 62.4911 31.0758C62.5137 31.0765 62.535 31.065 62.547 31.0457C62.6825 30.8308 62.8386 30.6296 63.0132 30.4448C63.1463 30.4424 63.2758 30.4874 63.3785 30.5718C63.4776 30.6726 63.5294 30.8107 63.5209 30.9519C63.5212 30.9829 63.5439 31.0091 63.5745 31.0139C63.5779 31.0144 63.5814 31.0147 63.5849 31.0146C63.6018 31.0145 63.6178 31.0076 63.6296 30.9956C63.6414 30.9836 63.648 30.9675 63.6479 30.9507C63.6569 30.7739 63.5899 30.6019 63.4637 30.4778C63.3709 30.3966 63.2561 30.3446 63.1337 30.3281C63.3522 30.1301 63.5864 30.0008 63.7706 30.0971C63.7907 30.1077 63.815 30.1067 63.8342 30.0946C63.8534 30.0824 63.8647 30.0609 63.8637 30.0383C63.8628 30.0156 63.8497 29.9952 63.8295 29.9848L63.8295 29.9848Z" fill="#0B122D"/>
<path d="M58.2579 35.3292C58.2283 35.3246 58.2059 35.3 58.2043 35.2701C58.2027 35.2402 58.2223 35.2132 58.2513 35.2054C58.2738 35.1994 60.5227 34.5865 61.5881 33.5894C61.6046 33.5739 61.6282 33.5683 61.6499 33.5748C61.6717 33.5813 61.6883 33.599 61.6934 33.6211C61.6985 33.6431 61.6914 33.6663 61.6748 33.6818C60.5862 34.7007 58.3776 35.3026 58.2841 35.3277C58.2756 35.3301 58.2666 35.3305 58.2579 35.3292V35.3292Z" fill="#0B122D"/>
<path d="M54.3167 38.0221C54.3167 38.0221 53.5334 38.0559 53.2291 39.1016C52.2037 42.6254 50.9198 45.2921 50.6529 46.3768C50.2924 47.8421 50.6023 48.5822 50.8669 49.7577C51.1326 50.938 50.3591 57.5232 49.1561 61.3401C49.0663 61.6177 49.132 61.9217 49.3285 62.1371C51.2242 64.1688 59.997 64.9077 62.3381 63.8129C62.583 63.6944 62.7302 63.4383 62.7091 63.1678C62.59 61.3936 62.928 53.473 64.2948 49.7877C65.5828 46.3148 66.5354 39.5754 66.1225 39.3454C65.3878 38.9362 63.8624 38.2791 63.8624 38.2791C63.8624 38.2791 61.9984 40.3997 58.5913 40.0864C56.119 39.859 56.6143 37.6167 56.6143 37.6167L54.3167 38.0221Z" fill="url(#paint2_linear_2312_236328)"/>
<path fill-rule="evenodd" clip-rule="evenodd" d="M47.4391 35.9372C48.0138 36.0601 57.3708 37.5161 57.3748 37.5167C57.1831 37.678 56.9818 37.8277 56.7721 37.9649C56.3656 39.608 54.811 45.9365 54.5213 47.7804C54.4567 48.1919 54.3548 49.591 54.2192 51.4529C53.9494 55.1565 53.5464 60.6912 53.0379 63.9244C51.0885 63.5881 49.1933 62.5245 48.4824 61.7626C48.2859 61.5472 48.2202 61.2432 48.31 60.9657C48.5414 60.2313 48.7997 59.4659 49.0619 58.6891C50.1622 55.4282 51.3303 51.9663 50.8665 49.7577C50.8228 49.5497 50.7766 49.3554 50.7322 49.1685C50.5249 48.2959 50.3556 47.5835 50.6525 46.3768C51.0026 44.8359 51.4462 43.3175 51.9808 41.8301C51.795 41.7742 51.6067 41.7168 51.4137 41.6563C49.2903 40.9958 48.479 40.7044 46.469 39.755C46.2154 39.6341 45.9768 39.5298 45.7423 39.4273C45.341 39.252 44.9515 39.0817 44.5187 38.8423C44.2553 38.7016 43.8611 38.3714 43.6355 38.1761C42.6018 37.2524 42.9518 36.269 43.3945 35.0252C43.5629 34.5518 43.7448 34.0406 43.869 33.4807C43.9594 33.1678 44.1114 32.5802 44.2961 31.8662C44.8601 29.6861 45.7291 26.3273 46.0794 26.0102C46.5369 27.4557 48.1446 27.8769 48.1446 27.8769L47.2654 35.451C47.1998 35.5334 47.1815 35.6436 47.2168 35.7425C47.2522 35.8414 47.3362 35.915 47.4391 35.9372ZM70.4145 51.0377C69.8968 48.782 69.5382 47.0021 69.2523 45.5827C68.3696 41.2002 68.179 40.2542 66.1325 39.3543C66.1293 39.351 66.1257 39.348 66.1218 39.3453C65.3872 38.9361 63.3521 38.0539 63.3521 38.0539C63.3521 38.0539 60.8189 41.363 59.293 47.2364C59.1247 48.1887 58.7398 50.7292 58.3063 53.5907C57.6698 57.792 56.9285 62.6851 56.6138 64.2594C57.5592 64.2576 58.491 64.3121 59.3624 64.363L59.3625 64.363C61.3534 64.4793 63.0291 64.5772 63.8318 63.9441C64.2545 63.6107 64.1767 63.2195 64.1033 62.8503C64.09 62.7834 64.0768 62.7172 64.0668 62.6522C63.7183 60.2231 63.5444 57.772 63.5465 55.3175C65.4187 55.2785 67.1421 55.2159 67.7542 55.1888C70.4512 55.0688 70.9411 53.332 70.4145 51.0377ZM66.1058 51.5761C65.5735 51.6854 64.5538 51.8935 63.7626 52.0464C63.8597 51.277 64.0378 50.5199 64.2941 49.7876C64.6421 48.8098 64.9321 47.8125 65.1626 46.8009C65.6321 48.4627 66.1568 50.3756 66.3685 51.1498C66.3935 51.2412 66.3795 51.3389 66.3297 51.4196C66.2799 51.5004 66.1989 51.557 66.1058 51.5761Z" fill="url(#paint3_linear_2312_236328)"/>
<g style="mix-blend-mode:overlay" opacity="0.6">
<path d="M51.9808 41.8302C52.2117 41.1903 52.4809 40.4951 52.7971 39.7453C51.9603 39.888 50.7962 40.0651 50.081 40.0836C48.8662 40.115 48.0714 39.0759 46.5818 38.856C45.8103 38.7421 45.206 39.2387 45.206 39.2387C47.216 40.1881 49.2902 40.996 51.4136 41.6565C51.6066 41.717 51.7949 41.7743 51.9808 41.8302Z" fill="#030F1C"/>
</g>
<path d="M46.1109 35.9301C45.8369 35.8891 45.5755 35.7878 45.3457 35.6335C45.3226 35.6178 45.3166 35.5864 45.3323 35.5632C45.348 35.5401 45.3795 35.5339 45.4027 35.5494C46.1142 36.0293 46.9343 35.7925 46.9426 35.7901C46.96 35.7849 46.9789 35.7893 46.9921 35.8018C47.0053 35.8142 47.0108 35.8327 47.0066 35.8504C47.0024 35.868 46.9891 35.8821 46.9717 35.8873C46.6907 35.9604 46.3977 35.9749 46.1109 35.9301V35.9301Z" fill="#0B122D"/>
<g style="mix-blend-mode:overlay" opacity="0.6">
<path d="M44.8524 32.093C44.6061 32.6951 44.4243 36.9772 44.8569 38.0261C45.1862 38.8248 45.7499 38.4448 45.7223 39.2582C45.231 39.1543 44.3656 38.8837 43.8655 38.3966C42.2717 36.8389 42.9967 36.7136 44.5255 30.9106C44.6737 31.007 45.0244 31.6724 44.8524 32.093Z" fill="white"/>
</g>
<g style="mix-blend-mode:overlay" opacity="0.6">
<path d="M50.6484 48.8425C50.6484 48.8425 51.5586 49.9868 52.6506 50.1768C53.3964 50.3065 53.4921 50.7358 52.6947 50.7819C52.3246 50.8033 51.6692 50.6384 50.9647 50.5097C50.9072 49.9459 50.8014 49.3882 50.6484 48.8425Z" fill="#030F1C"/>
</g>
<g style="mix-blend-mode:overlay" opacity="0.6">
<path d="M63.5548 55.3176C63.0349 55.3284 62.504 55.3374 61.9815 55.3433C61.9683 55.7724 61.9277 56.2003 61.8601 56.6243C61.1533 60.9586 57.4609 62.9553 56.6139 64.2596C59.51 64.1896 62.4515 64.9757 63.832 63.9443C63.832 63.9443 64.3488 63.713 64.067 62.6524C63.9643 62.266 63.5414 58.885 63.5548 55.3176Z" fill="url(#paint4_linear_2312_236328)"/>
</g>
<g style="mix-blend-mode:overlay" opacity="0.6">
<path d="M60.7659 52.2225C60.9368 52.2447 61.0982 52.3133 61.2325 52.4209C61.8679 52.3506 62.5052 52.2718 62.9539 52.196C63.1412 52.1643 63.4087 52.1145 63.7117 52.0561C63.7325 51.8549 63.7556 51.6561 63.7811 51.4598C63.9456 50.2006 64.7496 48.8356 65.1684 46.8247C64.9126 45.9191 64.6729 45.0864 64.5082 44.5498C64.4292 44.5732 64.3525 44.604 64.2792 44.6418C64.2792 44.6418 64.1387 47.8814 63.2989 49.6338C62.7269 50.8274 61.1339 51.235 60.0967 51.2517C58.5119 51.2771 58.6155 51.9415 60.7659 52.2225Z" fill="url(#paint5_linear_2312_236328)"/>
</g>
<g style="mix-blend-mode:overlay" opacity="0.6">
<path d="M50.6504 48.8765C50.6504 48.8765 51.5605 50.0207 52.6525 50.2107C53.3984 50.3404 53.494 50.7698 52.6966 50.8158C52.3265 50.8372 51.6712 50.6723 50.9666 50.5437C50.9091 49.9799 50.8033 49.4221 50.6504 48.8765L50.6504 48.8765Z" fill="#030F1C"/>
</g>
<path d="M58.2594 57.0535L55.1249 49.1568L54.2677 46.9968C54.1997 46.825 54.0455 46.7021 53.8624 46.6739L46.9406 45.6018C46.732 45.5936 46.5315 45.6833 46.3988 45.8443C46.371 45.8728 46.3449 45.9031 46.3207 45.9348C46.2833 45.9822 46.251 46.0333 46.224 46.0874C46.2239 46.0886 46.2226 46.0884 46.2224 46.0896C46.1455 46.2151 46.1261 46.3674 46.1693 46.5078L46.1642 46.4921C46.166 46.5013 46.1683 46.5104 46.1712 46.5194L46.1741 46.5249C46.1751 46.5263 46.1749 46.5275 46.176 46.5289C46.178 46.5369 46.1805 46.5449 46.1835 46.5526L48.9759 53.5883L49.4824 54.8623L50.1752 56.6092C50.2433 56.7811 50.3975 56.9039 50.5805 56.9321L57.5024 58.0042C57.5278 58.008 57.5535 58.0099 57.5792 58.0099C57.9793 58.0706 58.4084 57.4292 58.2594 57.0535Z" fill="url(#paint6_linear_2312_236328)"/>
<g style="mix-blend-mode:overlay" opacity="0.6">
<path d="M46.1476 46.4113C46.1459 46.3929 46.1453 46.3744 46.1457 46.3559C46.1451 46.3744 46.1458 46.3929 46.1476 46.4113V46.4113Z" fill="#030F1C"/>
<path d="M46.1621 46.4917C46.1648 46.5007 46.1662 46.5101 46.1696 46.5188L46.1741 46.5294C46.1698 46.5168 46.1654 46.5043 46.1621 46.4917Z" fill="#030F1C"/>
<path d="M46.1582 46.478C46.153 46.4562 46.1491 46.4341 46.1467 46.4118C46.1486 46.4341 46.1525 46.4563 46.1582 46.478V46.478Z" fill="#030F1C"/>
<path d="M57.5781 58.0098C57.752 58.0111 57.9154 57.9259 58.0138 57.7826C58.1122 57.6393 58.1328 57.4567 58.0687 57.2954L54.8731 49.2455L54.077 47.2387C54.009 47.0669 53.8547 46.944 53.6717 46.9158L46.7499 45.8437C46.5411 45.8103 46.3326 45.9066 46.223 46.0873C46.2499 46.0332 46.2823 45.9821 46.3196 45.9346C46.3435 45.9027 46.3696 45.8725 46.3977 45.8442C46.5304 45.6832 46.7309 45.5935 46.9395 45.6017L53.8613 46.6738C54.0444 46.702 54.1986 46.8249 54.2666 46.9967L55.1238 49.1567L58.2583 57.0534C58.4073 57.4291 57.9782 58.0705 57.5781 58.0098Z" fill="#030F1C"/>
</g>
<g style="mix-blend-mode:overlay" opacity="0.6">
<path d="M46.6114 46.3085L47.0904 46.3827C47.1217 46.3876 47.148 46.4086 47.1596 46.438L47.2452 46.6561C47.2568 46.6857 47.2517 46.7193 47.2317 46.7441C47.2118 46.769 47.18 46.7813 47.1485 46.7764L46.6695 46.7022C46.6382 46.6974 46.6119 46.6763 46.6004 46.6469L46.5147 46.4289C46.5031 46.3993 46.5082 46.3657 46.5282 46.3408C46.5481 46.316 46.5799 46.3037 46.6114 46.3085V46.3085Z" fill="#030F1C"/>
</g>
<g style="mix-blend-mode:overlay" opacity="0.6">
<path d="M50.8188 50.3265L51.4471 50.4239C51.631 50.4599 51.7904 50.5728 51.8851 50.734V50.734C52.105 51.0942 51.9171 51.475 51.5477 51.4178L50.9193 51.3204C50.7355 51.2844 50.576 51.1715 50.4814 51.0103V51.0103C50.2615 50.6501 50.4494 50.2693 50.8188 50.3265Z" fill="#030F1C"/>
</g>
<path fill-rule="evenodd" clip-rule="evenodd" d="M63.3524 38.0541C63.3524 38.0541 61.9915 39.8339 60.6638 43.0962C58.918 43.2664 56.7437 43.11 55.6377 42.6508C56.2477 40.068 56.8698 37.5717 56.8698 37.5717L57.729 37.3875L62.899 37.7938L63.3524 38.0541ZM57.8781 52.9178L57.8779 52.909C57.9 52.9098 58.3433 52.8688 58.9779 52.8086C59.1627 53.5264 59.1487 54.2811 58.9374 54.9922L58.2961 55.0149C58.2951 55.0163 58.2942 55.0178 58.2932 55.0193C58.2923 55.0208 58.2913 55.0224 58.2902 55.0239C57.8909 55.0471 57.4317 55.1027 57.135 55.2309C56.6556 55.438 55.5483 55.3744 55.1674 55.2357C54.505 55.2218 53.5889 55.1915 53.4269 55.1283C53.1681 55.0273 53.2754 54.7833 53.4317 54.7107C53.4989 54.6795 53.2342 54.5871 53.0169 54.5112C52.9455 54.4862 52.8792 54.4631 52.8315 54.4445C52.5421 54.3319 52.662 54.0588 52.8366 53.9778C52.9496 53.9254 52.5931 53.7841 52.3691 53.6968C52.0797 53.5841 52.1996 53.3111 52.3742 53.2302C52.4132 53.2121 52.4875 53.1911 52.5679 53.1683C52.7623 53.1134 52.9922 53.0483 52.8438 52.9904C52.5546 52.8777 52.6745 52.6047 52.8491 52.5237C52.9853 52.4605 54.2769 52.5102 54.8376 52.5351C54.8787 52.5357 54.9213 52.5367 54.9644 52.5378C55.2145 52.5438 55.48 52.5501 55.5437 52.4827C55.6034 52.4196 55.5 52.2217 55.3658 51.9649C55.3042 51.8471 55.2361 51.7168 55.1743 51.5815C54.9778 51.1513 55.4163 50.6585 55.531 50.7141C55.5832 50.7393 55.7579 51.0478 55.9562 51.398C56.1933 51.8167 56.4643 52.2952 56.6005 52.4213C56.7799 52.5876 57.0312 52.6891 57.2291 52.769C57.307 52.8005 57.3765 52.8286 57.4303 52.856C57.5758 52.8978 57.7266 52.9186 57.8781 52.9178Z" fill="#F2AC7D"/>
<path d="M60.7346 55.3915C60.7076 55.3882 60.6879 55.3644 60.6896 55.3373C60.6913 55.3102 60.7139 55.289 60.7411 55.289L64.1492 55.2875C64.1677 55.2874 64.1848 55.2972 64.1941 55.3132C64.2033 55.3291 64.2033 55.3488 64.194 55.3648C64.1848 55.3807 64.1676 55.3905 64.1492 55.3905L60.741 55.3919C60.7389 55.3919 60.7367 55.3918 60.7346 55.3915V55.3915Z" fill="#0B122D"/>
<g style="mix-blend-mode:overlay" opacity="0.6">
<path d="M67.1506 52.2379C65.8938 52.5268 62.2309 53.5016 61.8346 52.3527C63.6962 52.1293 66.1068 51.5761 66.1068 51.5761C66.1973 51.5616 66.2773 51.5091 66.3266 51.432C66.3759 51.3548 66.3898 51.2603 66.3647 51.1724C66.1857 50.5923 65.9174 49.4134 65.3865 47.6253C65.6714 47.56 66.2124 47.7524 66.3369 48.103C66.4809 48.511 67.187 50.6781 67.4928 51.5552C67.5615 51.7522 67.483 52.1614 67.1506 52.2379Z" fill="white"/>
</g>
<path d="M67.3043 52.5393C67.2794 52.5355 67.261 52.5142 67.2607 52.489C67.2604 52.4548 67.242 51.6481 66.3148 51.4771C66.2966 51.4738 66.2817 51.4611 66.2755 51.4437C66.2694 51.4264 66.273 51.4071 66.285 51.3931C66.297 51.3791 66.3155 51.3725 66.3336 51.3758C66.9006 51.4512 67.3331 51.9181 67.3639 52.4881C67.3641 52.5165 67.3412 52.5397 67.3127 52.54C67.3099 52.54 67.3071 52.5398 67.3043 52.5393Z" fill="#0B122D"/>
<path d="M65.39 46.8032C65.3796 46.8016 65.37 46.7968 65.3624 46.7896C64.0636 45.5538 64.4045 43.3544 64.4081 43.3323C64.4126 43.3044 64.4389 43.2853 64.467 43.2896L64.4673 43.2897C64.4808 43.2918 64.4929 43.2993 64.5009 43.3104C64.5089 43.3214 64.5121 43.3352 64.5099 43.3487C64.5064 43.3702 64.1746 45.5169 65.4337 46.715C65.45 46.7306 65.4543 46.7549 65.4443 46.7751C65.4343 46.7953 65.4123 46.8066 65.39 46.8032L65.39 46.8032Z" fill="#0B122D"/>
<path d="M54.8382 53.165C54.839 53.1528 54.8349 53.1408 54.8267 53.1316C54.8186 53.1225 54.8072 53.117 54.7949 53.1164L52.7668 52.9996C52.7418 52.9982 52.7203 53.0168 52.7181 53.0416C52.7158 53.0664 52.7338 53.0884 52.7586 53.0913L52.7613 53.0915L54.7894 53.2083C54.8017 53.209 54.8137 53.2048 54.8228 53.1967C54.832 53.1886 54.8375 53.1772 54.8382 53.165V53.165Z" fill="#0B122D"/>
<path d="M54.8308 54.0227C54.8314 53.9974 54.8115 53.9763 54.7861 53.9754L52.7163 53.9176C52.6916 53.9169 52.6707 53.9357 52.6689 53.9603C52.6671 53.9848 52.685 54.0065 52.7095 54.0093L52.7135 54.0096L54.7833 54.0674C54.7956 54.0678 54.8075 54.0633 54.8164 54.0549C54.8253 54.0465 54.8305 54.0349 54.8308 54.0227Z" fill="#0B122D"/>
<path d="M55.0448 54.7382L53.312 54.6506C53.2871 54.6493 53.2657 54.668 53.2636 54.6927C53.2614 54.7175 53.2794 54.7394 53.3041 54.7423L53.3071 54.7426L55.04 54.8302C55.0654 54.8314 55.0871 54.8119 55.0885 54.7865C55.0895 54.7612 55.0701 54.7398 55.0448 54.7382V54.7382Z" fill="#0B122D"/>
<path d="M18.3223 28.8079C17.847 26.8656 20.1517 26.9631 20.5479 26.996C20.9441 27.0289 21.1143 24.0229 21.1143 24.0229C21.1143 24.0229 25.4222 22.5925 26.4857 23.2372C26.4857 23.2372 27.6234 26.8286 28.067 29.1702C28.5106 31.5118 28.0026 32.6637 27.1476 32.8709C26.8735 32.9212 26.5926 32.9238 26.3176 32.8785L27.3591 37.1347L21.5334 35.717L20.94 30.535C20.9101 30.526 20.8931 30.5216 20.8931 30.5216C20.8931 30.5216 18.7713 30.6424 18.3223 28.8079Z" fill="url(#paint7_linear_2312_236328)"/>
<path fill-rule="evenodd" clip-rule="evenodd" d="M18.5613 30.25C18.8368 30.7045 19.0944 31.1296 19.3064 31.593C19.8153 32.7057 19.4316 33.8775 19.4316 33.8775C19.4705 33.8767 19.5096 33.876 19.5487 33.8754C20.2828 33.8626 21.024 33.8498 21.2453 33.2092C21.4693 32.5611 20.9316 30.4849 20.9316 30.4849C20.9316 30.4849 19.3593 30.0657 18.7725 29.2503C18.1857 28.435 18.6196 27.3801 19.5515 27.2758C20.4374 27.1766 21.3145 28.2721 21.3153 28.2731C21.7405 29.1003 22.0328 30.1655 22.1719 30.7409C22.2377 31.0136 22.4105 31.2487 22.6518 31.3935C23.5796 31.9499 25.9432 33.253 27.1467 32.8708C28.6646 32.3888 28.1671 29.804 28.1671 29.804C26.3099 28.2927 24.9303 29.2764 24.1948 29.8008C23.9907 29.9463 23.8362 30.0565 23.7349 30.0682C23.0255 30.1504 22.2498 28.1649 21.8793 27.0756C21.5333 25.9103 21.6956 24.3733 22.4618 23.8131C23.2069 23.2682 24.68 23.6614 25.0384 23.939C26.6011 22.5744 27.1851 25.7915 27.1851 25.7915C27.1851 25.7915 27.8767 24.9587 27.8851 24.1139C27.8909 23.5309 27.6793 23.167 27.2523 22.4327C27.0606 22.1029 26.8254 21.6984 26.547 21.1659C25.3247 18.828 22.6343 20.6207 22.6343 20.6207C17.621 20.4422 16.1614 23.7964 16.8691 26.454C17.3461 28.2451 17.9919 29.3105 18.5613 30.25ZM27.2428 30.4561C27.0249 31.0019 26.2207 31.3722 25.7963 31.2853C25.039 31.1301 24.6262 29.97 24.8598 29.5975C25.0389 29.3119 25.3866 29.3746 25.753 29.4408C25.8138 29.4518 25.8752 29.4629 25.9363 29.4724C26.1256 29.5021 26.3132 29.5116 26.486 29.5202C26.7052 29.5313 26.9005 29.5411 27.0451 29.5896C27.2564 29.6606 27.4606 29.9104 27.2428 30.4561Z" fill="url(#paint8_linear_2312_236328)"/>
<g style="mix-blend-mode:overlay" opacity="0.6">
<path d="M26.3095 32.8733C26.3095 32.8733 24.3497 32.4841 23.6358 32.0284C23.6358 32.0284 24.1587 33.5966 25.5964 34.4396C27.034 35.2825 26.6842 34.4046 26.6842 34.4046L26.3095 32.8733Z" fill="#030F1C"/>
</g>
<path d="M19.5667 28.0664C20.1034 27.7266 20.9587 28.8653 20.9948 28.9139C21.0155 28.9417 21.0096 28.9809 20.9817 29.0015C20.9538 29.022 20.9144 29.0162 20.8937 28.9884C20.7455 28.7921 20.5784 28.6106 20.395 28.4464C20.2662 28.4549 20.1447 28.5089 20.0524 28.5986C19.9649 28.7039 19.9261 28.8412 19.9458 28.9766C19.9481 29.0071 19.9279 29.0348 19.8981 29.0421C19.8947 29.0429 19.8913 29.0435 19.8878 29.0437C19.8712 29.0449 19.8548 29.0395 19.8421 29.0287C19.8295 29.0179 19.8217 29.0025 19.8204 28.9859C19.7973 28.8156 19.8483 28.6435 19.9605 28.5131C20.0435 28.4273 20.1499 28.3677 20.2666 28.3415C20.0401 28.169 19.8042 28.0642 19.6342 28.1722C19.6049 28.1906 19.5662 28.1819 19.5476 28.1528C19.529 28.1236 19.5376 28.085 19.5667 28.0664L19.5667 28.0664Z" fill="#0B122D"/>
<ellipse rx="0.235092" ry="0.385351" transform="matrix(-0.971883 0.235467 0.237702 0.971339 24.5487 26.6618)" fill="#161B36"/>
<ellipse rx="0.235091" ry="0.385352" transform="matrix(-0.971883 0.235467 0.237702 0.971339 26.8475 26.2698)" fill="#161B36"/>
<path d="M24.6551 25.0502C24.5516 24.9789 24.4226 24.9351 24.0924 25.0365C23.7623 25.138 23.3313 25.5746 23.4628 25.6285C23.5943 25.6823 23.8626 25.328 24.1489 25.3551C24.4352 25.3822 24.6051 25.4203 24.6817 25.3492C24.7781 25.2598 24.7049 25.0845 24.6551 25.0502Z" fill="#161B36"/>
<path d="M26.0838 24.6056C26.1755 24.5198 26.2965 24.4575 26.6382 24.5092C26.9799 24.5609 27.4714 24.9292 27.3494 25.0018C27.2274 25.0745 26.9091 24.7636 26.63 24.8325C26.3509 24.9014 26.1886 24.9642 26.1022 24.9052C25.9935 24.8309 26.0397 24.6468 26.0838 24.6056Z" fill="#161B36"/>
<g style="mix-blend-mode:overlay" opacity="0.6">
<path d="M26.5941 28.8405C26.713 28.8162 26.8233 28.7609 26.9136 28.6801C26.9725 28.6257 27.0037 28.5478 26.9986 28.4679C26.9852 28.3031 26.7623 28.0971 26.4944 27.8644C26.4273 27.8096 26.3637 27.7506 26.304 27.6879C26.2424 27.6113 26.0611 26.8205 25.9216 26.1004L25.7981 26.124C25.8465 26.3738 26.0937 27.6266 26.2059 27.7662C26.2699 27.8351 26.3388 27.8995 26.4119 27.9588C26.5806 28.1053 26.8629 28.3506 26.8734 28.478C26.8754 28.5214 26.8573 28.5634 26.8243 28.5919C26.6673 28.7095 26.4714 28.7634 26.276 28.7429L26.267 28.8678C26.3768 28.8754 26.4871 28.8662 26.5941 28.8405V28.8405Z" fill="#030F1C"/>
</g>
<path d="M27.0254 29.9624C27.027 29.924 27.0131 29.8865 26.9868 29.8583C26.9605 29.8301 26.924 29.8135 26.8855 29.8122C26.6931 29.804 26.338 29.7867 26.0647 29.7623C25.7762 29.7221 25.4907 29.6629 25.2101 29.5849C25.1613 29.5721 25.1094 29.5851 25.0726 29.6195C25.0359 29.6538 25.0195 29.7046 25.0293 29.7539C25.1038 30.1326 25.3281 30.8531 25.9557 30.8589C26.7191 30.8661 27.0007 30.3874 27.0254 29.9624Z" fill="#161B36"/>
<path d="M26.8279 30.505C26.8279 30.505 25.9985 29.794 25.1629 30.2047C25.1629 30.2047 25.3261 30.8774 25.9329 30.8909C26.5863 30.9054 26.8279 30.505 26.8279 30.505Z" fill="#E55151"/>
<path d="M26.3299 32.9396C26.3587 32.9326 26.3787 32.9065 26.3779 32.8769C26.377 32.8473 26.3554 32.8224 26.3262 32.8171C26.3039 32.8131 24.0781 32.4049 22.9664 31.5289C22.9488 31.515 22.9251 31.5115 22.9042 31.5197C22.8833 31.528 22.8684 31.5467 22.8652 31.5689C22.8619 31.5911 22.8708 31.6133 22.8885 31.6271C24.025 32.5227 26.2114 32.9238 26.3039 32.9404C26.3125 32.9419 26.3214 32.9417 26.3299 32.9396Z" fill="#0B122D"/>
<path d="M4.69807 25.304C4.63276 25.0657 4.97268 24.6301 5.21185 24.5652L8.70686 23.633C8.94603 23.5681 9.42823 23.9448 9.49354 24.183L9.7461 25.0657C9.79177 25.2333 9.73562 25.4121 9.60218 25.5239C10.1957 26.9873 11.3124 29.7327 11.6883 30.5493C12.1851 31.6288 13.9408 33.7776 16.5422 35.5363C19.5117 37.3153 21.3238 36.4259 21.3238 36.4259L25.9728 37.288L27.8481 35.1881C28.952 35.0061 29.995 34.5603 30.8879 33.8888C32.5815 32.3916 34.0538 30.2763 35.5511 26.992C35.6717 26.7282 35.7445 26.4453 35.7663 26.1563C35.8843 24.5721 36.3183 21.3836 36.3383 20.2809C36.3443 19.9527 36.3502 19.6265 36.3561 19.3024C36.2362 19.2284 36.1584 19.1024 36.1461 18.9624L36.0785 18.0472C36.0575 17.8011 36.3802 17.2826 36.6273 17.2619L40.2316 16.9432C40.4786 16.9225 40.9483 17.2155 40.9693 17.4616L41.062 18.5493C41.0748 18.6977 41.0125 18.8425 40.8959 18.9356C40.9601 20.4583 40.9859 21.9115 40.9651 23.4099C40.9572 23.9648 40.9424 24.5068 40.9205 25.0359C40.8534 26.697 40.7199 28.2297 40.5559 29.6217C40.0489 31.8959 38.8522 34.4081 37.6498 36.5376C36.7215 38.175 35.7066 39.7621 34.6093 41.2922C34.4854 41.4627 34.4172 41.554 34.4172 41.554C34.4135 41.5535 34.4101 41.5529 34.4065 41.5524C35.0431 45.3675 35.6483 49.1979 35.9519 50.4853C36.3996 52.3846 37.1291 54.5308 37.7863 56.9851C38.0975 58.1473 39.7715 60.1742 39.0464 61.1379C36.7062 64.2482 21.7963 65.3172 21.7963 65.3172C21.4764 63.9109 21.317 62.4732 21.3212 61.0314C21.372 58.2508 20.9531 56.9483 20.4955 55.4303C20.1938 54.4292 18.6425 48.9844 17.5446 45.1477C16.1241 43.9554 9.03484 37.9007 7.49908 34.5626C6.68681 32.7971 5.57816 28.4461 5.12017 26.5715C5.05583 26.5144 5.00947 26.44 4.98669 26.3572L4.69807 25.304Z" fill="url(#paint9_linear_2312_236328)"/>
<path d="M17.4439 45.119C17.4563 45.116 17.4676 45.1093 17.476 45.0997C18.927 43.4685 18.289 40.8374 18.2824 40.811C18.274 40.7776 18.2401 40.7572 18.2065 40.7653L18.2061 40.7654C18.1725 40.7738 18.152 40.8077 18.1604 40.8413C18.1668 40.867 18.7886 43.4351 17.3819 45.0166C17.3637 45.0371 17.3609 45.067 17.3751 45.0905C17.3893 45.114 17.4172 45.1255 17.4439 45.119V45.119Z" fill="#0B122D"/>
<path d="M36.8544 59.3328C36.8651 59.3302 36.875 59.3248 36.8829 59.3172C37.7987 58.4466 37.8471 57.046 37.8487 56.9868C37.8493 56.9644 37.8379 56.9434 37.8187 56.9317C37.7996 56.92 37.7756 56.9193 37.7559 56.93C37.7361 56.9406 37.7236 56.961 37.723 56.9833C37.7226 56.9973 37.6738 58.3922 36.7961 59.2266C36.7755 59.2462 36.7707 59.2771 36.7844 59.3019C36.7981 59.3268 36.8268 59.3394 36.8544 59.3328Z" fill="#0B122D"/>
<g style="mix-blend-mode:overlay" opacity="0.4">
<path d="M24.494 38.0353C24.494 38.0353 20.5279 38.2977 18.8798 36.5133C20.3026 36.8305 21.3223 36.4257 21.3223 36.4257L24.494 38.0353Z" fill="#030F1C"/>
</g>
<g style="mix-blend-mode:overlay" opacity="0.6">
<path d="M36.6296 19.3704L40.6509 19.0325C40.8924 19.0122 38.4281 18.364 37.3669 18.939C36.6798 19.3114 36.4352 18.6929 36.4716 18.3334C36.5226 17.8292 37.2636 17.2055 37.2636 17.2055C37.2631 17.2 36.67 17.2636 36.6697 17.2582L36.6254 17.2619C36.3784 17.2827 36.0556 17.8012 36.0766 18.0473L36.1443 18.9625C36.1544 19.0806 36.2112 19.19 36.3022 19.2665C36.3932 19.343 36.511 19.3804 36.6296 19.3704V19.3704Z" fill="#030F1C"/>
</g>
<g style="mix-blend-mode:overlay" opacity="0.6">
<path d="M9.42962 25.6146L5.53636 26.6711C5.30254 26.7346 7.39292 25.2839 8.58817 25.4614C9.36203 25.5763 9.37816 24.9119 9.21981 24.5867C8.99771 24.1306 8.08641 23.798 8.08641 23.798C8.08495 23.7927 8.66398 23.6498 8.66234 23.6446L8.70522 23.633C8.94441 23.568 9.42661 23.9447 9.49191 24.183L9.74447 25.0656C9.77583 25.1801 9.76027 25.3022 9.70123 25.4051C9.64218 25.5081 9.54448 25.5834 9.42962 25.6146V25.6146Z" fill="#030F1C"/>
</g>
<g style="mix-blend-mode:overlay" opacity="0.6">
<path d="M21.2473 60.2208C21.1571 63.1861 21.7219 65.335 21.7219 65.335C21.7219 65.335 29.716 64.7698 33.8261 63.5328C31.3896 62.9927 28.269 63.3573 26.4253 62.1662C24.254 60.7635 22.5027 58.0367 21.7345 53.1798C20.3971 44.7247 17.5179 43.4574 16.43 42.8784L12.3188 40.4219C12.3188 40.4219 15.1761 43.1105 17.4292 45.0584C18.3216 48.2817 19.2507 51.5708 20.1517 54.5287C20.9094 57.0163 21.2964 58.6088 21.2473 60.2208Z" fill="url(#paint10_linear_2312_236328)"/>
</g>
<g style="mix-blend-mode:overlay" opacity="0.4">
<path d="M34.8919 51.6285C35.3006 53.063 36.1298 53.0805 36.6657 53.3722C36.3652 52.3558 36.0902 51.4015 35.8781 50.5029C35.5354 49.0442 35.0906 44.9639 34.6087 41.2922C35.7061 39.7621 36.721 38.175 37.6492 36.5376C38.8516 34.4081 40.0484 31.8959 40.5554 29.6216C40.7194 28.2297 40.8528 26.697 40.9199 25.0359C40.5142 25.16 39.7818 25.4674 39.5505 26.6321C39.3009 27.8884 39.1958 29.8936 38.3115 31.7263C37.0856 34.2671 34.255 38.7102 33.8501 39.1926C32.5865 40.6985 33.4943 43.6714 33.7061 44.983C34.1745 47.884 34.374 49.8107 34.8919 51.6285Z" fill="url(#paint11_linear_2312_236328)"/>
</g>
<path d="M34.8433 44.3811C34.8735 44.3738 34.8937 44.3456 34.8909 44.3147C34.6387 41.5219 33.9687 39.6198 33.9619 39.6009C33.9494 39.5692 33.9143 39.5525 33.8817 39.5628C33.866 39.5683 33.8531 39.5799 33.8459 39.5949C33.8388 39.6099 33.8379 39.6271 33.8435 39.6428C33.8501 39.6615 34.515 41.5499 34.7658 44.3259C34.7689 44.3604 34.7994 44.3858 34.834 44.3827C34.8372 44.3824 34.8403 44.3819 34.8433 44.3811Z" fill="#0B122D"/>
<path fill-rule="evenodd" clip-rule="evenodd" d="M25.0848 36.2168C22.3957 35.3265 21.3715 34.2137 21.3715 34.2137L21.3231 36.4259L24.4947 38.0355C24.5338 37.7218 24.5996 37.4119 24.6914 37.1093L25.9721 37.288L25.9721 37.288L25.9721 37.288L25.9721 37.288L25.9721 37.288L26.5386 36.6536L27.4267 37.3742L27.8473 35.1881L26.6962 34.3525C26.6962 34.3525 26.8507 35.2256 25.9241 35.9508L25.9721 37.2879L25.0848 36.2168Z" fill="url(#paint12_linear_2312_236328)"/>
<g style="mix-blend-mode:overlay" opacity="0.6">
<path d="M25.0856 36.2167L25.9729 37.2879L24.6921 37.1092C24.775 36.7928 24.9078 36.4916 25.0856 36.2167V36.2167Z" fill="#030F1C"/>
</g>
<g style="mix-blend-mode:overlay" opacity="0.6">
<path d="M25.9242 35.9508L25.972 37.288L26.5386 36.6536L25.9242 35.9508V35.9508Z" fill="#030F1C"/>
</g>
<path fill-rule="evenodd" clip-rule="evenodd" d="M1.15797 13.3299C1.48305 12.8553 2.00488 13.2541 2.00488 13.2541C2.00488 13.2541 1.62409 12.1857 2.00466 11.9139C2.34589 11.6704 3.07427 12.4663 3.07427 12.4663C3.07427 12.4663 2.74742 11.3883 3.26931 11.4442C3.91116 11.5123 4.23107 11.9355 4.26909 12.0477C4.24713 11.6493 4.21051 11.2228 4.17497 10.8089C4.05106 9.3656 3.94044 8.07716 4.51137 8.67851C5.23789 9.44297 5.52178 12.7087 5.52178 12.7087C5.83941 12.6843 6.14883 12.8172 6.34913 13.0641C6.66128 13.4772 6.49007 14.7187 6.49007 14.7187C6.43614 15.701 6.35829 17.3617 6.35829 17.3617C6.40884 17.6491 6.47672 17.9332 6.56156 18.2125L8.26211 23.7513L5.26009 24.552L3.85346 19.3663C3.72347 18.9414 3.62736 18.5663 3.62736 18.5663C2.44753 17.7597 1.81145 15.9166 1.63031 15.3918C1.60771 15.3263 1.59219 15.2813 1.58358 15.2614L1.58271 15.2606C1.18057 14.3355 1.01383 13.5412 1.15797 13.3299ZM36.9046 10.8131C36.5564 10.4007 36.4059 9.81021 36.2473 9.18781L36.2473 9.1878C36.1676 8.87501 36.0859 8.55416 35.9759 8.24378C35.9759 8.24378 35.4616 7.09979 35.6448 6.61628C35.7675 6.32347 36.027 6.10966 36.3388 6.04455C36.3388 6.04455 35.6907 2.83063 36.1726 1.89438C36.5511 1.15805 36.8081 2.42569 37.0961 3.8457C37.1786 4.25284 37.2637 4.67251 37.3549 5.06105C37.3598 4.94274 37.4477 4.51019 38.0447 4.26599C38.5299 4.06686 38.6199 5.12998 38.6199 5.12998C38.6199 5.12998 38.9554 4.16609 39.4909 4.3017C39.9449 4.41667 39.8685 5.58818 39.8685 5.58818C39.8685 5.58818 40.257 5.06003 40.7028 5.42503C40.9008 5.58763 40.9646 6.3966 40.8394 7.39667L40.8388 7.39772C40.8148 7.59128 40.7836 7.79194 40.7446 7.99605L40.744 7.99626C40.7073 8.18919 40.6756 8.37764 40.6448 8.56148C40.4919 9.47197 40.358 10.2695 39.7232 10.9404C39.7232 10.9404 39.7416 11.3422 39.7542 11.8443L40.1989 16.946L36.8571 17.2414L36.9563 11.2107C36.9501 11.077 36.9328 10.944 36.9046 10.8131ZM25.944 36.5075L25.972 37.2879L25.3951 36.5932L25.944 36.5075Z" fill="url(#paint13_linear_2312_236328)"/>
<path d="M37.4997 7.7702C37.6363 7.73984 37.7641 7.67873 37.8733 7.59156C38.0112 7.49344 38.0919 7.33419 38.0894 7.16541C38.0722 6.80872 37.6448 6.51506 37.6266 6.50272C37.608 6.49002 37.5841 6.48818 37.5638 6.49789C37.5435 6.50761 37.53 6.52739 37.5283 6.54976C37.5267 6.57212 37.5372 6.59366 37.5559 6.60621C37.5598 6.6089 37.9499 6.87738 37.9638 7.17155C37.964 7.30087 37.9001 7.42194 37.7931 7.49512C37.2792 7.91998 36.1407 7.49906 36.1291 7.49487C36.1081 7.48696 36.0845 7.49081 36.0671 7.50498C36.0498 7.51914 36.0413 7.54147 36.0449 7.56354C36.0486 7.58561 36.0638 7.60408 36.0848 7.61199C36.125 7.62711 36.9032 7.91464 37.4997 7.7702Z" fill="#0B122D"/>
<path d="M40.0914 8.03287C40.1291 8.02353 40.1652 8.00838 40.1983 7.98797C40.4798 7.8171 40.6009 7.28801 40.6059 7.26558C40.6134 7.23184 40.5921 7.19838 40.5582 7.19084C40.5243 7.1833 40.4908 7.20454 40.4832 7.23828C40.482 7.24329 40.3687 7.73802 40.1327 7.88112C40.0783 7.91605 40.0114 7.92613 39.949 7.90881C39.6426 7.82872 39.6427 7.18877 39.6687 6.94897C39.6722 6.91579 39.649 6.88565 39.6159 6.88043C39.5828 6.87522 39.5515 6.89677 39.5446 6.92943C39.5436 6.93402 39.4449 7.39076 39.1602 7.56567C39.045 7.63495 38.9056 7.65209 38.7769 7.61279C38.1845 7.45621 38.365 6.58655 38.3669 6.57779C38.3741 6.544 38.3525 6.51075 38.3186 6.50348C38.2847 6.49621 38.2513 6.51767 38.2439 6.55143C38.1698 6.89499 38.179 7.58429 38.7446 7.7339C38.9068 7.78257 39.0822 7.76005 39.2267 7.67199C39.3608 7.58171 39.4682 7.45719 39.5375 7.31144C39.5557 7.59851 39.6362 7.95646 39.9171 8.02995C39.974 8.04553 40.034 8.04654 40.0914 8.03287Z" fill="#0B122D"/>
<path d="M38.9096 9.48499C38.93 9.48008 38.9466 9.46531 38.9538 9.44565C39.0822 9.14169 39.076 8.79781 38.9367 8.4985C38.6773 7.97202 38.0493 7.76799 38.0227 7.75957C37.9897 7.74924 37.9545 7.76746 37.944 7.80032C37.9335 7.83318 37.9517 7.8683 37.9847 7.87887C37.9906 7.88084 38.5889 8.07607 38.8242 8.55425C38.9475 8.82297 38.9516 9.13088 38.8356 9.40265C38.8277 9.42435 38.8324 9.44866 38.8478 9.46589C38.8633 9.48312 38.887 9.49046 38.9096 9.48499L38.9096 9.48499Z" fill="#0B122D"/>
<path d="M39.6216 7.00309C39.6456 6.99727 39.6639 6.97797 39.6685 6.95377L39.8789 5.8338C39.8853 5.79979 39.8627 5.76706 39.8286 5.7607C39.7944 5.75434 39.7616 5.77675 39.7552 5.81076L39.5448 6.93073C39.5409 6.95163 39.5479 6.97308 39.5634 6.9877C39.5789 7.00232 39.6008 7.00811 39.6216 7.00309Z" fill="#0B122D"/>
<path d="M38.3212 6.62563C38.3441 6.62009 38.3619 6.60226 38.3674 6.57944L38.6418 5.43986C38.6472 5.41809 38.6404 5.39512 38.6241 5.37966C38.6078 5.36419 38.5845 5.35859 38.5629 5.36497C38.5413 5.37135 38.5248 5.38873 38.5197 5.41055L38.2452 6.55013C38.2401 6.57134 38.2464 6.5937 38.2619 6.60912C38.2774 6.62455 38.2999 6.6308 38.3212 6.62563L38.3212 6.62563Z" fill="#0B122D"/>
<path d="M5.10739 14.502C5.70395 14.3574 6.26207 13.746 6.2908 13.7142C6.30583 13.6976 6.31081 13.6742 6.30384 13.6529C6.29688 13.6316 6.27904 13.6157 6.25705 13.611C6.23506 13.6064 6.21227 13.6138 6.19728 13.6305C6.18913 13.6395 5.37218 14.5337 4.7197 14.3919C4.59084 14.3759 4.47819 14.2975 4.41865 14.1826C4.29504 13.915 4.5174 13.4981 4.51966 13.4939C4.5361 13.4635 4.5247 13.4256 4.49418 13.4091C4.46366 13.3927 4.42556 13.404 4.40905 13.4344C4.3986 13.4536 4.15469 13.91 4.30426 14.2346C4.37999 14.3856 4.52526 14.4901 4.69302 14.5142C4.8303 14.5417 4.97203 14.5375 5.10739 14.502Z" fill="#0B122D"/>
<path d="M2.92722 15.9203C2.98448 15.9061 3.03723 15.8778 3.08058 15.838C3.2961 15.6441 3.20222 15.2894 3.08561 15.0262C3.21456 15.124 3.36746 15.1854 3.52836 15.2042C3.69734 15.2162 3.86342 15.1561 3.98508 15.0387C4.27829 14.7735 4.25736 14.4076 3.92757 14.0348C3.84426 13.9405 3.77392 13.8355 3.71838 13.7227L3.23899 12.751C3.22914 12.7309 3.20921 12.7175 3.18674 12.7159C3.16428 12.7144 3.14271 12.7249 3.1302 12.7436C3.11768 12.7622 3.11613 12.7861 3.12613 12.8062L3.60552 13.7779C3.666 13.9007 3.74261 14.0149 3.83333 14.1176C4.03266 14.3429 4.20612 14.6696 3.90046 14.9459C3.80428 15.0399 3.67233 15.0885 3.53785 15.0793C3.20323 15.054 2.90585 14.6939 2.90282 14.6903C2.88166 14.6644 2.84384 14.6596 2.81685 14.6793C2.78987 14.6991 2.78318 14.7365 2.80166 14.7643C2.93553 14.9654 3.23128 15.5337 2.99628 15.745C2.94882 15.7889 2.88477 15.8105 2.82027 15.8044C2.54453 15.7852 2.21531 15.3977 2.21196 15.3938C2.19755 15.3766 2.17502 15.3684 2.15287 15.3722C2.13071 15.3761 2.11232 15.3914 2.10463 15.4125C2.09695 15.4335 2.10114 15.4571 2.11562 15.4742C2.13042 15.4918 2.48231 15.9063 2.81142 15.9293C2.85026 15.9323 2.88932 15.9292 2.92722 15.9203V15.9203Z" fill="#0B122D"/>
<path d="M4.64756 16.6691C4.67011 16.6637 4.6878 16.6463 4.69358 16.6239C4.69937 16.6015 4.69231 16.5778 4.67521 16.5622C4.44663 16.3739 4.30804 16.0986 4.29334 15.8036C4.28133 15.2712 4.7226 14.8241 4.72695 14.8197C4.75133 14.7952 4.75125 14.7557 4.72676 14.7313C4.70228 14.7069 4.66261 14.7069 4.63805 14.7311C4.61834 14.7508 4.15488 15.2192 4.16768 15.8055C4.18224 16.135 4.33562 16.4432 4.59012 16.6544C4.60559 16.6686 4.62715 16.6741 4.64756 16.6691Z" fill="#0B122D"/>
<path d="M2.87008 14.7905C2.87515 14.7893 2.88004 14.7874 2.88464 14.7849C2.89937 14.7772 2.9104 14.7639 2.91528 14.748C2.92017 14.7322 2.91852 14.715 2.91069 14.7003L2.29862 13.551C2.28812 13.5312 2.2678 13.5185 2.24534 13.5177C2.22288 13.5169 2.20169 13.5281 2.18978 13.547C2.17786 13.566 2.17704 13.5899 2.18761 13.6096L2.79968 14.7589C2.81315 14.7843 2.84215 14.7972 2.87008 14.7905V14.7905Z" fill="#0B122D"/>
<path d="M17.974 64.0328L17.9234 64.5107C17.9153 64.5862 17.9377 64.6618 17.9856 64.7208C18.0335 64.7798 18.103 64.8174 18.1787 64.8253L43.0993 67.4327C43.1122 67.4342 43.1252 67.4351 43.1382 67.4352C43.2125 67.4414 43.2873 67.4385 43.361 67.4268C43.3628 67.4258 43.3649 67.4255 43.3669 67.4259C43.6149 67.387 43.84 67.2587 43.9997 67.0654C44.0836 66.965 44.1471 66.8493 44.1866 66.7247L44.3142 66.3272L48.0359 54.6232C48.117 54.3702 48.0796 54.0942 47.9341 53.8719C47.7886 53.6496 47.5504 53.5046 47.2856 53.477L29.9304 51.6612C29.5124 51.6166 29.1207 51.8722 28.9941 52.2721L25.1062 64.4912L18.2896 63.778C18.2139 63.77 18.138 63.7924 18.0788 63.8402C18.0197 63.888 17.9819 63.9573 17.974 64.0328Z" fill="url(#paint14_linear_2312_236328)"/>
<g style="mix-blend-mode:overlay" opacity="0.6">
<path d="M17.9739 64.0284L17.9233 64.5062C17.9153 64.5817 17.9377 64.6572 17.9855 64.7162C18.0334 64.7752 18.1029 64.8128 18.1786 64.8207L25.117 65.5466C25.6017 65.5977 26.0559 65.302 26.2041 64.8388L30.0525 52.7412C30.2476 52.5453 30.2893 52.2444 30.1548 52.0033C30.0203 51.7621 29.742 51.6389 29.4723 51.7011C29.2026 51.7633 29.0065 51.9959 28.9915 52.2715L25.1045 64.4867L18.2894 63.7737C18.2137 63.7657 18.1379 63.7881 18.0787 63.8359C18.0196 63.8837 17.9818 63.9529 17.9739 64.0284Z" fill="black"/>
</g>
<g style="mix-blend-mode:overlay" opacity="0.6">
<path d="M38.3487 61.2667C38.8073 61.3147 39.2365 61.0336 39.3746 60.5947L39.3865 60.5569C39.4735 60.2804 39.4316 59.9797 39.2722 59.7376C39.1128 59.4956 38.8529 59.3376 38.564 59.3074C38.1054 59.2594 37.6763 59.5406 37.5382 59.9794L37.5262 60.0173C37.4392 60.2937 37.4812 60.5944 37.6406 60.8365C37.7999 61.0786 38.0599 61.2365 38.3487 61.2667Z" fill="white"/>
</g>
<path d="M48.9044 72.9999C52.2559 72.9999 54.9729 70.2919 54.9729 66.9514C54.9729 63.6109 52.2559 60.9028 48.9044 60.9028C45.5529 60.9028 42.8359 63.6109 42.8359 66.9514C42.8359 70.2919 45.5529 72.9999 48.9044 72.9999Z" fill="url(#paint15_linear_2312_236328)"/>
<path d="M48.5333 72.8315C51.8848 72.8315 54.6018 70.1235 54.6018 66.7829C54.6018 63.4424 51.8848 60.7344 48.5333 60.7344C45.1818 60.7344 42.4648 63.4424 42.4648 66.7829C42.4648 70.1235 45.1818 72.8315 48.5333 72.8315Z" fill="url(#paint16_linear_2312_236328)"/>
<path d="M48.4492 71.4523C50.9797 71.4523 53.0312 69.4076 53.0312 66.8853C53.0312 64.363 50.9797 62.3184 48.4492 62.3184C45.9186 62.3184 43.8672 64.363 43.8672 66.8853C43.8672 69.4076 45.9186 71.4523 48.4492 71.4523Z" fill="#8BC59F"/>
<path fill-rule="evenodd" clip-rule="evenodd" d="M50.9169 65.7166L47.7473 68.9229L45.9824 67.1377L46.7025 66.4093L47.7473 67.4661L50.1968 64.9883L50.9169 65.7166Z" fill="white"/>
<defs>
<linearGradient id="paint0_linear_2312_236328" x1="41.5415" y1="69.3423" x2="41.5415" y2="-0.0532116" gradientUnits="userSpaceOnUse">
<stop stop-color="#E3EFF9" stop-opacity="0.4"/>
<stop offset="1" stop-color="#E3EFF9"/>
</linearGradient>
<linearGradient id="paint1_linear_2312_236328" x1="63.3948" y1="22.8432" x2="60.9809" y2="38.4279" gradientUnits="userSpaceOnUse">
<stop stop-color="#2D3748"/>
<stop offset="1" stop-color="#1A202C"/>
</linearGradient>
<linearGradient id="paint2_linear_2312_236328" x1="59.3816" y1="37.5851" x2="55.2727" y2="64.1128" gradientUnits="userSpaceOnUse">
<stop stop-color="#2C5282"/>
<stop offset="1" stop-color="#2A4365"/>
</linearGradient>
<linearGradient id="paint3_linear_2312_236328" x1="59.3955" y1="28.0727" x2="53.8236" y2="64.0461" gradientUnits="userSpaceOnUse">
<stop stop-color="#81E6D9"/>
<stop offset="1" stop-color="#319795"/>
</linearGradient>
<linearGradient id="paint4_linear_2312_236328" x1="61.7585" y1="55.0393" x2="60.2433" y2="64.8218" gradientUnits="userSpaceOnUse">
<stop stop-color="#030F1C"/>
<stop offset="1" stop-color="#030F1C" stop-opacity="0"/>
</linearGradient>
<linearGradient id="paint5_linear_2312_236328" x1="62.8622" y1="44.2948" x2="61.5948" y2="52.477" gradientUnits="userSpaceOnUse">
<stop stop-color="#030F1C"/>
<stop offset="1" stop-color="#030F1C" stop-opacity="0"/>
</linearGradient>
<linearGradient id="paint6_linear_2312_236328" x1="49.1033" y1="46.802" x2="53.9606" y2="57.5061" gradientUnits="userSpaceOnUse">
<stop stop-color="#BDC6CB"/>
<stop offset="1" stop-color="#5D666A"/>
</linearGradient>
<linearGradient id="paint7_linear_2312_236328" x1="21.929" y1="23.7432" x2="25.2947" y2="37.6348" gradientUnits="userSpaceOnUse">
<stop stop-color="#E2B291"/>
<stop offset="1" stop-color="#F7B487"/>
</linearGradient>
<linearGradient id="paint8_linear_2312_236328" x1="21.2628" y1="20.6008" x2="24.3976" y2="33.54" gradientUnits="userSpaceOnUse">
<stop stop-color="#2D3748"/>
<stop offset="1" stop-color="#1A202C"/>
</linearGradient>
<linearGradient id="paint9_linear_2312_236328" x1="22.5641" y1="20.2756" x2="33.0876" y2="63.7119" gradientUnits="userSpaceOnUse">
<stop stop-color="#FFAEAE"/>
<stop offset="1" stop-color="#D93333"/>
</linearGradient>
<linearGradient id="paint10_linear_2312_236328" x1="19.231" y1="40.6997" x2="26.2872" y2="65.3905" gradientUnits="userSpaceOnUse">
<stop stop-color="#030F1C"/>
<stop offset="1" stop-color="#030F1C" stop-opacity="0"/>
</linearGradient>
<linearGradient id="paint11_linear_2312_236328" x1="40.8081" y1="26.0433" x2="33.6098" y2="49.7723" gradientUnits="userSpaceOnUse">
<stop stop-color="white"/>
<stop offset="1" stop-color="white" stop-opacity="0"/>
</linearGradient>
<linearGradient id="paint12_linear_2312_236328" x1="24.0372" y1="33.5678" x2="25.0962" y2="37.9388" gradientUnits="userSpaceOnUse">
<stop stop-color="#2C5282"/>
<stop offset="1" stop-color="#2A4365"/>
</linearGradient>
<linearGradient id="paint13_linear_2312_236328" x1="19.754" y1="4.77319" x2="27.5395" y2="36.9081" gradientUnits="userSpaceOnUse">
<stop stop-color="#E2B291"/>
<stop offset="1" stop-color="#F7B487"/>
</linearGradient>
<linearGradient id="paint14_linear_2312_236328" x1="41.7524" y1="54.0547" x2="33.3726" y2="69.39" gradientUnits="userSpaceOnUse">
<stop stop-color="#BDC6CB"/>
<stop offset="1" stop-color="#5D666A"/>
</linearGradient>
<linearGradient id="paint15_linear_2312_236328" x1="54.199" y1="61.0179" x2="41.043" y2="70.8087" gradientUnits="userSpaceOnUse">
<stop stop-color="#E2E8F0"/>
<stop offset="0.338542" stop-color="#CBD5E0"/>
<stop offset="0.59375" stop-color="#C5D0DC"/>
<stop offset="1" stop-color="#A0AEC0"/>
</linearGradient>
<linearGradient id="paint16_linear_2312_236328" x1="48.5333" y1="60.7344" x2="48.5333" y2="72.8315" gradientUnits="userSpaceOnUse">
<stop stop-color="#F7FAFC"/>
<stop offset="0.328125" stop-color="#E2E8F0"/>
</linearGradient>
</defs>
</svg>
