<svg width="47" height="51" viewBox="0 0 47 51" fill="none" xmlns="http://www.w3.org/2000/svg">
<g clip-path="url(#clip0_2312_233727)">
<path d="M6.64896 0.0688477C3.26161 0.0688477 0.515625 2.80781 0.515625 6.1865V42.8924C0.515625 46.2711 3.26161 49.01 6.64896 49.01H19.7043C18.9265 48.0706 18.2489 47.0456 17.6881 45.9512H6.64896C4.95529 45.9512 3.58229 44.5817 3.58229 42.8924V6.1865C3.58229 4.49715 4.95529 3.12767 6.64896 3.12767H31.1823C32.876 3.12767 34.249 4.49715 34.249 6.18649V21.5492C35.3021 21.6439 36.3273 21.8351 37.3156 22.1139V6.18649C37.3156 2.80781 34.5696 0.0688477 31.1823 0.0688477H6.64896ZM12.7823 24.5394C12.7823 26.2288 11.4093 27.5983 9.71562 27.5983C8.02195 27.5983 6.64896 26.2288 6.64896 24.5394C6.64896 22.8501 8.02195 21.4806 9.71562 21.4806C11.4093 21.4806 12.7823 22.8501 12.7823 24.5394ZM46.5156 38.3041C46.5156 45.9062 40.3372 52.0688 32.7156 52.0688C25.0941 52.0688 18.9156 45.9062 18.9156 38.3041C18.9156 30.7021 25.0941 24.5394 32.7156 24.5394C40.3372 24.5394 46.5156 30.7021 46.5156 38.3041ZM25.4993 37.2215L25.4916 37.2292C25.3478 37.3743 25.239 37.541 25.1653 37.7187C25.0914 37.8964 25.0502 38.0909 25.049 38.295L25.049 38.3041L25.049 38.3133C25.0502 38.5173 25.0914 38.7119 25.1653 38.8896C25.2401 39.07 25.351 39.239 25.4981 39.3856L31.6314 45.5033C32.2302 46.1005 33.201 46.1005 33.7999 45.5033C34.3987 44.906 34.3987 43.9376 33.7999 43.3403L30.2841 39.8336H38.849C39.6958 39.8336 40.3823 39.1488 40.3823 38.3041C40.3823 37.4595 39.6958 36.7747 38.849 36.7747H30.2841L33.7999 33.268C34.3987 32.6707 34.3987 31.7023 33.7999 31.105C33.201 30.5078 32.2302 30.5078 31.6314 31.105L25.4993 37.2215Z" fill="#F56565"/>
</g>
<defs>
<clipPath id="clip0_2312_233727">
<rect width="46.2644" height="50.2069" fill="white" transform="translate(0.515625 0.0688477)"/>
</clipPath>
</defs>
</svg>
