<svg width="47" height="51" viewBox="0 0 47 51" fill="none" xmlns="http://www.w3.org/2000/svg">
<g clip-path="url(#clip0_2312_229731)">
<path d="M40.6479 0.0688477C44.0353 0.0688477 46.7812 2.80781 46.7812 6.1865V42.8924C46.7812 46.2711 44.0353 49.01 40.6479 49.01H27.5926C28.3704 48.0706 29.0479 47.0456 29.6088 45.9512H40.6479C42.3416 45.9512 43.7146 44.5817 43.7146 42.8924V6.1865C43.7146 4.49715 42.3416 3.12767 40.6479 3.12767H16.1146C14.4209 3.12767 13.0479 4.49715 13.0479 6.18649V21.5492C11.9948 21.6439 10.9696 21.8351 9.98125 22.1139V6.18649C9.98125 2.80781 12.7272 0.0688477 16.1146 0.0688477H40.6479ZM34.5146 24.5394C34.5146 26.2288 35.8876 27.5983 37.5813 27.5983C39.2749 27.5983 40.6479 26.2288 40.6479 24.5394C40.6479 22.8501 39.2749 21.4806 37.5813 21.4806C35.8876 21.4806 34.5146 22.8501 34.5146 24.5394ZM0.78125 38.3041C0.78125 45.9062 6.95972 52.0688 14.5812 52.0688C22.2028 52.0688 28.3813 45.9062 28.3813 38.3041C28.3813 30.7021 22.2028 24.5394 14.5812 24.5394C6.95972 24.5394 0.78125 30.7021 0.78125 38.3041ZM21.7976 37.2215L21.8053 37.2292C21.9491 37.3743 22.0578 37.541 22.1316 37.7187C22.2054 37.8964 22.2467 38.0909 22.2479 38.295L22.2479 38.3041L22.2479 38.3133C22.2467 38.5173 22.2054 38.7119 22.1316 38.8896C22.0567 39.07 21.9458 39.239 21.7988 39.3856L15.6655 45.5033C15.0667 46.1005 14.0958 46.1005 13.497 45.5033C12.8982 44.906 12.8982 43.9376 13.497 43.3403L17.0128 39.8336H8.44792C7.60108 39.8336 6.91459 39.1488 6.91459 38.3041C6.91459 37.4595 7.60108 36.7747 8.44792 36.7747H17.0128L13.497 33.268C12.8982 32.6707 12.8982 31.7023 13.497 31.105C14.0958 30.5078 15.0667 30.5078 15.6655 31.105L21.7976 37.2215Z" fill="#319795"/>
</g>
<defs>
<clipPath id="clip0_2312_229731">
<rect width="46.2644" height="50.2069" fill="white" transform="matrix(-1 0 0 1 46.7812 0.0688477)"/>
</clipPath>
</defs>
</svg>
