<svg width="175" height="137" viewBox="0 0 175 137" fill="none" xmlns="http://www.w3.org/2000/svg">
<mask id="mask0_1766_218037" style="mask-type:alpha" maskUnits="userSpaceOnUse" x="0" y="0" width="175" height="137">
<rect x="0.765625" width="173.575" height="137" fill="#C4C4C4"/>
</mask>
<g mask="url(#mask0_1766_218037)">
<path d="M158.359 81.4484C158.359 114.282 127.752 140.899 89.996 140.899C52.2401 140.899 21.6328 114.282 21.6328 81.4484C21.6328 48.6149 52.2401 21.998 89.996 21.998C127.752 21.998 158.359 48.6149 158.359 81.4484Z" fill="url(#paint0_linear_1766_218037)"/>
<path d="M77.3662 118.567C73.708 122.551 25.3857 102.592 20.0037 77.9828C19.2894 74.7148 17.6843 67.3714 22.7661 62.2591C25.4293 59.5924 30.3417 57.0851 35.5663 57.6482C37.0529 57.8076 39.7887 58.3473 42.8877 60.6591C51.7633 67.2715 51.8456 79.6083 55.2352 89.7352C61.8544 109.46 79.5573 116.183 77.3662 118.567Z" fill="url(#paint1_linear_1766_218037)"/>
<path opacity="0.7" d="M63.4043 109.43C54.3803 103.527 46.7172 96.1716 40.8229 87.7566C37.3814 82.816 34.5851 77.5508 32.4872 72.0605" stroke="white" stroke-width="1.09574" stroke-miterlimit="10"/>
<path d="M68.6334 114.376C57.5656 116.764 43.3387 124.048 27.1642 116.199C25.4909 115.388 10.8102 108.039 10.2924 96.8118C10.2383 95.5892 10.1521 90.1045 14.5178 86.3939C18.2438 83.2183 24.6518 81.8017 29.9058 83.6609C40.1552 87.2733 38.4014 100.607 52.0665 110.43C56.1563 113.362 64.9856 114.211 68.6334 114.376Z" fill="url(#paint2_linear_1766_218037)"/>
<path opacity="0.7" d="M68.6335 114.099C68.6335 114.099 50.7104 118.98 37.7995 113.17C25.211 107.504 22.1562 96.7642 22.1562 96.7642" stroke="white" stroke-width="1.39552" stroke-miterlimit="10"/>
<path d="M81.3004 122.556C81.9654 119.428 82.8839 114.351 82.074 109.653C81.0449 103.683 79.1406 102.235 77.964 96.5619C70.8509 93.8618 61.3866 93.6842 53.972 97.0377C51.3655 114.529 49.9511 128.817 49.8776 131.262C49.8229 133.082 46.9767 166.875 45.3383 174.426C44.9153 176.376 57.7825 175.885 58.8864 174.604C60.3266 172.933 63.1919 143.867 64.118 136.138C65.051 132.473 66.0977 122.519 66.0977 122.519C66.0977 122.519 66.4193 125.888 67.8293 133.497C69.85 144.401 72.8551 175.715 72.8551 175.715C73.2067 175.886 81.1095 176.245 82.3913 175.119C84.2933 173.449 80.252 127.487 81.3004 122.556Z" fill="url(#paint3_linear_1766_218037)"/>
<g style="mix-blend-mode:overlay" opacity="0.6">
<path d="M50.865 120.769C50.865 120.769 53.0155 121.568 53.1168 124.233C53.218 126.898 52.4846 142.178 51.9909 148.486C51.4972 154.793 50.0397 157.188 47.5293 157.457L50.865 120.769Z" fill="white"/>
</g>
<g style="mix-blend-mode:overlay" opacity="0.6">
<path d="M67.209 130.031C68.1934 130.536 69.4127 131.34 70.1212 134.449C70.8298 137.559 74.237 153.994 73.2926 156.659C72.3482 159.324 71.1673 159.321 71.1673 159.321C71.1673 159.321 68.9526 138.098 67.209 130.031Z" fill="white"/>
</g>
<g style="mix-blend-mode:overlay" opacity="0.6">
<path d="M66.0986 122.519L62.792 110.269C62.792 110.269 60.0303 115.762 60.3293 120.025C60.6282 124.288 62.9108 127.72 64.6017 133.786L66.0986 122.519Z" fill="#030F1C"/>
</g>
<g style="mix-blend-mode:overlay" opacity="0.6">
<path d="M53.9727 97.0374L53.5254 100.088C53.5254 100.088 62.68 104.676 79.6718 102.312C79.6718 102.312 78.1985 98.445 77.9648 96.5615L53.9727 97.0374Z" fill="#030F1C"/>
</g>
<path d="M76.8591 49.6186C76.3367 45.2117 75.9452 41.0482 66.6047 40.5949C62.521 40.3967 59.964 41.7702 58.5825 43.4907L58.5815 43.4891C58.5815 43.4891 55.9466 43.1506 56.1191 50.8302C56.2343 55.9601 55.1948 57.318 52.5158 61.0691C54.0444 63.2722 57.5567 64.189 60.3983 64.5684C66.2169 65.5225 66.8127 65.7984 71.1725 65.3435C71.1725 65.3435 77.7649 65.1971 83.0494 59.7191C79.1816 57.5705 77.1816 52.3384 76.8591 49.6186Z" fill="url(#paint4_linear_1766_218037)"/>
<path d="M56.3468 66.0237C56.3468 66.0237 55.0031 66.4553 54.7543 68.1627C53.916 73.916 52.3407 78.2038 52.1693 79.963C51.9378 82.3394 52.695 83.4208 53.4933 85.1933C54.295 86.973 54.7763 91.097 53.7043 97.3515C53.6221 97.8068 53.8239 98.2659 54.2331 98.5548C58.1687 101.27 73.963 100.302 77.8173 98.0249C78.2193 97.7804 78.4094 97.3447 78.2964 96.9271C77.5895 94.1841 75.9615 88.079 77.3613 81.9907C78.6804 76.2532 78.4915 65.4936 77.6936 65.2342C76.274 64.7727 73.3801 64.1152 73.3801 64.1152C73.3801 64.1152 70.6599 67.8794 64.5187 68.2144C60.0621 68.4574 60.3162 64.8344 60.3162 64.8344L56.3468 66.0237Z" fill="url(#paint5_linear_1766_218037)"/>
<path fill-rule="evenodd" clip-rule="evenodd" d="M58.7872 65.277L61.626 64.4203C61.626 64.4203 61.2636 64.6256 60.7317 64.9746C60.5434 66.8638 59.4362 78.1084 59.4362 81.2203C59.4362 81.8788 59.6458 84.0893 59.9246 87.0309C60.4793 92.8825 61.3082 101.627 61.3074 106.801C57.7497 106.748 54.0852 105.545 52.6093 104.526C52.2001 104.237 51.9984 103.778 52.0805 103.323C52.2868 102.12 52.532 100.861 52.7809 99.5842C53.8257 94.2234 54.9349 88.5321 53.4941 85.1938C53.3583 84.8793 53.2221 84.587 53.091 84.3057C52.479 82.9927 51.9794 81.9207 52.17 79.9635C52.1871 79.7879 52.2046 79.5894 52.224 79.3681C52.2948 78.5625 52.3921 77.4558 52.5958 76.057C49.2935 76.3595 44.9779 76.6169 41.2875 76.3821C38.7785 76.2225 36.9556 74.7726 36.4727 72.5499C36.4727 72.5499 34.1703 62.3777 33.0156 57.2677C36.3712 57.9473 38.8584 56.1895 38.8584 56.1895L43.7938 68.5418L53.3363 66.9223L56.1181 66.0827C56.2003 66.0436 56.2854 66.0095 56.3728 65.9806L58.7872 65.277ZM83.6253 68.6091C86.8142 70.9465 92.7379 76.3834 95.1521 78.8487C96.242 79.9616 96.1764 82.3664 95.0794 84.6707C94.2407 86.4322 89.9629 94.4493 88.6991 96.6633C87.4844 94.7089 85.4588 94 83.5675 94.2265C83.7581 93.7467 84.1011 92.8847 84.4854 91.9188C85.3276 89.8024 86.3684 87.1867 86.4399 86.9969C87.5972 83.9273 87.9481 82.8898 87.5707 82.5462C87.2258 82.2336 84.365 80.4403 81.5763 78.6923C80.3338 77.9134 79.1056 77.1435 78.1206 76.5176C77.9984 78.3542 77.745 80.1824 77.3619 81.9912C75.9621 88.0795 79.5777 99.4649 80.5493 102.145C80.5853 102.244 80.6271 102.344 80.6694 102.445C80.9029 103.004 81.1504 103.597 80.4924 104.22C79.2428 105.403 76.238 105.656 72.6679 105.956C71.1053 106.087 69.4344 106.228 67.7549 106.459C67.8747 103.924 67.8258 96.0997 67.7839 89.382C67.7553 84.8064 67.73 80.7441 67.7633 79.2156C68.8348 69.6701 72.4121 63.8873 72.4121 63.8873C72.4121 63.8873 75.0742 64.4979 76.7905 64.9693C78.619 65.3383 80.8654 66.5861 83.6253 68.6091Z" fill="url(#paint6_linear_1766_218037)"/>
<g style="mix-blend-mode:overlay" opacity="0.6">
<path d="M53.484 71.4893C52.4184 71.9599 51.4885 72.6367 50.7642 73.4686C48.8606 75.6093 46.473 75.0712 44.7307 75.1563C42.9884 75.2412 42.3095 75.7154 41.8262 76.4127C45.4242 76.4994 49.0247 76.3659 52.6015 76.0132C52.7877 74.7428 53.0627 73.232 53.484 71.4893Z" fill="url(#paint7_linear_1766_218037)"/>
</g>
<g style="mix-blend-mode:overlay" opacity="0.6">
<path d="M51.1585 68.7058C49.8785 69.0664 46.1462 69.7791 43.7731 70.219C42.6206 70.4327 41.4816 69.8092 41.1934 68.8068L39.9716 62.1848C39.8717 61.3901 40.6657 60.7148 40.6657 60.7148L43.7931 68.5421L53.3356 66.9226C52.9684 67.5559 52.291 68.3868 51.1585 68.7058Z" fill="white"/>
</g>
<path d="M40.9291 72.1295C40.9249 72.1295 40.9207 72.1293 40.9164 72.1288C40.8909 72.1258 40.8677 72.1141 40.8521 72.0962C40.8364 72.0782 40.8295 72.0556 40.8329 72.0332C40.9235 71.4269 41.2727 70.8232 41.9004 70.1874C42.1607 69.9238 42.446 69.6748 42.7218 69.4342C42.9893 69.2007 43.2659 68.9594 43.5168 68.7069C43.5521 68.6715 43.6134 68.6678 43.6538 68.6988C43.6942 68.7297 43.6984 68.7835 43.6631 68.819C43.4076 69.076 43.1286 69.3194 42.8587 69.5549C42.5853 69.7934 42.3026 70.0402 42.0471 70.2989C41.445 70.9087 41.1108 71.4832 41.0252 72.0554C41.0189 72.0978 40.9778 72.1294 40.9291 72.1295Z" fill="#0B122D"/>
<g style="mix-blend-mode:overlay" opacity="0.6">
<path d="M52.8516 83.8174C52.8516 83.8174 54.7882 85.3848 56.7816 85.4174C58.143 85.4396 58.4328 86.0872 57.0289 86.3521C56.3772 86.4751 55.1667 86.376 53.8789 86.3456C53.6193 85.4786 53.2756 84.6328 52.8516 83.8174H52.8516Z" fill="url(#paint8_linear_1766_218037)"/>
</g>
<g style="mix-blend-mode:overlay" opacity="0.6">
<path d="M77.0451 84.9209C76.984 82.3629 77.8913 81.1702 78.0668 76.4847C77.1098 75.8762 76.3901 75.408 76.1246 75.2083C76.0835 75.1774 76.0452 75.147 76.0047 75.1162C76.1208 77.2866 76.1397 80.2667 75.5513 81.9917C74.8681 83.995 72.1514 85.0173 70.313 85.2942C67.5041 85.7174 67.8738 86.7304 71.7732 86.649C74.1754 86.5989 74.9605 90.7596 74.944 93.2615C74.8982 100.204 68.8947 104.217 67.7539 106.46C72.8803 105.65 78.3264 106.166 80.4913 104.221C80.4913 104.221 81.3451 103.734 80.5483 102.145C80.1516 101.354 77.2454 93.3073 77.0451 84.9209Z" fill="url(#paint9_linear_1766_218037)"/>
</g>
<path d="M52.0619 80.4813C52.0026 80.4812 51.9532 80.4412 51.9484 80.3893C51.8853 79.7194 52.8096 74.2048 52.8489 73.9704C52.8581 73.9156 52.9162 73.8778 52.9786 73.8859C53.041 73.894 53.0842 73.9449 53.0749 73.9997C53.0651 74.0569 52.1149 79.7256 52.1758 80.3729C52.1784 80.3994 52.1688 80.4256 52.1492 80.4459C52.1296 80.4662 52.1016 80.4788 52.0715 80.4809C52.0683 80.4811 52.0652 80.4813 52.0619 80.4813Z" fill="#0B122D"/>
<path d="M76.7014 75.6371C76.6865 75.6371 76.6718 75.6341 76.6585 75.6283C73.627 74.3208 72.9915 70.6828 72.9854 70.6462C72.9777 70.5997 73.0144 70.5564 73.0674 70.5496C73.1203 70.5434 73.1692 70.5754 73.1775 70.6216C73.1834 70.6574 73.8052 74.2078 76.7442 75.4756C76.7846 75.4931 76.806 75.5328 76.7958 75.5713C76.7855 75.6098 76.7464 75.6371 76.7014 75.6371V75.6371Z" fill="#0B122D"/>
<g style="mix-blend-mode:overlay" opacity="0.6">
<path d="M89.3268 83.0204C89.194 84.5016 88.6855 85.9379 87.8387 87.2244C87.6812 87.4599 86.8439 88.0711 86.1075 87.8775C87.528 84.1205 88.0208 82.8855 87.5707 82.547C86.3357 81.6183 81.7292 78.7889 79.9258 77.6577C80.374 77.392 81.2776 77.0665 82.1916 77.4667C83.6955 78.1275 89.5228 81.1862 89.3268 83.0204Z" fill="white"/>
</g>
<path d="M90.0576 84.2043C90.0093 84.2043 89.9684 84.173 89.9617 84.131C89.9526 84.075 89.719 82.7561 87.9473 82.6741C87.8939 82.6716 87.8528 82.6315 87.8556 82.5846C87.8566 82.5619 87.868 82.5406 87.8872 82.5255C87.9064 82.5103 87.9318 82.5026 87.9576 82.5041C89.0334 82.5063 89.9555 83.1795 90.1539 84.1075C90.1612 84.1541 90.1242 84.197 90.0713 84.2035C90.0667 84.204 90.0622 84.2043 90.0576 84.2043Z" fill="#0B122D"/>
<path fill-rule="evenodd" clip-rule="evenodd" d="M38.2291 49.139L38.2291 49.139C37.8811 49.4749 37.621 49.726 37.2699 49.4619C37.2056 49.4136 37.1023 49.2461 37.0482 48.7917C37.0485 48.5856 37.05 45.2862 36.8801 44.9958C36.7047 44.6958 36.1499 44.5051 35.9468 45.0196C35.8014 45.3878 35.8201 47.209 35.8425 48.2151C35.7797 48.2314 35.7154 48.2484 35.6496 48.2662C35.4421 47.0924 34.9533 44.4085 34.7854 44.191C34.5699 43.9119 33.9929 43.7818 33.8622 44.314C33.7573 44.7413 34.2126 47.548 34.3961 48.6376C34.3432 48.6545 34.2904 48.6716 34.2377 48.6889C33.8804 47.4107 33.2796 45.3261 33.1132 45.1455C32.8718 44.8833 32.2843 44.796 32.205 45.3359C32.1495 45.7139 32.6912 47.8629 33.0212 49.1183C32.9254 49.1553 32.832 49.1922 32.7437 49.2285C32.257 48.1259 31.4802 46.4049 31.3123 46.2641C31.0638 46.0557 30.5311 46.0374 30.5313 46.5245C30.5314 46.8681 31.3042 48.7456 31.7599 49.8228C31.7849 50.0199 31.7938 50.2695 31.8037 50.5492C31.8346 51.422 31.876 52.5878 32.4521 53.3665C33.1885 54.3619 33.4054 56.3164 33.4054 56.3164L33.6456 57.3686C35.2072 57.5405 36.7903 57.2658 38.1599 56.5853L37.1294 53.4013C37.0988 53.212 37.1001 53.0197 37.1334 52.8307C37.4034 52.2627 37.7324 51.7177 38.1164 51.2026C38.5522 50.5995 39.4526 49.9465 40.0809 49.4909C40.4538 49.2205 40.7308 49.0196 40.758 48.9399C40.831 48.7258 39.7186 48.1067 38.9318 48.5682C38.6485 48.7343 38.4249 48.9501 38.2291 49.139ZM62.2338 64.2065L61.3557 64.5017L61.6257 64.4202C61.6257 64.4202 61.2633 64.6254 60.7314 64.9745C60.6346 65.9461 60.2947 69.3923 59.9874 72.934C62.0802 73.3846 65.9864 73.1039 69.0424 72.4152C70.4907 66.9972 72.412 63.8872 72.412 63.8872L71.5337 63.5902L62.2338 64.2065ZM84.1944 94.1881C85.8277 94.1787 87.3585 94.8859 88.2741 96.073L86.9001 98.5619C86.9011 98.5634 86.9022 98.5649 86.9032 98.5663C86.9043 98.5678 86.9053 98.5693 86.9064 98.5709C86.8468 98.6773 86.7814 98.7881 86.7131 98.9008L86.7109 98.9047L86.7108 98.9046C86.56 99.1528 86.389 99.4133 86.1922 99.6794C85.5697 100.521 84.8046 101.479 82.5293 103.351C80.254 105.223 79.3139 105.836 78.6759 105.614C78.4198 105.525 78.3929 105.373 78.367 105.226C78.3498 105.128 78.333 105.033 78.2493 104.96C78.1563 104.879 77.98 104.903 77.7494 104.934C77.4607 104.973 77.0868 105.023 76.6843 104.894C76.2565 104.757 76.3242 104.547 76.388 104.35C76.4239 104.238 76.4586 104.131 76.4021 104.043C76.345 103.953 76.2263 103.954 76.0756 103.954C75.8136 103.954 75.4545 103.955 75.1526 103.486C75.0433 103.316 75.0779 103.201 75.1175 103.068C75.1727 102.884 75.2376 102.668 74.9365 102.227C74.5092 101.602 77.1914 100.178 78.3784 99.5475C78.6285 99.4147 78.8123 99.3172 78.8865 99.2698C79.3041 99.0033 79.0808 97.6585 79.0808 97.6585C79.0808 97.6585 81.1585 97.5922 82.159 97.3203C82.6119 97.1925 82.9834 96.9046 83.184 96.526L83.2266 96.4171L83.2307 96.4179L84.1944 94.1881Z" fill="#F2AC7D"/>
<path d="M78.4216 100.995C78.4088 100.975 78.3876 100.961 78.3627 100.955C78.3379 100.949 78.3114 100.952 78.2891 100.964L75.0954 102.581C75.0574 102.6 75.0388 102.639 75.0502 102.677C75.0616 102.714 75.1001 102.74 75.144 102.74C75.161 102.74 75.1777 102.736 75.1924 102.728L78.3861 101.111C78.4084 101.1 78.4247 101.081 78.4314 101.059C78.438 101.038 78.4345 101.014 78.4216 100.995Z" fill="#0B122D"/>
<path d="M80.0093 102.215C79.9965 102.196 79.9753 102.182 79.9504 102.176C79.9255 102.17 79.899 102.173 79.8767 102.184L76.3532 103.968C76.3152 103.988 76.2966 104.027 76.308 104.064C76.3194 104.102 76.3579 104.127 76.4018 104.127C76.4188 104.127 76.4356 104.123 76.4502 104.116L79.9738 102.332C79.9961 102.321 80.0124 102.302 80.019 102.28C80.0257 102.258 80.0222 102.235 80.0093 102.215Z" fill="#0B122D"/>
<path d="M80.5486 103.627C80.5345 103.608 80.5123 103.595 80.4871 103.591C80.4618 103.586 80.4356 103.591 80.4141 103.603L78.1959 104.889C78.1602 104.909 78.1441 104.948 78.1565 104.984C78.1688 105.02 78.2066 105.045 78.2495 105.045C78.2684 105.045 78.287 105.04 78.3028 105.031L80.521 103.745C80.5657 103.719 80.5781 103.666 80.5486 103.627Z" fill="#0B122D"/>
<path d="M33.0145 51.854C32.9758 51.854 32.9401 51.8358 32.9208 51.8064C32.9014 51.777 32.9014 51.7408 32.9207 51.7114C34.5725 49.1955 36.7435 49.2298 36.8353 49.2306C36.895 49.2323 36.9419 49.2762 36.9401 49.3286C36.9344 49.3794 36.8868 49.4188 36.8286 49.4208C36.8044 49.4192 34.6917 49.3951 33.1084 51.8065C33.0891 51.8359 33.0532 51.8541 33.0145 51.854Z" fill="#0B122D"/>
<path d="M59.6106 56.0713C59.8819 58.1967 61.3068 59.6453 61.9854 60.1039C62.432 61.7795 62.075 63.5676 61.019 64.9431L60.998 64.9705L66.4441 72.6288L72.0207 63.7335C71.2733 62.9895 70.7991 62.0149 70.675 60.9677L70.612 60.436C72.3179 59.7528 73.1644 56.9252 73.3744 55.5968C78.2208 55.8815 76.5197 49.044 75.3129 49.3343C73.0131 49.8877 74.0803 52.7054 72.3339 50.1022C69.434 45.7796 65.585 45.445 61.7237 47.6871C60.2098 48.5661 59.5784 51.0897 59.2715 51.8014C59.2715 50.9949 56.2666 47.2469 56.0243 51.8963C55.8305 55.6158 58.3344 56.2294 59.6106 56.0713Z" fill="#F2AC7D"/>
<path d="M68.2348 57.7127C68.2223 57.6427 68.181 57.5786 68.1198 57.5344C68.0587 57.4902 67.9829 57.4697 67.9092 57.4774C67.5412 57.5124 66.8612 57.5735 66.3333 57.6003C65.7704 57.6026 65.2054 57.5696 64.6423 57.5015C64.5447 57.4909 64.4515 57.528 64.3956 57.5997C64.3397 57.6714 64.329 57.7676 64.3673 57.8542C64.6605 58.52 65.3744 59.7653 66.5666 59.6128C68.0165 59.4273 68.3583 58.488 68.2348 57.7127Z" fill="#161B36"/>
<path d="M68.0612 58.7357C68.0612 58.7357 66.1962 57.659 64.7709 58.6246C64.7709 58.6246 65.3523 59.8057 66.5129 59.6717C67.7625 59.5274 68.0612 58.7357 68.0612 58.7357Z" fill="#E55151"/>
<path d="M64.0299 50.027C63.8666 49.8587 63.6421 49.7278 62.9685 49.7652C62.2949 49.8026 61.2743 50.3822 61.4988 50.5318C61.7234 50.6814 62.3969 50.1766 62.9277 50.3448C63.4584 50.5131 63.7631 50.6515 63.9415 50.5599C64.166 50.4446 64.1084 50.1079 64.0299 50.027Z" fill="#161B36"/>
<path d="M62.1328 52.9611C62.4674 52.6486 63.3772 52.1773 64.3396 52.7917" stroke="url(#paint10_linear_1766_218037)" stroke-linecap="round"/>
<path d="M68.2578 52.9611C68.5924 52.6486 69.5022 52.1773 70.4646 52.7917" stroke="url(#paint11_linear_1766_218037)" stroke-linecap="round"/>
<path d="M68.7302 49.7957C68.944 49.6848 69.2027 49.6273 69.827 49.8619C70.4513 50.0965 71.213 50.947 70.9477 51.0221C70.6825 51.0973 70.2229 50.4203 69.6613 50.4226C69.0997 50.4249 68.7626 50.4658 68.626 50.3263C68.4542 50.1507 68.6274 49.8491 68.7302 49.7957Z" fill="#161B36"/>
<g style="mix-blend-mode:overlay" opacity="0.6">
<path d="M66.3998 55.9386C66.6367 55.9465 66.8717 55.8966 67.0805 55.7938C67.2175 55.7237 67.313 55.6009 67.3405 55.4594C67.3914 55.1662 67.0641 54.7124 66.6637 54.1931C66.562 54.0691 66.4688 53.9395 66.3846 53.8049C66.3032 53.6451 66.3265 52.1888 66.396 50.8732L66.1507 50.8623C66.1266 51.3186 66.0139 53.6091 66.1621 53.9C66.2515 54.0473 66.3521 54.1886 66.4632 54.3229C66.7154 54.6499 67.1374 55.1974 67.0981 55.4241C67.0816 55.5007 67.0279 55.5664 66.952 55.6022C66.5995 55.741 66.2027 55.7523 65.8414 55.6338L65.7663 55.848C65.9712 55.9077 66.1848 55.9382 66.3998 55.9386Z" fill="#030F1C"/>
</g>
<path d="M67.3864 47.4128C62.582 46.4726 61.8741 47.1354 61.4492 47.1354C67.0581 42.8841 73.7602 48.6807 74.0152 49.1282C74.2701 49.5757 73.4323 50.727 73.3473 51.5474C73.2623 52.3679 72.8314 53.6212 72.0344 51.3381C71.2401 49.063 70.9654 48.1132 67.3864 47.4128Z" fill="url(#paint12_linear_1766_218037)"/>
<g style="mix-blend-mode:overlay" opacity="0.6">
<path d="M61.9688 59.9863C63.2527 61.0461 66.7396 62.5996 70.415 60.3355C69.2046 62.6205 65.8207 65.7495 61.9688 59.9863Z" fill="#030F1C"/>
</g>
<path d="M75.5639 51.2157C74.9686 51.218 74.6196 51.7984 74.4177 52.3966L74.4171 52.3982C74.2819 52.8198 74.1939 53.252 74.1547 53.6886C74.1519 53.7252 74.1715 53.7604 74.2062 53.7808C74.2409 53.8012 74.2854 53.8039 74.323 53.7877C74.3605 53.7716 74.3853 53.7391 74.3881 53.7024C74.4236 53.2924 74.5046 52.8864 74.6298 52.4901C74.8447 52.3863 75.0948 52.3532 75.335 52.3967C75.5838 52.4665 75.7874 52.6254 75.8954 52.8341C75.9226 52.8782 75.9821 52.8987 76.0362 52.8825C76.0423 52.8807 76.0482 52.8784 76.0539 52.8757C76.0812 52.8628 76.1015 52.8409 76.1104 52.8148C76.1193 52.7887 76.116 52.7606 76.1013 52.7366C75.9635 52.4766 75.7057 52.2805 75.3928 52.1978C75.1714 52.1515 74.9394 52.1634 74.7256 52.232C74.911 51.7836 75.1813 51.4218 75.5648 51.4211C75.6067 51.4211 75.6454 51.4014 75.6663 51.3695C75.6871 51.3376 75.6869 51.2983 75.6658 51.2666C75.6447 51.2348 75.6058 51.2154 75.5639 51.2157Z" fill="#0B122D"/>
<path d="M57.4302 51.534C58.0255 51.5363 58.3745 52.1167 58.5765 52.715L58.577 52.7166C58.7123 53.1382 58.8002 53.5704 58.8395 54.007C58.8423 54.0436 58.8226 54.0787 58.7879 54.0992C58.7532 54.1196 58.7087 54.1223 58.6712 54.1061C58.6337 54.0899 58.6088 54.0574 58.606 54.0208C58.5705 53.6108 58.4896 53.2047 58.3643 52.8085C58.1494 52.7047 57.8994 52.6716 57.6592 52.7151C57.4104 52.7849 57.2068 52.9437 57.0987 53.1524C57.0716 53.1966 57.012 53.2171 56.9579 53.2009C56.9518 53.1991 56.9459 53.1968 56.9403 53.1941C56.913 53.1811 56.8926 53.1592 56.8837 53.1332C56.8749 53.1071 56.8781 53.079 56.8929 53.055C57.0306 52.7949 57.2884 52.5989 57.6013 52.5162C57.8227 52.4698 58.0548 52.4817 58.2685 52.5504C58.0832 52.1019 57.8129 51.7402 57.4294 51.7394C57.3875 51.7394 57.3488 51.7198 57.3279 51.6879C57.307 51.656 57.3072 51.6167 57.3283 51.5849C57.3495 51.5532 57.3883 51.5338 57.4302 51.534L57.4302 51.534Z" fill="#0B122D"/>
<path d="M149.932 126.812C147.94 125.864 145.68 128.164 145.571 128.284C145.74 127.995 153.783 114.261 152.009 108.994C150.786 105.391 146.435 103.652 142.792 105.748L137.098 127.865C138.715 130.976 139.72 134.305 140.071 137.711H146.55C148.966 134.501 153.065 128.305 149.932 126.812Z" fill="url(#paint13_linear_1766_218037)"/>
<path d="M140.071 137.71H119.366C118.331 132.818 118.5 126.683 118.205 123.994C117.85 120.765 113.13 118.09 115.243 112.824C117.356 107.558 117.394 103.911 115.81 99.8244C114.857 97.3629 115.856 95.3851 116.801 94.2022C117.117 93.8086 117.586 93.5296 118.119 93.4176H118.129C118.667 93.3072 119.232 93.376 119.715 93.6107C121.156 94.3066 123.049 95.6982 123.429 98.2745C123.758 100.501 124.42 102.449 125.628 104.363C126.734 106.116 128.295 107.842 130.474 109.712C133.923 112.68 133.076 118.768 133.062 118.904C132.664 122.512 139.08 127.621 140.071 137.71Z" fill="url(#paint14_linear_1766_218037)"/>
<path d="M139.034 86.2682C136.821 85.8271 134.499 86.177 132.581 87.2406C130.662 88.3042 129.305 89.9942 128.808 91.9374L125.613 104.367C126.719 106.12 128.281 107.846 130.459 109.716C133.908 112.683 133.062 118.772 133.048 118.907C132.816 121.085 135.068 123.818 137.105 127.864L142.792 105.748L145.494 95.2408C146.532 91.1978 143.64 87.1811 139.034 86.2682Z" fill="url(#paint15_linear_1766_218037)"/>
<g style="mix-blend-mode:overlay" opacity="0.6">
<path d="M132.611 109.449L132.016 111.737C132.246 112.187 132.437 112.653 132.587 113.129L134.768 104.605C134.844 104.621 134.925 104.609 134.992 104.572L139.594 102.02C139.732 101.942 139.773 101.781 139.685 101.66L139.519 101.43C139.477 101.371 139.41 101.33 139.333 101.315C139.256 101.299 139.175 101.311 139.108 101.348L135.023 103.61L138.288 90.9528C138.306 90.8854 138.292 90.8146 138.25 90.7561C138.208 90.6976 138.141 90.6563 138.064 90.6414L137.761 90.5805C137.6 90.5492 137.44 90.6378 137.404 90.7788L135.459 98.3441L133.081 95.039C132.995 94.9178 132.814 94.8798 132.675 94.9537L132.413 95.0999C132.346 95.1367 132.299 95.1954 132.281 95.263C132.264 95.3305 132.278 95.4014 132.32 95.46L135.186 99.44L132.893 108.348L130.514 105.043C130.472 104.985 130.406 104.943 130.329 104.928C130.253 104.912 130.172 104.924 130.106 104.961L129.842 105.107C129.775 105.144 129.728 105.203 129.711 105.271C129.693 105.338 129.707 105.409 129.749 105.468L132.611 109.449Z" fill="#030F1C"/>
</g>
<g style="mix-blend-mode:overlay" opacity="0.6">
<path d="M146.343 109.258C146.249 109.234 146.148 109.244 146.063 109.285C145.977 109.326 145.913 109.395 145.885 109.477L139.079 129.823C138.648 129.697 138.229 129.542 137.824 129.361C137.951 129.642 138.074 129.928 138.195 130.23C138.413 130.312 138.637 130.387 138.871 130.455L138.597 131.271C138.732 131.641 138.863 132.019 138.994 132.406L146.611 109.669C146.641 109.583 146.629 109.49 146.579 109.413C146.528 109.335 146.443 109.279 146.343 109.258Z" fill="#030F1C"/>
</g>
<g style="mix-blend-mode:overlay" opacity="0.6">
<path d="M133.902 128.875C133.905 128.702 133.753 128.558 133.557 128.548C133.361 128.538 133.19 128.665 133.17 128.836C133.17 128.885 132.804 133.543 129.487 134.867L125.48 119.745C128.045 118.025 127.327 114.454 127.293 114.297C127.245 114.133 127.061 114.03 126.872 114.061C126.682 114.091 126.552 114.246 126.574 114.414C126.574 114.447 127.19 117.475 125.291 119.041L121.942 106.4C121.903 106.26 121.745 106.173 121.585 106.205L121.45 106.233C121.373 106.248 121.306 106.29 121.265 106.348C121.223 106.407 121.21 106.478 121.228 106.546L122.271 110.484C121.159 109.628 120.707 108.026 120.701 108.007C120.678 107.888 120.582 107.791 120.452 107.754C120.321 107.717 120.178 107.747 120.081 107.832C119.984 107.917 119.949 108.042 119.989 108.156C120.017 108.259 120.681 110.606 122.513 111.397L124.582 119.199L124.764 119.885L126.421 126.147C123.157 125.856 120.897 122.842 120.871 122.807C120.759 122.665 120.538 122.626 120.372 122.72C120.206 122.814 120.154 123.006 120.255 123.155C120.36 123.299 122.832 126.615 126.598 126.808L128.722 134.82V134.846L128.82 135.213L129.018 135.927L129.495 137.722H130.241L129.646 135.516C133.503 134.093 133.888 129.092 133.902 128.875Z" fill="#030F1C"/>
</g>
<path d="M92.0219 41.1505C91.7187 47.5389 93.6084 49.8497 97.0107 52.149C101.556 53.7135 104.561 53.3115 106.493 52.0468C111.179 48.9811 110.958 39.7076 111.123 37.2938C111.255 35.3627 109.531 34.377 108.653 34.1256C109.476 29.147 105.029 27.3366 101.406 28.5435C97.7827 29.7504 98.7205 31.0494 96.5147 32.3628C94.3089 33.6762 92.4009 33.1649 92.0219 41.1505Z" fill="url(#paint16_linear_1766_218037)"/>
<path d="M123.231 37.6642C122.535 37.1773 121.787 36.7522 120.997 36.3942C119.548 35.7133 116.665 35.5974 116.435 35.3966C116.206 35.1958 117.055 33.8187 118.268 33.8729C119.482 33.927 120.432 34.6967 120.777 33.8949C120.818 33.8008 120.821 33.5473 120.573 32.9952C120.432 32.759 118.18 28.9886 118.176 28.5542C118.171 28.1058 118.675 27.5541 119.258 28.02C119.675 28.3534 120.897 30.4469 121.557 31.6106C121.64 31.5915 121.725 31.5723 121.813 31.553C121.249 30.0862 119.976 26.7237 120.02 26.3739C120.076 25.9252 120.646 25.4292 121.159 25.9591C121.57 26.3846 122.965 29.8674 123.498 31.2235C123.57 31.211 123.642 31.1988 123.714 31.1869C123.251 29.5105 122.515 26.7659 122.582 26.4591C122.679 26.0141 123.29 25.5609 123.749 26.1305C124.071 26.5293 124.918 29.3121 125.397 30.9459C125.532 30.9306 125.664 30.9165 125.789 30.9048C125.593 29.3515 125.307 26.9165 125.403 26.6545C125.544 26.2667 126.141 25.9253 126.473 26.4824C126.707 26.8753 127.105 29.4868 127.319 30.9926C127.755 31.9834 129.113 33.8272 128.945 35.4605C128.859 36.3041 129.128 37.3682 129.397 38.1798L131.377 43.9942L125.066 45.4409L123.899 38.9329C123.652 38.3437 123.394 37.8007 123.231 37.6642Z" fill="#F2AC7D"/>
<path d="M127.298 34.0127C127.314 33.9638 127.293 33.9128 127.247 33.8882C123.579 31.9399 121.079 33.328 120.974 33.3881C120.916 33.4215 120.896 33.4907 120.929 33.5426C120.961 33.5945 121.035 33.6095 121.094 33.5762C121.118 33.5622 123.579 32.2043 127.117 34.0837C127.173 34.1137 127.248 34.0943 127.284 34.0404C127.29 34.0317 127.295 34.0224 127.298 34.0127Z" fill="#0B122D"/>
<g style="mix-blend-mode:overlay" opacity="0.6">
<path d="M132.495 44.135L125.123 45.4575C124.681 45.5369 128.746 43.3786 130.948 43.7953C132.374 44.0651 132.485 42.9776 132.23 42.4278C131.872 41.6568 130.217 41.0157 130.217 41.0157C130.215 41.0068 131.309 40.8336 131.307 40.8248L131.388 40.8103C131.841 40.729 132.692 41.3972 132.785 41.7947L133.148 43.2682C133.192 43.459 133.148 43.6576 133.026 43.8202C132.904 43.9827 132.713 44.096 132.495 44.135Z" fill="#030F1C"/>
</g>
<path d="M97.0772 52.1498V57.699L101.536 63.8697L105.849 57.7877L105.704 52.4605C107.41 51.8212 108.256 49.1753 108.466 47.9323C113.313 48.1987 111.519 41.584 110.405 42.0723C109.29 42.5607 109.581 45.1799 108.805 44.4252C108.03 43.6705 107.739 39.6307 107.982 38.5653C108.224 37.4998 107.788 36.7451 106.528 37.4554C105.268 38.1657 102.408 39.8527 98.9188 38.9204C95.4295 37.9881 95.2841 38.4765 95.2841 40.4298C95.2841 41.9925 94.6702 43.7149 94.3633 44.3808C94.3633 43.6261 91.3584 40.119 91.1161 44.4696C90.9223 47.9501 93.4262 48.5243 94.7023 48.3763C94.9737 50.3651 96.3986 51.7206 97.0772 52.1498Z" fill="#F2AC7D"/>
<path d="M117.944 102.72C117.944 102.72 120.705 133.22 120.548 138.28C120.392 143.34 119.923 174.523 119.923 174.523C119.923 174.523 116.17 176.301 112.261 174.523C112.261 174.523 109.915 155.239 108.821 149.495C107.726 143.751 108.039 135.955 108.039 135.955L102.41 123.783L92.6884 174.92C92.6884 174.92 87.7116 176.028 85.3662 174.66C85.3662 174.66 85.8353 164.95 85.3662 155.376C84.8971 145.802 85.8353 138.827 87.2425 135.134C87.2425 135.134 84.1175 115.576 84.7429 102.72H117.944Z" fill="url(#paint17_linear_1766_218037)"/>
<g style="mix-blend-mode:overlay" opacity="0.6">
<path d="M84.8335 111.03C84.8405 111.03 84.8475 111.03 84.8544 111.029C92.1266 109.897 90.9325 102.846 90.9196 102.775C90.9092 102.719 90.8491 102.681 90.7851 102.69C90.7211 102.699 90.6774 102.751 90.6873 102.807C90.6999 102.876 91.8571 109.73 84.813 110.826C84.7531 110.836 84.7113 110.884 84.7166 110.937C84.7219 110.99 84.7726 111.03 84.8335 111.03Z" fill="#030F1C"/>
</g>
<g style="mix-blend-mode:overlay" opacity="0.6">
<path d="M118.63 109.593C118.685 109.593 118.732 109.561 118.745 109.515C118.758 109.469 118.733 109.421 118.685 109.399C118.634 109.376 113.602 107.024 113.868 102.797C113.869 102.77 113.859 102.743 113.838 102.723C113.817 102.702 113.788 102.69 113.757 102.689C113.726 102.687 113.695 102.696 113.671 102.714C113.648 102.733 113.634 102.758 113.633 102.786C113.358 107.146 118.524 109.558 118.576 109.582C118.593 109.589 118.612 109.593 118.63 109.593Z" fill="#030F1C"/>
</g>
<g style="mix-blend-mode:overlay" opacity="0.6">
<path d="M117.945 102.72L118.094 104.771C105.023 109.302 84.6782 106.14 84.6782 106.14L84.7436 102.72H117.945Z" fill="#030F1C"/>
</g>
<g style="mix-blend-mode:overlay" opacity="0.6">
<path d="M102.411 123.783L105.541 113.594C105.541 113.594 107.18 119.112 106.477 125.082C105.773 131.052 106.477 132.574 106.477 132.574L102.411 123.783Z" fill="#030F1C"/>
</g>
<g style="mix-blend-mode:overlay" opacity="0.6">
<path d="M118.573 110.168C118.573 110.168 117.19 109.627 116.643 111.542C116.095 113.457 116.744 122.894 117.369 128.228C117.995 133.562 118.748 141.699 118.867 145.939C118.986 150.179 120.299 151.002 120.299 151.002C120.299 151.002 120.705 138.937 120.473 135.815C120.242 132.692 119.64 120.255 118.573 110.168Z" fill="url(#paint18_linear_1766_218037)"/>
</g>
<g style="mix-blend-mode:overlay" opacity="0.6">
<path d="M101.498 128.711C101.498 128.711 97.0479 133.239 96.0154 139.316C94.9828 145.392 94.1228 157.451 93.6016 160.551C93.0804 163.651 91.8494 167.081 94.1279 167.349L101.498 128.711Z" fill="url(#paint19_linear_1766_218037)"/>
</g>
<g style="mix-blend-mode:overlay" opacity="0.6">
<path d="M108.004 137.743C108.008 137.743 108.012 137.743 108.016 137.743C108.047 137.74 108.075 137.727 108.095 137.706C108.115 137.685 108.124 137.658 108.121 137.631C108.117 137.597 107.763 134.265 109.288 132.041C109.321 131.993 109.303 131.93 109.248 131.9C109.192 131.871 109.12 131.887 109.086 131.936C107.521 134.218 107.883 137.617 107.887 137.651C107.893 137.703 107.944 137.743 108.004 137.743Z" fill="#030F1C"/>
</g>
<path d="M111.167 57.7905C111.167 57.7905 113.512 57.7113 115.959 57.5285C119.128 57.3164 121.512 56.8463 124.181 56.5446C128.589 56.0457 127.697 53.9798 127.609 53.4361C127.196 51.6755 125.44 45.8476 125.157 45.45C123.257 45.9328 123.041 45.9619 122.911 45.3813L122.147 43.1794C121.959 42.651 122.297 42.4115 122.715 42.3571L131.059 40.5623C132.068 40.2941 132.093 40.7727 132.364 41.4212L133.108 43.3626C133.302 43.7205 133.314 43.9538 131.907 44.1808C132.371 45.367 139.334 60.3876 136.95 62.1196C134.175 64.0495 118.797 68.1193 118.797 68.1193C118.797 68.1193 115.068 71.7135 111.167 57.7905Z" fill="url(#paint20_linear_1766_218037)"/>
<path fill-rule="evenodd" clip-rule="evenodd" d="M76.7232 74.5038C75.8829 76.3985 74.9357 78.5344 73.846 80.9453C71.9016 85.2471 75.1627 89.4706 81.8406 88.8891C83.2943 88.7625 84.7291 88.6246 86.2093 88.4591C86.3286 90.6791 86.3173 92.8754 85.1636 96.723C84.5168 99.0225 84.1681 101.379 84.1242 103.747C84.1242 103.747 111.61 107.806 117.228 103.747C118.394 102.905 117.822 100.886 117.303 99.0508C117.046 98.1453 116.802 97.2844 116.786 96.6318C116.741 94.7944 116.644 93.0474 116.553 91.3937C116.493 90.3182 116.436 89.2821 116.396 88.2862C116.427 84.7963 116.26 80.3654 116.775 78.3323C117.33 74.1076 118.829 67.9593 117.529 65.9559C116.296 64.2432 115.53 58.6611 115.528 58.6596C114.281 57.2001 108.446 58.0006 108.446 58.0006L101.427 62.5554L96.8248 57.2593C96.8248 57.2593 92.3239 58.1497 89.634 58.7625C83.1591 59.9915 82.2807 61.9722 76.7232 74.5038ZM85.8019 79.939L85.8156 80.2498L85.3651 80.2684C85.5145 80.0008 85.6455 79.7661 85.7836 79.5217C85.7897 79.6616 85.7958 79.8007 85.8019 79.939Z" fill="url(#paint21_linear_1766_218037)"/>
<path d="M110.806 43.5243C110.211 43.5266 109.862 44.107 109.66 44.7052L109.659 44.7068C109.524 45.1284 109.436 45.5606 109.397 45.9972C109.394 46.0338 109.414 46.069 109.448 46.0894C109.483 46.1098 109.528 46.1125 109.565 46.0963C109.603 46.0802 109.628 46.0476 109.63 46.011C109.666 45.601 109.747 45.1949 109.872 44.7987C110.087 44.6949 110.337 44.6618 110.577 44.7053C110.826 44.7751 111.03 44.934 111.138 45.1427C111.165 45.1868 111.224 45.2073 111.278 45.1911C111.285 45.1893 111.29 45.187 111.296 45.1843C111.323 45.1714 111.344 45.1495 111.353 45.1234C111.361 45.0973 111.358 45.0692 111.343 45.0452C111.206 44.7851 110.948 44.5891 110.635 44.5064C110.414 44.4601 110.182 44.4719 109.968 44.5406C110.153 44.0922 110.423 43.7304 110.807 43.7297C110.849 43.7297 110.888 43.71 110.908 43.6781C110.929 43.6462 110.929 43.6069 110.908 43.5752C110.887 43.5434 110.848 43.524 110.806 43.5243Z" fill="#0B122D"/>
<path d="M92.5494 43.5243C93.1447 43.5266 93.4937 44.107 93.6956 44.7052L93.6962 44.7068C93.8314 45.1284 93.9193 45.5606 93.9586 45.9972C93.9614 46.0338 93.9418 46.069 93.9071 46.0894C93.8723 46.1098 93.8279 46.1125 93.7903 46.0963C93.7528 46.0802 93.7279 46.0476 93.7251 46.011C93.6897 45.601 93.6087 45.1949 93.4834 44.7987C93.2685 44.6949 93.0185 44.6618 92.7783 44.7053C92.5295 44.7751 92.3259 44.934 92.2179 45.1427C92.1907 45.1868 92.1312 45.2073 92.077 45.1911C92.0709 45.1893 92.0651 45.187 92.0594 45.1843C92.0321 45.1714 92.0118 45.1495 92.0029 45.1234C91.994 45.0973 91.9973 45.0692 92.012 45.0452C92.1497 44.7851 92.4075 44.5891 92.7205 44.5064C92.9418 44.4601 93.1739 44.4719 93.3876 44.5406C93.2023 44.0922 92.932 43.7304 92.5485 43.7297C92.5066 43.7297 92.4679 43.71 92.447 43.6781C92.4262 43.6462 92.4263 43.6069 92.4475 43.5752C92.4686 43.5434 92.5075 43.524 92.5494 43.5243L92.5494 43.5243Z" fill="#0B122D"/>
<g style="mix-blend-mode:overlay" opacity="0.6">
<path d="M129.959 54.9108C129.996 54.4288 129.023 51.5926 128.407 49.1471C128.065 47.7887 126.548 47.1018 125.829 47.2852L126.848 50.6977L127.767 54.0619C127.775 54.2749 127.767 54.7724 127.476 55.1943C127.299 55.372 127.185 55.5385 126.932 55.7161C125.877 56.5609 122.928 56.6079 118.215 57.3127C117.985 58.91 121.117 58.5091 122.875 58.2635C124.954 57.9731 127.032 57.4418 128.072 57.2129C128.527 57.202 129.821 56.6966 129.959 54.9108Z" fill="white"/>
</g>
<path d="M117.209 75.4244C117.267 75.4244 117.316 75.3871 117.324 75.3369C118.106 70.7818 117.735 67.4871 117.731 67.4543C117.724 67.398 117.667 67.3571 117.603 67.3628C117.538 67.3686 117.492 67.4189 117.498 67.4752C117.502 67.5078 117.869 70.7788 117.093 75.3063C117.088 75.3333 117.096 75.3607 117.114 75.3827C117.133 75.4046 117.16 75.4192 117.191 75.4232C117.197 75.424 117.203 75.4244 117.209 75.4244Z" fill="#0B122D"/>
<path d="M115.962 104.414C115.982 104.414 116.002 104.409 116.02 104.4C118.677 103.547 117.835 101.294 117.864 101.2C117.875 101.165 117.864 101.127 117.834 101.101C117.805 101.075 117.762 101.064 117.721 101.074C117.681 101.083 117.649 101.111 117.638 101.146C117.631 101.168 118.475 103.412 115.903 104.222C115.857 104.245 115.835 104.292 115.848 104.337C115.862 104.382 115.909 104.414 115.962 104.414Z" fill="#0B122D"/>
<g style="mix-blend-mode:overlay" opacity="0.6">
<path d="M88.0538 75.635C88.1383 75.4931 88.2226 75.3492 88.3094 75.2051C88.3937 75.0632 88.4805 74.9191 88.5673 74.7752C89.2739 73.5938 90.0373 72.3379 90.8353 71.0518C90.9697 72.8267 90.986 75.8071 90.3378 80.0624L85.9697 80.2431C85.9542 79.9169 85.9384 79.5948 85.9221 79.2768C86.3289 78.5616 86.8546 77.6606 88.0538 75.635Z" fill="url(#paint22_linear_1766_218037)"/>
</g>
<g style="mix-blend-mode:overlay" opacity="0.6">
<path d="M86.1907 88.4615C87.1155 88.3583 88.0589 88.2439 89.0361 88.1143C88.7944 93.9516 91.2943 97.9475 94.05 100.509C96.862 103.122 102.677 103.747 106.852 105.551C98.857 105.936 84.124 103.747 84.124 103.747C84.124 103.747 83.9436 100.363 85.5318 95.4014C86.0141 94.4175 86.1841 91.7105 86.1907 88.4615Z" fill="url(#paint23_linear_1766_218037)"/>
</g>
<g style="mix-blend-mode:overlay" opacity="0.6">
<path d="M99.3145 61.5317L90.4563 58.4879L94.282 57.7363L99.3145 61.5317Z" fill="url(#paint24_linear_1766_218037)"/>
</g>
<path d="M80.991 82.5553C81.0487 82.5551 81.0978 82.5184 81.1073 82.4685C81.1202 82.4004 81.4485 80.8009 83.6079 80.7464C83.6732 80.7447 83.7245 80.697 83.7226 80.6397C83.718 80.5835 83.6652 80.5398 83.601 80.5391C81.2432 80.5986 80.8777 82.4166 80.8742 82.4348C80.8691 82.462 80.8765 82.4898 80.8948 82.5121C80.913 82.5344 80.9407 82.5495 80.9716 82.5539C80.978 82.5548 80.9845 82.5553 80.991 82.5553Z" fill="#0B122D"/>
<g style="mix-blend-mode:overlay" opacity="0.6">
<path d="M90.0605 81.9642C92.7517 81.6715 93.3633 80.9125 93.3633 80.1609L84.793 80.5156C85.4144 79.402 88.2161 74.6521 88.3035 74.5069C87.4948 74.2796 86.464 74.9076 85.6012 76.1025C84.5928 77.499 81.7706 80.8953 82.9255 81.8665C83.59 82.4254 88.5358 82.13 90.0605 81.9642Z" fill="white"/>
</g>
<g style="mix-blend-mode:overlay" opacity="0.6">
<path d="M93.8371 87.0134L93.5542 80.3615C93.5373 79.962 95.3124 83.8659 94.4771 85.7193C93.9363 86.9192 95.1503 87.1951 95.8152 87.0631C96.7479 86.8779 97.7472 85.539 97.7472 85.539C97.7576 85.5387 97.7734 86.5226 97.7837 86.5219L97.7869 86.5952C97.8042 87.0039 96.9067 87.6368 96.441 87.6521L94.7117 87.7257C94.4881 87.7331 94.2703 87.6621 94.1063 87.5285C93.9423 87.3949 93.8455 87.2096 93.8371 87.0134Z" fill="#030F1C"/>
</g>
<path d="M87.7557 80.4381L87.7612 80.4379L93.6064 80.1955C93.662 80.1933 93.7082 80.1573 93.7174 80.1092C93.7585 79.8887 93.9692 79.7232 94.2235 79.7118L95.9216 79.629C95.9867 79.6259 96.0366 79.577 96.033 79.5199C96.0295 79.4627 95.9738 79.4189 95.9086 79.422L94.2105 79.5049C93.8817 79.5195 93.5993 79.7149 93.5063 79.9921L87.7501 80.2309C87.6861 80.2337 87.6363 80.2807 87.6378 80.3369C87.6393 80.3931 87.6916 80.438 87.7557 80.4381V80.4381Z" fill="#0B122D"/>
<path d="M81.6646 89.1358C81.6708 89.1358 81.677 89.1354 81.6831 89.1346L93.1301 87.5676C93.1719 87.562 93.2072 87.5372 93.2225 87.5026C93.2378 87.4679 93.2308 87.4287 93.2042 87.3999C93.1776 87.371 93.1354 87.3568 93.0936 87.3626L81.6466 88.9296C81.5857 88.938 81.5423 88.9861 81.547 89.04C81.5517 89.094 81.6029 89.1357 81.6646 89.1358Z" fill="#0B122D"/>
<path d="M109.395 72.32L114.532 72.8139L114.796 73.1701L112.891 77.541L110.36 83.3481L104.852 82.3047L104.585 81.8346L108.561 72.768C108.693 72.4678 109.033 72.2851 109.395 72.32Z" fill="url(#paint25_linear_1766_218037)"/>
<g style="mix-blend-mode:overlay" opacity="0.6">
<path d="M110.518 73.7395L109.53 73.6525C109.456 73.649 109.388 73.6116 109.351 73.5534C109.314 73.4953 109.312 73.4247 109.347 73.3665C109.414 73.2198 109.576 73.1269 109.755 73.1326L110.743 73.2196C110.817 73.2231 110.885 73.2605 110.922 73.3186C110.959 73.3768 110.961 73.4474 110.926 73.5056C110.858 73.6523 110.697 73.7452 110.518 73.7395Z" fill="#030F1C"/>
</g>
<g style="mix-blend-mode:overlay" opacity="0.6">
<path d="M109.399 72.3202L114.54 72.8144L114.804 73.1708L109.648 72.7462C109.289 72.7167 108.955 72.8997 108.825 73.197L104.852 82.3106L107.015 82.7203L104.852 82.3106L104.586 81.8403L108.565 72.7685C108.696 72.468 109.036 72.2853 109.399 72.3202Z" fill="#030F1C"/>
</g>
<path d="M100.558 80.4226L101.079 80.3188C101.079 80.3188 101.557 78.6876 103.821 77.4565C105.186 76.7138 106.395 75.766 107.399 74.653C108.549 75.3557 106.031 78.2668 106.031 78.2668C106.031 78.2668 115.037 76.8262 115.367 77.5665C115.698 78.3068 111.113 79.0652 111.113 79.0652C111.716 80.0453 110.376 80.4442 110.376 80.4442C111.156 81.1727 109.661 81.7729 109.661 81.7729C109.661 81.7729 110.333 82.1854 109.432 82.7591C108.532 83.3326 103.116 83.5989 103.116 83.5989L101.862 83.9191L97.7369 85.0994C97.4727 83.6335 97.0376 82.2115 96.7476 80.749L100.558 80.4226Z" fill="#F2AC7D"/>
<path d="M109.204 79.2521L110.935 79.0974C110.99 79.0925 111.028 79.0446 111.02 78.9905C111.012 78.9364 110.961 78.8966 110.906 78.9015L109.176 79.0562C109.121 79.0611 109.082 79.109 109.09 79.1631C109.098 79.2172 109.149 79.257 109.204 79.2521Z" fill="#030F1C"/>
<path d="M107.908 80.7017L110.181 80.4958C110.236 80.4908 110.274 80.4423 110.266 80.3874C110.258 80.3326 110.207 80.2921 110.152 80.2971L107.88 80.5031C107.825 80.508 107.786 80.5566 107.794 80.6114C107.802 80.6663 107.853 80.7067 107.908 80.7017Z" fill="#030F1C"/>
<path d="M107.866 81.9368L109.392 81.8012C109.447 81.7963 109.485 81.7488 109.477 81.695C109.469 81.6412 109.418 81.6016 109.363 81.6065L107.838 81.7421C107.783 81.747 107.745 81.7945 107.752 81.8483C107.76 81.9021 107.811 81.9417 107.866 81.9368Z" fill="#030F1C"/>
<path d="M99.1135 62.0164L97.226 63.2127L94.1855 57.7529L96.9116 56.6487L100.441 61.2497L101.42 62.3846L102.783 60.8509L105.964 56.5566L109.004 57.8449L105.684 63.2127L103.832 61.9551L101.35 62.6299L99.1135 62.0164Z" fill="url(#paint26_linear_1766_218037)"/>
<path d="M103.642 49.6234C103.631 49.5604 103.594 49.5027 103.539 49.4629C103.484 49.4232 103.415 49.4047 103.349 49.4116C103.018 49.4431 102.406 49.4981 101.931 49.5222C101.424 49.5243 100.916 49.4946 100.409 49.4334C100.321 49.4238 100.237 49.4572 100.187 49.5217C100.137 49.5863 100.127 49.6728 100.162 49.7508C100.425 50.3499 101.068 51.4706 102.141 51.3334C103.446 51.1664 103.753 50.3211 103.642 49.6234Z" fill="#161B36"/>
<path d="M103.485 50.5436C103.485 50.5436 101.807 49.5746 100.524 50.4437C100.524 50.4437 101.047 51.5066 102.092 51.386C103.217 51.2561 103.485 50.5436 103.485 50.5436Z" fill="#E55151"/>
<ellipse rx="0.413319" ry="0.622606" transform="matrix(-1 0 0 1 99.4519 43.8716)" fill="#161B36"/>
<ellipse rx="0.413326" ry="0.622612" transform="matrix(-1 0 0 1 104.11 43.7447)" fill="#161B36"/>
<path d="M99.9236 41.0627C99.7766 40.9112 99.5746 40.7934 98.9684 40.8271C98.3622 40.8607 97.4437 41.3824 97.6458 41.517C97.8478 41.6516 98.454 41.1973 98.9316 41.3487C99.4092 41.5002 99.6835 41.6247 99.844 41.5423C100.046 41.4385 99.9942 41.1355 99.9236 41.0627Z" fill="#161B36"/>
<path d="M103.721 40.791C103.914 40.6911 104.146 40.6394 104.708 40.8505C105.27 41.0617 105.956 41.827 105.717 41.8947C105.478 41.9623 105.065 41.353 104.559 41.3551C104.054 41.3572 103.75 41.394 103.627 41.2684C103.473 41.1104 103.629 40.839 103.721 40.791Z" fill="#161B36"/>
<g style="mix-blend-mode:overlay" opacity="0.6">
<path d="M102.477 47.837C102.69 47.8441 102.902 47.7992 103.089 47.7067C103.213 47.6436 103.299 47.5331 103.323 47.4057C103.369 47.1419 103.075 46.7335 102.714 46.2661C102.623 46.1545 102.539 46.0379 102.463 45.9168C102.39 45.773 102.411 44.4623 102.473 43.2783L102.253 43.2686C102.231 43.6792 102.13 45.7405 102.263 46.0023C102.343 46.1349 102.434 46.2621 102.534 46.3829C102.761 46.6773 103.141 47.1699 103.105 47.3739C103.09 47.4429 103.042 47.502 102.974 47.5342C102.657 47.6591 102.299 47.6693 101.974 47.5627L101.907 47.7554C102.091 47.8092 102.283 47.8367 102.477 47.837Z" fill="#030F1C"/>
</g>
<g style="mix-blend-mode:overlay" opacity="0.6">
<path d="M97.1445 52.1924C98.4285 53.2522 101.915 54.8057 105.591 52.5416C104.38 54.8265 100.996 57.9556 97.1445 52.1924Z" fill="#030F1C"/>
</g>
<path d="M19.7721 96.6711C17.2347 91.7948 19.2625 86.297 24.3013 84.3914L28.0722 82.9653C33.111 81.0597 39.2527 83.4679 41.7901 88.3442L44.467 93.4886C45.526 95.5237 44.6796 97.8182 42.5767 98.6135C41.4967 99.022 40.6985 99.855 40.3807 100.905L39.5191 103.753C38.9521 105.627 36.7057 106.477 34.6954 105.577L31.6408 104.211C30.5143 103.707 29.2541 103.652 28.1741 104.06C26.0712 104.856 23.5079 103.851 22.449 101.816L19.7721 96.6711Z" fill="url(#paint27_linear_1766_218037)"/>
<path d="M31.5352 87.6857C30.3609 88.1297 29.6074 89.0608 29.462 90.1315C28.4331 89.5048 27.1175 89.3559 25.9431 89.7999C24.0977 90.4975 23.3107 92.457 24.1942 94.1543C25.7871 97.2145 33.5581 98.0006 33.5581 98.0006C33.5581 98.0006 38.103 92.5891 36.4967 89.5032C35.6133 87.8059 33.3806 86.988 31.5352 87.6857Z" fill="#F44336"/>
<rect x="127.195" y="94.1846" width="22.5924" height="19.8279" rx="9.91396" fill="url(#paint28_linear_1766_218037)"/>
<path d="M143.804 103.782C144.017 103.536 144.134 103.233 144.134 102.919C144.134 102.42 143.817 101.948 143.305 101.685C143.174 101.617 143.024 101.581 142.871 101.581H139.836L139.912 100.216C139.929 99.8861 139.796 99.5728 139.538 99.334C139.412 99.2162 139.259 99.1226 139.089 99.0587C138.919 98.9949 138.737 98.9623 138.552 98.9629C137.894 98.9629 137.312 99.3517 137.137 99.9083L136.05 103.363H136.046V108.118H142.024C142.141 108.118 142.255 108.098 142.36 108.058C142.962 107.833 143.351 107.316 143.351 106.743C143.351 106.603 143.328 106.465 143.283 106.332C143.495 106.085 143.613 105.783 143.613 105.469C143.613 105.329 143.59 105.191 143.545 105.057C143.757 104.811 143.875 104.509 143.875 104.194C143.872 104.054 143.85 103.915 143.804 103.782ZM134.008 103.719V107.763C134.008 107.959 134.189 108.118 134.413 108.118H135.236V103.363H134.413C134.189 103.363 134.008 103.522 134.008 103.719Z" fill="url(#paint29_linear_1766_218037)"/>
</g>
<path d="M27.1367 27.445C27.1367 23.8839 30.0236 20.9971 33.5847 20.9972L54.6835 20.9975C60.2062 20.9976 64.6833 25.4747 64.6833 30.9975V32.6037C64.648 35.2754 61.5769 36.7593 59.4619 35.1266L58.7042 34.5417C57.0767 33.2853 55.0786 32.6037 53.0225 32.6037L32.2949 32.6033C29.4461 32.6032 27.1367 30.2938 27.1367 27.445Z" fill="url(#paint30_linear_1766_218037)"/>
<path d="M52.2535 24.0498H37.6816C37.4001 24.0498 37.1719 24.2469 37.1719 24.4899V24.5015C37.1719 24.7446 37.4001 24.9417 37.6816 24.9417H52.2535C52.535 24.9417 52.7632 24.7446 52.7632 24.5015V24.4899C52.7632 24.2469 52.535 24.0498 52.2535 24.0498Z" fill="url(#paint31_linear_1766_218037)"/>
<path d="M54.6196 26.4189H35.3144C35.0329 26.4189 34.8047 26.616 34.8047 26.8591V26.8707C34.8047 27.1137 35.0329 27.3108 35.3144 27.3108H54.6196C54.9012 27.3108 55.1294 27.1137 55.1294 26.8707V26.8591C55.1294 26.616 54.9012 26.4189 54.6196 26.4189Z" fill="url(#paint32_linear_1766_218037)"/>
<path d="M54.6196 28.7891H35.3144C35.0329 28.7891 34.8047 28.9861 34.8047 29.2292V29.2408C34.8047 29.4839 35.0329 29.6809 35.3144 29.6809H54.6196C54.9012 29.6809 55.1294 29.4839 55.1294 29.2408V29.2292C55.1294 28.9861 54.9012 28.7891 54.6196 28.7891Z" fill="url(#paint33_linear_1766_218037)"/>
<defs>
<linearGradient id="paint0_linear_1766_218037" x1="89.996" y1="139.227" x2="89.996" y2="21.5555" gradientUnits="userSpaceOnUse">
<stop stop-color="white" stop-opacity="0"/>
<stop offset="1" stop-color="#E3EFF9"/>
</linearGradient>
<linearGradient id="paint1_linear_1766_218037" x1="57.9431" y1="96.3687" x2="35.8378" y2="53.0636" gradientUnits="userSpaceOnUse">
<stop stop-color="#38B2AC"/>
<stop offset="0.697917" stop-color="#81E6D9"/>
<stop offset="1" stop-color="#B2F5EA"/>
</linearGradient>
<linearGradient id="paint2_linear_1766_218037" x1="65.7433" y1="124.676" x2="11.855" y2="79.8697" gradientUnits="userSpaceOnUse">
<stop stop-color="#38B2AC"/>
<stop offset="0.411458" stop-color="#81E6D9"/>
<stop offset="0.755208" stop-color="#B2F5EA"/>
<stop offset="1" stop-color="#E6FFFA"/>
</linearGradient>
<linearGradient id="paint3_linear_1766_218037" x1="64.118" y1="94.5283" x2="64.118" y2="175.907" gradientUnits="userSpaceOnUse">
<stop stop-color="#2D3748"/>
<stop offset="1" stop-color="#1A202C"/>
</linearGradient>
<linearGradient id="paint4_linear_1766_218037" x1="70.2923" y1="40.9539" x2="67.4911" y2="65.6204" gradientUnits="userSpaceOnUse">
<stop stop-color="#2D3748"/>
<stop offset="1" stop-color="#1A202C"/>
</linearGradient>
<linearGradient id="paint5_linear_1766_218037" x1="65.2278" y1="64.1152" x2="65.2278" y2="100.203" gradientUnits="userSpaceOnUse">
<stop stop-color="#2D3748"/>
<stop offset="1" stop-color="#1A202C"/>
</linearGradient>
<linearGradient id="paint6_linear_1766_218037" x1="64.4761" y1="56.1895" x2="64.4761" y2="106.801" gradientUnits="userSpaceOnUse">
<stop stop-color="#FFAEAE"/>
<stop offset="1" stop-color="#D93333"/>
</linearGradient>
<linearGradient id="paint7_linear_1766_218037" x1="53.6785" y1="71.7544" x2="40.9453" y2="76.0853" gradientUnits="userSpaceOnUse">
<stop stop-color="#030F1C"/>
<stop offset="1" stop-color="#030F1C" stop-opacity="0"/>
</linearGradient>
<linearGradient id="paint8_linear_1766_218037" x1="55.4018" y1="83.8174" x2="55.8007" y2="87.6573" gradientUnits="userSpaceOnUse">
<stop stop-color="#030F1C"/>
<stop offset="1" stop-color="#030F1C" stop-opacity="0"/>
</linearGradient>
<linearGradient id="paint9_linear_1766_218037" x1="74.3211" y1="75.1162" x2="71.7631" y2="112.131" gradientUnits="userSpaceOnUse">
<stop offset="0.265984" stop-color="#030F1C"/>
<stop offset="1" stop-color="#030F1C" stop-opacity="0"/>
</linearGradient>
<linearGradient id="paint10_linear_1766_218037" x1="63.2362" y1="52.4922" x2="63.2362" y2="52.9611" gradientUnits="userSpaceOnUse">
<stop stop-color="#2D3748"/>
<stop offset="1" stop-color="#1A202C"/>
</linearGradient>
<linearGradient id="paint11_linear_1766_218037" x1="69.3612" y1="52.4922" x2="69.3612" y2="52.9611" gradientUnits="userSpaceOnUse">
<stop stop-color="#2D3748"/>
<stop offset="1" stop-color="#1A202C"/>
</linearGradient>
<linearGradient id="paint12_linear_1766_218037" x1="67.7562" y1="45.5859" x2="67.7562" y2="52.6375" gradientUnits="userSpaceOnUse">
<stop stop-color="#2D3748"/>
<stop offset="1" stop-color="#1A202C"/>
</linearGradient>
<linearGradient id="paint13_linear_1766_218037" x1="144.681" y1="104.844" x2="144.681" y2="137.711" gradientUnits="userSpaceOnUse">
<stop stop-color="#D1E6D3"/>
<stop offset="1" stop-color="#C6E2C9"/>
</linearGradient>
<linearGradient id="paint14_linear_1766_218037" x1="127.386" y1="93.3662" x2="127.386" y2="137.71" gradientUnits="userSpaceOnUse">
<stop stop-color="#D1E6D3"/>
<stop offset="1" stop-color="#C6E2C9"/>
</linearGradient>
<linearGradient id="paint15_linear_1766_218037" x1="135.659" y1="86.082" x2="135.659" y2="127.864" gradientUnits="userSpaceOnUse">
<stop stop-color="#D1E6D3"/>
<stop offset="1" stop-color="#AED2B2"/>
</linearGradient>
<linearGradient id="paint16_linear_1766_218037" x1="101.56" y1="28.1826" x2="101.56" y2="53.1672" gradientUnits="userSpaceOnUse">
<stop stop-color="#2D3748"/>
<stop offset="1" stop-color="#1A202C"/>
</linearGradient>
<linearGradient id="paint17_linear_1766_218037" x1="102.607" y1="102.72" x2="102.607" y2="175.343" gradientUnits="userSpaceOnUse">
<stop stop-color="#2C5282"/>
<stop offset="1" stop-color="#2A4365"/>
</linearGradient>
<linearGradient id="paint18_linear_1766_218037" x1="118.491" y1="110.098" x2="118.491" y2="151.002" gradientUnits="userSpaceOnUse">
<stop stop-color="white"/>
<stop offset="1" stop-color="white" stop-opacity="0"/>
</linearGradient>
<linearGradient id="paint19_linear_1766_218037" x1="97.1486" y1="128.711" x2="97.1486" y2="167.349" gradientUnits="userSpaceOnUse">
<stop stop-color="white"/>
<stop offset="1" stop-color="white" stop-opacity="0"/>
</linearGradient>
<linearGradient id="paint20_linear_1766_218037" x1="105.368" y1="40.4863" x2="105.368" y2="105.551" gradientUnits="userSpaceOnUse">
<stop stop-color="#81E6D9"/>
<stop offset="1" stop-color="#319795"/>
</linearGradient>
<linearGradient id="paint21_linear_1766_218037" x1="105.368" y1="40.4863" x2="105.368" y2="105.551" gradientUnits="userSpaceOnUse">
<stop stop-color="#81E6D9"/>
<stop offset="1" stop-color="#319795"/>
</linearGradient>
<linearGradient id="paint22_linear_1766_218037" x1="86.1041" y1="73.1261" x2="90.7684" y2="81.4378" gradientUnits="userSpaceOnUse">
<stop stop-color="#030F1C"/>
<stop offset="1" stop-color="#030F1C" stop-opacity="0"/>
</linearGradient>
<linearGradient id="paint23_linear_1766_218037" x1="84.9471" y1="92.0597" x2="89.11" y2="107.611" gradientUnits="userSpaceOnUse">
<stop stop-color="#030F1C"/>
<stop offset="1" stop-color="#030F1C" stop-opacity="0"/>
</linearGradient>
<linearGradient id="paint24_linear_1766_218037" x1="94.8854" y1="57.7363" x2="93.1384" y2="62.8892" gradientUnits="userSpaceOnUse">
<stop stop-color="#030F1C"/>
<stop offset="1" stop-color="#030F1C" stop-opacity="0"/>
</linearGradient>
<linearGradient id="paint25_linear_1766_218037" x1="109.194" y1="72.3208" x2="109.848" y2="83.3784" gradientUnits="userSpaceOnUse">
<stop stop-color="#2C5282"/>
<stop offset="1" stop-color="#2A4365"/>
</linearGradient>
<linearGradient id="paint26_linear_1766_218037" x1="101.595" y1="56.5566" x2="101.595" y2="63.2127" gradientUnits="userSpaceOnUse">
<stop stop-color="#2D3748"/>
<stop offset="1" stop-color="#1A202C"/>
</linearGradient>
<linearGradient id="paint27_linear_1766_218037" x1="26.1867" y1="83.6783" x2="35.5248" y2="108.37" gradientUnits="userSpaceOnUse">
<stop stop-color="#F7FAFC"/>
<stop offset="1" stop-color="#EDF2F7"/>
</linearGradient>
<linearGradient id="paint28_linear_1766_218037" x1="138.492" y1="94.1846" x2="138.492" y2="114.012" gradientUnits="userSpaceOnUse">
<stop stop-color="#BEE3F8"/>
<stop offset="1" stop-color="#90CDF4"/>
</linearGradient>
<linearGradient id="paint29_linear_1766_218037" x1="139.071" y1="98.9629" x2="139.071" y2="108.118" gradientUnits="userSpaceOnUse">
<stop stop-color="#F7FAFC"/>
<stop offset="1" stop-color="#EDF2F7"/>
</linearGradient>
<linearGradient id="paint30_linear_1766_218037" x1="45.91" y1="20.9971" x2="45.91" y2="39.0913" gradientUnits="userSpaceOnUse">
<stop stop-color="#BEE3F8"/>
<stop offset="1" stop-color="#90CDF4"/>
</linearGradient>
<linearGradient id="paint31_linear_1766_218037" x1="44.9675" y1="24.0498" x2="44.9675" y2="24.9417" gradientUnits="userSpaceOnUse">
<stop stop-color="#F7FAFC"/>
<stop offset="1" stop-color="#EDF2F7"/>
</linearGradient>
<linearGradient id="paint32_linear_1766_218037" x1="44.967" y1="26.4189" x2="44.967" y2="27.3108" gradientUnits="userSpaceOnUse">
<stop stop-color="#F7FAFC"/>
<stop offset="1" stop-color="#EDF2F7"/>
</linearGradient>
<linearGradient id="paint33_linear_1766_218037" x1="44.967" y1="28.7891" x2="44.967" y2="29.6809" gradientUnits="userSpaceOnUse">
<stop stop-color="#F7FAFC"/>
<stop offset="1" stop-color="#EDF2F7"/>
</linearGradient>
</defs>
</svg>
