<svg width="25" height="24" viewBox="0 0 25 24" fill="none" xmlns="http://www.w3.org/2000/svg">
<path d="M12.582 2C18.1049 2 22.582 6.47715 22.582 12C22.582 17.5228 18.1049 22 12.582 22C7.05918 22 2.58203 17.5228 2.58203 12C2.58203 6.47715 7.05918 2 12.582 2ZM15.8017 8.96967L11.332 13.4393L9.36236 11.4697C9.06947 11.1768 8.59459 11.1768 8.3017 11.4697C8.00881 11.7626 8.00881 12.2374 8.3017 12.5303L10.8017 15.0303C11.0946 15.3232 11.5695 15.3232 11.8624 15.0303L16.8624 10.0303C17.1553 9.73744 17.1553 9.26256 16.8624 8.96967C16.5695 8.67678 16.0946 8.67678 15.8017 8.96967Z" fill="#48BB78"/>
</svg>
