<svg width="19" height="19" viewBox="0 0 19 19" fill="none" xmlns="http://www.w3.org/2000/svg">
<path fill-rule="evenodd" clip-rule="evenodd" d="M1.25 9.5C1.25 4.925 4.925 1.25 9.5 1.25C14.075 1.25 17.75 4.925 17.75 9.5C17.75 14.075 14.075 17.75 9.5 17.75C4.925 17.75 1.25 14.075 1.25 9.5ZM2.75 9.5C2.75 13.25 5.75 16.25 9.5 16.25C13.25 16.25 16.25 13.25 16.25 9.5C16.25 5.75 13.25 2.75 9.5 2.75C5.75 2.75 2.75 5.75 2.75 9.5ZM9.5 6.5C7.85 6.5 6.5 7.85 6.5 9.5C6.5 11.15 7.85 12.5 9.5 12.5C11.15 12.5 12.5 11.15 12.5 9.5C12.5 7.85 11.15 6.5 9.5 6.5ZM8 9.5C8 10.325 8.675 11 9.5 11C10.325 11 11 10.325 11 9.5C11 8.675 10.325 8 9.5 8C8.675 8 8 8.675 8 9.5Z" fill="black"/>
<mask id="mask0_1274_200765" style="mask-type:alpha" maskUnits="userSpaceOnUse" x="1" y="1" width="17" height="17">
<path fill-rule="evenodd" clip-rule="evenodd" d="M1.25 9.5C1.25 4.925 4.925 1.25 9.5 1.25C14.075 1.25 17.75 4.925 17.75 9.5C17.75 14.075 14.075 17.75 9.5 17.75C4.925 17.75 1.25 14.075 1.25 9.5ZM2.75 9.5C2.75 13.25 5.75 16.25 9.5 16.25C13.25 16.25 16.25 13.25 16.25 9.5C16.25 5.75 13.25 2.75 9.5 2.75C5.75 2.75 2.75 5.75 2.75 9.5ZM9.5 6.5C7.85 6.5 6.5 7.85 6.5 9.5C6.5 11.15 7.85 12.5 9.5 12.5C11.15 12.5 12.5 11.15 12.5 9.5C12.5 7.85 11.15 6.5 9.5 6.5ZM8 9.5C8 10.325 8.675 11 9.5 11C10.325 11 11 10.325 11 9.5C11 8.675 10.325 8 9.5 8C8.675 8 8 8.675 8 9.5Z" fill="white"/>
</mask>
<g mask="url(#mask0_1274_200765)">
<rect x="0.5" y="0.5" width="18" height="18" fill="#6E6B7B"/>
</g>
</svg>
