<svg width="10" height="9" viewBox="0 0 10 9" fill="none" xmlns="http://www.w3.org/2000/svg">
<path d="M1.09432 0.555742L1.16694 0.471623C1.4332 0.205356 1.84987 0.18115 2.14348 0.399005L2.2276 0.471623L5.19727 3.44095L8.16694 0.471623C8.45983 0.17873 8.9347 0.17873 9.2276 0.471623C9.52049 0.764516 9.52049 1.23939 9.2276 1.53228L6.25827 4.50195L9.2276 7.47162C9.49386 7.73789 9.51807 8.15455 9.30021 8.44816L9.2276 8.53228C8.96133 8.79855 8.54467 8.82276 8.25105 8.6049L8.16694 8.53228L5.19727 5.56295L2.2276 8.53228C1.9347 8.82518 1.45983 8.82518 1.16694 8.53228C0.874042 8.23939 0.874042 7.76452 1.16694 7.47162L4.13627 4.50195L1.16694 1.53228C0.900669 1.26602 0.876463 0.849353 1.09432 0.555742L1.16694 0.471623L1.09432 0.555742Z" fill="#E53E3E"/>
</svg>
