<svg width="24" height="25" viewBox="0 0 24 25" fill="none" xmlns="http://www.w3.org/2000/svg">
<path d="M14.75 15.7561C15.7165 15.7561 16.5 16.5396 16.5 17.5061L16.4989 18.4682C16.6156 20.6573 14.9879 21.7652 12.0668 21.7652C9.15786 21.7652 7.5 20.6753 7.5 18.5061V17.5061C7.5 16.5396 8.2835 15.7561 9.25 15.7561H14.75ZM3.75 10.7561L8.126 10.7562C8.04375 11.0758 8 11.4109 8 11.7561C8 12.8717 8.45665 13.8805 9.1932 14.606L9.35526 14.7571L9.25 14.7561C8.94865 14.7561 8.65863 14.8046 8.38729 14.8942C7.52255 15.1796 6.84765 15.8825 6.60122 16.7643L6.56679 16.7652C3.65786 16.7652 2 15.6753 2 13.5061V12.5061C2 11.5396 2.7835 10.7561 3.75 10.7561ZM20.25 10.7561C21.2165 10.7561 22 11.5396 22 12.5061L21.9989 13.4682C22.1156 15.6573 20.4879 16.7652 17.5668 16.7652L17.3985 16.7634C17.1596 15.9095 16.5188 15.2235 15.6929 14.922C15.4576 14.8362 15.2073 14.7815 14.947 14.7631L14.75 14.7561L14.6447 14.7571C15.4758 14.0241 16 12.9513 16 11.7561C16 11.4109 15.9563 11.0758 15.874 10.7562L20.25 10.7561ZM12 8.75613C13.6569 8.75613 15 10.0993 15 11.7561C15 13.413 13.6569 14.7561 12 14.7561C10.3431 14.7561 9 13.413 9 11.7561C9 10.0993 10.3431 8.75613 12 8.75613ZM6.5 3.75613C8.15685 3.75613 9.5 5.09928 9.5 6.75613C9.5 8.41299 8.15685 9.75613 6.5 9.75613C4.84315 9.75613 3.5 8.41299 3.5 6.75613C3.5 5.09928 4.84315 3.75613 6.5 3.75613ZM17.5 3.75613C19.1569 3.75613 20.5 5.09928 20.5 6.75613C20.5 8.41299 19.1569 9.75613 17.5 9.75613C15.8431 9.75613 14.5 8.41299 14.5 6.75613C14.5 5.09928 15.8431 3.75613 17.5 3.75613Z" fill="#718096"/>
</svg>
