<svg width="46" height="47" viewBox="0 0 46 47" fill="none" xmlns="http://www.w3.org/2000/svg">
<rect y="0.5" width="46" height="46" rx="6" fill="#E2E8F0"/>
<rect x="26.1191" y="9.35742" width="5.86243" height="23.5798" rx="2.93122" fill="url(#paint0_linear_4087_264802)"/>
<mask id="mask0_4087_264802" style="mask-type:alpha" maskUnits="userSpaceOnUse" x="26" y="9" width="6" height="24">
<rect x="26.1191" y="9.35742" width="5.86243" height="23.5798" rx="2.93122" fill="#C4C4C4"/>
</mask>
<g mask="url(#mask0_4087_264802)">
<g filter="url(#filter0_i_4087_264802)">
<rect x="25.9229" y="8.8418" width="6.32124" height="8.71878" fill="url(#paint1_linear_4087_264802)"/>
</g>
</g>
<g filter="url(#filter1_i_4087_264802)">
<rect x="7.41699" y="9.36133" width="23.6589" height="23.5798" rx="1" fill="url(#paint2_linear_4087_264802)"/>
<mask id="mask1_4087_264802" style="mask-type:alpha" maskUnits="userSpaceOnUse" x="7" y="9" width="25" height="24">
<rect x="7.41699" y="9.36133" width="23.6589" height="23.5798" rx="4" fill="#C4C4C4"/>
</mask>
<g mask="url(#mask1_4087_264802)">
<g filter="url(#filter2_i_4087_264802)">
<rect x="6.62402" y="8.8457" width="25.5105" height="8.71878" fill="url(#paint3_linear_4087_264802)"/>
</g>
</g>
</g>
<g filter="url(#filter3_i_4087_264802)">
<circle cx="11.6982" cy="11.2012" r="0.82812" fill="#2D3748"/>
</g>
<g filter="url(#filter4_i_4087_264802)">
<rect x="11.2354" y="8.35156" width="0.419497" height="3.2286" rx="0.209748" fill="#2D3748"/>
<rect x="11.2354" y="8.35156" width="0.419497" height="3.2286" rx="0.209748" fill="url(#paint4_radial_4087_264802)"/>
</g>
<g filter="url(#filter5_i_4087_264802)">
<rect x="11.7988" y="8.35156" width="0.419497" height="3.2286" rx="0.209748" fill="#2D3748"/>
<rect x="11.7988" y="8.35156" width="0.419497" height="3.2286" rx="0.209748" fill="url(#paint5_radial_4087_264802)"/>
</g>
<g filter="url(#filter6_i_4087_264802)">
<circle cx="15.4727" cy="11.2012" r="0.82812" fill="#2D3748"/>
</g>
<g filter="url(#filter7_i_4087_264802)">
<rect x="15.0098" y="8.35156" width="0.419497" height="3.2286" rx="0.209748" fill="#2D3748"/>
<rect x="15.0098" y="8.35156" width="0.419497" height="3.2286" rx="0.209748" fill="url(#paint6_radial_4087_264802)"/>
</g>
<g filter="url(#filter8_i_4087_264802)">
<rect x="15.5723" y="8.35156" width="0.419497" height="3.2286" rx="0.209748" fill="#2D3748"/>
<rect x="15.5723" y="8.35156" width="0.419497" height="3.2286" rx="0.209748" fill="url(#paint7_radial_4087_264802)"/>
</g>
<g filter="url(#filter9_i_4087_264802)">
<circle cx="19.2451" cy="11.2012" r="0.82812" fill="#2D3748"/>
</g>
<g filter="url(#filter10_i_4087_264802)">
<rect x="18.7822" y="8.35156" width="0.419497" height="3.2286" rx="0.209748" fill="#2D3748"/>
<rect x="18.7822" y="8.35156" width="0.419497" height="3.2286" rx="0.209748" fill="url(#paint8_radial_4087_264802)"/>
</g>
<g filter="url(#filter11_i_4087_264802)">
<rect x="19.3447" y="8.35156" width="0.419497" height="3.2286" rx="0.209748" fill="#2D3748"/>
<rect x="19.3447" y="8.35156" width="0.419497" height="3.2286" rx="0.209748" fill="url(#paint9_radial_4087_264802)"/>
</g>
<g filter="url(#filter12_i_4087_264802)">
<circle cx="23.0185" cy="11.2012" r="0.82812" fill="#2D3748"/>
</g>
<g filter="url(#filter13_i_4087_264802)">
<rect x="22.5566" y="8.35156" width="0.419497" height="3.2286" rx="0.209748" fill="#2D3748"/>
<rect x="22.5566" y="8.35156" width="0.419497" height="3.2286" rx="0.209748" fill="url(#paint10_radial_4087_264802)"/>
</g>
<g filter="url(#filter14_i_4087_264802)">
<rect x="23.1172" y="8.35156" width="0.419497" height="3.2286" rx="0.209748" fill="#2D3748"/>
<rect x="23.1172" y="8.35156" width="0.419497" height="3.2286" rx="0.209748" fill="url(#paint11_radial_4087_264802)"/>
</g>
<g filter="url(#filter15_i_4087_264802)">
<circle cx="26.791" cy="11.2012" r="0.82812" fill="#2D3748"/>
</g>
<g filter="url(#filter16_i_4087_264802)">
<rect x="26.3301" y="8.35156" width="0.419497" height="3.2286" rx="0.209748" fill="#2D3748"/>
<rect x="26.3301" y="8.35156" width="0.419497" height="3.2286" rx="0.209748" fill="url(#paint12_radial_4087_264802)"/>
</g>
<g filter="url(#filter17_i_4087_264802)">
<rect x="26.8916" y="8.35156" width="0.419497" height="3.2286" rx="0.209748" fill="#2D3748"/>
<rect x="26.8916" y="8.35156" width="0.419497" height="3.2286" rx="0.209748" fill="url(#paint13_radial_4087_264802)"/>
</g>
<path d="M13.3591 26.9301C12.8402 26.9301 12.3945 26.8303 12.022 26.6308C11.6494 26.4312 11.3634 26.1496 11.1638 25.7859C10.9687 25.4222 10.8711 24.9964 10.8711 24.5086C10.8711 24.0208 10.9687 23.5972 11.1638 23.238C11.3634 22.8743 11.6494 22.5927 12.022 22.3931C12.3945 22.1935 12.8402 22.0938 13.3591 22.0938C13.5632 22.0938 13.7738 22.1182 13.9911 22.1669C14.2128 22.2113 14.4081 22.28 14.5765 22.3732C14.7008 22.4397 14.7872 22.524 14.836 22.626C14.8847 22.7279 14.9025 22.8322 14.8892 22.9386C14.8759 23.0451 14.836 23.1404 14.7695 23.2247C14.7074 23.309 14.6276 23.3666 14.53 23.3976C14.4324 23.4243 14.3259 23.4088 14.2107 23.3511C13.949 23.2225 13.6806 23.1582 13.4057 23.1582C12.9932 23.1582 12.6828 23.2757 12.4744 23.5107C12.2659 23.7414 12.1617 24.074 12.1617 24.5086C12.1617 24.9477 12.2659 25.2848 12.4744 25.5198C12.6828 25.7505 12.9932 25.8657 13.4057 25.8657C13.521 25.8657 13.6452 25.8524 13.7782 25.8258C13.9113 25.7947 14.0422 25.7482 14.1707 25.6861C14.3038 25.6284 14.4214 25.6129 14.5233 25.6395C14.6298 25.6662 14.7162 25.7194 14.7828 25.7992C14.8493 25.879 14.8892 25.9722 14.9025 26.0786C14.9203 26.1806 14.907 26.2827 14.8626 26.3846C14.8182 26.4866 14.7362 26.5687 14.6165 26.6308C14.4613 26.7239 14.2683 26.7971 14.0377 26.8503C13.8115 26.9035 13.5853 26.9301 13.3591 26.9301ZM17.6466 26.9301C16.9636 26.9301 16.4402 26.7572 16.0766 26.4112C15.7173 26.0653 15.5377 25.5486 15.5377 24.8612V22.7257C15.5377 22.5262 15.591 22.3732 15.6974 22.2667C15.8038 22.1603 15.9546 22.1071 16.1498 22.1071C16.3449 22.1071 16.4957 22.1603 16.6021 22.2667C16.7086 22.3732 16.7618 22.5262 16.7618 22.7257V24.8745C16.7618 25.216 16.8372 25.4732 16.988 25.6462C17.1387 25.8192 17.3582 25.9056 17.6466 25.9056C17.9304 25.9056 18.1477 25.8192 18.2985 25.6462C18.4492 25.4732 18.5247 25.216 18.5247 24.8745V22.7257C18.5247 22.5262 18.5756 22.3732 18.6777 22.2667C18.7842 22.1603 18.9349 22.1071 19.1301 22.1071C19.3252 22.1071 19.4737 22.1603 19.5758 22.2667C19.6778 22.3732 19.7288 22.5262 19.7288 22.7257V24.8612C19.7288 25.5486 19.5514 26.0653 19.1966 26.4112C18.8462 26.7572 18.3295 26.9301 17.6466 26.9301ZM22.2637 26.9168C22.0685 26.9168 21.9178 26.8636 21.8114 26.7572C21.7049 26.6507 21.6517 26.4977 21.6517 26.2981V23.1648H20.6073C20.2702 23.1648 20.1016 22.9985 20.1016 22.6659C20.1016 22.3332 20.2702 22.1669 20.6073 22.1669H23.9202C24.2572 22.1669 24.4258 22.3332 24.4258 22.6659C24.4258 22.9985 24.2572 23.1648 23.9202 23.1648H22.8758V26.2981C22.8758 26.4977 22.8226 26.6507 22.7161 26.7572C22.614 26.8636 22.4633 26.9168 22.2637 26.9168ZM25.4406 26.9168C25.2455 26.9168 25.0947 26.8636 24.9883 26.7572C24.8818 26.6507 24.8286 26.4955 24.8286 26.2915V22.7324C24.8286 22.5283 24.8818 22.3732 24.9883 22.2667C25.0947 22.1603 25.2455 22.1071 25.4406 22.1071C25.6357 22.1071 25.7866 22.1603 25.893 22.2667C25.9994 22.3732 26.0527 22.5283 26.0527 22.7324V26.2915C26.0527 26.4955 25.9994 26.6507 25.893 26.7572C25.791 26.8636 25.6402 26.9168 25.4406 26.9168Z" fill="#E64040"/>
<rect x="22.5557" y="28.2754" width="16.0294" height="10.3746" rx="2" fill="url(#paint14_linear_4087_264802)"/>
<path fill-rule="evenodd" clip-rule="evenodd" d="M30.1966 26.252C29.0795 26.252 28.1738 27.1576 28.1738 28.2748H28.8203C28.8204 27.4591 29.4816 26.798 30.2972 26.798H30.8409C31.6565 26.798 32.3177 27.4591 32.3178 28.2748H32.964C32.964 27.1576 32.0584 26.252 30.9412 26.252H30.1966Z" fill="#4C586B"/>
<path d="M24.0361 28.2757C24.0361 27.9854 24.2715 27.75 24.5618 27.75H24.9122C25.2025 27.75 25.4379 27.9854 25.4379 28.2757H24.0361Z" fill="#4D586C"/>
<path d="M35.7031 28.2757C35.7031 27.9854 35.9385 27.75 36.2288 27.75H36.5792C36.8695 27.75 37.1049 27.9854 37.1049 28.2757H35.7031Z" fill="#4D596C"/>
<rect x="24.5479" y="27.75" width="0.398959" height="0.525751" rx="0.19948" fill="#7F8FA9"/>
<rect x="36.2148" y="27.75" width="0.398959" height="0.525751" rx="0.19948" fill="#7D8DA7"/>
<rect x="24.3311" y="28.6914" width="4.43869" height="2.20737" rx="1.10369" transform="rotate(30 24.3311 28.6914)" fill="url(#paint15_linear_4087_264802)"/>
<rect x="32.4844" y="36.2559" width="4.43869" height="2.20737" rx="1.10369" transform="rotate(-21.5116 32.4844 36.2559)" fill="url(#paint16_linear_4087_264802)"/>
<rect x="24.7471" y="28.2754" width="1.23293" height="10.3746" fill="#E64040"/>
<path d="M34.295 32.4323C34.3507 32.1591 34.7411 32.1591 34.7968 32.4323C34.8349 32.6196 35.0574 32.7005 35.207 32.5816C35.4252 32.4081 35.7243 32.659 35.5914 32.9041C35.5002 33.0721 35.6186 33.2771 35.8096 33.2822C36.0884 33.2896 36.1561 33.674 35.8967 33.7763C35.719 33.8464 35.6779 34.0795 35.8209 34.2062C36.0297 34.391 35.8345 34.7291 35.5701 34.6408C35.3888 34.5802 35.2075 34.7323 35.2357 34.9214C35.2768 35.1971 34.9099 35.3307 34.7642 35.093C34.6642 34.93 34.4275 34.93 34.3276 35.093C34.1819 35.3307 33.815 35.1971 33.8561 34.9214C33.8843 34.7323 33.703 34.5802 33.5217 34.6408C33.2573 34.7291 33.0621 34.391 33.2708 34.2062C33.4139 34.0795 33.3728 33.8464 33.195 33.7763C32.9356 33.674 33.0034 33.2896 33.2822 33.2822C33.4732 33.2771 33.5916 33.0721 33.5004 32.9041C33.3675 32.659 33.6665 32.4081 33.8848 32.5816C34.0344 32.7005 34.2568 32.6196 34.295 32.4323Z" fill="url(#paint17_linear_4087_264802)"/>
<rect x="34.4697" y="28.2754" width="1.23293" height="10.3746" fill="#E64040"/>
<defs>
<filter id="filter0_i_4087_264802" x="25.9229" y="8.8418" width="6.32129" height="8.71875" filterUnits="userSpaceOnUse" color-interpolation-filters="sRGB">
<feFlood flood-opacity="0" result="BackgroundImageFix"/>
<feBlend mode="normal" in="SourceGraphic" in2="BackgroundImageFix" result="shape"/>
<feColorMatrix in="SourceAlpha" type="matrix" values="0 0 0 0 0 0 0 0 0 0 0 0 0 0 0 0 0 0 127 0" result="hardAlpha"/>
<feOffset dx="-1.28919"/>
<feComposite in2="hardAlpha" operator="arithmetic" k2="-1" k3="1"/>
<feColorMatrix type="matrix" values="0 0 0 0 0.898039 0 0 0 0 0.243137 0 0 0 0 0.243137 0 0 0 1 0"/>
<feBlend mode="normal" in2="shape" result="effect1_innerShadow_4087_264802"/>
</filter>
<filter id="filter1_i_4087_264802" x="7.41699" y="9.36133" width="23.6587" height="23.5801" filterUnits="userSpaceOnUse" color-interpolation-filters="sRGB">
<feFlood flood-opacity="0" result="BackgroundImageFix"/>
<feBlend mode="normal" in="SourceGraphic" in2="BackgroundImageFix" result="shape"/>
<feColorMatrix in="SourceAlpha" type="matrix" values="0 0 0 0 0 0 0 0 0 0 0 0 0 0 0 0 0 0 127 0" result="hardAlpha"/>
<feOffset dx="0.902435" dy="0.644597"/>
<feComposite in2="hardAlpha" operator="arithmetic" k2="-1" k3="1"/>
<feColorMatrix type="matrix" values="0 0 0 0 1 0 0 0 0 1 0 0 0 0 1 0 0 0 0.5 0"/>
<feBlend mode="normal" in2="shape" result="effect1_innerShadow_4087_264802"/>
</filter>
<filter id="filter2_i_4087_264802" x="6.62402" y="8.8457" width="25.5107" height="8.71875" filterUnits="userSpaceOnUse" color-interpolation-filters="sRGB">
<feFlood flood-opacity="0" result="BackgroundImageFix"/>
<feBlend mode="normal" in="SourceGraphic" in2="BackgroundImageFix" result="shape"/>
<feColorMatrix in="SourceAlpha" type="matrix" values="0 0 0 0 0 0 0 0 0 0 0 0 0 0 0 0 0 0 127 0" result="hardAlpha"/>
<feOffset dx="-1.28919"/>
<feComposite in2="hardAlpha" operator="arithmetic" k2="-1" k3="1"/>
<feColorMatrix type="matrix" values="0 0 0 0 0.898039 0 0 0 0 0.243137 0 0 0 0 0.243137 0 0 0 1 0"/>
<feBlend mode="normal" in2="shape" result="effect1_innerShadow_4087_264802"/>
</filter>
<filter id="filter3_i_4087_264802" x="10.8701" y="10.373" width="1.65625" height="1.65625" filterUnits="userSpaceOnUse" color-interpolation-filters="sRGB">
<feFlood flood-opacity="0" result="BackgroundImageFix"/>
<feBlend mode="normal" in="SourceGraphic" in2="BackgroundImageFix" result="shape"/>
<feColorMatrix in="SourceAlpha" type="matrix" values="0 0 0 0 0 0 0 0 0 0 0 0 0 0 0 0 0 0 127 0" result="hardAlpha"/>
<feOffset dx="0.257839" dy="-0.128919"/>
<feComposite in2="hardAlpha" operator="arithmetic" k2="-1" k3="1"/>
<feColorMatrix type="matrix" values="0 0 0 0 0.796078 0 0 0 0 0.835294 0 0 0 0 0.878431 0 0 0 1 0"/>
<feBlend mode="normal" in2="shape" result="effect1_innerShadow_4087_264802"/>
</filter>
<filter id="filter4_i_4087_264802" x="11.2354" y="8.35156" width="0.419434" height="3.22852" filterUnits="userSpaceOnUse" color-interpolation-filters="sRGB">
<feFlood flood-opacity="0" result="BackgroundImageFix"/>
<feBlend mode="normal" in="SourceGraphic" in2="BackgroundImageFix" result="shape"/>
<feColorMatrix in="SourceAlpha" type="matrix" values="0 0 0 0 0 0 0 0 0 0 0 0 0 0 0 0 0 0 127 0" result="hardAlpha"/>
<feOffset dy="1.28919"/>
<feComposite in2="hardAlpha" operator="arithmetic" k2="-1" k3="1"/>
<feColorMatrix type="matrix" values="0 0 0 0 0 0 0 0 0 0 0 0 0 0 0 0 0 0 0.25 0"/>
<feBlend mode="normal" in2="shape" result="effect1_innerShadow_4087_264802"/>
</filter>
<filter id="filter5_i_4087_264802" x="11.7988" y="8.35156" width="0.419434" height="3.22852" filterUnits="userSpaceOnUse" color-interpolation-filters="sRGB">
<feFlood flood-opacity="0" result="BackgroundImageFix"/>
<feBlend mode="normal" in="SourceGraphic" in2="BackgroundImageFix" result="shape"/>
<feColorMatrix in="SourceAlpha" type="matrix" values="0 0 0 0 0 0 0 0 0 0 0 0 0 0 0 0 0 0 127 0" result="hardAlpha"/>
<feOffset dy="1.28919"/>
<feComposite in2="hardAlpha" operator="arithmetic" k2="-1" k3="1"/>
<feColorMatrix type="matrix" values="0 0 0 0 0 0 0 0 0 0 0 0 0 0 0 0 0 0 0.25 0"/>
<feBlend mode="normal" in2="shape" result="effect1_innerShadow_4087_264802"/>
</filter>
<filter id="filter6_i_4087_264802" x="14.6445" y="10.373" width="1.65625" height="1.65625" filterUnits="userSpaceOnUse" color-interpolation-filters="sRGB">
<feFlood flood-opacity="0" result="BackgroundImageFix"/>
<feBlend mode="normal" in="SourceGraphic" in2="BackgroundImageFix" result="shape"/>
<feColorMatrix in="SourceAlpha" type="matrix" values="0 0 0 0 0 0 0 0 0 0 0 0 0 0 0 0 0 0 127 0" result="hardAlpha"/>
<feOffset dx="0.257839" dy="-0.128919"/>
<feComposite in2="hardAlpha" operator="arithmetic" k2="-1" k3="1"/>
<feColorMatrix type="matrix" values="0 0 0 0 0.796078 0 0 0 0 0.835294 0 0 0 0 0.878431 0 0 0 1 0"/>
<feBlend mode="normal" in2="shape" result="effect1_innerShadow_4087_264802"/>
</filter>
<filter id="filter7_i_4087_264802" x="15.0098" y="8.35156" width="0.419434" height="3.22852" filterUnits="userSpaceOnUse" color-interpolation-filters="sRGB">
<feFlood flood-opacity="0" result="BackgroundImageFix"/>
<feBlend mode="normal" in="SourceGraphic" in2="BackgroundImageFix" result="shape"/>
<feColorMatrix in="SourceAlpha" type="matrix" values="0 0 0 0 0 0 0 0 0 0 0 0 0 0 0 0 0 0 127 0" result="hardAlpha"/>
<feOffset dy="1.28919"/>
<feComposite in2="hardAlpha" operator="arithmetic" k2="-1" k3="1"/>
<feColorMatrix type="matrix" values="0 0 0 0 0 0 0 0 0 0 0 0 0 0 0 0 0 0 0.25 0"/>
<feBlend mode="normal" in2="shape" result="effect1_innerShadow_4087_264802"/>
</filter>
<filter id="filter8_i_4087_264802" x="15.5723" y="8.35156" width="0.419434" height="3.22852" filterUnits="userSpaceOnUse" color-interpolation-filters="sRGB">
<feFlood flood-opacity="0" result="BackgroundImageFix"/>
<feBlend mode="normal" in="SourceGraphic" in2="BackgroundImageFix" result="shape"/>
<feColorMatrix in="SourceAlpha" type="matrix" values="0 0 0 0 0 0 0 0 0 0 0 0 0 0 0 0 0 0 127 0" result="hardAlpha"/>
<feOffset dy="1.28919"/>
<feComposite in2="hardAlpha" operator="arithmetic" k2="-1" k3="1"/>
<feColorMatrix type="matrix" values="0 0 0 0 0 0 0 0 0 0 0 0 0 0 0 0 0 0 0.25 0"/>
<feBlend mode="normal" in2="shape" result="effect1_innerShadow_4087_264802"/>
</filter>
<filter id="filter9_i_4087_264802" x="18.417" y="10.373" width="1.65625" height="1.65625" filterUnits="userSpaceOnUse" color-interpolation-filters="sRGB">
<feFlood flood-opacity="0" result="BackgroundImageFix"/>
<feBlend mode="normal" in="SourceGraphic" in2="BackgroundImageFix" result="shape"/>
<feColorMatrix in="SourceAlpha" type="matrix" values="0 0 0 0 0 0 0 0 0 0 0 0 0 0 0 0 0 0 127 0" result="hardAlpha"/>
<feOffset dx="0.257839" dy="-0.128919"/>
<feComposite in2="hardAlpha" operator="arithmetic" k2="-1" k3="1"/>
<feColorMatrix type="matrix" values="0 0 0 0 0.796078 0 0 0 0 0.835294 0 0 0 0 0.878431 0 0 0 1 0"/>
<feBlend mode="normal" in2="shape" result="effect1_innerShadow_4087_264802"/>
</filter>
<filter id="filter10_i_4087_264802" x="18.7822" y="8.35156" width="0.419434" height="3.22852" filterUnits="userSpaceOnUse" color-interpolation-filters="sRGB">
<feFlood flood-opacity="0" result="BackgroundImageFix"/>
<feBlend mode="normal" in="SourceGraphic" in2="BackgroundImageFix" result="shape"/>
<feColorMatrix in="SourceAlpha" type="matrix" values="0 0 0 0 0 0 0 0 0 0 0 0 0 0 0 0 0 0 127 0" result="hardAlpha"/>
<feOffset dy="1.28919"/>
<feComposite in2="hardAlpha" operator="arithmetic" k2="-1" k3="1"/>
<feColorMatrix type="matrix" values="0 0 0 0 0 0 0 0 0 0 0 0 0 0 0 0 0 0 0.25 0"/>
<feBlend mode="normal" in2="shape" result="effect1_innerShadow_4087_264802"/>
</filter>
<filter id="filter11_i_4087_264802" x="19.3447" y="8.35156" width="0.419434" height="3.22852" filterUnits="userSpaceOnUse" color-interpolation-filters="sRGB">
<feFlood flood-opacity="0" result="BackgroundImageFix"/>
<feBlend mode="normal" in="SourceGraphic" in2="BackgroundImageFix" result="shape"/>
<feColorMatrix in="SourceAlpha" type="matrix" values="0 0 0 0 0 0 0 0 0 0 0 0 0 0 0 0 0 0 127 0" result="hardAlpha"/>
<feOffset dy="1.28919"/>
<feComposite in2="hardAlpha" operator="arithmetic" k2="-1" k3="1"/>
<feColorMatrix type="matrix" values="0 0 0 0 0 0 0 0 0 0 0 0 0 0 0 0 0 0 0.25 0"/>
<feBlend mode="normal" in2="shape" result="effect1_innerShadow_4087_264802"/>
</filter>
<filter id="filter12_i_4087_264802" x="22.1904" y="10.373" width="1.65625" height="1.65625" filterUnits="userSpaceOnUse" color-interpolation-filters="sRGB">
<feFlood flood-opacity="0" result="BackgroundImageFix"/>
<feBlend mode="normal" in="SourceGraphic" in2="BackgroundImageFix" result="shape"/>
<feColorMatrix in="SourceAlpha" type="matrix" values="0 0 0 0 0 0 0 0 0 0 0 0 0 0 0 0 0 0 127 0" result="hardAlpha"/>
<feOffset dx="0.257839" dy="-0.128919"/>
<feComposite in2="hardAlpha" operator="arithmetic" k2="-1" k3="1"/>
<feColorMatrix type="matrix" values="0 0 0 0 0.796078 0 0 0 0 0.835294 0 0 0 0 0.878431 0 0 0 1 0"/>
<feBlend mode="normal" in2="shape" result="effect1_innerShadow_4087_264802"/>
</filter>
<filter id="filter13_i_4087_264802" x="22.5566" y="8.35156" width="0.419434" height="3.22852" filterUnits="userSpaceOnUse" color-interpolation-filters="sRGB">
<feFlood flood-opacity="0" result="BackgroundImageFix"/>
<feBlend mode="normal" in="SourceGraphic" in2="BackgroundImageFix" result="shape"/>
<feColorMatrix in="SourceAlpha" type="matrix" values="0 0 0 0 0 0 0 0 0 0 0 0 0 0 0 0 0 0 127 0" result="hardAlpha"/>
<feOffset dy="1.28919"/>
<feComposite in2="hardAlpha" operator="arithmetic" k2="-1" k3="1"/>
<feColorMatrix type="matrix" values="0 0 0 0 0 0 0 0 0 0 0 0 0 0 0 0 0 0 0.25 0"/>
<feBlend mode="normal" in2="shape" result="effect1_innerShadow_4087_264802"/>
</filter>
<filter id="filter14_i_4087_264802" x="23.1172" y="8.35156" width="0.419434" height="3.22852" filterUnits="userSpaceOnUse" color-interpolation-filters="sRGB">
<feFlood flood-opacity="0" result="BackgroundImageFix"/>
<feBlend mode="normal" in="SourceGraphic" in2="BackgroundImageFix" result="shape"/>
<feColorMatrix in="SourceAlpha" type="matrix" values="0 0 0 0 0 0 0 0 0 0 0 0 0 0 0 0 0 0 127 0" result="hardAlpha"/>
<feOffset dy="1.28919"/>
<feComposite in2="hardAlpha" operator="arithmetic" k2="-1" k3="1"/>
<feColorMatrix type="matrix" values="0 0 0 0 0 0 0 0 0 0 0 0 0 0 0 0 0 0 0.25 0"/>
<feBlend mode="normal" in2="shape" result="effect1_innerShadow_4087_264802"/>
</filter>
<filter id="filter15_i_4087_264802" x="25.9629" y="10.373" width="1.65625" height="1.65625" filterUnits="userSpaceOnUse" color-interpolation-filters="sRGB">
<feFlood flood-opacity="0" result="BackgroundImageFix"/>
<feBlend mode="normal" in="SourceGraphic" in2="BackgroundImageFix" result="shape"/>
<feColorMatrix in="SourceAlpha" type="matrix" values="0 0 0 0 0 0 0 0 0 0 0 0 0 0 0 0 0 0 127 0" result="hardAlpha"/>
<feOffset dx="0.257839" dy="-0.128919"/>
<feComposite in2="hardAlpha" operator="arithmetic" k2="-1" k3="1"/>
<feColorMatrix type="matrix" values="0 0 0 0 0.796078 0 0 0 0 0.835294 0 0 0 0 0.878431 0 0 0 1 0"/>
<feBlend mode="normal" in2="shape" result="effect1_innerShadow_4087_264802"/>
</filter>
<filter id="filter16_i_4087_264802" x="26.3301" y="8.35156" width="0.419434" height="3.22852" filterUnits="userSpaceOnUse" color-interpolation-filters="sRGB">
<feFlood flood-opacity="0" result="BackgroundImageFix"/>
<feBlend mode="normal" in="SourceGraphic" in2="BackgroundImageFix" result="shape"/>
<feColorMatrix in="SourceAlpha" type="matrix" values="0 0 0 0 0 0 0 0 0 0 0 0 0 0 0 0 0 0 127 0" result="hardAlpha"/>
<feOffset dy="1.28919"/>
<feComposite in2="hardAlpha" operator="arithmetic" k2="-1" k3="1"/>
<feColorMatrix type="matrix" values="0 0 0 0 0 0 0 0 0 0 0 0 0 0 0 0 0 0 0.25 0"/>
<feBlend mode="normal" in2="shape" result="effect1_innerShadow_4087_264802"/>
</filter>
<filter id="filter17_i_4087_264802" x="26.8916" y="8.35156" width="0.419434" height="3.22852" filterUnits="userSpaceOnUse" color-interpolation-filters="sRGB">
<feFlood flood-opacity="0" result="BackgroundImageFix"/>
<feBlend mode="normal" in="SourceGraphic" in2="BackgroundImageFix" result="shape"/>
<feColorMatrix in="SourceAlpha" type="matrix" values="0 0 0 0 0 0 0 0 0 0 0 0 0 0 0 0 0 0 127 0" result="hardAlpha"/>
<feOffset dy="1.28919"/>
<feComposite in2="hardAlpha" operator="arithmetic" k2="-1" k3="1"/>
<feColorMatrix type="matrix" values="0 0 0 0 0 0 0 0 0 0 0 0 0 0 0 0 0 0 0.25 0"/>
<feBlend mode="normal" in2="shape" result="effect1_innerShadow_4087_264802"/>
</filter>
<linearGradient id="paint0_linear_4087_264802" x1="35.6919" y1="23.0177" x2="26.672" y2="23.0177" gradientUnits="userSpaceOnUse">
<stop offset="0.36241" stop-color="#718096"/>
<stop offset="0.481531" stop-color="#CBD5E0"/>
<stop offset="0.717241" stop-color="#EDF2F7"/>
</linearGradient>
<linearGradient id="paint1_linear_4087_264802" x1="28.0447" y1="12.6664" x2="34.6589" y2="12.6664" gradientUnits="userSpaceOnUse">
<stop stop-color="#80E2D7"/>
<stop offset="0.513459" stop-color="#349994"/>
</linearGradient>
<linearGradient id="paint2_linear_4087_264802" x1="19.2464" y1="9.36133" x2="19.2464" y2="32.9412" gradientUnits="userSpaceOnUse">
<stop stop-color="#D7DFE8"/>
<stop offset="1" stop-color="#FDFDFD"/>
</linearGradient>
<linearGradient id="paint3_linear_4087_264802" x1="10.6683" y1="8.39683" x2="16.8375" y2="23.5604" gradientUnits="userSpaceOnUse">
<stop stop-color="#8CEADD"/>
<stop offset="0.619792" stop-color="#3BB4AE"/>
</linearGradient>
<radialGradient id="paint4_radial_4087_264802" cx="0" cy="0" r="1" gradientUnits="userSpaceOnUse" gradientTransform="translate(11.4451 9.96586) rotate(90) scale(1.6143 0.236496)">
<stop stop-color="#E2E8F0"/>
<stop offset="1" stop-color="#A0AEC0" stop-opacity="0"/>
</radialGradient>
<radialGradient id="paint5_radial_4087_264802" cx="0" cy="0" r="1" gradientUnits="userSpaceOnUse" gradientTransform="translate(12.0086 9.96586) rotate(90) scale(1.6143 0.236496)">
<stop stop-color="#E2E8F0"/>
<stop offset="1" stop-color="#A0AEC0" stop-opacity="0"/>
</radialGradient>
<radialGradient id="paint6_radial_4087_264802" cx="0" cy="0" r="1" gradientUnits="userSpaceOnUse" gradientTransform="translate(15.2195 9.96586) rotate(90) scale(1.6143 0.236496)">
<stop stop-color="#E2E8F0"/>
<stop offset="1" stop-color="#A0AEC0" stop-opacity="0"/>
</radialGradient>
<radialGradient id="paint7_radial_4087_264802" cx="0" cy="0" r="1" gradientUnits="userSpaceOnUse" gradientTransform="translate(15.782 9.96586) rotate(90) scale(1.6143 0.236496)">
<stop stop-color="#E2E8F0"/>
<stop offset="1" stop-color="#A0AEC0" stop-opacity="0"/>
</radialGradient>
<radialGradient id="paint8_radial_4087_264802" cx="0" cy="0" r="1" gradientUnits="userSpaceOnUse" gradientTransform="translate(18.992 9.96586) rotate(90) scale(1.6143 0.236496)">
<stop stop-color="#E2E8F0"/>
<stop offset="1" stop-color="#A0AEC0" stop-opacity="0"/>
</radialGradient>
<radialGradient id="paint9_radial_4087_264802" cx="0" cy="0" r="1" gradientUnits="userSpaceOnUse" gradientTransform="translate(19.5545 9.96586) rotate(90) scale(1.6143 0.236496)">
<stop stop-color="#E2E8F0"/>
<stop offset="1" stop-color="#A0AEC0" stop-opacity="0"/>
</radialGradient>
<radialGradient id="paint10_radial_4087_264802" cx="0" cy="0" r="1" gradientUnits="userSpaceOnUse" gradientTransform="translate(22.7664 9.96586) rotate(90) scale(1.6143 0.236496)">
<stop stop-color="#E2E8F0"/>
<stop offset="1" stop-color="#A0AEC0" stop-opacity="0"/>
</radialGradient>
<radialGradient id="paint11_radial_4087_264802" cx="0" cy="0" r="1" gradientUnits="userSpaceOnUse" gradientTransform="translate(23.3269 9.96586) rotate(90) scale(1.6143 0.236496)">
<stop stop-color="#E2E8F0"/>
<stop offset="1" stop-color="#A0AEC0" stop-opacity="0"/>
</radialGradient>
<radialGradient id="paint12_radial_4087_264802" cx="0" cy="0" r="1" gradientUnits="userSpaceOnUse" gradientTransform="translate(26.5398 9.96586) rotate(90) scale(1.6143 0.236496)">
<stop stop-color="#E2E8F0"/>
<stop offset="1" stop-color="#A0AEC0" stop-opacity="0"/>
</radialGradient>
<radialGradient id="paint13_radial_4087_264802" cx="0" cy="0" r="1" gradientUnits="userSpaceOnUse" gradientTransform="translate(27.1014 9.96586) rotate(90) scale(1.6143 0.236496)">
<stop stop-color="#E2E8F0"/>
<stop offset="1" stop-color="#A0AEC0" stop-opacity="0"/>
</radialGradient>
<linearGradient id="paint14_linear_4087_264802" x1="23.5193" y1="28.8294" x2="38.585" y2="39.0878" gradientUnits="userSpaceOnUse">
<stop stop-color="#7F8FA9"/>
<stop offset="1" stop-color="#4A5568"/>
</linearGradient>
<linearGradient id="paint15_linear_4087_264802" x1="25.0347" y1="28.5778" x2="26.9962" y2="31.8911" gradientUnits="userSpaceOnUse">
<stop stop-color="#8CEADD"/>
<stop offset="0.619792" stop-color="#3BB4AE"/>
</linearGradient>
<linearGradient id="paint16_linear_4087_264802" x1="33.1881" y1="36.1422" x2="35.1495" y2="39.4555" gradientUnits="userSpaceOnUse">
<stop stop-color="#8CEADD"/>
<stop offset="0.619792" stop-color="#3BB4AE"/>
</linearGradient>
<linearGradient id="paint17_linear_4087_264802" x1="32.7986" y1="30.9377" x2="37.9072" y2="35.2293" gradientUnits="userSpaceOnUse">
<stop stop-color="#8CEADD"/>
<stop offset="0.619792" stop-color="#3BB4AE"/>
</linearGradient>
</defs>
</svg>
