<svg width="25" height="24" viewBox="0 0 25 24" fill="none" xmlns="http://www.w3.org/2000/svg">
<path d="M12.582 2C18.1049 2 22.582 6.47715 22.582 12C22.582 17.5228 18.1049 22 12.582 22C7.05918 22 2.58203 17.5228 2.58203 12C2.58203 6.47715 7.05918 2 12.582 2ZM16.1124 8.46967L16.0282 8.39705C15.7673 8.2034 15.409 8.20101 15.1457 8.38988L15.0517 8.46967L12.582 10.939L10.1124 8.46967L10.0282 8.39705C9.76725 8.2034 9.40904 8.20101 9.14565 8.38988L9.0517 8.46967L8.97908 8.55379C8.78543 8.81478 8.78304 9.17299 8.97191 9.43638L9.0517 9.53033L11.521 12L9.0517 14.4697L8.97908 14.5538C8.78543 14.8148 8.78304 15.173 8.97191 15.4364L9.0517 15.5303L9.13582 15.6029C9.39681 15.7966 9.75502 15.799 10.0184 15.6101L10.1124 15.5303L12.582 13.061L15.0517 15.5303L15.1358 15.6029C15.3968 15.7966 15.755 15.799 16.0184 15.6101L16.1124 15.5303L16.185 15.4462C16.3786 15.1852 16.381 14.827 16.1922 14.5636L16.1124 14.4697L13.643 12L16.1124 9.53033L16.185 9.44621C16.3786 9.18522 16.381 8.82701 16.1922 8.56362L16.1124 8.46967L16.0282 8.39705L16.1124 8.46967Z" fill="#F56565"/>
</svg>
