<svg width="47" height="51" viewBox="0 0 47 51" fill="none" xmlns="http://www.w3.org/2000/svg">
<g clip-path="url(#clip0_2214_226373)">
<path d="M40.6479 0.0689697C44.0353 0.0689697 46.7812 2.80794 46.7812 6.18662V42.8925C46.7812 46.2712 44.0353 49.0101 40.6479 49.0101H27.5926C28.3704 48.0708 29.0479 47.0457 29.6088 45.9513H40.6479C42.3416 45.9513 43.7146 44.5818 43.7146 42.8925V6.18662C43.7146 4.49728 42.3416 3.12779 40.6479 3.12779H16.1146C14.4209 3.12779 13.0479 4.49728 13.0479 6.18662V21.5493C11.9948 21.644 10.9696 21.8352 9.98125 22.114V6.18662C9.98125 2.80793 12.7272 0.0689697 16.1146 0.0689697H40.6479ZM34.5146 24.5396C34.5146 26.2289 35.8876 27.5984 37.5813 27.5984C39.2749 27.5984 40.6479 26.2289 40.6479 24.5396C40.6479 22.8502 39.2749 21.4807 37.5813 21.4807C35.8876 21.4807 34.5146 22.8502 34.5146 24.5396ZM0.78125 38.3043C0.78125 45.9063 6.95972 52.069 14.5812 52.069C22.2028 52.069 28.3813 45.9063 28.3813 38.3043C28.3813 30.7022 22.2028 24.5396 14.5812 24.5396C6.95972 24.5396 0.78125 30.7022 0.78125 38.3043ZM21.7976 37.2216L21.8053 37.2293C21.9491 37.3744 22.0578 37.5411 22.1316 37.7188C22.2054 37.8965 22.2467 38.0911 22.2479 38.2951L22.2479 38.3043L22.2479 38.3134C22.2467 38.5175 22.2054 38.712 22.1316 38.8897C22.0567 39.0701 21.9458 39.2391 21.7988 39.3857L15.6655 45.5034C15.0667 46.1006 14.0958 46.1006 13.497 45.5034C12.8982 44.9061 12.8982 43.9377 13.497 43.3405L17.0128 39.8337H8.44792C7.60108 39.8337 6.91459 39.1489 6.91459 38.3043C6.91459 37.4596 7.60108 36.7749 8.44792 36.7749H17.0128L13.497 33.2681C12.8982 32.6708 12.8982 31.7024 13.497 31.1052C14.0958 30.5079 15.0667 30.5079 15.6655 31.1052L21.7976 37.2216Z" fill="#F56565"/>
</g>
<defs>
<clipPath id="clip0_2214_226373">
<rect width="46.2644" height="50.2069" fill="white" transform="matrix(-1 0 0 1 46.7812 0.0689697)"/>
</clipPath>
</defs>
</svg>
