<svg width="20" height="20" viewBox="0 0 20 20" fill="none" xmlns="http://www.w3.org/2000/svg">
<g clip-path="url(#clip0_2570_20940)">
<path d="M3.25 18.5H16.7477C17.1619 18.5 17.4977 18.8358 17.4977 19.25C17.4977 19.6297 17.2155 19.9435 16.8494 19.9932L16.7477 20H3.25C2.83579 20 2.5 19.6642 2.5 19.25C2.5 18.8703 2.78215 18.5565 3.14823 18.5069L3.25 18.5H16.7477H3.25ZM9.88338 0.00233328L10 -0.00439453C10.5128 -0.00439453 10.9355 0.381646 10.9933 0.878984L11 0.995606V13.5856L14.2941 10.2928C14.6546 9.93238 15.2218 9.90471 15.6141 10.2098L15.7083 10.293C16.0687 10.6535 16.0964 11.2207 15.7913 11.613L15.7081 11.7072L10.7105 16.7038C10.3502 17.064 9.78331 17.0919 9.39103 16.7873L9.29682 16.7042L4.29338 11.7076C3.90259 11.3173 3.90215 10.6842 4.29241 10.2934C4.65265 9.93265 5.21986 9.90453 5.61236 10.2093L5.70662 10.2924L9 13.5806V0.995606C9 0.48277 9.38604 0.0600984 9.88338 0.00233328L10 -0.00439453L9.88338 0.00233328Z" fill="white"/>
</g>
<defs>
<clipPath id="clip0_2570_20940">
<rect width="20" height="20" fill="white"/>
</clipPath>
</defs>
</svg>
