<svg width="24" height="25" viewBox="0 0 24 25" fill="none" xmlns="http://www.w3.org/2000/svg">
<path d="M11.0005 15.0098C11.0005 14.6591 11.0607 14.3225 11.1712 14.0097H4.25278C3.01076 14.0097 2.00391 15.0166 2.00391 16.2586V17.1786C2.00391 17.7506 2.18231 18.3084 2.51427 18.7743C4.05643 20.9387 6.5794 22.0109 10.0004 22.0109C10.3979 22.0109 10.7834 21.9964 11.1566 21.9674C11.0554 21.6667 11.0005 21.3446 11.0005 21.0098V15.0098Z" fill="#718096"/>
<path d="M10.0004 2.0144C12.7618 2.0144 15.0004 4.25298 15.0004 7.0144C15.0004 9.77583 12.7618 12.0144 10.0004 12.0144C7.23894 12.0144 5.00036 9.77583 5.00036 7.0144C5.00036 4.25298 7.23894 2.0144 10.0004 2.0144Z" fill="#718096"/>
<path d="M12.0005 15.0098C12.0005 13.9052 12.8959 13.0098 14.0005 13.0098H21.0005C22.1051 13.0098 23.0005 13.9052 23.0005 15.0098V21.0098C23.0005 22.1143 22.1051 23.0098 21.0005 23.0098H14.0005C12.8959 23.0098 12.0005 22.1143 12.0005 21.0098V15.0098ZM14.5005 16.0098C14.2243 16.0098 14.0005 16.2336 14.0005 16.5098C14.0005 16.7859 14.2243 17.0098 14.5005 17.0098H20.5005C20.7766 17.0098 21.0005 16.7859 21.0005 16.5098C21.0005 16.2336 20.7766 16.0098 20.5005 16.0098H14.5005ZM14.5005 19.0098C14.2243 19.0098 14.0005 19.2336 14.0005 19.5098C14.0005 19.7859 14.2243 20.0098 14.5005 20.0098H20.5005C20.7766 20.0098 21.0005 19.7859 21.0005 19.5098C21.0005 19.2336 20.7766 19.0098 20.5005 19.0098H14.5005Z" fill="#718096"/>
</svg>
