<svg width="24" height="31" viewBox="0 0 24 31" fill="none" xmlns="http://www.w3.org/2000/svg">
<path d="M10.3691 20H14.3691C14.9214 20 15.3691 20.4477 15.3691 21C15.3691 21.5128 14.9831 21.9355 14.4858 21.9933L14.3691 22H10.3691C9.81686 22 9.36914 21.5523 9.36914 21C9.36914 20.4872 9.75518 20.0645 10.2525 20.0067L10.3691 20H14.3691H10.3691ZM8.36914 15H16.3691C16.9214 15 17.3691 15.4477 17.3691 16C17.3691 16.5128 16.9831 16.9355 16.4858 16.9933L16.3691 17H8.36914C7.81686 17 7.36914 16.5523 7.36914 16C7.36914 15.4872 7.75518 15.0645 8.25252 15.0067L8.36914 15H16.3691H8.36914ZM5.36914 10H19.3691C19.9214 10 20.3691 10.4477 20.3691 11C20.3691 11.5128 19.9831 11.9355 19.4858 11.9933L19.3691 12H5.36914C4.81686 12 4.36914 11.5523 4.36914 11C4.36914 10.4872 4.75518 10.0645 5.25252 10.0067L5.36914 10H19.3691H5.36914Z" fill="#718096"/>
</svg>
