<svg width="24" height="23" viewBox="0 0 24 23" fill="none" xmlns="http://www.w3.org/2000/svg">
<path d="M15.3048 8.47368C16.4646 8.47368 17.4048 9.42213 17.4048 10.5921V14.5263H17.4V14.8289C17.4 15.3304 16.9971 15.7368 16.5 15.7368C16.0029 15.7368 15.6 15.3304 15.6 14.8289V12.1053H15.6048V10.5921C15.6048 10.425 15.4705 10.2895 15.3048 10.2895H8.70231C8.53663 10.2895 8.40231 10.425 8.40231 10.5921V14.5263H8.4V14.8289C8.4 15.3304 7.99706 15.7368 7.5 15.7368C7.00294 15.7368 6.6 15.3304 6.6 14.8289V12.1053H6.60231V10.5921C6.60231 9.42213 7.54252 8.47368 8.70231 8.47368H15.3048ZM22.2 10.5921V14.8289C22.2 15.3304 22.6029 15.7368 23.1 15.7368C23.5971 15.7368 24 15.3304 24 14.8289V10.5921C24 9.42213 23.0598 8.47368 21.9 8.47368L17.8496 8.47255C18.2617 8.97541 18.5301 9.60245 18.5914 10.2897L21.9 10.2895C22.0657 10.2895 22.2 10.425 22.2 10.5921ZM0 14.8289C0 15.3304 0.402944 15.7368 0.9 15.7368C1.39706 15.7368 1.8 15.3304 1.8 14.8289V10.5921C1.8 10.425 1.93431 10.2895 2.1 10.2895L5.41574 10.2897C5.47709 9.60245 5.74549 8.97541 6.15754 8.47255L2.1 8.47368C0.940202 8.47368 0 9.42213 0 10.5921V14.8289ZM12 0C13.9882 0 15.6 1.62591 15.6 3.63158C15.6 5.63724 13.9882 7.26316 12 7.26316C10.0118 7.26316 8.4 5.63724 8.4 3.63158C8.4 1.62591 10.0118 0 12 0ZM12 1.81579C11.0059 1.81579 10.2 2.62875 10.2 3.63158C10.2 4.63441 11.0059 5.44737 12 5.44737C12.9941 5.44737 13.8 4.63441 13.8 3.63158C13.8 2.62875 12.9941 1.81579 12 1.81579ZM19.8 1.21053C21.4569 1.21053 22.8 2.56545 22.8 4.23684C22.8 5.90823 21.4569 7.26316 19.8 7.26316C18.1431 7.26316 16.8 5.90823 16.8 4.23684C16.8 2.56545 18.1431 1.21053 19.8 1.21053ZM19.8 3.02632C19.1373 3.02632 18.6 3.56829 18.6 4.23684C18.6 4.9054 19.1373 5.44737 19.8 5.44737C20.4627 5.44737 21 4.9054 21 4.23684C21 3.56829 20.4627 3.02632 19.8 3.02632ZM4.2 1.21053C5.85685 1.21053 7.2 2.56545 7.2 4.23684C7.2 5.90823 5.85685 7.26316 4.2 7.26316C2.54315 7.26316 1.2 5.90823 1.2 4.23684C1.2 2.56545 2.54315 1.21053 4.2 1.21053ZM4.2 3.02632C3.53726 3.02632 3 3.56829 3 4.23684C3 4.9054 3.53726 5.44737 4.2 5.44737C4.86274 5.44737 5.4 4.9054 5.4 4.23684C5.4 3.56829 4.86274 3.02632 4.2 3.02632ZM0.9 16.9474C0.402944 16.9474 0 17.3538 0 17.8553V18.4605C0 20.9676 2.01472 23 4.5 23H19.5C21.9853 23 24 20.9676 24 18.4605V17.8553C24 17.3538 23.5971 16.9474 23.1 16.9474H0.9ZM4.5 21.1842C3.11023 21.1842 1.96571 20.125 1.81648 18.7632H22.1835C22.0343 20.125 20.8898 21.1842 19.5 21.1842H4.5Z" fill="#38B2AC"/>
</svg>
