<svg width="33" height="16" viewBox="0 0 33 16" fill="none" xmlns="http://www.w3.org/2000/svg">
<path d="M5.97692 15.7H6.25384C7.93768 13.0707 11.1647 10.6332 11.7279 7.40659C11.8783 6.54593 11.8528 5.53327 11.6318 4.68977C9.69018 -2.72273 -1.44946 0.473669 0.58246 7.83557C1.39841 10.7916 4.23397 13.2719 5.97692 15.7Z" fill="#DF2328"/>
<path d="M7.3616 0.400024L7.50006 0.543015L7.3616 0.400024ZM4.17698 0.543015L4.31544 0.686006L4.17698 0.543015ZM7.91544 0.543015L8.0539 0.686006L7.91544 0.543015ZM3.90006 0.686006L4.03852 0.828996L3.90006 0.686006ZM8.19237 0.686006L8.33083 0.828996L8.19237 0.686006ZM9.02313 1.11498L9.1616 1.25797L9.02313 1.11498ZM2.79236 1.25797L2.93083 1.40096L2.79236 1.25797ZM9.30006 1.25797L9.43852 1.40096L9.30006 1.25797ZM9.43852 1.40096L9.57698 1.54395L9.43852 1.40096ZM2.10006 1.82993L2.23852 1.97292L2.10006 1.82993ZM1.96159 1.97292L2.10006 2.11591L1.96159 1.97292ZM10.1308 1.97292L10.2693 2.11591L10.1308 1.97292ZM1.82313 2.11591L1.96159 2.2589L1.82313 2.11591ZM5.70006 2.46534C1.09358 3.17467 1.89749 10.5396 6.53083 9.88673C11.2042 9.22826 10.3255 1.75309 5.70006 2.46534ZM10.6847 2.68787L10.8231 2.83086L10.6847 2.68787ZM1.26929 2.83086L1.40775 2.97385L1.26929 2.83086Z" fill="#FAA63C"/>
<path d="M5.42307 3.19248C1.71618 4.07712 3.10605 10.0503 6.80768 9.16801C10.5758 8.27003 9.17745 2.29648 5.42307 3.19248Z" fill="#F7F4F2"/>
<path d="M14.5615 3.11682V13.5551H16.2231V9.26541H18.1615V7.83551H16.2231V4.54673H18.7154V3.11682H14.5615Z" fill="#DF2328"/>
<path d="M19.2693 3.11682C19.2758 5.53937 19.7547 7.99723 19.972 10.4093C20.0361 11.122 19.9465 12.7614 20.3809 13.3259C20.7018 13.743 22.2441 13.7189 22.4896 13.2237C23.0523 12.0885 22.9975 9.68166 23.0077 8.40747H23.1462L23.4818 12.1252L23.7836 13.4081L25.777 13.5551L26.8847 3.11682H25.5001L24.8077 10.6953H24.5308L24.1189 5.54766L23.8137 3.34609L22.3154 3.11682L21.6231 10.9813H21.4847L20.7924 3.11682H19.2693Z" fill="#DF2328"/>
<path d="M27.1616 13.5551H28.6847C28.7571 11.8142 29.3557 11.6963 30.9001 11.6963C30.9308 13.2331 31.2462 13.5551 32.7001 13.5551L31.177 3.11682L28.9259 3.26379L28.3491 5.97663L27.1616 13.5551Z" fill="#DF2328"/>
<path d="M5.83862 3.83179V5.83365H6.39247V3.83179H5.83862Z" fill="#394F6B"/>
<path d="M20.7924 3.83179V4.26076H20.9308L20.7924 3.83179ZM22.177 3.83179V4.26076H22.3154L22.177 3.83179ZM0.715433 3.97478L0.853895 4.11777L0.715433 3.97478ZM5.70005 3.97478C5.70005 5.15674 5.40194 6.33283 6.53082 6.97758L6.2539 6.6916V6.54861C6.59271 6.07373 6.38765 5.77603 5.83851 5.83365L5.70005 3.97478ZM11.377 3.97478L11.5154 4.11777L11.377 3.97478ZM28.5923 4.07015L28.6386 4.16538L28.5923 4.07015ZM0.576972 4.26076L0.715433 4.40375L0.576972 4.26076ZM19.2693 4.26076V4.68973H19.4077L19.2693 4.26076ZM11.5154 4.40375L11.6539 4.54674L11.5154 4.40375ZM23.977 4.40375V4.83272H24.1154L23.977 4.40375ZM16.2231 4.54674V4.68973H18.7154L16.2231 4.54674ZM25.2231 4.68973V5.1187H25.3616L25.2231 4.68973ZM31.3615 4.7851L31.4078 4.88034L31.3615 4.7851ZM0.43851 4.83272L0.576972 4.97571L0.43851 4.83272ZM11.7 4.92809L11.7462 5.02333L11.7 4.92809ZM26.6077 4.83272V5.26169H26.7462L26.6077 4.83272ZM28.4539 4.92809L28.5001 5.02333L28.4539 4.92809ZM20.9769 5.35707L21.0232 5.4523L20.9769 5.35707ZM29.8385 5.35707L29.8847 5.4523L29.8385 5.35707ZM22.0385 5.40468V5.83365H22.177L22.0385 5.40468ZM0.300049 5.54767V6.83459H0.43851L0.300049 5.54767ZM19.4077 5.54767V5.97664H19.5462L19.4077 5.54767Z" fill="#A59D86"/>
<path d="M29.7924 5.54773L29.2385 10.1234H30.6231L29.7924 5.54773Z" fill="#F7F4F2"/>
<path d="M6.53083 6.11963L6.25391 6.5486V6.69159L7.3616 7.26356L6.53083 6.11963Z" fill="#394F6B"/>
</svg>
