<svg width="46" height="46" viewBox="0 0 46 46" fill="none" xmlns="http://www.w3.org/2000/svg">
<rect width="46" height="46" rx="7" fill="#E2E8F0"/>
<g filter="url(#filter0_i_3187_251091)">
<path d="M12.7529 38.5028C12.7529 35.0678 15.5375 32.2832 18.9725 32.2832H27.0279C30.4629 32.2832 33.2475 35.0678 33.2475 38.5028V38.5028C33.2475 38.8815 32.9404 39.1886 32.5617 39.1886H13.4387C13.06 39.1886 12.7529 38.8815 12.7529 38.5028V38.5028Z" fill="url(#paint0_linear_3187_251091)"/>
</g>
<g filter="url(#filter1_i_3187_251091)">
<path fill-rule="evenodd" clip-rule="evenodd" d="M28.9785 28.813C31.7491 25.4077 34.4385 21.3134 34.4385 18.2503C34.4385 11.9331 29.3174 6.81201 23.0003 6.81201C16.6831 6.81201 11.562 11.9331 11.562 18.2503C11.562 21.3134 14.2514 25.4077 17.022 28.813C20.1496 32.6569 25.8509 32.6569 28.9785 28.813ZM22.9798 24.2383C26.2868 24.2383 28.9677 21.5574 28.9677 18.2504C28.9677 14.9434 26.2868 12.2625 22.9798 12.2625C19.6728 12.2625 16.9919 14.9434 16.9919 18.2504C16.9919 21.5574 19.6728 24.2383 22.9798 24.2383Z" fill="url(#paint1_linear_3187_251091)"/>
</g>
<path fill-rule="evenodd" clip-rule="evenodd" d="M23.0005 26.4244C27.4296 26.4244 31.0201 22.8339 31.0201 18.4048C31.0201 13.9757 27.4296 10.3853 23.0005 10.3853C18.5714 10.3853 14.981 13.9757 14.981 18.4048C14.981 22.8339 18.5714 26.4244 23.0005 26.4244ZM23.0003 23.3201C25.7151 23.3201 27.9158 21.1194 27.9158 18.4046C27.9158 15.6899 25.7151 13.4891 23.0003 13.4891C20.2856 13.4891 18.0848 15.6899 18.0848 18.4046C18.0848 21.1194 20.2856 23.3201 23.0003 23.3201Z" fill="url(#paint2_linear_3187_251091)"/>
<g style="mix-blend-mode:overlay">
<path d="M24.0934 29.5057L16.8145 23.6444L28.9204 14.7183L33.7474 19.9666L24.0934 29.5057Z" fill="url(#paint3_linear_3187_251091)"/>
</g>
<g filter="url(#filter2_i_3187_251091)">
<path d="M28.6194 23.9742H17.506C17.0979 23.9742 16.7671 23.6433 16.7671 23.2353V15.4914C16.7671 15.0833 17.0979 14.7524 17.506 14.7524H28.6193C29.0275 14.7524 29.3583 15.0833 29.3583 15.4914V23.2353C29.3583 23.6433 29.0275 23.9742 28.6194 23.9742Z" fill="#2D3748"/>
<path d="M17.4055 18.8315L22.5482 23.9741H28.6193C29.0275 23.9741 29.3583 23.6433 29.3583 23.2352V15.4913C29.3583 15.3372 29.311 15.1941 29.2303 15.0757C29.2226 15.0644 29.2145 15.0533 29.2062 15.0425C29.2044 15.0402 29.2026 15.0379 29.2008 15.0356C29.1939 15.027 29.1869 15.0184 29.1797 15.01C29.1776 15.0076 29.1755 15.0051 29.1734 15.0027C29.1655 14.9938 29.1575 14.9851 29.1493 14.9767C29.1479 14.9753 29.1466 14.9738 29.1453 14.9724C29.1257 14.9526 29.1051 14.934 29.0834 14.9165C29.0809 14.9144 29.0782 14.9124 29.0757 14.9104C29.0674 14.9039 29.059 14.8975 29.0504 14.8914C29.0474 14.8892 29.0443 14.887 29.0412 14.8848C29.0323 14.8786 29.0232 14.8726 29.014 14.8667C29.0115 14.8652 29.0091 14.8635 29.0067 14.862C28.9947 14.8547 28.9826 14.8476 28.9703 14.841C28.9701 14.8409 28.9698 14.8408 28.9696 14.8406C28.9579 14.8343 28.9459 14.8283 28.9338 14.8226C28.9303 14.821 28.9267 14.8194 28.9232 14.8178C28.9141 14.8137 28.9049 14.8098 28.8956 14.806C28.8915 14.8044 28.8874 14.8027 28.8833 14.8011C28.8738 14.7975 28.8643 14.7941 28.8547 14.7909C28.851 14.7897 28.8474 14.7884 28.8437 14.7872C28.8304 14.7829 28.817 14.779 28.8035 14.7755C28.8029 14.7754 28.8023 14.7753 28.8017 14.7751C28.7889 14.7718 28.7758 14.769 28.7627 14.7664C28.7584 14.7656 28.754 14.7649 28.7497 14.7641C28.74 14.7624 28.7303 14.7608 28.7205 14.7595C28.7156 14.7588 28.7107 14.7582 28.7058 14.7576C28.696 14.7564 28.686 14.7556 28.6761 14.7548C28.6716 14.7545 28.6672 14.754 28.6627 14.7538C28.6484 14.753 28.6339 14.7524 28.6194 14.7524H17.506C17.0979 14.7524 16.7671 15.0833 16.7671 15.4914V17.4421C16.7671 17.9978 17.0148 18.4954 17.4055 18.8315Z" fill="#2D3748"/>
<path d="M20.8896 15.0382H20.6827C20.5222 15.0382 20.3921 14.908 20.3921 14.7475V14.5406C20.3921 14.3801 20.5222 14.25 20.6827 14.25H20.8896C21.0501 14.25 21.1802 14.3801 21.1802 14.5406V14.7475C21.1802 14.908 21.0501 15.0382 20.8896 15.0382Z" fill="#2D3748"/>
<path d="M25.4414 15.0382H25.2345C25.0739 15.0382 24.9438 14.908 24.9438 14.7475V14.5406C24.9438 14.3801 25.074 14.25 25.2345 14.25H25.4414C25.6019 14.25 25.732 14.3801 25.732 14.5406V14.7475C25.732 14.908 25.6019 15.0382 25.4414 15.0382Z" fill="#2D3748"/>
<path d="M28.6194 14.7524H17.506C17.0979 14.7524 16.7671 15.0833 16.7671 15.4914V17.4421C16.7671 18.4542 17.5875 19.2747 18.5996 19.2747H27.5258C28.5379 19.2747 29.3583 18.4542 29.3583 17.4421V15.4914C29.3583 15.0833 29.0275 14.7524 28.6194 14.7524Z" fill="#2D3748"/>
<path d="M20.9102 18.7588C20.8362 18.6763 20.7291 18.624 20.6095 18.624H19.6046C19.3816 18.624 19.2007 18.8049 19.2007 19.028V19.4418C19.2007 19.5613 19.2529 19.6684 19.3354 19.7424L20.9075 21.3144C20.9815 21.3969 21.0885 21.4492 21.2081 21.4492H22.213C22.4361 21.4492 22.617 21.2683 22.617 21.0452V20.6314C22.617 20.5119 22.5647 20.4048 22.4822 20.3308L20.9102 18.7588Z" fill="#2D3748"/>
<path d="M20.3407 19.414L20.914 19.1768C20.9742 19.1519 21.0135 19.0931 21.0135 19.028C21.0135 18.8049 20.8326 18.624 20.6096 18.624H19.6046C19.3816 18.624 19.2007 18.8049 19.2007 19.028C19.2007 19.0931 19.24 19.1519 19.3002 19.1769L19.8735 19.4141C20.023 19.476 20.1911 19.476 20.3407 19.414Z" fill="#2D3748"/>
<path d="M20.6096 19.8457H19.6046C19.3816 19.8457 19.2007 19.6649 19.2007 19.4418V19.028C19.2007 18.8049 19.3815 18.624 19.6046 18.624H20.6096C20.8326 18.624 21.0135 18.8049 21.0135 19.028V19.4418C21.0135 19.6649 20.8327 19.8457 20.6096 19.8457Z" fill="#2D3748"/>
<path d="M19.2625 19.1544L19.9537 19.8457H20.6096C20.8327 19.8457 21.0135 19.6648 21.0135 19.4417V19.0279C21.0135 18.923 20.9732 18.8277 20.9077 18.7559L20.9076 18.7559C20.8984 18.7458 20.8887 18.7362 20.8786 18.7271C20.8785 18.7271 20.8784 18.727 20.8784 18.7269C20.8685 18.7181 20.8581 18.7097 20.8474 18.7019C20.8469 18.7015 20.8464 18.7011 20.846 18.7008C20.8357 18.6934 20.8251 18.6865 20.8143 18.6801C20.8131 18.6794 20.8121 18.6787 20.8109 18.6781C20.8007 18.6722 20.7902 18.6668 20.7794 18.6618C20.7775 18.6609 20.7756 18.6599 20.7736 18.659C20.7636 18.6545 20.7533 18.6506 20.7429 18.647C20.7401 18.646 20.7374 18.6448 20.7345 18.6439C20.7247 18.6407 20.7146 18.6381 20.7044 18.6357C20.7009 18.6348 20.6976 18.6337 20.694 18.633C20.6839 18.6308 20.6735 18.6293 20.6631 18.628C20.6595 18.6275 20.656 18.6267 20.6523 18.6263C20.6383 18.6248 20.6241 18.624 20.6096 18.624H19.6046C19.3816 18.624 19.2007 18.8049 19.2007 19.028C19.2008 19.0781 19.2242 19.1244 19.2625 19.1544Z" fill="#2D3748"/>
<path d="M20.3407 19.414L20.914 19.1768C20.9742 19.1519 21.0135 19.0931 21.0135 19.028C21.0135 18.8049 20.8326 18.624 20.6096 18.624H19.6046C19.3816 18.624 19.2007 18.8049 19.2007 19.028C19.2007 19.0931 19.24 19.1519 19.3002 19.1769L19.8735 19.4141C20.023 19.476 20.1911 19.476 20.3407 19.414Z" fill="#2D3748"/>
<path d="M26.8213 18.7588C26.7473 18.6763 26.6403 18.624 26.5207 18.624H25.5158C25.2927 18.624 25.1118 18.8049 25.1118 19.028V19.4418C25.1118 19.5613 25.164 19.6684 25.2466 19.7424L26.8186 21.3144C26.8926 21.3969 26.9997 21.4492 27.1192 21.4492H28.1242C28.3472 21.4492 28.5281 21.2683 28.5281 21.0452V20.6314C28.5281 20.5119 28.4759 20.4048 28.3933 20.3308L26.8213 18.7588Z" fill="#2D3748"/>
<path d="M26.2519 19.414L26.8251 19.1768C26.8854 19.1519 26.9246 19.0931 26.9246 19.028C26.9246 18.8049 26.7438 18.624 26.5207 18.624H25.5158C25.2927 18.624 25.1118 18.8049 25.1118 19.028C25.1118 19.0931 25.1511 19.1519 25.2113 19.1769L25.7846 19.4141C25.9342 19.476 26.1022 19.476 26.2519 19.414Z" fill="#2D3748"/>
<path d="M26.5207 19.8457H25.5158C25.2927 19.8457 25.1118 19.6649 25.1118 19.4418V19.028C25.1118 18.8049 25.2927 18.624 25.5158 18.624H26.5207C26.7438 18.624 26.9246 18.8049 26.9246 19.028V19.4418C26.9247 19.6649 26.7438 19.8457 26.5207 19.8457Z" fill="#2D3748"/>
<path d="M25.1735 19.1544L25.8648 19.8457H26.5207C26.7438 19.8457 26.9246 19.6648 26.9246 19.4417V19.0279C26.9246 18.923 26.8843 18.8277 26.8187 18.7559L26.8187 18.7559C26.8095 18.7458 26.7998 18.7362 26.7896 18.7271C26.7896 18.7271 26.7895 18.727 26.7894 18.7269C26.7795 18.7181 26.7692 18.7097 26.7585 18.7019C26.758 18.7015 26.7575 18.7011 26.757 18.7008C26.7468 18.6934 26.7362 18.6865 26.7254 18.6801C26.7242 18.6794 26.7231 18.6787 26.722 18.6781C26.7118 18.6722 26.7012 18.6668 26.6905 18.6618C26.6886 18.6609 26.6867 18.6599 26.6847 18.659C26.6747 18.6545 26.6644 18.6506 26.654 18.647C26.6512 18.646 26.6485 18.6448 26.6456 18.6439C26.6358 18.6407 26.6257 18.6381 26.6155 18.6357C26.612 18.6348 26.6086 18.6337 26.6051 18.633C26.595 18.6308 26.5846 18.6293 26.5742 18.628C26.5706 18.6275 26.5671 18.6267 26.5634 18.6263C26.5494 18.6248 26.5351 18.624 26.5207 18.624H25.5158C25.2927 18.624 25.1118 18.8049 25.1118 19.028C25.1118 19.0781 25.1353 19.1244 25.1735 19.1544Z" fill="#2D3748"/>
<path d="M26.2519 19.414L26.8251 19.1768C26.8854 19.1519 26.9246 19.0931 26.9246 19.028C26.9246 18.8049 26.7438 18.624 26.5207 18.624H25.5158C25.2927 18.624 25.1118 18.8049 25.1118 19.028C25.1118 19.0931 25.1511 19.1519 25.2113 19.1769L25.7846 19.4141C25.9342 19.476 26.1022 19.476 26.2519 19.414Z" fill="#2D3748"/>
<path d="M16.7671 21.2646V23.2351C16.7671 23.6432 17.0979 23.974 17.506 23.974H28.6193C29.0275 23.974 29.3583 23.6432 29.3583 23.2351V21.2646H16.7671Z" fill="#2D3748"/>
<path d="M25.211 14.6011C25.1665 14.6011 25.1212 14.5938 25.0768 14.5784C24.5205 14.3851 23.8054 14.2787 23.0631 14.2787C22.3209 14.2787 21.6058 14.3851 21.0495 14.5784C20.8364 14.6524 20.6032 14.5396 20.5291 14.3263C20.455 14.113 20.5678 13.8801 20.7811 13.8059C21.4215 13.5835 22.2319 13.4609 23.0631 13.4609C23.8944 13.4609 24.7048 13.5835 25.3451 13.8059C25.5584 13.8801 25.6712 14.113 25.5971 14.3263C25.5385 14.4952 25.3802 14.6011 25.211 14.6011Z" fill="#2D3748"/>
<path d="M24.4192 22.4942C24.4047 22.4659 24.3756 22.4463 24.3416 22.4463H21.7836C21.7354 22.4463 21.6963 22.4854 21.6963 22.5336V22.7851C21.6963 22.8191 21.7159 22.8482 21.7442 22.8626L22.8551 23.9736H25.8985L24.4192 22.4942Z" fill="#2D3748"/>
<path d="M21.6963 22.5336V22.7851C21.6963 22.8333 21.7354 22.8724 21.7836 22.8724H24.3416C24.3899 22.8724 24.429 22.8334 24.429 22.7851V22.5336C24.429 22.4854 24.3899 22.4463 24.3416 22.4463H21.7836C21.7354 22.4463 21.6963 22.4854 21.6963 22.5336Z" fill="#2D3748"/>
<path d="M28.4954 23.9004H17.382C16.9739 23.9004 16.6431 23.5696 16.6431 23.1615V15.4176C16.6431 15.0095 16.9739 14.6787 17.382 14.6787H28.4953C28.9034 14.6787 29.2342 15.0095 29.2342 15.4176V23.1615C29.2343 23.5696 28.9034 23.9004 28.4954 23.9004Z" fill="url(#paint4_linear_3187_251091)"/>
<path d="M17.2815 18.7578L22.4241 23.9004H28.4953C28.9034 23.9004 29.2342 23.5696 29.2342 23.1615V15.4176C29.2342 15.2635 29.187 15.1204 29.1063 15.002C29.0986 14.9906 29.0905 14.9796 29.0821 14.9688C29.0804 14.9665 29.0785 14.9642 29.0767 14.9619C29.0699 14.9532 29.0629 14.9447 29.0557 14.9363C29.0536 14.9339 29.0515 14.9314 29.0493 14.9289C29.0415 14.9201 29.0335 14.9114 29.0253 14.9029C29.0239 14.9016 29.0226 14.9001 29.0212 14.8987C29.0017 14.8789 28.981 14.8603 28.9594 14.8427C28.9568 14.8407 28.9542 14.8387 28.9516 14.8366C28.9434 14.8301 28.9349 14.8238 28.9264 14.8176C28.9233 14.8154 28.9203 14.8132 28.9172 14.8111C28.9083 14.8049 28.8992 14.7989 28.89 14.793C28.8875 14.7915 28.8851 14.7898 28.8826 14.7883C28.8707 14.781 28.8586 14.7739 28.8463 14.7672C28.846 14.7671 28.8458 14.767 28.8456 14.7669C28.8338 14.7606 28.8219 14.7546 28.8098 14.7489C28.8062 14.7472 28.8027 14.7457 28.7992 14.7441C28.7901 14.74 28.7809 14.7361 28.7716 14.7323C28.7675 14.7306 28.7634 14.729 28.7592 14.7274C28.7498 14.7238 28.7403 14.7204 28.7307 14.7172C28.727 14.7159 28.7234 14.7146 28.7197 14.7134C28.7064 14.7092 28.693 14.7053 28.6794 14.7018C28.6789 14.7016 28.6783 14.7015 28.6777 14.7014C28.6648 14.6981 28.6518 14.6953 28.6387 14.6927C28.6344 14.6918 28.63 14.6911 28.6257 14.6904C28.616 14.6886 28.6063 14.6871 28.5965 14.6857C28.5916 14.6851 28.5867 14.6844 28.5818 14.6839C28.5719 14.6827 28.562 14.6818 28.5521 14.6811C28.5476 14.6807 28.5432 14.6803 28.5387 14.6801C28.5243 14.6792 28.5099 14.6787 28.4954 14.6787H17.382C16.9739 14.6787 16.6431 15.0095 16.6431 15.4176V17.3684C16.6431 17.9241 16.8908 18.4217 17.2815 18.7578Z" fill="url(#paint5_linear_3187_251091)"/>
<path d="M20.7651 14.9639H20.5582C20.3977 14.9639 20.2676 14.8338 20.2676 14.6733V14.4664C20.2676 14.3059 20.3977 14.1758 20.5582 14.1758H20.7651C20.9256 14.1758 21.0557 14.3059 21.0557 14.4664V14.6733C21.0557 14.8338 20.9256 14.9639 20.7651 14.9639Z" fill="url(#paint6_linear_3187_251091)"/>
<path d="M25.3169 14.9639H25.11C24.9494 14.9639 24.8193 14.8338 24.8193 14.6733V14.4664C24.8193 14.3059 24.9495 14.1758 25.11 14.1758H25.3169C25.4774 14.1758 25.6075 14.3059 25.6075 14.4664V14.6733C25.6075 14.8338 25.4774 14.9639 25.3169 14.9639Z" fill="url(#paint7_linear_3187_251091)"/>
<path d="M28.5705 14.7871H17.4572C17.0491 14.7871 16.7183 15.1179 16.7183 15.5261V17.4768C16.7183 18.4889 17.5387 19.3093 18.5508 19.3093H27.4769C28.489 19.3093 29.3094 18.4889 29.3094 17.4768V15.5261C29.3095 15.1179 28.9786 14.7871 28.5705 14.7871Z" fill="#2D3748"/>
<path d="M28.4954 14.6787H17.382C16.9739 14.6787 16.6431 15.0095 16.6431 15.4177V17.3684C16.6431 18.3805 17.4635 19.2009 18.4756 19.2009H27.4017C28.4138 19.2009 29.2342 18.3805 29.2342 17.3684V15.4177C29.2343 15.0095 28.9034 14.6787 28.4954 14.6787Z" fill="url(#paint8_linear_3187_251091)"/>
<path d="M16.6431 21.1909V23.1614C16.6431 23.5695 16.9739 23.9003 17.382 23.9003H28.4953C28.9034 23.9003 29.2342 23.5695 29.2342 23.1614V21.1909H16.6431Z" fill="url(#paint9_linear_3187_251091)"/>
<path d="M25.086 14.5274C25.0415 14.5274 24.9962 14.5201 24.9518 14.5046C24.3955 14.3113 23.6804 14.2049 22.9381 14.2049C22.1959 14.2049 21.4808 14.3114 20.9245 14.5046C20.7114 14.5787 20.4782 14.4659 20.4041 14.2526C20.33 14.0393 20.4428 13.8063 20.6561 13.7322C21.2965 13.5097 22.1069 13.3872 22.9381 13.3872C23.7694 13.3872 24.5798 13.5097 25.2201 13.7322C25.4334 13.8063 25.5462 14.0393 25.4721 14.2526C25.4135 14.4215 25.2552 14.5274 25.086 14.5274Z" fill="url(#paint10_linear_3187_251091)"/>
</g>
<defs>
<filter id="filter0_i_3187_251091" x="7.20745" y="29.0483" width="26.0401" height="10.1401" filterUnits="userSpaceOnUse" color-interpolation-filters="sRGB">
<feFlood flood-opacity="0" result="BackgroundImageFix"/>
<feBlend mode="normal" in="SourceGraphic" in2="BackgroundImageFix" result="shape"/>
<feColorMatrix in="SourceAlpha" type="matrix" values="0 0 0 0 0 0 0 0 0 0 0 0 0 0 0 0 0 0 127 0" result="hardAlpha"/>
<feOffset dx="-5.54548" dy="-3.23486"/>
<feGaussianBlur stdDeviation="3.69699"/>
<feComposite in2="hardAlpha" operator="arithmetic" k2="-1" k3="1"/>
<feColorMatrix type="matrix" values="0 0 0 0 0 0 0 0 0 0 0 0 0 0 0 0 0 0 0.25 0"/>
<feBlend mode="normal" in2="shape" result="effect1_innerShadow_3187_251091"/>
</filter>
<filter id="filter1_i_3187_251091" x="6.01653" y="3.57715" width="28.4219" height="28.1187" filterUnits="userSpaceOnUse" color-interpolation-filters="sRGB">
<feFlood flood-opacity="0" result="BackgroundImageFix"/>
<feBlend mode="normal" in="SourceGraphic" in2="BackgroundImageFix" result="shape"/>
<feColorMatrix in="SourceAlpha" type="matrix" values="0 0 0 0 0 0 0 0 0 0 0 0 0 0 0 0 0 0 127 0" result="hardAlpha"/>
<feOffset dx="-5.54548" dy="-3.23486"/>
<feGaussianBlur stdDeviation="7.8561"/>
<feComposite in2="hardAlpha" operator="arithmetic" k2="-1" k3="1"/>
<feColorMatrix type="matrix" values="0 0 0 0 0 0 0 0 0 0 0 0 0 0 0 0 0 0 0.22 0"/>
<feBlend mode="normal" in2="shape" result="effect1_innerShadow_3187_251091"/>
</filter>
<filter id="filter2_i_3187_251091" x="16.6431" y="13.3872" width="12.7153" height="10.5869" filterUnits="userSpaceOnUse" color-interpolation-filters="sRGB">
<feFlood flood-opacity="0" result="BackgroundImageFix"/>
<feBlend mode="normal" in="SourceGraphic" in2="BackgroundImageFix" result="shape"/>
<feColorMatrix in="SourceAlpha" type="matrix" values="0 0 0 0 0 0 0 0 0 0 0 0 0 0 0 0 0 0 127 0" result="hardAlpha"/>
<feOffset dx="0.283777" dy="0.202698"/>
<feComposite in2="hardAlpha" operator="arithmetic" k2="-1" k3="1"/>
<feColorMatrix type="matrix" values="0 0 0 0 1 0 0 0 0 1 0 0 0 0 1 0 0 0 0.5 0"/>
<feBlend mode="normal" in2="shape" result="effect1_innerShadow_3187_251091"/>
</filter>
<linearGradient id="paint0_linear_3187_251091" x1="16.002" y1="31.9277" x2="20.8382" y2="43.9855" gradientUnits="userSpaceOnUse">
<stop stop-color="#8CEADD"/>
<stop offset="0.619792" stop-color="#3BB4AE"/>
</linearGradient>
<linearGradient id="paint1_linear_3187_251091" x1="10.1464" y1="6.57359" x2="39.6725" y2="24.0135" gradientUnits="userSpaceOnUse">
<stop stop-color="#F46363"/>
<stop offset="0.619792" stop-color="#E64040"/>
</linearGradient>
<linearGradient id="paint2_linear_3187_251091" x1="15.2794" y1="9.1606" x2="30.7216" y2="27.649" gradientUnits="userSpaceOnUse">
<stop stop-color="#DF2A2A"/>
<stop offset="0.437194" stop-color="#E64040"/>
<stop offset="0.663644" stop-color="#F46363"/>
</linearGradient>
<linearGradient id="paint3_linear_3187_251091" x1="19.1131" y1="18.9323" x2="27.2731" y2="25.3301" gradientUnits="userSpaceOnUse">
<stop/>
<stop offset="1" stop-opacity="0"/>
</linearGradient>
<linearGradient id="paint4_linear_3187_251091" x1="17.5101" y1="19.2897" x2="31.5885" y2="19.2897" gradientUnits="userSpaceOnUse">
<stop stop-color="#718096"/>
<stop offset="1" stop-color="#4A5568"/>
</linearGradient>
<linearGradient id="paint5_linear_3187_251091" x1="22.9385" y1="22.0779" x2="22.9385" y2="17.7942" gradientUnits="userSpaceOnUse">
<stop stop-color="#2D3748" stop-opacity="0"/>
<stop offset="1" stop-color="#2D3748"/>
</linearGradient>
<linearGradient id="paint6_linear_3187_251091" x1="18.4093" y1="15.7771" x2="17.5423" y2="16.2418" gradientUnits="userSpaceOnUse">
<stop stop-color="#4D4D4D"/>
<stop offset="1" stop-color="#333333"/>
</linearGradient>
<linearGradient id="paint7_linear_3187_251091" x1="19.425" y1="17.6722" x2="18.5579" y2="18.1369" gradientUnits="userSpaceOnUse">
<stop stop-color="#4D4D4D"/>
<stop offset="1" stop-color="#333333"/>
</linearGradient>
<linearGradient id="paint8_linear_3187_251091" x1="22.9421" y1="16.4169" x2="22.0751" y2="21.6651" gradientUnits="userSpaceOnUse">
<stop stop-color="#718096"/>
<stop offset="1" stop-color="#4A5568"/>
</linearGradient>
<linearGradient id="paint9_linear_3187_251091" x1="22.9385" y1="22.196" x2="22.9385" y2="24.3249" gradientUnits="userSpaceOnUse">
<stop stop-color="#2D3748" stop-opacity="0"/>
<stop offset="1" stop-color="#2D3748"/>
</linearGradient>
<linearGradient id="paint10_linear_3187_251091" x1="21.192" y1="13.3285" x2="21.7651" y2="15.4876" gradientUnits="userSpaceOnUse">
<stop stop-color="#8CEADD"/>
<stop offset="0.619792" stop-color="#3BB4AE"/>
</linearGradient>
</defs>
</svg>
