<svg width="17" height="21" viewBox="0 0 17 21" fill="none" xmlns="http://www.w3.org/2000/svg">
<path d="M8.00195 0.125C10.2111 0.125 12.002 1.91586 12.002 4.125V6.125H13.752C14.9946 6.125 16.002 7.13236 16.002 8.375V17.875C16.002 19.1176 14.9946 20.125 13.752 20.125H2.25195C1.00931 20.125 0.00195312 19.1176 0.00195312 17.875V8.375C0.00195312 7.13236 1.00931 6.125 2.25195 6.125H4.00195V4.125C4.00195 1.91586 5.79281 0.125 8.00195 0.125ZM13.752 7.625H2.25195C1.83774 7.625 1.50195 7.96079 1.50195 8.375V17.875C1.50195 18.2892 1.83774 18.625 2.25195 18.625H13.752C14.1662 18.625 14.502 18.2892 14.502 17.875V8.375C14.502 7.96079 14.1662 7.625 13.752 7.625ZM8.00208 11.625C8.83051 11.625 9.50208 12.2966 9.50208 13.125C9.50208 13.9534 8.83051 14.625 8.00208 14.625C7.17365 14.625 6.50208 13.9534 6.50208 13.125C6.50208 12.2966 7.17365 11.625 8.00208 11.625ZM8.00195 1.625C6.62124 1.625 5.50195 2.74429 5.50195 4.125V6.125H10.502V4.125C10.502 2.74429 9.38266 1.625 8.00195 1.625Z" fill="black"/>
</svg>
