<svg width="15" height="14" viewBox="0 0 15 14" fill="none" xmlns="http://www.w3.org/2000/svg">
<path d="M0.994141 6.99803C0.994141 3.13289 4.12746 -0.000427246 7.9926 -0.000427246C11.8577 -0.000427246 14.9911 3.13289 14.9911 6.99803C14.9911 10.8632 11.8577 13.9965 7.9926 13.9965C4.12746 13.9965 0.994141 10.8632 0.994141 6.99803ZM7.9926 0.999573L7.94322 0.999772C8.03452 1.17864 8.1345 1.39461 8.22459 1.63397C8.46767 2.27978 8.68821 3.22554 8.29561 4.06155C7.9339 4.83178 7.31066 5.03126 6.84518 5.15153L6.7779 5.16887C6.32527 5.28545 6.13766 5.33377 6.00256 5.53887C5.87618 5.73074 5.89898 5.97155 6.04244 6.43904C6.05265 6.47231 6.06365 6.50739 6.07511 6.54389C6.13208 6.72542 6.20007 6.94207 6.23553 7.14586C6.2796 7.39918 6.29137 7.7177 6.13137 8.02472C5.97112 8.33223 5.75932 8.54091 5.50958 8.67697C5.27451 8.80503 5.03052 8.85388 4.84547 8.8867L4.77688 8.89879C4.41867 8.96175 4.23697 8.99368 4.06225 9.18086C3.92542 9.32744 3.84023 9.5822 3.79082 9.95279C3.77065 10.104 3.75853 10.2539 3.74606 10.4081L3.73937 10.4902C3.72532 10.6607 3.70803 10.8547 3.67025 11.0207L3.64515 11.131C4.73795 12.2801 6.28162 12.9965 7.9926 12.9965C9.1078 12.9965 10.1519 12.6922 11.0464 12.162C10.967 12.0839 10.8768 11.9875 10.7882 11.8759C10.5512 11.5775 10.2445 11.0683 10.3509 10.4696C10.4019 10.1825 10.556 9.94095 10.7069 9.75399C10.8604 9.56365 11.0461 9.38741 11.2095 9.23698C11.2481 9.20146 11.2852 9.16762 11.3208 9.13511C11.4461 9.02071 11.5534 8.92274 11.6451 8.82667C11.7016 8.76746 11.7419 8.71931 11.7692 8.68048C11.7923 8.6476 11.7995 8.63064 11.8006 8.62804C11.8513 8.46021 11.7897 8.33714 11.7167 8.28072C11.6619 8.23833 11.5216 8.17535 11.271 8.33403C11.1736 8.3957 11.087 8.45053 11.0172 8.49107C10.9648 8.52149 10.8587 8.5831 10.7428 8.60845C10.6796 8.62225 10.541 8.64241 10.3897 8.57134C10.2189 8.49104 10.1404 8.34773 10.1088 8.24925C10.0811 8.16273 10.08 8.0856 10.0803 8.04947C10.0806 8.00716 10.0843 7.96681 10.0874 7.93747C10.09 7.91316 10.0931 7.88727 10.0965 7.85968C10.1221 7.64911 10.1598 7.33933 10.0395 6.87749C9.94276 6.50612 9.80187 6.22363 9.658 5.93517C9.59169 5.80222 9.52474 5.66799 9.4612 5.52321C9.37364 5.32372 9.27736 5.06391 9.29429 4.78733C9.31386 4.46771 9.4759 4.20704 9.73711 4.01112C10.0542 3.77331 10.4529 3.22902 10.7979 2.67782C10.9629 2.41418 11.1042 2.16788 11.2043 1.98732C11.2123 1.97299 11.2199 1.95909 11.2274 1.94563C10.294 1.34683 9.18386 0.999573 7.9926 0.999573Z" fill="#718096"/>
</svg>
