<svg width="669" height="736" viewBox="0 0 669 736" fill="none" xmlns="http://www.w3.org/2000/svg">
<path d="M80.7359 603.994C80.7359 603.994 -39.8379 428.123 15.1661 285.183C70.1701 142.243 167.687 374.823 231.038 373.765C294.389 372.707 35.7393 103.036 226.909 33.3225C388.996 -37.8609 462.384 8.22313 434.36 148.415C401.061 315.014 453.391 349.533 509.57 283.405C574.391 206.99 639.181 296.63 579.945 383.405C520.709 470.18 703.649 405.521 662.341 491.135C624.016 570.489 649.115 592.738 649.115 592.738L601.077 604.053L80.7359 603.994Z" fill="url(#paint0_linear_10368_65403)"/>
<path d="M353.198 143.871C353.198 131.937 340.03 135.741 337.789 136.489C335.547 137.236 330.318 120.04 330.318 120.04C330.318 120.04 303.424 117.797 298.195 123.031C298.195 123.031 296.7 145.461 297.447 159.666C298.195 173.872 302.755 179.839 307.985 179.839C309.639 179.746 311.264 179.366 312.788 178.717V204.868L344.421 188.458L340.525 157.567C340.685 157.473 340.777 157.423 340.777 157.423C340.777 157.423 353.198 155.142 353.198 143.871Z" fill="url(#paint1_linear_10368_65403)"/>
<path d="M297.34 142.475C297.34 142.475 298.799 130.197 298.985 126.798C299.252 121.909 303.802 120.883 306.477 124.312C310.325 129.405 316.855 131.682 323.032 130.084C328.451 128.821 330.733 127.371 331.23 132.844C331.727 138.318 333.59 147.408 335.329 144.976C337.068 142.545 339.014 137.199 342.459 136.578C347.724 135.628 350.98 141.919 349.738 145.671C348.496 149.423 346.739 151.763 340.24 155.311L342.267 171.383C358.37 150.013 364.436 120.666 342.595 113.87C334.436 111.331 325.96 94.8776 310.171 98.6205C298.985 101.273 298.985 109.85 298.189 117.309C283.159 117.931 297.34 142.475 297.34 142.475Z" fill="url(#paint2_linear_10368_65403)"/>
<path d="M344.955 141.321C341.368 140.105 338.046 147.909 337.907 148.242C337.827 148.433 337.916 148.652 338.106 148.732C338.152 148.751 338.201 148.761 338.251 148.761C338.401 148.762 338.537 148.671 338.595 148.533C339.175 147.185 339.886 145.898 340.716 144.688C341.469 144.557 342.245 144.7 342.903 145.09C343.557 145.577 343.974 146.319 344.053 147.132C344.082 147.312 344.238 147.445 344.42 147.445C344.441 147.445 344.461 147.443 344.481 147.44C344.579 147.424 344.667 147.37 344.724 147.289C344.782 147.209 344.805 147.108 344.789 147.011C344.66 145.203 343.119 143.826 341.31 143.9C342.374 142.585 343.586 141.648 344.714 142.029C344.841 142.072 344.98 142.044 345.081 141.956C345.181 141.868 345.227 141.733 345.201 141.602C345.175 141.471 345.081 141.364 344.955 141.321Z" fill="#0B122D"/>
<path d="M312.788 179.092C312.611 179.092 312.459 178.968 312.423 178.795C312.386 178.623 312.476 178.448 312.637 178.376C312.76 178.322 325.034 172.826 330.214 166.183C330.341 166.02 330.576 165.991 330.738 166.118C330.901 166.245 330.93 166.48 330.803 166.643C325.507 173.435 313.45 178.834 312.939 179.06C312.891 179.081 312.84 179.092 312.788 179.092Z" fill="#0B122D"/>
<path d="M330.292 126.363C330.209 126.363 330.128 126.335 330.063 126.284C324.425 121.903 326.523 113.41 326.615 113.051C326.648 112.921 326.747 112.819 326.876 112.782C327.005 112.746 327.143 112.781 327.239 112.875C327.335 112.969 327.373 113.107 327.339 113.236C327.318 113.32 325.274 121.616 330.521 125.694C330.647 125.792 330.697 125.959 330.645 126.11C330.593 126.261 330.452 126.363 330.292 126.363Z" fill="white"/>
<g style="mix-blend-mode:overlay" opacity="0.6">
<g style="mix-blend-mode:overlay" opacity="0.6">
<path d="M312.813 178.889C312.813 178.889 323.578 173.877 327.056 170.23C327.056 170.23 326.253 180.062 319.143 186.971C312.034 193.881 312.813 188.297 312.813 188.297V178.889Z" fill="#030F1C"/>
</g>
</g>
<path d="M315.393 138.922C315.499 140.188 314.961 141.266 314.191 141.33C313.423 141.394 312.713 140.42 312.608 139.154C312.502 137.888 313.041 136.81 313.809 136.746C314.579 136.682 315.288 137.656 315.393 138.922Z" fill="#161B36"/>
<path d="M301.694 141.024C301.799 142.29 301.262 143.368 300.492 143.432C299.724 143.496 299.015 142.522 298.909 141.256C298.804 139.99 299.342 138.912 300.11 138.848C300.88 138.784 301.588 139.758 301.694 141.024Z" fill="#161B36"/>
<path d="M310.684 131.469C311.319 131.075 312.098 130.853 314.027 131.557C315.955 132.26 318.383 134.995 317.587 135.276C316.789 135.558 315.305 133.363 313.597 133.44C311.89 133.515 310.869 133.691 310.437 133.243C309.891 132.682 310.378 131.658 310.684 131.469Z" fill="#161B36"/>
<path d="M300.989 132.475C300.262 132.3 299.454 132.332 297.84 133.603C296.227 134.874 294.772 138.228 295.617 138.247C296.461 138.266 297.189 135.718 298.836 135.256C300.481 134.795 301.505 134.644 301.776 134.085C302.12 133.38 301.339 132.561 300.989 132.475Z" fill="#161B36"/>
<g style="mix-blend-mode:overlay" opacity="0.6">
<g style="mix-blend-mode:overlay" opacity="0.6">
<path d="M306.105 155.244C305.545 155.261 304.988 155.149 304.477 154.916C304.043 154.719 303.719 154.336 303.597 153.875C303.362 152.916 304.229 151.329 305.3 149.508C305.574 149.071 305.821 148.618 306.039 148.152C306.242 147.601 305.769 142.782 305.195 138.442L305.936 138.344C306.135 139.849 307.11 147.408 306.74 148.41C306.51 148.92 306.244 149.414 305.944 149.887C305.27 151.034 304.14 152.955 304.322 153.696C304.393 153.946 304.574 154.15 304.814 154.249C305.921 154.621 307.128 154.557 308.191 154.072L308.478 154.763C307.725 155.075 306.92 155.238 306.105 155.244Z" fill="#030F1C"/>
</g>
</g>
<path d="M318.064 163.475C318.064 165.815 315.576 167.707 312.513 167.707C311.59 167.711 310.676 167.53 309.824 167.176C308.113 166.458 306.955 165.068 306.955 163.475C306.955 161.135 309.443 159.243 312.513 159.243C315.21 159.243 317.466 160.716 317.959 162.668C318.028 162.931 318.063 163.203 318.064 163.475Z" fill="#161B36"/>
<path d="M318.064 163.475C318.064 165.815 315.576 167.707 312.513 167.707C311.59 167.711 310.676 167.53 309.824 167.176C310.66 165.987 313.581 162.331 317.959 162.668C318.028 162.931 318.063 163.203 318.064 163.475Z" fill="#E55151"/>
<path fill-rule="evenodd" clip-rule="evenodd" d="M292.423 624.145H275.477V602.616H293.25L292.423 624.145ZM359.663 603.279L377.182 602.671L377.926 624.145H360.981L359.663 603.279Z" fill="url(#paint3_linear_10368_65403)"/>
<path fill-rule="evenodd" clip-rule="evenodd" d="M392.962 641.391L392.918 641.393C393.288 642.001 393.487 642.697 393.492 643.409V646.342H356.667V643.409C356.668 643.057 356.718 642.706 356.816 642.368L359.87 621.054C359.977 620.309 362.208 619.703 363.11 619.879C363.5 619.76 363.899 619.671 364.303 619.613C363.978 619.101 363.774 618.522 363.704 617.92C363.638 616.937 364.09 615.99 364.896 615.423C365.313 615.06 365.888 614.939 366.416 615.105C367.632 615.481 368.799 617.32 369.735 619.292C370.417 619.288 371.093 619.293 371.743 619.303C372.196 617.442 372.942 615.582 374.179 614.589C374.979 613.932 376.039 613.687 377.045 613.927C378.306 614.188 379.047 614.757 379.249 615.617C379.499 616.682 378.811 618.05 377.786 619.405C378.359 619.425 378.928 619.527 379.116 619.82L392.962 641.391ZM376.256 614.59C375.668 614.588 375.098 614.794 374.647 615.172C373.594 616.017 372.932 617.642 372.513 619.316C374.191 619.352 375.593 619.416 376.241 619.446C376.456 619.456 376.587 619.462 376.619 619.462C376.662 619.456 376.714 619.45 376.766 619.444L376.8 619.441C377.941 618.062 378.737 616.708 378.522 615.787C378.392 615.236 377.845 614.856 376.893 614.658C376.684 614.614 376.47 614.591 376.256 614.59ZM364.448 617.859C364.406 617.123 364.753 616.419 365.364 616.006C365.586 615.797 365.905 615.726 366.195 615.82C367.093 616.097 368.054 617.572 368.899 619.301C367.542 619.323 366.212 619.383 365.099 619.506C364.748 619.02 364.524 618.454 364.448 617.859ZM275.476 619.769C283.396 627.051 292.542 619.769 292.542 619.769C292.542 619.769 297.225 622.112 297.391 625.662C297.556 629.212 297.401 641.568 297.401 641.568V643.876C297.401 644.53 297.142 645.157 296.679 645.619C296.217 646.082 295.591 646.342 294.937 646.342H232.282C231.629 646.342 231.002 646.082 230.54 645.619C230.078 645.157 229.818 644.53 229.818 643.876V640.862H229.953C230.89 637.767 236.738 634.269 242.737 632.818C242.852 632.79 242.975 632.76 243.097 632.73C243.986 632.511 246.446 631.886 249.239 631.015C250.136 630.729 251.1 630.404 252.115 630.043C252.062 629.991 252.028 629.959 252.017 629.95V629.949L252.014 629.946C251.863 629.806 251.854 629.57 251.994 629.419C252.135 629.267 252.371 629.259 252.522 629.399C252.543 629.418 252.68 629.546 252.9 629.761C253.364 629.592 253.839 629.414 254.327 629.227C255.493 628.757 256.753 628.211 258.024 627.639L257.972 627.589C257.82 627.449 257.812 627.212 257.952 627.061C258.092 626.91 258.328 626.901 258.479 627.041C258.497 627.057 258.598 627.152 258.758 627.307C260.364 626.573 261.959 625.813 263.384 625.12C262.144 625.05 259.638 624.757 258.479 623.537C258.036 623.088 257.808 622.471 257.853 621.842C257.814 621.341 258.094 620.87 258.551 620.663C259.675 620.228 261.863 621.913 263.154 623.043C262.909 621.799 262.71 619.944 263.429 619.044C263.742 618.657 264.23 618.455 264.725 618.507C265.196 618.517 265.63 618.768 265.873 619.172C266.598 620.383 265.696 622.99 265.194 624.231C265.974 623.844 266.66 623.5 267.197 623.228C267.611 623.014 268.017 622.808 268.418 622.606L268.515 622.556L268.516 622.557C270.723 621.367 273.058 620.432 275.476 619.769Z" fill="#F47D7D"/>
<g style="mix-blend-mode:overlay" opacity="0.4">
<g style="mix-blend-mode:overlay" opacity="0.4">
<path d="M292.587 639.082C294.051 639.082 295.237 637.894 295.237 636.43C295.237 634.965 294.051 633.778 292.587 633.778C291.124 633.778 289.937 634.965 289.938 636.43C289.938 637.894 291.124 639.082 292.587 639.082Z" fill="#030F1C"/>
</g>
</g>
<g style="mix-blend-mode:overlay" opacity="0.4">
<g style="mix-blend-mode:overlay" opacity="0.4">
<path d="M291.677 632.107H297.467V631.359H291.677C289.002 631.362 286.835 633.531 286.831 636.208V640.863H229.818V643.876C229.818 644.53 230.078 645.157 230.54 645.62C231.002 646.082 231.629 646.342 232.282 646.342H294.937C295.591 646.342 296.217 646.082 296.679 645.62C297.141 645.157 297.401 644.53 297.401 643.876V640.863H287.578V636.208C287.581 633.944 289.415 632.109 291.677 632.107Z" fill="#030F1C"/>
</g>
</g>
<g style="mix-blend-mode:overlay" opacity="0.4">
<g style="mix-blend-mode:overlay" opacity="0.4">
<path d="M385.785 638.077H364.374C360.118 638.077 356.667 640.464 356.667 643.409V646.342H393.492V643.409C393.492 640.464 390.042 638.077 385.785 638.077Z" fill="#030F1C"/>
</g>
</g>
<g style="mix-blend-mode:overlay" opacity="0.4">
<g style="mix-blend-mode:overlay" opacity="0.4">
<path d="M265.194 624.232C265.063 624.556 264.957 624.792 264.917 624.879C264.901 624.914 264.88 624.946 264.854 624.974C266.024 626.126 267.11 627.359 268.106 628.664C268.229 628.829 268.195 629.063 268.03 629.186C267.865 629.309 267.632 629.276 267.508 629.112C266.426 627.7 265.237 626.373 263.953 625.142C263.828 625.14 263.628 625.134 263.384 625.12C261.96 625.813 260.364 626.574 258.758 627.307C260.01 628.52 261.17 629.824 262.229 631.21C262.352 631.375 262.319 631.609 262.154 631.733C261.988 631.857 261.754 631.823 261.631 631.658C260.533 630.228 259.328 628.884 258.025 627.639C256.732 628.221 255.451 628.776 254.268 629.252C253.825 629.43 253.37 629.602 252.911 629.772C254.121 630.954 255.244 632.223 256.271 633.567C256.394 633.733 256.36 633.966 256.195 634.09C256.03 634.213 255.797 634.18 255.673 634.016C254.593 632.608 253.409 631.284 252.129 630.056C247.558 631.675 242.737 632.818 242.737 632.818C242.737 632.818 243.524 635.974 246.256 636.72C248.989 637.465 264.516 632.12 268.619 630.131C272.723 628.142 268.515 622.556 268.515 622.556C268.515 622.556 267.176 623.249 265.194 624.232Z" fill="#030F1C"/>
</g>
</g>
<g style="mix-blend-mode:overlay" opacity="0.4">
<g style="mix-blend-mode:overlay" opacity="0.4">
<path d="M371.169 622.805C371.279 621.626 371.471 620.455 371.744 619.302C371.094 619.292 370.417 619.288 369.735 619.292C370.317 620.518 370.811 621.796 371.169 622.805Z" fill="#030F1C"/>
</g>
</g>
<g style="mix-blend-mode:overlay" opacity="0.4">
<g style="mix-blend-mode:overlay" opacity="0.4">
<path fill-rule="evenodd" clip-rule="evenodd" d="M377.119 620.238C375.862 621.662 374.494 622.984 373.027 624.191C374.544 624.307 376.031 624.679 377.424 625.291C377.544 625.349 377.624 625.467 377.634 625.6C377.643 625.733 377.581 625.861 377.471 625.937C377.361 626.012 377.219 626.022 377.098 625.964C375.493 625.297 373.779 624.929 372.042 624.878C371.945 624.78 371.797 624.752 371.671 624.808C371.545 624.864 371.466 624.992 371.474 625.13C371.291 625.156 371.117 625.045 371.064 624.868C370.478 622.962 369.754 621.101 368.899 619.3C367.542 619.322 366.212 619.382 365.099 619.505C366.686 621.9 370.607 624.151 370.656 624.179C370.797 624.259 370.87 624.421 370.837 624.58C370.805 624.738 370.674 624.858 370.513 624.876C368.473 625.113 366.452 625.484 364.461 625.987C364.428 625.996 364.394 626.001 364.36 626.001C364.174 626.001 364.016 625.863 363.991 625.678C363.965 625.493 364.08 625.318 364.26 625.267C365.941 624.829 367.648 624.495 369.37 624.268C367.996 623.385 365.459 621.573 364.302 619.612C363.081 619.805 362.26 620.102 362.211 620.554C361.958 622.877 362.894 633.177 364.136 633.902C365.378 634.627 382.863 634.461 382.971 634.038C383.219 633.074 378.675 623.11 377.119 620.238ZM364.403 627.824C364.62 627.76 369.806 626.285 378.732 627.814C378.934 627.849 379.071 628.042 379.036 628.245C379.002 628.449 378.809 628.585 378.606 628.551C369.883 627.054 364.683 628.522 364.614 628.541H364.613C364.485 628.579 364.347 628.545 364.251 628.453C364.154 628.361 364.114 628.224 364.146 628.095C364.177 627.965 364.275 627.862 364.403 627.824ZM363.816 631.472C369.289 630.852 374.815 630.853 380.289 631.473C380.493 631.494 380.676 631.348 380.703 631.145C380.727 630.94 380.58 630.754 380.375 630.73C374.838 630.102 369.249 630.103 363.712 630.732C363.518 630.759 363.378 630.932 363.392 631.127C363.405 631.323 363.567 631.475 363.763 631.476C363.781 631.475 363.798 631.474 363.816 631.472Z" fill="#030F1C"/>
</g>
</g>
<g style="mix-blend-mode:overlay" opacity="0.4">
<g style="mix-blend-mode:overlay" opacity="0.4">
<path d="M376.709 619.552C376.669 619.499 376.636 619.462 376.619 619.462C376.49 619.462 374.745 619.365 372.513 619.316C372.133 620.923 371.9 622.561 371.817 624.21C373.587 622.811 375.225 621.251 376.709 619.552Z" fill="#030F1C"/>
</g>
</g>
<path d="M278.208 350.172C278.208 350.172 269.438 461.064 269.934 479.462C270.431 497.861 271.922 611.236 271.922 611.236C271.922 611.236 283.846 617.7 296.268 611.236C296.268 611.236 303.72 541.122 307.198 520.238C310.676 499.353 309.683 471.009 309.683 471.009L327.569 426.753L358.46 612.677C358.46 612.677 374.274 616.705 381.727 611.733C381.727 611.733 380.236 576.428 381.727 541.62C383.217 506.812 380.236 481.451 375.764 468.026C375.764 468.026 385.694 396.914 383.707 350.172H278.208Z" fill="url(#paint4_linear_10368_65403)"/>
<g style="mix-blend-mode:overlay" opacity="0.6">
<g style="mix-blend-mode:overlay" opacity="0.6">
<path d="M356.12 598.595C356.12 598.595 366.888 603.192 381.33 598.595V601.622C373.344 604.374 364.678 604.437 356.653 601.8L356.12 598.595Z" fill="white"/>
</g>
</g>
<g style="mix-blend-mode:overlay" opacity="0.6">
<g style="mix-blend-mode:overlay" opacity="0.6">
<path d="M271.753 598.595C271.753 598.595 283.192 603.192 297.635 598.595L297.257 602.057C297.257 602.057 284.81 606.276 271.796 601.801L271.753 598.595Z" fill="white"/>
</g>
</g>
<g style="mix-blend-mode:overlay" opacity="0.6">
<g style="mix-blend-mode:overlay" opacity="0.6">
<path d="M383.423 380.39C383.401 380.39 383.378 380.388 383.357 380.384C360.249 376.269 364.043 350.633 364.084 350.374C364.117 350.171 364.308 350.032 364.512 350.065C364.715 350.097 364.854 350.288 364.822 350.491C364.782 350.743 361.105 375.662 383.488 379.648C383.678 379.682 383.811 379.856 383.794 380.049C383.777 380.241 383.616 380.389 383.423 380.39Z" fill="#030F1C"/>
</g>
</g>
<g style="mix-blend-mode:overlay" opacity="0.6">
<g style="mix-blend-mode:overlay" opacity="0.6">
<path d="M276.034 375.163C275.862 375.163 275.712 375.046 275.671 374.879C275.63 374.712 275.708 374.538 275.861 374.458C276.022 374.374 292.013 365.821 291.168 350.453C291.162 350.354 291.196 350.257 291.262 350.183C291.328 350.11 291.421 350.065 291.52 350.06C291.619 350.053 291.717 350.086 291.791 350.153C291.865 350.219 291.909 350.313 291.913 350.412C292.786 366.266 276.372 375.034 276.206 375.121C276.153 375.149 276.094 375.163 276.034 375.163Z" fill="#030F1C"/>
</g>
</g>
<g style="mix-blend-mode:overlay" opacity="0.6">
<g style="mix-blend-mode:overlay" opacity="0.6">
<path d="M278.208 350.172L277.735 357.628C319.267 374.104 383.914 362.607 383.914 362.607L383.706 350.172H278.208Z" fill="#030F1C"/>
</g>
</g>
<g style="mix-blend-mode:overlay" opacity="0.6">
<g style="mix-blend-mode:overlay" opacity="0.6">
<path d="M327.569 426.753L317.625 389.708C317.625 389.708 312.415 409.77 314.651 431.477C316.887 453.184 314.651 458.716 314.651 458.716L327.569 426.753Z" fill="#030F1C"/>
</g>
</g>
<g style="mix-blend-mode:overlay" opacity="0.6">
<g style="mix-blend-mode:overlay" opacity="0.6">
<path d="M276.215 377.253C276.215 377.253 280.609 375.287 282.348 382.249C284.087 389.21 282.026 423.521 280.038 442.914C278.051 462.307 275.659 491.894 275.281 507.309C274.903 522.724 270.729 525.718 270.729 525.718C270.729 525.718 269.439 481.851 270.175 470.499C270.912 459.146 272.824 413.927 276.215 377.253Z" fill="white"/>
</g>
</g>
<g style="mix-blend-mode:overlay" opacity="0.6">
<g style="mix-blend-mode:overlay" opacity="0.6">
<path d="M330.467 444.67C330.467 444.67 344.608 461.134 347.889 483.227C351.17 505.32 353.902 549.161 355.558 560.432C357.215 571.704 361.126 584.177 353.886 585.151L330.467 444.67Z" fill="white"/>
</g>
</g>
<g style="mix-blend-mode:overlay" opacity="0.6">
<g style="mix-blend-mode:overlay" opacity="0.6">
<path d="M309.799 477.512C309.786 477.512 309.774 477.511 309.762 477.51C309.663 477.5 309.573 477.452 309.51 477.375C309.447 477.299 309.417 477.2 309.427 477.102C309.439 476.98 310.564 464.864 305.719 456.781C305.613 456.604 305.67 456.374 305.847 456.268C306.024 456.162 306.253 456.22 306.359 456.397C311.334 464.694 310.182 477.051 310.17 477.175C310.151 477.366 309.991 477.512 309.799 477.512Z" fill="#030F1C"/>
</g>
</g>
<path d="M175.788 603.851C153.583 603.592 140.502 583.733 136.737 573.836C166.171 579 176.972 574.912 178.693 572.222C186.697 584.357 208.278 592.34 218.067 594.814C213.226 597.934 197.993 604.109 175.788 603.851Z" fill="#DEE6EE"/>
<path d="M147.018 581.576C154.763 582.76 171.74 583.448 177.678 576.735" stroke="#122746" stroke-width="0.819607" stroke-linecap="round"/>
<path d="M151.907 587.068C159.653 588.251 176.629 588.94 182.568 582.227" stroke="#122746" stroke-width="0.819607" stroke-linecap="round"/>
<path d="M164.488 598.804C165.525 599.1 171.151 600.581 174.41 598.804C177.668 597.026 177.224 597.471 179.594 598.804C181.489 599.87 182.556 600.827 182.852 601.173H183.444H184.481" stroke="#122746" stroke-width="0.819607" stroke-linecap="round"/>
<path d="M469.022 231.156L450.976 219.457C449.743 218.65 446.326 219.907 445.52 221.141L442.473 225.692C441.839 226.667 441.912 227.941 442.652 228.838L419.606 254.842C419.094 255.423 418.319 255.697 417.556 255.568C416.793 255.439 416.151 254.925 415.858 254.208C412.134 245.104 407.887 236.224 403.138 227.611C395.711 214.275 386.681 200.822 376.178 194.858C375.272 194.169 374.263 193.627 373.189 193.251C366.564 190.93 346.193 186.621 346.193 186.621L320.57 198.154L306.776 188.61C306.776 188.61 281.768 199.384 277.793 204.688C277.65 204.89 277.535 205.112 277.453 205.346C270.941 212.078 266.556 223.741 260.111 235.315C254.242 245.858 248.48 256.548 243.469 262.286C242.698 263.154 241.592 263.649 240.433 263.645C239.273 263.642 238.17 263.141 237.404 262.269C237.404 262.269 226.675 250.262 214.415 236.444C215.11 235.454 215.051 234.119 214.27 233.195L210.059 228.224C209.106 227.1 205.82 227.296 204.696 228.249L188.358 242.238C187.234 243.191 187.466 246.827 188.419 247.952L191.912 252.169C192.635 253.019 193.81 253.328 194.856 252.943C214.584 286.615 224.564 301.927 232.121 304.642C238.78 307.034 246.903 304.828 253.115 298.615C264.249 287.481 273.175 277.248 280.374 268.63C281.054 276.989 281.564 284.206 281.602 288.724C281.7 300.37 280.521 313.843 280.194 329.002C280.039 336.18 273.238 350.288 278.786 354.859C296.692 369.611 384.285 354.859 384.285 354.859C384.145 346.253 383.034 337.69 380.973 329.334C376.751 313.277 377.329 305.134 377.826 295.686C378.028 291.851 378.584 277.583 379.196 261.63C387.341 271.991 395.339 281.228 403.228 288.623C417.885 302.363 426.108 301.051 449.081 265.228C451.822 260.953 459.205 250.072 463.801 242.772C464.977 243.234 466.316 242.806 467.008 241.748L470.571 236.294C471.377 235.06 470.255 231.962 469.022 231.156Z" fill="url(#paint5_linear_10368_65403)"/>
<g style="mix-blend-mode:overlay" opacity="0.6">
<g style="mix-blend-mode:overlay" opacity="0.6">
<path d="M265.077 240.472C263.426 244.622 260.938 250.087 255.47 259.037C250.009 267.986 242.964 275.239 234.112 267.785C226.962 261.758 217.878 248.928 215.159 245.28C212.439 241.639 215.159 237.28 215.159 237.28C227.104 250.738 237.406 262.267 237.406 262.267C238.172 263.138 239.274 263.639 240.434 263.643C241.594 263.648 242.7 263.155 243.472 262.289C248.477 256.547 254.245 245.856 260.109 235.314C260.699 234.244 261.282 233.183 261.835 232.114H261.842C261.842 232.114 266.736 236.33 265.077 240.472Z" fill="#DCE4EF"/>
</g>
</g>
<g style="mix-blend-mode:overlay" opacity="0.6">
<g style="mix-blend-mode:overlay" opacity="0.6">
<path d="M277.711 236.192C270.586 245.452 273.372 266.309 267.481 273.542C261.539 280.839 250.416 286.445 253.116 298.615C264.125 287.024 273.354 277.217 280.38 268.698C279.561 258.619 278.494 246.873 277.711 236.192Z" fill="#030F1C"/>
</g>
</g>
<path d="M236.557 277.144C236.407 277.144 236.271 277.054 236.213 276.916C236.154 276.778 236.184 276.618 236.288 276.51C240.683 271.974 240.021 265.736 240.013 265.673C240.002 265.575 240.03 265.476 240.092 265.398C240.153 265.321 240.243 265.271 240.342 265.259C240.44 265.246 240.54 265.274 240.618 265.336C240.696 265.397 240.746 265.488 240.756 265.587C240.787 265.856 241.472 272.233 236.825 277.03C236.755 277.103 236.658 277.144 236.557 277.144Z" fill="#0B122D"/>
<path d="M278.848 251.931C278.663 251.93 278.507 251.795 278.48 251.612C275.99 235.059 277.171 223.085 277.183 222.966C277.208 222.763 277.389 222.615 277.593 222.632C277.691 222.642 277.782 222.691 277.844 222.768C277.907 222.845 277.936 222.943 277.926 223.042C277.914 223.16 276.743 235.048 279.218 251.501C279.233 251.599 279.208 251.699 279.149 251.779C279.09 251.859 279.002 251.912 278.904 251.926C278.886 251.929 278.867 251.931 278.848 251.931Z" fill="#0B122D"/>
<path d="M288.889 341.31C288.824 341.31 288.759 341.293 288.703 341.26C282.185 337.497 279.927 329.442 279.834 329.101C279.799 328.972 279.835 328.834 279.929 328.739C280.023 328.644 280.16 328.606 280.289 328.64C280.419 328.674 280.52 328.775 280.555 328.904C280.577 328.984 282.83 337.006 289.076 340.613C289.222 340.697 289.294 340.87 289.25 341.033C289.206 341.196 289.058 341.31 288.889 341.31Z" fill="#0B122D"/>
<g style="mix-blend-mode:overlay" opacity="0.6">
<g style="mix-blend-mode:overlay" opacity="0.6">
<path d="M379.528 262.054C374.331 255.459 369.073 248.396 363.746 241.051C363.35 247.206 362.645 265.959 367.039 284.375C373.852 312.924 363.207 331.904 352.653 343.091C343.691 352.59 325.16 354.859 311.855 361.416C337.333 362.815 384.286 354.859 384.286 354.859C384.286 354.859 384.286 339.098 379.799 324.53C375.503 309.585 378.501 272.991 379.528 262.054Z" fill="#030F1C"/>
</g>
</g>
<g style="mix-blend-mode:overlay" opacity="0.6">
<g style="mix-blend-mode:overlay" opacity="0.6">
<path d="M330.156 200.414L358.385 189.352L346.194 186.621L330.156 200.414Z" fill="#030F1C"/>
</g>
</g>
<g style="mix-blend-mode:overlay" opacity="0.6">
<g style="mix-blend-mode:overlay" opacity="0.6">
<path d="M195.672 252.479L213.962 236.957C215.06 236.025 200.893 241.377 197.748 247.836C195.711 252.018 192.388 249.854 191.32 247.98C189.823 245.352 191.251 239.761 191.251 239.761C191.23 239.736 188.58 242.092 188.56 242.067L188.358 242.238C187.235 243.191 187.467 246.827 188.42 247.952L191.913 252.169C192.37 252.709 193.023 253.045 193.729 253.103C194.434 253.161 195.133 252.937 195.672 252.479Z" fill="#030F1C"/>
</g>
</g>
<path d="M421.018 269.081C420.916 269.081 420.82 269.04 420.749 268.967C416.102 264.171 416.787 257.794 416.818 257.525C416.843 257.32 417.028 257.174 417.233 257.198C417.437 257.221 417.584 257.406 417.561 257.611C417.554 257.674 416.891 263.912 421.286 268.447C421.39 268.555 421.42 268.715 421.362 268.853C421.303 268.991 421.168 269.081 421.018 269.081Z" fill="#0B122D"/>
<g style="mix-blend-mode:overlay" opacity="0.6">
<g style="mix-blend-mode:overlay" opacity="0.6">
<path d="M443.246 229.387L463.316 242.521C464.521 243.31 455.366 231.24 448.283 230.058C443.698 229.294 444.826 225.49 446.317 223.932C448.41 221.748 454.171 221.529 454.171 221.529C454.189 221.501 451.178 219.629 451.197 219.602L450.976 219.457C449.743 218.65 446.326 219.907 445.52 221.141L442.473 225.692C442.086 226.285 441.95 227.007 442.095 227.7C442.24 228.393 442.654 229 443.246 229.387Z" fill="#030F1C"/>
</g>
</g>
<path d="M368.927 247.405C368.851 247.405 368.777 247.382 368.714 247.339C358.032 239.916 357.999 223.758 358 223.596C357.997 223.496 358.036 223.4 358.107 223.329C358.178 223.259 358.275 223.221 358.375 223.225C358.581 223.226 358.747 223.394 358.747 223.601C358.746 223.759 358.785 239.529 369.14 246.724C369.275 246.817 369.333 246.987 369.284 247.143C369.235 247.299 369.091 247.405 368.927 247.405Z" fill="#0B122D"/>
<path fill-rule="evenodd" clip-rule="evenodd" d="M324.179 190.695C338.447 181.752 342.788 173.858 342.788 173.858L346.193 186.621L330.156 200.414C329.487 198.649 328.669 196.945 327.712 195.318L320.57 198.154L316.403 195.271L312.294 200.699L306.776 188.61L312.242 182.146C312.242 182.146 312.583 187.427 318.958 190.331L320.57 198.154L324.179 190.695Z" fill="#2D2B72"/>
<g style="mix-blend-mode:overlay" opacity="0.6">
<g style="mix-blend-mode:overlay" opacity="0.6">
<path d="M324.18 190.694L320.57 198.154L327.712 195.318C326.787 193.599 325.594 192.039 324.18 190.694Z" fill="#030F1C"/>
</g>
</g>
<g style="mix-blend-mode:overlay" opacity="0.6">
<g style="mix-blend-mode:overlay" opacity="0.6">
<path d="M318.958 190.331L320.571 198.155L316.403 195.271L318.958 190.331Z" fill="#030F1C"/>
</g>
</g>
<path fill-rule="evenodd" clip-rule="evenodd" d="M506.99 169.506C507.673 168.6 510.389 168.329 510.389 168.329C510.389 168.329 508.33 175.703 508.832 182.153C509.181 186.632 507.678 189.285 506.277 191.757C505.661 192.844 505.065 193.897 504.655 195.054C503.311 198.843 500.207 203.291 491.718 204.495C484.477 205.521 474.35 219.021 467.223 229.989L454.391 221.671L472.099 201.361C472.099 201.361 472.664 198.184 476.71 194.414C479.84 191.498 487.023 190.823 490.116 190.667C491.102 190.618 492.061 190.324 492.904 189.811L497.576 186.965C498.223 186.57 498.637 185.884 498.686 185.128C498.914 182.46 498.85 179.775 498.495 177.12C497.841 173.781 501.178 173.126 501.178 173.126L502.954 186.845C502.954 186.845 503.836 176.321 503.75 172.795C503.653 171.904 503.961 171.018 504.589 170.38C505.218 169.742 506.099 169.421 506.99 169.506ZM179.296 200.259C176.166 197.342 168.982 196.668 165.89 196.512C164.903 196.463 163.945 196.169 163.101 195.655L158.43 192.81C157.783 192.415 157.368 191.729 157.32 190.972C157.092 188.304 157.155 185.619 157.51 182.965C158.164 179.626 154.828 178.971 154.828 178.971L153.052 192.689C153.052 192.689 152.169 182.166 152.256 178.639C152.353 177.749 152.044 176.862 151.416 176.225C150.788 175.587 149.906 175.266 149.016 175.351C148.332 174.445 145.617 174.174 145.617 174.174C145.617 174.174 147.676 181.548 147.173 187.997C146.824 192.477 148.327 195.13 149.728 197.602C150.344 198.689 150.94 199.741 151.351 200.898C152.694 204.688 155.798 209.136 164.287 210.339C172.42 211.492 184.196 228.381 191.27 239.745L203.298 229.447L183.906 207.205C183.906 207.205 183.341 204.029 179.296 200.259ZM320.57 198.155L322.984 193.165L319.628 193.586L320.57 198.155Z" fill="url(#paint6_linear_10368_65403)"/>
<path d="M149.291 176.266C149.296 176.167 149.262 176.07 149.196 175.997C149.13 175.923 149.037 175.878 148.939 175.873C148.839 175.864 148.74 175.897 148.666 175.964C148.591 176.031 148.548 176.126 148.545 176.226C148.519 176.71 147.915 188.121 148.761 190.934C148.799 191.063 148.903 191.162 149.033 191.193C149.164 191.224 149.301 191.182 149.393 191.084C149.484 190.986 149.516 190.846 149.476 190.718C148.668 188.03 149.285 176.383 149.291 176.266Z" fill="#0B122D"/>
<path d="M153.671 195.429C153.602 195.234 153.389 195.132 153.194 195.201C152.999 195.27 152.897 195.484 152.966 195.679C153.025 195.844 154.416 199.737 155.982 200.937C156.088 201.019 156.23 201.037 156.354 200.986C156.477 200.935 156.564 200.821 156.581 200.688C156.598 200.555 156.543 200.424 156.436 200.343C155.046 199.278 153.684 195.467 153.671 195.429Z" fill="#0B122D"/>
<path d="M173.009 201.491C164.735 201.069 158.351 193.558 158.286 193.482C158.154 193.324 157.919 193.304 157.761 193.436C157.603 193.569 157.582 193.804 157.714 193.962C157.982 194.282 164.366 201.799 172.971 202.238H172.99C173.192 202.238 173.357 202.077 173.363 201.874C173.368 201.672 173.211 201.502 173.009 201.491Z" fill="#0B122D"/>
<path d="M507.46 170.381C507.458 170.281 507.415 170.185 507.34 170.118C507.266 170.051 507.167 170.019 507.067 170.028C506.968 170.034 506.875 170.078 506.809 170.152C506.743 170.226 506.709 170.323 506.714 170.422C506.72 170.539 507.337 182.185 506.529 184.874C506.5 184.969 506.511 185.071 506.558 185.159C506.605 185.246 506.684 185.311 506.779 185.339C506.814 185.35 506.85 185.355 506.887 185.355C507.051 185.355 507.197 185.247 507.244 185.089C508.089 182.276 507.486 170.866 507.46 170.381Z" fill="#0B122D"/>
<path d="M502.812 189.357C502.617 189.288 502.404 189.39 502.335 189.584C502.321 189.623 500.96 193.434 499.57 194.498C499.406 194.624 499.374 194.858 499.5 195.022C499.625 195.187 499.859 195.218 500.023 195.093C501.59 193.893 502.981 189.999 503.039 189.834C503.108 189.639 503.006 189.426 502.812 189.357Z" fill="#0B122D"/>
<path d="M497.719 187.637C497.655 187.713 491.271 195.225 482.997 195.647C482.795 195.657 482.638 195.827 482.643 196.029C482.648 196.232 482.814 196.393 483.016 196.394L483.035 196.393C491.64 195.955 498.024 188.437 498.292 188.117C498.424 187.959 498.402 187.724 498.245 187.592C498.087 187.459 497.852 187.48 497.719 187.637Z" fill="#0B122D"/>
<path d="M488.985 629.664C513.642 629.378 528.167 607.326 532.348 596.336C499.664 602.07 487.67 597.53 485.759 594.544C476.871 608.019 452.908 616.882 442.037 619.63C447.412 623.094 464.328 629.951 488.985 629.664Z" fill="#ACDBF7" fill-opacity="0.48"/>
<path d="M520.932 604.931C512.331 606.245 493.48 607.009 486.886 599.555" stroke="#122746" stroke-width="0.819607" stroke-linecap="round"/>
<path d="M515.505 611.029C506.904 612.343 488.053 613.108 481.459 605.654" stroke="#122746" stroke-width="0.819607" stroke-linecap="round"/>
<path d="M501.529 624.06C500.378 624.389 494.13 626.034 490.512 624.06C486.893 622.087 487.387 622.58 484.755 624.06C482.651 625.244 481.467 626.307 481.138 626.691H480.48H479.329" stroke="#122746" stroke-width="0.819607" stroke-linecap="round"/>
<path d="M103.751 735.242C141.991 734.797 164.518 700.598 171.001 683.554C120.313 692.446 101.713 685.406 98.7481 680.774C84.9645 701.672 47.8005 715.419 30.9414 719.68C39.2783 725.053 65.5119 735.687 103.751 735.242Z" fill="#D1E7F5"/>
<path d="M153.296 696.883C139.957 698.921 110.722 700.106 100.496 688.546" stroke="#122746" stroke-width="0.819607" stroke-linecap="round"/>
<path d="M144.88 706.341C131.541 708.379 102.306 709.565 92.0801 698.004" stroke="#122746" stroke-width="0.819607" stroke-linecap="round"/>
<path d="M123.208 726.55C121.423 727.06 111.733 729.611 106.121 726.55C100.51 723.489 101.275 724.255 97.1945 726.55C93.93 728.386 92.0938 730.035 91.5837 730.63H90.5635H88.7783" stroke="#122746" stroke-width="0.819607" stroke-linecap="round"/>
<path d="M419.153 712.778C391.899 712.461 375.843 688.086 371.222 675.939C407.349 682.277 420.606 677.259 422.719 673.958C432.542 688.852 459.03 698.65 471.046 701.687C465.104 705.516 446.407 713.095 419.153 712.778Z" fill="#DEE6EE"/>
<path d="M383.841 685.439C393.348 686.891 414.184 687.736 421.473 679.497" stroke="#122746" stroke-width="0.819607" stroke-linecap="round"/>
<path d="M389.84 692.18C399.347 693.632 420.184 694.477 427.472 686.238" stroke="#122746" stroke-width="0.819607" stroke-linecap="round"/>
<path d="M405.285 706.583C406.558 706.947 413.464 708.765 417.463 706.583C421.463 704.402 420.917 704.947 423.826 706.583C426.152 707.892 427.461 709.067 427.825 709.491H428.552H429.824" stroke="#122746" stroke-width="0.819607" stroke-linecap="round"/>
<path d="M376.594 69.1221C375.893 68.9754 375.373 68.6005 375.033 67.9973C374.694 67.3941 374.618 66.6464 374.804 65.7541C375.631 61.8029 377.039 58.5719 379.028 56.0612C381.081 53.5638 383.792 50.9382 387.162 48.1844C389.902 45.8974 391.982 43.9047 393.402 42.2062C394.886 40.521 395.874 38.4994 396.368 36.1414C396.941 33.401 396.4 31.0593 394.744 29.1164C393.102 27.1097 390.592 25.7529 387.215 25.0461C384.347 24.446 381.582 24.4661 378.92 25.1064C376.272 25.683 373.178 26.7984 369.639 28.4525C368.395 28.9906 367.423 29.1863 366.722 29.0396C365.957 28.8795 365.387 28.4275 365.01 27.6835C364.711 26.8891 364.654 26.0458 364.841 25.1536C365.108 23.879 365.851 22.8704 367.071 22.1279C370.127 20.2396 373.618 18.9745 377.544 18.3326C381.547 17.6403 385.365 17.6743 388.997 18.4345C394.542 19.5947 398.716 21.8985 401.52 25.3457C404.388 28.8063 405.356 32.7671 404.422 37.2282C403.715 40.6059 402.369 43.3841 400.383 45.5628C398.474 47.6912 395.707 50.1056 392.082 52.8061C388.688 55.3554 385.973 57.6808 383.937 59.7825C381.977 61.8338 380.512 64.3875 379.54 67.4435C379.329 68.1312 378.961 68.6196 378.435 68.9086C377.909 69.1976 377.295 69.2688 376.594 69.1221ZM373.009 86.7316C371.479 86.4115 370.311 85.6349 369.505 84.4019C368.763 83.1822 368.551 81.8075 368.871 80.278C369.191 78.7485 369.936 77.5739 371.105 76.7543C372.352 75.8843 373.74 75.6093 375.269 75.9294C376.799 76.2494 377.928 77.0512 378.657 78.3347C379.464 79.5677 379.707 80.949 379.387 82.4785C379.067 84.0081 378.29 85.176 377.057 85.9823C375.888 86.8019 374.538 87.0517 373.009 86.7316Z" fill="#27303F"/>
<path d="M409.492 117C409.015 116.805 408.697 116.472 408.535 116.001C408.374 115.53 408.418 114.992 408.667 114.385C409.767 111.699 411.185 109.599 412.919 108.084C414.696 106.586 416.956 105.084 419.699 103.577C421.935 102.318 423.666 101.181 424.892 100.165C426.161 99.1677 427.124 97.8675 427.781 96.2648C428.544 94.4022 428.468 92.6759 427.551 91.0859C426.652 89.4526 425.054 88.1654 422.759 87.2244C420.809 86.4255 418.852 86.0785 416.886 86.1836C414.938 86.2453 412.605 86.6298 409.887 87.337C408.938 87.5549 408.225 87.5663 407.748 87.371C407.228 87.1579 406.884 86.7638 406.715 86.1886C406.607 85.5878 406.677 84.9842 406.926 84.3778C407.281 83.5115 407.938 82.8954 408.898 82.5298C411.305 81.5939 413.938 81.1555 416.798 81.2145C419.719 81.248 422.414 81.7707 424.883 82.7827C428.651 84.3273 431.302 86.5014 432.834 89.305C434.41 92.1264 434.576 95.0532 433.333 98.0854C432.392 100.381 431.078 102.17 429.389 103.451C427.761 104.706 425.49 106.052 422.574 107.487C419.841 108.847 417.618 110.136 415.903 111.356C414.25 112.55 412.88 114.164 411.794 116.198C411.555 116.657 411.231 116.954 410.821 117.09C410.412 117.225 409.968 117.195 409.492 117ZM404.657 128.982C403.617 128.556 402.893 127.855 402.484 126.877C402.118 125.918 402.148 124.919 402.574 123.879C403.001 122.839 403.681 122.106 404.614 121.679C405.609 121.227 406.627 121.214 407.666 121.64C408.706 122.066 409.399 122.781 409.747 123.783C410.156 124.76 410.148 125.769 409.722 126.808C409.296 127.848 408.594 128.572 407.617 128.981C406.683 129.408 405.696 129.408 404.657 128.982Z" fill="#27303F"/>
<path d="M336.556 59.7564C336.249 59.8387 335.968 59.7943 335.712 59.6232C335.457 59.4522 335.277 59.1711 335.172 58.78C334.708 57.0481 334.618 55.4853 334.904 54.0916C335.217 52.6903 335.765 51.1063 336.549 49.3393C337.177 47.8837 337.602 46.677 337.825 45.7192C338.075 44.754 338.062 43.7546 337.785 42.721C337.463 41.5199 336.779 40.7001 335.734 40.2617C334.681 39.7954 333.414 39.7606 331.933 40.1573C330.676 40.4941 329.584 41.0561 328.658 41.8434C327.723 42.6027 326.721 43.6648 325.649 45.0296C325.264 45.4921 324.918 45.7645 324.611 45.8468C324.276 45.9366 323.959 45.8718 323.661 45.6524C323.383 45.3975 323.191 45.0745 323.087 44.6834C322.937 44.1248 323.029 43.576 323.364 43.0373C324.197 41.6764 325.327 40.4754 326.755 39.4342C328.203 38.3576 329.723 37.606 331.315 37.1793C333.745 36.5282 335.862 36.6048 337.664 37.4093C339.494 38.2062 340.671 39.5824 341.195 41.5378C341.592 43.0182 341.615 44.3893 341.264 45.6508C340.934 46.877 340.321 48.3885 339.426 50.1853C338.591 51.876 337.981 53.3418 337.595 54.5829C337.23 55.7886 337.16 57.0946 337.387 58.5007C337.442 58.8155 337.394 59.0829 337.243 59.3029C337.092 59.5229 336.863 59.674 336.556 59.7564ZM338.664 67.4548C337.993 67.6345 337.375 67.5607 336.808 67.2335C336.269 66.8989 335.91 66.3963 335.731 65.7259C335.551 65.0555 335.611 64.4407 335.91 63.8815C336.23 63.2868 336.725 62.8997 337.395 62.7201C338.066 62.5404 338.674 62.6319 339.22 62.9945C339.787 63.3217 340.16 63.8205 340.34 64.4909C340.519 65.1613 340.446 65.7799 340.118 66.3466C339.819 66.9058 339.334 67.2752 338.664 67.4548Z" fill="#27303F"/>
<defs>
<linearGradient id="paint0_linear_10368_65403" x1="334.634" y1="595.564" x2="334.634" y2="-2.01048" gradientUnits="userSpaceOnUse">
<stop stop-color="white" stop-opacity="0"/>
<stop offset="1" stop-color="#E3EFF9"/>
</linearGradient>
<linearGradient id="paint1_linear_10368_65403" x1="325.218" y1="119.562" x2="325.218" y2="204.868" gradientUnits="userSpaceOnUse">
<stop stop-color="#E2B291"/>
<stop offset="1" stop-color="#F7B487"/>
</linearGradient>
<linearGradient id="paint2_linear_10368_65403" x1="324.021" y1="98.0693" x2="324.021" y2="171.383" gradientUnits="userSpaceOnUse">
<stop stop-color="#2D3748"/>
<stop offset="1" stop-color="#1A202C"/>
</linearGradient>
<linearGradient id="paint3_linear_10368_65403" x1="326.702" y1="602.616" x2="326.702" y2="624.145" gradientUnits="userSpaceOnUse">
<stop stop-color="#E2B291"/>
<stop offset="1" stop-color="#F7B487"/>
</linearGradient>
<linearGradient id="paint4_linear_10368_65403" x1="326.942" y1="350.172" x2="326.942" y2="614.217" gradientUnits="userSpaceOnUse">
<stop stop-color="#2C5282"/>
<stop offset="1" stop-color="#2A4365"/>
</linearGradient>
<linearGradient id="paint5_linear_10368_65403" x1="329.225" y1="186.621" x2="329.225" y2="361.416" gradientUnits="userSpaceOnUse">
<stop stop-color="#81E6D9"/>
<stop offset="1" stop-color="#319795"/>
</linearGradient>
<linearGradient id="paint6_linear_10368_65403" x1="328.003" y1="168.329" x2="328.003" y2="239.745" gradientUnits="userSpaceOnUse">
<stop stop-color="#E2B291"/>
<stop offset="1" stop-color="#F7B487"/>
</linearGradient>
</defs>
</svg>
