<svg width="6" height="7" viewBox="0 0 6 7" fill="none" xmlns="http://www.w3.org/2000/svg">
<path d="M3 2.75852C3.13807 2.75852 3.25 2.86659 3.25 2.9999V4.44817C3.25 4.58148 3.13807 4.68955 3 4.68955C2.86193 4.68955 2.75 4.58148 2.75 4.44817V2.9999C2.75 2.86659 2.86193 2.75852 3 2.75852ZM3.00001 2.396C3.20685 2.396 3.37452 2.2341 3.37452 2.0344C3.37452 1.83469 3.20685 1.67279 3.00001 1.67279C2.79317 1.67279 2.62549 1.83469 2.62549 2.0344C2.62549 2.2341 2.79317 2.396 3.00001 2.396ZM0 3.24128C0 1.64156 1.34315 0.344727 3 0.344727C4.65685 0.344727 6 1.64156 6 3.24128C6 4.841 4.65685 6.13783 3 6.13783C1.34315 6.13783 0 4.841 0 3.24128ZM3 0.827485C1.61929 0.827485 0.5 1.90818 0.5 3.24128C0.5 4.57438 1.61929 5.65507 3 5.65507C4.38071 5.65507 5.5 4.57438 5.5 3.24128C5.5 1.90818 4.38071 0.827485 3 0.827485Z" fill="#3182CE"/>
</svg>
