<svg width="17" height="11" viewBox="0 0 17 11" fill="none" xmlns="http://www.w3.org/2000/svg">
<path d="M1.48828 0.5C1.07407 0.5 0.738281 0.835786 0.738281 1.25C0.738281 1.66421 1.07407 2 1.48828 2H15.9883C16.4025 2 16.7383 1.66421 16.7383 1.25C16.7383 0.835786 16.4025 0.5 15.9883 0.5H1.48828ZM1.48828 3.5C1.07407 3.5 0.738281 3.83579 0.738281 4.25C0.738281 4.66421 1.07407 5 1.48828 5H15.9883C16.4025 5 16.7383 4.66421 16.7383 4.25C16.7383 3.83579 16.4025 3.5 15.9883 3.5H1.48828ZM0.738281 7.25C0.738281 6.83579 1.07407 6.5 1.48828 6.5H15.9883C16.4025 6.5 16.7383 6.83579 16.7383 7.25C16.7383 7.66421 16.4025 8 15.9883 8H1.48828C1.07407 8 0.738281 7.66421 0.738281 7.25ZM1.48828 9.5C1.07407 9.5 0.738281 9.83579 0.738281 10.25C0.738281 10.6642 1.07407 11 1.48828 11H10.9883C11.4025 11 11.7383 10.6642 11.7383 10.25C11.7383 9.83579 11.4025 9.5 10.9883 9.5H1.48828Z" fill="#718096"/>
</svg>
