<svg width="12" height="15" viewBox="0 0 12 15" fill="none" xmlns="http://www.w3.org/2000/svg">
<path d="M6 0.00195312C9.31371 0.00195312 12 2.68824 12 6.00195C12 8.86919 10.065 11.5078 6.26844 13.9238C6.10465 14.028 5.89535 14.028 5.73156 13.9238C1.93495 11.5078 0 8.86919 0 6.00195C0 2.68824 2.68629 0.00195312 6 0.00195312ZM6 4.00195C4.89543 4.00195 4 4.89738 4 6.00195C4 7.10652 4.89543 8.00195 6 8.00195C7.10457 8.00195 8 7.10652 8 6.00195C8 4.89738 7.10457 4.00195 6 4.00195Z" fill="#718096"/>
</svg>
