<svg width="24" height="25" viewBox="0 0 24 25" fill="none" xmlns="http://www.w3.org/2000/svg">
<path d="M9.96 6.76667C9.84883 6.8887 9.76057 7.03403 9.70033 7.19425C9.64009 7.35446 9.60907 7.52637 9.60907 7.7C9.60907 7.87363 9.64009 8.04554 9.70033 8.20575C9.76057 8.36597 9.84883 8.5113 9.96 8.63333L12.24 11.1667H1.2C0.54 11.1667 0 11.7667 0 12.5C0 13.2333 0.54 13.8333 1.2 13.8333H12.24L9.96 16.3667C9.84883 16.4887 9.76057 16.634 9.70033 16.7942C9.64009 16.9545 9.60907 17.1264 9.60907 17.3C9.60907 17.4736 9.64009 17.6455 9.70033 17.8058C9.76057 17.966 9.84883 18.1113 9.96 18.2333C10.428 18.7533 11.172 18.7533 11.64 18.2333L15.948 13.4467C16.0592 13.3233 16.1475 13.1768 16.2077 13.0155C16.2679 12.8542 16.2989 12.6813 16.2989 12.5067C16.2989 12.332 16.2679 12.1591 16.2077 11.9978C16.1475 11.8365 16.0592 11.69 15.948 11.5667L11.64 6.76667C11.5302 6.64315 11.3994 6.54508 11.2552 6.47815C11.111 6.41121 10.9563 6.37675 10.8 6.37675C10.6437 6.37675 10.489 6.41121 10.3448 6.47815C10.2006 6.54508 10.0698 6.64315 9.96 6.76667ZM21.6 21.8333H13.2C12.54 21.8333 12 22.4333 12 23.1667C12 23.9 12.54 24.5 13.2 24.5H21.6C22.92 24.5 24 23.3 24 21.8333V3.16667C24 1.7 22.92 0.5 21.6 0.5H13.2C12.54 0.5 12 1.1 12 1.83333C12 2.56667 12.54 3.16667 13.2 3.16667H21.6V21.8333Z" fill="white"/>
</svg>
