<svg width="31" height="32" viewBox="0 0 31 32" fill="none" xmlns="http://www.w3.org/2000/svg">
<path d="M1.59824 0.0315113C0.925795 0.178888 0.392106 0.623697 0.138603 1.25072C-0.0134986 1.63121 -0.00282479 0.607618 0.0025121 15.8678C0.0105174 29.2442 0.0131859 29.9167 0.0585495 30.0695C0.226662 30.6402 0.605581 31.1011 1.10458 31.3423C1.55288 31.5593 1.10725 31.5406 6.02253 31.5486C8.43214 31.554 10.4041 31.5486 10.4041 31.5379C10.4041 31.5084 9.65429 28.7056 9.63828 28.6841C9.63294 28.6707 8.10392 28.6627 6.23868 28.6627H2.85242V15.774V2.88525H9.09392C13.0486 2.88525 15.4582 2.89597 15.677 2.91205C18.3454 3.12106 20.8271 4.14197 22.9218 5.88905C23.3594 6.25347 24.2213 7.12433 24.5763 7.5611C26.2814 9.65384 27.2394 12.0199 27.4849 14.7289C27.5035 14.9272 27.5169 15.3988 27.5169 15.774C27.5169 16.1491 27.5035 16.6207 27.4849 16.819C27.2367 19.5682 26.2654 21.937 24.5095 24.0726C24.1787 24.4745 23.2687 25.3776 22.8524 25.7179C21.3608 26.9397 19.7277 27.7811 17.9291 28.2581C17.0005 28.5019 15.693 28.6815 15.0099 28.6573L14.7697 28.6493L13.2007 23.384C12.3361 20.4873 11.6156 18.0329 11.5996 17.931C11.5676 17.714 11.5862 17.296 11.6396 17.1004C11.8264 16.4278 12.3094 15.8838 12.9392 15.632C13.2033 15.5275 13.4035 15.4953 13.7397 15.498C14.1213 15.5007 14.3668 15.5623 14.7083 15.7391C14.9058 15.841 15.0019 15.9133 15.1967 16.1089C15.4768 16.3876 15.6209 16.618 15.741 16.9771C15.8371 17.2665 15.8718 17.639 15.8237 17.9337C15.8077 18.0382 15.5062 19.0859 15.154 20.2623L14.5135 22.4032L15.2394 24.5817C15.6396 25.7795 15.9732 26.7602 15.9812 26.7602C15.9892 26.7602 16.5709 24.9971 17.2727 22.8427C18.1266 20.2274 18.5722 18.8206 18.6123 18.6143C18.8738 17.3308 18.6203 15.991 17.9131 14.9085C17.15 13.7375 16.0612 12.9926 14.687 12.7032C14.3694 12.6335 14.2894 12.6282 13.7397 12.6282C13.1099 12.6255 12.9632 12.6416 12.4722 12.7648C11.9091 12.9042 11.2981 13.1855 10.8311 13.5178C10.5509 13.7161 10.0572 14.1823 9.83308 14.4583C9.04055 15.4364 8.6216 16.7627 8.723 17.9793C8.73901 18.1749 8.77637 18.4482 8.80305 18.5902C8.84041 18.7751 12.3841 30.7287 12.6216 31.4682L12.651 31.5566H13.8811C15.6957 31.5566 16.5282 31.4923 17.7023 31.2592C21.8678 30.4339 25.4889 27.9794 27.8344 24.3888C29.1767 22.3389 30.0092 20.0184 30.2947 17.5291C30.4388 16.2777 30.4148 14.7959 30.2307 13.499C30.0065 11.9368 29.5182 10.3479 28.8191 8.90088C26.5402 4.18752 22.0572 0.891653 16.9151 0.154772C15.8344 -0.000642776 16.3147 0.0073967 8.73634 0.00203705C2.84708 -0.0033226 1.74501 -0.000642776 1.59824 0.0315113Z" fill="#E53E3E"/>
<path d="M13.4869 5.92934C12.5716 6.01509 11.7844 6.48669 11.2907 7.24769C11.0105 7.68178 10.8638 8.14535 10.8398 8.6759C10.8158 9.2145 10.9038 9.64859 11.128 10.1041C11.4882 10.833 12.1233 11.3635 12.9265 11.6127C13.156 11.6824 13.1933 11.6851 13.7137 11.6851C14.234 11.6851 14.2714 11.6824 14.4982 11.6127C15.3068 11.3608 15.9258 10.8464 16.2861 10.1229C16.5236 9.64859 16.6116 9.22521 16.5876 8.6759C16.5636 8.14535 16.4168 7.68178 16.1366 7.24769C15.7124 6.59388 15.0212 6.11959 14.2874 5.98026C14.0819 5.94006 13.655 5.91327 13.4869 5.92934Z" fill="#E53E3E"/>
</svg>
