<svg width="43" height="43" viewBox="0 0 43 43" fill="none" xmlns="http://www.w3.org/2000/svg">
<g filter="url(#filter0_d_1938_219481)">
<path d="M14.2448 6.16408C16.3294 4.8038 18.8228 4 21.5001 4C28.8984 4 34.8866 10.0388 34.8866 17.4998C34.8866 24.9608 28.8984 31 21.5001 31C14.1017 31 8.11353 24.9608 8.11353 17.5204C8.11353 14.8823 8.86976 12.4296 10.1573 10.348" fill="url(#paint0_linear_1938_219481)"/>
<path d="M15.6503 8.61115C17.2457 7.57886 19.1538 6.96887 21.2028 6.96887C26.8648 6.96887 31.4476 11.5516 31.4476 17.2136C31.4476 22.8756 26.8648 27.4586 21.2028 27.4586C15.5408 27.4586 10.958 22.8756 10.958 17.2293C10.958 15.2272 11.5368 13.366 12.5221 11.7863" fill="url(#paint1_linear_1938_219481)"/>
</g>
<path d="M16.8859 12.1303C18.059 11.145 19.5605 10.5349 21.2185 10.5349C24.9097 10.5349 27.8971 13.5223 27.8971 17.2136C27.8971 20.9048 24.9097 23.8922 21.2185 23.8922C17.5272 23.8922 14.5398 20.9048 14.5398 17.2136C14.5398 15.5869 15.1185 14.0854 16.1039 12.928" fill="url(#paint2_linear_1938_219481)"/>
<path d="M19.3885 14.7424C19.9046 14.3671 20.5303 14.1481 21.2185 14.1481C22.9233 14.1481 24.2997 15.5245 24.2997 17.2293C24.2997 18.9342 22.9233 20.3106 21.2185 20.3106C19.5136 20.3106 18.1372 18.9342 18.1372 17.2293C18.1372 16.635 18.3093 16.0719 18.6064 15.6027" fill="white"/>
<path d="M16.0101 9.72166L15.9945 10.0501L15.898 11.304L15.9163 11.2857L21.3906 16.76C21.5939 16.9633 21.5939 17.2918 21.3906 17.4951C21.1872 17.6984 20.8588 17.6984 20.6555 17.4951L15.1812 12.0208L15.1848 12.0172L13.5858 12.1303C13.1635 12.1616 12.7412 12.0052 12.4283 11.6924L9.3471 8.61117C9.14378 8.39219 9.2689 8.0168 9.5817 8.00118L11.0328 7.9072L10.7392 7.57883C10.5358 7.37547 10.5358 7.04704 10.7392 6.84367C10.9425 6.64036 11.2709 6.64036 11.4743 6.84367L11.7987 7.20246L11.8966 5.70195C11.9122 5.38914 12.2876 5.24836 12.5065 5.46734L15.5722 8.56421C15.885 8.86139 16.0414 9.28369 16.0101 9.72166Z" fill="url(#paint3_linear_1938_219481)"/>
<defs>
<filter id="filter0_d_1938_219481" x="0.34882" y="0.117647" width="42.3026" height="42.5294" filterUnits="userSpaceOnUse" color-interpolation-filters="sRGB">
<feFlood flood-opacity="0" result="BackgroundImageFix"/>
<feColorMatrix in="SourceAlpha" type="matrix" values="0 0 0 0 0 0 0 0 0 0 0 0 0 0 0 0 0 0 127 0" result="hardAlpha"/>
<feOffset dy="3.88235"/>
<feGaussianBlur stdDeviation="3.88235"/>
<feColorMatrix type="matrix" values="0 0 0 0 0.397708 0 0 0 0 0.47749 0 0 0 0 0.575 0 0 0 0.27 0"/>
<feBlend mode="normal" in2="BackgroundImageFix" result="effect1_dropShadow_1938_219481"/>
<feBlend mode="normal" in="SourceGraphic" in2="effect1_dropShadow_1938_219481" result="shape"/>
</filter>
<linearGradient id="paint0_linear_1938_219481" x1="21.4913" y1="3.37549" x2="21.4913" y2="31.2906" gradientUnits="userSpaceOnUse">
<stop stop-color="#8EEADE"/>
<stop offset="0.9964" stop-color="#3CB5AF"/>
</linearGradient>
<linearGradient id="paint1_linear_1938_219481" x1="21.1961" y1="6.49494" x2="21.1961" y2="27.6792" gradientUnits="userSpaceOnUse">
<stop stop-color="#FDFEFF"/>
<stop offset="0.9964" stop-color="#ECF0F5"/>
</linearGradient>
<linearGradient id="paint2_linear_1938_219481" x1="21.2184" y1="10.5349" x2="21.2184" y2="23.8922" gradientUnits="userSpaceOnUse">
<stop stop-color="#F56565"/>
<stop offset="1" stop-color="#E53E3E"/>
</linearGradient>
<linearGradient id="paint3_linear_1938_219481" x1="15.3956" y1="5.36133" x2="21.5001" y2="17.6134" gradientUnits="userSpaceOnUse">
<stop stop-color="#728097"/>
<stop offset="1" stop-color="#2D3749"/>
</linearGradient>
</defs>
</svg>
