<svg width="44" height="56" viewBox="0 0 44 56" fill="none" xmlns="http://www.w3.org/2000/svg">
<path d="M3.78029 0.0401115C2.85087 0.227039 2.11324 0.791225 1.76286 1.58652C1.55263 2.06915 1.56738 0.770836 1.57476 20.1265C1.58583 37.0929 1.58951 37.946 1.65221 38.1397C1.88457 38.8636 2.40829 39.4482 3.09798 39.7541C3.71759 40.0294 3.10167 40.0056 9.8953 40.0158C13.2257 40.0226 15.9513 40.0158 15.9513 40.0022C15.9513 39.9648 14.9149 36.4098 14.8928 36.3826C14.8854 36.3656 12.7721 36.3554 10.194 36.3554H5.51374V20.0076V3.65974H14.1404C19.6063 3.65974 22.9367 3.67334 23.2391 3.69373C26.9273 3.95883 30.3573 5.25374 33.2525 7.4697C33.8574 7.93193 35.0487 9.03651 35.5392 9.5905C37.896 12.2449 39.22 15.246 39.5593 18.6821C39.5852 18.9336 39.6036 19.5317 39.6036 20.0076C39.6036 20.4834 39.5852 21.0816 39.5593 21.3331C39.2163 24.8201 37.8738 27.8246 35.447 30.5334C34.9897 31.0432 33.732 32.1886 33.1567 32.6202C31.095 34.17 28.8378 35.2372 26.352 35.8422C25.0685 36.1515 23.2613 36.3792 22.3171 36.3486L21.9852 36.3384L19.8165 29.6599C18.6215 25.9859 17.6257 22.8727 17.6036 22.7435C17.5593 22.4682 17.5852 21.938 17.6589 21.6899C17.9171 20.8369 18.5847 20.1469 19.4551 19.8274C19.8202 19.6949 20.0968 19.6541 20.5615 19.6575C21.0889 19.6609 21.4282 19.7391 21.9003 19.9634C22.1733 20.0925 22.306 20.1843 22.5753 20.4324C22.9625 20.7859 23.1617 21.0782 23.3277 21.5336C23.4604 21.9007 23.5084 22.3731 23.442 22.7469C23.4199 22.8795 23.0031 24.2084 22.5163 25.7004L21.6311 28.416L22.6343 31.1791C23.1875 32.6984 23.6485 33.9423 23.6596 33.9423C23.6707 33.9423 24.4747 31.7059 25.4447 28.9734C26.6249 25.6562 27.2408 23.8719 27.2961 23.6102C27.6576 21.9822 27.3072 20.2829 26.3298 18.9098C25.275 17.4245 23.7702 16.4797 21.8708 16.1126C21.4319 16.0243 21.3213 16.0175 20.5615 16.0175C19.6911 16.0141 19.4883 16.0345 18.8096 16.1908C18.0314 16.3675 17.1868 16.7244 16.5414 17.1458C16.1541 17.3974 15.4718 17.9887 15.162 18.3388C14.0666 19.5793 13.4876 21.2617 13.6277 22.8047C13.6499 23.0528 13.7015 23.3995 13.7384 23.5796C13.79 23.8141 18.6879 38.9758 19.0162 39.9138L19.0567 40.026H20.757C23.265 40.026 24.4157 39.9444 26.0385 39.6487C31.7957 38.6019 36.8006 35.4887 40.0425 30.9344C41.8976 28.3344 43.0484 25.3911 43.443 22.2337C43.6422 20.6465 43.609 18.767 43.3545 17.1221C43.0447 15.1406 42.3697 13.1252 41.4034 11.2899C38.2537 5.31152 32.0576 1.1311 24.9505 0.196449C23.4567 -0.000675201 24.1206 0.00952148 13.6462 0.00272369C5.50636 -0.0040741 3.98314 -0.000675201 3.78029 0.0401115Z" fill="#E53E3E"/>
<path d="M20.2108 7.52073C18.9458 7.62948 17.8578 8.22766 17.1755 9.19289C16.7882 9.74349 16.5854 10.3315 16.5522 11.0044C16.519 11.6876 16.6407 12.2381 16.9505 12.8159C17.4484 13.7404 18.3262 14.4133 19.4363 14.7294C19.7535 14.8178 19.8051 14.8212 20.5243 14.8212C21.2435 14.8212 21.2952 14.8178 21.6087 14.7294C22.7262 14.4099 23.5818 13.7574 24.0797 12.8397C24.408 12.2381 24.5297 11.7011 24.4965 11.0044C24.4633 10.3315 24.2605 9.74349 23.8732 9.19289C23.2868 8.36361 22.3315 7.76203 21.3173 7.5853C21.0333 7.53432 20.4432 7.50033 20.2108 7.52073Z" fill="#E53E3E"/>
<path d="M9.00303 48.4007C8.56045 48.5536 8.29121 48.9852 8.39079 49.3897C8.43874 49.5902 8.47562 49.6514 8.6379 49.8145C8.78174 49.9641 9.08417 50.0864 9.30915 50.0864C9.38291 50.0864 9.52306 50.0626 9.61158 50.0354C10.3972 49.7873 10.4562 48.7881 9.70747 48.4313C9.54888 48.3565 9.18006 48.3395 9.00303 48.4007Z" fill="#E53E3E"/>
<path d="M25.5406 48.3833C25.2492 48.4717 24.9948 48.6926 24.921 48.9271C24.8067 49.2703 24.921 49.668 25.1939 49.8753C25.8135 50.3443 26.7319 49.9535 26.7282 49.2194C26.7282 48.7469 26.3668 48.3935 25.8541 48.3663C25.7324 48.3595 25.5922 48.3663 25.5406 48.3833Z" fill="#E53E3E"/>
<path d="M0.604866 48.7607C0.317188 48.8049 0.177037 48.8865 0.0848324 49.0598L4.23807e-06 49.2196V52.3294C4.23807e-06 55.7213 -0.00368395 55.6839 0.206542 55.8437C0.383575 55.9796 0.601178 56 1.96949 56C3.33412 56 3.64761 55.9762 4.14921 55.8233C5.60604 55.3882 6.70512 54.1035 6.83789 52.6795C6.91903 51.8264 6.70143 51.0209 6.2109 50.3547C5.84208 49.8483 5.07494 49.2705 4.46639 49.036C3.92423 48.8287 3.69187 48.7913 2.76614 48.7607C1.73345 48.7234 0.833533 48.7267 0.604866 48.7607ZM3.34887 50.5451C4.86471 50.8407 5.48433 52.5741 4.44057 53.6039C4.16765 53.869 3.88735 54.0457 3.56279 54.1511C3.3415 54.2259 3.25667 54.2327 2.61124 54.2327H1.89942V52.3634V50.4941H2.50059C2.87679 50.4941 3.19028 50.5145 3.34887 50.5451Z" fill="#E53E3E"/>
<path d="M21.8824 50.8C21.6095 50.8884 21.3145 51.0481 21.1485 51.1976L21.012 51.3166L20.9862 51.2112C20.9161 50.9121 20.6063 50.783 19.9941 50.8068C19.4151 50.8272 19.227 50.9427 19.1606 51.3268C19.1163 51.5851 19.1126 55.3577 19.1606 55.5378C19.2048 55.7179 19.3007 55.8335 19.4778 55.9151C19.5995 55.9728 19.6954 55.983 20.0826 55.983C20.5879 55.983 20.7649 55.9355 20.9014 55.7621C21.0194 55.6126 21.0415 55.3373 21.0415 54.0967V52.8834L21.1485 52.7475C21.3772 52.4552 21.8382 52.3532 22.2845 52.4993C22.5721 52.5911 22.8414 52.5877 23 52.4892C23.2766 52.3192 23.52 51.6803 23.4389 51.3234C23.3725 51.0345 23.2249 50.9088 22.8303 50.8136C22.4836 50.7286 22.1148 50.7218 21.8824 50.8Z" fill="#E53E3E"/>
<path d="M29.0294 50.8033C28.7638 50.8407 28.6089 50.9189 28.5094 51.0718C28.4393 51.184 28.4356 51.2554 28.4245 52.4143C28.4172 53.2436 28.4245 53.7194 28.454 53.8928C28.6384 54.9701 29.4646 55.7926 30.5305 55.9592C31.128 56.0543 31.5447 55.9422 31.9836 55.5785L32.2049 55.3916L32.227 55.5309C32.2713 55.8334 32.5 55.9728 32.9905 55.9932C33.588 56.0204 33.9236 55.8912 34.0158 55.5989C34.0748 55.4188 34.0785 51.3879 34.0195 51.1942C33.931 50.8985 33.6765 50.7897 33.1011 50.7897C32.6217 50.7931 32.4151 50.8645 32.2897 51.0718L32.1975 51.2248L32.1791 52.4483C32.1644 53.2708 32.1459 53.7024 32.1164 53.7602C32.0463 53.903 31.8472 54.0933 31.6849 54.1715C31.5706 54.2292 31.4636 54.2462 31.2571 54.2462C30.9104 54.2496 30.7481 54.1986 30.56 54.0219C30.3129 53.7976 30.2981 53.7024 30.2981 52.4789C30.2981 51.2622 30.2797 51.1228 30.0916 50.9733C29.8924 50.8101 29.4572 50.7421 29.0294 50.8033Z" fill="#E53E3E"/>
<path d="M38.6336 50.7862C38.3054 50.8406 37.9698 51.0276 37.7448 51.2893C37.5936 51.4626 37.5862 51.4592 37.5456 51.2349C37.4903 50.9222 37.1842 50.7862 36.5756 50.8066C36.1257 50.8202 35.9634 50.8848 35.8306 51.1057L35.7384 51.2587L35.7273 53.2197C35.7163 55.259 35.7347 55.6022 35.8601 55.7586C36.0003 55.9353 36.1478 55.9829 36.5941 55.9965C37.2579 56.0135 37.5124 55.8945 37.5972 55.5241C37.6231 55.4187 37.6378 54.9123 37.6378 54.2359C37.6378 53.0124 37.6599 52.8629 37.848 52.6963C38.1726 52.4108 38.6853 52.5094 38.8623 52.8901C38.8955 52.9648 38.9139 53.3387 38.9287 54.2665C38.9471 55.2556 38.9619 55.5648 39.0024 55.643C39.1463 55.9285 39.375 56.0135 39.954 55.9931C40.4445 55.9795 40.5994 55.9183 40.7359 55.694L40.8281 55.5411L40.8465 54.2495C40.865 53.043 40.8687 52.9478 40.9387 52.8255C41.042 52.6386 41.1748 52.5604 41.4071 52.54C41.7538 52.5162 42.0046 52.6759 42.0968 52.992C42.1226 53.077 42.1374 53.5426 42.1374 54.2393C42.1374 55.4935 42.1558 55.6498 42.3366 55.8163C42.4988 55.9659 42.7054 56.0101 43.1701 55.9931C43.6459 55.9795 43.8155 55.9149 43.9262 55.711C43.9962 55.5818 43.9999 55.5071 43.9999 54.1306C43.9999 52.5366 43.9815 52.3667 43.7565 51.8704C43.4873 51.2757 42.9599 50.8984 42.2554 50.7998C41.728 50.7217 41.1895 50.9188 40.699 51.3708L40.4261 51.6223L40.3671 51.5442C40.2601 51.3844 39.9429 51.0989 39.7843 51.014C39.493 50.8542 38.9213 50.7421 38.6336 50.7862Z" fill="#E53E3E"/>
<path d="M8.84083 50.8476C8.61954 50.8986 8.51996 50.9699 8.43513 51.1399C8.37981 51.2452 8.37243 51.4865 8.36137 53.2437C8.3503 55.2965 8.36506 55.599 8.49414 55.7621C8.64536 55.949 8.77076 55.983 9.29448 55.983C9.8809 55.983 10.0211 55.9355 10.1538 55.6941L10.235 55.5446V53.4034C10.235 51.3132 10.235 51.2588 10.1575 51.1195C10.0469 50.9054 9.84771 50.8272 9.39037 50.8136C9.17646 50.8068 8.95885 50.8204 8.84083 50.8476Z" fill="#E53E3E"/>
<path d="M13.8344 50.8544C12.9529 51.0516 12.123 51.8333 11.8501 52.7271C11.7505 53.0602 11.7395 53.655 11.8317 54.0016C12.1009 55.0179 13.1041 55.8913 14.1147 55.9865C14.6126 56.0341 15.1695 55.8811 15.4572 55.6194L15.6121 55.4835L15.6379 55.5888C15.6711 55.7384 15.837 55.8845 16.0288 55.9355C16.1173 55.9593 16.3645 55.9797 16.5784 55.9797C17.0615 55.9831 17.2644 55.9117 17.375 55.7078C17.4414 55.582 17.4451 55.4801 17.4451 53.4001C17.4451 51.2691 17.4451 51.2215 17.3676 51.0889C17.2533 50.885 17.0873 50.8204 16.6079 50.8068C16.3091 50.7967 16.1727 50.8068 16.0288 50.851C15.8223 50.9122 15.6637 51.0584 15.6305 51.2113C15.6047 51.3336 15.5789 51.3336 15.483 51.2147C15.3871 51.0957 15.033 50.919 14.7527 50.851C14.4872 50.7899 14.1257 50.7899 13.8344 50.8544ZM14.974 52.598C15.2764 52.7237 15.5051 53.0636 15.5088 53.3899C15.5088 53.7026 15.365 53.9541 15.0773 54.1274C14.3913 54.5454 13.4471 53.9031 13.6758 53.1758C13.7495 52.948 13.9819 52.6863 14.1995 52.598C14.395 52.513 14.7748 52.513 14.974 52.598Z" fill="#E53E3E"/>
<path d="M25.3447 50.8475C25.1123 50.9053 24.9832 50.9971 24.9279 51.1432C24.8652 51.303 24.8542 55.4596 24.9169 55.6295C25.0201 55.9048 25.2488 56 25.8131 56C26.3442 55.9966 26.5433 55.9184 26.6761 55.6601C26.7314 55.5514 26.7388 55.3271 26.7388 53.4C26.7388 51.2928 26.7388 51.2554 26.6614 51.1228C26.5433 50.9121 26.3257 50.8272 25.8795 50.8136C25.6508 50.8034 25.4553 50.817 25.3447 50.8475Z" fill="#E53E3E"/>
</svg>
