<svg width="96" height="23" viewBox="0 0 96 23" fill="none" xmlns="http://www.w3.org/2000/svg">
<path d="M1.75482 0.0230694C1.22686 0.130484 0.807851 0.454679 0.60882 0.91168C0.489402 1.189 0.497782 0.442963 0.501972 11.5652C0.508257 21.3146 0.510353 21.8048 0.545969 21.9161C0.677957 22.3321 0.975455 22.668 1.36723 22.8438C1.7192 23.002 1.36933 22.9883 5.22842 22.9941C7.12026 22.998 8.6685 22.9941 8.6685 22.9863C8.6685 22.9648 8.07979 20.922 8.06722 20.9064C8.06303 20.8966 6.86257 20.8908 5.39812 20.8908H2.73949V11.4969V2.103H7.63983C10.7447 2.103 12.6365 2.11082 12.8083 2.12253C14.9034 2.27487 16.8518 3.01896 18.4964 4.2923C18.84 4.55791 19.5167 5.19263 19.7954 5.51097C21.1341 7.03626 21.8862 8.76075 22.079 10.7352C22.0936 10.8797 22.1041 11.2235 22.1041 11.4969C22.1041 11.7703 22.0936 12.114 22.079 12.2586C21.8841 14.2623 21.1215 15.9888 19.743 17.5453C19.4832 17.8382 18.7688 18.4964 18.4419 18.7444C17.2708 19.635 15.9886 20.2482 14.5766 20.5959C13.8475 20.7736 12.8209 20.9044 12.2846 20.8869L12.096 20.881L10.8641 17.0434C10.1853 14.9322 9.61966 13.1433 9.60709 13.069C9.58195 12.9109 9.59661 12.6062 9.63852 12.4636C9.78517 11.9734 10.1644 11.577 10.6588 11.3934C10.8662 11.3172 11.0233 11.2938 11.2873 11.2957C11.5869 11.2977 11.7797 11.3426 12.0478 11.4715C12.2029 11.5457 12.2783 11.5984 12.4312 11.741C12.6512 11.9441 12.7643 12.1121 12.8586 12.3738C12.934 12.5847 12.9613 12.8562 12.9236 13.071C12.911 13.1472 12.6743 13.9108 12.3977 14.7681L11.8949 16.3286L12.4647 17.9164C12.779 18.7894 13.0409 19.5041 13.0472 19.5041C13.0535 19.5041 13.5102 18.2191 14.0612 16.6489C14.7316 14.7428 15.0815 13.7174 15.1129 13.5671C15.3182 12.6316 15.1192 11.6551 14.564 10.8661C13.9648 10.0126 13.11 9.46968 12.0311 9.25876C11.7818 9.20798 11.7189 9.20408 11.2873 9.20408C10.7929 9.20212 10.6777 9.21384 10.2922 9.30368C9.85012 9.40523 9.37035 9.6103 9.00371 9.85247C8.78373 9.99699 8.39615 10.3368 8.22016 10.538C7.59793 11.2508 7.26901 12.2175 7.34862 13.1042C7.36119 13.2468 7.39052 13.446 7.41147 13.5495C7.4408 13.6842 10.223 22.3965 10.4095 22.9356L10.4325 23H11.3984C12.823 23 13.4767 22.9531 14.3985 22.7832C17.6689 22.1817 20.5119 20.3928 22.3534 17.7758C23.4072 16.2817 24.0609 14.5904 24.2851 12.7761C24.3982 11.864 24.3793 10.784 24.2348 9.8388C24.0588 8.7002 23.6754 7.54208 23.1265 6.48747C21.3373 3.05216 17.8176 0.649979 13.7804 0.112907C12.9319 -0.000366211 13.3091 0.00549126 7.35909 0.00158691C2.7353 -0.00231934 1.87004 -0.000366211 1.75482 0.0230694Z" fill="#E53E3E"/>
<path d="M11.0891 4.32127C10.3705 4.38377 9.75247 4.72749 9.36488 5.28214C9.1449 5.59853 9.02968 5.93639 9.01082 6.32309C8.99196 6.71564 9.0611 7.03202 9.23709 7.36403C9.51992 7.89525 10.0185 8.28194 10.6492 8.46357C10.8293 8.51434 10.8587 8.5163 11.2672 8.5163C11.6757 8.5163 11.7051 8.51434 11.8831 8.46357C12.5179 8.27998 13.004 7.90501 13.2868 7.3777C13.4733 7.03202 13.5424 6.72345 13.5236 6.32309C13.5047 5.93639 13.3895 5.59853 13.1695 5.28214C12.8364 4.80561 12.2938 4.45993 11.7176 4.35838C11.5563 4.32908 11.2211 4.30955 11.0891 4.32127Z" fill="#E53E3E"/>
<path d="M53.465 8.8993C52.9464 9.06564 52.3856 9.36633 52.0702 9.64783L51.8109 9.87175L51.7618 9.67342C51.6286 9.11043 51.0399 8.86731 49.8764 8.9121C48.7759 8.95048 48.4185 9.168 48.2923 9.89094C48.2082 10.3772 48.2012 17.4786 48.2923 17.8177C48.3764 18.1567 48.5586 18.3743 48.8951 18.5278C49.1264 18.6366 49.3086 18.6558 50.0446 18.6558C51.0048 18.6558 51.3413 18.5662 51.6006 18.2399C51.8249 17.9584 51.867 17.4402 51.867 15.1051V12.8211L52.0702 12.5652C52.5048 12.015 53.3809 11.823 54.229 12.0981C54.7757 12.2709 55.2874 12.2645 55.5888 12.0789C56.1145 11.7591 56.5771 10.5563 56.4229 9.88455C56.2967 9.34074 56.0164 9.10403 55.2664 8.92489C54.6075 8.76495 53.9066 8.75216 53.465 8.8993Z" fill="#E53E3E"/>
<path d="M67.0491 8.90474C66.5444 8.97512 66.25 9.12226 66.0608 9.41016C65.9276 9.62128 65.9206 9.75563 65.8996 11.9372C65.8856 13.4983 65.8996 14.3939 65.9557 14.7202C66.3061 16.7483 67.8762 18.2965 69.9018 18.61C71.0373 18.7892 71.8293 18.578 72.6634 17.8935L73.0839 17.5416L73.126 17.8039C73.2101 18.3733 73.6447 18.6356 74.5769 18.674C75.7124 18.7252 76.3502 18.4821 76.5254 17.9319C76.6376 17.5928 76.6446 10.0051 76.5324 9.64047C76.3642 9.08388 75.8806 8.87915 74.7872 8.87915C73.876 8.88555 73.4835 9.0199 73.2452 9.41016L73.0699 9.69805L73.0349 12.0012C73.0068 13.5495 72.9718 14.362 72.9157 14.4707C72.7826 14.7394 72.4041 15.0977 72.0957 15.2448C71.8784 15.3536 71.6751 15.3856 71.2826 15.3856C70.6237 15.392 70.3153 15.296 69.9579 14.9633C69.4883 14.5411 69.4602 14.362 69.4602 12.0588C69.4602 9.76843 69.4252 9.50612 69.0677 9.22462C68.6892 8.91754 67.8621 8.78958 67.0491 8.90474Z" fill="#E53E3E"/>
<path d="M85.3018 8.87432C84.678 8.97668 84.0402 9.32855 83.6126 9.82117C83.3252 10.1475 83.3112 10.1411 83.2341 9.71881C83.129 9.13022 82.5472 8.87432 81.3907 8.9127C80.5356 8.93829 80.2272 9.05985 79.9749 9.4757L79.7997 9.76359L79.7786 13.4551C79.7576 17.2937 79.7926 17.9398 80.031 18.2341C80.2973 18.5668 80.5777 18.6564 81.4258 18.682C82.6874 18.7139 83.171 18.49 83.3323 17.7927C83.3813 17.5944 83.4094 16.6411 83.4094 15.368C83.4094 13.0648 83.4514 12.7833 83.8089 12.4698C84.4257 11.9324 85.3999 12.1179 85.7364 12.8345C85.7995 12.9752 85.8345 13.679 85.8626 15.4255C85.8976 17.2873 85.9256 17.8695 86.0027 18.0166C86.2761 18.554 86.7107 18.7139 87.8111 18.6756C88.7433 18.65 89.0377 18.5348 89.297 18.1126L89.4723 17.8247L89.5073 15.3936C89.5423 13.1224 89.5494 12.9432 89.6825 12.7129C89.8788 12.3611 90.1311 12.2139 90.5727 12.1755C91.2315 12.1307 91.7082 12.4314 91.8834 13.0264C91.9325 13.1864 91.9605 14.0628 91.9605 15.3744C91.9605 17.7351 91.9955 18.0294 92.339 18.3429C92.6474 18.6244 93.0399 18.7075 93.9231 18.6756C94.8272 18.65 95.1496 18.5284 95.3599 18.1446C95.4931 17.9014 95.5001 17.7607 95.5001 15.1696C95.5001 12.1691 95.4651 11.8492 95.0375 10.9152C94.5258 9.79558 93.5235 9.08544 92.1848 8.89991C91.1825 8.75276 90.1591 9.12383 89.2269 9.97472L88.7083 10.4481L88.5961 10.301C88.3928 10.0003 87.7901 9.4629 87.4887 9.30296C86.9349 9.00227 85.8485 8.79115 85.3018 8.87432Z" fill="#E53E3E"/>
<path d="M28.6825 8.98887C28.2619 9.08483 28.0727 9.21918 27.9115 9.53907C27.8063 9.73739 27.7923 10.1916 27.7713 13.4992C27.7502 17.3634 27.7783 17.9328 28.0236 18.2399C28.311 18.5918 28.5493 18.6558 29.5446 18.6558C30.659 18.6558 30.9254 18.5662 31.1777 18.112L31.3319 17.8305V13.7999C31.3319 9.86535 31.3319 9.76299 31.1847 9.50068C30.9744 9.09763 30.5959 8.95048 29.7268 8.92489C29.3203 8.91209 28.9067 8.93768 28.6825 8.98887Z" fill="#E53E3E"/>
<path d="M38.172 9.00204C36.4968 9.37311 34.9198 10.8446 34.4011 12.5272C34.2119 13.1541 34.1908 14.2737 34.3661 14.9263C34.8777 16.8392 36.7842 18.4834 38.7047 18.6625C39.6509 18.7521 40.7093 18.4642 41.256 17.9716L41.5504 17.7157L41.5995 17.914C41.6626 18.1955 41.978 18.4706 42.3424 18.5666C42.5107 18.6113 42.9803 18.6497 43.3868 18.6497C44.305 18.6561 44.6905 18.5218 44.9008 18.1379C45.0269 17.9012 45.0339 17.7093 45.0339 13.7939C45.0339 9.78256 45.0339 9.69299 44.8868 9.44348C44.6695 9.05962 44.3541 8.93806 43.4429 8.91247C42.8751 8.89328 42.6158 8.91247 42.3424 8.99564C41.9499 9.1108 41.6485 9.3859 41.5855 9.6738C41.5364 9.90411 41.4873 9.90411 41.3051 9.68019C41.1229 9.45627 40.45 9.1236 39.9173 8.99564C39.4126 8.88048 38.7257 8.88048 38.172 9.00204ZM40.3378 12.284C40.9126 12.5208 41.3471 13.1605 41.3542 13.7747C41.3542 14.3633 41.0808 14.8367 40.5341 15.163C39.2304 15.9499 37.4361 14.7408 37.8706 13.3717C38.0108 12.943 38.4524 12.4504 38.8659 12.284C39.2374 12.1241 39.9593 12.1241 40.3378 12.284Z" fill="#E53E3E"/>
<path d="M60.0489 8.98837C59.6073 9.09713 59.362 9.26987 59.2568 9.54497C59.1377 9.84566 59.1166 17.67 59.2358 17.9899C59.4321 18.5081 59.8666 18.6873 60.939 18.6873C61.9483 18.6809 62.3268 18.5337 62.5792 18.0475C62.6843 17.8428 62.6983 17.4205 62.6983 13.793C62.6983 9.82647 62.6983 9.75609 62.5511 9.50659C62.3268 9.10993 61.9133 8.94999 61.0652 8.9244C60.6306 8.9052 60.2591 8.93079 60.0489 8.98837Z" fill="#E53E3E"/>
</svg>
