<svg width="70" height="71" viewBox="0 0 70 71" fill="none" xmlns="http://www.w3.org/2000/svg">
<g id="Frame 48097060">
<g id="Badge">
<g id=".Base">
<g id="7. Master / Badge">
<path d="M0 9.001C0 4.02988 4.02989 0 9.001 0H60.999C65.9701 0 70 4.02988 70 9.001V9.001C70 13.9721 65.9701 18.002 60.999 18.002H9.001C4.02989 18.002 0 13.9721 0 9.001V9.001Z" fill="#718096"/>
<g id="Frame 1">
<path id="Value" d="M10.0534 13.121C9.17336 13.121 8.41736 12.945 7.78536 12.593C7.16136 12.233 6.68136 11.729 6.34536 11.081C6.00936 10.425 5.84136 9.65298 5.84136 8.76498C5.84136 8.10098 5.93736 7.50498 6.12936 6.97698C6.32136 6.44098 6.59736 5.98498 6.95736 5.60898C7.31736 5.22498 7.75736 4.93298 8.27736 4.73298C8.80536 4.52498 9.39736 4.42098 10.0534 4.42098C10.4934 4.42098 10.9254 4.47698 11.3494 4.58898C11.7734 4.70098 12.1454 4.86098 12.4654 5.06898C12.6334 5.17298 12.7454 5.30098 12.8014 5.45298C12.8574 5.59698 12.8694 5.74098 12.8374 5.88498C12.8054 6.02098 12.7374 6.13698 12.6334 6.23298C12.5374 6.32898 12.4134 6.38498 12.2614 6.40098C12.1174 6.40898 11.9574 6.35698 11.7814 6.24498C11.5334 6.08498 11.2654 5.96898 10.9774 5.89698C10.6894 5.82498 10.3974 5.78898 10.1014 5.78898C9.53336 5.78898 9.05336 5.90498 8.66136 6.13698C8.26936 6.36898 7.97336 6.70498 7.77336 7.14498C7.57336 7.58498 7.47336 8.12498 7.47336 8.76498C7.47336 9.39698 7.57336 9.93698 7.77336 10.385C7.97336 10.833 8.26936 11.173 8.66136 11.405C9.05336 11.637 9.53336 11.753 10.1014 11.753C10.4054 11.753 10.7054 11.717 11.0014 11.645C11.2974 11.565 11.5774 11.445 11.8414 11.285C12.0174 11.181 12.1734 11.137 12.3094 11.153C12.4534 11.161 12.5734 11.209 12.6694 11.297C12.7654 11.385 12.8294 11.497 12.8614 11.633C12.8934 11.761 12.8854 11.897 12.8374 12.041C12.7894 12.177 12.6934 12.297 12.5494 12.401C12.2294 12.633 11.8454 12.813 11.3974 12.941C10.9574 13.061 10.5094 13.121 10.0534 13.121ZM14.8736 13.097C14.6336 13.097 14.4496 13.033 14.3216 12.905C14.1936 12.769 14.1296 12.577 14.1296 12.329V5.20098C14.1296 4.95298 14.1936 4.76498 14.3216 4.63698C14.4496 4.50898 14.6336 4.44498 14.8736 4.44498C15.1136 4.44498 15.2976 4.50898 15.4256 4.63698C15.5616 4.76498 15.6296 4.95298 15.6296 5.20098V8.30898H15.4616C15.6376 7.88498 15.9096 7.56498 16.2776 7.34898C16.6536 7.12498 17.0776 7.01298 17.5496 7.01298C18.0216 7.01298 18.4096 7.10098 18.7136 7.27698C19.0176 7.45298 19.2456 7.72098 19.3976 8.08098C19.5496 8.43298 19.6256 8.88098 19.6256 9.42498V12.329C19.6256 12.577 19.5616 12.769 19.4336 12.905C19.3056 13.033 19.1216 13.097 18.8816 13.097C18.6416 13.097 18.4536 13.033 18.3176 12.905C18.1896 12.769 18.1256 12.577 18.1256 12.329V9.49698C18.1256 9.04098 18.0376 8.70898 17.8616 8.50098C17.6936 8.29298 17.4296 8.18898 17.0696 8.18898C16.6296 8.18898 16.2776 8.32898 16.0136 8.60898C15.7576 8.88098 15.6296 9.24498 15.6296 9.70098V12.329C15.6296 12.841 15.3776 13.097 14.8736 13.097ZM24.0411 13.121C23.3771 13.121 22.8051 12.997 22.3251 12.749C21.8451 12.501 21.4731 12.149 21.2091 11.693C20.9531 11.237 20.8251 10.697 20.8251 10.073C20.8251 9.46498 20.9491 8.93298 21.1971 8.47698C21.4531 8.02098 21.8011 7.66498 22.2411 7.40898C22.6891 7.14498 23.1971 7.01298 23.7651 7.01298C24.1811 7.01298 24.5531 7.08098 24.8811 7.21698C25.2171 7.35298 25.5011 7.54898 25.7331 7.80498C25.9731 8.06098 26.1531 8.37298 26.2731 8.74098C26.4011 9.10098 26.4651 9.50898 26.4651 9.96498C26.4651 10.109 26.4131 10.221 26.3091 10.301C26.2131 10.373 26.0731 10.409 25.8891 10.409H22.0371V9.54498H25.4091L25.2171 9.72498C25.2171 9.35698 25.1611 9.04898 25.0491 8.80098C24.9451 8.55298 24.7891 8.36498 24.5811 8.23698C24.3811 8.10098 24.1291 8.03298 23.8251 8.03298C23.4891 8.03298 23.2011 8.11298 22.9611 8.27298C22.7291 8.42498 22.5491 8.64498 22.4211 8.93298C22.3011 9.21298 22.2411 9.54898 22.2411 9.94098V10.025C22.2411 10.681 22.3931 11.173 22.6971 11.501C23.0091 11.821 23.4651 11.981 24.0651 11.981C24.2731 11.981 24.5051 11.957 24.7611 11.909C25.0251 11.853 25.2731 11.761 25.5051 11.633C25.6731 11.537 25.8211 11.497 25.9491 11.513C26.0771 11.521 26.1771 11.565 26.2491 11.645C26.3291 11.725 26.3771 11.825 26.3931 11.945C26.4091 12.057 26.3851 12.173 26.3211 12.293C26.2651 12.413 26.1651 12.517 26.0211 12.605C25.7411 12.781 25.4171 12.913 25.0491 13.001C24.6891 13.081 24.3531 13.121 24.0411 13.121ZM30.365 13.121C29.749 13.121 29.213 12.997 28.757 12.749C28.301 12.493 27.949 12.133 27.701 11.669C27.453 11.205 27.329 10.661 27.329 10.037C27.329 9.56498 27.397 9.14498 27.533 8.77698C27.677 8.40098 27.881 8.08498 28.145 7.82898C28.409 7.56498 28.729 7.36498 29.105 7.22898C29.481 7.08498 29.901 7.01298 30.365 7.01298C30.629 7.01298 30.913 7.04898 31.217 7.12098C31.529 7.19298 31.821 7.31298 32.093 7.48098C32.221 7.56098 32.305 7.65698 32.345 7.76898C32.385 7.88098 32.393 7.99698 32.369 8.11698C32.345 8.22898 32.293 8.32898 32.213 8.41698C32.141 8.49698 32.049 8.54898 31.937 8.57298C31.825 8.58898 31.701 8.56098 31.565 8.48898C31.389 8.38498 31.209 8.30898 31.025 8.26098C30.841 8.20498 30.665 8.17698 30.497 8.17698C30.233 8.17698 30.001 8.22098 29.801 8.30898C29.601 8.38898 29.429 8.50898 29.285 8.66898C29.149 8.82098 29.045 9.01298 28.973 9.24498C28.901 9.47698 28.865 9.74498 28.865 10.049C28.865 10.641 29.005 11.109 29.285 11.453C29.573 11.789 29.977 11.957 30.497 11.957C30.665 11.957 30.837 11.933 31.013 11.885C31.197 11.837 31.381 11.761 31.565 11.657C31.701 11.585 31.821 11.561 31.925 11.585C32.037 11.609 32.129 11.665 32.201 11.753C32.273 11.833 32.317 11.933 32.333 12.053C32.349 12.165 32.333 12.277 32.285 12.389C32.245 12.501 32.165 12.593 32.045 12.665C31.781 12.825 31.501 12.941 31.205 13.013C30.909 13.085 30.629 13.121 30.365 13.121ZM34.0572 13.097C33.8172 13.097 33.6332 13.033 33.5052 12.905C33.3772 12.769 33.3132 12.577 33.3132 12.329V5.20098C33.3132 4.95298 33.3772 4.76498 33.5052 4.63698C33.6332 4.50898 33.8172 4.44498 34.0572 4.44498C34.2972 4.44498 34.4812 4.50898 34.6092 4.63698C34.7452 4.76498 34.8132 4.95298 34.8132 5.20098V9.62898H34.8372L36.8172 7.54098C36.9772 7.38098 37.1172 7.25698 37.2372 7.16898C37.3572 7.08098 37.5212 7.03698 37.7292 7.03698C37.9372 7.03698 38.0932 7.09298 38.1972 7.20498C38.3092 7.30898 38.3652 7.43698 38.3652 7.58898C38.3652 7.74098 38.2932 7.89298 38.1492 8.04498L36.0612 10.253V9.62898L38.3532 12.101C38.4972 12.253 38.5612 12.409 38.5452 12.569C38.5372 12.721 38.4732 12.849 38.3532 12.953C38.2332 13.049 38.0812 13.097 37.8972 13.097C37.6732 13.097 37.4932 13.053 37.3572 12.965C37.2292 12.877 37.0852 12.745 36.9252 12.569L34.8372 10.385H34.8132V12.329C34.8132 12.841 34.5612 13.097 34.0572 13.097ZM39.959 10.385C39.783 10.385 39.635 10.329 39.515 10.217C39.403 10.097 39.347 9.95298 39.347 9.78498C39.347 9.60898 39.403 9.46498 39.515 9.35298C39.635 9.24098 39.783 9.18498 39.959 9.18498H42.515C42.683 9.18498 42.823 9.24098 42.935 9.35298C43.055 9.46498 43.115 9.60898 43.115 9.78498C43.115 9.95298 43.055 10.097 42.935 10.217C42.823 10.329 42.683 10.385 42.515 10.385H39.959ZM48.5461 13.121C47.7301 13.121 47.0141 12.941 46.3981 12.581C45.7901 12.221 45.3181 11.717 44.9821 11.069C44.6461 10.413 44.4781 9.64498 44.4781 8.76498C44.4781 8.10098 44.5741 7.50498 44.7661 6.97698C44.9581 6.44098 45.2301 5.98498 45.5821 5.60898C45.9421 5.22498 46.3701 4.93298 46.8661 4.73298C47.3701 4.52498 47.9301 4.42098 48.5461 4.42098C49.3701 4.42098 50.0861 4.60098 50.6941 4.96098C51.3021 5.31298 51.7741 5.81298 52.1101 6.46098C52.4461 7.10898 52.6141 7.87298 52.6141 8.75298C52.6141 9.41698 52.5181 10.017 52.3261 10.553C52.1341 11.089 51.8581 11.549 51.4981 11.933C51.1461 12.317 50.7181 12.613 50.2141 12.821C49.7181 13.021 49.1621 13.121 48.5461 13.121ZM48.5461 11.801C49.0661 11.801 49.5061 11.681 49.8661 11.441C50.2341 11.201 50.5141 10.853 50.7061 10.397C50.9061 9.94098 51.0061 9.39698 51.0061 8.76498C51.0061 7.80498 50.7901 7.06098 50.3581 6.53298C49.9341 6.00498 49.3301 5.74098 48.5461 5.74098C48.0341 5.74098 47.5941 5.86098 47.2261 6.10098C46.8581 6.33298 46.5741 6.67698 46.3741 7.13298C46.1821 7.58098 46.0861 8.12498 46.0861 8.76498C46.0861 9.71698 46.3021 10.461 46.7341 10.997C47.1661 11.533 47.7701 11.801 48.5461 11.801ZM56.156 13.121C55.668 13.121 55.264 13.033 54.944 12.857C54.624 12.673 54.384 12.401 54.224 12.041C54.072 11.681 53.996 11.233 53.996 10.697V7.79298C53.996 7.53698 54.06 7.34898 54.188 7.22898C54.316 7.10098 54.5 7.03698 54.74 7.03698C54.98 7.03698 55.164 7.10098 55.292 7.22898C55.428 7.34898 55.496 7.53698 55.496 7.79298V10.721C55.496 11.137 55.58 11.445 55.748 11.645C55.916 11.845 56.184 11.945 56.552 11.945C56.952 11.945 57.28 11.809 57.536 11.537C57.792 11.257 57.92 10.889 57.92 10.433V7.79298C57.92 7.53698 57.984 7.34898 58.112 7.22898C58.24 7.10098 58.424 7.03698 58.664 7.03698C58.904 7.03698 59.088 7.10098 59.216 7.22898C59.352 7.34898 59.42 7.53698 59.42 7.79298V12.329C59.42 12.841 59.176 13.097 58.688 13.097C58.456 13.097 58.276 13.033 58.148 12.905C58.02 12.769 57.956 12.577 57.956 12.329V11.417L58.124 11.777C57.956 12.209 57.7 12.541 57.356 12.773C57.02 13.005 56.62 13.121 56.156 13.121ZM63.6692 13.121C63.1492 13.121 62.7132 13.033 62.3612 12.857C62.0172 12.681 61.7612 12.425 61.5932 12.089C61.4252 11.745 61.3412 11.321 61.3412 10.817V8.26098H60.7172C60.5252 8.26098 60.3772 8.21298 60.2732 8.11698C60.1692 8.01298 60.1172 7.87298 60.1172 7.69698C60.1172 7.51298 60.1692 7.37298 60.2732 7.27698C60.3772 7.18098 60.5252 7.13298 60.7172 7.13298H61.3412V6.04098C61.3412 5.79298 61.4052 5.60498 61.5332 5.47698C61.6692 5.34898 61.8572 5.28498 62.0972 5.28498C62.3372 5.28498 62.5212 5.34898 62.6492 5.47698C62.7772 5.60498 62.8412 5.79298 62.8412 6.04098V7.13298H64.1132C64.3052 7.13298 64.4532 7.18098 64.5572 7.27698C64.6612 7.37298 64.7132 7.51298 64.7132 7.69698C64.7132 7.87298 64.6612 8.01298 64.5572 8.11698C64.4532 8.21298 64.3052 8.26098 64.1132 8.26098H62.8412V10.733C62.8412 11.117 62.9252 11.405 63.0932 11.597C63.2612 11.789 63.5332 11.885 63.9092 11.885C64.0452 11.885 64.1652 11.873 64.2692 11.849C64.3732 11.825 64.4652 11.809 64.5452 11.801C64.6412 11.793 64.7212 11.825 64.7852 11.897C64.8492 11.961 64.8812 12.097 64.8812 12.305C64.8812 12.465 64.8532 12.609 64.7972 12.737C64.7492 12.857 64.6572 12.941 64.5212 12.989C64.4172 13.021 64.2812 13.049 64.1132 13.073C63.9452 13.105 63.7972 13.121 63.6692 13.121Z" fill="white"/>
</g>
<path d="M9.001 1H60.999V-1H9.001V1ZM60.999 17.002H9.001V19.002H60.999V17.002ZM9.001 17.002C4.58217 17.002 1 13.4198 1 9.001H-1C-1 14.5244 3.4776 19.002 9.001 19.002V17.002ZM69 9.001C69 13.4198 65.4178 17.002 60.999 17.002V19.002C66.5224 19.002 71 14.5244 71 9.001H69ZM60.999 1C65.4178 1 69 4.58217 69 9.001H71C71 3.4776 66.5224 -1 60.999 -1V1ZM9.001 -1C3.4776 -1 -1 3.4776 -1 9.001H1C1 4.58217 4.58217 1 9.001 1V-1Z" fill="white"/>
</g>
</g>
</g>
<g id="Location">
<path id="Shape" d="M50.0145 50.9819C51.2818 48.6024 52 45.8861 52 43.002C52 33.6132 44.3888 26.002 35 26.002C25.6112 26.002 18 33.6132 18 43.002C18 46.0985 18.8279 49.0015 20.2743 51.502C20.2976 51.5422 20.321 51.5824 20.3446 51.6224C20.8312 52.4479 21.3855 53.2286 22 53.957C22.0001 53.9571 21.9999 53.957 22 53.957C22.0069 53.9652 22.014 53.9736 22.0209 53.9818C22.0265 53.9884 22.0325 53.9955 22.0381 54.002H22L32.0884 64.7113C33.6675 66.3876 36.3324 66.3876 37.9115 64.7113L48 54.002H47.9619C47.9673 53.9957 47.9726 53.9894 47.978 53.9831L47.9788 53.9821L47.9795 53.9813C48.0522 53.8954 48.1241 53.8088 48.1951 53.7215C48.7614 53.0252 49.2738 52.2833 49.7257 51.502C49.8249 51.3305 49.9212 51.1571 50.0145 50.9819ZM35.0049 49.502C31.6912 49.502 29.0049 46.8157 29.0049 43.502C29.0049 40.1883 31.6912 37.502 35.0049 37.502C38.3186 37.502 41.0049 40.1883 41.0049 43.502C41.0049 46.8157 38.3186 49.502 35.0049 49.502Z" fill="#F56565"/>
</g>
</g>
</svg>
