<svg width="60" height="71" viewBox="0 0 60 71" fill="none" xmlns="http://www.w3.org/2000/svg">
<g id="Frame 48097060">
<g id="Badge">
<g id=".Base">
<g id="7. Master / Badge">
<path d="M0 9.001C0 4.02988 4.02989 0 9.001 0H50.999C55.9701 0 60 4.02988 60 9.001V9.001C60 13.9721 55.9701 18.002 50.999 18.002H9.001C4.02989 18.002 0 13.9721 0 9.001V9.001Z" fill="#319795"/>
<g id="Frame 1">
<path id="Value" d="M10.3385 13.121C9.45852 13.121 8.70252 12.945 8.07052 12.593C7.44652 12.233 6.96652 11.729 6.63052 11.081C6.29452 10.425 6.12652 9.65301 6.12652 8.76501C6.12652 8.10101 6.22252 7.50501 6.41452 6.97701C6.60652 6.44101 6.88252 5.98501 7.24252 5.60901C7.60252 5.22501 8.04252 4.93301 8.56252 4.73301C9.09052 4.52501 9.68252 4.42101 10.3385 4.42101C10.7785 4.42101 11.2105 4.47701 11.6345 4.58901C12.0585 4.70101 12.4305 4.86101 12.7505 5.06901C12.9185 5.17301 13.0305 5.30101 13.0865 5.45301C13.1425 5.59701 13.1545 5.74101 13.1225 5.88501C13.0905 6.02101 13.0225 6.13701 12.9185 6.23301C12.8225 6.32901 12.6985 6.38501 12.5465 6.40101C12.4025 6.40901 12.2425 6.35701 12.0665 6.24501C11.8185 6.08501 11.5505 5.96901 11.2625 5.89701C10.9745 5.82501 10.6825 5.78901 10.3865 5.78901C9.81852 5.78901 9.33852 5.90501 8.94652 6.13701C8.55452 6.36901 8.25852 6.70501 8.05852 7.14501C7.85852 7.58501 7.75852 8.12501 7.75852 8.76501C7.75852 9.39701 7.85852 9.93701 8.05852 10.385C8.25852 10.833 8.55452 11.173 8.94652 11.405C9.33852 11.637 9.81852 11.753 10.3865 11.753C10.6905 11.753 10.9905 11.717 11.2865 11.645C11.5825 11.565 11.8625 11.445 12.1265 11.285C12.3025 11.181 12.4585 11.137 12.5945 11.153C12.7385 11.161 12.8585 11.209 12.9545 11.297C13.0505 11.385 13.1145 11.497 13.1465 11.633C13.1785 11.761 13.1705 11.897 13.1225 12.041C13.0745 12.177 12.9785 12.297 12.8345 12.401C12.5145 12.633 12.1305 12.813 11.6825 12.941C11.2425 13.061 10.7945 13.121 10.3385 13.121ZM15.1588 13.097C14.9188 13.097 14.7348 13.033 14.6068 12.905C14.4788 12.769 14.4148 12.577 14.4148 12.329V5.20101C14.4148 4.95301 14.4788 4.76501 14.6068 4.63701C14.7348 4.50901 14.9188 4.44501 15.1588 4.44501C15.3988 4.44501 15.5828 4.50901 15.7108 4.63701C15.8468 4.76501 15.9148 4.95301 15.9148 5.20101V8.30901H15.7468C15.9228 7.88501 16.1948 7.56501 16.5628 7.34901C16.9388 7.12501 17.3628 7.01301 17.8348 7.01301C18.3068 7.01301 18.6948 7.10101 18.9988 7.27701C19.3028 7.45301 19.5308 7.72101 19.6828 8.08101C19.8348 8.43301 19.9108 8.88101 19.9108 9.42501V12.329C19.9108 12.577 19.8468 12.769 19.7188 12.905C19.5908 13.033 19.4068 13.097 19.1668 13.097C18.9268 13.097 18.7388 13.033 18.6028 12.905C18.4748 12.769 18.4108 12.577 18.4108 12.329V9.49701C18.4108 9.04101 18.3228 8.70901 18.1468 8.50101C17.9788 8.29301 17.7148 8.18901 17.3548 8.18901C16.9148 8.18901 16.5628 8.32901 16.2988 8.60901C16.0428 8.88101 15.9148 9.24501 15.9148 9.70101V12.329C15.9148 12.841 15.6628 13.097 15.1588 13.097ZM24.3263 13.121C23.6623 13.121 23.0903 12.997 22.6103 12.749C22.1303 12.501 21.7583 12.149 21.4943 11.693C21.2383 11.237 21.1103 10.697 21.1103 10.073C21.1103 9.46501 21.2343 8.93301 21.4823 8.47701C21.7383 8.02101 22.0863 7.66501 22.5263 7.40901C22.9743 7.14501 23.4823 7.01301 24.0503 7.01301C24.4663 7.01301 24.8383 7.08101 25.1663 7.21701C25.5023 7.35301 25.7863 7.54901 26.0183 7.80501C26.2583 8.06101 26.4383 8.37301 26.5583 8.74101C26.6863 9.10101 26.7503 9.50901 26.7503 9.96501C26.7503 10.109 26.6983 10.221 26.5943 10.301C26.4983 10.373 26.3583 10.409 26.1743 10.409H22.3223V9.54501H25.6943L25.5023 9.72501C25.5023 9.35701 25.4463 9.04901 25.3343 8.80101C25.2303 8.55301 25.0743 8.36501 24.8663 8.23701C24.6663 8.10101 24.4143 8.03301 24.1103 8.03301C23.7743 8.03301 23.4863 8.11301 23.2463 8.27301C23.0143 8.42501 22.8343 8.64501 22.7063 8.93301C22.5863 9.21301 22.5263 9.54901 22.5263 9.94101V10.025C22.5263 10.681 22.6783 11.173 22.9823 11.501C23.2943 11.821 23.7503 11.981 24.3503 11.981C24.5583 11.981 24.7903 11.957 25.0463 11.909C25.3103 11.853 25.5583 11.761 25.7903 11.633C25.9583 11.537 26.1063 11.497 26.2343 11.513C26.3623 11.521 26.4623 11.565 26.5343 11.645C26.6143 11.725 26.6623 11.825 26.6783 11.945C26.6943 12.057 26.6703 12.173 26.6063 12.293C26.5503 12.413 26.4503 12.517 26.3063 12.605C26.0263 12.781 25.7023 12.913 25.3343 13.001C24.9743 13.081 24.6383 13.121 24.3263 13.121ZM30.6502 13.121C30.0342 13.121 29.4982 12.997 29.0422 12.749C28.5862 12.493 28.2342 12.133 27.9862 11.669C27.7382 11.205 27.6142 10.661 27.6142 10.037C27.6142 9.56501 27.6822 9.14501 27.8182 8.77701C27.9622 8.40101 28.1662 8.08501 28.4302 7.82901C28.6942 7.56501 29.0142 7.36501 29.3902 7.22901C29.7662 7.08501 30.1862 7.01301 30.6502 7.01301C30.9142 7.01301 31.1982 7.04901 31.5022 7.12101C31.8142 7.19301 32.1062 7.31301 32.3782 7.48101C32.5062 7.56101 32.5902 7.65701 32.6302 7.76901C32.6702 7.88101 32.6782 7.99701 32.6542 8.11701C32.6302 8.22901 32.5782 8.32901 32.4982 8.41701C32.4262 8.49701 32.3342 8.54901 32.2222 8.57301C32.1102 8.58901 31.9862 8.56101 31.8502 8.48901C31.6742 8.38501 31.4942 8.30901 31.3102 8.26101C31.1262 8.20501 30.9502 8.17701 30.7822 8.17701C30.5182 8.17701 30.2862 8.22101 30.0862 8.30901C29.8862 8.38901 29.7142 8.50901 29.5702 8.66901C29.4342 8.82101 29.3302 9.01301 29.2582 9.24501C29.1862 9.47701 29.1502 9.74501 29.1502 10.049C29.1502 10.641 29.2902 11.109 29.5702 11.453C29.8582 11.789 30.2622 11.957 30.7822 11.957C30.9502 11.957 31.1222 11.933 31.2982 11.885C31.4822 11.837 31.6662 11.761 31.8502 11.657C31.9862 11.585 32.1062 11.561 32.2102 11.585C32.3222 11.609 32.4142 11.665 32.4862 11.753C32.5582 11.833 32.6022 11.933 32.6182 12.053C32.6342 12.165 32.6182 12.277 32.5702 12.389C32.5302 12.501 32.4502 12.593 32.3302 12.665C32.0662 12.825 31.7862 12.941 31.4902 13.013C31.1942 13.085 30.9142 13.121 30.6502 13.121ZM34.3424 13.097C34.1024 13.097 33.9184 13.033 33.7904 12.905C33.6624 12.769 33.5984 12.577 33.5984 12.329V5.20101C33.5984 4.95301 33.6624 4.76501 33.7904 4.63701C33.9184 4.50901 34.1024 4.44501 34.3424 4.44501C34.5824 4.44501 34.7664 4.50901 34.8944 4.63701C35.0304 4.76501 35.0984 4.95301 35.0984 5.20101V9.62901H35.1224L37.1024 7.54101C37.2624 7.38101 37.4024 7.25701 37.5224 7.16901C37.6424 7.08101 37.8064 7.03701 38.0144 7.03701C38.2224 7.03701 38.3784 7.09301 38.4824 7.20501C38.5944 7.30901 38.6504 7.43701 38.6504 7.58901C38.6504 7.74101 38.5784 7.89301 38.4344 8.04501L36.3464 10.253V9.62901L38.6384 12.101C38.7824 12.253 38.8464 12.409 38.8304 12.569C38.8224 12.721 38.7584 12.849 38.6384 12.953C38.5184 13.049 38.3664 13.097 38.1824 13.097C37.9584 13.097 37.7784 13.053 37.6424 12.965C37.5144 12.877 37.3704 12.745 37.2104 12.569L35.1224 10.385H35.0984V12.329C35.0984 12.841 34.8464 13.097 34.3424 13.097ZM40.2441 10.385C40.0681 10.385 39.9201 10.329 39.8001 10.217C39.6881 10.097 39.6321 9.95301 39.6321 9.78501C39.6321 9.60901 39.6881 9.46501 39.8001 9.35301C39.9201 9.24101 40.0681 9.18501 40.2441 9.18501H42.8001C42.9681 9.18501 43.1081 9.24101 43.2201 9.35301C43.3401 9.46501 43.4001 9.60901 43.4001 9.78501C43.4001 9.95301 43.3401 10.097 43.2201 10.217C43.1081 10.329 42.9681 10.385 42.8001 10.385H40.2441ZM45.8072 13.097C45.5592 13.097 45.3672 13.029 45.2312 12.893C45.1032 12.749 45.0392 12.553 45.0392 12.305V5.23701C45.0392 4.98101 45.1032 4.78501 45.2312 4.64901C45.3672 4.51301 45.5592 4.44501 45.8072 4.44501C46.0552 4.44501 46.2432 4.51301 46.3712 4.64901C46.5072 4.78501 46.5752 4.98101 46.5752 5.23701V12.305C46.5752 12.553 46.5112 12.749 46.3832 12.893C46.2552 13.029 46.0632 13.097 45.8072 13.097ZM49.026 13.097C48.786 13.097 48.602 13.033 48.474 12.905C48.346 12.769 48.282 12.577 48.282 12.329V7.79301C48.282 7.54501 48.346 7.35701 48.474 7.22901C48.602 7.10101 48.782 7.03701 49.014 7.03701C49.246 7.03701 49.426 7.10101 49.554 7.22901C49.682 7.35701 49.746 7.54501 49.746 7.79301V8.60901L49.614 8.30901C49.79 7.88501 50.062 7.56501 50.43 7.34901C50.806 7.12501 51.23 7.01301 51.702 7.01301C52.174 7.01301 52.562 7.10101 52.866 7.27701C53.17 7.45301 53.398 7.72101 53.55 8.08101C53.702 8.43301 53.778 8.88101 53.778 9.42501V12.329C53.778 12.577 53.714 12.769 53.586 12.905C53.458 13.033 53.274 13.097 53.034 13.097C52.794 13.097 52.606 13.033 52.47 12.905C52.342 12.769 52.278 12.577 52.278 12.329V9.49701C52.278 9.04101 52.19 8.70901 52.014 8.50101C51.846 8.29301 51.582 8.18901 51.222 8.18901C50.782 8.18901 50.43 8.32901 50.166 8.60901C49.91 8.88101 49.782 9.24501 49.782 9.70101V12.329C49.782 12.841 49.53 13.097 49.026 13.097Z" fill="white"/>
</g>
<path d="M9.001 1H50.999V-1H9.001V1ZM50.999 17.002H9.001V19.002H50.999V17.002ZM9.001 17.002C4.58217 17.002 1 13.4198 1 9.001H-1C-1 14.5244 3.4776 19.002 9.001 19.002V17.002ZM59 9.001C59 13.4198 55.4178 17.002 50.999 17.002V19.002C56.5224 19.002 61 14.5244 61 9.001H59ZM50.999 1C55.4178 1 59 4.58217 59 9.001H61C61 3.4776 56.5224 -1 50.999 -1V1ZM9.001 -1C3.4776 -1 -1 3.4776 -1 9.001H1C1 4.58217 4.58217 1 9.001 1V-1Z" fill="white"/>
</g>
</g>
</g>
<g id="Location">
<path id="Shape" d="M45.0145 50.9819C46.2818 48.6024 47 45.8861 47 43.002C47 33.6132 39.3888 26.002 30 26.002C20.6112 26.002 13 33.6132 13 43.002C13 46.0984 13.8279 49.0015 15.2743 51.502C15.2976 51.5422 15.321 51.5823 15.3446 51.6224C15.8312 52.4478 16.3855 53.2286 17 53.957C17.0001 53.9571 16.9999 53.957 17 53.957C17.0069 53.9652 17.014 53.9736 17.0209 53.9818C17.0265 53.9884 17.0325 53.9955 17.0381 54.002H17L27.0884 64.7113C28.6675 66.3876 31.3324 66.3876 32.9115 64.7113L43 54.002H42.9619C42.9673 53.9957 42.9726 53.9894 42.978 53.9831L42.9788 53.9821L42.9795 53.9812C43.0522 53.8954 43.1241 53.8088 43.1951 53.7215C43.7614 53.0252 44.2738 52.2833 44.7257 51.502C44.8249 51.3305 44.9212 51.1571 45.0145 50.9819ZM30.0049 49.502C26.6912 49.502 24.0049 46.8157 24.0049 43.502C24.0049 40.1883 26.6912 37.502 30.0049 37.502C33.3186 37.502 36.0049 40.1883 36.0049 43.502C36.0049 46.8157 33.3186 49.502 30.0049 49.502Z" fill="#F56565"/>
</g>
</g>
</svg>
