<svg width="25" height="25" viewBox="0 0 25 25" fill="none" xmlns="http://www.w3.org/2000/svg">
<path d="M12.0352 8.56781C11.0687 8.56781 10.2852 7.78431 10.2852 6.81781C10.2852 5.85131 11.0687 5.06781 12.0352 5.06781C13.0017 5.06781 13.7852 5.85131 13.7852 6.81781C13.7852 7.78431 13.0017 8.56781 12.0352 8.56781ZM12.0352 14.5678C11.0687 14.5678 10.2852 13.7843 10.2852 12.8178C10.2852 11.8513 11.0687 11.0678 12.0352 11.0678C13.0017 11.0678 13.7852 11.8513 13.7852 12.8178C13.7852 13.7843 13.0017 14.5678 12.0352 14.5678ZM10.2852 18.8178C10.2852 19.7843 11.0687 20.5678 12.0352 20.5678C13.0017 20.5678 13.7852 19.7843 13.7852 18.8178C13.7852 17.8513 13.0017 17.0678 12.0352 17.0678C11.0687 17.0678 10.2852 17.8513 10.2852 18.8178Z" fill="black"/>
</svg>
