<svg width="47" height="55" viewBox="0 0 47 55" fill="none" xmlns="http://www.w3.org/2000/svg">
<g clip-path="url(#clip0_1938_219492)">
<g filter="url(#filter0_d_1938_219492)">
<path d="M36.8759 15.262V38.7524C36.8759 40.4641 35.5184 41.8217 33.8068 41.8217H12.6772C10.9657 41.8217 9.60815 40.4641 9.60815 38.7524V8.00244C9.60815 6.29085 10.9657 4.93335 12.6772 4.93335H26.6062C27.3735 4.93335 28.0817 5.22844 28.6129 5.75966L36.0496 13.1963C36.5809 13.7865 36.8759 14.4948 36.8759 15.262Z" fill="url(#paint0_linear_1938_219492)"/>
</g>
<g filter="url(#filter1_d_1938_219492)">
<path d="M28.0061 5.29724V11.7674C28.0061 13.0192 29.0661 14.0207 30.2707 14.0207H36.6001C36.4638 13.7271 36.2787 13.4507 36.0497 13.1962L28.613 5.75961C28.4301 5.57668 28.2262 5.42174 28.0061 5.29724Z" fill="#D1DAE4"/>
</g>
<path d="M18.7257 35.4248H13.804C13.6203 35.4248 13.4734 35.2296 13.4734 34.9954C13.4734 34.7611 13.6203 34.5659 13.804 34.5659H18.7257C18.9094 34.5659 19.0563 34.7611 19.0563 34.9954C19.0563 35.2687 18.9094 35.4248 18.7257 35.4248Z" fill="#768194"/>
<path d="M25.0201 11.3754H13.9514C13.694 11.3754 13.4734 11.1772 13.4734 10.9459C13.4734 10.7147 13.694 10.5165 13.9514 10.5165H25.0201C25.2775 10.5165 25.4982 10.7147 25.4982 10.9459C25.4982 11.1772 25.2775 11.3754 25.0201 11.3754Z" fill="#E64040"/>
<path d="M18.1883 13.9521H13.9485C13.6927 13.9521 13.4734 13.7538 13.4734 13.5226C13.4734 13.2913 13.6927 13.0931 13.9485 13.0931H18.1517C18.4076 13.0931 18.6269 13.2913 18.6269 13.5226C18.6269 13.7538 18.4076 13.9521 18.1883 13.9521Z" fill="#E64040"/>
<path d="M32.8814 28.9829H19.9746H18.5521H14.2498C14.0763 28.9829 13.9028 29.1618 13.9028 29.4123C13.9028 29.6271 14.0416 29.8418 14.2498 29.8418H18.5521H19.9746H32.8814C33.0549 29.8418 33.2283 29.6629 33.2283 29.4123C33.1936 29.1618 33.0549 28.9829 32.8814 28.9829Z" fill="#768194"/>
<path d="M32.8808 25.9767H28.0841H26.4505H14.2504C14.0766 25.9767 13.9028 26.1556 13.9028 26.4062C13.9028 26.6209 14.0419 26.8356 14.2504 26.8356H26.4505H28.0841H32.8808C33.0546 26.8356 33.2283 26.6567 33.2283 26.4062C33.1936 26.1556 33.0546 25.9767 32.8808 25.9767Z" fill="#768194"/>
<path d="M32.9123 22.9706H31.6657H30.4192H14.2491C14.076 22.9706 13.9028 23.1495 13.9028 23.4001C13.9028 23.6148 14.0414 23.8295 14.2491 23.8295H30.4192H31.8042H32.8776C33.0508 23.8295 33.2239 23.6506 33.2239 23.4001C33.2585 23.1853 33.0854 22.9706 32.9123 22.9706Z" fill="#768194"/>
<path d="M32.8851 19.9644H28.8689H27.8735H14.2461C14.0745 19.9644 13.9028 20.1433 13.9028 20.3938C13.9028 20.6085 14.0401 20.8233 14.2461 20.8233H27.8735H28.8689H32.8508C33.091 20.8233 33.2283 20.6443 33.2283 20.3938C33.2283 20.1791 33.091 19.9644 32.8851 19.9644Z" fill="#768194"/>
<path d="M38.9415 25.2652C38.9646 25.2878 38.9875 25.2878 39.0106 25.2878C39.149 25.333 39.3102 25.2426 39.3562 25.0845C39.9784 23.5935 41.1994 21.583 42.9273 20.7923L43.4112 21.5604C43.4803 21.6733 43.6417 21.6959 43.7799 21.583C43.8951 21.4926 43.9411 21.3119 43.872 21.1989L43.3881 20.4308C43.2731 20.2501 43.0657 20.2049 42.8583 20.2953C40.7157 21.1311 39.5636 23.345 38.8954 24.9489C38.8263 25.0845 38.8494 25.1974 38.9415 25.2652Z" fill="#E64040"/>
<path d="M34.1667 34.8971C34.3375 35.0402 34.435 35.1118 34.4592 35.1357C34.4592 35.1357 34.4592 35.1357 34.8004 35.3981C35.3609 34.754 36.628 34.4438 37.4078 34.5154C37.3834 34.5154 37.8952 33.1078 37.9682 32.9886C38.407 32.2013 39.016 31.5094 39.5767 30.8175L38.1876 30.2927L38.9918 29.3146L38.1632 30.2927L37.5053 29.2668C36.9935 29.911 36.5306 30.579 35.9457 31.1516C35.4828 31.6048 34.9223 31.9388 34.3617 32.249C34.6541 32.917 34.6541 34.2052 34.1667 34.8971Z" fill="#D5DDEA"/>
<path fill-rule="evenodd" clip-rule="evenodd" d="M36.3693 32.6037C36.3203 32.6815 36.3432 32.7849 36.4217 32.8344C36.5002 32.884 36.6034 32.8603 36.6526 32.7825C36.7017 32.7047 36.6787 32.6013 36.6001 32.5518C36.5216 32.5022 36.4183 32.5259 36.3693 32.6037ZM36.222 33.1506C35.9698 32.9914 35.8939 32.6574 36.0537 32.4045C36.2133 32.1515 36.5475 32.0764 36.7997 32.2356C37.0521 32.3948 37.128 32.7288 36.9683 32.9817C36.8085 33.2347 36.4744 33.3098 36.222 33.1506Z" fill="url(#paint1_linear_1938_219492)"/>
<path fill-rule="evenodd" clip-rule="evenodd" d="M36.3307 33.1497L34.8211 35.398L34.5273 35.1218L36.0369 32.8734L36.3307 33.1497Z" fill="url(#paint2_linear_1938_219492)"/>
<path d="M46.117 19.9549C46.1881 19.9781 46.2116 20.0013 46.259 20.0477C46.9682 20.7209 45.3841 23.5991 42.9963 26.7095C41.1283 29.1235 39.7571 30.7251 39.2133 31.3054C39.0713 31.4447 38.8587 31.4678 38.6696 31.375C38.0075 30.9804 37.8893 30.8643 37.1799 30.2376C37.0381 30.0984 37.0144 29.8663 37.109 29.7038C37.511 29.0306 38.693 27.313 40.5137 24.8757C42.878 21.7654 45.2896 19.4674 46.117 19.9549Z" fill="url(#paint3_linear_1938_219492)"/>
<path fill-rule="evenodd" clip-rule="evenodd" d="M44.876 21.9785C45.2408 22.2206 45.5676 22.3418 45.7079 22.3595L45.657 22.775C45.4283 22.7461 45.0402 22.5878 44.6501 22.329C44.2543 22.0665 43.8297 21.6834 43.5439 21.1811L43.9013 20.9717C44.1456 21.4011 44.5166 21.7402 44.876 21.9785Z" fill="#E64040"/>
<path fill-rule="evenodd" clip-rule="evenodd" d="M28.4293 32.2002C28.6386 32.3085 28.7206 32.5645 28.6127 32.7731L28.6032 32.7915C28.5236 32.9453 28.4468 33.0939 28.3725 33.2374C28.2091 33.5668 28.0862 33.8588 27.9617 34.2635C27.7689 34.8904 27.5789 35.6227 27.6255 36.1754C27.6258 36.1791 27.626 36.1828 27.6262 36.1866C27.6508 36.6122 27.7408 36.8553 27.8298 36.9915C27.9121 37.1176 28.0063 37.1728 28.1041 37.2004L28.1055 37.2009C28.2662 37.2469 28.3731 37.2256 28.4557 37.184C28.5496 37.1366 28.6493 37.0431 28.7464 36.8909C28.8543 36.7219 28.9382 36.5134 29.0005 36.3039C29.019 36.1246 29.0511 35.9404 29.1339 35.715C29.2094 35.5096 29.429 35.3944 29.6422 35.4482C29.8554 35.5021 29.9929 35.7076 29.9606 35.9239C29.9374 36.0783 29.9012 36.2631 29.8475 36.4584C29.8448 36.4908 29.8421 36.5256 29.8391 36.5634C29.836 36.6033 29.8326 36.6466 29.8286 36.6942C29.8191 36.9621 29.8737 37.1247 29.9329 37.2202C29.9909 37.3137 30.0697 37.3703 30.1633 37.4017C30.3746 37.4728 30.639 37.4074 30.771 37.2947C30.9829 37.0957 31.1012 36.9312 31.1747 36.7958C31.2235 36.7059 31.2564 36.6221 31.2842 36.5353C31.2857 36.5301 31.2872 36.5251 31.2888 36.52C31.3017 36.4767 31.3143 36.4349 31.3255 36.3944C31.388 36.1675 31.6238 36.0339 31.8521 36.0961C32.0805 36.1582 32.2148 36.3926 32.1523 36.6195C32.1481 36.6349 32.1437 36.6506 32.1391 36.6668C32.1242 36.7198 32.1107 36.7662 32.0986 36.8077C32.042 37.002 32.0168 37.0887 32.0288 37.2371C32.0429 37.3167 32.103 37.3714 32.1925 37.3767C32.2706 37.3813 32.4635 37.3423 32.6361 37.0108C32.7448 36.8018 33.0035 36.7201 33.2137 36.8282C33.424 36.9363 33.5063 37.1934 33.3975 37.4024C33.1078 37.9589 32.6346 38.2563 32.1417 38.2273C31.8543 38.2104 31.5899 38.079 31.4094 37.8667C31.391 37.8846 31.3721 37.9026 31.3528 37.9206C31.3497 37.9236 31.3465 37.9265 31.3432 37.9293C30.9844 38.245 30.3956 38.3793 29.8886 38.209C29.6249 38.1203 29.3801 37.9477 29.2089 37.6765C29.1043 37.7808 28.9833 37.8735 28.8433 37.944C28.5557 38.089 28.2244 38.1215 27.8688 38.0198C27.5861 37.9398 27.3136 37.7662 27.1106 37.4554C26.9229 37.1678 26.8105 36.7875 26.7749 36.3042C26.6761 36.4891 26.5922 36.6436 26.5198 36.7737C26.3523 37.0749 26.2363 37.2642 26.1342 37.3986C26.023 37.5449 25.9319 37.6207 25.8453 37.6921C25.6589 37.854 25.4197 37.9605 25.1753 37.9951C24.9306 38.0296 24.6486 37.9955 24.4059 37.8311C24.0623 37.6116 23.9415 37.2202 23.8991 36.8916C23.8646 36.623 23.8726 36.324 23.9032 36.0258C23.1084 36.859 22.1187 37.5122 21.0369 37.903C20.8144 37.9834 20.5684 37.8693 20.4876 37.6482C20.4067 37.427 20.5215 37.1826 20.744 37.1022C22.3524 36.521 23.7315 35.2807 24.4436 33.7453C24.5392 33.5391 24.7809 33.4436 24.9929 33.5285C25.2049 33.6133 25.3127 33.8485 25.2379 34.0631C25.1071 34.4385 24.8849 35.1841 24.7848 35.881C24.7344 36.2316 24.7188 36.5448 24.7495 36.7833C24.7824 37.0388 24.8536 37.1044 24.8702 37.1147C24.8761 37.1184 24.8819 37.1222 24.8876 37.1262C24.915 37.1451 24.969 37.1635 25.0546 37.1514C25.1407 37.1392 25.2254 37.0996 25.2829 37.049C25.2863 37.046 25.2897 37.0431 25.2932 37.0402C25.3684 36.9782 25.3984 36.9531 25.45 36.8851C25.5128 36.8025 25.6041 36.6589 25.7696 36.3614C26.0749 35.8125 26.5967 34.8069 27.6062 32.8553C27.6813 32.7042 27.7624 32.5493 27.8521 32.3799C27.962 32.1723 28.2199 32.092 28.4293 32.2002Z" fill="url(#paint4_linear_1938_219492)"/>
<path fill-rule="evenodd" clip-rule="evenodd" d="M33.9863 35.3981C34.2852 35.3981 34.5273 35.6329 34.5273 35.9225V35.9556C34.5273 36.2452 34.2852 36.4801 33.9863 36.4801C33.6875 36.4801 33.4453 36.2452 33.4453 35.9556V35.9225C33.4453 35.6329 33.6875 35.3981 33.9863 35.3981Z" fill="url(#paint5_linear_1938_219492)"/>
</g>
<defs>
<filter id="filter0_d_1938_219492" x="1.67358" y="0.966065" width="43.137" height="52.7574" filterUnits="userSpaceOnUse" color-interpolation-filters="sRGB">
<feFlood flood-opacity="0" result="BackgroundImageFix"/>
<feColorMatrix in="SourceAlpha" type="matrix" values="0 0 0 0 0 0 0 0 0 0 0 0 0 0 0 0 0 0 127 0" result="hardAlpha"/>
<feOffset dy="3.96728"/>
<feGaussianBlur stdDeviation="3.96728"/>
<feColorMatrix type="matrix" values="0 0 0 0 0.397708 0 0 0 0 0.47749 0 0 0 0 0.575 0 0 0 0.27 0"/>
<feBlend mode="normal" in2="BackgroundImageFix" result="effect1_dropShadow_1938_219492"/>
<feBlend mode="normal" in="SourceGraphic" in2="effect1_dropShadow_1938_219492" result="shape"/>
</filter>
<filter id="filter1_d_1938_219492" x="20.0715" y="1.32996" width="24.4631" height="24.5925" filterUnits="userSpaceOnUse" color-interpolation-filters="sRGB">
<feFlood flood-opacity="0" result="BackgroundImageFix"/>
<feColorMatrix in="SourceAlpha" type="matrix" values="0 0 0 0 0 0 0 0 0 0 0 0 0 0 0 0 0 0 127 0" result="hardAlpha"/>
<feOffset dy="3.96728"/>
<feGaussianBlur stdDeviation="3.96728"/>
<feColorMatrix type="matrix" values="0 0 0 0 0.397708 0 0 0 0 0.47749 0 0 0 0 0.575 0 0 0 0.27 0"/>
<feBlend mode="normal" in2="BackgroundImageFix" result="effect1_dropShadow_1938_219492"/>
<feBlend mode="normal" in="SourceGraphic" in2="effect1_dropShadow_1938_219492" result="shape"/>
</filter>
<linearGradient id="paint0_linear_1938_219492" x1="23.2331" y1="4.0801" x2="23.2331" y2="42.2191" gradientUnits="userSpaceOnUse">
<stop stop-color="#FDFEFF"/>
<stop offset="0.9964" stop-color="#E5EAF0"/>
</linearGradient>
<linearGradient id="paint1_linear_1938_219492" x1="36.511" y1="32.1521" x2="36.511" y2="33.2341" gradientUnits="userSpaceOnUse">
<stop stop-color="#738098"/>
<stop offset="1" stop-color="#313B4E"/>
</linearGradient>
<linearGradient id="paint2_linear_1938_219492" x1="35.429" y1="32.8734" x2="35.429" y2="35.398" gradientUnits="userSpaceOnUse">
<stop stop-color="#738098"/>
<stop offset="1" stop-color="#313B4E"/>
</linearGradient>
<linearGradient id="paint3_linear_1938_219492" x1="38.5389" y1="19.2953" x2="49.432" y2="26.7305" gradientUnits="userSpaceOnUse">
<stop stop-color="#8CEADD"/>
<stop offset="0.619792" stop-color="#3BB4AE"/>
</linearGradient>
<linearGradient id="paint4_linear_1938_219492" x1="26.9536" y1="32.1521" x2="26.9536" y2="38.2834" gradientUnits="userSpaceOnUse">
<stop stop-color="#738098"/>
<stop offset="1" stop-color="#313B4E"/>
</linearGradient>
<linearGradient id="paint5_linear_1938_219492" x1="33.9863" y1="35.3981" x2="33.9863" y2="36.4801" gradientUnits="userSpaceOnUse">
<stop stop-color="#738098"/>
<stop offset="1" stop-color="#313B4E"/>
</linearGradient>
<clipPath id="clip0_1938_219492">
<rect width="46.225" height="53.75" fill="white" transform="translate(0.775391 0.714233)"/>
</clipPath>
</defs>
</svg>
