<svg width="475" height="538" viewBox="0 0 475 538" fill="none" xmlns="http://www.w3.org/2000/svg">
<path d="M90.7037 349.594C90.7037 349.594 20.9547 247.799 52.7732 165.065C84.5916 82.3309 141.003 216.949 177.65 216.337C214.297 215.724 64.6742 59.6377 175.261 19.2872C269.025 -21.9141 311.478 4.75958 295.266 85.9032C276.004 182.331 306.275 202.311 338.774 164.036C376.271 119.807 413.75 171.691 379.484 221.916C345.217 272.142 451.044 234.717 427.148 284.271C404.978 330.201 419.497 343.079 419.497 343.079L391.708 349.628L90.7037 349.594Z" fill="url(#paint0_linear_670_86783)"/>
<path d="M248.316 83.2732C248.316 76.3657 240.699 78.5675 239.403 79.0004C238.106 79.4328 235.081 69.4797 235.081 69.4797C235.081 69.4797 219.523 68.1814 216.498 71.2109C216.498 71.2109 215.634 84.1935 216.066 92.4154C216.498 100.638 219.136 104.092 222.162 104.092C223.119 104.038 224.059 103.818 224.94 103.442V118.578L243.239 109.08L240.985 91.2005C241.078 91.1461 241.131 91.1171 241.131 91.1171C241.131 91.1171 248.316 89.7969 248.316 83.2732Z" fill="url(#paint1_linear_670_86783)"/>
<path d="M216.004 82.4652C216.004 82.4652 216.848 75.3586 216.956 73.3912C217.11 70.5615 219.742 69.9676 221.289 71.9523C223.515 74.9002 227.293 76.2181 230.866 75.2932C234.001 74.5622 235.321 73.7229 235.608 76.8907C235.896 80.0591 236.974 85.3204 237.98 83.9127C238.986 82.5057 240.111 79.4114 242.104 79.0519C245.15 78.5021 247.033 82.1433 246.315 84.315C245.596 86.4867 244.58 87.8411 240.821 89.8947L241.993 99.1972C251.308 86.8282 254.817 69.842 242.183 65.9085C237.463 64.4389 232.56 54.9156 223.426 57.082C216.956 58.6173 216.956 63.5817 216.495 67.899C207.801 68.259 216.004 82.4652 216.004 82.4652Z" fill="url(#paint2_linear_670_86783)"/>
<path d="M243.548 81.7972C241.473 81.0934 239.551 85.6104 239.471 85.8031C239.425 85.9137 239.476 86.0404 239.586 86.0867C239.613 86.0977 239.641 86.1035 239.67 86.1035C239.757 86.1041 239.835 86.0514 239.869 85.9715C240.204 85.1913 240.616 84.4464 241.096 83.746C241.531 83.6702 241.98 83.753 242.361 83.9787C242.739 84.2606 242.98 84.6901 243.026 85.1606C243.043 85.2648 243.133 85.3418 243.238 85.3418C243.251 85.3418 243.262 85.3406 243.274 85.3389C243.33 85.3296 243.381 85.2984 243.414 85.2515C243.448 85.2052 243.461 85.1467 243.452 85.0906C243.377 84.0441 242.486 83.2471 241.439 83.2899C242.055 82.5288 242.756 81.9865 243.409 82.207C243.482 82.2319 243.562 82.2157 243.621 82.1647C243.679 82.1138 243.705 82.0357 243.69 81.9599C243.675 81.884 243.621 81.8221 243.548 81.7972Z" fill="#0B122D"/>
<path d="M224.94 103.659C224.838 103.659 224.75 103.587 224.729 103.487C224.707 103.388 224.76 103.286 224.853 103.245C224.924 103.214 232.024 100.032 235.021 96.1874C235.094 96.0931 235.23 96.0763 235.324 96.1498C235.418 96.2233 235.435 96.3593 235.361 96.4537C232.298 100.385 225.323 103.51 225.027 103.641C225 103.653 224.97 103.659 224.94 103.659Z" fill="#0B122D"/>
<path d="M235.066 73.1395C235.018 73.1395 234.971 73.1232 234.933 73.0937C231.672 70.558 232.885 65.6422 232.939 65.4344C232.958 65.3592 233.015 65.3001 233.09 65.2787C233.164 65.2579 233.244 65.2781 233.3 65.3325C233.355 65.3869 233.377 65.4668 233.357 65.5415C233.345 65.5901 232.163 70.3919 235.198 72.7522C235.271 72.809 235.3 72.9056 235.27 72.993C235.24 73.0804 235.158 73.1395 235.066 73.1395Z" fill="white"/>
<g style="mix-blend-mode:overlay" opacity="0.6">
<g style="mix-blend-mode:overlay" opacity="0.6">
<path d="M224.955 103.542C224.955 103.542 231.182 100.641 233.194 98.5299C233.194 98.5299 232.729 104.221 228.616 108.22C224.504 112.219 224.955 108.987 224.955 108.987V103.542Z" fill="#030F1C"/>
</g>
</g>
<path d="M226.447 80.4087C226.508 81.1414 226.197 81.7654 225.752 81.8024C225.308 81.8395 224.897 81.2757 224.836 80.5429C224.775 79.8102 225.087 79.1862 225.531 79.1492C225.976 79.1121 226.386 79.6759 226.447 80.4087Z" fill="#161B36"/>
<path d="M218.522 81.6253C218.583 82.3581 218.273 82.982 217.827 83.0191C217.383 83.0561 216.973 82.4924 216.911 81.7596C216.851 81.0268 217.162 80.4029 217.606 80.3658C218.052 80.3288 218.461 80.8925 218.522 81.6253Z" fill="#161B36"/>
<path d="M223.723 76.0948C224.09 75.8668 224.541 75.7383 225.657 76.1458C226.772 76.5527 228.177 78.1357 227.716 78.2983C227.255 78.4616 226.396 77.1911 225.408 77.2356C224.421 77.2791 223.83 77.3809 223.58 77.1216C223.264 76.7969 223.546 76.2042 223.723 76.0948Z" fill="#161B36"/>
<path d="M218.115 76.6771C217.694 76.5758 217.227 76.5943 216.293 77.33C215.36 78.0657 214.518 80.007 215.007 80.018C215.495 80.029 215.916 78.5542 216.869 78.2868C217.821 78.0199 218.413 77.9325 218.57 77.609C218.769 77.2009 218.317 76.7269 218.115 76.6771Z" fill="#161B36"/>
<g style="mix-blend-mode:overlay" opacity="0.6">
<g style="mix-blend-mode:overlay" opacity="0.6">
<path d="M221.074 89.8559C220.75 89.8657 220.428 89.8009 220.133 89.6661C219.881 89.552 219.694 89.3304 219.623 89.0635C219.488 88.5084 219.989 87.5899 220.609 86.5359C220.767 86.2829 220.91 86.0207 221.036 85.751C221.154 85.4321 220.88 82.6428 220.548 80.1308L220.977 80.0741C221.092 80.9452 221.656 85.3204 221.442 85.9004C221.309 86.1955 221.155 86.4815 220.981 86.7552C220.591 87.4191 219.938 88.531 220.043 88.9599C220.084 89.1046 220.189 89.2227 220.328 89.28C220.968 89.4953 221.666 89.4583 222.281 89.1775L222.447 89.5775C222.011 89.7581 221.546 89.8524 221.074 89.8559Z" fill="#030F1C"/>
</g>
</g>
<path d="M227.992 94.62C227.992 95.9744 226.553 97.0695 224.781 97.0695C224.247 97.0719 223.718 96.9671 223.226 96.7622C222.236 96.3466 221.566 95.5421 221.566 94.62C221.566 93.2656 223.005 92.1705 224.781 92.1705C226.341 92.1705 227.646 93.0231 227.931 94.1529C227.971 94.3052 227.992 94.4626 227.992 94.62Z" fill="#161B36"/>
<path d="M227.992 94.62C227.992 95.9744 226.553 97.0695 224.781 97.0695C224.247 97.0719 223.718 96.9671 223.226 96.7622C223.709 96.074 225.399 93.9579 227.931 94.1529C227.971 94.3052 227.992 94.4626 227.992 94.62Z" fill="#E55151"/>
<path fill-rule="evenodd" clip-rule="evenodd" d="M213.16 361.258H203.357V348.797H213.638L213.16 361.258ZM252.056 349.181L262.191 348.829L262.621 361.258H252.819L252.056 349.181Z" fill="url(#paint3_linear_670_86783)"/>
<path fill-rule="evenodd" clip-rule="evenodd" d="M271.319 371.24L271.293 371.241C271.507 371.593 271.623 371.996 271.625 372.408V374.106H250.323V372.408C250.324 372.204 250.353 372.001 250.409 371.805L252.176 359.469C252.238 359.038 253.528 358.687 254.05 358.789C254.276 358.72 254.507 358.668 254.74 358.635C254.552 358.338 254.434 358.003 254.394 357.655C254.356 357.086 254.617 356.538 255.083 356.21C255.325 355.999 255.657 355.929 255.963 356.025C256.666 356.243 257.341 357.308 257.883 358.449C258.277 358.447 258.668 358.449 259.044 358.455C259.306 357.378 259.738 356.302 260.453 355.727C260.916 355.347 261.529 355.205 262.111 355.344C262.841 355.495 263.269 355.824 263.386 356.322C263.531 356.938 263.133 357.73 262.54 358.514C262.871 358.526 263.201 358.585 263.309 358.755L271.319 371.24ZM261.655 355.727C261.315 355.726 260.985 355.845 260.724 356.064C260.115 356.553 259.732 357.494 259.49 358.463C260.46 358.484 261.271 358.521 261.646 358.538C261.771 358.544 261.846 358.547 261.865 358.547C261.89 358.544 261.92 358.54 261.95 358.537L261.97 358.535C262.63 357.737 263.09 356.953 262.966 356.42C262.89 356.101 262.574 355.881 262.023 355.767C261.902 355.741 261.779 355.728 261.655 355.727ZM254.824 357.619C254.8 357.193 255.001 356.786 255.354 356.547C255.483 356.426 255.667 356.385 255.835 356.439C256.354 356.6 256.91 357.453 257.399 358.454C256.614 358.467 255.845 358.502 255.201 358.573C254.998 358.291 254.868 357.964 254.824 357.619ZM203.356 358.725C207.938 362.94 213.228 358.725 213.228 358.725C213.228 358.725 215.937 360.081 216.033 362.136C216.129 364.191 216.039 371.342 216.039 371.342V372.678C216.039 373.057 215.889 373.42 215.622 373.687C215.354 373.955 214.992 374.106 214.614 374.106H178.369C177.992 374.106 177.629 373.955 177.362 373.687C177.094 373.42 176.944 373.057 176.944 372.678V370.934H177.022C177.564 369.142 180.947 367.118 184.417 366.278C184.484 366.262 184.555 366.244 184.626 366.227C185.14 366.1 186.563 365.738 188.179 365.234C188.698 365.069 189.255 364.881 189.842 364.672C189.812 364.642 189.792 364.623 189.786 364.618V364.617L189.784 364.615C189.697 364.534 189.691 364.398 189.772 364.31C189.854 364.222 189.99 364.218 190.078 364.299C190.09 364.31 190.169 364.384 190.296 364.508C190.565 364.411 190.84 364.308 191.122 364.199C191.796 363.927 192.525 363.611 193.261 363.28L193.23 363.251C193.143 363.17 193.138 363.033 193.219 362.946C193.3 362.858 193.436 362.853 193.524 362.934C193.534 362.943 193.593 362.998 193.685 363.088C194.614 362.663 195.537 362.223 196.361 361.822C195.644 361.782 194.194 361.612 193.524 360.906C193.268 360.646 193.136 360.289 193.162 359.925C193.139 359.635 193.301 359.362 193.565 359.242C194.216 358.991 195.481 359.966 196.228 360.62C196.086 359.9 195.971 358.826 196.387 358.305C196.568 358.081 196.851 357.964 197.137 357.995C197.409 358 197.66 358.146 197.801 358.379C198.22 359.08 197.699 360.589 197.408 361.308C197.859 361.084 198.256 360.885 198.567 360.727C198.806 360.603 199.041 360.484 199.273 360.367L199.329 360.338L199.33 360.339C200.607 359.65 201.957 359.109 203.356 358.725Z" fill="#F47D7D"/>
<g style="mix-blend-mode:overlay" opacity="0.4">
<g style="mix-blend-mode:overlay" opacity="0.4">
<path d="M213.254 369.903C214.101 369.903 214.787 369.216 214.787 368.368C214.787 367.52 214.101 366.833 213.254 366.833C212.408 366.833 211.721 367.52 211.722 368.368C211.722 369.216 212.408 369.903 213.254 369.903Z" fill="#030F1C"/>
</g>
</g>
<g style="mix-blend-mode:overlay" opacity="0.4">
<g style="mix-blend-mode:overlay" opacity="0.4">
<path d="M212.728 365.866H216.077V365.433H212.728C211.181 365.435 209.927 366.691 209.925 368.24V370.934H176.944V372.678C176.944 373.057 177.094 373.42 177.362 373.688C177.629 373.955 177.992 374.106 178.369 374.106H214.614C214.992 374.106 215.354 373.955 215.622 373.688C215.889 373.42 216.039 373.057 216.039 372.678V370.934H210.357V368.24C210.359 366.93 211.419 365.867 212.728 365.866Z" fill="#030F1C"/>
</g>
</g>
<g style="mix-blend-mode:overlay" opacity="0.4">
<g style="mix-blend-mode:overlay" opacity="0.4">
<path d="M267.167 369.322H254.781C252.319 369.322 250.323 370.703 250.323 372.408V374.106H271.625V372.408C271.625 370.703 269.63 369.322 267.167 369.322Z" fill="#030F1C"/>
</g>
</g>
<g style="mix-blend-mode:overlay" opacity="0.4">
<g style="mix-blend-mode:overlay" opacity="0.4">
<path d="M197.408 361.308C197.333 361.496 197.271 361.632 197.248 361.683C197.239 361.703 197.227 361.721 197.212 361.738C197.888 362.404 198.517 363.118 199.093 363.873C199.164 363.969 199.144 364.104 199.049 364.176C198.953 364.247 198.819 364.228 198.747 364.133C198.121 363.315 197.433 362.547 196.69 361.835C196.618 361.834 196.502 361.83 196.361 361.822C195.538 362.223 194.614 362.664 193.685 363.088C194.409 363.79 195.081 364.545 195.693 365.347C195.764 365.443 195.745 365.578 195.65 365.65C195.554 365.722 195.418 365.702 195.347 365.606C194.712 364.779 194.015 364.001 193.261 363.28C192.513 363.617 191.772 363.938 191.088 364.214C190.832 364.317 190.568 364.416 190.303 364.515C191.003 365.199 191.652 365.933 192.247 366.711C192.318 366.807 192.298 366.942 192.203 367.014C192.107 367.085 191.972 367.066 191.901 366.971C191.276 366.156 190.591 365.39 189.851 364.679C187.206 365.616 184.417 366.278 184.417 366.278C184.417 366.278 184.873 368.105 186.453 368.536C188.034 368.968 197.016 365.874 199.39 364.723C201.764 363.571 199.329 360.338 199.329 360.338C199.329 360.338 198.555 360.739 197.408 361.308Z" fill="#030F1C"/>
</g>
</g>
<g style="mix-blend-mode:overlay" opacity="0.4">
<g style="mix-blend-mode:overlay" opacity="0.4">
<path d="M258.712 360.482C258.776 359.8 258.887 359.122 259.045 358.455C258.669 358.449 258.277 358.447 257.883 358.449C258.219 359.159 258.505 359.898 258.712 360.482Z" fill="#030F1C"/>
</g>
</g>
<g style="mix-blend-mode:overlay" opacity="0.4">
<g style="mix-blend-mode:overlay" opacity="0.4">
<path fill-rule="evenodd" clip-rule="evenodd" d="M262.154 358.996C261.427 359.821 260.636 360.586 259.787 361.284C260.664 361.352 261.525 361.567 262.33 361.921C262.4 361.955 262.446 362.023 262.452 362.1C262.457 362.177 262.421 362.251 262.358 362.295C262.294 362.338 262.212 362.344 262.142 362.311C261.213 361.925 260.222 361.712 259.217 361.682C259.161 361.625 259.075 361.609 259.002 361.642C258.93 361.674 258.884 361.748 258.889 361.828C258.783 361.843 258.682 361.779 258.651 361.676C258.312 360.573 257.894 359.496 257.399 358.454C256.614 358.466 255.845 358.501 255.201 358.572C256.119 359.958 258.387 361.261 258.415 361.278C258.497 361.324 258.539 361.418 258.52 361.51C258.502 361.601 258.426 361.671 258.333 361.681C257.153 361.818 255.983 362.033 254.832 362.324C254.813 362.329 254.793 362.332 254.773 362.332C254.666 362.332 254.574 362.252 254.56 362.145C254.545 362.038 254.611 361.937 254.715 361.907C255.688 361.654 256.675 361.46 257.671 361.329C256.877 360.818 255.409 359.769 254.74 358.634C254.033 358.746 253.558 358.918 253.53 359.179C253.384 360.524 253.925 366.486 254.644 366.905C255.362 367.325 265.477 367.229 265.539 366.984C265.683 366.426 263.054 360.659 262.154 358.996ZM254.798 363.387C254.924 363.35 257.924 362.496 263.087 363.381C263.204 363.402 263.283 363.513 263.263 363.631C263.243 363.749 263.132 363.828 263.014 363.808C257.968 362.942 254.96 363.791 254.92 363.802H254.92C254.846 363.824 254.766 363.805 254.71 363.751C254.654 363.698 254.631 363.619 254.649 363.544C254.667 363.469 254.724 363.409 254.798 363.387ZM254.459 365.499C257.625 365.14 260.821 365.14 263.988 365.499C264.106 365.511 264.212 365.427 264.227 365.309C264.241 365.191 264.156 365.083 264.038 365.069C260.835 364.706 257.601 364.706 254.398 365.07C254.286 365.086 254.205 365.186 254.213 365.299C254.221 365.413 254.315 365.5 254.428 365.501C254.438 365.5 254.448 365.5 254.459 365.499Z" fill="#030F1C"/>
</g>
</g>
<g style="mix-blend-mode:overlay" opacity="0.4">
<g style="mix-blend-mode:overlay" opacity="0.4">
<path d="M261.917 358.599C261.894 358.569 261.875 358.547 261.865 358.547C261.79 358.547 260.781 358.491 259.49 358.463C259.27 359.393 259.135 360.341 259.087 361.295C260.111 360.486 261.058 359.583 261.917 358.599Z" fill="#030F1C"/>
</g>
</g>
<path d="M204.936 202.681C204.936 202.681 199.863 266.866 200.15 277.515C200.438 288.164 201.3 353.786 201.3 353.786C201.3 353.786 208.198 357.527 215.384 353.786C215.384 353.786 219.695 313.204 221.706 301.116C223.718 289.028 223.144 272.622 223.144 272.622L233.491 247.006L251.36 354.62C251.36 354.62 260.508 356.952 264.82 354.074C264.82 354.074 263.957 333.639 264.82 313.492C265.682 293.345 263.957 278.666 261.37 270.895C261.37 270.895 267.114 229.736 265.965 202.681H204.936Z" fill="url(#paint4_linear_670_86783)"/>
<g style="mix-blend-mode:overlay" opacity="0.6">
<g style="mix-blend-mode:overlay" opacity="0.6">
<path d="M250.007 346.469C250.007 346.469 256.236 349.13 264.59 346.469V348.221C259.97 349.814 254.957 349.851 250.315 348.324L250.007 346.469Z" fill="white"/>
</g>
</g>
<g style="mix-blend-mode:overlay" opacity="0.6">
<g style="mix-blend-mode:overlay" opacity="0.6">
<path d="M201.202 346.469C201.202 346.469 207.82 349.13 216.174 346.469L215.956 348.473C215.956 348.473 208.756 350.915 201.227 348.325L201.202 346.469Z" fill="white"/>
</g>
</g>
<g style="mix-blend-mode:overlay" opacity="0.6">
<g style="mix-blend-mode:overlay" opacity="0.6">
<path d="M265.801 220.171C265.788 220.171 265.775 220.17 265.763 220.168C252.395 217.786 254.59 202.948 254.614 202.798C254.633 202.68 254.743 202.6 254.861 202.619C254.979 202.638 255.059 202.748 255.04 202.866C255.017 203.012 252.89 217.435 265.838 219.742C265.948 219.762 266.025 219.862 266.015 219.974C266.005 220.085 265.912 220.171 265.801 220.171Z" fill="#030F1C"/>
</g>
</g>
<g style="mix-blend-mode:overlay" opacity="0.6">
<g style="mix-blend-mode:overlay" opacity="0.6">
<path d="M203.679 217.146C203.579 217.146 203.493 217.078 203.469 216.982C203.445 216.885 203.49 216.784 203.579 216.738C203.672 216.689 212.922 211.739 212.434 202.844C212.43 202.786 212.45 202.73 212.488 202.687C212.526 202.645 212.58 202.619 212.637 202.616C212.694 202.612 212.751 202.631 212.794 202.67C212.837 202.708 212.862 202.763 212.865 202.82C213.37 211.996 203.874 217.071 203.778 217.122C203.748 217.138 203.714 217.146 203.679 217.146Z" fill="#030F1C"/>
</g>
</g>
<g style="mix-blend-mode:overlay" opacity="0.6">
<g style="mix-blend-mode:overlay" opacity="0.6">
<path d="M204.936 202.681L204.663 206.997C228.688 216.533 266.085 209.879 266.085 209.879L265.964 202.681H204.936Z" fill="#030F1C"/>
</g>
</g>
<g style="mix-blend-mode:overlay" opacity="0.6">
<g style="mix-blend-mode:overlay" opacity="0.6">
<path d="M233.491 247.006L227.738 225.565C227.738 225.565 224.724 237.177 226.018 249.741C227.311 262.305 226.018 265.507 226.018 265.507L233.491 247.006Z" fill="#030F1C"/>
</g>
</g>
<g style="mix-blend-mode:overlay" opacity="0.6">
<g style="mix-blend-mode:overlay" opacity="0.6">
<path d="M203.783 218.356C203.783 218.356 206.325 217.218 207.331 221.247C208.337 225.276 207.145 245.136 205.995 256.361C204.846 267.585 203.462 284.71 203.243 293.633C203.025 302.555 200.61 304.288 200.61 304.288C200.61 304.288 199.864 278.897 200.289 272.327C200.716 265.756 201.822 239.583 203.783 218.356Z" fill="white"/>
</g>
</g>
<g style="mix-blend-mode:overlay" opacity="0.6">
<g style="mix-blend-mode:overlay" opacity="0.6">
<path d="M235.167 257.377C235.167 257.377 243.347 266.906 245.245 279.694C247.143 292.481 248.724 317.857 249.682 324.38C250.64 330.905 252.902 338.124 248.714 338.688L235.167 257.377Z" fill="white"/>
</g>
</g>
<g style="mix-blend-mode:overlay" opacity="0.6">
<g style="mix-blend-mode:overlay" opacity="0.6">
<path d="M223.211 276.386C223.204 276.386 223.197 276.385 223.19 276.385C223.132 276.379 223.08 276.351 223.044 276.307C223.007 276.263 222.99 276.205 222.996 276.149C223.003 276.078 223.654 269.065 220.851 264.387C220.79 264.284 220.823 264.151 220.925 264.09C221.027 264.029 221.16 264.062 221.221 264.165C224.099 268.967 223.433 276.119 223.426 276.191C223.415 276.302 223.322 276.386 223.211 276.386Z" fill="#030F1C"/>
</g>
</g>
<path d="M145.689 349.512C132.844 349.362 125.277 337.867 123.099 332.139C140.126 335.128 146.374 332.762 147.369 331.205C152 338.228 164.484 342.849 170.146 344.281C167.346 346.087 158.534 349.661 145.689 349.512Z" fill="#DEE6EE"/>
<path d="M129.046 336.619C133.527 337.304 143.347 337.702 146.782 333.817" stroke="#122746" stroke-width="0.819607" stroke-linecap="round"/>
<path d="M131.875 339.797C136.355 340.482 146.176 340.881 149.611 336.996" stroke="#122746" stroke-width="0.819607" stroke-linecap="round"/>
<path d="M139.152 346.59C139.752 346.762 143.007 347.619 144.892 346.59C146.777 345.561 146.52 345.819 147.891 346.59C148.987 347.207 149.604 347.761 149.775 347.962H150.118H150.718" stroke="#122746" stroke-width="0.819607" stroke-linecap="round"/>
<path d="M315.318 133.794L304.879 127.023C304.165 126.556 302.189 127.283 301.722 127.997L299.96 130.632C299.593 131.196 299.635 131.933 300.063 132.452L286.732 147.504C286.436 147.84 285.987 147.999 285.546 147.924C285.105 147.849 284.733 147.552 284.564 147.137C282.409 141.867 279.953 136.727 277.205 131.742C272.909 124.023 267.685 116.237 261.61 112.785C261.086 112.386 260.502 112.072 259.881 111.855C256.048 110.511 244.264 108.017 244.264 108.017L229.442 114.692L221.462 109.168C221.462 109.168 206.996 115.404 204.696 118.474C204.614 118.591 204.547 118.72 204.5 118.855C200.733 122.752 198.196 129.502 194.468 136.201C191.073 142.304 187.74 148.491 184.841 151.812C184.395 152.315 183.755 152.601 183.085 152.599C182.414 152.597 181.776 152.307 181.332 151.802C181.332 151.802 175.126 144.853 168.034 136.855C168.436 136.282 168.402 135.509 167.95 134.974L165.514 132.097C164.963 131.446 163.062 131.56 162.412 132.112L152.961 140.208C152.31 140.76 152.445 142.865 152.996 143.516L155.016 145.957C155.435 146.448 156.114 146.627 156.719 146.404C168.132 165.894 173.905 174.757 178.276 176.328C182.128 177.713 186.827 176.436 190.421 172.84C196.862 166.395 202.025 160.472 206.19 155.484C206.583 160.322 206.878 164.5 206.9 167.115C206.957 173.855 206.275 181.654 206.085 190.428C205.996 194.582 202.062 202.748 205.271 205.394C215.629 213.932 266.299 205.394 266.299 205.394C266.218 200.413 265.576 195.456 264.384 190.62C261.941 181.326 262.276 176.613 262.563 171.144C262.68 168.925 263.002 160.666 263.356 151.433C268.067 157.43 272.694 162.776 277.258 167.056C285.736 175.009 290.493 174.25 303.782 153.515C305.368 151.041 309.639 144.743 312.298 140.517C312.978 140.785 313.752 140.537 314.153 139.925L316.214 136.768C316.68 136.054 316.031 134.261 315.318 133.794Z" fill="url(#paint5_linear_670_86783)"/>
<g style="mix-blend-mode:overlay" opacity="0.6">
<g style="mix-blend-mode:overlay" opacity="0.6">
<path d="M197.341 139.186C196.385 141.588 194.946 144.751 191.783 149.932C188.624 155.111 184.549 159.31 179.428 154.995C175.292 151.507 170.037 144.081 168.464 141.969C166.891 139.862 168.464 137.339 168.464 137.339C175.374 145.128 181.334 151.801 181.334 151.801C181.777 152.305 182.414 152.595 183.085 152.598C183.756 152.601 184.396 152.315 184.843 151.814C187.738 148.491 191.074 142.303 194.467 136.201C194.808 135.581 195.145 134.967 195.465 134.349H195.469C195.469 134.349 198.3 136.789 197.341 139.186Z" fill="#DCE4EF"/>
</g>
</g>
<g style="mix-blend-mode:overlay" opacity="0.6">
<g style="mix-blend-mode:overlay" opacity="0.6">
<path d="M204.649 136.709C200.527 142.069 202.139 154.141 198.731 158.327C195.294 162.551 188.86 165.796 190.421 172.84C196.79 166.131 202.129 160.454 206.193 155.524C205.719 149.69 205.102 142.891 204.649 136.709Z" fill="#030F1C"/>
</g>
</g>
<path d="M180.842 160.412C180.756 160.412 180.677 160.36 180.643 160.28C180.609 160.2 180.626 160.108 180.687 160.045C183.229 157.42 182.846 153.809 182.841 153.773C182.835 153.716 182.851 153.659 182.887 153.614C182.922 153.569 182.975 153.54 183.032 153.533C183.088 153.526 183.146 153.542 183.191 153.578C183.237 153.613 183.265 153.666 183.271 153.723C183.289 153.879 183.685 157.57 180.997 160.346C180.957 160.388 180.901 160.412 180.842 160.412Z" fill="#0B122D"/>
<path d="M205.307 145.819C205.2 145.818 205.109 145.74 205.094 145.634C203.653 136.053 204.337 129.123 204.343 129.054C204.358 128.936 204.463 128.851 204.581 128.86C204.637 128.866 204.69 128.895 204.726 128.939C204.762 128.984 204.779 129.04 204.773 129.098C204.766 129.166 204.089 136.047 205.521 145.57C205.529 145.627 205.515 145.684 205.481 145.731C205.447 145.777 205.396 145.808 205.339 145.816C205.329 145.818 205.318 145.819 205.307 145.819Z" fill="#0B122D"/>
<path d="M211.115 197.552C211.077 197.552 211.04 197.542 211.007 197.523C207.237 195.345 205.931 190.682 205.877 190.485C205.857 190.41 205.878 190.331 205.932 190.276C205.986 190.221 206.066 190.199 206.14 190.218C206.215 190.238 206.274 190.296 206.294 190.371C206.307 190.417 207.61 195.061 211.223 197.148C211.308 197.197 211.349 197.297 211.324 197.391C211.298 197.486 211.213 197.552 211.115 197.552Z" fill="#0B122D"/>
<g style="mix-blend-mode:overlay" opacity="0.6">
<g style="mix-blend-mode:overlay" opacity="0.6">
<path d="M263.548 151.678C260.541 147.861 257.5 143.773 254.418 139.521C254.189 143.084 253.781 153.938 256.323 164.597C260.264 181.122 254.106 192.107 248.001 198.583C242.817 204.081 232.097 205.394 224.4 209.189C239.139 209.999 266.3 205.394 266.3 205.394C266.3 205.394 266.3 196.271 263.704 187.839C261.219 179.189 262.953 158.008 263.548 151.678Z" fill="#030F1C"/>
</g>
</g>
<g style="mix-blend-mode:overlay" opacity="0.6">
<g style="mix-blend-mode:overlay" opacity="0.6">
<path d="M234.987 116L251.317 109.598L244.265 108.017L234.987 116Z" fill="#030F1C"/>
</g>
</g>
<g style="mix-blend-mode:overlay" opacity="0.6">
<g style="mix-blend-mode:overlay" opacity="0.6">
<path d="M157.191 146.136L167.772 137.152C168.407 136.612 160.212 139.71 158.392 143.449C157.214 145.869 155.292 144.617 154.674 143.532C153.808 142.011 154.634 138.775 154.634 138.775C154.622 138.76 153.089 140.124 153.077 140.109L152.961 140.208C152.311 140.76 152.445 142.865 152.996 143.516L155.017 145.957C155.281 146.269 155.659 146.464 156.068 146.497C156.475 146.531 156.88 146.401 157.191 146.136Z" fill="#030F1C"/>
</g>
</g>
<path d="M287.549 155.745C287.49 155.745 287.434 155.722 287.393 155.679C284.705 152.903 285.101 149.212 285.119 149.057C285.134 148.938 285.241 148.853 285.359 148.867C285.477 148.881 285.562 148.988 285.549 149.106C285.545 149.143 285.161 152.753 287.704 155.378C287.764 155.441 287.781 155.533 287.748 155.613C287.714 155.693 287.635 155.745 287.549 155.745Z" fill="#0B122D"/>
<g style="mix-blend-mode:overlay" opacity="0.6">
<g style="mix-blend-mode:overlay" opacity="0.6">
<path d="M300.407 132.77L312.017 140.372C312.714 140.829 307.418 133.843 303.321 133.159C300.668 132.716 301.321 130.515 302.183 129.613C303.394 128.349 306.727 128.222 306.727 128.222C306.737 128.206 304.995 127.122 305.006 127.107L304.878 127.023C304.165 126.556 302.189 127.283 301.722 127.997L299.96 130.632C299.736 130.975 299.657 131.393 299.741 131.794C299.825 132.195 300.064 132.546 300.407 132.77Z" fill="#030F1C"/>
</g>
</g>
<path d="M257.415 143.199C257.371 143.199 257.328 143.186 257.292 143.161C251.113 138.864 251.094 129.512 251.094 129.418C251.092 129.36 251.115 129.305 251.156 129.264C251.197 129.223 251.253 129.201 251.311 129.204C251.43 129.204 251.526 129.301 251.526 129.421C251.526 129.513 251.548 138.64 257.538 142.805C257.616 142.859 257.65 142.957 257.622 143.047C257.593 143.138 257.51 143.199 257.415 143.199Z" fill="#0B122D"/>
<path fill-rule="evenodd" clip-rule="evenodd" d="M231.53 110.375C239.783 105.199 242.294 100.63 242.294 100.63L244.264 108.017L234.987 116C234.6 114.979 234.127 113.993 233.573 113.051L229.442 114.692L227.031 113.024L224.654 116.165L221.462 109.168L224.624 105.427C224.624 105.427 224.822 108.484 228.509 110.164L229.442 114.692L231.53 110.375Z" fill="#2D2B72"/>
<g style="mix-blend-mode:overlay" opacity="0.6">
<g style="mix-blend-mode:overlay" opacity="0.6">
<path d="M231.53 110.375L229.442 114.692L233.573 113.051C233.038 112.056 232.348 111.153 231.53 110.375Z" fill="#030F1C"/>
</g>
</g>
<g style="mix-blend-mode:overlay" opacity="0.6">
<g style="mix-blend-mode:overlay" opacity="0.6">
<path d="M228.509 110.164L229.442 114.693L227.031 113.024L228.509 110.164Z" fill="#030F1C"/>
</g>
</g>
<path fill-rule="evenodd" clip-rule="evenodd" d="M337.281 98.1108C337.676 97.5864 339.247 97.4296 339.247 97.4296C339.247 97.4296 338.056 101.698 338.347 105.431C338.549 108.023 337.679 109.559 336.869 110.99C336.512 111.619 336.168 112.228 335.93 112.898C335.153 115.091 333.357 117.666 328.447 118.363C324.258 118.956 318.4 126.77 314.277 133.119L306.854 128.304L317.098 116.549C317.098 116.549 317.424 114.71 319.765 112.528C321.576 110.84 325.731 110.449 327.52 110.359C328.09 110.331 328.645 110.16 329.133 109.863L331.835 108.216C332.21 107.988 332.449 107.59 332.478 107.153C332.609 105.609 332.572 104.055 332.367 102.518C331.989 100.585 333.919 100.206 333.919 100.206L334.947 108.147C334.947 108.147 335.457 102.055 335.407 100.014C335.351 99.4988 335.529 98.986 335.892 98.6167C336.256 98.2474 336.766 98.0616 337.281 98.1108ZM147.718 115.911C145.908 114.222 141.752 113.832 139.963 113.742C139.392 113.714 138.838 113.543 138.35 113.246L135.648 111.599C135.274 111.371 135.034 110.974 135.006 110.535C134.874 108.991 134.91 107.437 135.116 105.901C135.494 103.968 133.564 103.589 133.564 103.589L132.537 111.529C132.537 111.529 132.026 105.438 132.076 103.397C132.132 102.882 131.954 102.369 131.59 102C131.227 101.631 130.717 101.445 130.202 101.494C129.806 100.97 128.236 100.813 128.236 100.813C128.236 100.813 129.427 105.081 129.136 108.813C128.934 111.407 129.804 112.942 130.614 114.373C130.97 115.002 131.315 115.611 131.553 116.281C132.33 118.474 134.125 121.049 139.036 121.745C143.741 122.412 150.553 132.188 154.645 138.765L161.603 132.805L150.385 119.931C150.385 119.931 150.058 118.093 147.718 115.911ZM229.442 114.693L230.838 111.805L228.897 112.048L229.442 114.693Z" fill="url(#paint6_linear_670_86783)"/>
<path d="M130.361 102.024C130.364 101.966 130.344 101.91 130.306 101.868C130.268 101.825 130.214 101.799 130.157 101.796C130.1 101.791 130.042 101.81 130 101.849C129.956 101.888 129.931 101.942 129.93 102C129.914 102.281 129.565 108.885 130.054 110.513C130.076 110.588 130.137 110.645 130.212 110.663C130.288 110.681 130.367 110.657 130.42 110.6C130.473 110.544 130.491 110.462 130.468 110.388C130.001 108.833 130.358 102.091 130.361 102.024Z" fill="#0B122D"/>
<path d="M132.895 113.115C132.855 113.002 132.732 112.943 132.619 112.983C132.506 113.023 132.447 113.147 132.487 113.26C132.521 113.355 133.326 115.609 134.232 116.303C134.293 116.351 134.375 116.361 134.447 116.332C134.518 116.302 134.568 116.236 134.578 116.159C134.588 116.082 134.556 116.006 134.494 115.959C133.69 115.343 132.902 113.137 132.895 113.115Z" fill="#0B122D"/>
<path d="M144.082 116.624C139.295 116.38 135.602 112.032 135.565 111.988C135.488 111.897 135.352 111.885 135.261 111.962C135.17 112.039 135.157 112.175 135.234 112.266C135.389 112.451 139.082 116.802 144.06 117.056H144.071C144.187 117.056 144.283 116.963 144.286 116.846C144.289 116.729 144.198 116.63 144.082 116.624Z" fill="#0B122D"/>
<path d="M337.553 98.6173C337.552 98.5594 337.527 98.5038 337.484 98.465C337.441 98.4263 337.384 98.4077 337.326 98.4129C337.269 98.4164 337.215 98.4419 337.177 98.4847C337.138 98.5275 337.119 98.5837 337.122 98.641C337.125 98.7087 337.482 105.449 337.015 107.006C336.998 107.061 337.004 107.12 337.031 107.171C337.059 107.221 337.104 107.259 337.159 107.275C337.179 107.281 337.2 107.284 337.222 107.284C337.317 107.284 337.401 107.222 337.428 107.13C337.917 105.502 337.568 98.898 337.553 98.6173Z" fill="#0B122D"/>
<path d="M334.864 109.601C334.752 109.561 334.628 109.62 334.588 109.732C334.58 109.755 333.793 111.96 332.989 112.576C332.894 112.649 332.876 112.785 332.948 112.88C333.021 112.975 333.156 112.993 333.251 112.921C334.157 112.226 334.962 109.972 334.996 109.877C335.036 109.764 334.977 109.641 334.864 109.601Z" fill="#0B122D"/>
<path d="M331.918 108.605C331.881 108.649 328.188 112.997 323.402 113.241C323.285 113.247 323.194 113.346 323.197 113.462C323.2 113.58 323.296 113.673 323.413 113.674L323.424 113.673C328.402 113.42 332.095 109.068 332.25 108.883C332.326 108.791 332.313 108.655 332.222 108.579C332.131 108.502 331.995 108.514 331.918 108.605Z" fill="#0B122D"/>
<path d="M326.866 364.452C341.129 364.287 349.532 351.523 351.95 345.162C333.043 348.481 326.105 345.853 325 344.125C319.858 351.924 305.996 357.054 299.708 358.645C302.817 360.65 312.602 364.618 326.866 364.452Z" fill="#ACDBF7" fill-opacity="0.48"/>
<path d="M345.346 350.137C340.371 350.897 329.466 351.339 325.652 347.025" stroke="#122746" stroke-width="0.819607" stroke-linecap="round"/>
<path d="M342.207 353.666C337.232 354.427 326.327 354.87 322.512 350.555" stroke="#122746" stroke-width="0.819607" stroke-linecap="round"/>
<path d="M334.122 361.209C333.456 361.399 329.842 362.351 327.749 361.209C325.656 360.067 325.941 360.352 324.419 361.209C323.202 361.894 322.517 362.509 322.326 362.731H321.946H321.28" stroke="#122746" stroke-width="0.819607" stroke-linecap="round"/>
<path d="M104.017 425.561C126.138 425.304 139.17 405.509 142.92 395.644C113.598 400.791 102.838 396.716 101.123 394.035C93.15 406.131 71.6515 414.088 61.8989 416.554C66.7216 419.664 81.8971 425.819 104.017 425.561Z" fill="#D1E7F5"/>
<path d="M132.678 403.359C124.962 404.539 108.05 405.224 102.135 398.533" stroke="#122746" stroke-width="0.819607" stroke-linecap="round"/>
<path d="M127.81 408.833C120.093 410.013 103.182 410.699 97.2659 404.008" stroke="#122746" stroke-width="0.819607" stroke-linecap="round"/>
<path d="M115.273 420.53C114.24 420.825 108.635 422.302 105.388 420.53C102.142 418.759 102.585 419.202 100.224 420.53C98.3358 421.593 97.2736 422.547 96.9786 422.892H96.3884H95.3557" stroke="#122746" stroke-width="0.819607" stroke-linecap="round"/>
<path d="M286.47 412.559C270.704 412.376 261.416 398.267 258.743 391.236C279.641 394.905 287.31 392 288.532 390.09C294.215 398.711 309.537 404.382 316.488 406.139C313.051 408.356 302.235 412.743 286.47 412.559Z" fill="#DEE6EE"/>
<path d="M266.042 396.735C271.542 397.576 283.595 398.065 287.812 393.296" stroke="#122746" stroke-width="0.819607" stroke-linecap="round"/>
<path d="M269.513 400.637C275.012 401.477 287.066 401.966 291.282 397.198" stroke="#122746" stroke-width="0.819607" stroke-linecap="round"/>
<path d="M278.447 408.973C279.184 409.184 283.179 410.236 285.492 408.973C287.806 407.711 287.49 408.026 289.173 408.973C290.518 409.731 291.276 410.411 291.486 410.656H291.907H292.642" stroke="#122746" stroke-width="0.819607" stroke-linecap="round"/>
<path d="M261.85 40.0081C261.445 39.9232 261.144 39.7062 260.947 39.3571C260.751 39.0079 260.707 38.5752 260.815 38.0587C261.293 35.7717 262.108 33.9016 263.258 32.4484C264.446 31.0029 266.014 29.4832 267.964 27.8893C269.549 26.5656 270.752 25.4122 271.573 24.4291C272.432 23.4537 273.003 22.2836 273.289 20.9187C273.621 19.3326 273.308 17.9772 272.35 16.8526C271.4 15.6912 269.948 14.9058 267.994 14.4967C266.335 14.1494 264.736 14.161 263.196 14.5316C261.664 14.8654 259.874 15.511 257.827 16.4684C257.107 16.7798 256.545 16.8931 256.14 16.8082C255.697 16.7155 255.367 16.4539 255.149 16.0233C254.976 15.5635 254.943 15.0754 255.052 14.559C255.206 13.8212 255.636 13.2374 256.342 12.8077C258.109 11.7147 260.129 10.9825 262.4 10.6109C264.716 10.2102 266.924 10.2299 269.025 10.6699C272.233 11.3414 274.647 12.6749 276.269 14.6701C277.928 16.6732 278.488 18.9657 277.948 21.5478C277.539 23.5028 276.761 25.1108 275.612 26.3719C274.507 27.6038 272.907 29.0013 270.81 30.5643C268.846 32.0399 267.276 33.3858 266.098 34.6023C264.964 35.7896 264.117 37.2677 263.555 39.0365C263.432 39.4346 263.22 39.7173 262.915 39.8845C262.611 40.0518 262.256 40.093 261.85 40.0081ZM259.776 50.2006C258.891 50.0153 258.216 49.5658 257.75 48.8521C257.32 48.1462 257.198 47.3505 257.383 46.4652C257.568 45.5799 257.999 44.9001 258.675 44.4257C259.396 43.9221 260.199 43.7629 261.084 43.9482C261.969 44.1334 262.622 44.5975 263.044 45.3404C263.511 46.0541 263.651 46.8536 263.466 47.7389C263.281 48.6242 262.831 49.3002 262.118 49.7669C261.442 50.2413 260.661 50.3858 259.776 50.2006Z" fill="#27303F"/>
<path d="M280.881 67.7201C280.605 67.6072 280.421 67.4145 280.328 67.1419C280.234 66.8693 280.26 66.5579 280.404 66.2065C281.04 64.6519 281.86 63.4364 282.864 62.5595C283.892 61.6924 285.199 60.8231 286.786 59.9508C288.079 59.2221 289.08 58.564 289.79 57.9759C290.524 57.3987 291.081 56.6461 291.461 55.7185C291.902 54.6404 291.858 53.6412 291.328 52.7209C290.808 51.7756 289.883 51.0305 288.556 50.4859C287.428 50.0235 286.296 49.8226 285.158 49.8834C284.032 49.9192 282.682 50.1417 281.11 50.551C280.561 50.6772 280.148 50.6838 279.872 50.5707C279.571 50.4474 279.372 50.2193 279.275 49.8863C279.212 49.5386 279.253 49.1892 279.397 48.8382C279.602 48.3368 279.982 47.9802 280.538 47.7686C281.93 47.2269 283.453 46.9732 285.107 47.0073C286.797 47.0267 288.356 47.3292 289.784 47.915C291.964 48.809 293.498 50.0674 294.384 51.6901C295.296 53.3232 295.392 55.0172 294.673 56.7723C294.128 58.101 293.368 59.1364 292.391 59.8779C291.449 60.6043 290.136 61.3834 288.449 62.2139C286.868 63.0011 285.582 63.7472 284.59 64.4533C283.634 65.1444 282.841 66.0786 282.213 67.2559C282.075 67.5216 281.887 67.6935 281.65 67.7722C281.413 67.8503 281.156 67.833 280.881 67.7201ZM278.084 74.6553C277.483 74.4088 277.064 74.003 276.827 73.437C276.615 72.8819 276.633 72.3037 276.879 71.7017C277.126 71.0997 277.52 70.6755 278.059 70.4283C278.635 70.1667 279.224 70.1592 279.825 70.4058C280.426 70.6523 280.827 71.0662 281.029 71.6461C281.265 72.2116 281.261 72.7956 281.014 73.397C280.768 73.999 280.362 74.418 279.796 74.6548C279.256 74.9019 278.685 74.9019 278.084 74.6553Z" fill="#27303F"/>
<path d="M238.689 34.5873C238.512 34.635 238.349 34.6093 238.201 34.5102C238.053 34.4113 237.949 34.2486 237.889 34.0222C237.62 33.0197 237.568 32.1152 237.734 31.3085C237.915 30.4974 238.232 29.5806 238.685 28.5579C239.048 27.7154 239.294 27.0169 239.423 26.4625C239.568 25.9039 239.56 25.3254 239.4 24.7272C239.214 24.032 238.818 23.5575 238.214 23.3037C237.605 23.0338 236.872 23.0137 236.015 23.2433C235.288 23.4382 234.656 23.7635 234.12 24.2192C233.58 24.6587 233 25.2734 232.38 26.0634C232.157 26.3311 231.957 26.4888 231.779 26.5364C231.586 26.5884 231.402 26.5509 231.23 26.4239C231.069 26.2763 230.958 26.0894 230.898 25.863C230.811 25.5397 230.864 25.222 231.058 24.9102C231.54 24.1225 232.194 23.4274 233.02 22.8247C233.857 22.2016 234.737 21.7666 235.657 21.5196C237.063 21.1427 238.288 21.1871 239.33 21.6527C240.389 22.114 241.07 22.9105 241.373 24.0423C241.602 24.8992 241.616 25.6928 241.413 26.4229C241.222 27.1327 240.867 28.0075 240.349 29.0475C239.866 30.0261 239.514 30.8745 239.29 31.5929C239.079 32.2907 239.039 33.0467 239.17 33.8605C239.202 34.0427 239.174 34.1975 239.087 34.3248C238.999 34.4522 238.867 34.5396 238.689 34.5873ZM239.909 39.0432C239.52 39.1472 239.163 39.1045 238.835 38.9151C238.523 38.7214 238.316 38.4305 238.212 38.0425C238.108 37.6545 238.143 37.2986 238.316 36.9749C238.501 36.6307 238.787 36.4067 239.175 36.3027C239.563 36.1987 239.914 36.2517 240.23 36.4615C240.558 36.6509 240.774 36.9396 240.878 37.3277C240.982 37.7157 240.939 38.0738 240.75 38.4018C240.577 38.7254 240.296 38.9392 239.909 39.0432Z" fill="#27303F"/>
<path d="M4.35 528C3.69 528 3.18 527.83 2.82 527.49C2.48 527.13 2.31 526.62 2.31 525.96V508.89C2.31 508.23 2.48 507.73 2.82 507.39C3.18 507.03 3.69 506.85 4.35 506.85H11.55C13.03 506.85 14.29 507.07 15.33 507.51C16.37 507.95 17.16 508.58 17.7 509.4C18.26 510.22 18.54 511.2 18.54 512.34C18.54 513.62 18.17 514.7 17.43 515.58C16.69 516.46 15.68 517.05 14.4 517.35V516.9C15.88 517.12 17.03 517.68 17.85 518.58C18.67 519.48 19.08 520.65 19.08 522.09C19.08 523.97 18.44 525.43 17.16 526.47C15.9 527.49 14.14 528 11.88 528H4.35ZM6 525.09H11.4C12.76 525.09 13.76 524.83 14.4 524.31C15.04 523.77 15.36 522.97 15.36 521.91C15.36 520.83 15.04 520.03 14.4 519.51C13.76 518.99 12.76 518.73 11.4 518.73H6V525.09ZM6 515.82H10.89C12.21 515.82 13.19 515.57 13.83 515.07C14.49 514.55 14.82 513.79 14.82 512.79C14.82 511.79 14.49 511.04 13.83 510.54C13.19 510.02 12.21 509.76 10.89 509.76H6V515.82ZM29.8343 528.3C28.1743 528.3 26.7443 527.99 25.5443 527.37C24.3443 526.75 23.4143 525.87 22.7543 524.73C22.1143 523.59 21.7943 522.24 21.7943 520.68C21.7943 519.16 22.1043 517.83 22.7243 516.69C23.3643 515.55 24.2343 514.66 25.3343 514.02C26.4543 513.36 27.7243 513.03 29.1443 513.03C30.1843 513.03 31.1143 513.2 31.9343 513.54C32.7743 513.88 33.4843 514.37 34.0643 515.01C34.6643 515.65 35.1143 516.43 35.4143 517.35C35.7343 518.25 35.8943 519.27 35.8943 520.41C35.8943 520.77 35.7643 521.05 35.5043 521.25C35.2643 521.43 34.9143 521.52 34.4543 521.52H24.8243V519.36H33.2543L32.7743 519.81C32.7743 518.89 32.6343 518.12 32.3543 517.5C32.0943 516.88 31.7043 516.41 31.1843 516.09C30.6843 515.75 30.0543 515.58 29.2943 515.58C28.4543 515.58 27.7343 515.78 27.1343 516.18C26.5543 516.56 26.1043 517.11 25.7843 517.83C25.4843 518.53 25.3343 519.37 25.3343 520.35V520.56C25.3343 522.2 25.7143 523.43 26.4743 524.25C27.2543 525.05 28.3943 525.45 29.8943 525.45C30.4143 525.45 30.9943 525.39 31.6343 525.27C32.2943 525.13 32.9143 524.9 33.4943 524.58C33.9143 524.34 34.2843 524.24 34.6043 524.28C34.9243 524.3 35.1743 524.41 35.3543 524.61C35.5543 524.81 35.6743 525.06 35.7143 525.36C35.7543 525.64 35.6943 525.93 35.5343 526.23C35.3943 526.53 35.1443 526.79 34.7843 527.01C34.0843 527.45 33.2743 527.78 32.3543 528C31.4543 528.2 30.6143 528.3 29.8343 528.3ZM43.8741 528.3C42.2141 528.3 40.9641 527.83 40.1241 526.89C39.2841 525.93 38.8641 524.53 38.8641 522.69V508.5C38.8641 507.88 39.0241 507.41 39.3441 507.09C39.6641 506.77 40.1241 506.61 40.7241 506.61C41.3241 506.61 41.7841 506.77 42.1041 507.09C42.4441 507.41 42.6141 507.88 42.6141 508.5V522.51C42.6141 523.43 42.8041 524.11 43.1841 524.55C43.5841 524.99 44.1441 525.21 44.8641 525.21C45.0241 525.21 45.1741 525.21 45.3141 525.21C45.4541 525.19 45.5941 525.17 45.7341 525.15C46.0141 525.11 46.2041 525.19 46.3041 525.39C46.4041 525.57 46.4541 525.95 46.4541 526.53C46.4541 527.03 46.3541 527.42 46.1541 527.7C45.9541 527.98 45.6241 528.15 45.1641 528.21C44.9641 528.23 44.7541 528.25 44.5341 528.27C44.3141 528.29 44.0941 528.3 43.8741 528.3ZM53.7541 528.3C52.5341 528.3 51.5241 528.08 50.7241 527.64C49.9241 527.18 49.3241 526.5 48.9241 525.6C48.5441 524.7 48.3541 523.58 48.3541 522.24V514.98C48.3541 514.34 48.5141 513.87 48.8341 513.57C49.1541 513.25 49.6141 513.09 50.2141 513.09C50.8141 513.09 51.2741 513.25 51.5941 513.57C51.9341 513.87 52.1041 514.34 52.1041 514.98V522.3C52.1041 523.34 52.3141 524.11 52.7341 524.61C53.1541 525.11 53.8241 525.36 54.7441 525.36C55.7441 525.36 56.5641 525.02 57.2041 524.34C57.8441 523.64 58.1641 522.72 58.1641 521.58V514.98C58.1641 514.34 58.3241 513.87 58.6441 513.57C58.9641 513.25 59.4241 513.09 60.0241 513.09C60.6241 513.09 61.0841 513.25 61.4041 513.57C61.7441 513.87 61.9141 514.34 61.9141 514.98V526.32C61.9141 527.6 61.3041 528.24 60.0841 528.24C59.5041 528.24 59.0541 528.08 58.7341 527.76C58.4141 527.42 58.2541 526.94 58.2541 526.32V524.04L58.6741 524.94C58.2541 526.02 57.6141 526.85 56.7541 527.43C55.9141 528.01 54.9141 528.3 53.7541 528.3ZM67.7372 528.24C67.1372 528.24 66.6772 528.08 66.3572 527.76C66.0372 527.42 65.8772 526.94 65.8772 526.32V514.98C65.8772 514.36 66.0372 513.89 66.3572 513.57C66.6772 513.25 67.1272 513.09 67.7072 513.09C68.2872 513.09 68.7372 513.25 69.0572 513.57C69.3772 513.89 69.5372 514.36 69.5372 514.98V517.17L69.2072 516.27C69.6072 515.27 70.2272 514.48 71.0672 513.9C71.9072 513.32 72.9072 513.03 74.0672 513.03C75.2472 513.03 76.2172 513.31 76.9772 513.87C77.7372 514.43 78.2672 515.29 78.5672 516.45H78.1472C78.5472 515.39 79.2072 514.56 80.1272 513.96C81.0472 513.34 82.1072 513.03 83.3072 513.03C84.4272 513.03 85.3472 513.25 86.0672 513.69C86.8072 514.13 87.3572 514.8 87.7172 515.7C88.0772 516.58 88.2572 517.7 88.2572 519.06V526.32C88.2572 526.94 88.0872 527.42 87.7472 527.76C87.4272 528.08 86.9672 528.24 86.3672 528.24C85.7672 528.24 85.3072 528.08 84.9872 527.76C84.6672 527.42 84.5072 526.94 84.5072 526.32V519.21C84.5072 518.09 84.3172 517.27 83.9372 516.75C83.5772 516.23 82.9572 515.97 82.0772 515.97C81.0972 515.97 80.3272 516.32 79.7672 517.02C79.2072 517.7 78.9272 518.65 78.9272 519.87V526.32C78.9272 526.94 78.7672 527.42 78.4472 527.76C78.1272 528.08 77.6672 528.24 77.0672 528.24C76.4672 528.24 75.9972 528.08 75.6572 527.76C75.3372 527.42 75.1772 526.94 75.1772 526.32V519.21C75.1772 518.09 74.9872 517.27 74.6072 516.75C74.2472 516.23 73.6372 515.97 72.7772 515.97C71.7972 515.97 71.0272 516.32 70.4672 517.02C69.9072 517.7 69.6272 518.65 69.6272 519.87V526.32C69.6272 527.6 68.9972 528.24 67.7372 528.24ZM100.84 528.24C100.36 528.24 99.9703 528.13 99.6703 527.91C99.3903 527.69 99.2203 527.4 99.1603 527.04C99.1003 526.66 99.1703 526.24 99.3703 525.78L107.29 508.23C107.55 507.65 107.86 507.24 108.22 507C108.6 506.74 109.03 506.61 109.51 506.61C109.97 506.61 110.38 506.74 110.74 507C111.12 507.24 111.44 507.65 111.7 508.23L119.65 525.78C119.87 526.24 119.95 526.66 119.89 527.04C119.83 527.42 119.66 527.72 119.38 527.94C119.1 528.14 118.73 528.24 118.27 528.24C117.71 528.24 117.27 528.11 116.95 527.85C116.65 527.57 116.38 527.15 116.14 526.59L114.19 522.06L115.81 523.11H103.15L104.77 522.06L102.85 526.59C102.59 527.17 102.32 527.59 102.04 527.85C101.76 528.11 101.36 528.24 100.84 528.24ZM109.45 511.02L105.25 521.01L104.47 520.05H114.49L113.74 521.01L109.51 511.02H109.45ZM128.088 528.3C126.808 528.3 125.678 527.99 124.698 527.37C123.738 526.75 122.988 525.87 122.448 524.73C121.908 523.57 121.638 522.21 121.638 520.65C121.638 519.07 121.908 517.72 122.448 516.6C122.988 515.46 123.738 514.58 124.698 513.96C125.678 513.34 126.808 513.03 128.088 513.03C129.308 513.03 130.368 513.33 131.268 513.93C132.188 514.53 132.808 515.32 133.128 516.3H132.798V508.5C132.798 507.88 132.958 507.41 133.278 507.09C133.598 506.77 134.058 506.61 134.658 506.61C135.258 506.61 135.718 506.77 136.038 507.09C136.378 507.41 136.548 507.88 136.548 508.5V526.32C136.548 526.94 136.388 527.42 136.068 527.76C135.748 528.08 135.288 528.24 134.688 528.24C134.088 528.24 133.628 528.08 133.308 527.76C132.988 527.42 132.828 526.94 132.828 526.32V523.98L133.158 524.88C132.858 525.92 132.248 526.75 131.328 527.37C130.408 527.99 129.328 528.3 128.088 528.3ZM129.138 525.45C129.878 525.45 130.528 525.27 131.088 524.91C131.648 524.55 132.078 524.02 132.378 523.32C132.698 522.6 132.858 521.71 132.858 520.65C132.858 519.05 132.518 517.86 131.838 517.08C131.158 516.28 130.258 515.88 129.138 515.88C128.398 515.88 127.748 516.06 127.188 516.42C126.628 516.76 126.188 517.29 125.868 518.01C125.568 518.71 125.418 519.59 125.418 520.65C125.418 522.23 125.758 523.43 126.438 524.25C127.118 525.05 128.018 525.45 129.138 525.45ZM145.266 528.3C144.206 528.3 143.256 528.1 142.416 527.7C141.596 527.28 140.946 526.72 140.466 526.02C140.006 525.32 139.776 524.53 139.776 523.65C139.776 522.57 140.056 521.72 140.616 521.1C141.176 520.46 142.086 520 143.346 519.72C144.606 519.44 146.296 519.3 148.416 519.3H149.916V521.46H148.446C147.206 521.46 146.216 521.52 145.476 521.64C144.736 521.76 144.206 521.97 143.886 522.27C143.586 522.55 143.436 522.95 143.436 523.47C143.436 524.13 143.666 524.67 144.126 525.09C144.586 525.51 145.226 525.72 146.046 525.72C146.706 525.72 147.286 525.57 147.786 525.27C148.306 524.95 148.716 524.52 149.016 523.98C149.316 523.44 149.466 522.82 149.466 522.12V518.67C149.466 517.67 149.246 516.95 148.806 516.51C148.366 516.07 147.626 515.85 146.586 515.85C146.006 515.85 145.376 515.92 144.696 516.06C144.036 516.2 143.336 516.44 142.596 516.78C142.216 516.96 141.876 517.01 141.576 516.93C141.296 516.85 141.076 516.69 140.916 516.45C140.756 516.19 140.676 515.91 140.676 515.61C140.676 515.31 140.756 515.02 140.916 514.74C141.076 514.44 141.346 514.22 141.726 514.08C142.646 513.7 143.526 513.43 144.366 513.27C145.226 513.11 146.006 513.03 146.706 513.03C148.146 513.03 149.326 513.25 150.246 513.69C151.186 514.13 151.886 514.8 152.346 515.7C152.806 516.58 153.036 517.72 153.036 519.12V526.32C153.036 526.94 152.886 527.42 152.586 527.76C152.286 528.08 151.856 528.24 151.296 528.24C150.736 528.24 150.296 528.08 149.976 527.76C149.676 527.42 149.526 526.94 149.526 526.32V524.88H149.766C149.626 525.58 149.346 526.19 148.926 526.71C148.526 527.21 148.016 527.6 147.396 527.88C146.776 528.16 146.066 528.3 145.266 528.3ZM167.267 528.24C166.647 528.24 166.167 528.07 165.827 527.73C165.507 527.37 165.347 526.88 165.347 526.26V508.8C165.347 508.16 165.517 507.68 165.857 507.36C166.197 507.02 166.677 506.85 167.297 506.85H174.527C176.847 506.85 178.637 507.43 179.897 508.59C181.157 509.75 181.787 511.37 181.787 513.45C181.787 515.53 181.157 517.16 179.897 518.34C178.637 519.5 176.847 520.08 174.527 520.08H169.187V526.26C169.187 526.88 169.027 527.37 168.707 527.73C168.387 528.07 167.907 528.24 167.267 528.24ZM169.187 517.05H173.927C175.287 517.05 176.317 516.75 177.017 516.15C177.717 515.53 178.067 514.63 178.067 513.45C178.067 512.27 177.717 511.38 177.017 510.78C176.317 510.18 175.287 509.88 173.927 509.88H169.187V517.05ZM191.055 528.3C189.395 528.3 187.965 527.99 186.765 527.37C185.565 526.75 184.635 525.87 183.975 524.73C183.335 523.59 183.015 522.24 183.015 520.68C183.015 519.16 183.325 517.83 183.945 516.69C184.585 515.55 185.455 514.66 186.555 514.02C187.675 513.36 188.945 513.03 190.365 513.03C191.405 513.03 192.335 513.2 193.155 513.54C193.995 513.88 194.705 514.37 195.285 515.01C195.885 515.65 196.335 516.43 196.635 517.35C196.955 518.25 197.115 519.27 197.115 520.41C197.115 520.77 196.985 521.05 196.725 521.25C196.485 521.43 196.135 521.52 195.675 521.52H186.045V519.36H194.475L193.995 519.81C193.995 518.89 193.855 518.12 193.575 517.5C193.315 516.88 192.925 516.41 192.405 516.09C191.905 515.75 191.275 515.58 190.515 515.58C189.675 515.58 188.955 515.78 188.355 516.18C187.775 516.56 187.325 517.11 187.005 517.83C186.705 518.53 186.555 519.37 186.555 520.35V520.56C186.555 522.2 186.935 523.43 187.695 524.25C188.475 525.05 189.615 525.45 191.115 525.45C191.635 525.45 192.215 525.39 192.855 525.27C193.515 525.13 194.135 524.9 194.715 524.58C195.135 524.34 195.505 524.24 195.825 524.28C196.145 524.3 196.395 524.41 196.575 524.61C196.775 524.81 196.895 525.06 196.935 525.36C196.975 525.64 196.915 525.93 196.755 526.23C196.615 526.53 196.365 526.79 196.005 527.01C195.305 527.45 194.495 527.78 193.575 528C192.675 528.2 191.835 528.3 191.055 528.3ZM202.005 528.24C201.385 528.24 200.905 528.08 200.565 527.76C200.245 527.42 200.085 526.94 200.085 526.32V514.98C200.085 514.36 200.245 513.89 200.565 513.57C200.885 513.25 201.335 513.09 201.915 513.09C202.495 513.09 202.945 513.25 203.265 513.57C203.585 513.89 203.745 514.36 203.745 514.98V516.87H203.445C203.725 515.67 204.275 514.76 205.095 514.14C205.915 513.52 207.005 513.15 208.365 513.03C208.785 512.99 209.115 513.1 209.355 513.36C209.615 513.6 209.765 513.98 209.805 514.5C209.845 515 209.725 515.41 209.445 515.73C209.185 516.03 208.785 516.21 208.245 516.27L207.585 516.33C206.365 516.45 205.445 516.83 204.825 517.47C204.205 518.09 203.895 518.97 203.895 520.11V526.32C203.895 526.94 203.735 527.42 203.415 527.76C203.095 528.08 202.625 528.24 202.005 528.24ZM213.753 528.24C213.153 528.24 212.693 528.08 212.373 527.76C212.053 527.42 211.893 526.94 211.893 526.32V514.98C211.893 514.36 212.053 513.89 212.373 513.57C212.693 513.25 213.143 513.09 213.723 513.09C214.303 513.09 214.753 513.25 215.073 513.57C215.393 513.89 215.553 514.36 215.553 514.98V517.17L215.223 516.27C215.623 515.27 216.243 514.48 217.083 513.9C217.923 513.32 218.923 513.03 220.083 513.03C221.263 513.03 222.233 513.31 222.993 513.87C223.753 514.43 224.283 515.29 224.583 516.45H224.163C224.563 515.39 225.223 514.56 226.143 513.96C227.063 513.34 228.123 513.03 229.323 513.03C230.443 513.03 231.363 513.25 232.083 513.69C232.823 514.13 233.373 514.8 233.733 515.7C234.093 516.58 234.273 517.7 234.273 519.06V526.32C234.273 526.94 234.103 527.42 233.763 527.76C233.443 528.08 232.983 528.24 232.383 528.24C231.783 528.24 231.323 528.08 231.003 527.76C230.683 527.42 230.523 526.94 230.523 526.32V519.21C230.523 518.09 230.333 517.27 229.953 516.75C229.593 516.23 228.973 515.97 228.093 515.97C227.113 515.97 226.343 516.32 225.783 517.02C225.223 517.7 224.943 518.65 224.943 519.87V526.32C224.943 526.94 224.783 527.42 224.463 527.76C224.143 528.08 223.683 528.24 223.083 528.24C222.483 528.24 222.013 528.08 221.673 527.76C221.353 527.42 221.193 526.94 221.193 526.32V519.21C221.193 518.09 221.003 517.27 220.623 516.75C220.263 516.23 219.653 515.97 218.793 515.97C217.813 515.97 217.043 516.32 216.483 517.02C215.923 517.7 215.643 518.65 215.643 519.87V526.32C215.643 527.6 215.013 528.24 213.753 528.24ZM244.831 528.3C243.311 528.3 241.991 527.99 240.871 527.37C239.751 526.75 238.881 525.87 238.261 524.73C237.641 523.57 237.331 522.21 237.331 520.65C237.331 519.47 237.501 518.42 237.841 517.5C238.201 516.56 238.711 515.76 239.371 515.1C240.031 514.42 240.821 513.91 241.741 513.57C242.661 513.21 243.691 513.03 244.831 513.03C246.351 513.03 247.671 513.34 248.791 513.96C249.911 514.58 250.781 515.46 251.401 516.6C252.021 517.74 252.331 519.09 252.331 520.65C252.331 521.83 252.151 522.89 251.791 523.83C251.451 524.77 250.951 525.58 250.291 526.26C249.631 526.92 248.841 527.43 247.921 527.79C247.001 528.13 245.971 528.3 244.831 528.3ZM244.831 525.45C245.571 525.45 246.221 525.27 246.781 524.91C247.341 524.55 247.771 524.02 248.071 523.32C248.391 522.6 248.551 521.71 248.551 520.65C248.551 519.05 248.211 517.86 247.531 517.08C246.851 516.28 245.951 515.88 244.831 515.88C244.091 515.88 243.441 516.06 242.881 516.42C242.321 516.76 241.881 517.29 241.561 518.01C241.261 518.71 241.111 519.59 241.111 520.65C241.111 522.23 241.451 523.43 242.131 524.25C242.811 525.05 243.711 525.45 244.831 525.45ZM257.287 528.24C256.687 528.24 256.227 528.08 255.907 527.76C255.587 527.42 255.427 526.94 255.427 526.32V508.5C255.427 507.88 255.587 507.41 255.907 507.09C256.227 506.77 256.687 506.61 257.287 506.61C257.887 506.61 258.347 506.77 258.667 507.09C259.007 507.41 259.177 507.88 259.177 508.5V516.27H258.757C259.197 515.21 259.877 514.41 260.797 513.87C261.737 513.31 262.797 513.03 263.977 513.03C265.157 513.03 266.127 513.25 266.887 513.69C267.647 514.13 268.217 514.8 268.597 515.7C268.977 516.58 269.167 517.7 269.167 519.06V526.32C269.167 526.94 269.007 527.42 268.687 527.76C268.367 528.08 267.907 528.24 267.307 528.24C266.707 528.24 266.237 528.08 265.897 527.76C265.577 527.42 265.417 526.94 265.417 526.32V519.24C265.417 518.1 265.197 517.27 264.757 516.75C264.337 516.23 263.677 515.97 262.777 515.97C261.677 515.97 260.797 516.32 260.137 517.02C259.497 517.7 259.177 518.61 259.177 519.75V526.32C259.177 527.6 258.547 528.24 257.287 528.24ZM279.665 528.3C278.145 528.3 276.825 527.99 275.705 527.37C274.585 526.75 273.715 525.87 273.095 524.73C272.475 523.57 272.165 522.21 272.165 520.65C272.165 519.47 272.335 518.42 272.675 517.5C273.035 516.56 273.545 515.76 274.205 515.1C274.865 514.42 275.655 513.91 276.575 513.57C277.495 513.21 278.525 513.03 279.665 513.03C281.185 513.03 282.505 513.34 283.625 513.96C284.745 514.58 285.615 515.46 286.235 516.6C286.855 517.74 287.165 519.09 287.165 520.65C287.165 521.83 286.985 522.89 286.625 523.83C286.285 524.77 285.785 525.58 285.125 526.26C284.465 526.92 283.675 527.43 282.755 527.79C281.835 528.13 280.805 528.3 279.665 528.3ZM279.665 525.45C280.405 525.45 281.055 525.27 281.615 524.91C282.175 524.55 282.605 524.02 282.905 523.32C283.225 522.6 283.385 521.71 283.385 520.65C283.385 519.05 283.045 517.86 282.365 517.08C281.685 516.28 280.785 515.88 279.665 515.88C278.925 515.88 278.275 516.06 277.715 516.42C277.155 516.76 276.715 517.29 276.395 518.01C276.095 518.71 275.945 519.59 275.945 520.65C275.945 522.23 276.285 523.43 276.965 524.25C277.645 525.05 278.545 525.45 279.665 525.45ZM292.121 528.24C291.521 528.24 291.061 528.08 290.741 527.76C290.421 527.42 290.261 526.94 290.261 526.32V514.98C290.261 514.36 290.421 513.89 290.741 513.57C291.061 513.25 291.511 513.09 292.091 513.09C292.671 513.09 293.121 513.25 293.441 513.57C293.761 513.89 293.921 514.36 293.921 514.98V517.02L293.591 516.27C294.031 515.21 294.711 514.41 295.631 513.87C296.571 513.31 297.631 513.03 298.811 513.03C299.991 513.03 300.961 513.25 301.721 513.69C302.481 514.13 303.051 514.8 303.431 515.7C303.811 516.58 304.001 517.7 304.001 519.06V526.32C304.001 526.94 303.841 527.42 303.521 527.76C303.201 528.08 302.741 528.24 302.141 528.24C301.541 528.24 301.071 528.08 300.731 527.76C300.411 527.42 300.251 526.94 300.251 526.32V519.24C300.251 518.1 300.031 517.27 299.591 516.75C299.171 516.23 298.511 515.97 297.611 515.97C296.511 515.97 295.631 516.32 294.971 517.02C294.331 517.7 294.011 518.61 294.011 519.75V526.32C294.011 527.6 293.381 528.24 292.121 528.24ZM312.639 528.3C311.579 528.3 310.629 528.1 309.789 527.7C308.969 527.28 308.319 526.72 307.839 526.02C307.379 525.32 307.149 524.53 307.149 523.65C307.149 522.57 307.429 521.72 307.989 521.1C308.549 520.46 309.459 520 310.719 519.72C311.979 519.44 313.669 519.3 315.789 519.3H317.289V521.46H315.819C314.579 521.46 313.589 521.52 312.849 521.64C312.109 521.76 311.579 521.97 311.259 522.27C310.959 522.55 310.809 522.95 310.809 523.47C310.809 524.13 311.039 524.67 311.499 525.09C311.959 525.51 312.599 525.72 313.419 525.72C314.079 525.72 314.659 525.57 315.159 525.27C315.679 524.95 316.089 524.52 316.389 523.98C316.689 523.44 316.839 522.82 316.839 522.12V518.67C316.839 517.67 316.619 516.95 316.179 516.51C315.739 516.07 314.999 515.85 313.959 515.85C313.379 515.85 312.749 515.92 312.069 516.06C311.409 516.2 310.709 516.44 309.969 516.78C309.589 516.96 309.249 517.01 308.949 516.93C308.669 516.85 308.449 516.69 308.289 516.45C308.129 516.19 308.049 515.91 308.049 515.61C308.049 515.31 308.129 515.02 308.289 514.74C308.449 514.44 308.719 514.22 309.099 514.08C310.019 513.7 310.899 513.43 311.739 513.27C312.599 513.11 313.379 513.03 314.079 513.03C315.519 513.03 316.699 513.25 317.619 513.69C318.559 514.13 319.259 514.8 319.719 515.7C320.179 516.58 320.409 517.72 320.409 519.12V526.32C320.409 526.94 320.259 527.42 319.959 527.76C319.659 528.08 319.229 528.24 318.669 528.24C318.109 528.24 317.669 528.08 317.349 527.76C317.049 527.42 316.899 526.94 316.899 526.32V524.88H317.139C316.999 525.58 316.719 526.19 316.299 526.71C315.899 527.21 315.389 527.6 314.769 527.88C314.149 528.16 313.439 528.3 312.639 528.3ZM326.076 528.24C325.476 528.24 325.016 528.08 324.696 527.76C324.376 527.42 324.216 526.94 324.216 526.32V514.98C324.216 514.36 324.376 513.89 324.696 513.57C325.016 513.25 325.466 513.09 326.046 513.09C326.626 513.09 327.076 513.25 327.396 513.57C327.716 513.89 327.876 514.36 327.876 514.98V517.02L327.546 516.27C327.986 515.21 328.666 514.41 329.586 513.87C330.526 513.31 331.586 513.03 332.766 513.03C333.946 513.03 334.916 513.25 335.676 513.69C336.436 514.13 337.006 514.8 337.386 515.7C337.766 516.58 337.956 517.7 337.956 519.06V526.32C337.956 526.94 337.796 527.42 337.476 527.76C337.156 528.08 336.696 528.24 336.096 528.24C335.496 528.24 335.026 528.08 334.686 527.76C334.366 527.42 334.206 526.94 334.206 526.32V519.24C334.206 518.1 333.986 517.27 333.546 516.75C333.126 516.23 332.466 515.97 331.566 515.97C330.466 515.97 329.586 516.32 328.926 517.02C328.286 517.7 327.966 518.61 327.966 519.75V526.32C327.966 527.6 327.336 528.24 326.076 528.24ZM355.549 528.3C354.269 528.3 353.139 527.99 352.159 527.37C351.199 526.75 350.449 525.87 349.909 524.73C349.369 523.57 349.099 522.21 349.099 520.65C349.099 519.07 349.369 517.72 349.909 516.6C350.449 515.46 351.199 514.58 352.159 513.96C353.139 513.34 354.269 513.03 355.549 513.03C356.769 513.03 357.829 513.33 358.729 513.93C359.649 514.53 360.269 515.32 360.589 516.3H360.259V508.5C360.259 507.88 360.419 507.41 360.739 507.09C361.059 506.77 361.519 506.61 362.119 506.61C362.719 506.61 363.179 506.77 363.499 507.09C363.839 507.41 364.009 507.88 364.009 508.5V526.32C364.009 526.94 363.849 527.42 363.529 527.76C363.209 528.08 362.749 528.24 362.149 528.24C361.549 528.24 361.089 528.08 360.769 527.76C360.449 527.42 360.289 526.94 360.289 526.32V523.98L360.619 524.88C360.319 525.92 359.709 526.75 358.789 527.37C357.869 527.99 356.789 528.3 355.549 528.3ZM356.599 525.45C357.339 525.45 357.989 525.27 358.549 524.91C359.109 524.55 359.539 524.02 359.839 523.32C360.159 522.6 360.319 521.71 360.319 520.65C360.319 519.05 359.979 517.86 359.299 517.08C358.619 516.28 357.719 515.88 356.599 515.88C355.859 515.88 355.209 516.06 354.649 516.42C354.089 516.76 353.649 517.29 353.329 518.01C353.029 518.71 352.879 519.59 352.879 520.65C352.879 522.23 353.219 523.43 353.899 524.25C354.579 525.05 355.479 525.45 356.599 525.45ZM369.757 528.21C369.157 528.21 368.697 528.03 368.377 527.67C368.057 527.31 367.897 526.81 367.897 526.17V515.16C367.897 514.5 368.057 514 368.377 513.66C368.697 513.3 369.157 513.12 369.757 513.12C370.357 513.12 370.817 513.3 371.137 513.66C371.477 514 371.647 514.5 371.647 515.16V526.17C371.647 526.81 371.487 527.31 371.167 527.67C370.847 528.03 370.377 528.21 369.757 528.21ZM369.757 510.33C369.057 510.33 368.507 510.16 368.107 509.82C367.727 509.46 367.537 508.97 367.537 508.35C367.537 507.71 367.727 507.22 368.107 506.88C368.507 506.54 369.057 506.37 369.757 506.37C370.477 506.37 371.027 506.54 371.407 506.88C371.787 507.22 371.977 507.71 371.977 508.35C371.977 508.97 371.787 509.46 371.407 509.82C371.027 510.16 370.477 510.33 369.757 510.33ZM385.548 533.64C384.948 533.64 384.488 533.48 384.168 533.16C383.848 532.84 383.688 532.37 383.688 531.75V514.98C383.688 514.36 383.848 513.89 384.168 513.57C384.488 513.25 384.938 513.09 385.518 513.09C386.118 513.09 386.578 513.25 386.898 513.57C387.218 513.89 387.378 514.36 387.378 514.98V517.32L387.048 516.42C387.348 515.4 387.958 514.58 388.878 513.96C389.818 513.34 390.908 513.03 392.148 513.03C393.428 513.03 394.548 513.34 395.508 513.96C396.488 514.58 397.248 515.46 397.788 516.6C398.328 517.72 398.598 519.07 398.598 520.65C398.598 522.21 398.328 523.57 397.788 524.73C397.248 525.87 396.498 526.75 395.538 527.37C394.578 527.99 393.448 528.3 392.148 528.3C390.928 528.3 389.858 528 388.938 527.4C388.018 526.78 387.398 525.98 387.078 525H387.438V531.75C387.438 532.37 387.268 532.84 386.928 533.16C386.608 533.48 386.148 533.64 385.548 533.64ZM391.098 525.45C391.838 525.45 392.488 525.27 393.048 524.91C393.608 524.55 394.038 524.02 394.338 523.32C394.658 522.6 394.818 521.71 394.818 520.65C394.818 519.05 394.478 517.86 393.798 517.08C393.118 516.28 392.218 515.88 391.098 515.88C390.358 515.88 389.708 516.06 389.148 516.42C388.588 516.76 388.148 517.29 387.828 518.01C387.528 518.71 387.378 519.59 387.378 520.65C387.378 522.23 387.718 523.43 388.398 524.25C389.078 525.05 389.978 525.45 391.098 525.45ZM403.597 528.24C402.977 528.24 402.497 528.08 402.157 527.76C401.837 527.42 401.677 526.94 401.677 526.32V514.98C401.677 514.36 401.837 513.89 402.157 513.57C402.477 513.25 402.927 513.09 403.507 513.09C404.087 513.09 404.537 513.25 404.857 513.57C405.177 513.89 405.337 514.36 405.337 514.98V516.87H405.037C405.317 515.67 405.867 514.76 406.687 514.14C407.507 513.52 408.597 513.15 409.957 513.03C410.377 512.99 410.707 513.1 410.947 513.36C411.207 513.6 411.357 513.98 411.397 514.5C411.437 515 411.317 515.41 411.037 515.73C410.777 516.03 410.377 516.21 409.837 516.27L409.177 516.33C407.957 516.45 407.037 516.83 406.417 517.47C405.797 518.09 405.487 518.97 405.487 520.11V526.32C405.487 526.94 405.327 527.42 405.007 527.76C404.687 528.08 404.217 528.24 403.597 528.24ZM419.88 528.3C418.36 528.3 417.04 527.99 415.92 527.37C414.8 526.75 413.93 525.87 413.31 524.73C412.69 523.57 412.38 522.21 412.38 520.65C412.38 519.47 412.55 518.42 412.89 517.5C413.25 516.56 413.76 515.76 414.42 515.1C415.08 514.42 415.87 513.91 416.79 513.57C417.71 513.21 418.74 513.03 419.88 513.03C421.4 513.03 422.72 513.34 423.84 513.96C424.96 514.58 425.83 515.46 426.45 516.6C427.07 517.74 427.38 519.09 427.38 520.65C427.38 521.83 427.2 522.89 426.84 523.83C426.5 524.77 426 525.58 425.34 526.26C424.68 526.92 423.89 527.43 422.97 527.79C422.05 528.13 421.02 528.3 419.88 528.3ZM419.88 525.45C420.62 525.45 421.27 525.27 421.83 524.91C422.39 524.55 422.82 524.02 423.12 523.32C423.44 522.6 423.6 521.71 423.6 520.65C423.6 519.05 423.26 517.86 422.58 517.08C421.9 516.28 421 515.88 419.88 515.88C419.14 515.88 418.49 516.06 417.93 516.42C417.37 516.76 416.93 517.29 416.61 518.01C416.31 518.71 416.16 519.59 416.16 520.65C416.16 522.23 416.5 523.43 417.18 524.25C417.86 525.05 418.76 525.45 419.88 525.45ZM435.845 528.3C434.985 528.3 434.075 528.21 433.115 528.03C432.155 527.85 431.295 527.54 430.535 527.1C430.215 526.9 429.985 526.67 429.845 526.41C429.725 526.13 429.675 525.86 429.695 525.6C429.735 525.32 429.835 525.08 429.995 524.88C430.175 524.68 430.395 524.55 430.655 524.49C430.935 524.43 431.235 524.48 431.555 524.64C432.355 525.02 433.105 525.29 433.805 525.45C434.505 525.59 435.195 525.66 435.875 525.66C436.835 525.66 437.545 525.5 438.005 525.18C438.485 524.84 438.725 524.4 438.725 523.86C438.725 523.4 438.565 523.05 438.245 522.81C437.945 522.55 437.485 522.36 436.865 522.24L433.865 521.67C432.625 521.43 431.675 520.98 431.015 520.32C430.375 519.64 430.055 518.77 430.055 517.71C430.055 516.75 430.315 515.92 430.835 515.22C431.375 514.52 432.115 513.98 433.055 513.6C433.995 513.22 435.075 513.03 436.295 513.03C437.175 513.03 437.995 513.13 438.755 513.33C439.535 513.51 440.285 513.8 441.005 514.2C441.305 514.36 441.505 514.57 441.605 514.83C441.725 515.09 441.755 515.36 441.695 515.64C441.635 515.9 441.515 516.14 441.335 516.36C441.155 516.56 440.925 516.69 440.645 516.75C440.385 516.79 440.085 516.73 439.745 516.57C439.125 516.25 438.525 516.02 437.945 515.88C437.385 515.74 436.845 515.67 436.325 515.67C435.345 515.67 434.615 515.84 434.135 516.18C433.675 516.52 433.445 516.97 433.445 517.53C433.445 517.95 433.585 518.3 433.865 518.58C434.145 518.86 434.575 519.05 435.155 519.15L438.155 519.72C439.455 519.96 440.435 520.4 441.095 521.04C441.775 521.68 442.115 522.54 442.115 523.62C442.115 525.08 441.545 526.23 440.405 527.07C439.265 527.89 437.745 528.3 435.845 528.3ZM452.354 528.3C450.694 528.3 449.264 527.99 448.064 527.37C446.864 526.75 445.934 525.87 445.274 524.73C444.634 523.59 444.314 522.24 444.314 520.68C444.314 519.16 444.624 517.83 445.244 516.69C445.884 515.55 446.754 514.66 447.854 514.02C448.974 513.36 450.244 513.03 451.664 513.03C452.704 513.03 453.634 513.2 454.454 513.54C455.294 513.88 456.004 514.37 456.584 515.01C457.184 515.65 457.634 516.43 457.934 517.35C458.254 518.25 458.414 519.27 458.414 520.41C458.414 520.77 458.284 521.05 458.024 521.25C457.784 521.43 457.434 521.52 456.974 521.52H447.344V519.36H455.774L455.294 519.81C455.294 518.89 455.154 518.12 454.874 517.5C454.614 516.88 454.224 516.41 453.704 516.09C453.204 515.75 452.574 515.58 451.814 515.58C450.974 515.58 450.254 515.78 449.654 516.18C449.074 516.56 448.624 517.11 448.304 517.83C448.004 518.53 447.854 519.37 447.854 520.35V520.56C447.854 522.2 448.234 523.43 448.994 524.25C449.774 525.05 450.914 525.45 452.414 525.45C452.934 525.45 453.514 525.39 454.154 525.27C454.814 525.13 455.434 524.9 456.014 524.58C456.434 524.34 456.804 524.24 457.124 524.28C457.444 524.3 457.694 524.41 457.874 524.61C458.074 524.81 458.194 525.06 458.234 525.36C458.274 525.64 458.214 525.93 458.054 526.23C457.914 526.53 457.664 526.79 457.304 527.01C456.604 527.45 455.794 527.78 454.874 528C453.974 528.2 453.134 528.3 452.354 528.3ZM466.754 528.3C465.894 528.3 464.984 528.21 464.024 528.03C463.064 527.85 462.204 527.54 461.444 527.1C461.124 526.9 460.894 526.67 460.754 526.41C460.634 526.13 460.584 525.86 460.604 525.6C460.644 525.32 460.744 525.08 460.904 524.88C461.084 524.68 461.304 524.55 461.564 524.49C461.844 524.43 462.144 524.48 462.464 524.64C463.264 525.02 464.014 525.29 464.714 525.45C465.414 525.59 466.104 525.66 466.784 525.66C467.744 525.66 468.454 525.5 468.914 525.18C469.394 524.84 469.634 524.4 469.634 523.86C469.634 523.4 469.474 523.05 469.154 522.81C468.854 522.55 468.394 522.36 467.774 522.24L464.774 521.67C463.534 521.43 462.584 520.98 461.924 520.32C461.284 519.64 460.964 518.77 460.964 517.71C460.964 516.75 461.224 515.92 461.744 515.22C462.284 514.52 463.024 513.98 463.964 513.6C464.904 513.22 465.984 513.03 467.204 513.03C468.084 513.03 468.904 513.13 469.664 513.33C470.444 513.51 471.194 513.8 471.914 514.2C472.214 514.36 472.414 514.57 472.514 514.83C472.634 515.09 472.664 515.36 472.604 515.64C472.544 515.9 472.424 516.14 472.244 516.36C472.064 516.56 471.834 516.69 471.554 516.75C471.294 516.79 470.994 516.73 470.654 516.57C470.034 516.25 469.434 516.02 468.854 515.88C468.294 515.74 467.754 515.67 467.234 515.67C466.254 515.67 465.524 515.84 465.044 516.18C464.584 516.52 464.354 516.97 464.354 517.53C464.354 517.95 464.494 518.3 464.774 518.58C465.054 518.86 465.484 519.05 466.064 519.15L469.064 519.72C470.364 519.96 471.344 520.4 472.004 521.04C472.684 521.68 473.024 522.54 473.024 523.62C473.024 525.08 472.454 526.23 471.314 527.07C470.174 527.89 468.654 528.3 466.754 528.3Z" fill="#A0AEC0"/>
<defs>
<linearGradient id="paint0_linear_670_86783" x1="237.577" y1="344.715" x2="237.577" y2="-1.16367" gradientUnits="userSpaceOnUse">
<stop stop-color="white" stop-opacity="0"/>
<stop offset="1" stop-color="#E3EFF9"/>
</linearGradient>
<linearGradient id="paint1_linear_670_86783" x1="232.131" y1="69.203" x2="232.131" y2="118.578" gradientUnits="userSpaceOnUse">
<stop stop-color="#E2B291"/>
<stop offset="1" stop-color="#F7B487"/>
</linearGradient>
<linearGradient id="paint2_linear_670_86783" x1="231.438" y1="56.7629" x2="231.438" y2="99.1972" gradientUnits="userSpaceOnUse">
<stop stop-color="#2D3748"/>
<stop offset="1" stop-color="#1A202C"/>
</linearGradient>
<linearGradient id="paint3_linear_670_86783" x1="232.989" y1="348.797" x2="232.989" y2="361.258" gradientUnits="userSpaceOnUse">
<stop stop-color="#E2B291"/>
<stop offset="1" stop-color="#F7B487"/>
</linearGradient>
<linearGradient id="paint4_linear_670_86783" x1="233.128" y1="202.681" x2="233.128" y2="355.511" gradientUnits="userSpaceOnUse">
<stop stop-color="#2C5282"/>
<stop offset="1" stop-color="#2A4365"/>
</linearGradient>
<linearGradient id="paint5_linear_670_86783" x1="234.449" y1="108.017" x2="234.449" y2="209.189" gradientUnits="userSpaceOnUse">
<stop stop-color="#81E6D9"/>
<stop offset="1" stop-color="#319795"/>
</linearGradient>
<linearGradient id="paint6_linear_670_86783" x1="233.742" y1="97.4296" x2="233.742" y2="138.765" gradientUnits="userSpaceOnUse">
<stop stop-color="#E2B291"/>
<stop offset="1" stop-color="#F7B487"/>
</linearGradient>
</defs>
</svg>
