<svg width="18" height="17" viewBox="0 0 18 17" fill="none" xmlns="http://www.w3.org/2000/svg">
<path d="M3.99805 10.5C3.99805 12.3026 5.55272 14.153 8.2198 14.4567C7.45571 13.5122 6.99805 12.3095 6.99805 11C6.99805 10.0998 7.21433 9.25007 7.59776 8.5H5.49805C4.66962 8.5 3.99805 9.17157 3.99805 10V10.5ZM8.32509 7.41706C9.15398 6.45255 10.3115 5.77865 11.624 5.56907C11.7046 5.31036 11.748 5.03525 11.748 4.75C11.748 3.23122 10.5168 2 8.99805 2C7.47926 2 6.24805 3.23122 6.24805 4.75C6.24805 6.03662 7.13162 7.11687 8.32509 7.41706ZM16.998 11C16.998 13.4853 14.9833 15.5 12.498 15.5C10.0128 15.5 7.99805 13.4853 7.99805 11C7.99805 8.51472 10.0128 6.5 12.498 6.5C14.9833 6.5 16.998 8.51472 16.998 11ZM12.498 8.5C12.2219 8.5 11.998 8.72386 11.998 9V11C11.998 11.2761 12.2219 11.5 12.498 11.5H13.998C14.2742 11.5 14.498 11.2761 14.498 11C14.498 10.7239 14.2742 10.5 13.998 10.5H12.998V9C12.998 8.72386 12.7742 8.5 12.498 8.5Z" fill="#718096"/>
</svg>
