<svg width="25" height="24" viewBox="0 0 25 24" fill="none" xmlns="http://www.w3.org/2000/svg">
<path d="M12.5 2C18.0228 2 22.5 6.47715 22.5 12C22.5 17.5228 18.0228 22 12.5 22C6.97715 22 2.5 17.5228 2.5 12C2.5 6.47715 6.97715 2 12.5 2ZM12.5 3.5C7.80558 3.5 4 7.30558 4 12C4 16.6944 7.80558 20.5 12.5 20.5C17.1944 20.5 21 16.6944 21 12C21 7.30558 17.1944 3.5 12.5 3.5ZM12.5 7C12.9142 7 13.25 7.33579 13.25 7.75V11.25H16.75C17.1642 11.25 17.5 11.5858 17.5 12C17.5 12.4142 17.1642 12.75 16.75 12.75H13.25V16.25C13.25 16.6642 12.9142 17 12.5 17C12.0858 17 11.75 16.6642 11.75 16.25V12.75H8.25C7.83579 12.75 7.5 12.4142 7.5 12C7.5 11.5858 7.83579 11.25 8.25 11.25H11.75V7.75C11.75 7.33579 12.0858 7 12.5 7Z" fill="#718096"/>
</svg>
