<svg width="21" height="20" viewBox="0 0 21 20" fill="none" xmlns="http://www.w3.org/2000/svg">
<path d="M10.3906 0C15.9135 0 20.3906 4.47715 20.3906 10C20.3906 15.5228 15.9135 20 10.3906 20C4.86778 20 0.390625 15.5228 0.390625 10C0.390625 4.47715 4.86778 0 10.3906 0ZM10.3906 5C10.0109 5 9.69713 5.28215 9.64747 5.64823L9.64062 5.75V9.25H6.14062C5.72641 9.25 5.39062 9.58579 5.39062 10C5.39062 10.3797 5.67278 10.6935 6.03885 10.7432L6.14062 10.75H9.64062V14.25C9.64062 14.6642 9.97641 15 10.3906 15C10.7703 15 11.0841 14.7178 11.1338 14.3518L11.1406 14.25V10.75H14.6406C15.0548 10.75 15.3906 10.4142 15.3906 10C15.3906 9.6203 15.1085 9.30651 14.7424 9.25685L14.6406 9.25H11.1406V5.75C11.1406 5.33579 10.8048 5 10.3906 5Z" fill="#3182CE"/>
</svg>
