<svg width="19" height="19" viewBox="0 0 19 19" fill="none" xmlns="http://www.w3.org/2000/svg">
<path d="M8.95711 11.4571L18.7071 1.70711C19.0976 1.31658 19.0976 0.683418 18.7071 0.292893C18.3166 -0.0976311 17.6834 -0.0976311 17.2929 0.292893L7.54289 10.0429L7.25 11.75L8.95711 11.4571ZM3.5 1C1.567 1 0 2.567 0 4.5V15.5C0 17.433 1.567 19 3.5 19H14.5C16.433 19 18 17.433 18 15.5V8C18 7.44772 17.5523 7 17 7C16.4477 7 16 7.44772 16 8V15.5C16 16.3284 15.3284 17 14.5 17H3.5C2.67157 17 2 16.3284 2 15.5V4.5C2 3.67157 2.67157 3 3.5 3H11C11.5523 3 12 2.55228 12 2C12 1.44772 11.5523 1 11 1H3.5Z" fill="#319795"/>
</svg>
