<svg width="22" height="21" viewBox="0 0 22 21" fill="none" xmlns="http://www.w3.org/2000/svg">
<path d="M16.2902 9.99538C19.3277 9.99538 21.7902 12.4578 21.7902 15.4954C21.7902 18.5329 19.3277 20.9954 16.2902 20.9954C13.2526 20.9954 10.7902 18.5329 10.7902 15.4954C10.7902 12.4578 13.2526 9.99538 16.2902 9.99538ZM10.8124 11.9947C10.1653 13.0051 9.79016 14.2064 9.79016 15.4954C9.79016 17.1257 10.3904 18.6158 11.3819 19.7569C10.5864 19.917 9.72148 19.9964 8.79016 19.9964C5.36919 19.9964 2.84623 18.9243 1.30407 16.7599C0.972106 16.294 0.793701 15.7362 0.793701 15.1641V14.2442C0.793701 13.0022 1.80056 11.9953 3.04258 11.9953L10.8124 11.9947ZM13.6437 15.1418C13.4485 14.9466 13.1319 14.9466 12.9366 15.1418C12.7413 15.3371 12.7413 15.6537 12.9366 15.8489L14.9366 17.8489C15.1319 18.0442 15.4485 18.0442 15.6437 17.8489L19.6437 13.8489C19.839 13.6537 19.839 13.3371 19.6437 13.1418C19.4485 12.9466 19.1319 12.9466 18.9366 13.1418L15.2902 16.7883L13.6437 15.1418ZM8.79016 0C11.5516 0 13.7902 2.23858 13.7902 5C13.7902 7.76142 11.5516 10 8.79016 10C6.02874 10 3.79016 7.76142 3.79016 5C3.79016 2.23858 6.02874 0 8.79016 0Z" fill="white"/>
</svg>
