<svg width="23" height="22" viewBox="0 0 23 22" fill="none" xmlns="http://www.w3.org/2000/svg">
<path d="M19.0129 0C20.8079 0 22.2629 1.45507 22.2629 3.25V18.75C22.2629 20.5449 20.8079 22 19.0129 22H3.51294C1.71801 22 0.262939 20.5449 0.262939 18.75V3.25C0.262939 1.45507 1.71801 0 3.51294 0H19.0129ZM16.2629 9H6.26294C5.7501 9 5.32743 9.38604 5.26967 9.88338L5.26294 10V16C5.26294 16.5128 5.64898 16.9355 6.14632 16.9933L6.26294 17H16.2629C16.7758 17 17.1984 16.614 17.2562 16.1166L17.2629 16V10C17.2629 9.48716 16.8769 9.06449 16.3796 9.00673L16.2629 9ZM15.7629 10.5V15.5H6.76294V10.5H15.7629ZM16.2629 5H6.26294L6.16117 5.00685C5.79509 5.05651 5.51294 5.3703 5.51294 5.75C5.51294 6.1297 5.79509 6.44349 6.16117 6.49315L6.26294 6.5H16.2629L16.3647 6.49315C16.7308 6.44349 17.0129 6.1297 17.0129 5.75C17.0129 5.3703 16.7308 5.05651 16.3647 5.00685L16.2629 5Z" fill="white"/>
</svg>
