<svg width="20" height="20" viewBox="0 0 20 20" fill="none" xmlns="http://www.w3.org/2000/svg">
<path d="M17.0455 0C18.6772 0 20 1.3228 20 2.95455V17.0455C20 18.6772 18.6772 20 17.0455 20H2.95455C1.3228 20 0 18.6772 0 17.0455V2.95455C0 1.3228 1.3228 0 2.95455 0H17.0455ZM14.5455 8.18182H5.45455C4.98833 8.18182 4.60408 8.53276 4.55157 8.98489L4.54545 9.09091V14.5455C4.54545 15.0117 4.8964 15.3959 5.34853 15.4484L5.45455 15.4545H14.5455C15.0117 15.4545 15.3959 15.1036 15.4484 14.6515L15.4545 14.5455V9.09091C15.4545 8.62469 15.1036 8.24045 14.6515 8.18793L14.5455 8.18182ZM14.0909 9.54545V14.0909H5.90909V9.54545H14.0909ZM14.5455 4.54545H5.45455L5.36203 4.55168C5.02923 4.59683 4.77273 4.88209 4.77273 5.22727C4.77273 5.57245 5.02923 5.85772 5.36203 5.90287L5.45455 5.90909H14.5455L14.638 5.90287C14.9708 5.85772 15.2273 5.57245 15.2273 5.22727C15.2273 4.88209 14.9708 4.59683 14.638 4.55168L14.5455 4.54545Z" fill="#A0AEC0"/>
</svg>
