<svg width="192" height="192" viewBox="0 0 192 192" fill="none" xmlns="http://www.w3.org/2000/svg">
<path d="M67.635 104.727C78.4797 104.727 87.271 113.519 87.271 124.364V172.364C87.271 183.209 78.4797 192 67.635 192H19.636C8.79132 192 0 183.209 0 172.364V124.364C0 113.519 8.79132 104.727 19.636 104.727H67.635ZM133.827 104.727V133.818H162.91V162.909L133.827 162.904V191.995H104.737V162.904L133.819 162.909V133.818H104.737V104.727H133.827ZM192 162.904V191.995H162.91V162.904H192ZM67.635 117.818H19.636C16.0211 117.818 13.0906 120.749 13.0906 124.364V172.364C13.0906 175.979 16.0211 178.909 19.636 178.909H67.635C71.2499 178.909 74.1803 175.979 74.1803 172.364V124.364C74.1803 120.749 71.2499 117.818 67.635 117.818ZM56.7261 135.273V161.455H30.5448V135.273H56.7261ZM192 104.727V133.818H162.91V104.727H192ZM67.635 0C78.4797 0 87.271 8.7915 87.271 19.6364V67.6364C87.271 78.4812 78.4797 87.2727 67.635 87.2727H19.636C8.79132 87.2727 0 78.4812 0 67.6364V19.6364C0 8.7915 8.79132 0 19.636 0H67.635ZM172.36 0C183.205 0 191.996 8.7915 191.996 19.6364V67.6364C191.996 78.4812 183.205 87.2727 172.36 87.2727H124.361C113.516 87.2727 104.725 78.4812 104.725 67.6364V19.6364C104.725 8.7915 113.516 0 124.361 0H172.36ZM67.635 13.0909H19.636C16.0211 13.0909 13.0906 16.0214 13.0906 19.6364V67.6364C13.0906 71.2513 16.0211 74.1818 19.636 74.1818H67.635C71.2499 74.1818 74.1803 71.2513 74.1803 67.6364V19.6364C74.1803 16.0214 71.2499 13.0909 67.635 13.0909ZM172.36 13.0909H124.361C120.746 13.0909 117.816 16.0214 117.816 19.6364V67.6364C117.816 71.2513 120.746 74.1818 124.361 74.1818H172.36C175.975 74.1818 178.906 71.2513 178.906 67.6364V19.6364C178.906 16.0214 175.975 13.0909 172.36 13.0909ZM56.7261 30.5455V56.7273H30.5448V30.5455H56.7261ZM161.451 30.5455V56.7273H135.27V30.5455H161.451Z" fill="#212121"/>
</svg>
