<svg width="22" height="22" viewBox="0 0 22 22" fill="none" xmlns="http://www.w3.org/2000/svg">
<path d="M7.75 12C8.99264 12 10 13.0074 10 14.25V19.75C10 20.9926 8.99264 22 7.75 22H2.25C1.00736 22 0 20.9926 0 19.75V14.25C0 13.0074 1.00736 12 2.25 12H7.75ZM15.3347 12V15.3333H18.6671V18.6667L15.3347 18.6661V21.9994H12.0014V18.6661L15.3338 18.6667V15.3333H12.0014V12H15.3347ZM22.0004 18.6661V21.9994H18.6671V18.6661H22.0004ZM7.75 13.5H2.25C1.83579 13.5 1.5 13.8358 1.5 14.25V19.75C1.5 20.1642 1.83579 20.5 2.25 20.5H7.75C8.16421 20.5 8.5 20.1642 8.5 19.75V14.25C8.5 13.8358 8.16421 13.5 7.75 13.5ZM6.5 15.5V18.5H3.5V15.5H6.5ZM22.0004 12V15.3333H18.6671V12H22.0004ZM7.75 0C8.99264 0 10 1.00736 10 2.25V7.75C10 8.99264 8.99264 10 7.75 10H2.25C1.00736 10 0 8.99264 0 7.75V2.25C0 1.00736 1.00736 0 2.25 0H7.75ZM19.75 0C20.9926 0 22 1.00736 22 2.25V7.75C22 8.99264 20.9926 10 19.75 10H14.25C13.0074 10 12 8.99264 12 7.75V2.25C12 1.00736 13.0074 0 14.25 0H19.75ZM7.75 1.5H2.25C1.83579 1.5 1.5 1.83579 1.5 2.25V7.75C1.5 8.16421 1.83579 8.5 2.25 8.5H7.75C8.16421 8.5 8.5 8.16421 8.5 7.75V2.25C8.5 1.83579 8.16421 1.5 7.75 1.5ZM19.75 1.5H14.25C13.8358 1.5 13.5 1.83579 13.5 2.25V7.75C13.5 8.16421 13.8358 8.5 14.25 8.5H19.75C20.1642 8.5 20.5 8.16421 20.5 7.75V2.25C20.5 1.83579 20.1642 1.5 19.75 1.5ZM6.5 3.5V6.5H3.5V3.5H6.5ZM18.5 3.5V6.5H15.5V3.5H18.5Z" fill="#212121"/>
</svg>
