<svg width="21" height="20" viewBox="0 0 21 20" fill="none" xmlns="http://www.w3.org/2000/svg">
<path d="M5.5 6C5.5 3.79086 7.29086 2 9.5 2C11.7091 2 13.5 3.79086 13.5 6C13.5 8.20914 11.7091 10 9.5 10C7.29086 10 5.5 8.20914 5.5 6ZM2.5 13C2.5 11.8869 3.40315 11 4.50873 11L10.7572 11C9.97182 11.9509 9.5 13.1704 9.5 14.5C9.5 15.8031 9.95316 17.0003 10.7105 17.9427C10.3155 17.9811 9.91085 18 9.5 18C7.64526 18 5.91697 17.614 4.63499 16.7966C3.33281 15.9663 2.5 14.6912 2.5 13ZM19.5 14.5C19.5 16.9853 17.4853 19 15 19C12.5147 19 10.5 16.9853 10.5 14.5C10.5 12.0147 12.5147 10 15 10C17.4853 10 19.5 12.0147 19.5 14.5ZM16.8536 13.3536C17.0488 13.1583 17.0488 12.8417 16.8536 12.6464C16.6583 12.4512 16.3417 12.4512 16.1464 12.6464L15 13.7929L13.8536 12.6464C13.6583 12.4512 13.3417 12.4512 13.1464 12.6464C12.9512 12.8417 12.9512 13.1583 13.1464 13.3536L14.2929 14.5L13.1464 15.6464C12.9512 15.8417 12.9512 16.1583 13.1464 16.3536C13.3417 16.5488 13.6583 16.5488 13.8536 16.3536L15 15.2071L16.1464 16.3536C16.3417 16.5488 16.6583 16.5488 16.8536 16.3536C17.0488 16.1583 17.0488 15.8417 16.8536 15.6464L15.7071 14.5L16.8536 13.3536Z" fill="#319795"/>
</svg>
