<svg width="25" height="24" viewBox="0 0 25 24" fill="none" xmlns="http://www.w3.org/2000/svg">
<g clip-path="url(#clip0_1387_46848)">
<path d="M12.0533 23.642C18.6314 23.642 23.964 18.3557 23.964 11.8347C23.964 5.31369 18.6314 0.0273743 12.0533 0.0273743C5.47519 0.0273743 0.142578 5.31369 0.142578 11.8347C0.142578 18.3557 5.47519 23.642 12.0533 23.642Z" fill="url(#paint0_linear_1387_46848)"/>
<path opacity="0.4" d="M21.1206 10.935C21.1206 16.4482 17.6137 20.9174 12.0523 20.9174C6.49088 20.9174 3.26367 16.4482 3.26367 10.935C3.26367 5.42188 6.49088 0.952606 12.0523 0.952606C17.6137 0.952606 21.1206 5.42188 21.1206 10.935Z" fill="url(#paint1_linear_1387_46848)"/>
<path d="M9.0332 17.8233C9.03322 18.0013 9.2399 18.1013 9.38138 17.9917L9.57653 17.8404C11.0311 16.7139 13.0726 16.7139 14.5272 17.8404L14.7224 17.9917C14.8639 18.1013 15.0705 18.0013 15.0705 17.8233C15.0705 17.7949 15.0648 17.7667 15.0537 17.7405C13.9445 15.1155 10.1592 15.1155 9.05003 17.7405C9.03899 17.7667 9.0332 17.7949 9.0332 17.8233Z" fill="url(#paint2_linear_1387_46848)"/>
<g style="mix-blend-mode:overlay" opacity="0.43">
<path style="mix-blend-mode:overlay" opacity="0.43" fill-rule="evenodd" clip-rule="evenodd" d="M19.7565 20.9171C21.0496 18.7134 21.8068 16.0419 21.8068 13.1627C21.8068 7.30232 18.67 2.30282 14.2617 0.355835C19.7679 1.28408 23.9638 6.10138 23.9638 11.9046C23.9638 15.5292 22.327 18.7692 19.7565 20.9171Z" fill="url(#paint3_linear_1387_46848)"/>
</g>
<path d="M4.82422 10.5687C4.82423 10.3776 5.03591 10.2607 5.19982 10.3613L5.3273 10.4396C6.59836 11.22 8.20547 11.22 9.47653 10.4396L9.60401 10.3613C9.76792 10.2607 9.9796 10.3776 9.9796 10.5687C9.9796 10.5971 9.97454 10.6254 9.96475 10.6521C9.09689 13.0184 5.70692 13.0184 4.83907 10.6521C4.82927 10.6254 4.82422 10.5971 4.82422 10.5687Z" fill="url(#paint4_linear_1387_46848)"/>
<path d="M14.2617 10.5687C14.2617 10.3776 14.4734 10.2607 14.6373 10.3613L14.7648 10.4396C16.0358 11.22 17.6429 11.22 18.914 10.4396L19.0415 10.3613C19.2054 10.2607 19.4171 10.3776 19.4171 10.5687C19.4171 10.5971 19.412 10.6254 19.4022 10.6521C18.5343 13.0184 15.1445 13.0184 14.2766 10.6521C14.2668 10.6254 14.2617 10.5971 14.2617 10.5687Z" fill="url(#paint5_linear_1387_46848)"/>
<path d="M4.30985 8.07096C4.36817 8.18378 4.47392 8.26518 4.59863 8.29322L4.70401 8.31693C6.36967 8.69158 8.11749 8.3595 9.52536 7.40084L9.8686 7.16712C10.0243 7.0611 10.103 6.87459 10.0699 6.69023C10.0131 6.37361 9.66288 6.20234 9.3748 6.35025L8.76819 6.6617C7.69462 7.21289 6.49849 7.48765 5.28978 7.46074L4.7039 7.4477C4.3768 7.44041 4.16065 7.78231 4.30985 8.07096Z" fill="url(#paint6_linear_1387_46848)"/>
<path d="M19.788 8.08963C19.7289 8.20206 19.6225 8.28274 19.4977 8.30997L19.3921 8.33297C17.724 8.69656 15.9784 8.35288 14.5771 7.38491L14.2354 7.14891C14.0805 7.04186 14.003 6.85483 14.0373 6.6707C14.0964 6.35447 14.4477 6.18552 14.7348 6.33534L15.3393 6.6508C16.4091 7.2091 17.6034 7.49181 18.8122 7.47292L19.3981 7.46376C19.7253 7.45866 19.939 7.80197 19.788 8.08963Z" fill="url(#paint7_linear_1387_46848)"/>
</g>
<defs>
<linearGradient id="paint0_linear_1387_46848" x1="12.0455" y1="0.0273716" x2="12.0455" y2="26.5212" gradientUnits="userSpaceOnUse">
<stop offset="0.333333" stop-color="#4299E1"/>
<stop offset="0.9964" stop-color="#3CB5AF"/>
</linearGradient>
<linearGradient id="paint1_linear_1387_46848" x1="12.0523" y1="0.952606" x2="12.0523" y2="20.9174" gradientUnits="userSpaceOnUse">
<stop stop-color="white"/>
<stop offset="0.602997" stop-color="white" stop-opacity="0"/>
</linearGradient>
<linearGradient id="paint2_linear_1387_46848" x1="12.0519" y1="18.2613" x2="12.0519" y2="14.5067" gradientUnits="userSpaceOnUse">
<stop stop-color="#728197"/>
<stop offset="1" stop-color="#2D3849"/>
</linearGradient>
<linearGradient id="paint3_linear_1387_46848" x1="19.1128" y1="0.355835" x2="19.1128" y2="20.9171" gradientUnits="userSpaceOnUse">
<stop/>
<stop offset="1" stop-color="#C4C4C4" stop-opacity="0"/>
</linearGradient>
<linearGradient id="paint4_linear_1387_46848" x1="7.40191" y1="10.1308" x2="7.40194" y2="13.8853" gradientUnits="userSpaceOnUse">
<stop stop-color="#728197"/>
<stop offset="1" stop-color="#2D3849"/>
</linearGradient>
<linearGradient id="paint5_linear_1387_46848" x1="16.8393" y1="10.1308" x2="16.8395" y2="13.8853" gradientUnits="userSpaceOnUse">
<stop stop-color="#728197"/>
<stop offset="1" stop-color="#2D3849"/>
</linearGradient>
<linearGradient id="paint6_linear_1387_46848" x1="7.31146" y1="8.90547" x2="6.94975" y2="6.50509" gradientUnits="userSpaceOnUse">
<stop stop-color="#2D3849"/>
<stop offset="1" stop-color="#728197"/>
</linearGradient>
<linearGradient id="paint7_linear_1387_46848" x1="16.7808" y1="8.90419" x2="17.1585" y2="6.50623" gradientUnits="userSpaceOnUse">
<stop stop-color="#2D3849"/>
<stop offset="1" stop-color="#728197"/>
</linearGradient>
<clipPath id="clip0_1387_46848">
<rect width="24" height="23.6429" fill="white" transform="translate(0.0351562)"/>
</clipPath>
</defs>
</svg>
