<svg width="22" height="22" viewBox="0 0 22 22" fill="none" xmlns="http://www.w3.org/2000/svg">
<mask id="path-1-outside-1_2335_88146" maskUnits="userSpaceOnUse" x="1.02018" y="8.7403" width="5" height="7" fill="black">
<rect fill="white" x="1.02018" y="8.7403" width="5" height="7"/>
<path d="M2.305 9.7403C1.31313 12.1179 3.03692 14.9877 5.5409 15.4908C3.58957 14.1804 2.37115 12.0753 2.305 9.7403Z"/>
</mask>
<path d="M2.305 9.7403C1.31313 12.1179 3.03692 14.9877 5.5409 15.4908C3.58957 14.1804 2.37115 12.0753 2.305 9.7403Z" fill="black"/>
<path d="M5.5409 15.4908L5.52121 15.5888L5.59665 15.4077L5.5409 15.4908ZM2.21271 9.70179C1.70279 10.9242 1.89265 12.2687 2.52533 13.3684C3.15783 14.4677 4.23761 15.3309 5.52121 15.5888L5.5606 15.3927C4.3402 15.1475 3.3061 14.3244 2.69869 13.2686C2.09145 12.2132 1.91535 10.9341 2.3973 9.7788L2.21271 9.70179ZM5.59665 15.4077C3.67065 14.1144 2.47015 12.0384 2.40496 9.73746L2.20504 9.74313C2.27216 12.1122 3.5085 14.2464 5.48515 15.5738L5.59665 15.4077Z" fill="black" mask="url(#path-1-outside-1_2335_88146)"/>
<path d="M5.53047 15.5394L5.55188 15.4417C5.53381 15.4376 5.52007 15.4348 5.50996 15.4327C5.50844 15.4324 5.50705 15.4322 5.50578 15.4319L5.49035 15.4286L5.46736 15.5259C5.47202 15.5271 5.47882 15.5285 5.48588 15.5299L5.53047 15.5394Z" fill="black" stroke="black" stroke-width="0.1"/>
<path d="M1.03873 14.1656L0.937165 14.0413L0.950164 14.2013C1.03272 15.2177 1.71082 16.0476 2.59038 16.5195C3.4698 16.9913 4.55858 17.1096 5.47139 16.6942L5.60902 16.6315L5.46118 16.5998C4.53884 16.4017 3.7772 16.213 3.07404 15.8642C2.37204 15.5161 1.72599 15.0072 1.03873 14.1656Z" fill="black" stroke="black" stroke-width="0.1"/>
<path d="M15.669 7.09593L15.7639 7.11922C16.9416 4.71545 15.2691 1.75163 12.7365 1.10779L12.6947 1.19664C14.6002 2.58755 15.7294 4.75224 15.669 7.09593Z" fill="black" stroke="black" stroke-width="0.1"/>
<path d="M16.4505 5.45362L16.4282 5.59178L16.533 5.49904C17.2423 4.8715 17.4516 3.93533 17.2828 3.05923C17.114 2.18359 16.5663 1.36041 15.7508 0.955223L15.6152 0.887823L15.6841 1.02273C16.4506 2.52462 16.7194 3.78922 16.4505 5.45362Z" fill="black" stroke="black" stroke-width="0.1"/>
<path d="M5.86788 15.4083C5.79115 15.2052 5.71806 15.0124 5.64563 14.8321C5.13354 13.5571 3.48056 10.2561 2.8925 9.08181C2.76427 8.82573 2.68668 8.67077 2.68259 8.66M5.86788 15.4083L2.68259 8.66M5.86788 15.4083C6.37225 16.7418 7.06316 18.5681 8.79157 20.0349M5.86788 15.4083L17.8007 18.3125M2.68259 8.66L2.63584 8.67772C2.63757 8.68229 2.6419 8.69127 2.64635 8.70044L2.66797 8.74437C2.68639 8.78154 2.71279 8.83443 2.74616 8.90115L2.86635 9.14124L3.02276 9.45375C3.25286 9.91383 3.56399 10.5378 3.89389 11.2083C4.55409 12.5502 5.2882 14.0763 5.59923 14.8508L5.59924 14.8508C5.67144 15.0305 5.74436 15.2228 5.82111 15.426L5.82112 15.426L5.82176 15.4277C6.32604 16.761 7.02074 18.5977 8.75922 20.073L8.79157 20.0349M2.68259 8.66L2.63588 8.67784C2.41017 8.08683 2.4534 7.38035 2.71949 6.82574C2.97676 6.28951 3.44605 5.8895 4.08684 5.88085C3.92298 5.34287 4.00938 4.67799 4.33793 4.1543C4.67339 3.6196 5.2617 3.23168 6.09172 3.2743C5.96787 2.45224 6.51684 1.77779 7.25058 1.4711C7.98702 1.16328 8.92434 1.21833 9.59012 1.86771C9.88795 1.40643 10.4886 1.09736 11.1248 1.10645C11.79 1.11594 12.4934 1.47255 12.9396 2.3592M8.79157 20.0349L8.75922 20.073C9.51439 20.7138 10.557 21.05 11.7718 21.05C13.9117 21.05 16.291 19.989 17.8372 18.3467C19.2231 16.8749 19.8883 15.0665 19.759 13.1183C19.6446 11.3913 20.1939 9.76266 20.6385 8.44513L20.5911 8.42915M8.79157 20.0349C9.53572 20.6663 10.566 21 11.7718 21C13.8971 21 16.2635 19.9453 17.8007 18.3125M20.5911 8.42915L20.6385 8.44513L20.6397 8.44155C20.8795 7.73071 21.0968 7.08655 21.1486 6.54059C21.2008 5.99046 21.0858 5.52986 20.6509 5.19909C20.3285 4.9527 19.9339 4.81939 19.5281 4.81979M20.5911 8.42915L20.5905 8.43101C20.1465 9.74701 19.594 11.3841 19.7091 13.1216C19.8374 15.0554 19.1776 16.8503 17.8007 18.3125M20.5911 8.42915C21.073 7.00071 21.4534 5.87225 20.6206 5.23889L17.8007 18.3125M19.5281 4.81979C19.5281 4.81979 19.5282 4.81979 19.5282 4.81979V4.86979L19.5281 4.81979ZM19.5281 4.81979C18.3087 4.81981 17.5928 5.61639 17.1185 6.55077C16.8812 7.0181 16.7028 7.52275 16.551 7.98463C16.5167 8.08898 16.4838 8.19097 16.4519 8.28979C16.3576 8.58232 16.2722 8.84714 16.1857 9.06344M16.1857 9.06344L16.1272 8.94116L15.8387 8.33849C15.5963 7.83246 15.2643 7.14017 14.9057 6.39511C14.1885 4.90519 13.3649 3.20371 12.9396 2.3592M16.1857 9.06344C16.1771 9.08472 16.1686 9.10552 16.1601 9.12584L16.2148 9.12445L16.2062 9.10643L16.1857 9.06344ZM12.9396 2.3592C12.9396 2.3592 12.9396 2.3592 12.9396 2.3592L12.895 2.38168L12.9396 2.3592ZM12.4247 9.48452L12.3793 9.50558L12.3793 9.50542L12.379 9.5048L12.3778 9.50229L12.3732 9.49237L12.355 9.45342L12.2849 9.30365C12.224 9.1736 12.1357 8.98545 12.0262 8.75312C11.8071 8.28845 11.5032 7.64702 11.1635 6.94001C10.4839 5.52564 9.66195 3.84997 9.09096 2.80149C8.98528 2.60746 8.79031 2.45991 8.55261 2.37048C8.31518 2.28115 8.03891 2.25139 7.77687 2.28989C7.51483 2.32839 7.26998 2.43465 7.09207 2.61422C6.91689 2.79102 6.80333 3.04208 6.8045 3.37934L10.5953 11.384L10.6661 11.5335L10.5243 11.4483L9.53012 10.8503L9.51708 10.8425L9.51062 10.8287L6.2656 3.90228C5.81255 3.84085 5.41566 4.08658 5.17728 4.47292L12.4247 9.48452ZM12.4247 9.48452L12.3794 9.50563L12.3858 9.51949L12.3989 9.52736L13.3924 10.125L13.5338 10.21L13.4634 10.0608L9.91353 2.53365C10.25 2.10815 10.7052 1.92896 11.138 1.98189C11.5789 2.03582 12.0046 2.33174 12.2628 2.87126C12.5805 3.53496 13.4123 5.3086 14.1648 6.9166C14.541 7.72054 14.8973 8.48299 15.1596 9.04445L15.4732 9.71596L15.5597 9.90128L15.5674 9.91761C14.2502 10.4252 13.1426 11.3951 12.5951 12.5958C12.0396 13.8138 12.0624 15.2657 13.0217 16.7034L13.1083 16.6539C12.3634 15.1157 12.6506 13.8064 13.3185 12.7894C13.9883 11.7695 15.0417 11.0433 15.8244 10.6825L15.8244 10.6825C16.1318 10.5407 16.3418 10.3357 16.4749 10.1665C16.5415 10.0819 16.589 10.006 16.62 9.95094C16.6355 9.92342 16.6468 9.90109 16.6544 9.88546C16.6582 9.87765 16.661 9.8715 16.663 9.86722L16.6652 9.86222L16.6658 9.8608L16.666 9.86038L16.6661 9.86024L16.6661 9.86018L16.6654 9.85989C16.6654 9.85988 16.6654 9.85987 16.6654 9.85985L16.6661 9.86014L16.6691 9.85312C16.7729 9.65967 16.822 9.43572 16.8747 9.1673C16.8802 9.13934 16.8857 9.11086 16.8913 9.08181C16.9413 8.82458 16.9997 8.5236 17.1104 8.15993C17.3783 7.28046 17.6945 6.61312 18.0747 6.16639C18.4535 5.72138 18.8951 5.49593 19.419 5.49593C19.5323 5.49593 19.6646 5.53873 19.7875 5.60916C19.9101 5.67945 20.0185 5.77444 20.0854 5.87319C20.2543 6.12243 20.2435 6.46511 20.1206 6.91091C20.0213 7.27133 19.8522 7.68777 19.6605 8.15988C19.6158 8.26997 19.5699 8.38308 19.5233 8.49922C19.0323 9.72387 18.478 11.2688 18.6038 13.0675C18.737 14.9722 17.8492 16.7311 16.5181 18.0155C15.1867 19.3003 13.4174 20.1046 11.7976 20.1046C10.8003 20.1046 9.78144 19.9428 9.14936 19.4064C7.60771 18.098 7.03374 16.532 6.57084 15.2691C6.48063 15.023 6.39464 14.7884 6.30653 14.5694M12.4247 9.48452L5.0643 5.88358C5.42433 6.73763 6.17322 8.40445 6.83241 9.85839C7.16194 10.5852 7.46895 11.2587 7.69358 11.7504C7.8059 11.9962 7.89762 12.1966 7.96126 12.3356L8.03472 12.4959L8.0539 12.5378L8.0588 12.5485L8.06004 12.5512L8.06035 12.5518L8.06042 12.552L8.01501 12.5729L8.06045 12.5521L8.12787 12.699L7.98927 12.6158L6.99542 12.0191L6.98238 12.0113L6.9759 11.9975L4.36663 6.44802C3.95355 6.46313 3.62115 6.77445 3.42506 7.17151C3.22358 7.57952 3.17703 8.0566 3.32373 8.35341C3.47384 8.65702 3.65551 9.01993 3.8554 9.41924C4.67108 11.0487 5.79016 13.2842 6.30653 14.5694M6.30653 14.5694L6.26013 14.5881M6.30653 14.5694C6.30653 14.5694 6.30652 14.5694 6.30652 14.5694L6.26013 14.5881M6.26013 14.5881C6.34753 14.8052 6.43301 15.0386 6.52287 15.2838C6.98563 16.547 7.56441 18.1268 9.11701 19.4446L3.2789 8.37557C3.42933 8.67981 3.61127 9.04326 3.81137 9.44299C4.62708 11.0725 5.74464 13.305 6.26013 14.5881ZM6.10015 3.32482C4.47577 3.23407 3.80634 4.82338 4.13923 5.88101L6.10015 3.32482Z" fill="black" stroke="black" stroke-width="0.1"/>
</svg>
