<svg width="46" height="46" viewBox="0 0 46 46" fill="none" xmlns="http://www.w3.org/2000/svg">
<rect width="46" height="46" rx="5" fill="#E2E8F0"/>
<g filter="url(#filter0_i_3187_251151)">
<path d="M31.3248 36.1772C20.8315 36.1772 12.325 27.6708 12.325 17.1775L12.325 10.6975C12.3253 10.3869 12.2643 10.0793 12.1456 9.79229C12.0269 9.50527 11.8528 9.24445 11.6332 9.02474C11.4137 8.80503 11.153 8.63073 10.866 8.51181C10.5791 8.39289 10.2715 8.33168 9.96094 8.33168L32.0341 8.33168C32.3447 8.33168 32.6523 8.3929 32.9392 8.51181C33.2262 8.63073 33.4869 8.80503 33.7064 9.02474C33.926 9.24445 34.1001 9.50527 34.2188 9.7923C34.3375 10.0793 34.3984 10.3869 34.3982 10.6975L34.3982 10.938C34.3982 10.9798 34.3982 11.0233 34.3982 11.0651L34.3982 35.0005L35.3585 35.5451L35.3586 36.1772C34.8376 36.1772 33.335 36.1772 31.3248 36.1772Z" fill="url(#paint0_linear_3187_251151)"/>
</g>
<g filter="url(#filter1_i_3187_251151)">
<path d="M31.5011 8.38719C30.9736 8.50151 30.5012 8.79316 30.1626 9.21351C29.8241 9.63387 29.6398 10.1575 29.6405 10.6973V10.6973C29.6405 11.6595 28.8605 12.4395 27.8983 12.4395L9.38962 12.4395C8.42745 12.4395 7.64746 11.6595 7.64746 10.6973V10.6973C7.64792 10.07 7.89733 9.46848 8.34091 9.0249C8.7845 8.58131 9.38599 8.3319 10.0133 8.33144C10.1827 8.33132 10.3515 8.35002 10.5168 8.38719L31.5011 8.38719Z" fill="url(#paint1_linear_3187_251151)"/>
</g>
<mask id="mask0_3187_251151" style="mask-type:alpha" maskUnits="userSpaceOnUse" x="14" y="32" width="25" height="5">
<path d="M14.4989 36.1211C15.0264 36.0068 15.4988 35.7152 15.8374 35.2948C16.1759 34.8744 16.3602 34.3508 16.3595 33.811V33.811C16.3595 32.8488 17.1395 32.0689 18.1017 32.0689L36.6104 32.0688C37.5725 32.0688 38.3525 32.8488 38.3525 33.811V33.811C38.3521 34.4383 38.1027 35.0398 37.6591 35.4834C37.2155 35.927 36.614 36.1764 35.9867 36.1769C35.8173 36.177 35.6365 36.1769 35.4545 36.1769L14.4989 36.1211Z" fill="url(#paint2_linear_3187_251151)"/>
</mask>
<g mask="url(#mask0_3187_251151)">
<path d="M34.3955 32.0688H38.646V36.1769H38.5035C36.2347 36.1769 34.3955 34.3376 34.3955 32.0688V32.0688Z" fill="url(#paint3_linear_3187_251151)"/>
</g>
<rect x="15.5" y="16.4282" width="15.1921" height="0.59579" rx="0.297895" fill="#5E6A80"/>
<rect x="15.5" y="14.8745" width="15.1921" height="0.59579" rx="0.297895" fill="#5E6A80"/>
<rect x="15.5" y="17.9814" width="15.1921" height="0.59579" rx="0.297895" fill="#5E6A80"/>
<rect x="15.5" y="19.5352" width="15.1921" height="0.59579" rx="0.297895" fill="#5E6A80"/>
<rect x="15.5" y="21.0889" width="7.02852" height="0.59579" rx="0.297895" fill="#5E6A80"/>
<path fill-rule="evenodd" clip-rule="evenodd" d="M24.0291 29.1476C24.1782 29.2247 24.2367 29.4071 24.1598 29.5558L24.153 29.5689C24.0963 29.6785 24.0416 29.7844 23.9887 29.8866C23.8722 30.1214 23.7846 30.3294 23.6959 30.6178C23.5585 31.0645 23.4231 31.5863 23.4563 31.9802C23.4565 31.9828 23.4567 31.9855 23.4569 31.9881C23.4744 32.2915 23.5385 32.4646 23.6019 32.5617C23.6606 32.6516 23.7277 32.6909 23.7974 32.7106L23.7984 32.7109C23.9129 32.7437 23.9891 32.7285 24.0479 32.6989C24.1148 32.6651 24.1858 32.5985 24.255 32.4901C24.3319 32.3696 24.3917 32.221 24.4361 32.0717C24.4493 31.944 24.4722 31.8127 24.5312 31.6521C24.585 31.5058 24.7415 31.4236 24.8934 31.462C25.0453 31.5004 25.1433 31.6468 25.1202 31.8009C25.1038 31.911 25.0779 32.0427 25.0397 32.1818C25.0377 32.2049 25.0358 32.2297 25.0337 32.2567C25.0315 32.2851 25.029 32.316 25.0262 32.3499C25.0194 32.5408 25.0584 32.6566 25.1005 32.7247C25.1418 32.7913 25.198 32.8316 25.2647 32.854C25.4153 32.9047 25.6037 32.8581 25.6977 32.7778C25.8488 32.636 25.933 32.5188 25.9854 32.4223C26.0202 32.3582 26.0436 32.2985 26.0634 32.2366C26.0645 32.233 26.0656 32.2293 26.0667 32.2257C26.0759 32.1949 26.0849 32.1651 26.0928 32.1363C26.1374 31.9745 26.3054 31.8794 26.4681 31.9236C26.6308 31.9679 26.7266 32.1349 26.682 32.2967C26.679 32.3076 26.6759 32.3188 26.6726 32.3304C26.662 32.3681 26.6524 32.4012 26.6438 32.4308C26.6035 32.5692 26.5855 32.631 26.594 32.7367C26.6041 32.7935 26.6469 32.8324 26.7106 32.8362C26.7663 32.8395 26.9038 32.8117 27.0267 32.5755C27.1042 32.4266 27.2885 32.3683 27.4384 32.4454C27.5882 32.5224 27.6468 32.7056 27.5693 32.8545C27.3629 33.251 27.0257 33.463 26.6745 33.4423C26.4697 33.4302 26.2813 33.3366 26.1527 33.1853C26.1395 33.1981 26.1261 33.2109 26.1123 33.2238C26.1101 33.2259 26.1078 33.2279 26.1055 33.23C25.8498 33.4549 25.4302 33.5507 25.069 33.4292C24.8811 33.3661 24.7066 33.2431 24.5846 33.0498C24.5101 33.1242 24.4238 33.1902 24.3241 33.2405C24.1191 33.3438 23.8831 33.367 23.6297 33.2945C23.4283 33.2374 23.2341 33.1138 23.0894 32.8923C22.9557 32.6874 22.8756 32.4163 22.8502 32.072C22.7798 32.2037 22.72 32.3138 22.6685 32.4065C22.5491 32.6212 22.4664 32.7561 22.3937 32.8518C22.3144 32.9561 22.2495 33.0101 22.1878 33.0609C22.055 33.1763 21.8845 33.2522 21.7104 33.2768C21.536 33.3015 21.3351 33.2771 21.1622 33.16C20.9173 33.0036 20.8312 32.7247 20.801 32.4905C20.7764 32.2992 20.7821 32.0861 20.8039 31.8736C20.2375 32.4673 19.5323 32.9327 18.7614 33.2113C18.6029 33.2685 18.4276 33.1872 18.37 33.0296C18.3124 32.8721 18.3942 32.6979 18.5527 32.6406C19.6988 32.2265 20.6816 31.3426 21.189 30.2486C21.2571 30.1016 21.4294 30.0336 21.5804 30.094C21.7315 30.1545 21.8083 30.3221 21.755 30.475C21.6618 30.7425 21.5035 31.2738 21.4321 31.7704C21.3962 32.0203 21.3851 32.2434 21.407 32.4134C21.4304 32.5955 21.4812 32.6421 21.493 32.6495C21.4972 32.6521 21.5013 32.6549 21.5054 32.6577C21.5249 32.6712 21.5634 32.6843 21.6243 32.6757C21.6858 32.667 21.7461 32.6387 21.787 32.6027C21.7895 32.6006 21.7919 32.5985 21.7944 32.5964C21.848 32.5523 21.8693 32.5344 21.9062 32.4859C21.9509 32.4271 22.0159 32.3247 22.1339 32.1127C22.3514 31.7216 22.7232 31.005 23.4426 29.6143C23.4961 29.5067 23.5539 29.3963 23.6178 29.2756C23.6961 29.1277 23.8799 29.0705 24.0291 29.1476Z" fill="url(#paint4_linear_3187_251151)"/>
<path fill-rule="evenodd" clip-rule="evenodd" d="M27.9885 31.4263C28.2015 31.4263 28.374 31.5936 28.374 31.8V31.8236C28.374 32.0299 28.2015 32.1973 27.9885 32.1973C27.7756 32.1973 27.603 32.0299 27.603 31.8236V31.8C27.603 31.5936 27.7756 31.4263 27.9885 31.4263Z" fill="url(#paint5_linear_3187_251151)"/>
<circle cx="28.4934" cy="27.7112" r="1.50513" fill="#E64040"/>
<defs>
<filter id="filter0_i_3187_251151" x="9.96094" y="8.33154" width="25.3975" height="27.8457" filterUnits="userSpaceOnUse" color-interpolation-filters="sRGB">
<feFlood flood-opacity="0" result="BackgroundImageFix"/>
<feBlend mode="normal" in="SourceGraphic" in2="BackgroundImageFix" result="shape"/>
<feColorMatrix in="SourceAlpha" type="matrix" values="0 0 0 0 0 0 0 0 0 0 0 0 0 0 0 0 0 0 127 0" result="hardAlpha"/>
<feOffset dx="0.856389" dy="0.611706"/>
<feComposite in2="hardAlpha" operator="arithmetic" k2="-1" k3="1"/>
<feColorMatrix type="matrix" values="0 0 0 0 1 0 0 0 0 1 0 0 0 0 1 0 0 0 0.4 0"/>
<feBlend mode="normal" in2="shape" result="effect1_innerShadow_3187_251151"/>
</filter>
<filter id="filter1_i_3187_251151" x="7.64746" y="8.33154" width="23.8535" height="4.10791" filterUnits="userSpaceOnUse" color-interpolation-filters="sRGB">
<feFlood flood-opacity="0" result="BackgroundImageFix"/>
<feBlend mode="normal" in="SourceGraphic" in2="BackgroundImageFix" result="shape"/>
<feColorMatrix in="SourceAlpha" type="matrix" values="0 0 0 0 0 0 0 0 0 0 0 0 0 0 0 0 0 0 127 0" result="hardAlpha"/>
<feOffset dx="0.856389" dy="0.611706"/>
<feComposite in2="hardAlpha" operator="arithmetic" k2="-1" k3="1"/>
<feColorMatrix type="matrix" values="0 0 0 0 1 0 0 0 0 1 0 0 0 0 1 0 0 0 0.4 0"/>
<feBlend mode="normal" in2="shape" result="effect1_innerShadow_3187_251151"/>
</filter>
<linearGradient id="paint0_linear_3187_251151" x1="30.8591" y1="47.7532" x2="12.3286" y2="8.9197" gradientUnits="userSpaceOnUse">
<stop stop-color="#A0AEC0"/>
<stop offset="0.122865" stop-color="#BFC9D5"/>
<stop offset="0.342029" stop-color="#DBE2E9"/>
<stop offset="0.660615" stop-color="#ECF0F4"/>
<stop offset="0.98" stop-color="#F7FAFC"/>
</linearGradient>
<linearGradient id="paint1_linear_3187_251151" x1="27.2752" y1="14.1472" x2="26.7509" y2="7.15298" gradientUnits="userSpaceOnUse">
<stop stop-color="#A0AEC0"/>
<stop offset="0.122865" stop-color="#BFC9D5"/>
<stop offset="0.342029" stop-color="#DBE2E9"/>
<stop offset="0.660615" stop-color="#ECF0F4"/>
<stop offset="0.98" stop-color="#F7FAFC"/>
</linearGradient>
<linearGradient id="paint2_linear_3187_251151" x1="18.7248" y1="30.361" x2="19.2491" y2="37.3554" gradientUnits="userSpaceOnUse">
<stop stop-color="#A0AEC0"/>
<stop offset="0.122865" stop-color="#BFC9D5"/>
<stop offset="0.342029" stop-color="#DBE2E9"/>
<stop offset="0.660615" stop-color="#ECF0F4"/>
<stop offset="0.98" stop-color="#F7FAFC"/>
</linearGradient>
<linearGradient id="paint3_linear_3187_251151" x1="37.893" y1="30.3611" x2="35.3792" y2="36.3372" gradientUnits="userSpaceOnUse">
<stop stop-color="#A0AEC0"/>
<stop offset="0.122865" stop-color="#BFC9D5"/>
<stop offset="0.342029" stop-color="#DBE2E9"/>
<stop offset="0.660615" stop-color="#ECF0F4"/>
<stop offset="0.98" stop-color="#F7FAFC"/>
</linearGradient>
<linearGradient id="paint4_linear_3187_251151" x1="19.8183" y1="28.8884" x2="23.6012" y2="35.618" gradientUnits="userSpaceOnUse">
<stop stop-color="#8CEADD"/>
<stop offset="0.619792" stop-color="#3BB4AE"/>
</linearGradient>
<linearGradient id="paint5_linear_3187_251151" x1="27.7253" y1="31.3866" x2="28.495" y2="32.0332" gradientUnits="userSpaceOnUse">
<stop stop-color="#8CEADD"/>
<stop offset="0.619792" stop-color="#3BB4AE"/>
</linearGradient>
</defs>
</svg>
