<svg width="21" height="19" viewBox="0 0 21 19" fill="none" xmlns="http://www.w3.org/2000/svg">
<path d="M3.95117 15C2.15625 15 0.701172 13.5449 0.701172 11.75V3.25C0.701172 1.45507 2.15625 0 3.95117 0H17.4512C19.2461 0 20.7012 1.45507 20.7012 3.25V11.75C20.7012 13.5449 19.2461 15 17.4512 15H11.7137L6.69985 18.7507C6.14702 19.1642 5.36367 19.0512 4.95018 18.4984C4.78853 18.2822 4.70117 18.0196 4.70117 17.7499L4.70039 15H3.95117ZM11.2147 13.5H17.4512C18.4177 13.5 19.2012 12.7165 19.2012 11.75V3.25C19.2012 2.2835 18.4177 1.5 17.4512 1.5H3.95117C2.98467 1.5 2.20117 2.2835 2.20117 3.25V11.75C2.20117 12.7165 2.98467 13.5 3.95117 13.5H6.19996L6.20017 14.2498L6.20103 17.2506L11.2147 13.5Z" fill="black"/>
</svg>
