<svg width="18" height="18" viewBox="0 0 18 18" fill="none" xmlns="http://www.w3.org/2000/svg">
<path d="M14.4162 0.00195312C16.072 0.00195312 17.4143 1.34424 17.4143 3.00003C17.4143 4.65582 16.072 5.9981 14.4162 5.9981C13.574 5.9981 12.813 5.65085 12.2684 5.09171L6.81124 8.21132C6.87959 8.46263 6.91607 8.72707 6.91607 9.00003C6.91607 9.27299 6.87959 9.53743 6.81124 9.78874L12.2691 12.9076C12.8136 12.3489 13.5744 12.002 14.4162 12.002C16.072 12.002 17.4143 13.3442 17.4143 15C17.4143 16.6558 16.072 17.9981 14.4162 17.9981C12.7604 17.9981 11.4182 16.6558 11.4182 15C11.4182 14.7271 11.4546 14.4626 11.523 14.2113L6.06586 11.0917C5.52126 11.6508 4.76018 11.9981 3.918 11.9981C2.26221 11.9981 0.919922 10.6558 0.919922 9.00003C0.919922 7.34424 2.26221 6.00195 3.918 6.00195C4.75981 6.00195 5.52058 6.3489 6.06513 6.9076L11.523 3.78874C11.4546 3.53743 11.4182 3.27299 11.4182 3.00003C11.4182 1.34424 12.7604 0.00195312 14.4162 0.00195312Z" fill="black"/>
</svg>
