<svg width="27" height="26" viewBox="0 0 27 26" fill="none" xmlns="http://www.w3.org/2000/svg">
<g clip-path="url(#clip0_5018_267772)">
<path d="M13.0157 25.9992C20.1868 25.9992 26.0001 20.1858 26.0001 13.0147C26.0001 5.84361 20.1868 0.0302734 13.0157 0.0302734C5.84459 0.0302734 0.03125 5.84361 0.03125 13.0147C0.03125 20.1858 5.84459 25.9992 13.0157 25.9992Z" fill="url(#paint0_linear_5018_267772)"/>
<path opacity="0.4" d="M22.9002 12.0252C22.9002 18.088 19.0773 23.0028 13.0145 23.0028C6.95174 23.0028 3.43359 18.088 3.43359 12.0252C3.43359 5.96245 6.95174 1.04761 13.0145 1.04761C19.0773 1.04761 22.9002 5.96245 22.9002 12.0252Z" fill="url(#paint1_linear_5018_267772)"/>
<path d="M8.0696 14.3687C8.89009 14.3687 9.55522 13.3422 9.55522 12.0758C9.55522 10.8095 8.89009 9.78296 8.0696 9.78296C7.24912 9.78296 6.58398 10.8095 6.58398 12.0758C6.58398 13.3422 7.24912 14.3687 8.0696 14.3687Z" fill="url(#paint2_linear_5018_267772)"/>
<path d="M18.2844 14.3687C19.1049 14.3687 19.7701 13.3422 19.7701 12.0758C19.7701 10.8095 19.1049 9.78296 18.2844 9.78296C17.464 9.78296 16.7988 10.8095 16.7988 12.0758C16.7988 13.3422 17.464 14.3687 18.2844 14.3687Z" fill="url(#paint3_linear_5018_267772)"/>
<path d="M6.76953 18.1509C6.76955 17.9432 6.9654 17.7917 7.16635 17.8435L9.47765 18.4399C12.1255 19.123 14.9033 19.123 17.5511 18.4399L19.8624 17.8435C20.0634 17.7917 20.2591 17.9434 20.2591 18.1509C20.2591 18.2276 20.2314 18.3018 20.181 18.3596L19.9764 18.5939C16.5585 22.5106 10.4702 22.5106 7.05233 18.5941L6.84781 18.3596C6.79733 18.3018 6.76951 18.2276 6.76953 18.1509Z" fill="url(#paint4_linear_5018_267772)"/>
<path d="M4.70134 7.62564C4.72314 7.48793 4.80483 7.36698 4.92441 7.29534L5.02547 7.23482C6.6228 6.278 8.54718 6.03192 10.3339 6.55597L10.7695 6.68373C10.9671 6.7417 11.1125 6.90988 11.1413 7.11378C11.1908 7.46398 10.8866 7.7618 10.5376 7.70499L9.80252 7.58538C8.50162 7.3737 7.16839 7.49246 5.92541 7.93078L5.32292 8.14323C4.98655 8.26185 4.64558 7.97791 4.70134 7.62564Z" fill="url(#paint5_linear_5018_267772)"/>
<path d="M21.3281 7.62564C21.3063 7.48793 21.2246 7.36698 21.105 7.29534L21.004 7.23482C19.4067 6.278 17.4822 6.03192 15.6956 6.55597L15.2599 6.68373C15.0623 6.7417 14.9169 6.90988 14.8881 7.11378C14.8386 7.46398 15.1428 7.7618 15.4919 7.70499L16.2269 7.58538C17.5278 7.3737 18.861 7.49246 20.104 7.93078L20.7065 8.14323C21.0429 8.26185 21.3838 7.97791 21.3281 7.62564Z" fill="url(#paint6_linear_5018_267772)"/>
<g style="mix-blend-mode:overlay" opacity="0.43">
<path style="mix-blend-mode:overlay" opacity="0.43" fill-rule="evenodd" clip-rule="evenodd" d="M21.4121 23.0026C22.8218 20.5792 23.6472 17.6414 23.6472 14.475C23.6472 8.03038 20.2277 2.53246 15.4219 0.391357C21.4245 1.41215 25.9987 6.70971 25.9987 13.0915C25.9987 17.0774 24.2143 20.6404 21.4121 23.0026Z" fill="url(#paint7_linear_5018_267772)"/>
</g>
</g>
<defs>
<linearGradient id="paint0_linear_5018_267772" x1="13.0072" y1="0.0302849" x2="13.0072" y2="29.1656" gradientUnits="userSpaceOnUse">
<stop stop-color="#8EEADE"/>
<stop offset="0.9964" stop-color="#3CB5AF"/>
</linearGradient>
<linearGradient id="paint1_linear_5018_267772" x1="13.0145" y1="1.04761" x2="13.0145" y2="23.0028" gradientUnits="userSpaceOnUse">
<stop stop-color="white"/>
<stop offset="0.602997" stop-color="white" stop-opacity="0"/>
</linearGradient>
<linearGradient id="paint2_linear_5018_267772" x1="9.37845" y1="9.53882" x2="10.7518" y2="12.1445" gradientUnits="userSpaceOnUse">
<stop stop-color="#718096"/>
<stop offset="1" stop-color="#2D3748"/>
</linearGradient>
<linearGradient id="paint3_linear_5018_267772" x1="19.5933" y1="9.53882" x2="20.9665" y2="12.1445" gradientUnits="userSpaceOnUse">
<stop stop-color="#718096"/>
<stop offset="1" stop-color="#2D3748"/>
</linearGradient>
<linearGradient id="paint4_linear_5018_267772" x1="13.5144" y1="17.7411" x2="13.5144" y2="21.8699" gradientUnits="userSpaceOnUse">
<stop stop-color="#728197"/>
<stop offset="1" stop-color="#2D3849"/>
</linearGradient>
<linearGradient id="paint5_linear_5018_267772" x1="7.52525" y1="5.7349" x2="7.9655" y2="8.36727" gradientUnits="userSpaceOnUse">
<stop stop-color="#728197"/>
<stop offset="1" stop-color="#2D3849"/>
</linearGradient>
<linearGradient id="paint6_linear_5018_267772" x1="18.5042" y1="5.7349" x2="18.0639" y2="8.36727" gradientUnits="userSpaceOnUse">
<stop stop-color="#728197"/>
<stop offset="1" stop-color="#2D3849"/>
</linearGradient>
<linearGradient id="paint7_linear_5018_267772" x1="20.7102" y1="0.391357" x2="20.7102" y2="23.0026" gradientUnits="userSpaceOnUse">
<stop/>
<stop offset="1" stop-color="#C4C4C4" stop-opacity="0"/>
</linearGradient>
<clipPath id="clip0_5018_267772">
<rect width="26" height="26" fill="white" transform="translate(0.015625)"/>
</clipPath>
</defs>
</svg>
