<svg width="29" height="25" viewBox="0 0 29 25" fill="none" xmlns="http://www.w3.org/2000/svg">
<g clip-path="url(#clip0_1938_219539)">
<path d="M27.0814 12.4048C27.0814 14.0986 26.7242 15.7209 26.1049 17.1761C25.2238 19.2278 23.7947 20.9932 21.9844 22.2813C20.0076 23.689 17.6021 24.5001 14.9822 24.5001C8.31322 24.5001 2.88281 19.0846 2.88281 12.4048C2.88281 11.0212 3.12099 9.68519 3.54971 8.44467C3.85933 7.56199 4.24042 6.75085 4.74058 5.98746C6.88417 2.57599 10.6473 0.309623 14.9345 0.285767H15.006C15.1727 0.285767 15.3394 0.285767 15.5061 0.285767C16.3636 0.309623 17.1972 0.452762 18.007 0.643613C19.2455 0.953747 20.3887 1.45473 21.4367 2.12271C23.5802 3.45867 25.2714 5.46261 26.2241 7.8244L26.5099 8.63552C26.8909 9.82834 27.0814 11.0927 27.0814 12.4048Z" fill="#D5DEE7"/>
<path d="M26.2001 7.84825C26.1286 7.77668 26.0334 7.72898 25.9856 7.72898C25.7951 7.65741 25.3426 7.75283 25.295 7.22798C25.295 7.20413 25.2712 7.18028 25.2474 7.13256C25.1521 7.25185 25.0569 7.34727 24.914 7.51427C24.7949 7.2757 24.6995 7.06099 24.6044 6.82242C24.5328 6.89399 24.4852 6.96557 24.4139 6.98942C24.3185 7.03714 24.1994 7.10871 24.128 7.06099C23.9375 6.96557 23.9375 6.53616 23.9135 6.41687C23.4611 6.58386 23.2229 6.20217 22.8419 6.1306C22.7941 6.41687 22.7465 6.727 22.6989 7.03714C21.4604 7.34727 21.5318 7.22798 20.8173 5.98746C21.0793 5.77275 21.3651 5.65347 21.6748 5.65347C22.2464 5.67732 22.7941 4.93778 22.6989 4.77077C22.5322 4.5322 22.6036 4.26979 22.6514 3.98352C22.556 3.95965 22.4606 3.91195 22.3655 3.9358C22.1272 3.95965 22.0083 3.86423 21.9129 3.64952C21.77 3.26783 21.246 3.69724 21.127 2.98154C20.984 2.12271 21.1746 2.14657 21.4366 2.12271C20.3886 1.45473 19.2454 0.953747 18.0068 0.643613C17.9592 0.715182 17.8639 0.834464 17.8401 0.906034C17.5305 1.55016 17.2685 1.1446 16.9112 1.55016C16.6016 1.908 16.292 2.26585 15.9824 2.64756C15.5298 2.40899 15.3869 1.97957 15.2678 1.5263C15.1249 1.00146 15.5298 0.643613 15.506 0.285767C15.2916 0.285767 15.0296 0.285767 14.9344 0.285767C15.2916 0.810608 15.3155 0.667469 14.3866 1.40702C13.7673 0.500475 13.1719 1.57401 12.8623 0.92989C12.505 1.16845 12.1715 1.38316 11.8381 1.64558C11.6952 1.74101 11.6952 2.26585 11.8143 2.38513C11.8619 2.4567 12.0048 2.50442 12.0763 2.48057C12.4097 2.36128 12.7193 2.19428 12.8623 1.81258C13.1719 2.02729 13.4101 1.86029 13.6244 1.64558C13.934 1.33545 14.0293 1.66944 14.3151 1.88415C14.6248 2.12271 14.4818 2.21814 14.2437 2.67141C14.2437 2.69526 14.2437 2.71913 14.2437 2.76683C14.3389 2.74298 14.4342 2.71913 14.5771 2.69526C14.458 3.12469 14.3628 4.03122 13.6959 3.60182C13.4101 3.41095 13.291 3.41095 13.1242 3.69724C13.029 3.86423 12.8623 3.88808 12.6955 3.88808C11.2903 3.95965 11.5761 4.10279 10.9807 4.29364C10.5281 4.43678 11.0521 3.98352 9.26579 5.00933C9.19434 5.05705 9.12288 5.15247 9.09907 5.22404C8.97997 5.84432 8.95617 6.36917 8.83709 6.39302C8.3369 6.44074 8.74182 5.17634 7.62239 5.15247C6.97932 5.12862 6.47913 5.43876 6.05043 5.89204C5.71698 6.24987 5.57407 7.32342 6.40769 7.15643C6.50296 7.13256 6.59823 7.08486 6.66967 7.10871C6.86022 7.15643 6.95549 7.39499 6.81258 7.53812C6.62204 7.75283 6.12187 7.94367 6.47913 8.18224C6.66967 8.30153 6.5744 8.3731 6.5744 9.06495C6.5744 9.44663 6.86022 9.66134 7.33657 9.85219C8.02728 10.0908 7.95584 9.01722 8.62272 9.42278C8.90853 9.58977 9.21815 9.75677 9.5516 9.87606C9.83742 9.99533 10.0994 10.1385 10.3138 10.377C10.6234 10.711 11.6952 10.7826 12.2192 12.1663C12.2906 12.381 12.505 12.548 12.6002 12.7627C12.7193 13.049 12.9099 13.1444 13.1957 13.216C13.9102 13.383 14.5533 13.8839 14.5533 14.2418C14.5533 14.695 14.3628 15.0529 14.0055 15.3392C13.6959 15.6016 13.6244 16.2457 13.2433 16.8421C12.6002 17.8203 12.0048 17.4624 11.6952 17.9157C11.4332 18.2974 11.1712 18.6552 10.933 19.0369C10.671 19.4902 9.71834 19.8958 9.38489 20.3729C9.12288 20.7546 8.81326 21.1363 8.95617 21.685C9.02761 21.9235 9.14671 22.4961 9.14671 22.8063C8.71799 22.687 8.456 22.4007 8.17019 22.1144C7.74147 21.6611 7.62239 21.1124 7.57475 20.516C7.55092 20.349 7.45565 20.182 7.43184 20.015C7.43184 19.681 7.45565 19.3232 7.47948 18.9892C7.50329 18.7506 7.57475 18.5121 7.45565 18.2497C7.40802 18.1304 7.43185 17.9395 7.45565 17.7964C7.64619 16.4604 7.69383 16.365 7.64619 16.2934C7.33657 15.9833 7.33657 15.6493 7.43184 15.3392C7.02695 14.8859 6.66967 14.4804 6.31242 14.0748C6.1457 13.8839 6.07424 13.6454 6.07424 13.383C6.07424 13.1921 6.00279 13.0251 5.97897 12.8343C5.90752 12.0708 6.31242 11.7369 6.71731 11.1405C7.14603 10.5202 6.88404 10.0431 6.74114 9.94763C6.00279 9.54207 6.31242 8.99337 5.95516 8.73094C5.59788 8.46852 5.71698 8.22996 5.74079 8.01524C5.02627 7.49042 4.57372 7.37112 4.78809 6.41687C4.78809 6.39302 4.8119 6.32144 4.8119 6.2976C4.83573 6.20217 4.8119 6.10673 4.76427 6.01131V5.98746C4.76427 5.98746 4.76427 5.96359 4.74046 5.96359C3.57339 7.8244 2.90649 10.0192 2.90649 12.4048C2.90649 18.8222 7.9082 24.0944 14.2199 24.4763C14.4818 24.5001 14.7438 24.5001 15.0058 24.5001C17.602 24.5001 20.0313 23.665 22.0083 22.2813V22.2576C22.0083 22.2338 22.0321 22.2098 22.0321 22.1622V22.1382C22.0321 22.1382 22.0321 22.1382 22.0321 22.1144C22.175 21.7328 22.3417 21.351 22.5322 20.9932C23.2229 19.7765 21.9843 19.681 23.1277 18.2974C23.2704 18.1065 23.9613 17.6055 23.5563 16.7467C23.3896 16.3889 23.3658 16.1026 23.4134 15.8402C23.5087 15.3392 23.8421 14.9575 23.6992 14.3849C23.6516 14.1464 23.6041 14.1225 23.3896 14.2179C23.2466 14.2895 23.1753 14.2418 23.0561 14.1702C22.8419 14.0509 22.556 13.9555 22.3179 14.0032C20.603 14.3134 19.7455 13.0012 19.4359 12.7865C18.8405 12.381 19.0786 11.88 19.4835 9.99533C19.5074 9.92376 19.5312 9.82834 19.5074 9.75677C19.3168 9.23194 19.6503 8.9695 19.9837 8.68324C20.0075 8.65937 20.0313 8.63552 20.0552 8.63552C20.4839 8.51624 20.7459 8.20611 21.0079 7.89597C21.0317 7.87212 21.0555 7.8244 21.1031 7.8244C21.8176 7.56199 22.5322 7.34727 23.2704 7.63356C23.6992 7.80055 23.9375 7.34727 25.0091 8.25381C25.6046 8.80251 25.6522 8.5401 26.486 8.65937L26.2001 7.84825ZM7.9082 7.25185C8.09872 6.87014 8.36073 6.84629 8.67035 7.03714C8.83709 7.13256 8.93236 7.13256 9.64687 7.34727C9.64687 7.39499 9.62307 7.41884 9.62307 7.46654C9.02761 7.53812 8.47981 7.37112 7.9082 7.25185ZM10.2899 8.27768C9.88505 8.22996 9.5516 8.20611 9.21815 8.15839C9.45633 7.84825 10.0518 7.77668 10.2899 8.01524C10.3376 8.06297 10.2899 8.20611 10.2899 8.27768ZM17.1018 2.00343C17.602 1.78872 17.7925 1.6933 18.0068 1.93186C18.0545 1.97957 18.0068 2.09886 17.983 2.19428C17.9354 2.36128 17.7925 2.50442 17.6972 2.59984C17.459 2.50442 17.2447 2.4567 17.0541 2.33742C16.9112 2.24199 16.9351 2.075 17.1018 2.00343ZM20.4601 4.26979C20.3886 4.17437 20.341 4.07894 20.2695 3.95965C20.5077 3.76881 20.6506 3.72109 20.5792 3.5064C20.5553 3.45867 20.5792 3.33938 20.603 3.31553C20.6506 3.29168 20.7697 3.26783 20.8173 3.31553C21.1031 3.62567 21.5557 3.79266 21.6986 4.22209C21.6986 4.24594 21.7224 4.24594 21.7224 4.26979C21.7462 4.41293 21.8176 4.62765 21.77 4.65149C21.6033 4.77077 21.4128 4.86621 21.2222 4.86621C21.0317 4.86621 20.9364 4.67534 20.9364 4.4845C20.9364 4.36521 20.8888 4.24594 20.8649 4.10279C20.6744 4.17437 20.5792 4.22209 20.4601 4.26979Z" fill="#F3F7FA"/>
<path d="M6.7738 11.9547C2.23794 12.7229 -2.4098 17.3733 3.75117 18.9956" stroke="#E84444" stroke-width="1.33333" stroke-miterlimit="10" stroke-linecap="round" stroke-linejoin="round" stroke-dasharray="0.33 2.33"/>
<path d="M14 8.64986L12.6562 7.69376L12.6206 7.65939C12.4436 7.52252 12.4037 7.27807 12.5037 7.06603C12.6045 6.88903 12.7765 6.78079 12.9861 6.81197C13.2306 6.84249 13.5804 6.90613 14.1057 7.03659C15.1236 7.40319 17.0848 7.89255 17.0848 7.89255L14 8.64986Z" fill="#319795"/>
<path d="M25.2862 10.2638C25.6325 10.2575 25.9072 9.97014 25.9 9.62203C25.8927 9.27395 25.6062 8.99692 25.2599 9.00328C24.9138 9.00965 24.6391 9.297 24.6464 9.64509C24.6537 9.9932 24.9402 10.2702 25.2862 10.2638Z" fill="#3E495C"/>
<path d="M18.0703 13.3741C18.4165 13.3677 18.6913 13.0804 18.684 12.7323C18.6767 12.3842 18.3902 12.1071 18.044 12.1135C17.6978 12.1199 17.4231 12.4072 17.4303 12.7553C17.4376 13.1034 17.7241 13.3805 18.0703 13.3741Z" fill="#3E495C"/>
<path d="M28.42 6.84348C28.4947 7.0873 28.5382 7.50685 28.093 7.86535C27.6475 8.22383 27.2022 8.58231 25.0902 9.21663C22.9784 9.85096 16.9882 11.6075 15.152 12.0966C13.3165 12.6208 11.4708 12.6547 10.2824 12.4664C9.09325 12.2431 7.72339 11.7078 7.28646 10.8051C6.88435 9.90171 7.86235 10.0238 7.86235 10.0238L8.14754 10.3339C8.14754 10.3339 24.0732 5.55728 24.697 5.40567C25.321 5.25408 26.122 5.23936 26.6864 5.57926C26.8265 5.61173 26.9324 5.67983 27.0042 5.78361C27.3584 6.05733 27.608 6.33297 27.6442 6.40236C27.6442 6.40236 28.3443 6.56463 28.42 6.84348Z" fill="url(#paint0_linear_1938_219539)"/>
<path d="M12.7344 14.7682L15.1766 11.6057C15.3463 11.3924 15.2708 11.1135 15.059 10.9773C14.8826 10.8755 14.9124 10.6297 15.085 10.5565C15.7067 10.2998 16.882 9.85788 17.9208 9.55855C19.3747 9.11146 19.7244 9.17511 20.0763 9.34377C20.463 9.51181 21.029 9.92174 20.9304 10.2038C20.8659 10.4502 20.7273 10.4878 20.5213 10.6317C20.3153 10.7756 14.8972 14.9036 14.4851 15.1914C14.0738 15.5142 13.5922 15.8033 13.2091 15.8104C12.826 15.8174 12.4408 15.7194 12.3704 15.6857C12.3341 15.6163 12.1563 15.4444 12.3601 15.1954C12.5988 14.9458 12.7344 14.7682 12.7344 14.7682Z" fill="#319795"/>
<path d="M8.48285 11.3785L9.45135 11.0455L9.624 10.9722C9.72774 10.9353 9.83295 10.9684 9.90405 11.0371C9.9759 11.1409 9.97884 11.281 9.87656 11.3879L7.96372 13.2096C7.89553 13.2809 7.79107 13.2828 7.72143 13.2841C7.54657 13.2523 7.43844 13.0791 7.50442 12.9028L8.00115 11.6676C8.03452 11.597 8.1027 11.5256 8.17235 11.5244L8.48285 11.3785Z" fill="#319795"/>
<path d="M7.67256 10.938C7.67256 10.938 7.52488 10.9834 7.43025 11.0125C6.95813 10.3856 6.80597 9.88301 6.47873 9.24378C6.15317 8.60778 5.75951 7.75048 5.75951 7.75048C5.72248 7.64606 5.72029 7.54102 5.78848 7.46971C5.85591 7.36338 6.02931 7.32517 6.13598 7.42828L8.46662 8.92672C8.64293 9.02857 8.81925 9.1304 9.03038 9.23161L10.2602 9.73443C10.3306 9.76818 10.3328 9.87322 10.2639 9.90952C9.91931 10.091 9.53241 10.2731 8.88739 10.5314C8.17277 10.8176 7.67256 10.938 7.67256 10.938Z" fill="#319795"/>
<path d="M27.6435 6.36731C27.3345 6.58318 27.0249 6.76401 26.6803 6.94549C26.5425 7.01809 26.4386 7.05501 26.3002 7.0926C26.0919 7.13145 25.9155 7.02962 25.8423 6.85581C25.7683 6.64699 25.8684 6.43498 26.0409 6.36176C26.1448 6.32481 26.2485 6.28787 26.3173 6.25157C26.559 6.14205 26.696 6.03443 27.0043 5.78357C27.3585 6.0573 27.6082 6.33293 27.6435 6.36731Z" fill="#3F4A5C"/>
</g>
<defs>
<linearGradient id="paint0_linear_1938_219539" x1="17.8215" y1="5.13512" x2="17.8215" y2="12.6492" gradientUnits="userSpaceOnUse">
<stop stop-color="#8EEADE"/>
<stop offset="0.9964" stop-color="#3CB5AF"/>
</linearGradient>
<clipPath id="clip0_1938_219539">
<rect width="28.2857" height="24.4286" fill="white" transform="translate(0.357178 0.285767)"/>
</clipPath>
</defs>
</svg>
