<svg width="46" height="46" viewBox="0 0 46 46" fill="none" xmlns="http://www.w3.org/2000/svg">
<g clip-path="url(#clip0_3187_251136)">
<rect x="-0.0078125" y="0.5" width="46" height="46" rx="5" fill="#E2E8F0"/>
<path fill-rule="evenodd" clip-rule="evenodd" d="M40.5408 23.412C40.7409 22.1845 40.8459 20.916 40.8459 19.6181C40.8459 8.78492 33.5389 0.00292969 24.5254 0.00292969C16.5253 0.00292969 9.86954 6.92128 8.47412 16.0517C11.1699 12.3427 16.0042 9.52935 24.2776 8.62539C20.2972 9.50164 11.9464 13.1298 10.3858 20.6325C8.82516 28.1351 15.5681 28.9215 19.1346 28.3766C24.6717 26.4584 36.2779 22.6929 38.4059 22.9771C39.3437 23.1023 40.0592 23.2669 40.5408 23.412Z" fill="url(#paint0_linear_3187_251136)"/>
<path d="M18.0247 26.4765C18.5621 26.4646 18.9887 25.9279 18.9774 25.2779C18.966 24.6278 18.5213 24.1104 17.9837 24.1223C17.4462 24.1341 17.0197 24.6708 17.031 25.3209C17.0423 25.9711 17.4872 26.4884 18.0247 26.4765Z" fill="#3E495C"/>
<path d="M16.7038 28.5873L13.9974 26.2711L13.9258 26.1879C13.5692 25.8564 13.4888 25.2641 13.6903 24.7505C13.8934 24.3218 14.2396 24.0594 14.6619 24.135C15.1543 24.2089 15.8586 24.3631 16.9165 24.6792C18.9666 25.5673 22.9163 26.7527 22.9163 26.7527L16.7038 28.5873Z" fill="#319795"/>
<path d="M20.9656 43.5312C21.6628 43.5157 22.2161 42.8196 22.2015 41.9763C22.1868 41.1332 21.6098 40.462 20.9124 40.4773C20.2153 40.4929 19.662 41.1889 19.6766 42.0322C19.6913 42.8756 20.2684 43.5466 20.9656 43.5312Z" fill="#3E495C"/>
<path d="M25.9812 38.4677C26.5186 38.4558 26.9452 37.9191 26.9339 37.2691C26.9226 36.619 26.4777 36.1016 25.9402 36.1135C25.4028 36.1254 24.9762 36.662 24.9875 37.3121C24.9988 37.9623 25.4438 38.4796 25.9812 38.4677Z" fill="#3E495C"/>
<path d="M45.7462 24.2109C45.8968 24.8015 45.9843 25.8178 45.0876 26.6864C44.1905 27.5548 43.2936 28.4232 39.0403 29.9598C34.7872 31.4966 22.7232 35.7519 19.0252 36.9369C15.3288 38.2065 11.6117 38.2888 9.21828 37.8327C6.82338 37.2915 4.06457 35.9949 3.18462 33.808C2.3748 31.6195 4.34443 31.9153 4.34443 31.9153L4.91878 32.6664C4.91878 32.6664 36.992 21.095 38.2482 20.7277C39.5049 20.3604 41.1182 20.3248 42.2549 21.1482C42.5372 21.2268 42.7503 21.3918 42.8949 21.6433C43.6083 22.3063 44.111 22.974 44.184 23.1423C44.184 23.1423 45.5938 23.5353 45.7462 24.2109Z" fill="url(#paint1_linear_3187_251136)"/>
<path d="M14.1551 43.4092L19.0735 35.7478C19.4153 35.2312 19.2633 34.5556 18.8365 34.2257C18.4814 33.979 18.5413 33.3836 18.889 33.2061C20.141 32.5843 22.5079 31.5138 24.6002 30.7886C27.5282 29.7056 28.2324 29.8598 28.9412 30.2684C29.72 30.6754 30.8599 31.6684 30.6612 32.3517C30.5313 32.9487 30.2522 33.0396 29.8373 33.3884C29.4224 33.7369 18.5107 43.7371 17.6809 44.4344C16.8526 45.2164 15.8825 45.9168 15.1111 45.9338C14.3396 45.9509 13.5637 45.7136 13.4219 45.6317C13.3488 45.4637 12.9908 45.0473 13.4013 44.4441C13.8819 43.8394 14.1551 43.4092 14.1551 43.4092Z" fill="#319795"/>
<path d="M5.59337 35.1977L7.54388 34.3909L7.89159 34.2133C8.10051 34.1239 8.3124 34.204 8.45559 34.3705C8.6003 34.6219 8.60621 34.9614 8.40023 35.2206L4.54788 39.6336C4.41056 39.8063 4.20018 39.8109 4.05992 39.8141C3.70776 39.737 3.49 39.3174 3.62288 38.8902L4.62327 35.8981C4.69048 35.7268 4.82779 35.554 4.96804 35.551L5.59337 35.1977Z" fill="#319795"/>
<path d="M3.96052 34.1305C3.96052 34.1305 3.66309 34.2407 3.47251 34.3111C2.52171 32.7924 2.21526 31.5748 1.55623 30.0264C0.900561 28.4855 0.107746 26.4088 0.107746 26.4088C0.0331729 26.1559 0.0287713 25.9013 0.166093 25.7285C0.301905 25.4711 0.65112 25.3784 0.865949 25.6283L5.55971 29.2582C5.91479 29.505 6.26987 29.7517 6.69508 29.9968L9.17193 31.215C9.31365 31.2967 9.31809 31.5511 9.17931 31.6392C8.48533 32.0787 7.70615 32.5199 6.40711 33.1455C4.96791 33.839 3.96052 34.1305 3.96052 34.1305Z" fill="#319795"/>
<path d="M44.1816 23.0567C43.5593 23.5798 42.9358 24.0177 42.2418 24.4574C41.9642 24.6332 41.7551 24.7229 41.4762 24.8138C41.0568 24.9079 40.7016 24.6613 40.554 24.2402C40.4051 23.7344 40.6067 23.2206 40.954 23.0433C41.1634 22.9539 41.3722 22.8643 41.5107 22.7764C41.9975 22.5112 42.2733 22.2503 42.8943 21.6426C43.6076 22.3058 44.1104 22.9736 44.1816 23.0567Z" fill="#3F4A5C"/>
<path d="M38.7133 8.27996C38.7133 9.43678 38.5104 10.5447 38.1587 11.5386C37.6585 12.9398 36.847 14.1456 35.8192 15.0254C34.6969 15.9867 33.3311 16.5407 31.8434 16.5407C28.0571 16.5407 24.9736 12.8421 24.9736 8.27996C24.9736 7.33493 25.1089 6.42251 25.3524 5.57527C25.5281 4.97241 25.7445 4.41842 26.0286 3.89705C27.2456 1.56709 29.3823 0.019223 31.8165 0.00292969H31.8569C31.9516 0.00292969 32.0463 0.00292969 32.141 0.00292969C32.6278 0.019223 33.1011 0.116983 33.5609 0.24733C34.2642 0.459144 34.9132 0.801304 35.5082 1.25752C36.7252 2.16995 37.6854 3.53859 38.2265 5.15164L38.3887 5.7056C38.6051 6.52028 38.7133 7.38382 38.7133 8.27996Z" fill="#D1DAE4"/>
<path d="M38.213 5.16792C38.1724 5.11903 38.1183 5.08646 38.0912 5.08646C37.983 5.03759 37.7261 5.10274 37.6991 4.74429C37.6991 4.728 37.6855 4.7117 37.672 4.67911C37.6179 4.76059 37.5638 4.82577 37.4828 4.93982C37.415 4.77688 37.3609 4.63024 37.3069 4.46729C37.2662 4.51619 37.2393 4.56506 37.1987 4.58134C37.1446 4.61396 37.077 4.66283 37.0364 4.63024C36.9283 4.56506 36.9283 4.27178 36.9146 4.19032C36.6578 4.30437 36.5225 4.04368 36.3062 3.99481C36.279 4.19032 36.2521 4.40214 36.2251 4.61395C35.5218 4.82577 35.5625 4.74429 35.1567 3.89705C35.3055 3.75041 35.4678 3.66895 35.6435 3.66895C35.968 3.68523 36.279 3.18014 36.2251 3.06607C36.1304 2.90314 36.1709 2.72392 36.198 2.52841C36.1439 2.5121 36.0898 2.47953 36.0358 2.49582C35.9004 2.5121 35.8329 2.44692 35.7788 2.30028C35.6976 2.0396 35.4002 2.33287 35.3325 1.84408C35.2514 1.25752 35.3596 1.27381 35.5084 1.25752C34.9132 0.801304 34.2642 0.459144 33.5609 0.24733C33.534 0.296209 33.4799 0.377677 33.4664 0.426555C33.2905 0.866477 33.1417 0.58949 32.9388 0.866477C32.7631 1.11088 32.5874 1.35528 32.4115 1.61598C32.1545 1.45304 32.0735 1.15976 32.0059 0.850183C31.9247 0.491731 32.1545 0.24733 32.141 0.00292969C32.0194 0.00292969 31.8706 0.00292969 31.8165 0.00292969C32.0194 0.361382 32.0329 0.263623 31.5055 0.768718C31.1538 0.14957 30.8158 0.88277 30.6399 0.44285C30.4372 0.605783 30.2478 0.752423 30.0584 0.931651C29.9774 0.996824 29.9774 1.35528 30.045 1.43674C30.0719 1.48562 30.1531 1.51821 30.1937 1.50192C30.383 1.42045 30.5589 1.3064 30.6399 1.0457C30.8158 1.19234 30.951 1.07829 31.0728 0.931651C31.2485 0.719837 31.3026 0.947943 31.4649 1.09458C31.6408 1.25752 31.5596 1.32269 31.4243 1.63226C31.4243 1.64855 31.4243 1.66486 31.4243 1.69743C31.4783 1.68115 31.5324 1.66486 31.6136 1.64855C31.5461 1.94184 31.492 2.56097 31.1132 2.26772C30.951 2.13735 30.8834 2.13735 30.7887 2.33287C30.7346 2.44692 30.6399 2.46323 30.5454 2.46323C29.7474 2.5121 29.9097 2.60987 29.5717 2.7402C29.3147 2.83797 29.6123 2.52841 28.5979 3.22901C28.5573 3.2616 28.5169 3.32678 28.5033 3.37565C28.4357 3.79928 28.4222 4.15773 28.3546 4.17402C28.0706 4.20663 28.3006 3.34308 27.6648 3.32678C27.2997 3.31047 27.0158 3.52229 26.7723 3.83187C26.5831 4.07627 26.5019 4.80947 26.9752 4.69542C27.0293 4.67911 27.0834 4.64654 27.124 4.66283C27.2321 4.69542 27.2862 4.85836 27.2052 4.9561C27.0968 5.10274 26.8129 5.2331 27.0158 5.39602C27.124 5.4775 27.0699 5.52637 27.0699 5.99888C27.0699 6.25957 27.2321 6.40621 27.5026 6.53656C27.8948 6.69948 27.8542 5.96629 28.2328 6.24328C28.3951 6.35733 28.571 6.47138 28.7602 6.55287C28.9225 6.63433 29.0712 6.73207 29.1931 6.89501C29.3688 7.12311 29.9774 7.17201 30.2748 8.11702C30.3154 8.26366 30.4372 8.37771 30.4913 8.52434C30.5589 8.71988 30.667 8.78505 30.8293 8.83393C31.235 8.94798 31.6002 9.29012 31.6002 9.53455C31.6002 9.84411 31.492 10.0885 31.2891 10.284C31.1132 10.4633 31.0728 10.9032 30.8564 11.3105C30.4913 11.9785 30.1531 11.7341 29.9774 12.0437C29.8286 12.3044 29.6798 12.5488 29.5445 12.8095C29.3959 13.1191 28.8549 13.3961 28.6657 13.7219C28.5169 13.9826 28.341 14.2433 28.4222 14.618C28.4628 14.7809 28.5304 15.172 28.5304 15.3839C28.2869 15.3024 28.1381 15.1069 27.9759 14.9113C27.7326 14.6018 27.6648 14.227 27.6379 13.8197C27.6244 13.7056 27.5703 13.5916 27.5567 13.4775C27.5567 13.2494 27.5703 13.005 27.5838 12.7769C27.5973 12.614 27.6379 12.4511 27.5703 12.2718C27.5432 12.1903 27.5567 12.06 27.5703 11.9622C27.6785 11.0498 27.7054 10.9846 27.6785 10.9358C27.5026 10.724 27.5026 10.4958 27.5567 10.284C27.3268 9.97447 27.124 9.69747 26.9211 9.42048C26.8264 9.29013 26.786 9.1272 26.786 8.94798C26.786 8.81764 26.7454 8.70357 26.7317 8.57324C26.6913 8.05184 26.9211 7.82374 27.1511 7.41641C27.3944 6.99278 27.2456 6.66692 27.1646 6.60174C26.7454 6.32474 26.9211 5.95001 26.7182 5.77078C26.5154 5.59155 26.5831 5.42861 26.5966 5.28197C26.1909 4.92352 25.9339 4.84205 26.0557 4.19032C26.0557 4.17402 26.0692 4.12515 26.0692 4.10886C26.0827 4.04368 26.0692 3.97851 26.0421 3.91333V3.89705C26.0421 3.89705 26.0421 3.88074 26.0286 3.88074C25.3659 5.15164 24.9873 6.65063 24.9873 8.27996C24.9873 12.6629 27.8273 16.2636 31.4108 16.5244C31.5596 16.5407 31.7083 16.5407 31.8571 16.5407C33.3311 16.5407 34.7104 15.9703 35.8329 15.0254V15.0091C35.8329 14.9929 35.8464 14.9765 35.8464 14.944V14.9276C35.8464 14.9276 35.8464 14.9276 35.8464 14.9113C35.9276 14.6507 36.0223 14.3899 36.1304 14.1456C36.5225 13.3146 35.8192 13.2494 36.4684 12.3044C36.5495 12.174 36.9417 11.8319 36.7119 11.2453C36.6172 11.0009 36.6037 10.8054 36.6307 10.6262C36.6848 10.284 36.8742 10.0233 36.793 9.6323C36.766 9.46937 36.739 9.45307 36.6172 9.51825C36.536 9.56712 36.4956 9.53455 36.4278 9.48566C36.3062 9.4042 36.1439 9.33902 36.0088 9.37161C35.0351 9.58342 34.5481 8.68729 34.3724 8.54063C34.0342 8.26366 34.1695 7.92151 34.3993 6.63433C34.413 6.58543 34.4265 6.52028 34.413 6.47138C34.3048 6.11295 34.494 5.9337 34.6834 5.73819C34.6969 5.72189 34.7104 5.7056 34.724 5.7056C34.9673 5.62414 35.1161 5.41232 35.2649 5.20051C35.2784 5.18423 35.292 5.15164 35.319 5.15164C35.7247 4.97241 36.1304 4.82577 36.5495 5.02128C36.793 5.13533 36.9283 4.82577 37.5367 5.44491C37.8749 5.81965 37.9018 5.64042 38.3753 5.72189L38.213 5.16792ZM27.8273 4.76059C27.9354 4.49991 28.084 4.4836 28.26 4.61395C28.3546 4.67911 28.4087 4.67911 28.8143 4.82577C28.8143 4.85836 28.8008 4.87464 28.8008 4.90721C28.4628 4.9561 28.1518 4.84205 27.8273 4.76059ZM29.1794 5.4612C28.9496 5.42861 28.7602 5.41232 28.571 5.37974C28.7061 5.16792 29.0443 5.11903 29.1794 5.28197C29.2065 5.31456 29.1794 5.41232 29.1794 5.4612ZM33.047 1.17605C33.3311 1.02941 33.4393 0.964237 33.5609 1.12717C33.588 1.15976 33.5609 1.24122 33.5474 1.3064C33.5205 1.42045 33.4393 1.51821 33.3852 1.58338C33.2499 1.51821 33.1282 1.48562 33.0201 1.40416C32.9388 1.33898 32.9525 1.22493 33.047 1.17605ZM34.9539 2.72392C34.9132 2.65874 34.8863 2.59358 34.8457 2.5121C34.981 2.38177 35.062 2.34918 35.0214 2.20254C35.0079 2.16995 35.0214 2.08847 35.0351 2.07218C35.062 2.05589 35.1296 2.0396 35.1567 2.07218C35.319 2.284 35.5759 2.39805 35.6571 2.69133C35.6571 2.70763 35.6706 2.70763 35.6706 2.72392C35.6841 2.82168 35.7247 2.96832 35.6976 2.9846C35.6029 3.06607 35.4947 3.13126 35.3865 3.13126C35.2784 3.13126 35.2243 3.00091 35.2243 2.87055C35.2243 2.78909 35.1973 2.70763 35.1837 2.60987C35.0755 2.65874 35.0214 2.69133 34.9539 2.72392Z" fill="url(#paint2_linear_3187_251136)"/>
<path d="M23.8213 8.75195C10.2829 11.4915 -0.554316 25.6058 12.8926 29.2832" stroke="#E84444" stroke-width="3.75053" stroke-miterlimit="10" stroke-linecap="round" stroke-linejoin="round" stroke-dasharray="0.94 6.56"/>
</g>
<defs>
<linearGradient id="paint0_linear_3187_251136" x1="24.6494" y1="-0.656533" x2="25.7448" y2="49.7601" gradientUnits="userSpaceOnUse">
<stop stop-color="#FDFEFF"/>
<stop offset="0.9964" stop-color="#ECF0F5"/>
</linearGradient>
<linearGradient id="paint1_linear_3187_251136" x1="24.4015" y1="20.0722" x2="24.4015" y2="38.2754" gradientUnits="userSpaceOnUse">
<stop stop-color="#8EEADE"/>
<stop offset="0.9964" stop-color="#3CB5AF"/>
</linearGradient>
<linearGradient id="paint2_linear_3187_251136" x1="31.6812" y1="0.00292969" x2="31.6812" y2="16.5407" gradientUnits="userSpaceOnUse">
<stop stop-color="#A0AEC0"/>
<stop offset="1" stop-color="#718096"/>
</linearGradient>
<clipPath id="clip0_3187_251136">
<rect width="46" height="46" fill="white"/>
</clipPath>
</defs>
</svg>
