<svg width="21" height="19" viewBox="0 0 21 19" fill="none" xmlns="http://www.w3.org/2000/svg">
<path d="M11.3957 2.8999C11.0289 2.15665 9.96901 2.15666 9.6022 2.8999L7.67176 6.8114L3.35517 7.43864C2.53494 7.55782 2.20744 8.5658 2.80095 9.14433L5.92447 12.189L5.18711 16.4882C5.047 17.3051 5.90443 17.928 6.63806 17.5423L10.4989 15.5126L14.3598 17.5423C15.0934 17.928 15.9509 17.3051 15.8108 16.4882L15.0734 12.189L18.1969 9.14433C18.7904 8.56579 18.4629 7.55782 17.6427 7.43864L13.3261 6.8114L11.3957 2.8999ZM16.1095 12.6886C15.937 12.9042 15.972 13.2189 16.1876 13.3914L18.6876 15.3914C18.9033 15.5639 19.2179 15.5289 19.3904 15.3133C19.5629 15.0977 19.528 14.783 19.3123 14.6105L16.8123 12.6105C16.5967 12.438 16.2821 12.473 16.1095 12.6886ZM16.1876 5.11055C15.972 5.28306 15.937 5.59771 16.1095 5.81334C16.2821 6.02897 16.5967 6.06393 16.8123 5.89142L19.3123 3.89142C19.528 3.71892 19.5629 3.40427 19.3904 3.18864C19.2179 2.97301 18.9033 2.93805 18.6876 3.11055L16.1876 5.11055ZM4.89045 12.6886C5.06296 12.9042 5.028 13.2189 4.81237 13.3914L2.31237 15.3914C2.09674 15.5639 1.78209 15.5289 1.60958 15.3133C1.43708 15.0977 1.47204 14.783 1.68767 14.6105L4.18767 12.6105C4.4033 12.438 4.71795 12.473 4.89045 12.6886ZM4.81237 5.11055C5.028 5.28306 5.06296 5.59771 4.89045 5.81334C4.71795 6.02897 4.4033 6.06393 4.18767 5.89142L1.68767 3.89142C1.47204 3.71892 1.43708 3.40427 1.60958 3.18864C1.78209 2.97301 2.09674 2.93805 2.31237 3.11055L4.81237 5.11055Z" fill="#319795"/>
</svg>
