<svg width="18" height="20" viewBox="0 0 18 20" fill="none" xmlns="http://www.w3.org/2000/svg">
<path d="M0.418579 3.5C0.418579 1.567 1.98558 0 3.91858 0C5.85158 0 7.41858 1.567 7.41858 3.5C7.41858 5.08956 6.35894 6.43162 4.90751 6.85834C5.59537 9.11123 7.69061 10.75 10.1686 10.75H10.4991C10.8425 9.1774 12.243 8 13.9186 8C15.8516 8 17.4186 9.567 17.4186 11.5C17.4186 13.433 15.8516 15 13.9186 15C12.243 15 10.8425 13.8226 10.4991 12.25H10.1686C7.93763 12.25 5.95041 11.2063 4.66858 9.58054L4.66858 13.0805C6.24117 13.4239 7.41858 14.8244 7.41858 16.5C7.41858 18.433 5.85158 20 3.91858 20C1.98558 20 0.418579 18.433 0.418579 16.5C0.418579 14.8244 1.59599 13.4239 3.16858 13.0805L3.16858 6.91946C1.59599 6.57612 0.418579 5.17556 0.418579 3.5ZM3.91858 1.5C2.81401 1.5 1.91858 2.39543 1.91858 3.5C1.91858 4.60457 2.81401 5.5 3.91858 5.5C5.02315 5.5 5.91858 4.60457 5.91858 3.5C5.91858 2.39543 5.02315 1.5 3.91858 1.5ZM3.91858 14.5C2.81401 14.5 1.91858 15.3954 1.91858 16.5C1.91858 17.6046 2.81401 18.5 3.91858 18.5C5.02315 18.5 5.91858 17.6046 5.91858 16.5C5.91858 15.3954 5.02315 14.5 3.91858 14.5ZM11.9186 11.5C11.9186 12.6046 12.814 13.5 13.9186 13.5C15.0231 13.5 15.9186 12.6046 15.9186 11.5C15.9186 10.3954 15.0231 9.5 13.9186 9.5C12.814 9.5 11.9186 10.3954 11.9186 11.5Z" fill="#A0AEC0"/>
</svg>
