<svg width="547" height="521" viewBox="0 0 547 521" fill="none" xmlns="http://www.w3.org/2000/svg">
<path d="M547 251.5C547 389.295 434.4 501 295.5 501C156.6 501 44 389.295 44 251.5C44 113.705 156.6 2 295.5 2C434.4 2 547 113.705 547 251.5Z" fill="url(#paint0_linear_3379_267687)"/>
<path d="M333.601 144.278C336.008 143.037 337.273 145.851 337.273 145.851C337.273 145.851 338.09 140.578 340.272 140.3C342.228 140.051 343.458 144.97 343.458 144.97C343.458 144.97 344.52 139.777 346.552 141.172C349.054 142.883 349.429 145.349 349.335 145.898C352.93 138.273 356.574 127.642 357.88 132.483C359.172 137.268 353.036 151.427 353.036 151.427C354.403 152.033 355.385 153.273 355.661 154.742C356.027 157.148 352.54 161.909 352.54 161.909C350.117 165.858 346.078 172.563 346.078 172.563C345.643 173.866 345.288 175.194 345.014 176.539V176.539L339.645 203.269L325.44 199.898L331.233 175.285V175.285C331.647 173.236 332.089 171.468 332.089 171.468C328.633 164.754 330.957 154.142 331.037 153.227L331.035 153.221C331.443 148.494 332.532 144.832 333.601 144.278Z" fill="#F2AC7D"/>
<path d="M347.304 157.929C350.094 158.659 353.771 157.37 353.961 157.302C354.06 157.267 354.133 157.181 354.152 157.077C354.171 156.974 354.133 156.868 354.052 156.8C353.972 156.731 353.861 156.711 353.761 156.747C353.707 156.766 348.328 158.65 345.947 156.609C345.45 156.256 345.16 155.68 345.171 155.071C345.259 153.688 347.112 152.456 347.13 152.444C347.266 152.355 347.304 152.172 347.215 152.036C347.125 151.9 346.943 151.862 346.806 151.951C346.72 152.008 344.69 153.354 344.582 155.032C344.557 155.826 344.923 156.583 345.563 157.056C346.069 157.476 346.665 157.774 347.304 157.929Z" fill="#0B122D"/>
<path d="M335.116 158.949C335.384 159.018 335.666 159.018 335.934 158.95C337.259 158.627 337.665 156.949 337.772 155.599C338.087 156.291 338.581 156.886 339.204 157.323C339.876 157.749 340.698 157.869 341.463 157.654C343.27 157.209 344.002 155.647 343.473 153.368C343.34 152.792 343.284 152.2 343.307 151.609L343.5 146.517C343.504 146.411 343.452 146.312 343.362 146.255C343.273 146.199 343.16 146.194 343.067 146.244C342.973 146.293 342.913 146.388 342.91 146.494L342.717 151.586C342.692 152.23 342.753 152.874 342.898 153.501C343.218 154.878 343.204 156.618 341.321 157.081C340.713 157.257 340.059 157.164 339.523 156.826C338.196 155.976 337.773 153.822 337.769 153.8C337.739 153.646 337.593 153.542 337.438 153.563C337.282 153.585 337.17 153.725 337.184 153.881C337.288 155.012 337.239 158.025 335.794 158.377C335.499 158.453 335.186 158.4 334.933 158.231C333.836 157.537 333.342 155.199 333.337 155.175C333.316 155.072 333.241 154.987 333.141 154.954C333.041 154.921 332.93 154.943 332.851 155.013C332.772 155.083 332.737 155.19 332.759 155.293C332.78 155.399 333.307 157.9 334.617 158.729C334.771 158.827 334.939 158.902 335.116 158.949V158.949Z" fill="#0B122D"/>
<path d="M340.55 165.883C340.656 165.911 340.768 165.878 340.842 165.798C340.916 165.719 340.94 165.604 340.904 165.502C340.38 164.213 340.424 162.764 341.023 161.509C342.165 159.277 344.991 158.408 345.019 158.4C345.174 158.353 345.263 158.189 345.216 158.033C345.169 157.878 345.005 157.789 344.85 157.835C344.724 157.872 341.759 158.78 340.5 161.237C339.822 162.634 339.766 164.252 340.346 165.694C340.378 165.787 340.455 165.858 340.55 165.883Z" fill="#0B122D"/>
<path d="M337.405 154.14C337.428 154.146 337.453 154.149 337.477 154.149C337.555 154.15 337.631 154.12 337.686 154.065C337.742 154.01 337.774 153.935 337.774 153.857L337.816 147.733C337.817 147.628 337.762 147.53 337.671 147.476C337.58 147.423 337.467 147.422 337.375 147.474C337.284 147.526 337.227 147.623 337.226 147.729L337.184 153.852C337.183 153.987 337.274 154.106 337.405 154.14V154.14Z" fill="#0B122D"/>
<path d="M459.378 217.214C458.937 206.268 456.816 197.837 441.704 205.2C441.704 205.2 443.225 194.662 439.05 189.756C434.875 184.851 407.289 161.592 401.379 191.823C401.379 191.823 397.008 216.169 396.056 222.269C395.105 228.369 400.711 250.412 408.051 251.557C410.344 251.858 412.671 251.773 414.936 251.305C412.575 259.791 408.589 267.738 403.198 274.704L449.658 272.939C449.658 272.939 443.533 259.09 445.974 234.143C453.196 229.446 459.679 224.685 459.378 217.214Z" fill="#F2AC7D"/>
<path d="M473.779 209.118C472.353 190.51 470.352 163.817 433.568 160.647C417.486 159.262 407.201 164.693 401.503 171.743L401.499 171.736C401.499 171.736 392.209 179.084 391.783 211.41C391.498 233.003 387.201 238.574 376.092 253.99C381.804 263.464 395.529 267.795 406.685 269.775C410.317 264.051 413.097 257.829 414.936 251.305C412.671 251.773 410.344 251.858 408.051 251.557C400.711 250.412 395.105 228.369 396.056 222.269C396.937 216.625 400.743 195.371 401.306 192.227C403.949 189.777 407.72 186.054 409.489 183.22C409.489 183.22 410.448 195.805 426.962 202.993C435.746 206.816 435.532 215.46 438.642 215.171C439.89 215.056 441.478 206.532 449.221 206.465C456.964 206.398 462.429 218.675 456.53 224.731C453.34 228.101 449.785 231.107 445.932 233.693C445.932 233.693 443.906 256.681 448.83 270.668C448.83 270.668 475.107 274.767 496.744 252.44C481.795 242.879 474.659 220.601 473.779 209.118Z" fill="url(#paint1_linear_3379_267687)"/>
<g style="mix-blend-mode:overlay" opacity="0.6">
<path d="M414.936 251.305C414.936 251.305 425.906 248.416 434.268 242.682C433.36 250.067 429.711 256.841 424.044 261.662C419.603 265.327 413.498 265.64 409.305 265.274C411.712 260.849 413.602 256.162 414.936 251.305Z" fill="#030F1C"/>
</g>
<path d="M473.989 256.373C473.93 256.364 473.874 256.343 473.823 256.313C469.44 253.64 466.516 248.066 465.365 240.193C464.843 236.506 464.7 232.775 464.937 229.059C464.959 228.812 465.177 228.629 465.425 228.65C465.672 228.671 465.856 228.888 465.835 229.136C465.818 229.338 464.222 249.402 474.293 255.543C474.476 255.655 474.555 255.881 474.481 256.083C474.407 256.285 474.201 256.406 473.989 256.373V256.373Z" fill="white"/>
<path d="M438.98 190.202C438.793 190.173 438.645 190.031 438.608 189.846C436.729 180.574 425.053 174.598 424.935 174.539C424.791 174.466 424.697 174.322 424.688 174.162C424.678 174.001 424.756 173.847 424.89 173.759C425.025 173.671 425.196 173.661 425.34 173.733C425.837 173.983 437.524 179.963 439.491 189.667C439.52 189.811 439.477 189.961 439.375 190.068C439.273 190.174 439.125 190.224 438.98 190.202Z" fill="white"/>
<path d="M417.811 198.062C418.521 197.477 419.433 197.078 421.901 197.618C424.368 198.157 427.776 201.086 426.852 201.56C425.928 202.034 423.755 199.608 421.687 199.981C419.618 200.354 418.404 200.737 417.803 200.264C417.045 199.669 417.47 198.344 417.811 198.062Z" fill="#161B36"/>
<path d="M407.124 195.685C406.404 195.114 405.483 194.733 403.027 195.32C400.571 195.907 397.219 198.9 398.153 199.357C399.086 199.813 401.212 197.345 403.287 197.679C405.362 198.012 406.583 198.371 407.175 197.887C407.921 197.277 407.471 195.96 407.124 195.685Z" fill="#161B36"/>
<g style="mix-blend-mode:overlay" opacity="0.6">
<path d="M406.653 226.938C405.646 226.797 404.694 226.389 403.898 225.755C403.324 225.323 402.971 224.659 402.936 223.941C402.932 222.599 404.507 220.216 406.121 217.89C406.382 217.514 406.596 217.207 406.723 217.006C408.868 213.626 409.226 206.614 409.23 206.543C409.237 206.382 409.33 206.238 409.473 206.164C409.617 206.09 409.788 206.099 409.923 206.186C410.059 206.273 410.137 206.425 410.13 206.586C410.115 206.883 409.755 213.91 407.484 217.489C407.352 217.697 407.132 218.015 406.861 218.404C405.878 219.821 403.833 222.767 403.837 223.939C403.883 224.39 404.117 224.801 404.483 225.069C405.565 225.892 406.931 226.248 408.277 226.061C408.436 226.036 408.596 226.098 408.698 226.223C408.799 226.348 408.825 226.518 408.768 226.668C408.71 226.818 408.576 226.926 408.417 226.951C407.832 227.038 407.237 227.033 406.653 226.938Z" fill="#030F1C"/>
</g>
<path d="M403.573 235.426C403.538 235.146 403.616 234.864 403.79 234.642C403.964 234.419 404.219 234.276 404.499 234.243C405.895 234.065 408.471 233.721 410.446 233.375C412.522 232.905 414.565 232.297 416.56 231.556C416.907 231.432 417.294 231.496 417.582 231.724C417.871 231.953 418.022 232.314 417.981 232.681C417.672 235.495 416.485 240.899 411.917 241.326C406.362 241.846 404.016 238.518 403.573 235.426Z" fill="#161B36"/>
<path d="M405.352 239.272C405.352 239.272 410.952 233.567 417.292 236.059C417.292 236.059 416.52 241.076 412.109 241.546C407.359 242.052 405.352 239.272 405.352 239.272Z" fill="#F76161"/>
<path d="M422.563 207.706C421.739 207.383 420.885 207.142 420.014 206.988C419.076 206.841 418.12 207.973 417.88 209.515C417.639 211.058 418.204 212.426 419.142 212.573C420.08 212.719 421.036 211.587 421.276 210.045C421.394 209.37 421.333 208.676 421.099 208.032C421.778 208.16 422.439 208.369 423.068 208.653C423.676 208.937 423.833 208.219 422.563 207.706Z" fill="#161B36"/>
<path d="M405.412 206.219C404.65 205.92 403.863 205.692 403.06 205.537C403.05 205.535 403.041 205.528 403.03 205.527C403.023 205.525 403.016 205.528 403.008 205.527C402.922 205.511 402.862 205.5 402.862 205.5L402.849 205.528C401.973 205.542 401.121 206.611 400.896 208.054C400.656 209.597 401.221 210.965 402.159 211.112C403.097 211.258 404.052 210.126 404.293 208.584C404.41 207.912 404.35 207.221 404.118 206.579C404.737 206.709 405.34 206.906 405.916 207.166C406.524 207.45 406.681 206.732 405.412 206.219Z" fill="#161B36"/>
<path d="M453.603 213.91C451.57 212.849 449.193 214.475 447.28 216.434L447.275 216.439C445.951 217.832 444.766 219.352 443.738 220.976C443.654 221.113 443.649 221.285 443.725 221.427C443.802 221.568 443.948 221.658 444.109 221.663C444.27 221.668 444.421 221.586 444.505 221.449C445.466 219.922 446.573 218.491 447.811 217.178C448.756 217.162 449.675 217.483 450.405 218.083C451.109 218.801 451.477 219.784 451.418 220.788C451.42 221.008 451.581 221.194 451.799 221.229C451.823 221.233 451.848 221.235 451.872 221.234C451.992 221.233 452.106 221.185 452.19 221.099C452.274 221.014 452.32 220.899 452.319 220.78C452.382 219.523 451.905 218.298 451.009 217.415C450.35 216.837 449.535 216.466 448.666 216.349C450.216 214.941 451.877 214.023 453.185 214.709C453.328 214.785 453.5 214.778 453.636 214.691C453.773 214.605 453.853 214.452 453.846 214.291C453.839 214.13 453.746 213.985 453.603 213.91L453.603 213.91Z" fill="#0B122D"/>
<path d="M414.094 251.893C413.883 251.86 413.725 251.685 413.713 251.472C413.701 251.26 413.84 251.068 414.046 251.013C414.206 250.969 430.165 246.623 437.721 239.537C437.838 239.427 438.006 239.387 438.16 239.434C438.314 239.48 438.432 239.606 438.469 239.763C438.505 239.92 438.455 240.085 438.337 240.194C430.616 247.436 414.943 251.705 414.28 251.883C414.219 251.899 414.156 251.903 414.094 251.893V251.893Z" fill="#0B122D"/>
<path d="M386.082 271.101C386.082 271.101 380.523 271.337 378.369 278.773C371.111 303.832 362.013 322.792 360.125 330.506C357.575 340.926 359.778 346.193 361.663 354.555C363.556 362.952 358.104 409.787 349.587 436.93C348.951 438.903 349.419 441.066 350.815 442.599C364.282 457.061 426.555 462.367 443.166 454.594C444.904 453.752 445.947 451.931 445.796 450.007C444.94 437.386 447.294 381.05 456.974 354.845C466.097 330.15 472.82 282.219 469.887 280.581C464.67 277.666 453.839 272.983 453.839 272.983C453.839 272.983 440.62 288.056 416.436 285.808C398.886 284.177 402.388 268.231 402.388 268.231L386.082 271.101Z" fill="url(#paint2_linear_3379_267687)"/>
<path fill-rule="evenodd" clip-rule="evenodd" d="M337.257 256.232C341.337 257.11 407.761 267.519 407.789 267.524C406.43 268.67 405.002 269.734 403.514 270.708C400.638 282.393 389.64 327.398 387.594 340.512C387.138 343.439 386.423 353.39 385.471 366.632C383.578 392.974 380.748 432.339 377.158 455.334C363.319 452.93 349.861 445.354 344.81 439.931C343.415 438.398 342.946 436.235 343.582 434.262C345.221 429.04 347.05 423.597 348.906 418.073C356.697 394.885 364.969 370.267 361.664 354.555C361.352 353.075 361.024 351.693 360.707 350.363C359.231 344.156 358.025 339.088 360.126 330.506C362.601 319.548 365.741 308.751 369.528 298.173C368.209 297.775 366.872 297.366 365.501 296.934C350.426 292.224 344.665 290.147 330.393 283.382C328.593 282.521 326.898 281.778 325.233 281.048C322.384 279.798 319.618 278.585 316.545 276.879C314.675 275.877 311.875 273.526 310.272 272.136C302.93 265.56 305.408 258.567 308.543 249.722C309.736 246.356 311.024 242.721 311.902 238.739C312.542 236.514 313.618 232.336 314.925 227.258C318.916 211.754 325.064 187.869 327.549 185.615C330.805 195.899 342.219 198.905 342.219 198.905L336.021 252.773C335.556 253.359 335.427 254.142 335.678 254.846C335.93 255.55 336.527 256.074 337.257 256.232ZM500.423 363.771C496.735 347.724 494.18 335.062 492.142 324.964C485.851 293.786 484.493 287.057 469.962 280.645C469.947 280.629 469.932 280.615 469.915 280.602C469.906 280.595 469.896 280.587 469.886 280.58C464.669 277.666 450.219 271.379 450.219 271.379C450.219 271.379 432.257 294.901 421.461 336.67C420.271 343.442 417.554 361.51 414.493 381.861L414.493 381.862L414.493 381.862C410 411.741 404.766 446.541 402.541 457.737C409.252 457.73 415.866 458.122 422.051 458.489L422.052 458.489C436.184 459.328 448.078 460.034 453.773 455.535C456.771 453.167 456.217 450.383 455.694 447.757C455.599 447.281 455.505 446.81 455.433 446.348C452.946 429.068 451.697 411.632 451.698 394.174C464.987 393.907 477.219 393.471 481.564 393.283C500.706 392.444 504.173 380.093 500.423 363.771ZM469.843 367.576C466.065 368.351 458.829 369.825 453.214 370.908C453.898 365.436 455.158 360.052 456.973 354.845C459.437 347.892 461.49 340.8 463.121 333.605C466.462 345.428 470.198 359.038 471.705 364.546C471.883 365.196 471.784 365.89 471.431 366.465C471.078 367.039 470.503 367.441 469.843 367.576Z" fill="url(#paint3_linear_3379_267687)"/>
<g style="mix-blend-mode:overlay" opacity="0.6">
<path d="M369.526 298.173C371.162 293.623 373.069 288.68 375.309 283.349C369.37 284.358 361.109 285.612 356.032 285.739C347.41 285.956 341.762 278.56 331.188 276.987C325.711 276.173 321.424 279.702 321.424 279.702C335.697 286.466 350.424 292.224 365.5 296.934C366.87 297.366 368.207 297.775 369.526 298.173Z" fill="#030F1C"/>
</g>
<path d="M327.833 256.174C325.888 255.881 324.032 255.159 322.4 254.06C322.236 253.948 322.193 253.725 322.304 253.56C322.416 253.396 322.639 253.352 322.804 253.463C327.857 256.88 333.676 255.2 333.735 255.183C333.859 255.146 333.993 255.178 334.087 255.266C334.181 255.355 334.22 255.487 334.19 255.612C334.161 255.738 334.066 255.838 333.943 255.875C331.948 256.393 329.869 256.494 327.833 256.174V256.174Z" fill="#0B122D"/>
<g style="mix-blend-mode:overlay" opacity="0.6">
<path d="M318.874 228.873C317.13 233.155 315.864 263.612 318.94 271.075C321.282 276.758 325.281 274.058 325.09 279.844C321.602 279.102 315.458 277.172 311.906 273.705C300.584 262.615 305.729 261.729 316.548 220.461C317.6 221.148 320.093 225.883 318.874 228.873Z" fill="white"/>
</g>
<g style="mix-blend-mode:overlay" opacity="0.6">
<path d="M360.111 348.044C360.111 348.044 366.578 356.188 374.33 357.546C379.624 358.473 380.306 361.527 374.646 361.85C372.019 362 367.367 360.823 362.365 359.904C361.954 355.894 361.199 351.926 360.111 348.044Z" fill="#030F1C"/>
</g>
<g style="mix-blend-mode:overlay" opacity="0.6">
<path d="M451.756 394.172C448.066 394.247 444.298 394.307 440.589 394.347C440.498 397.399 440.212 400.442 439.735 403.458C434.743 434.283 408.546 448.464 402.542 457.736C423.097 457.255 443.981 462.863 453.773 455.535C453.773 455.535 457.44 453.892 455.434 446.347C454.703 443.598 451.682 419.547 451.756 394.172Z" fill="url(#paint4_linear_3379_267687)"/>
</g>
<g style="mix-blend-mode:overlay" opacity="0.6">
<path d="M431.951 372.142C433.164 372.301 434.31 372.79 435.264 373.556C439.774 373.06 444.297 372.503 447.481 371.966C448.811 371.742 450.709 371.389 452.86 370.976C453.006 369.545 453.169 368.131 453.348 366.735C454.509 357.779 460.208 348.074 463.169 333.774C461.348 327.331 459.642 321.406 458.47 317.589C457.909 317.755 457.365 317.973 456.845 318.242C456.845 318.242 455.867 341.284 449.916 353.743C445.862 362.231 434.558 365.121 427.195 365.233C415.947 365.405 416.686 370.131 431.951 372.142Z" fill="url(#paint5_linear_3379_267687)"/>
</g>
<g style="mix-blend-mode:overlay" opacity="0.6">
<path d="M360.128 348.285C360.128 348.285 366.595 356.429 374.347 357.787C379.642 358.714 380.323 361.768 374.664 362.091C372.037 362.241 367.384 361.065 362.383 360.146C361.971 356.135 361.217 352.167 360.128 348.285L360.128 348.285Z" fill="#030F1C"/>
</g>
<path d="M414.182 406.491L391.888 350.305L385.792 334.936C385.308 333.714 384.212 332.839 382.913 332.637L333.776 324.972C332.295 324.912 330.873 325.549 329.932 326.694C329.734 326.897 329.549 327.111 329.378 327.337C329.113 327.674 328.883 328.038 328.693 328.422C328.691 328.43 328.683 328.429 328.681 328.438C328.136 329.33 327.999 330.413 328.306 331.412L328.27 331.3C328.283 331.366 328.3 331.431 328.32 331.494L328.341 331.533C328.348 331.543 328.347 331.552 328.354 331.562C328.368 331.619 328.386 331.675 328.408 331.73L348.269 381.791L351.871 390.856L356.798 403.285C357.282 404.507 358.378 405.382 359.677 405.584L408.814 413.249C408.995 413.276 409.177 413.29 409.36 413.29C412.2 413.724 415.242 409.164 414.182 406.491Z" fill="url(#paint6_linear_3379_267687)"/>
<g style="mix-blend-mode:overlay" opacity="0.6">
<path d="M328.158 330.724C328.146 330.593 328.141 330.462 328.144 330.33C328.14 330.462 328.145 330.593 328.158 330.724V330.724Z" fill="#030F1C"/>
<path d="M328.266 331.298C328.285 331.361 328.295 331.428 328.32 331.49L328.352 331.566C328.321 331.476 328.29 331.387 328.266 331.298Z" fill="#030F1C"/>
<path d="M328.239 331.199C328.202 331.044 328.174 330.887 328.157 330.728C328.171 330.887 328.198 331.045 328.239 331.199V331.199Z" fill="#030F1C"/>
<path d="M409.359 413.289C410.593 413.299 411.752 412.695 412.45 411.676C413.148 410.657 413.293 409.358 412.837 408.211L390.108 350.934L384.446 336.656C383.962 335.434 382.867 334.559 381.567 334.357L332.43 326.692C330.948 326.453 329.469 327.137 328.692 328.421C328.882 328.037 329.112 327.673 329.377 327.336C329.546 327.109 329.732 326.894 329.931 326.693C330.872 325.549 332.295 324.912 333.775 324.971L382.912 332.637C384.212 332.838 385.307 333.713 385.791 334.936L391.888 350.305L414.182 406.49C415.241 409.164 412.199 413.723 409.359 413.289Z" fill="#030F1C"/>
</g>
<g style="mix-blend-mode:overlay" opacity="0.6">
<path d="M331.455 329.997L334.856 330.527C335.078 330.562 335.265 330.712 335.347 330.921L335.956 332.472C336.039 332.683 336.003 332.922 335.861 333.099C335.719 333.275 335.494 333.363 335.271 333.328L331.87 332.797C331.648 332.763 331.461 332.613 331.379 332.404L330.77 330.852C330.687 330.642 330.723 330.403 330.865 330.226C331.007 330.049 331.232 329.962 331.455 329.997V329.997Z" fill="#030F1C"/>
</g>
<g style="mix-blend-mode:overlay" opacity="0.6">
<path d="M361.329 358.601L365.79 359.297C367.095 359.554 368.227 360.358 368.9 361.505V361.505C370.463 364.068 369.131 366.776 366.509 366.367L362.048 365.671C360.743 365.414 359.611 364.609 358.938 363.462V363.462C357.375 360.899 358.707 358.192 361.329 358.601Z" fill="#030F1C"/>
</g>
<path fill-rule="evenodd" clip-rule="evenodd" d="M450.22 271.379C450.22 271.379 440.571 284.031 431.166 307.228C418.775 308.428 403.341 307.303 395.488 304.031C399.803 285.663 404.204 267.911 404.204 267.911L410.302 266.605L447.001 269.525L450.22 271.379ZM411.449 377.071L411.448 377.009C411.604 377.015 414.751 376.726 419.255 376.301C420.57 381.408 420.475 386.776 418.98 391.833L414.428 391.991C414.413 392.011 414.401 392.034 414.386 392.054C411.552 392.217 408.293 392.61 406.188 393.52C402.786 394.991 394.926 394.532 392.222 393.543C387.52 393.441 381.018 393.22 379.867 392.769C378.03 392.049 378.79 390.314 379.899 389.799C380.376 389.578 378.496 388.918 376.954 388.377C376.446 388.2 375.976 388.035 375.637 387.902C373.582 387.099 374.432 385.158 375.671 384.583C376.472 384.211 373.941 383.203 372.351 382.581C370.296 381.778 371.145 379.837 372.385 379.262C372.661 379.134 373.188 378.985 373.759 378.823C375.138 378.433 376.77 377.972 375.716 377.56C373.663 376.756 374.512 374.815 375.751 374.24C376.718 373.791 385.886 374.152 389.865 374.332C390.157 374.337 390.46 374.344 390.766 374.352C392.541 374.396 394.425 374.443 394.877 373.963C395.3 373.515 394.565 372.107 393.611 370.279C393.173 369.441 392.689 368.514 392.25 367.551C390.852 364.49 393.962 360.987 394.777 361.383C395.148 361.563 396.389 363.758 397.799 366.251C399.484 369.23 401.41 372.635 402.378 373.533C403.652 374.717 405.436 375.44 406.842 376.01C407.394 376.234 407.889 376.434 408.27 376.629C409.303 376.928 410.374 377.077 411.449 377.071Z" fill="#F2AC7D"/>
<path d="M431.743 394.683C431.551 394.659 431.411 394.489 431.423 394.296C431.435 394.103 431.595 393.953 431.789 393.953L455.979 393.962C456.111 393.962 456.232 394.031 456.298 394.145C456.364 394.258 456.364 394.398 456.298 394.512C456.232 394.625 456.111 394.695 455.979 394.694L431.789 394.685C431.773 394.685 431.758 394.685 431.743 394.683V394.683Z" fill="#0B122D"/>
<g style="mix-blend-mode:overlay" opacity="0.6">
<path d="M477.257 372.289C468.338 374.338 442.344 381.25 439.525 373.076C452.737 371.497 469.844 367.576 469.844 367.576C470.487 367.474 471.054 367.101 471.404 366.552C471.753 366.004 471.851 365.332 471.673 364.706C470.399 360.58 468.488 352.192 464.709 339.471C466.731 339.008 470.572 340.379 471.458 342.874C472.482 345.777 477.507 361.195 479.682 367.436C480.171 368.837 479.616 371.748 477.257 372.289Z" fill="white"/>
</g>
<path d="M478.354 374.433C478.177 374.406 478.046 374.254 478.044 374.075C478.042 373.832 477.907 368.093 471.324 366.872C471.195 366.848 471.089 366.758 471.045 366.634C471.002 366.511 471.027 366.374 471.112 366.274C471.197 366.175 471.329 366.128 471.457 366.152C475.482 366.691 478.555 370.015 478.777 374.069C478.778 374.271 478.616 374.436 478.414 374.438C478.394 374.438 478.374 374.436 478.354 374.433Z" fill="#0B122D"/>
<path d="M464.735 333.622C464.662 333.611 464.593 333.577 464.539 333.526C455.314 324.728 457.72 309.086 457.746 308.929C457.778 308.73 457.965 308.595 458.164 308.626L458.166 308.626C458.262 308.642 458.347 308.695 458.404 308.773C458.461 308.852 458.484 308.95 458.469 309.046C458.444 309.199 456.101 324.467 465.045 332.996C465.161 333.106 465.191 333.279 465.12 333.423C465.049 333.566 464.893 333.647 464.735 333.622L464.735 333.622Z" fill="#0B122D"/>
<path d="M389.87 378.812C389.875 378.725 389.846 378.64 389.788 378.575C389.73 378.51 389.649 378.471 389.562 378.466L375.165 377.624C374.989 377.613 374.836 377.746 374.82 377.922C374.804 378.098 374.932 378.255 375.108 378.276L375.127 378.278L389.524 379.12C389.61 379.125 389.696 379.095 389.76 379.037C389.825 378.98 389.865 378.899 389.87 378.812V378.812Z" fill="#0B122D"/>
<path d="M389.821 384.913C389.825 384.733 389.684 384.583 389.504 384.576L374.812 384.153C374.637 384.148 374.489 384.282 374.476 384.457C374.463 384.631 374.59 384.785 374.764 384.806L374.793 384.808L389.485 385.231C389.571 385.233 389.656 385.201 389.719 385.142C389.782 385.082 389.819 385 389.821 384.913Z" fill="#0B122D"/>
<path d="M391.347 390.002L379.046 389.37C378.87 389.36 378.718 389.493 378.703 389.669C378.688 389.845 378.816 390.001 378.991 390.022L379.013 390.024L391.313 390.657C391.494 390.666 391.648 390.527 391.657 390.346C391.664 390.167 391.526 390.014 391.347 390.002V390.002Z" fill="#0B122D"/>
<path d="M130.763 205.551C127.398 191.734 143.756 192.417 146.568 192.649C149.38 192.881 150.602 171.494 150.602 171.494C150.602 171.494 181.185 161.296 188.73 165.878C188.73 165.878 196.787 191.424 199.925 208.082C203.062 224.74 199.451 232.938 193.381 234.416C191.436 234.776 189.442 234.795 187.49 234.474L194.863 264.751L153.521 254.692L149.334 217.826C149.122 217.762 149.001 217.731 149.001 217.731C149.001 217.731 133.94 218.601 130.763 205.551Z" fill="url(#paint7_linear_3379_267687)"/>
<path fill-rule="evenodd" clip-rule="evenodd" d="M132.458 215.81C134.411 219.043 136.238 222.066 137.74 225.362C141.347 233.276 138.618 241.615 138.618 241.615C138.895 241.609 139.172 241.604 139.45 241.599C144.66 241.505 149.92 241.41 151.495 236.851C153.087 232.24 149.281 217.47 149.281 217.47C149.281 217.47 138.123 214.495 133.962 208.697C129.802 202.898 132.886 195.392 139.5 194.645C145.789 193.935 152.009 201.725 152.015 201.732C155.029 207.615 157.098 215.192 158.083 219.286C158.548 221.226 159.774 222.898 161.486 223.926C168.068 227.88 184.838 237.141 193.381 234.416C204.158 230.979 200.638 212.591 200.638 212.591C187.464 201.848 177.668 208.853 172.445 212.588C170.996 213.624 169.899 214.408 169.179 214.492C164.144 215.08 158.648 200.957 156.024 193.21C153.573 184.92 154.733 173.984 160.173 169.995C165.464 166.114 175.918 168.905 178.46 170.878C189.559 161.162 193.688 184.048 193.688 184.048C193.688 184.048 198.601 178.12 198.665 172.109C198.708 167.961 197.208 165.373 194.181 160.151C192.822 157.805 191.155 154.929 189.181 151.141C180.517 134.513 161.413 147.281 161.413 147.281C125.831 146.035 115.456 169.906 120.466 188.811C123.843 201.552 128.421 209.129 132.458 215.81ZM194.075 217.236C192.526 221.119 186.816 223.758 183.805 223.141C178.431 222.041 175.506 213.789 177.166 211.138C178.438 209.105 180.906 209.55 183.506 210.019C183.938 210.097 184.373 210.175 184.807 210.243C186.151 210.453 187.482 210.52 188.708 210.58C190.264 210.658 191.65 210.727 192.676 211.071C194.176 211.575 195.624 213.352 194.075 217.236Z" fill="url(#paint8_linear_3379_267687)"/>
<g style="mix-blend-mode:overlay" opacity="0.6">
<path d="M187.45 234.436C187.45 234.436 173.542 231.676 168.478 228.437C168.478 228.437 172.182 239.593 182.381 245.583C192.581 251.574 190.103 245.329 190.103 245.329L187.45 234.436Z" fill="#030F1C"/>
</g>
<path d="M139.613 200.268C143.423 197.848 149.488 205.945 149.744 206.291C149.891 206.489 149.849 206.768 149.651 206.914C149.453 207.061 149.173 207.019 149.027 206.821C147.975 205.425 146.791 204.135 145.489 202.968C144.575 203.029 143.713 203.413 143.057 204.052C142.435 204.802 142.16 205.779 142.298 206.742C142.315 206.959 142.171 207.156 141.959 207.208C141.936 207.214 141.911 207.218 141.887 207.22C141.769 207.229 141.652 207.19 141.563 207.113C141.473 207.036 141.418 206.927 141.409 206.809C141.245 205.597 141.608 204.373 142.405 203.444C142.995 202.834 143.75 202.409 144.578 202.222C142.972 200.996 141.298 200.251 140.091 201.02C139.883 201.151 139.608 201.09 139.476 200.883C139.344 200.675 139.405 200.401 139.613 200.268L139.613 200.268Z" fill="#0B122D"/>
<ellipse rx="1.66932" ry="2.74045" transform="matrix(-0.971612 0.236582 0.236582 0.971612 174.976 190.253)" fill="#161B36"/>
<ellipse rx="1.66932" ry="2.74046" transform="matrix(-0.971612 0.236582 0.236582 0.971612 191.293 187.452)" fill="#161B36"/>
<path d="M175.735 178.786C175 178.279 174.085 177.968 171.741 178.691C169.397 179.414 166.336 182.523 167.269 182.906C168.202 183.288 170.108 180.766 172.14 180.957C174.172 181.149 175.378 181.419 175.922 180.913C176.607 180.276 176.088 179.03 175.735 178.786Z" fill="#161B36"/>
<path d="M185.882 175.615C186.534 175.004 187.393 174.56 189.818 174.927C192.243 175.293 195.73 177.911 194.863 178.428C193.997 178.946 191.74 176.735 189.758 177.227C187.777 177.719 186.625 178.166 186.012 177.747C185.24 177.219 185.569 175.909 185.882 175.615Z" fill="#161B36"/>
<g style="mix-blend-mode:overlay" opacity="0.6">
<path d="M189.492 205.743C190.336 205.57 191.119 205.176 191.76 204.601C192.178 204.213 192.4 203.659 192.364 203.09C192.27 201.918 190.689 200.453 188.789 198.799C188.313 198.41 187.862 197.99 187.438 197.544C187.001 196.999 185.718 191.374 184.731 186.252L183.855 186.42C184.197 188.197 185.946 197.11 186.742 198.102C187.195 198.592 187.683 199.05 188.202 199.471C189.399 200.513 191.402 202.257 191.475 203.163C191.489 203.472 191.361 203.771 191.126 203.974C190.011 204.811 188.621 205.195 187.234 205.051L187.17 205.939C187.949 205.993 188.732 205.927 189.492 205.743V205.743Z" fill="#030F1C"/>
</g>
<path d="M192.547 213.724C192.558 213.45 192.459 213.184 192.273 212.983C192.087 212.783 191.828 212.665 191.554 212.656C190.188 212.598 187.668 212.477 185.728 212.304C183.681 212.02 181.655 211.6 179.664 211.047C179.318 210.955 178.949 211.048 178.688 211.293C178.427 211.538 178.311 211.899 178.38 212.25C178.907 214.943 180.495 220.068 184.95 220.107C190.368 220.154 192.369 216.747 192.547 213.724Z" fill="#161B36"/>
<path d="M191.136 217.586C191.136 217.586 185.253 212.531 179.32 215.458C179.32 215.458 180.475 220.243 184.782 220.336C189.419 220.436 191.136 217.586 191.136 217.586Z" fill="#E55151"/>
<path d="M187.596 234.908C187.801 234.859 187.943 234.673 187.937 234.462C187.931 234.252 187.778 234.074 187.571 234.037C187.412 234.009 171.616 231.115 163.731 224.888C163.606 224.789 163.437 224.764 163.289 224.823C163.14 224.881 163.035 225.015 163.012 225.173C162.988 225.33 163.052 225.488 163.177 225.587C171.239 231.953 186.755 234.796 187.412 234.914C187.473 234.925 187.536 234.923 187.596 234.908Z" fill="#0B122D"/>
<path d="M34.096 180.715C33.6336 179.02 36.0482 175.919 37.7461 175.456L62.5558 168.807C64.2537 168.344 67.6742 171.022 68.1366 172.717L69.9249 178.995C70.2482 180.188 69.8488 181.46 68.9012 182.256C73.1066 192.665 81.0195 212.192 83.6831 218C87.2043 225.678 99.6544 240.957 118.109 253.457C139.176 266.1 152.042 259.763 152.042 259.763L185.033 265.875L198.353 250.926C206.189 249.626 213.593 246.449 219.934 241.668C231.961 231.008 242.42 215.951 253.063 192.578C253.92 190.701 254.439 188.687 254.595 186.631C255.44 175.36 258.535 152.672 258.682 144.828C258.726 142.492 258.77 140.171 258.813 137.866C257.963 137.34 257.411 136.443 257.325 135.448L256.849 128.937C256.701 127.186 258.994 123.495 260.748 123.347L286.33 121.063C288.083 120.914 291.416 122.996 291.563 124.747L292.216 132.485C292.306 133.541 291.863 134.572 291.035 135.235C291.484 146.068 291.66 156.406 291.505 167.067C291.447 171.015 291.339 174.871 291.181 178.635C290.696 190.453 289.742 201.359 288.572 211.263C284.962 227.446 276.456 245.325 267.912 260.481C261.317 272.135 254.106 283.431 246.31 294.322C245.43 295.536 244.945 296.186 244.945 296.186C244.92 296.183 244.895 296.178 244.87 296.175C249.37 323.314 253.647 350.563 255.795 359.721C258.964 373.232 264.131 388.498 268.784 405.956C270.987 414.223 282.858 428.635 277.707 435.495C261.083 457.635 155.257 465.311 155.257 465.311C152.993 455.307 151.869 445.079 151.906 434.822C152.279 415.039 149.313 405.774 146.072 394.976C143.936 387.855 132.951 349.125 125.177 321.834C115.102 313.358 64.8154 270.315 53.9316 246.573C48.1751 234.016 40.3274 203.066 37.0858 189.731C36.6294 189.325 36.3007 188.796 36.1395 188.207L34.096 180.715Z" fill="url(#paint9_linear_3379_267687)"/>
<path d="M124.479 321.631C124.568 321.61 124.647 321.562 124.708 321.494C135.014 309.881 130.498 291.165 130.451 290.977C130.391 290.74 130.151 290.595 129.913 290.652L129.91 290.653C129.671 290.713 129.526 290.955 129.585 291.193C129.631 291.377 134.031 309.645 124.04 320.903C123.91 321.049 123.891 321.262 123.991 321.429C124.092 321.595 124.29 321.677 124.479 321.631V321.631Z" fill="#0B122D"/>
<path d="M262.163 422.664C262.239 422.645 262.309 422.607 262.366 422.553C268.869 416.355 269.22 406.39 269.231 405.968C269.236 405.809 269.155 405.66 269.019 405.577C268.883 405.493 268.713 405.489 268.573 405.565C268.433 405.64 268.343 405.785 268.339 405.944C268.336 406.044 267.983 415.968 261.75 421.909C261.604 422.048 261.57 422.268 261.666 422.445C261.763 422.621 261.967 422.711 262.163 422.664Z" fill="#0B122D"/>
<g style="mix-blend-mode:overlay" opacity="0.4">
<path d="M174.546 271.2C174.546 271.2 146.396 273.085 134.707 260.398C144.804 262.648 152.043 259.763 152.043 259.763L174.546 271.2Z" fill="#030F1C"/>
</g>
<g style="mix-blend-mode:overlay" opacity="0.6">
<path d="M260.768 138.348L289.31 135.925C291.024 135.779 273.538 131.179 266.003 135.276C261.125 137.928 259.392 133.529 259.652 130.971C260.017 127.383 265.278 122.943 265.278 122.943C265.275 122.903 261.065 123.359 261.063 123.32L260.749 123.347C258.995 123.496 256.702 127.186 256.85 128.937L257.326 135.448C257.397 136.289 257.799 137.067 258.445 137.611C259.091 138.155 259.926 138.42 260.768 138.348V138.348Z" fill="#030F1C"/>
</g>
<g style="mix-blend-mode:overlay" opacity="0.6">
<path d="M67.6889 182.903L40.052 190.438C38.3922 190.89 53.2353 180.559 61.7176 181.816C67.2094 182.63 67.3271 177.903 66.2047 175.59C64.6306 172.347 58.1643 169.985 58.1643 169.985C58.154 169.947 62.2643 168.928 62.2526 168.891L62.5571 168.808C64.255 168.345 67.6756 171.022 68.1379 172.717L69.9261 178.996C70.1481 179.81 70.0372 180.678 69.6176 181.411C69.198 182.144 68.5043 182.68 67.6889 182.903V182.903Z" fill="#030F1C"/>
</g>
<g style="mix-blend-mode:overlay" opacity="0.6">
<path d="M151.399 429.055C150.744 450.152 154.743 465.438 154.743 465.438C154.743 465.438 211.483 461.379 240.659 452.559C223.369 448.728 201.219 451.336 188.14 442.871C172.736 432.902 160.319 413.51 154.89 378.958C145.438 318.811 125.01 309.808 117.291 305.693L88.1245 288.236C88.1245 288.236 108.391 307.351 124.373 321.199C130.691 344.127 137.269 367.523 143.65 388.563C149.016 406.258 151.755 417.586 151.399 429.055Z" fill="url(#paint10_linear_3379_267687)"/>
</g>
<g style="mix-blend-mode:overlay" opacity="0.4">
<path d="M248.272 367.859C251.166 378.063 257.05 378.184 260.852 380.257C258.725 373.027 256.778 366.239 255.276 359.846C252.851 349.47 249.714 320.443 246.311 294.322C254.107 283.431 261.318 272.135 267.913 260.481C276.457 245.325 284.963 227.446 288.573 211.263C289.743 201.359 290.698 190.453 291.182 178.635C288.302 179.52 283.102 181.71 281.455 189.998C279.678 198.937 278.922 213.204 272.637 226.248C263.924 244.33 243.813 275.954 240.937 279.388C231.961 290.108 238.39 311.255 239.887 320.585C243.198 341.223 244.605 354.929 248.272 367.859Z" fill="url(#paint11_linear_3379_267687)"/>
</g>
<path d="M247.972 316.299C248.186 316.247 248.329 316.046 248.309 315.826C246.533 295.958 241.786 282.428 241.738 282.294C241.65 282.068 241.401 281.95 241.169 282.023C241.058 282.063 240.966 282.145 240.915 282.252C240.865 282.358 240.858 282.481 240.898 282.592C240.945 282.726 245.655 296.158 247.421 315.907C247.443 316.152 247.66 316.332 247.905 316.31C247.928 316.308 247.95 316.304 247.972 316.299Z" fill="#0B122D"/>
<path fill-rule="evenodd" clip-rule="evenodd" d="M178.743 258.258C159.661 251.937 152.398 244.025 152.398 244.025L152.043 259.764L174.546 271.2C174.825 268.968 175.294 266.763 175.947 264.61L185.035 265.875L185.035 265.875L185.035 265.875L185.035 265.875L185.035 265.875L189.059 261.359L195.358 266.482L198.355 250.927L190.189 244.987C190.189 244.987 191.281 251.198 184.701 256.362L185.035 265.875L178.743 258.258Z" fill="url(#paint12_linear_3379_267687)"/>
<g style="mix-blend-mode:overlay" opacity="0.6">
<path d="M178.742 258.258L185.035 265.875L175.946 264.61C176.535 262.358 177.479 260.214 178.742 258.258V258.258Z" fill="#030F1C"/>
</g>
<g style="mix-blend-mode:overlay" opacity="0.6">
<path d="M184.7 256.362L185.034 265.875L189.058 261.359L184.7 256.362V256.362Z" fill="#030F1C"/>
</g>
<path fill-rule="evenodd" clip-rule="evenodd" d="M9.03317 95.5416C11.3426 92.1634 15.0444 94.9979 15.0444 94.9979C15.0444 94.9979 12.3469 87.3989 15.0492 85.4634C17.4722 83.7289 22.6379 89.3884 22.6379 89.3884C22.6379 89.3884 20.3233 81.7199 24.0271 82.1156C28.5822 82.597 30.8507 85.6062 31.1201 86.4045C30.9661 83.5702 30.7082 80.5358 30.458 77.5918L30.458 77.5914C29.5854 67.3234 28.8064 58.1571 32.8557 62.4327C38.0084 67.8681 40.0076 91.1008 40.0076 91.1008C42.2621 90.9259 44.4576 91.8702 45.878 93.6258C48.0914 96.5633 46.8704 105.396 46.8704 105.396C46.4829 112.386 45.9224 124.201 45.9224 124.201C46.2798 126.246 46.7603 128.267 47.3611 130.253L59.404 169.652L38.0937 175.363L28.1352 138.475C27.2146 135.452 26.5343 132.785 26.5343 132.785C18.1644 127.051 13.6588 113.942 12.3756 110.208L12.3753 110.207C12.2154 109.742 12.1056 109.423 12.0446 109.281L12.0385 109.276C9.18876 102.696 8.00916 97.0451 9.03317 95.5416ZM258.095 65.9053L258.095 65.9052C257.531 63.6802 256.952 61.3979 256.173 59.1902C256.173 59.1902 252.528 51.0536 253.831 47.6128C254.703 45.529 256.546 44.0065 258.759 43.5418C258.759 43.5418 254.174 20.6792 257.599 14.0158C260.289 8.77537 262.107 17.7929 264.144 27.8943L264.144 27.8943C264.728 30.7906 265.33 33.7759 265.976 36.5398C266.011 35.6981 266.637 32.6202 270.875 30.88C274.319 29.4609 274.953 37.0242 274.953 37.0242C274.953 37.0242 277.339 30.1649 281.139 31.1271C284.361 31.943 283.813 40.2781 283.813 40.2781C283.813 40.2781 286.572 36.5187 289.735 39.1134C291.139 40.2694 291.589 46.0245 290.695 53.1402L290.691 53.1477C290.519 54.5249 290.297 55.9527 290.019 57.405L290.015 57.4065C289.753 58.7793 289.528 60.1201 289.308 61.4281L289.308 61.4283C288.219 67.9068 287.265 73.5817 282.756 78.3578C282.756 78.3578 282.884 81.2164 282.971 84.7886L286.104 121.083L262.384 123.201L263.117 80.2943C263.074 79.3428 262.952 78.3965 262.752 77.4653C260.282 74.5329 259.217 70.3327 258.095 65.9053ZM184.838 260.322L185.033 265.875L180.942 260.935L184.838 260.322Z" fill="url(#paint13_linear_3379_267687)"/>
<path d="M266.99 55.8142C267.959 55.5976 268.867 55.1622 269.642 54.5414C270.621 53.8427 271.195 52.7094 271.178 51.5085C271.058 48.9709 268.025 46.8837 267.896 46.796C267.765 46.7057 267.595 46.6928 267.451 46.7619C267.306 46.8311 267.21 46.972 267.199 47.1311C267.187 47.2902 267.262 47.4434 267.394 47.5326C267.422 47.5518 270.189 49.46 270.286 51.5528C270.287 52.4729 269.833 53.3346 269.074 53.8557C265.424 56.8809 257.345 53.8916 257.264 53.8618C257.115 53.8057 256.947 53.8332 256.823 53.9341C256.7 54.0349 256.64 54.1938 256.666 54.3508C256.691 54.5078 256.799 54.6391 256.948 54.6953C257.233 54.8027 262.756 56.8447 266.99 55.8142Z" fill="#0B122D"/>
<path d="M285.377 57.6701C285.646 57.6035 285.902 57.4955 286.136 57.3501C288.135 56.1331 288.997 52.3682 289.033 52.2087C289.087 51.9686 288.935 51.7306 288.695 51.6771C288.455 51.6237 288.216 51.7749 288.162 52.015C288.154 52.0506 287.347 55.571 285.671 56.5902C285.285 56.839 284.811 56.911 284.368 56.7881C282.193 56.2197 282.197 51.6668 282.383 49.9606C282.408 49.7245 282.243 49.5101 282.009 49.4732C281.774 49.4363 281.551 49.5897 281.502 49.8221C281.495 49.8548 280.793 53.1048 278.771 54.3506C277.953 54.844 276.964 54.9666 276.05 54.6876C271.846 53.5764 273.132 47.3883 273.145 47.3259C273.197 47.0855 273.044 46.8491 272.803 46.7975C272.562 46.746 272.325 46.8988 272.273 47.139C271.745 49.5836 271.807 54.4877 275.82 55.5494C276.972 55.8949 278.216 55.7338 279.242 55.1067C280.195 54.4637 280.957 53.5773 281.45 52.54C281.578 54.5823 282.147 57.1286 284.141 57.6501C284.545 57.7607 284.97 57.7676 285.377 57.6701Z" fill="#0B122D"/>
<path d="M276.985 68.0065C277.13 67.9714 277.248 67.8662 277.299 67.7263C278.212 65.5632 278.169 63.1166 277.182 60.9878C275.344 57.2434 270.887 55.7947 270.699 55.735C270.464 55.6616 270.215 55.7914 270.14 56.0253C270.065 56.2591 270.194 56.5089 270.428 56.5839C270.47 56.5979 274.716 57.9841 276.384 61.385C277.257 63.2963 277.285 65.4869 276.46 67.421C276.404 67.5754 276.437 67.7484 276.547 67.8708C276.656 67.9933 276.825 68.0454 276.985 68.0064L276.985 68.0065Z" fill="#0B122D"/>
<path d="M282.045 50.346C282.215 50.3044 282.345 50.167 282.378 49.9948L283.876 42.0257C283.922 41.7837 283.762 41.551 283.52 41.5059C283.278 41.4608 283.044 41.6204 282.999 41.8624L281.5 49.8315C281.473 49.9802 281.522 50.1328 281.632 50.2367C281.742 50.3407 281.897 50.3818 282.045 50.346Z" fill="#0B122D"/>
<path d="M272.815 47.6655C272.978 47.626 273.104 47.4991 273.143 47.3367L275.097 39.2278C275.135 39.0728 275.087 38.9095 274.971 38.7995C274.856 38.6896 274.69 38.6498 274.537 38.6953C274.384 38.7408 274.267 38.8646 274.23 39.0198L272.277 47.1287C272.24 47.2797 272.285 47.4387 272.395 47.5484C272.505 47.658 272.664 47.7024 272.815 47.6655L272.815 47.6655Z" fill="#0B122D"/>
<path d="M37.0524 103.862C41.2871 102.831 45.2512 98.4781 45.4553 98.2516C45.5621 98.1332 45.5975 97.967 45.5481 97.8156C45.4988 97.6642 45.3723 97.5507 45.2162 97.5178C45.0602 97.485 44.8984 97.5379 44.7919 97.6565C44.734 97.7207 38.9316 104.087 34.3013 103.081C33.3869 102.967 32.5877 102.411 32.1657 101.593C31.2897 99.6897 32.8698 96.7229 32.8859 96.693C33.0027 96.4766 32.922 96.2066 32.7055 96.0899C32.4889 95.9731 32.2185 96.0536 32.1011 96.2698C32.0269 96.4069 30.2936 99.6546 31.3536 101.963C31.8903 103.038 32.9209 103.781 34.1115 103.951C35.0856 104.146 36.0916 104.115 37.0524 103.862Z" fill="#0B122D"/>
<path d="M21.5778 113.963C21.9842 113.863 22.3587 113.661 22.6666 113.377C24.1972 111.997 23.5326 109.474 22.7062 107.602C23.6209 108.297 24.7059 108.733 25.8477 108.866C27.047 108.951 28.226 108.522 29.09 107.687C31.1723 105.798 31.0255 103.195 28.6866 100.545C28.0958 99.8737 27.5971 99.1273 27.2034 98.325L23.8057 91.4143C23.7358 91.2708 23.5945 91.1756 23.435 91.1648C23.2756 91.1539 23.1225 91.2291 23.0336 91.3617C22.9447 91.4944 22.9335 91.6643 23.0044 91.8073L26.4022 98.718C26.8308 99.5913 27.374 100.404 28.0174 101.134C29.4311 102.736 30.6606 105.06 28.4899 107.027C27.8068 107.696 26.8701 108.042 25.9157 107.978C23.5409 107.799 21.432 105.238 21.4105 105.213C21.2604 105.029 20.9921 104.995 20.8004 105.135C20.6088 105.276 20.5612 105.542 20.6922 105.74C21.6413 107.17 23.7377 111.211 22.0688 112.716C21.7317 113.029 21.277 113.183 20.8192 113.139C18.8623 113.004 16.5276 110.249 16.5038 110.222C16.4017 110.099 16.2418 110.041 16.0845 110.068C15.9273 110.096 15.7967 110.205 15.742 110.355C15.6873 110.504 15.717 110.672 15.8197 110.794C15.9247 110.919 18.4201 113.866 20.7558 114.028C21.0315 114.049 21.3088 114.027 21.5778 113.963V113.963Z" fill="#0B122D"/>
<path d="M33.7817 119.284C33.9418 119.245 34.0674 119.121 34.1086 118.962C34.1498 118.803 34.0998 118.634 33.9785 118.523C32.3571 117.184 31.3748 115.226 31.2718 113.127C31.1892 109.34 34.3231 106.157 34.354 106.125C34.5272 105.951 34.5268 105.67 34.3531 105.497C34.1795 105.323 33.898 105.323 33.7235 105.496C33.5835 105.636 30.292 108.971 30.38 113.141C30.4818 115.486 31.5689 117.678 33.3742 119.179C33.4839 119.28 33.6369 119.319 33.7817 119.284Z" fill="#0B122D"/>
<path d="M21.1698 105.927C21.2058 105.918 21.2405 105.905 21.2731 105.887C21.3777 105.832 21.456 105.737 21.4908 105.624C21.5255 105.511 21.5139 105.389 21.4584 105.285L17.1198 97.1111C17.0454 96.9703 16.9013 96.88 16.7419 96.8742C16.5824 96.8684 16.432 96.9481 16.3474 97.0832C16.2627 97.2183 16.2567 97.3882 16.3317 97.5287L20.6703 105.703C20.7658 105.883 20.9715 105.975 21.1698 105.927V105.927Z" fill="#0B122D"/>
<path d="M128.324 456.146L127.967 459.545C127.91 460.082 128.069 460.62 128.409 461.04C128.749 461.46 129.242 461.727 129.779 461.784L306.568 480.388C306.66 480.399 306.752 480.405 306.844 480.406C307.372 480.45 307.902 480.43 308.425 480.347C308.437 480.34 308.452 480.337 308.467 480.34C310.226 480.064 311.823 479.152 312.955 477.778C313.55 477.064 314 476.241 314.28 475.355L315.184 472.528L341.558 389.291C342.132 387.491 341.867 385.529 340.834 383.947C339.801 382.366 338.111 381.334 336.232 381.137L213.113 368.18C210.147 367.862 207.369 369.679 206.472 372.524L178.921 459.424L130.563 454.335C130.026 454.278 129.488 454.437 129.068 454.777C128.648 455.116 128.381 455.609 128.324 456.146Z" fill="url(#paint14_linear_3379_267687)"/>
<g style="mix-blend-mode:overlay" opacity="0.6">
<path d="M128.324 456.147L127.967 459.546C127.91 460.083 128.069 460.62 128.409 461.04C128.748 461.46 129.241 461.728 129.779 461.784L179.012 466.965C182.451 467.33 185.673 465.227 186.723 461.932L214.001 375.868C215.385 374.475 215.68 372.334 214.725 370.618C213.77 368.902 211.795 368.025 209.881 368.467C207.968 368.909 206.578 370.563 206.472 372.524L178.921 459.424L130.562 454.335C130.025 454.278 129.488 454.437 129.068 454.777C128.648 455.117 128.38 455.61 128.324 456.147Z" fill="black"/>
</g>
<g style="mix-blend-mode:overlay" opacity="0.6">
<path d="M272.85 436.515C276.104 436.857 279.148 434.858 280.127 431.736L280.211 431.467C280.828 429.5 280.529 427.361 279.398 425.638C278.267 423.915 276.422 422.791 274.373 422.576C271.119 422.233 268.075 424.232 267.096 427.354L267.011 427.624C266.395 429.59 266.693 431.729 267.824 433.452C268.956 435.175 270.8 436.299 272.85 436.515Z" fill="white"/>
</g>
<path d="M347.731 520.014C371.503 520.014 390.774 500.743 390.774 476.97C390.774 453.198 371.503 433.927 347.731 433.927C323.958 433.927 304.687 453.198 304.687 476.97C304.687 500.743 323.958 520.014 347.731 520.014Z" fill="url(#paint15_linear_3379_267687)"/>
<path d="M345.091 518.815C368.864 518.815 388.135 499.543 388.135 475.771C388.135 451.999 368.864 432.728 345.091 432.728C321.319 432.728 302.048 451.999 302.048 475.771C302.048 499.543 321.319 518.815 345.091 518.815Z" fill="url(#paint16_linear_3379_267687)"/>
<path d="M344.5 509C362.449 509 377 494.449 377 476.5C377 458.551 362.449 444 344.5 444C326.551 444 312 458.551 312 476.5C312 494.449 326.551 509 344.5 509Z" fill="#8BC59F"/>
<path fill-rule="evenodd" clip-rule="evenodd" d="M362 468.183L339.518 491L327 478.296L332.107 473.113L339.518 480.633L356.893 463L362 468.183Z" fill="white"/>
<defs>
<linearGradient id="paint0_linear_3379_267687" x1="295.5" y1="493.984" x2="295.5" y2="0.142812" gradientUnits="userSpaceOnUse">
<stop stop-color="#E3EFF9" stop-opacity="0.4"/>
<stop offset="1" stop-color="#E3EFF9"/>
</linearGradient>
<linearGradient id="paint1_linear_3379_267687" x1="450.474" y1="163.11" x2="433.19" y2="273.91" gradientUnits="userSpaceOnUse">
<stop stop-color="#2D3748"/>
<stop offset="1" stop-color="#1A202C"/>
</linearGradient>
<linearGradient id="paint2_linear_3379_267687" x1="422.031" y1="268.021" x2="392.609" y2="456.623" gradientUnits="userSpaceOnUse">
<stop stop-color="#2C5282"/>
<stop offset="1" stop-color="#2A4365"/>
</linearGradient>
<linearGradient id="paint3_linear_3379_267687" x1="422.078" y1="200.361" x2="382.18" y2="456.117" gradientUnits="userSpaceOnUse">
<stop stop-color="#81E6D9"/>
<stop offset="1" stop-color="#319795"/>
</linearGradient>
<linearGradient id="paint4_linear_3379_267687" x1="439.005" y1="392.183" x2="428.155" y2="461.732" gradientUnits="userSpaceOnUse">
<stop stop-color="#030F1C"/>
<stop offset="1" stop-color="#030F1C" stop-opacity="0"/>
</linearGradient>
<linearGradient id="paint5_linear_3379_267687" x1="446.785" y1="315.766" x2="437.71" y2="373.938" gradientUnits="userSpaceOnUse">
<stop stop-color="#030F1C"/>
<stop offset="1" stop-color="#030F1C" stop-opacity="0"/>
</linearGradient>
<linearGradient id="paint6_linear_3379_267687" x1="349.134" y1="333.521" x2="383.712" y2="409.668" gradientUnits="userSpaceOnUse">
<stop stop-color="#BDC6CB"/>
<stop offset="1" stop-color="#5D666A"/>
</linearGradient>
<linearGradient id="paint7_linear_3379_267687" x1="156.386" y1="169.499" x2="180.434" y2="268.264" gradientUnits="userSpaceOnUse">
<stop stop-color="#E2B291"/>
<stop offset="1" stop-color="#F7B487"/>
</linearGradient>
<linearGradient id="paint8_linear_3379_267687" x1="151.678" y1="147.146" x2="174.078" y2="239.139" gradientUnits="userSpaceOnUse">
<stop stop-color="#2D3748"/>
<stop offset="1" stop-color="#1A202C"/>
</linearGradient>
<linearGradient id="paint9_linear_3379_267687" x1="160.921" y1="144.855" x2="236.114" y2="453.664" gradientUnits="userSpaceOnUse">
<stop stop-color="#FFAEAE"/>
<stop offset="1" stop-color="#D93333"/>
</linearGradient>
<linearGradient id="paint10_linear_3379_267687" x1="137.182" y1="290.18" x2="187.569" y2="465.69" gradientUnits="userSpaceOnUse">
<stop stop-color="#030F1C"/>
<stop offset="1" stop-color="#030F1C" stop-opacity="0"/>
</linearGradient>
<linearGradient id="paint11_linear_3379_267687" x1="290.383" y1="185.803" x2="239.142" y2="354.647" gradientUnits="userSpaceOnUse">
<stop stop-color="white"/>
<stop offset="1" stop-color="white" stop-opacity="0"/>
</linearGradient>
<linearGradient id="paint12_linear_3379_267687" x1="171.321" y1="239.417" x2="178.887" y2="270.492" gradientUnits="userSpaceOnUse">
<stop stop-color="#2C5282"/>
<stop offset="1" stop-color="#2A4365"/>
</linearGradient>
<linearGradient id="paint13_linear_3379_267687" x1="141.057" y1="34.5755" x2="196.686" y2="263.037" gradientUnits="userSpaceOnUse">
<stop stop-color="#E2B291"/>
<stop offset="1" stop-color="#F7B487"/>
</linearGradient>
<linearGradient id="paint14_linear_3379_267687" x1="296.982" y1="385.233" x2="237.292" y2="494.132" gradientUnits="userSpaceOnUse">
<stop stop-color="#BDC6CB"/>
<stop offset="1" stop-color="#5D666A"/>
</linearGradient>
<linearGradient id="paint15_linear_3379_267687" x1="385.285" y1="434.746" x2="291.751" y2="504.126" gradientUnits="userSpaceOnUse">
<stop stop-color="#E2E8F0"/>
<stop offset="0.338542" stop-color="#CBD5E0"/>
<stop offset="0.59375" stop-color="#C5D0DC"/>
<stop offset="1" stop-color="#A0AEC0"/>
</linearGradient>
<linearGradient id="paint16_linear_3379_267687" x1="345.091" y1="432.728" x2="345.091" y2="518.815" gradientUnits="userSpaceOnUse">
<stop stop-color="#F7FAFC"/>
<stop offset="0.328125" stop-color="#E2E8F0"/>
</linearGradient>
</defs>
</svg>
