<svg width="21" height="20" viewBox="0 0 21 20" fill="none" xmlns="http://www.w3.org/2000/svg">
<path d="M8.54507 16.5754L8.1893 17.9984H3.27462C1.47985 17.9984 0.0249023 16.5435 0.0249023 14.7487V5.49952H18.0233V8.01151C17.0906 7.93108 16.13 8.24776 15.4162 8.96157L9.51433 14.8635C9.04207 15.3357 8.70705 15.9274 8.54507 16.5754ZM18.0233 3.24971C18.0233 1.45495 16.5684 0 14.7736 0H3.27462C1.47985 0 0.0249023 1.45495 0.0249023 3.24971V3.99965H18.0233V3.24971ZM16.1233 9.66861L10.2214 15.5705C9.87733 15.9146 9.63322 16.3458 9.51519 16.8179L9.05755 18.6484C8.85854 19.4445 9.57961 20.1656 10.3757 19.9666L12.2062 19.5089C12.6783 19.3909 13.1095 19.1468 13.4536 18.8027L19.3555 12.9008C20.248 12.0082 20.248 10.5611 19.3555 9.66861C18.463 8.77607 17.0159 8.77607 16.1233 9.66861Z" fill="white"/>
</svg>
