<svg width="24" height="25" viewBox="0 0 24 25" fill="none" xmlns="http://www.w3.org/2000/svg">
<path d="M5.25 3.75125C4.00736 3.75125 3 4.75861 3 6.00125V19.5013C3 20.7439 4.00736 21.7513 5.25 21.7513H18.75C19.9926 21.7513 21 20.7439 21 19.5013V6.00125C21 4.75861 19.9926 3.75125 18.75 3.75125H5.25ZM10.7803 9.53158L8.78033 11.5316C8.48744 11.8245 8.01256 11.8245 7.71967 11.5316L6.71967 10.5316C6.42678 10.2387 6.42678 9.76381 6.71967 9.47092C7.01256 9.17803 7.48744 9.17803 7.78033 9.47092L8.25 9.94059L9.71967 8.47092C10.0126 8.17803 10.4874 8.17803 10.7803 8.47092C11.0732 8.76381 11.0732 9.23869 10.7803 9.53158ZM16.75 9.25125C17.1642 9.25125 17.5 9.58704 17.5 10.0013C17.5 10.4155 17.1642 10.7513 16.75 10.7513H13.25C12.8358 10.7513 12.5 10.4155 12.5 10.0013C12.5 9.58704 12.8358 9.25125 13.25 9.25125H16.75ZM12.5001 15.5013C12.5001 15.087 12.8358 14.7513 13.2501 14.7513H16.7499C17.1642 14.7513 17.4999 15.087 17.4999 15.5013C17.4999 15.9155 17.1642 16.2513 16.7499 16.2513H13.2501C12.8358 16.2513 12.5001 15.9155 12.5001 15.5013ZM10.7803 13.9709C11.0732 14.2638 11.0732 14.7387 10.7803 15.0316L8.78033 17.0316C8.48744 17.3245 8.01256 17.3245 7.71967 17.0316L6.71967 16.0316C6.42678 15.7387 6.42678 15.2638 6.71967 14.9709C7.01256 14.678 7.48744 14.678 7.78033 14.9709L8.25 15.4406L9.71967 13.9709C10.0126 13.678 10.4874 13.678 10.7803 13.9709Z" fill="#718096"/>
</svg>
