<svg width="17" height="4" viewBox="0 0 17 4" fill="none" xmlns="http://www.w3.org/2000/svg">
<path d="M4.32227 2C4.32227 2.9665 3.53876 3.75 2.57227 3.75C1.60577 3.75 0.822266 2.9665 0.822266 2C0.822266 1.0335 1.60577 0.25 2.57227 0.25C3.53876 0.25 4.32227 1.0335 4.32227 2ZM10.3223 2C10.3223 2.9665 9.53876 3.75 8.57227 3.75C7.60577 3.75 6.82227 2.9665 6.82227 2C6.82227 1.0335 7.60577 0.25 8.57227 0.25C9.53876 0.25 10.3223 1.0335 10.3223 2ZM14.5723 3.75C15.5388 3.75 16.3223 2.9665 16.3223 2C16.3223 1.0335 15.5388 0.25 14.5723 0.25C13.6058 0.25 12.8223 1.0335 12.8223 2C12.8223 2.9665 13.6058 3.75 14.5723 3.75Z" fill="black"/>
</svg>
