<svg width="24" height="25" viewBox="0 0 24 25" fill="none" xmlns="http://www.w3.org/2000/svg">
<path d="M12.8199 5.83818L11.9992 6.66069L11.1759 5.83744C9.07688 3.73837 5.67361 3.73837 3.57455 5.83744C2.10768 7.3043 1.66589 9.40807 2.24916 11.2586H5.7493L7.16826 8.26003C7.45256 7.65924 8.05268 7.27136 8.71723 7.25889C9.38178 7.24641 9.99604 7.61148 10.3027 8.20118L12.2826 12.0085L13.8601 9.94554C14.1789 9.52865 14.668 9.27684 15.1925 9.25953C15.717 9.24222 16.2217 9.46123 16.5673 9.85619L17.7943 11.2586H21.7539C22.3385 9.40751 21.8988 7.30637 20.4306 5.83818C18.3277 3.73529 14.9228 3.7353 12.8199 5.83818ZM11.4699 21.3342L4.89428 14.7586H6.85723C7.53375 14.7586 8.14968 14.3686 8.43906 13.7571L8.82397 12.9437L10.4476 16.066C10.7238 16.5971 11.2524 16.9502 11.8488 17.002C12.4452 17.0538 13.0267 16.7972 13.3904 16.3216L15.3414 13.7703L15.6832 14.161C16.0155 14.5407 16.4956 14.7586 17.0002 14.7586H19.1101L12.5306 21.3342C12.2377 21.6271 11.7628 21.6271 11.4699 21.3342ZM9.42082 8.67317C9.29247 8.41646 9.02887 8.25551 8.74188 8.25862C8.45489 8.26173 8.19484 8.42834 8.07207 8.68777L6.38232 12.2586H2.75C2.33579 12.2586 2 12.5944 2 13.0086C2 13.4228 2.33579 13.7586 2.75 13.7586H6.85714C7.14708 13.7586 7.41105 13.5915 7.53507 13.3294L8.76856 10.7228L11.3292 15.844C11.4465 16.0786 11.6779 16.2349 11.9394 16.2561C12.2009 16.2773 12.4544 16.1604 12.608 15.9477L15.3062 12.2117L16.4356 13.5025C16.578 13.6652 16.7837 13.7586 17 13.7586H21.25C21.6642 13.7586 22 13.4228 22 13.0086C22 12.5944 21.6642 12.2586 21.25 12.2586H17.3403L15.8144 10.5147C15.664 10.3427 15.4433 10.2487 15.215 10.2594C14.9867 10.2701 14.7758 10.3842 14.642 10.5695L12.117 14.0656L9.42082 8.67317Z" fill="#718096"/>
</svg>
