<svg width="28" height="17" viewBox="0 0 28 17" fill="none" xmlns="http://www.w3.org/2000/svg">
<g clip-path="url(#clip0_1387_46820)">
<path d="M25.1878 8.02603H15.2832V16.814H25.1878V8.02603Z" fill="url(#paint0_linear_1387_46820)"/>
<path d="M14.4668 4.24066H23.3476C24.0373 4.24066 24.6473 4.6724 24.8547 5.30732L25.9597 8.69041H14.4668V4.24066Z" fill="url(#paint1_linear_1387_46820)"/>
<path d="M15.2832 8.69037H25.9599V10.627C25.9599 10.7333 25.8706 10.8195 25.7605 10.8195H15.2832V8.69037Z" fill="url(#paint2_linear_1387_46820)"/>
<g filter="url(#filter0_ii_1387_46820)">
<path d="M2.79688 9.52874L9.07377 3.92886L15.3822 9.7001L15.4021 16.8137L2.81722 16.8463L2.79688 9.52874Z" fill="url(#paint3_linear_1387_46820)"/>
<path d="M11.7402 1.17922C11.74 1.10147 11.8051 1.03828 11.8857 1.03807L15.1185 1.02969C15.1991 1.02949 15.2645 1.09234 15.2647 1.17009L15.2828 7.67994C15.2831 7.75769 15.2179 7.82088 15.1374 7.82109L14.8294 7.82189C13.1335 7.82628 11.7551 6.50278 11.7505 4.86575L11.7402 1.17922Z" fill="url(#paint4_linear_1387_46820)"/>
<path d="M2.95508 9.74545L8.47993 3.0999C8.83815 2.66903 9.52204 2.65915 9.89383 3.07948L15.6736 9.61472" stroke="url(#paint5_linear_1387_46820)" stroke-width="3" stroke-linecap="round" stroke-linejoin="round"/>
<path d="M4.64648 8.69043L8.63792 3.88934C8.89672 3.57805 9.3908 3.57091 9.65937 3.87458L13.835 8.59598" stroke="url(#paint6_linear_1387_46820)" stroke-width="2" stroke-linecap="round" stroke-linejoin="round"/>
<path d="M11.2111 9.74582L7.23139 9.75613C7.15084 9.75634 7.08572 9.81954 7.08594 9.89728L7.10113 15.3605C7.10135 15.4382 7.16681 15.5011 7.24736 15.5009L11.2271 15.4906C11.3076 15.4903 11.3728 15.4272 11.3725 15.3494L11.3574 9.88622C11.3571 9.80847 11.2917 9.74561 11.2111 9.74582Z" fill="url(#paint7_linear_1387_46820)"/>
</g>
<path d="M18.3317 11.8556L16.4872 11.8604C16.4067 11.8605 16.3415 11.9238 16.3418 12.0016L16.349 14.5929C16.3492 14.6706 16.4147 14.7335 16.4952 14.7333L18.3396 14.7285C18.4202 14.7283 18.4853 14.6651 18.4851 14.5874L18.4779 11.996C18.4777 11.9182 18.4122 11.8554 18.3317 11.8556Z" fill="url(#paint8_linear_1387_46820)"/>
<path d="M21.9294 11.8556L20.0849 11.8604C20.0043 11.8605 19.9393 11.9238 19.9395 12.0016L19.9466 14.5929C19.9469 14.6706 20.0124 14.7335 20.0929 14.7333L21.9374 14.7285C22.0179 14.7283 22.083 14.6651 22.0828 14.5874L22.0755 11.996C22.0753 11.9182 22.0099 11.8554 21.9294 11.8556Z" fill="url(#paint9_linear_1387_46820)"/>
<mask id="mask0_1387_46820" style="mask-type:alpha" maskUnits="userSpaceOnUse" x="0" y="13" width="5" height="4">
<path d="M4.6483 13.2944H0.271484V16.8463H4.6483V13.2944Z" fill="#C4C4C4"/>
</mask>
<g mask="url(#mask0_1387_46820)">
<path d="M2.38015 17.3475C3.18122 17.3475 3.83062 16.7207 3.83062 15.9474C3.83062 15.1741 3.18122 14.5473 2.38015 14.5473C1.57908 14.5473 0.929688 15.1741 0.929688 15.9474C0.929688 16.7207 1.57908 17.3475 2.38015 17.3475Z" fill="url(#paint10_linear_1387_46820)"/>
</g>
<mask id="mask1_1387_46820" style="mask-type:alpha" maskUnits="userSpaceOnUse" x="21" y="12" width="7" height="5">
<path d="M27.1076 12.0674H21.2188V16.8464H27.1076V12.0674Z" fill="#C4C4C4"/>
</mask>
<g mask="url(#mask1_1387_46820)">
<path d="M24.0551 17.5205C25.1329 17.5205 26.0066 16.6771 26.0066 15.6367C26.0066 14.5963 25.1329 13.7529 24.0551 13.7529C22.9773 13.7529 22.1035 14.5963 22.1035 15.6367C22.1035 16.6771 22.9773 17.5205 24.0551 17.5205Z" fill="url(#paint11_linear_1387_46820)"/>
</g>
<mask id="mask2_1387_46820" style="mask-type:alpha" maskUnits="userSpaceOnUse" x="2" y="13" width="5" height="4">
<path d="M6.42564 13.2944H2.04883V16.8463H6.42564V13.2944Z" fill="#C4C4C4"/>
</mask>
<g mask="url(#mask2_1387_46820)">
<path d="M3.84086 17.3475C4.46706 17.3475 4.9747 16.8574 4.9747 16.253C4.9747 15.6485 4.46706 15.1585 3.84086 15.1585C3.21467 15.1585 2.70703 15.6485 2.70703 16.253C2.70703 16.8574 3.21467 17.3475 3.84086 17.3475Z" fill="url(#paint12_linear_1387_46820)"/>
</g>
</g>
<defs>
<filter id="filter0_ii_1387_46820" x="-0.109252" y="1.02969" width="18.8474" height="17.3809" filterUnits="userSpaceOnUse" color-interpolation-filters="sRGB">
<feFlood flood-opacity="0" result="BackgroundImageFix"/>
<feBlend mode="normal" in="SourceGraphic" in2="BackgroundImageFix" result="shape"/>
<feColorMatrix in="SourceAlpha" type="matrix" values="0 0 0 0 0 0 0 0 0 0 0 0 0 0 0 0 0 0 127 0" result="hardAlpha"/>
<feOffset dx="-1.56433"/>
<feGaussianBlur stdDeviation="2"/>
<feComposite in2="hardAlpha" operator="arithmetic" k2="-1" k3="1"/>
<feColorMatrix type="matrix" values="0 0 0 0 0 0 0 0 0 0 0 0 0 0 0 0 0 0 0.25 0"/>
<feBlend mode="normal" in2="shape" result="effect1_innerShadow_1387_46820"/>
<feColorMatrix in="SourceAlpha" type="matrix" values="0 0 0 0 0 0 0 0 0 0 0 0 0 0 0 0 0 0 127 0" result="hardAlpha"/>
<feOffset dx="1.56433" dy="1.56433"/>
<feGaussianBlur stdDeviation="2"/>
<feComposite in2="hardAlpha" operator="arithmetic" k2="-1" k3="1"/>
<feColorMatrix type="matrix" values="0 0 0 0 1 0 0 0 0 1 0 0 0 0 1 0 0 0 0.25 0"/>
<feBlend mode="normal" in2="effect1_innerShadow_1387_46820" result="effect2_innerShadow_1387_46820"/>
</filter>
<linearGradient id="paint0_linear_1387_46820" x1="20.4119" y1="17.1619" x2="20.4119" y2="8.3695" gradientUnits="userSpaceOnUse">
<stop offset="0.01" stop-color="#A0AEC0"/>
<stop offset="0.143369" stop-color="#BFC9D5"/>
<stop offset="0.411458" stop-color="#DBE2E9"/>
<stop offset="0.635417" stop-color="#ECF0F4"/>
<stop offset="0.98" stop-color="#F7FAFC"/>
</linearGradient>
<linearGradient id="paint1_linear_1387_46820" x1="20.2133" y1="4.24066" x2="20.2133" y2="8.69041" gradientUnits="userSpaceOnUse">
<stop stop-color="#A0AEC0"/>
<stop offset="1" stop-color="#718096"/>
</linearGradient>
<linearGradient id="paint2_linear_1387_46820" x1="20.6216" y1="6.70016" x2="20.6216" y2="10.8195" gradientUnits="userSpaceOnUse">
<stop stop-color="#A0AEC0"/>
<stop offset="1" stop-color="#718096"/>
</linearGradient>
<linearGradient id="paint3_linear_1387_46820" x1="9.33518" y1="17.3401" x2="9.30175" y2="4.43251" gradientUnits="userSpaceOnUse">
<stop offset="0.01" stop-color="#A0AEC0"/>
<stop offset="0.143369" stop-color="#BFC9D5"/>
<stop offset="0.411458" stop-color="#DBE2E9"/>
<stop offset="0.635417" stop-color="#ECF0F4"/>
<stop offset="0.98" stop-color="#F7FAFC"/>
</linearGradient>
<linearGradient id="paint4_linear_1387_46820" x1="11.5215" y1="0.973941" x2="17.0491" y2="2.80002" gradientUnits="userSpaceOnUse">
<stop stop-color="#FEB2B2"/>
<stop offset="0.619792" stop-color="#F56565"/>
</linearGradient>
<linearGradient id="paint5_linear_1387_46820" x1="9.29515" y1="2.77013" x2="9.3164" y2="10.9712" gradientUnits="userSpaceOnUse">
<stop offset="0.0001" stop-color="#A0AEC0"/>
<stop offset="1" stop-color="#718096"/>
</linearGradient>
<linearGradient id="paint6_linear_1387_46820" x1="9.24965" y1="8.84051" x2="9.15892" y2="-1.84766" gradientUnits="userSpaceOnUse">
<stop stop-color="#A0AEC0" stop-opacity="0.03"/>
<stop offset="0.536887" stop-color="#728197"/>
</linearGradient>
<linearGradient id="paint7_linear_1387_46820" x1="6.82107" y1="9.70215" x2="12.8841" y2="12.5782" gradientUnits="userSpaceOnUse">
<stop stop-color="#FEB2B2"/>
<stop offset="0.619792" stop-color="#F56565"/>
</linearGradient>
<linearGradient id="paint8_linear_1387_46820" x1="16.2091" y1="11.8335" x2="19.2412" y2="13.2718" gradientUnits="userSpaceOnUse">
<stop stop-color="#FEB2B2"/>
<stop offset="0.619792" stop-color="#F56565"/>
</linearGradient>
<linearGradient id="paint9_linear_1387_46820" x1="19.8068" y1="11.8335" x2="22.8389" y2="13.2718" gradientUnits="userSpaceOnUse">
<stop stop-color="#FEB2B2"/>
<stop offset="0.619792" stop-color="#F56565"/>
</linearGradient>
<linearGradient id="paint10_linear_1387_46820" x1="2.3792" y1="14.4825" x2="2.3792" y2="17.3776" gradientUnits="userSpaceOnUse">
<stop stop-color="#8EEADE"/>
<stop offset="0.9964" stop-color="#3CB5AF"/>
</linearGradient>
<linearGradient id="paint11_linear_1387_46820" x1="24.0538" y1="13.6658" x2="24.0538" y2="17.5612" gradientUnits="userSpaceOnUse">
<stop stop-color="#8EEADE"/>
<stop offset="0.9964" stop-color="#3CB5AF"/>
</linearGradient>
<linearGradient id="paint12_linear_1387_46820" x1="5.11954" y1="15.2967" x2="3.10428" y2="17.231" gradientUnits="userSpaceOnUse">
<stop stop-color="#8EEADE"/>
<stop offset="0.9964" stop-color="#3CB5AF"/>
</linearGradient>
<clipPath id="clip0_1387_46820">
<rect width="26.9421" height="15.9281" fill="white" transform="translate(0.230469 0.986328)"/>
</clipPath>
</defs>
</svg>
