<svg width="155" height="37" viewBox="0 0 155 37" fill="none" xmlns="http://www.w3.org/2000/svg">
<path d="M129.916 15.2398C128.974 15.2376 128.041 15.4095 127.163 15.7465C128.348 19.3685 130.682 22.5201 133.822 24.7373C134.473 25.1899 135.163 25.5879 135.882 25.927C136.719 24.8006 137.171 23.441 137.171 22.045C137.171 18.2879 133.923 15.2388 129.918 15.2388" fill="#E71618"/>
<path d="M146.55 18.9589C149.211 16.9508 155.932 12.6069 154.891 10.8468C154.05 9.42373 150.376 11.1415 146.226 13.3631C142.966 15.1126 143.669 13.0002 145.742 9.91291C147.57 7.19546 150.314 3.52835 148.782 2.53599C147.002 1.38127 141.541 7.77387 140.265 9.03637C138.989 10.2989 137.824 10.9777 138.464 7.46175C139.322 2.79213 139.491 0.350412 138.426 0.0557835C136.934 -0.355718 136.001 1.47785 133.769 6.60901C132.171 10.2922 130.772 10.9441 130.602 7.64056C130.378 1.70424 128.845 3.06505 128.257 3.97799C126.639 6.48479 126.091 9.5266 126.455 12.573C127.77 12.0814 129.165 11.8307 130.571 11.8332C136.793 11.8332 141.838 16.625 141.838 22.5277C141.84 24.2423 141.407 25.9302 140.578 27.4377C144.13 28.0781 147.873 27.7705 150.694 26.3897C151.163 26.1595 152.303 25.4701 151.594 24.5194C150.176 22.6187 147.621 23.6166 144.889 22.8356C142.489 22.1505 144.627 20.4069 146.549 18.9575" fill="#E71618"/>
<path d="M135.879 25.9988C135.189 26.9152 134.29 27.6584 133.254 28.168C132.218 28.6776 131.074 28.9391 129.917 28.9314C125.91 28.9314 122.662 25.8794 122.662 22.1165C122.68 20.7417 123.119 19.4045 123.922 18.2801C124.725 17.1557 125.855 16.2966 127.162 15.8155C126.822 14.7792 126.586 13.7128 126.455 12.6313C122.264 14.1912 119.297 18.0567 119.297 22.586C119.297 28.4933 124.344 33.2837 130.572 33.2837C132.615 33.2979 134.623 32.7674 136.385 31.7485C138.147 30.7296 139.596 29.2602 140.579 27.4961C138.951 27.2065 137.37 26.7029 135.878 25.9988" fill="#5A5C5E"/>
<path d="M8.96946 17.3146C8.96196 17.1115 8.87423 16.9193 8.7249 16.779C8.57561 16.6387 8.37659 16.5615 8.17026 16.5637H0.929879C0.724091 16.5625 0.525904 16.6402 0.377178 16.7803C0.22845 16.9205 0.140827 17.112 0.132812 17.3146C0.139497 17.5167 0.227063 17.708 0.376393 17.8467C0.525726 17.9854 0.724698 18.0603 0.929879 18.055H3.70789V26.1349C3.71424 26.3508 3.80578 26.5557 3.96303 26.7062C4.12027 26.8567 4.33087 26.9408 4.55006 26.9408C4.76929 26.9408 4.97989 26.8567 5.13714 26.7062C5.29435 26.5557 5.38588 26.3508 5.39224 26.1349V18.055H8.17061C8.37602 18.0603 8.57522 17.9855 8.7249 17.8468C8.87455 17.7082 8.9626 17.5169 8.96981 17.3146" fill="#1A1818"/>
<path d="M11.3851 18.9578C10.8573 18.9603 10.3353 19.0667 9.84971 19.2706C9.36419 19.4745 8.92491 19.772 8.55764 20.1455C8.19036 20.5189 7.90254 20.9609 7.71102 21.4454C7.5195 21.93 7.42818 22.4474 7.44235 22.9671V22.9983C7.43151 23.5294 7.53012 24.0571 7.73215 24.5496C7.93419 25.0421 8.23551 25.4892 8.61788 25.8637C9.00025 26.2383 9.45572 26.5326 9.9568 26.7288C10.4579 26.9251 10.9941 27.0192 11.5332 27.0055C12.0985 27.0235 12.6618 26.9303 13.1901 26.7314C13.7185 26.5324 14.2013 26.2318 14.6103 25.8469C14.6886 25.7831 14.752 25.7034 14.796 25.6131C14.84 25.5229 14.8637 25.4243 14.8653 25.3242C14.8583 25.1336 14.7749 24.9536 14.6334 24.8235C14.492 24.6934 14.3039 24.6238 14.1105 24.6299C13.9314 24.6311 13.7584 24.6945 13.6221 24.8091C13.0661 25.3252 12.328 25.6078 11.5641 25.5967C10.9816 25.6187 10.4114 25.4278 9.96302 25.0607C9.51469 24.6937 9.21987 24.1764 9.13523 23.6082H14.422C14.626 23.6125 14.8233 23.537 14.9708 23.3982C15.1183 23.2594 15.2038 23.0686 15.2088 22.8677C15.2088 20.9215 13.8945 18.9578 11.3851 18.9578ZM11.3559 20.3365C12.7217 20.3365 13.3639 21.3299 13.5322 22.3376H9.13558C9.36575 21.1479 10.2474 20.3365 11.3559 20.3365Z" fill="#1A1818"/>
<path d="M17.0611 16.078C16.9557 16.0762 16.8509 16.095 16.7529 16.1333C16.6548 16.1716 16.5654 16.2286 16.4898 16.301C16.4142 16.3735 16.3539 16.46 16.3123 16.5555C16.2707 16.651 16.2487 16.7537 16.2476 16.8576V26.1551C16.2486 26.2605 16.2709 26.3647 16.3133 26.4614C16.3557 26.5582 16.4173 26.6456 16.4945 26.7185C16.5717 26.7915 16.6629 26.8485 16.7627 26.8863C16.8626 26.924 16.9691 26.9417 17.076 26.9383C17.1822 26.9415 17.288 26.9236 17.387 26.8857C17.486 26.8477 17.5762 26.7905 17.6522 26.7174C17.7282 26.6443 17.7885 26.5568 17.8294 26.4602C17.8703 26.3636 17.891 26.2598 17.8903 26.1551V16.8576C17.8849 16.6459 17.7946 16.4451 17.6392 16.2989C17.4838 16.1528 17.2759 16.0733 17.0611 16.078Z" fill="#1A1818"/>
<path d="M23.5885 22.5783L25.9421 20.3945C26.0328 20.3242 26.1067 20.2353 26.1586 20.1338C26.2105 20.0324 26.2392 19.9209 26.2426 19.8073C26.2424 19.7085 26.2222 19.6108 26.1832 19.5198C26.1442 19.4287 26.0871 19.3464 26.0153 19.2774C25.9436 19.2084 25.8585 19.1543 25.7652 19.1181C25.6719 19.082 25.5722 19.0646 25.472 19.0669C25.3523 19.067 25.2341 19.0924 25.1253 19.1416C25.0166 19.1907 24.9198 19.2624 24.8417 19.3517L21.1042 22.9401V16.8575C21.0953 16.6487 21.005 16.4513 20.8519 16.3066C20.6988 16.1619 20.4949 16.0811 20.2828 16.0811C20.0707 16.0811 19.8668 16.1619 19.7137 16.3066C19.5606 16.4513 19.4703 16.6487 19.4614 16.8575V26.1551C19.4631 26.2606 19.486 26.3648 19.529 26.4614C19.572 26.5581 19.6341 26.6454 19.7117 26.7181C19.7893 26.7908 19.8809 26.8475 19.981 26.885C20.0811 26.9224 20.1878 26.9398 20.2949 26.9361C20.4006 26.9394 20.5059 26.9215 20.6045 26.8835C20.7031 26.8457 20.7928 26.7885 20.8684 26.7156C20.944 26.6426 21.0039 26.5554 21.0444 26.4591C21.0849 26.3628 21.1052 26.2594 21.1042 26.1551V24.8604L22.4262 23.6266L24.9209 26.5932C24.9978 26.7024 25.1012 26.791 25.2216 26.851C25.3419 26.911 25.4756 26.9405 25.6105 26.9368C25.7611 26.9449 25.9108 26.9085 26.0402 26.8321C26.1696 26.7557 26.2728 26.643 26.3367 26.5083C26.4005 26.3736 26.422 26.2232 26.3984 26.0764C26.3748 25.9296 26.3072 25.7931 26.2042 25.6845L23.5885 22.5783Z" fill="#1A1818"/>
<path d="M30.7085 18.9582C28.3112 18.9582 26.4382 20.7245 26.4382 22.9822V23.0123C26.4382 25.2517 28.2991 27.0055 30.6765 27.0055C33.0805 27.0055 34.962 25.2426 34.962 22.9815V22.9549C34.962 20.7105 33.0925 18.9578 30.7088 18.9578L30.7085 18.9582ZM28.1077 22.9549C28.0972 22.6175 28.1562 22.2816 28.2809 21.9672C28.4057 21.6529 28.5937 21.3666 28.8337 21.1258C29.0737 20.8849 29.3606 20.6943 29.6773 20.5655C29.994 20.4367 30.3339 20.3724 30.6765 20.3764C31.0227 20.3751 31.3658 20.4419 31.6856 20.5727C32.0053 20.7035 32.2954 20.8959 32.5389 21.1384C32.7823 21.381 32.9743 21.6688 33.1035 21.9853C33.2327 22.3018 33.2966 22.6404 33.2915 22.9815V23.0116C33.2995 23.3485 33.2383 23.6835 33.1115 23.9964C32.9847 24.3094 32.795 24.5939 32.5536 24.8327C32.3123 25.0715 32.0245 25.2598 31.7074 25.3862C31.3902 25.5125 31.0505 25.5744 30.7085 25.568C30.3643 25.5699 30.0232 25.504 29.7052 25.3744C29.3872 25.2447 29.0986 25.0538 28.8564 24.813C28.6142 24.5721 28.4232 24.2861 28.2945 23.9716C28.1659 23.6571 28.1023 23.3205 28.1074 22.9815L28.1077 22.9549Z" fill="#1A1818"/>
<path d="M44.9659 18.9593C44.4505 18.9431 43.9383 19.0473 43.4712 19.2634C43.0045 19.4796 42.5964 19.8015 42.2799 20.203C42.0057 19.8034 41.6324 19.4794 41.1958 19.2618C40.7589 19.0442 40.2726 18.9401 39.7835 18.9593C39.3655 18.9471 38.9495 19.0228 38.5638 19.1816C38.1777 19.3404 37.8307 19.5785 37.5458 19.88V19.8233C37.5369 19.6136 37.4463 19.4154 37.2925 19.2702C37.1387 19.1249 36.9341 19.0438 36.721 19.0438C36.5079 19.0438 36.3033 19.1249 36.1495 19.2702C35.9957 19.4154 35.9051 19.6136 35.8962 19.8233V26.1308C35.898 26.2363 35.9211 26.3403 35.9637 26.4369C36.0067 26.5335 36.0689 26.6208 36.1459 26.6936C36.2234 26.7664 36.3147 26.8233 36.4148 26.8611C36.5146 26.8989 36.6212 26.9168 36.7281 26.9136C36.8343 26.9169 36.9402 26.899 37.0393 26.8611C37.1387 26.8232 37.2289 26.766 37.3053 26.693C37.3813 26.6199 37.4421 26.5325 37.4833 26.4359C37.5245 26.3394 37.5454 26.2356 37.5451 26.1308V22.4673C37.5451 21.2755 38.3389 20.4073 39.4369 20.4073C40.5401 20.4073 41.1738 21.1117 41.1738 22.3374V26.1308C41.1738 26.2353 41.1951 26.3387 41.2363 26.4349C41.2775 26.5312 41.3379 26.6183 41.4136 26.6913C41.4896 26.7642 41.5794 26.8215 41.6782 26.8597C41.7769 26.8978 41.8824 26.9162 41.9883 26.9136C42.0948 26.9165 42.201 26.8985 42.3008 26.8606C42.4003 26.8226 42.4912 26.7656 42.5683 26.6928C42.645 26.6199 42.7068 26.5328 42.7491 26.4363C42.7917 26.3398 42.8141 26.236 42.8155 26.1308V22.4218C42.8155 21.2209 43.5671 20.4083 44.6803 20.4083C45.8095 20.4083 46.4322 21.104 46.4322 22.3679V26.1308C46.44 26.3404 46.5298 26.5389 46.6829 26.6845C46.836 26.83 47.0406 26.9114 47.2537 26.9114C47.4665 26.9114 47.6711 26.83 47.8242 26.6845C47.9773 26.5389 48.0671 26.3404 48.075 26.1308V22.1103C48.075 20.1658 46.8861 18.9593 44.9652 18.9593" fill="#1A1818"/>
<path d="M52.5595 16.6772C52.3603 16.6777 52.1693 16.7548 52.0269 16.892C51.8845 17.0292 51.8021 17.2159 51.7971 17.412V26.3349C51.8056 26.5305 51.8905 26.7152 52.034 26.8506C52.1774 26.986 52.3685 27.0616 52.567 27.0616C52.7655 27.0616 52.9565 26.986 53.1 26.8506C53.2435 26.7152 53.3283 26.5305 53.3369 26.3349V17.412C53.3322 17.2132 53.2477 17.0241 53.1021 16.8864C52.9565 16.7487 52.7612 16.6735 52.5595 16.6772Z" fill="#1A1818"/>
<path d="M59.2552 19.1651C58.7847 19.1492 58.317 19.2378 57.8859 19.4244C57.4552 19.6111 57.0728 19.8909 56.7666 20.2432V19.9688C56.7592 19.7764 56.6765 19.5943 56.5358 19.4607C56.3952 19.3272 56.2073 19.2525 56.0117 19.2525C55.8164 19.2525 55.6285 19.3272 55.4879 19.4607C55.3473 19.5943 55.2645 19.7764 55.2571 19.9688V26.3296C55.2585 26.4265 55.2795 26.5222 55.3189 26.6109C55.3583 26.6997 55.4155 26.7798 55.4868 26.8465C55.5582 26.9132 55.6424 26.9651 55.7343 26.9992C55.8263 27.0333 55.9243 27.049 56.0227 27.0452C56.1196 27.0482 56.2166 27.032 56.3071 26.9973C56.3977 26.9627 56.4804 26.9104 56.55 26.8436C56.6196 26.7768 56.6747 26.6969 56.7123 26.6086C56.75 26.5202 56.7688 26.4254 56.7684 26.3296V22.6174C56.7549 22.3343 56.8014 22.0515 56.9051 21.7872C57.0088 21.5229 57.1676 21.2828 57.3707 21.0822C57.5738 20.8817 57.8171 20.7252 58.0852 20.6226C58.3533 20.5199 58.6402 20.4736 58.9275 20.4864C60.187 20.4864 60.9072 21.2299 60.9072 22.5309V26.33C60.9086 26.4266 60.9296 26.5219 60.969 26.6105C61.0081 26.699 61.0652 26.7789 61.1363 26.8456C61.2073 26.9122 61.2911 26.9642 61.3827 26.9985C61.4743 27.0329 61.572 27.0489 61.67 27.0456C61.7669 27.048 61.8635 27.0313 61.9541 26.9964C62.0443 26.9616 62.1266 26.9093 62.1962 26.8427C62.2659 26.776 62.3216 26.6963 62.3596 26.6083C62.3972 26.5202 62.4171 26.4256 62.4175 26.33V22.2653C62.4175 20.3824 61.1746 19.1654 59.257 19.1654" fill="#1A1818"/>
<path d="M70.9014 16.2541C70.8044 16.251 70.7078 16.2672 70.6172 16.3017C70.5267 16.3363 70.4443 16.3884 70.3746 16.455C70.305 16.5216 70.2496 16.6014 70.212 16.6895C70.1743 16.7776 70.1551 16.8723 70.1555 16.9679V20.4285C69.8088 20.0317 69.3776 19.7148 68.8927 19.5004C68.4079 19.286 67.8808 19.1794 67.3494 19.1881C66.8251 19.1859 66.3062 19.2882 65.8231 19.489C65.34 19.6898 64.9035 19.9849 64.5398 20.3564C64.1757 20.728 63.8919 21.1683 63.7054 21.6509C63.5186 22.1334 63.4333 22.6482 63.4543 23.1642V23.1918C63.4344 23.7068 63.5203 24.2204 63.7075 24.7017C63.8944 25.1829 64.1785 25.6219 64.5426 25.9919C64.9067 26.3621 65.3432 26.6556 65.8256 26.855C66.308 27.0543 66.8262 27.1553 67.3494 27.1518C67.8868 27.1595 68.4189 27.0463 68.9052 26.8209C69.3914 26.5954 69.8191 26.2637 70.1555 25.8508V26.3523C70.1565 26.4489 70.1775 26.5444 70.2169 26.633C70.256 26.7216 70.3132 26.8016 70.3842 26.8682C70.4553 26.9348 70.5391 26.9867 70.6311 27.0209C70.7227 27.0551 70.8208 27.0708 70.9188 27.0671C71.0158 27.0696 71.112 27.053 71.2026 27.0181C71.2928 26.9834 71.3752 26.9311 71.4445 26.8645C71.5141 26.7979 71.5695 26.7183 71.6072 26.6303C71.6448 26.5423 71.6647 26.4478 71.6647 26.3523V16.9679C71.6629 16.8713 71.6416 16.7762 71.6022 16.6878C71.5628 16.5995 71.5059 16.5197 71.4349 16.4533C71.3635 16.3868 71.28 16.335 71.1884 16.3008C71.0968 16.2666 70.9991 16.2507 70.901 16.2541H70.9014ZM70.2017 23.1509V23.181C70.2084 23.8796 69.9342 24.5524 69.4383 25.0522C68.9428 25.5519 68.2662 25.8378 67.5572 25.8473C67.2087 25.8455 66.8638 25.7742 66.5442 25.6379C66.2241 25.5015 65.9353 25.3028 65.6956 25.0538C65.4555 24.8047 65.269 24.5104 65.1475 24.1886C65.0257 23.8667 64.9713 23.524 64.9877 23.181V23.1519C64.9877 21.5861 66.0483 20.4947 67.5572 20.4947C67.9092 20.4944 68.2573 20.5633 68.5819 20.6973C68.9062 20.8314 69.2003 21.028 69.4465 21.2755C69.693 21.523 69.8866 21.8165 70.0162 22.1387C70.1459 22.4609 70.2088 22.8054 70.2017 23.1519" fill="#1A1818"/>
<path d="M77.0324 19.1639C74.6526 19.1639 72.7903 20.9156 72.7903 23.1564V23.1823C72.7903 25.4001 74.6402 27.1423 77.0029 27.1423C79.3853 27.1423 81.2561 25.3899 81.2561 23.1564V23.1267C81.2561 20.903 79.3995 19.1639 77.0328 19.1639H77.0324ZM74.3269 23.1267C74.3166 22.7761 74.3784 22.4271 74.5087 22.1007C74.6391 21.7744 74.8352 21.4775 75.0852 21.2279C75.3356 20.9783 75.6344 20.7812 75.964 20.6485C76.2936 20.5159 76.647 20.4504 77.0029 20.4561C77.3624 20.4539 77.7183 20.5224 78.0504 20.6576C78.3825 20.7929 78.6838 20.9922 78.9367 21.2437C79.1896 21.4953 79.3885 21.7941 79.5227 22.1225C79.6566 22.451 79.7227 22.8025 79.7167 23.1564V23.1823C79.7252 23.5323 79.6616 23.8804 79.5298 24.2056C79.3981 24.5308 79.2009 24.8264 78.9502 25.0744C78.6994 25.3226 78.4003 25.5181 78.0707 25.6492C77.7411 25.7803 77.388 25.8444 77.0328 25.8375C76.6755 25.84 76.321 25.7723 75.9906 25.6383C75.6599 25.5042 75.3602 25.3066 75.108 25.0569C74.8561 24.8072 74.6572 24.5106 74.5229 24.1842C74.389 23.8579 74.3223 23.5085 74.3269 23.1564V23.1267Z" fill="#1A1818"/>
<path d="M86.3642 19.165C85.8937 19.1495 85.4257 19.2383 84.9949 19.425C84.5638 19.6116 84.181 19.8911 83.8746 20.2431V19.9688C83.8671 19.7764 83.7844 19.5944 83.6438 19.4609C83.5031 19.3274 83.3156 19.2528 83.12 19.2528C82.9247 19.2528 82.7372 19.3274 82.5965 19.4609C82.4556 19.5944 82.3732 19.7764 82.3657 19.9688V26.3295C82.3671 26.4262 82.3877 26.5216 82.4272 26.6102C82.4662 26.6988 82.523 26.7787 82.5941 26.8454C82.6651 26.9121 82.7489 26.9641 82.8405 26.9984C82.9325 27.0327 83.0301 27.0485 83.1281 27.045C83.2254 27.0487 83.3224 27.0329 83.4133 26.9984C83.5042 26.964 83.5869 26.9118 83.6565 26.8449C83.7265 26.7779 83.7815 26.6978 83.8192 26.6092C83.8565 26.5206 83.8749 26.4254 83.8739 26.3295V22.6173C83.8607 22.3339 83.9076 22.0509 84.0116 21.7864C84.1157 21.5219 84.2748 21.2817 84.4783 21.0811C84.6821 20.8806 84.9257 20.7241 85.1942 20.6217C85.4626 20.5192 85.7499 20.4731 86.0375 20.4863C87.2936 20.4863 88.0155 21.2298 88.0155 22.5308V26.3299C88.0166 26.4264 88.0372 26.5217 88.0762 26.6103C88.1153 26.6988 88.1717 26.7787 88.2428 26.8454C88.3134 26.9121 88.3972 26.9641 88.4888 26.9985C88.5801 27.0328 88.6778 27.0488 88.7758 27.0454C88.8731 27.0483 88.9697 27.0319 89.0602 26.9972C89.1511 26.9625 89.2335 26.9103 89.3035 26.8436C89.3731 26.7768 89.4288 26.6969 89.4665 26.6087C89.5045 26.5205 89.524 26.4257 89.524 26.3299V22.2652C89.524 20.3824 88.2811 19.1653 86.3635 19.1653" fill="#1A1818"/>
<path d="M94.4423 19.1639C93.9191 19.1669 93.4015 19.2728 92.9206 19.4753C92.4393 19.6778 92.0042 19.9729 91.6401 20.3433C91.2764 20.7137 90.9911 21.1519 90.8015 21.6322C90.6118 22.1126 90.5212 22.6254 90.5351 23.1407V23.168C90.5241 23.695 90.6221 24.2187 90.8224 24.7075C91.0228 25.1962 91.3218 25.6398 91.7015 26.0114C92.0809 26.3831 92.5331 26.675 93.0303 26.8695C93.5276 27.0641 94.0597 27.1572 94.5946 27.1434C95.1566 27.1619 95.7163 27.0697 96.2417 26.8721C96.7667 26.6745 97.2466 26.3756 97.6529 25.9928C97.7243 25.9352 97.7822 25.8629 97.8223 25.7812C97.8628 25.6994 97.8848 25.61 97.8866 25.519C97.8834 25.4331 97.8632 25.3486 97.8266 25.2704C97.7904 25.1923 97.7385 25.1219 97.6746 25.0634C97.6106 25.0049 97.5357 24.9594 97.4536 24.9295C97.3719 24.8996 97.2849 24.8859 97.1975 24.8892C97.0359 24.8919 96.8803 24.9501 96.7574 25.0537C96.1785 25.5851 95.4137 25.8759 94.6223 25.8651C94.0032 25.8819 93.3998 25.6711 92.9295 25.2738C92.4595 24.8765 92.1562 24.321 92.0788 23.7156H97.5158C97.7016 23.7186 97.8809 23.6492 98.0152 23.5225C98.1491 23.3959 98.2272 23.2222 98.2319 23.0392C98.2319 21.1164 96.9315 19.1649 94.443 19.1649L94.4423 19.1639ZM92.0788 22.5822C92.2887 21.2931 93.2239 20.4169 94.4131 20.4169C95.8801 20.4169 96.5489 21.4996 96.7042 22.5822H92.0788Z" fill="#1A1818"/>
<path d="M102.377 22.4696L102.347 22.4636C101.394 22.19 100.5 21.9321 100.5 21.3659V21.3401C100.5 20.8054 101.033 20.4408 101.827 20.4408C102.512 20.4614 103.182 20.6487 103.776 20.9859C103.883 21.0366 104 21.0629 104.12 21.0629C104.295 21.0692 104.466 21.0068 104.594 20.8892C104.723 20.7716 104.798 20.6085 104.805 20.4358C104.803 20.3132 104.767 20.1934 104.702 20.0888C104.636 19.9842 104.544 19.8987 104.434 19.841C103.639 19.4327 102.757 19.2125 101.86 19.1978C100.195 19.1978 99.0317 20.1248 99.0317 21.4548V21.4849C99.0317 22.9871 100.594 23.4038 101.733 23.7079C102.766 23.9801 103.55 24.236 103.55 24.8392V24.8679C103.55 25.4673 102.976 25.8652 102.113 25.8652C101.266 25.8493 100.442 25.5889 99.7434 25.1163C99.6301 25.038 99.4944 24.9975 99.3563 25.0012C99.215 24.9932 99.0747 25.0313 98.9575 25.1095C98.84 25.1877 98.7522 25.3018 98.7071 25.4341C98.662 25.5664 98.6624 25.7097 98.7082 25.8418C98.754 25.9738 98.8424 26.0874 98.9603 26.165C99.8758 26.7706 100.95 27.1004 102.053 27.1143C103.816 27.1143 105 26.1675 105 24.7541V24.7286C105 23.2128 103.423 22.7691 102.38 22.471" fill="#1A1818"/>
<path d="M107.042 19.2522C106.847 19.2499 106.659 19.3238 106.519 19.4578C106.379 19.5918 106.299 19.7749 106.296 19.9671V26.3278C106.297 26.4244 106.318 26.5197 106.357 26.6082C106.396 26.6967 106.453 26.7766 106.524 26.8432C106.595 26.9098 106.679 26.9618 106.77 26.9961C106.861 27.0303 106.959 27.0462 107.057 27.0427C107.154 27.0462 107.251 27.0302 107.342 26.9958C107.433 26.9614 107.516 26.9092 107.586 26.8425C107.656 26.7757 107.712 26.6957 107.749 26.6072C107.787 26.5188 107.806 26.4238 107.806 26.3278V19.9671C107.804 19.8705 107.783 19.7752 107.744 19.6868C107.705 19.5983 107.648 19.5185 107.577 19.452C107.506 19.3854 107.422 19.3334 107.33 19.2992C107.239 19.2649 107.141 19.2489 107.043 19.2522" fill="#1A1818"/>
<path d="M115.273 20.0768C114.67 19.511 113.782 19.2199 112.636 19.2199C111.737 19.2104 110.847 19.3842 110.02 19.7304C109.875 19.7841 109.754 19.8874 109.68 20.0214C109.605 20.1554 109.582 20.3112 109.615 20.4606C109.647 20.6099 109.733 20.7428 109.856 20.8351C109.98 20.9274 110.133 20.973 110.288 20.9635C110.381 20.9615 110.474 20.9439 110.562 20.9117C111.178 20.6461 111.843 20.5097 112.515 20.5111C113.493 20.5111 114.655 20.832 114.655 22.3453V22.3845C113.932 22.2047 113.187 22.1176 112.441 22.1256C110.277 22.1256 108.935 23.0931 108.935 24.653V24.6842C108.935 26.2882 110.486 27.1269 112.018 27.1269C112.502 27.1423 112.985 27.0627 113.437 26.8929C113.89 26.723 114.304 26.4662 114.655 26.1374V26.3666C114.656 26.4591 114.677 26.5504 114.715 26.635C114.753 26.7197 114.807 26.7958 114.876 26.859C114.945 26.9221 115.026 26.9709 115.114 27.0024C115.202 27.0339 115.296 27.0475 115.39 27.0422C115.485 27.0456 115.58 27.0299 115.669 26.996C115.758 26.9621 115.839 26.9108 115.907 26.8452C115.976 26.7795 116.03 26.7009 116.067 26.6141C116.103 26.5272 116.122 26.434 116.121 26.34V22.3331C116.146 21.9196 116.084 21.5053 115.938 21.1167C115.792 20.7282 115.566 20.374 115.273 20.0768H115.273ZM114.676 23.5336V24.1149C114.676 25.1517 113.629 25.9365 112.243 25.9365C111.386 25.9365 110.46 25.5285 110.46 24.6376V24.6138C110.46 23.7649 111.244 23.2611 112.559 23.2611C113.274 23.2611 113.986 23.3529 114.677 23.534" fill="#1A1818"/>
<path d="M0.0474316 35.5734C0.0485307 35.4747 0.0612808 35.3768 0.0854264 35.2816L0.527182 33.6526H0.136564L0.236348 33.289H0.63478L0.859918 32.4471H1.27681L1.04635 33.289H1.93412L1.83931 33.6526H0.947985L0.506941 35.2606C0.49785 35.3278 0.492278 35.3957 0.490251 35.4635C0.490251 35.6599 0.636555 35.7505 0.876253 35.7505C1.01773 35.7477 1.15735 35.7179 1.28747 35.6633L1.18093 36.0409C1.03929 36.0979 0.887304 36.1263 0.73421 36.1238C0.327611 36.1238 0.0456543 35.9328 0.0456543 35.5734" fill="#1A1818"/>
<path d="M0.736142 36.1718C0.283023 36.1718 0 35.9415 0 35.5724C0.00133015 35.4698 0.0145551 35.368 0.039417 35.2686L0.465546 33.699H0.0749299L0.200282 33.241H0.598005L0.822785 32.4012H1.33947L1.10794 33.241H1.9982L1.8771 33.699H0.98649L0.555389 35.2711C0.546667 35.3344 0.541451 35.3985 0.539764 35.4625C0.539764 35.6217 0.654109 35.7029 0.878182 35.7029C1.01376 35.7001 1.14748 35.6714 1.272 35.6185L1.36113 35.5832L1.22193 36.0731L1.20026 36.0822C1.05307 36.1424 0.895049 36.1721 0.735787 36.17L0.736142 36.1718ZM0.199572 33.6036H0.587707L0.132811 35.2907C0.10933 35.382 0.0967001 35.4761 0.0951707 35.5703C0.0951707 35.8852 0.335577 36.0745 0.734363 36.0745C0.873558 36.0766 1.01187 36.0521 1.14132 36.0017L1.2166 35.7368C1.10713 35.7743 0.992281 35.7942 0.876406 35.796C0.498216 35.796 0.442464 35.586 0.442464 35.4604C0.443587 35.3901 0.449162 35.3197 0.459154 35.2504L0.910852 33.6025H1.80217L1.87319 33.3327H0.984359L1.21553 32.4912H0.895937L0.670444 33.3327H0.273434L0.199572 33.6036Z" fill="#1A1818"/>
<path d="M2.98782 32.1406H3.40507L2.97504 33.7366C3.08962 33.5849 3.23738 33.4606 3.40735 33.3729C3.57732 33.2852 3.76517 33.2363 3.95693 33.2299C4.07557 33.22 4.19503 33.2352 4.30721 33.2746C4.41939 33.314 4.52169 33.3766 4.60724 33.4583C4.69282 33.5399 4.75965 33.6387 4.80322 33.7478C4.84683 33.8571 4.86615 33.9742 4.85997 34.0914C4.85297 34.238 4.8284 34.3833 4.78678 34.5242L4.37063 36.0727H3.94837L4.3777 34.4927C4.4049 34.3906 4.4191 34.2855 4.41999 34.1799C4.42418 34.0988 4.41029 34.0177 4.37929 33.9424C4.34833 33.8671 4.30096 33.7994 4.24059 33.7441C4.18018 33.6888 4.10824 33.6471 4.0298 33.6222C3.95135 33.5972 3.86829 33.5894 3.78644 33.5994C3.54143 33.6228 3.31036 33.7226 3.12683 33.8842C2.94329 34.0459 2.81685 34.261 2.76588 34.4983L2.33797 36.0731H1.91895L2.98782 32.1406Z" fill="#1A1818"/>
<path d="M4.40753 36.1214H3.88516L4.33118 34.4811C4.3554 34.3823 4.36861 34.2812 4.3706 34.1795C4.37464 34.1046 4.3619 34.0298 4.33327 33.9603C4.30465 33.8909 4.26083 33.8284 4.20497 33.7775C4.14912 33.7266 4.08257 33.6885 4.01002 33.6658C3.93751 33.6431 3.8608 33.6364 3.78538 33.6462C3.55057 33.6693 3.32937 33.7656 3.15394 33.9211C2.97851 34.0766 2.85798 34.2833 2.80989 34.5109L2.3731 36.1203H1.85571L1.87169 36.0608L2.95264 32.0905H3.46719L3.06841 33.5693C3.18229 33.4492 3.31964 33.353 3.4722 33.2866C3.62476 33.2201 3.78939 33.1847 3.95619 33.1826C4.08118 33.1719 4.20707 33.1879 4.32528 33.2293C4.4435 33.2707 4.55131 33.3366 4.64144 33.4226C4.73156 33.5087 4.80191 33.6128 4.84768 33.7279C4.89346 33.843 4.91363 33.9665 4.90681 34.0899C4.89925 34.2407 4.87446 34.3901 4.83295 34.5354L4.40753 36.1214ZM4.01194 36.0262H4.33438L4.74239 34.5112C4.78245 34.3745 4.80631 34.2335 4.81342 34.0913C4.81952 33.9801 4.80127 33.8689 4.75994 33.7653C4.7186 33.6617 4.65511 33.568 4.57382 33.4907C4.4925 33.4134 4.39528 33.3542 4.28871 33.3171C4.18214 33.2801 4.06872 33.2661 3.95619 33.276C3.77117 33.2826 3.59003 33.3301 3.42613 33.4149C3.26222 33.4997 3.11971 33.6196 3.0091 33.7659L2.87416 33.9142L3.3429 32.1832H3.02615L1.98071 36.023H2.30031L2.71791 34.4836C2.77204 34.2362 2.90483 34.0121 3.097 33.8442C3.28916 33.6762 3.53067 33.5731 3.78644 33.5496C3.87451 33.5397 3.96371 33.5488 4.04791 33.5762C4.13207 33.6036 4.20924 33.6486 4.27404 33.7082C4.33881 33.7678 4.3897 33.8406 4.42319 33.9215C4.45664 34.0024 4.47191 34.0894 4.4679 34.1767C4.46608 34.2865 4.45131 34.3957 4.42386 34.5021L4.01194 36.0262Z" fill="#1A1818"/>
<path d="M5.85781 34.9362C5.84957 35.0488 5.86605 35.1619 5.90607 35.2675C5.94613 35.3736 6.0088 35.4698 6.08987 35.5496C6.17094 35.6294 6.26853 35.6913 6.37598 35.7308C6.4834 35.77 6.59821 35.7865 6.71256 35.7784C7.03396 35.7788 7.34426 35.6622 7.58399 35.4512L7.80487 35.7235C7.49976 35.9943 7.10282 36.1423 6.69231 36.1392C6.529 36.1511 6.36494 36.1294 6.21079 36.0748C6.05667 36.0202 5.91594 35.9341 5.79783 35.8222C5.67972 35.7105 5.5869 35.5755 5.52539 35.4257C5.46389 35.2763 5.43513 35.1153 5.44091 34.9544C5.4385 34.5136 5.60796 34.089 5.91431 33.768C6.22066 33.4471 6.64043 33.2544 7.08684 33.2298C7.23215 33.2199 7.37792 33.2406 7.51443 33.2906C7.65096 33.3406 7.77507 33.4187 7.87855 33.5197C7.98203 33.6207 8.06243 33.7423 8.11445 33.8763C8.16647 34.0104 8.18892 34.1538 8.18022 34.2971C8.17894 34.4832 8.14282 34.6674 8.07368 34.8406H5.8642C5.8587 34.8721 5.85646 34.904 5.85746 34.9362H5.85781ZM7.74699 34.5052C7.76101 34.4361 7.76779 34.3658 7.76723 34.2953C7.77635 34.2008 7.76456 34.1055 7.73271 34.0159C7.70086 33.9263 7.64965 33.8446 7.58264 33.7764C7.51567 33.7082 7.43446 33.6551 7.34461 33.6207C7.25481 33.5864 7.1585 33.5717 7.06234 33.5776C6.79686 33.5902 6.54264 33.6873 6.33777 33.8542C6.13295 34.0211 5.98846 34.2489 5.92599 34.5035L7.74699 34.5052Z" fill="#1A1818"/>
<path d="M6.69231 36.1876C6.52253 36.2006 6.35198 36.1775 6.19179 36.1208C6.0316 36.0637 5.88544 35.9742 5.76292 35.8576C5.64038 35.7411 5.54421 35.6005 5.48079 35.4447C5.41733 35.289 5.388 35.1218 5.39475 34.9542C5.39372 34.502 5.5685 34.0665 5.8832 33.7373C6.19789 33.4081 6.6286 33.2101 7.08684 33.1841C7.23818 33.1749 7.38974 33.1973 7.53168 33.2499C7.67362 33.3024 7.8027 33.3838 7.91047 33.4889C8.01828 33.594 8.10237 33.7203 8.15724 33.8596C8.2121 33.9988 8.2365 34.148 8.22886 34.2972C8.22748 34.4888 8.19026 34.6788 8.11913 34.8569L8.10848 34.8856H5.90681C5.90681 34.9027 5.90681 34.9206 5.90681 34.9349C5.89939 35.0413 5.91519 35.148 5.95308 35.2474C5.99101 35.3471 6.05017 35.4377 6.12659 35.513C6.20301 35.5882 6.29491 35.6466 6.39612 35.6837C6.49732 35.7212 6.60549 35.7366 6.71326 35.7292C7.02373 35.7299 7.32355 35.6176 7.55558 35.4143L7.59322 35.3839L7.87162 35.7285L7.83611 35.7593C7.52326 36.0372 7.11634 36.1901 6.69515 36.1873L6.69231 36.1876ZM7.08968 33.2775C6.65637 33.3028 6.24931 33.4906 5.95216 33.8024C5.65497 34.1142 5.4902 34.5262 5.49169 34.9538C5.48597 35.1088 5.51357 35.2635 5.57262 35.4073C5.63171 35.5508 5.72095 35.6806 5.83455 35.788C5.94811 35.8954 6.08341 35.978 6.23159 36.0302C6.37982 36.0823 6.53752 36.1033 6.69444 36.091C7.07746 36.0945 7.4488 35.9612 7.73988 35.7159L7.57866 35.5172C7.33694 35.7184 7.03027 35.8276 6.71397 35.8255C6.59338 35.8339 6.47239 35.8164 6.35918 35.7744C6.24601 35.7327 6.14324 35.6673 6.0578 35.583C5.9724 35.4986 5.90632 35.3975 5.86406 35.2859C5.82176 35.1743 5.80426 35.0549 5.81271 34.936C5.81171 34.901 5.8142 34.8656 5.82017 34.831L5.83046 34.7939H8.04456C8.10362 34.635 8.13447 34.4672 8.13582 34.2978C8.1447 34.1607 8.12364 34.0233 8.07404 33.8949C8.02443 33.7665 7.94744 33.6501 7.84829 33.5535C7.74915 33.4568 7.63011 33.3823 7.49926 33.3349C7.3684 33.2875 7.22874 33.2683 7.08968 33.2786V33.2775ZM7.78888 34.5537H5.86349L5.88195 34.4924C5.94623 34.2273 6.09651 33.9901 6.31 33.8169C6.52349 33.6436 6.78847 33.5437 7.06482 33.5322C7.16744 33.5259 7.27025 33.5416 7.36616 33.5782C7.46204 33.6148 7.54876 33.6714 7.62035 33.7441C7.6919 33.8169 7.74663 33.9041 7.78075 33.9997C7.81488 34.0952 7.82759 34.1969 7.818 34.2978C7.8185 34.3711 7.81147 34.4443 7.79705 34.5162L7.78888 34.5537ZM5.99523 34.4584H7.70898C7.7174 34.4053 7.72109 34.3516 7.71999 34.2978C7.72884 34.2097 7.71818 34.1207 7.68874 34.0371C7.65927 33.9534 7.61176 33.877 7.54943 33.8132C7.48711 33.7494 7.41147 33.6996 7.32774 33.6675C7.24401 33.6353 7.1542 33.6214 7.06446 33.6267C6.81997 33.6366 6.58489 33.7223 6.39281 33.8717C6.20074 34.021 6.06146 34.2264 5.99488 34.4584" fill="#1A1818"/>
<path d="M10.5659 33.2882H10.9991L11.1437 35.5082L12.5094 33.2783H12.8603L13.0169 35.5082L14.378 33.2882H14.818L13.0577 36.0978H12.6856L12.5211 33.8967L11.1604 36.0978H10.7907L10.5659 33.2882Z" fill="#1A1818"/>
<path d="M13.0831 36.1456H12.6403L12.484 34.0459L11.1865 36.1456H10.7468L10.5132 33.2411H11.0434L11.1804 35.354L12.4823 33.2306H12.9045L13.0554 35.3565L14.3519 33.2411H14.9038L13.0831 36.1456ZM12.728 36.0504H13.0291L14.7297 33.3356H14.4031L12.9787 35.6592L12.8139 33.3254H12.5341L11.1031 35.6606L10.9517 33.3356H10.6151L10.8342 36.0504H11.1314L12.5572 33.7471L12.728 36.0504Z" fill="#1A1818"/>
<path d="M14.8719 34.8864C14.88 34.453 15.057 34.0391 15.3663 33.7306C15.6756 33.4221 16.0935 33.2426 16.5334 33.2294C16.703 33.2194 16.8729 33.2446 17.032 33.3032C17.1911 33.3619 17.336 33.4528 17.4572 33.5701C17.5786 33.6873 17.6735 33.8283 17.7361 33.9839C17.7988 34.1395 17.8276 34.3064 17.8207 34.4737C17.8127 34.9085 17.6355 35.3238 17.3258 35.6335C17.016 35.9432 16.5974 36.1241 16.1563 36.1384C15.9863 36.1482 15.8161 36.1223 15.6568 36.0629C15.4975 36.0034 15.3527 35.9117 15.2316 35.7938C15.1105 35.6758 15.016 35.5338 14.954 35.3777C14.892 35.2213 14.8641 35.0537 14.8719 34.8861V34.8864ZM17.3932 34.4874C17.4035 34.369 17.3878 34.2498 17.3472 34.1379C17.3065 34.0261 17.2418 33.9243 17.1575 33.8393C17.0732 33.7544 16.9714 33.6884 16.8588 33.6458C16.7463 33.6032 16.6257 33.5851 16.5054 33.5926C16.1769 33.6187 15.8703 33.7652 15.6462 34.0033C15.4221 34.2413 15.2967 34.5535 15.2948 34.878C15.2846 34.996 15.3003 35.1146 15.3409 35.2259C15.3816 35.3371 15.4462 35.4386 15.5303 35.5229C15.6145 35.6073 15.7162 35.6727 15.8284 35.7147C15.9406 35.7567 16.0607 35.7742 16.1805 35.7661C16.5087 35.7423 16.8159 35.5975 17.0405 35.3606C17.2651 35.1233 17.3908 34.8116 17.3924 34.4874" fill="#1A1818"/>
<path d="M16.1563 36.1874C15.9799 36.1965 15.8036 36.1692 15.6385 36.107C15.4735 36.045 15.3234 35.9498 15.1978 35.8274C15.0722 35.7049 14.9739 35.5579 14.9092 35.3959C14.8445 35.2339 14.8147 35.0607 14.8218 34.8868C14.8308 34.4406 15.0133 34.0148 15.3317 33.6976C15.6502 33.3804 16.0801 33.1958 16.5327 33.1822C16.7086 33.1726 16.8844 33.1992 17.0492 33.2604C17.214 33.3216 17.3639 33.416 17.4896 33.5375C17.6152 33.6591 17.7137 33.8051 17.7788 33.9663C17.8439 34.1276 17.8742 34.3004 17.8676 34.4737C17.8596 34.9211 17.6776 35.3483 17.3592 35.6675C17.0408 35.9866 16.6102 36.1731 16.1563 36.1885V36.1874ZM16.5327 33.277C16.1058 33.2909 15.7006 33.4655 15.4004 33.765C15.1002 34.0644 14.928 34.4659 14.9191 34.8868C14.9124 35.0478 14.9399 35.2087 15 35.3588C15.06 35.5089 15.1512 35.6451 15.2677 35.7584C15.3842 35.8718 15.5235 35.96 15.6765 36.0174C15.8296 36.0744 15.9932 36.0996 16.1567 36.0909C16.5851 36.0776 16.9918 35.9019 17.2925 35.601C17.5931 35.3 17.7647 34.8962 17.7717 34.4741C17.7796 34.3128 17.7528 34.1516 17.693 34.0012C17.6332 33.8508 17.5418 33.7146 17.4248 33.6015C17.3078 33.4884 17.1678 33.4009 17.0141 33.3449C16.8603 33.2888 16.6963 33.2655 16.5327 33.2763V33.277ZM16.1805 35.8137C16.0546 35.8214 15.9284 35.8025 15.8106 35.7581C15.6927 35.7137 15.5859 35.6447 15.4974 35.5562C15.4089 35.4677 15.3408 35.3613 15.2976 35.2444C15.2545 35.1275 15.2373 35.003 15.2473 34.8788C15.2483 34.5418 15.3783 34.2174 15.6114 33.9706C15.8445 33.7238 16.1635 33.5727 16.5047 33.5475C16.6311 33.54 16.7577 33.5594 16.8759 33.6043C16.9941 33.6493 17.1011 33.7187 17.1896 33.8079C17.2782 33.8971 17.3463 34.0041 17.3892 34.1215C17.4322 34.2389 17.449 34.364 17.4386 34.4884C17.437 34.8249 17.3064 35.1485 17.0731 35.3942C16.8397 35.6402 16.5208 35.7899 16.1801 35.8137H16.1805ZM16.5043 33.6416C16.188 33.6661 15.8927 33.807 15.677 34.0363C15.4614 34.2657 15.3413 34.5667 15.3407 34.8795C15.3306 34.9911 15.3453 35.1037 15.3837 35.2094C15.4221 35.3151 15.4834 35.4113 15.5632 35.4911C15.643 35.5712 15.7395 35.6335 15.846 35.6731C15.9525 35.713 16.0665 35.7294 16.1801 35.7217C16.4961 35.6983 16.7916 35.5583 17.0074 35.3298C17.2233 35.1013 17.3435 34.8007 17.3442 34.4884C17.3548 34.3763 17.3405 34.2631 17.3024 34.157C17.2642 34.0508 17.2031 33.954 17.1231 33.8735C17.0432 33.7929 16.9465 33.7304 16.8397 33.6904C16.7328 33.6504 16.6184 33.6337 16.5043 33.6416Z" fill="#1A1818"/>
<path d="M18.9381 33.2882H19.3596L19.17 34.016C19.3028 33.7799 19.4976 33.5833 19.734 33.4468C19.9704 33.3104 20.2397 33.2392 20.5137 33.2406L20.3962 33.6878H20.3653C19.7456 33.6878 19.1277 34.1298 18.9047 34.9749L18.6057 36.0719H18.1846L18.9381 33.2882Z" fill="#1A1818"/>
<path d="M18.6427 36.1216H18.1243L18.9023 33.2413H19.4225L19.2759 33.8011C19.4083 33.6196 19.5811 33.4702 19.781 33.3645C19.9808 33.2587 20.2026 33.1991 20.4293 33.1905C20.457 33.1905 20.4879 33.1905 20.5177 33.1937L20.5756 33.1979L20.4335 33.7336H20.3661C19.7091 33.7336 19.1537 34.2235 18.9524 34.984L18.6427 36.1216ZM18.2468 36.026H18.5696L18.8586 34.9616C19.0717 34.1626 19.659 33.6444 20.359 33.6405L20.452 33.2864C20.1964 33.2976 19.9479 33.3729 19.7299 33.5051C19.512 33.6373 19.3319 33.822 19.2066 34.0419L19.0561 34.2564L19.2983 33.3357H18.9737L18.2468 36.026Z" fill="#1A1818"/>
<path d="M21.4961 32.1406H21.9155L20.8442 36.0731H20.4241L21.4961 32.1406Z" fill="#1A1818"/>
<path d="M20.8816 36.1212H20.3606L21.4615 32.0914H21.9767L21.9628 32.1498L20.8816 36.1212ZM20.4863 36.026H20.8081L21.8535 32.1862H21.5339L20.4863 36.026Z" fill="#1A1818"/>
<path d="M22.0097 34.9604C21.9912 34.5246 22.1468 34.0992 22.4433 33.7755C22.7397 33.4517 23.1533 33.2556 23.5949 33.2292C23.8233 33.2184 24.0492 33.2797 24.2397 33.4041C24.4303 33.5286 24.5756 33.7096 24.6546 33.921L25.1357 32.1406H25.558L24.4926 36.0728H24.0665L24.1958 35.6C24.0695 35.762 23.9082 35.8943 23.7236 35.9877C23.539 36.0808 23.3357 36.1326 23.1283 36.1392C22.9744 36.1399 22.822 36.1095 22.6806 36.0493C22.5392 35.9895 22.412 35.9013 22.3067 35.7907C22.2016 35.6798 22.1207 35.5489 22.0693 35.4058C22.0179 35.263 21.997 35.1112 22.008 34.96L22.0097 34.9604ZM24.5083 34.4574C24.5117 34.3429 24.4914 34.2289 24.4485 34.1225C24.4055 34.0161 24.341 33.9194 24.2588 33.8385C24.1766 33.7575 24.0784 33.694 23.9704 33.6518C23.8623 33.6096 23.7466 33.5896 23.6304 33.5931C23.2953 33.6164 22.9829 33.7691 22.7614 34.0181C22.5399 34.2671 22.4271 34.5923 22.4476 34.9229C22.437 35.0321 22.45 35.1423 22.4858 35.2463C22.5215 35.3502 22.5793 35.4457 22.6552 35.5258C22.7311 35.6063 22.8235 35.6697 22.9261 35.7123C23.0288 35.755 23.1395 35.7757 23.2508 35.7732C23.5878 35.7445 23.9023 35.5944 24.1342 35.3519C24.3662 35.1094 24.4993 34.7914 24.5083 34.4581" fill="#1A1818"/>
<path d="M23.1303 36.1871C22.9706 36.1871 22.8126 36.1549 22.666 36.0922C22.5194 36.03 22.3874 35.9383 22.2781 35.8235C22.1688 35.7087 22.0845 35.5733 22.0304 35.425C21.9764 35.2769 21.9537 35.1195 21.9638 34.9624C21.9478 34.5148 22.1094 34.0787 22.4144 33.7466C22.7194 33.4144 23.1437 33.2124 23.5973 33.1835C23.8122 33.1737 24.0254 33.2252 24.2113 33.3318C24.3973 33.4383 24.5482 33.5955 24.6459 33.7843L25.1005 32.0932H25.6228L24.5316 36.1216H24.007L24.104 35.7682C23.9783 35.8987 23.8274 36.003 23.6602 36.0751C23.493 36.1472 23.3128 36.1857 23.1303 36.1881V36.1871ZM23.5959 33.277C23.1676 33.3059 22.7676 33.498 22.4806 33.8126C22.1936 34.1272 22.0421 34.5394 22.0583 34.962C22.0466 35.1072 22.0658 35.2531 22.1146 35.3903C22.1634 35.5278 22.2407 35.6538 22.3415 35.7598C22.4424 35.8662 22.5646 35.9505 22.7004 36.0079C22.8362 36.065 22.9826 36.0936 23.1303 36.0919C23.3309 36.0863 23.5277 36.0363 23.7062 35.946C23.8848 35.8557 24.0406 35.7273 24.1623 35.5698L24.2983 35.4183L24.1321 36.0275H24.4581L25.4971 32.1866H25.1736L24.6647 34.0688L24.6115 33.939C24.5349 33.737 24.3953 33.5641 24.2127 33.4452C24.0302 33.3264 23.8141 33.2676 23.5955 33.2773L23.5959 33.277ZM23.2521 35.8204C23.1346 35.8228 23.0178 35.8011 22.9095 35.756C22.8012 35.7108 22.7038 35.6437 22.6236 35.559C22.5434 35.4743 22.4824 35.3739 22.4443 35.2643C22.4063 35.1545 22.3923 35.0383 22.403 34.9228C22.3826 34.5804 22.5003 34.2438 22.7304 33.9863C22.9606 33.7288 23.2847 33.5713 23.6321 33.5481C23.7547 33.5437 23.8769 33.5642 23.9911 33.6083C24.1054 33.6524 24.2091 33.7192 24.2961 33.8045C24.383 33.8899 24.4511 33.9919 24.4963 34.1043C24.5414 34.2167 24.5626 34.3371 24.5586 34.4579C24.5508 34.8042 24.4129 35.1352 24.1715 35.3868C23.9301 35.6384 23.6025 35.7931 23.2521 35.82V35.8204ZM23.6321 33.6416C23.31 33.6649 23.0103 33.8125 22.798 34.0524C22.5858 34.2923 22.4781 34.605 22.4986 34.9225C22.4886 35.0254 22.5007 35.1293 22.5342 35.2273C22.5677 35.3252 22.6217 35.4148 22.6928 35.4911C22.7639 35.567 22.8505 35.6272 22.9469 35.6678C23.0433 35.7087 23.1473 35.729 23.2521 35.7273C23.5763 35.6979 23.8783 35.5527 24.1014 35.3193C24.3245 35.0855 24.4532 34.7797 24.4634 34.4589C24.4669 34.3506 24.4479 34.2426 24.4074 34.1419C24.3668 34.041 24.3057 33.9495 24.2278 33.873C24.1499 33.7965 24.0568 33.7365 23.9544 33.6968C23.852 33.6572 23.7424 33.6387 23.6324 33.6426" fill="#1A1818"/>
<path d="M27.8716 33.2894H28.2913L27.5292 36.0732H27.1138L27.8716 33.2894ZM28.1329 32.2201H28.6148L28.4891 32.6802H28.0065L28.1329 32.2201Z" fill="#1A1818"/>
<path d="M27.565 36.1197H27.0498L27.8335 33.2411H28.3534L27.565 36.1197ZM27.1744 36.0259H27.4909L28.2288 33.3352H27.907L27.1744 36.0259ZM28.5239 32.727H27.9422L28.0959 32.1724H28.6755L28.5239 32.727ZM28.0672 32.6311H28.451L28.5512 32.2655H28.1691L28.0672 32.6311Z" fill="#1A1818"/>
<path d="M29.1654 33.2889H29.5886L29.4664 33.7361C29.5822 33.5846 29.7309 33.4605 29.9015 33.3729C30.0722 33.2852 30.2606 33.2362 30.4529 33.2295C30.5716 33.2193 30.691 33.2345 30.8031 33.2738C30.9153 33.3132 31.0176 33.3758 31.103 33.4575C31.1885 33.5392 31.255 33.6381 31.2983 33.7474C31.3416 33.8566 31.3606 33.9738 31.3538 34.0909C31.3457 34.2373 31.3219 34.3824 31.2828 34.5238L30.8663 36.0727H30.4451L30.8755 34.4927C30.8999 34.39 30.9132 34.2852 30.915 34.1798C30.9193 34.0985 30.9054 34.0173 30.8743 33.9419C30.8433 33.8664 30.7958 33.7986 30.7352 33.7432C30.6747 33.6879 30.6025 33.6463 30.5238 33.6214C30.4452 33.5966 30.362 33.589 30.28 33.5993C30.0351 33.6228 29.8041 33.7227 29.6206 33.8843C29.4372 34.0459 29.3108 34.261 29.2598 34.4982L28.8336 36.073H28.4128L29.1654 33.2889Z" fill="#1A1818"/>
<path d="M30.9022 36.1217H30.3855L30.8298 34.4814C30.8541 34.3827 30.8669 34.2815 30.8678 34.1798C30.8725 34.1046 30.8601 34.0293 30.8315 33.9594C30.803 33.8894 30.759 33.8266 30.7027 33.7756C30.6465 33.7245 30.5794 33.6865 30.5064 33.6641C30.4333 33.6418 30.3561 33.6358 30.2804 33.6465C30.0458 33.6698 29.8249 33.7661 29.6497 33.9216C29.4745 34.0771 29.3542 34.2837 29.3064 34.5111L28.8717 36.1207H28.3494L29.1306 33.2406H29.6523L29.5624 33.5703C29.6769 33.4498 29.8149 33.3534 29.9681 33.2869C30.1213 33.2203 30.2866 33.185 30.4541 33.1829C30.5789 33.1724 30.7046 33.1885 30.8226 33.23C30.9406 33.2715 31.0482 33.3375 31.1381 33.4236C31.228 33.5096 31.298 33.6136 31.3436 33.7286C31.3892 33.8436 31.4092 33.9669 31.4022 34.0902C31.3946 34.2398 31.3708 34.3882 31.3312 34.5328L30.9022 36.1217ZM30.5095 36.0265H30.8291L31.2346 34.5111C31.2735 34.3741 31.2973 34.2333 31.3056 34.0913C31.3117 33.9806 31.2936 33.87 31.2525 33.7668C31.2114 33.6636 31.1483 33.5703 31.0676 33.4932C30.9868 33.4161 30.8902 33.3569 30.7842 33.3197C30.6783 33.2826 30.5654 33.2683 30.4534 33.2777C30.268 33.2849 30.0866 33.3326 29.9223 33.4173C29.7579 33.502 29.6147 33.6216 29.5031 33.7676L29.3689 33.9146L29.528 33.3348H29.2038L28.4757 36.0251H28.7975L29.2144 34.4856C29.2679 34.2385 29.4001 34.0146 29.5917 33.8467C29.7834 33.6787 30.0244 33.5753 30.2797 33.5517C30.3679 33.5417 30.4572 33.5507 30.5415 33.578C30.6259 33.6053 30.7032 33.6503 30.7681 33.7099C30.833 33.7695 30.8841 33.8423 30.9178 33.9233C30.9514 34.0042 30.9668 34.0914 30.9629 34.1788C30.9614 34.2886 30.9471 34.3979 30.9203 34.5045L30.5095 36.0265Z" fill="#1A1818"/>
<path d="M32.8843 36.7582L33.1172 36.4454C33.2439 36.5335 33.3944 36.5822 33.5494 36.5853C33.7894 36.5853 34.0025 36.4636 34.2859 36.0692L33.7703 33.2896H34.211L34.6069 35.6119L36.1221 33.2896H36.6004L34.6651 36.1672C34.2656 36.7431 33.9265 36.9517 33.505 36.9517C33.283 36.9527 33.0662 36.8852 32.8846 36.7596" fill="#1A1818"/>
<path d="M33.5044 37C33.2721 37.0004 33.0454 36.9293 32.8559 36.7971L32.8162 36.7705L33.1084 36.3803L33.1468 36.4111C33.2652 36.4912 33.405 36.5357 33.5488 36.5388C33.7874 36.5388 33.9866 36.3989 34.2341 36.0594L33.7125 33.2424H34.2487L34.6315 35.4821L36.0942 33.2424H36.6883L34.7043 36.1927C34.3059 36.7666 33.9586 37 33.5037 37H33.5044ZM32.9526 36.7463C33.1165 36.8513 33.3081 36.9069 33.5037 36.9062C33.9231 36.9062 34.2476 36.6819 34.6248 36.1392L36.5104 33.3362H36.1478L34.5811 35.7393L34.1706 33.3362H33.8286L34.3364 36.0815L34.3254 36.0955C34.0509 36.4769 33.8283 36.6322 33.5502 36.6322C33.4015 36.6291 33.2562 36.5882 33.1287 36.5129L32.9526 36.7463Z" fill="#1A1818"/>
<path d="M36.5828 34.8867C36.5917 34.4526 36.7696 34.0386 37.0792 33.7302C37.3892 33.4218 37.8076 33.2425 38.2479 33.2294C38.4176 33.2194 38.5874 33.2446 38.7468 33.3033C38.9059 33.3619 39.0512 33.4527 39.1726 33.57C39.294 33.6872 39.3892 33.8281 39.4521 33.9837C39.5149 34.1394 39.544 34.3063 39.5377 34.4737C39.5288 34.9091 39.3505 35.3241 39.0401 35.6341C38.7294 35.9438 38.3104 36.1243 37.8686 36.1387C37.6985 36.1478 37.5285 36.1215 37.3694 36.0621C37.2099 36.0026 37.065 35.9109 36.9439 35.793C36.8225 35.6751 36.7277 35.5333 36.6655 35.3773C36.603 35.2212 36.5743 35.054 36.5814 34.8863L36.5828 34.8867ZM39.1026 34.4873C39.1133 34.3695 39.098 34.2509 39.0579 34.1394C39.0178 34.028 38.9535 33.9263 38.87 33.8414C38.7866 33.7564 38.6857 33.6902 38.5739 33.6472C38.462 33.6041 38.342 33.5852 38.2223 33.5919C37.8942 33.6182 37.5881 33.7649 37.3644 34.003C37.141 34.241 37.016 34.5531 37.015 34.8776C37.0043 34.9955 37.0199 35.1141 37.0604 35.2258C37.1009 35.337 37.1655 35.4385 37.2497 35.5232C37.3339 35.6075 37.4358 35.673 37.548 35.7146C37.6606 35.7566 37.7809 35.7741 37.9006 35.7657C38.228 35.7408 38.5345 35.5956 38.7582 35.3587C38.9819 35.1218 39.1069 34.8104 39.108 34.4866" fill="#1A1818"/>
<path d="M37.8696 36.1876C37.6932 36.1964 37.5167 36.1691 37.3515 36.1072C37.1864 36.0449 37.0362 35.9497 36.9105 35.8272C36.7848 35.7051 36.6864 35.5581 36.6214 35.3961C36.5568 35.2341 36.5266 35.0606 36.5337 34.8867C36.5433 34.4402 36.7262 34.0145 37.0451 33.6973C37.3636 33.3801 37.794 33.1957 38.2468 33.182C38.4229 33.1722 38.599 33.1986 38.7638 33.2597C38.9289 33.3208 39.0791 33.4151 39.2052 33.5367C39.3309 33.6583 39.4296 33.8044 39.495 33.9657C39.5603 34.1271 39.5905 34.3 39.5841 34.4736C39.5759 34.9213 39.3934 35.3492 39.0742 35.668C38.7553 35.9871 38.3238 36.1733 37.8696 36.1883V36.1876ZM38.2468 33.2769C37.8196 33.2901 37.4137 33.4645 37.1129 33.764C36.8121 34.0635 36.6396 34.4653 36.6307 34.8867C36.6243 35.048 36.652 35.2086 36.712 35.3587C36.772 35.5088 36.8636 35.6453 36.9801 35.7586C37.0966 35.872 37.2361 35.9598 37.3892 36.0172C37.5426 36.0746 37.7059 36.0995 37.8696 36.0911C38.2986 36.0778 38.7063 35.9028 39.0078 35.6015C39.3093 35.3006 39.4818 34.8968 39.4896 34.4739C39.4953 34.3128 39.4669 34.1523 39.4062 34.0027C39.3455 33.853 39.2535 33.7175 39.1367 33.6048C39.0195 33.4921 38.8799 33.4046 38.7269 33.348C38.5735 33.2915 38.4101 33.267 38.2468 33.2762V33.2769ZM37.8963 35.8136C37.7706 35.8209 37.6445 35.802 37.5266 35.7576C37.4087 35.7132 37.3022 35.6442 37.2138 35.5557C37.1253 35.4668 37.0572 35.3608 37.0142 35.2439C36.9709 35.127 36.9535 35.0028 36.9634 34.879C36.9645 34.5418 37.0944 34.2176 37.327 33.9708C37.56 33.724 37.8789 33.5728 38.2198 33.5474C38.3462 33.54 38.4726 33.5595 38.5909 33.6044C38.7091 33.6494 38.816 33.7188 38.9044 33.808C38.9929 33.8972 39.061 34.0041 39.104 34.1215C39.147 34.2388 39.164 34.3639 39.1537 34.4883C39.1523 34.8247 39.022 35.1484 38.7887 35.394C38.5557 35.6397 38.2368 35.7898 37.8963 35.8139V35.8136ZM38.2198 33.6415C37.9037 33.6662 37.609 33.8073 37.3938 34.0367C37.179 34.2661 37.0593 34.5669 37.0593 34.8793C37.049 34.9909 37.0636 35.1033 37.1016 35.2089C37.1399 35.3143 37.201 35.4105 37.2805 35.4906C37.3601 35.5707 37.4563 35.6327 37.5625 35.6726C37.6687 35.7125 37.7826 35.7292 37.8959 35.7215C38.2116 35.6981 38.5067 35.5578 38.7223 35.3293C38.9378 35.1005 39.0575 34.8002 39.0578 34.4883C39.0685 34.3762 39.0543 34.2632 39.0163 34.1571C38.9783 34.051 38.9172 33.9544 38.8373 33.8738C38.7578 33.7932 38.6612 33.7307 38.5543 33.6906C38.4478 33.6505 38.3334 33.6337 38.2194 33.6415" fill="#1A1818"/>
<path d="M40.1138 35.2694C40.1202 35.1242 40.144 34.9797 40.1848 34.8397L40.6003 33.288H41.0193L40.5879 34.8667C40.5648 34.9685 40.5516 35.0724 40.5488 35.1767C40.5445 35.2579 40.558 35.339 40.5886 35.4143C40.6191 35.4899 40.666 35.5577 40.7256 35.6134C40.7857 35.6694 40.857 35.7117 40.9352 35.7376C41.0133 35.7635 41.096 35.7722 41.178 35.7631C41.4248 35.74 41.6574 35.6389 41.841 35.4752C42.0246 35.3111 42.1496 35.0931 42.1976 34.8537L42.6304 33.2863H43.0505L42.2945 36.0697H41.8741L41.9983 35.6151C41.8833 35.768 41.7345 35.8937 41.5637 35.9822C41.3925 36.0711 41.2033 36.1208 41.0101 36.1278C40.8918 36.1376 40.7725 36.1222 40.661 36.0826C40.5491 36.0431 40.4472 35.9804 40.362 35.8986C40.2771 35.817 40.2107 35.7184 40.1681 35.6092C40.1252 35.5 40.1067 35.3828 40.1138 35.2659" fill="#1A1818"/>
<path d="M41.0097 36.1785C40.8851 36.1883 40.7594 36.1719 40.6415 36.1302C40.524 36.0882 40.4167 36.0221 40.3269 35.9357C40.2374 35.8496 40.1678 35.7453 40.1227 35.6302C40.0776 35.5151 40.0581 35.3919 40.0655 35.2687C40.0705 35.1193 40.0943 34.9713 40.1365 34.8278L40.5605 33.2404H41.0797L40.6319 34.8772C40.6106 34.9758 40.5989 35.0763 40.5964 35.1774C40.5918 35.2519 40.6039 35.3268 40.6319 35.3964C40.66 35.4661 40.7033 35.5291 40.7587 35.5805C40.8141 35.6319 40.8801 35.6704 40.9522 35.6939C41.0247 35.7173 41.101 35.7247 41.1766 35.7159C41.4124 35.6914 41.6344 35.5935 41.8098 35.436C41.9849 35.2785 42.1045 35.07 42.1511 34.8411L42.5935 33.239H43.1102L42.329 36.1173H41.8105L41.9011 35.7838C41.7867 35.9049 41.6489 36.0018 41.4955 36.0693C41.3421 36.1365 41.1766 36.1726 41.0087 36.175L41.0097 36.1785ZM40.6344 33.3329L40.2285 34.8488C40.1887 34.9853 40.1657 35.1263 40.16 35.2687C40.1525 35.3793 40.1692 35.4906 40.2097 35.5942C40.2498 35.6977 40.3127 35.7915 40.3933 35.8692C40.4739 35.9465 40.5708 36.0057 40.677 36.0427C40.7835 36.0795 40.8965 36.0931 41.0087 36.083C41.1951 36.0753 41.3773 36.027 41.5424 35.9413C41.7072 35.8555 41.8506 35.7345 41.9621 35.5875L42.0967 35.437L41.9362 36.0249H42.2558L42.9859 33.3343H42.6663L42.2441 34.8684C42.1912 35.1165 42.0594 35.3415 41.868 35.5109C41.6763 35.6802 41.4348 35.7852 41.1788 35.81C41.0907 35.8188 41.0019 35.809 40.9181 35.7807C40.8343 35.7527 40.7576 35.7068 40.6937 35.647C40.6294 35.5868 40.5794 35.5137 40.5467 35.4328C40.514 35.3517 40.4995 35.2645 40.5041 35.1778C40.5069 35.0693 40.5201 34.9615 40.5428 34.8555L40.959 33.3346L40.6344 33.3329Z" fill="#1A1818"/>
<path d="M43.9855 33.2882H44.406L44.2181 34.0161C44.3506 33.7795 44.5455 33.5825 44.7824 33.446C45.0189 33.3096 45.2888 33.2386 45.5629 33.2407L45.4415 33.6879H45.4123C44.7937 33.6879 44.1766 34.1298 43.9511 34.975L43.6531 36.0717H43.2295L43.9855 33.2882Z" fill="#1A1818"/>
<path d="M43.6905 36.1218H43.1685L43.9497 33.2417H44.4682L44.3243 33.7995C44.4643 33.6049 44.651 33.4477 44.868 33.3421C45.085 33.2365 45.3254 33.1859 45.5672 33.1949L45.6255 33.1987L45.4816 33.7348H45.4156C44.7583 33.7348 44.2036 34.2247 44.0005 34.9849L43.6905 36.1218ZM43.2942 36.0266H43.6166L43.9046 34.9621C44.1177 34.1634 44.7071 33.6452 45.4064 33.6414L45.5019 33.2872C45.2462 33.298 44.9973 33.3732 44.7796 33.5055C44.5616 33.6378 44.3815 33.8228 44.2569 34.043L44.1049 34.2576L44.3449 33.337H44.0225L43.2942 36.0266Z" fill="#1A1818"/>
<path d="M48.1289 32.1406H48.5465L48.1119 33.7366C48.2273 33.5853 48.3754 33.4613 48.5454 33.3737C48.7159 33.286 48.9038 33.2369 49.0955 33.2299C49.2145 33.2193 49.3341 33.2341 49.4471 33.2732C49.5596 33.3123 49.6623 33.3749 49.7482 33.4566C49.8341 33.5383 49.9013 33.6373 49.9449 33.7469C49.9883 33.8564 50.0074 33.9739 50.001 34.0914C49.9939 34.2378 49.9701 34.3831 49.93 34.5242L49.5149 36.0727H49.0927L49.5188 34.4927C49.5486 34.391 49.5635 34.2857 49.5635 34.1799C49.5671 34.0986 49.5529 34.0176 49.5216 33.9423C49.49 33.8671 49.4424 33.7995 49.3817 33.7442C49.3214 33.6889 49.2493 33.6473 49.1704 33.6223C49.092 33.5973 49.0089 33.5895 48.9268 33.5994C48.6815 33.623 48.4503 33.7228 48.2663 33.8844C48.0824 34.0459 47.9549 34.261 47.9031 34.4983L47.4769 36.0731H47.0593L48.1289 32.1406Z" fill="#1A1818"/>
<path d="M49.5483 36.1212H49.0292L49.4706 34.4813C49.499 34.3829 49.5142 34.2813 49.5153 34.179C49.5189 34.1038 49.5057 34.0287 49.4766 33.9591C49.4475 33.8895 49.4035 33.8271 49.347 33.7762C49.2909 33.7253 49.2238 33.6872 49.151 33.6647C49.0782 33.6421 49.0011 33.6357 48.9255 33.6457C48.6904 33.6689 48.4692 33.7652 48.2937 33.9206C48.118 34.0761 47.9972 34.2827 47.9489 34.5103L47.5139 36.1201H46.9951L47.0125 36.0603L48.0924 32.0914H48.6098L48.2064 33.5701C48.3204 33.4502 48.4578 33.3543 48.6105 33.2879C48.7628 33.2214 48.9273 33.1859 49.0942 33.1834C49.2195 33.1726 49.3456 33.1883 49.4642 33.2296C49.5824 33.2708 49.6907 33.3368 49.7813 33.4228C49.8715 33.5088 49.9422 33.6129 49.9883 33.7282C50.0345 33.8434 50.0547 33.9671 50.0483 34.0908C50.0405 34.2415 50.016 34.391 49.9745 34.5362L49.5483 36.1212ZM49.152 36.026H49.4755L49.8818 34.5111C49.9208 34.3741 49.9443 34.2332 49.951 34.0911C49.9581 33.9798 49.9404 33.8683 49.8992 33.7644C49.8583 33.6604 49.7948 33.5665 49.7131 33.4892C49.6318 33.4118 49.5341 33.3528 49.4272 33.3162C49.32 33.2797 49.2064 33.2665 49.0938 33.2776C48.9088 33.2849 48.7277 33.3326 48.564 33.4174C48.3999 33.5021 48.2572 33.6217 48.146 33.7675L48.0121 33.9158L48.4834 32.1848H48.1638L47.1183 36.0246H47.4379L47.8545 34.4852C47.9085 34.2377 48.0413 34.0136 48.2337 33.8457C48.4258 33.6777 48.6677 33.5746 48.9233 33.5512C49.0118 33.541 49.1013 33.5498 49.1858 33.577C49.2703 33.6042 49.3477 33.6492 49.4127 33.7088C49.478 33.7685 49.5292 33.8413 49.5629 33.9224C49.5966 34.0034 49.6123 34.0907 49.6083 34.1782C49.6076 34.2889 49.5917 34.3988 49.5604 34.5051L49.152 36.026Z" fill="#1A1818"/>
<path d="M50.4121 35.3598C50.4121 34.7356 50.9384 34.3536 51.6692 34.3536C52.0073 34.3595 52.3432 34.4101 52.6678 34.504L52.6887 34.4368C52.7097 34.3527 52.7217 34.2666 52.7242 34.18C52.7242 33.8273 52.4724 33.616 51.9639 33.616C51.6901 33.6179 51.4188 33.6681 51.1632 33.7643L51.0897 33.4144C51.3883 33.2983 51.7068 33.2402 52.0279 33.2433C52.7402 33.2433 53.1404 33.5722 53.1404 34.1086C53.1358 34.237 53.1177 34.3646 53.0864 34.4893L52.6603 36.0691H52.242L52.3609 35.6345C52.2327 35.7895 52.0712 35.9141 51.8879 35.9994C51.7047 36.0848 51.5044 36.1289 51.3017 36.1286C51.1912 36.1401 51.0794 36.1289 50.9735 36.0957C50.8677 36.0624 50.7701 36.0078 50.6866 35.9354C50.6032 35.8633 50.5357 35.7748 50.4888 35.6754C50.4419 35.576 50.4164 35.4683 50.4139 35.3587L50.4121 35.3598ZM52.5474 34.9812L52.5989 34.7835C52.3013 34.7016 51.9938 34.6593 51.6848 34.6582C51.1912 34.6582 50.8446 34.9263 50.8446 35.3133C50.8446 35.6082 51.074 35.8007 51.4384 35.8007C51.6873 35.7965 51.9281 35.7146 52.1269 35.5676C52.3261 35.4203 52.4732 35.2153 52.547 34.9812" fill="#1A1818"/>
<path d="M51.2994 36.1784C51.1826 36.1907 51.0644 36.1788 50.9521 36.1434C50.8403 36.1081 50.7366 36.05 50.6485 35.9734C50.5605 35.8964 50.4894 35.8026 50.4404 35.6973C50.3911 35.5919 50.3644 35.4779 50.3623 35.3617C50.3623 34.7319 50.8879 34.3079 51.6691 34.3079C51.9958 34.3125 52.3204 34.3595 52.6346 34.4478L52.6428 34.4254C52.6623 34.3451 52.6733 34.2631 52.6755 34.1805C52.6755 33.755 52.2895 33.6644 51.9653 33.6644C51.6968 33.6651 51.4312 33.7149 51.1812 33.8113L51.1293 33.8275L51.0367 33.3865L51.0754 33.3718C51.379 33.2545 51.7028 33.1961 52.0292 33.1997C52.755 33.1997 53.1886 33.5391 53.1886 34.1095C53.1854 34.2423 53.1669 34.3744 53.1336 34.5031L52.6968 36.1193H52.1808L52.2671 35.8012C52.0075 36.0461 51.6609 36.1812 51.3016 36.1774L51.2994 36.1784ZM51.6712 34.4006C50.9468 34.4006 50.4589 34.7854 50.4589 35.3607C50.4624 35.4639 50.4877 35.5654 50.5328 35.6588C50.5779 35.7519 50.6418 35.8351 50.721 35.9027C50.8002 35.9706 50.8925 36.0216 50.9923 36.0528C51.0924 36.0839 51.1979 36.0944 51.3019 36.0836C51.4976 36.0846 51.6911 36.0423 51.868 35.9597C52.0448 35.8771 52.2007 35.7564 52.3239 35.6066L52.4592 35.4541L52.3044 36.0255H52.624L53.042 34.4804C53.0728 34.359 53.0902 34.2346 53.0931 34.1095C53.0931 33.5909 52.7046 33.2931 52.0299 33.2931C51.7288 33.2901 51.4301 33.3421 51.1482 33.4464L51.2014 33.7032C51.4465 33.615 51.7053 33.5696 51.9663 33.5692C52.4866 33.5692 52.7735 33.7854 52.7735 34.1798C52.7714 34.2702 52.7596 34.3602 52.738 34.4482L52.7025 34.5608L52.6574 34.5497C52.3374 34.4559 52.0057 34.4058 51.6719 34.4006H51.6712ZM51.4383 35.8474C51.0494 35.8474 50.7991 35.6395 50.7991 35.3152C50.7991 34.9012 51.1627 34.6154 51.6869 34.6154C52.0008 34.6164 52.3129 34.6587 52.6151 34.7413L52.6602 34.7539L52.5952 34.995C52.5185 35.2392 52.3655 35.4534 52.1577 35.6066C51.9503 35.7599 51.6989 35.8446 51.4393 35.8484L51.4383 35.8474ZM51.6879 34.7091C51.2213 34.7091 50.8946 34.9589 50.8946 35.3162C50.8946 35.5874 51.1048 35.7543 51.4408 35.7543C51.6794 35.7508 51.9106 35.6731 52.1016 35.5321C52.2923 35.3911 52.4333 35.1944 52.504 34.9698L52.5437 34.8193C52.2643 34.7465 51.9766 34.7095 51.6876 34.7088" fill="#1A1818"/>
<path d="M54.293 33.2889H54.7138L54.5941 33.736C54.7091 33.5849 54.8572 33.461 55.0273 33.3734C55.1974 33.2857 55.3849 33.2365 55.5767 33.2294C55.6953 33.219 55.8149 33.2339 55.9275 33.2731C56.0397 33.3124 56.1424 33.375 56.2279 33.4567C56.3135 33.5385 56.3803 33.6374 56.4236 33.7468C56.4669 33.8562 56.4861 33.9736 56.4794 34.0909C56.474 34.2375 56.4502 34.3829 56.4083 34.5237L55.9936 36.0726H55.5742L56.0003 34.4926C56.028 34.3905 56.0422 34.2854 56.0422 34.1798C56.0465 34.0987 56.033 34.0176 56.0021 33.9423C55.9712 33.867 55.924 33.7993 55.8636 33.744C55.8032 33.6886 55.7315 33.647 55.653 33.622C55.5745 33.597 55.4914 33.5892 55.4098 33.5992C55.1647 33.6238 54.9336 33.7239 54.7493 33.8853C54.5653 34.0467 54.4375 34.2611 54.3842 34.4982L53.9581 36.0726H53.5391L54.293 33.2889Z" fill="#1A1818"/>
<path d="M56.029 36.1217H55.5106L55.9545 34.4815C55.9811 34.383 55.9946 34.2817 55.9956 34.1799C55.9996 34.105 55.9868 34.0301 55.9584 33.9607C55.9296 33.8912 55.8856 33.8288 55.8298 33.7779C55.7741 33.727 55.7073 33.6889 55.6349 33.6662C55.5624 33.6435 55.4854 33.6368 55.4101 33.6466C55.175 33.6708 54.9541 33.7675 54.778 33.9229C54.6022 34.0783 54.4808 34.2845 54.4307 34.5119L53.9967 36.1217H53.479L54.2567 33.2414H54.7759L54.6874 33.571C54.8018 33.4513 54.9392 33.3554 55.0915 33.2889C55.2439 33.2224 55.4087 33.1866 55.5752 33.1837C55.7002 33.1731 55.8259 33.1891 55.9442 33.2305C56.0624 33.272 56.17 33.338 56.2602 33.424C56.35 33.51 56.4204 33.6141 56.4662 33.7291C56.512 33.8442 56.5322 33.9676 56.5255 34.091C56.5191 34.2418 56.4946 34.3913 56.4523 34.5364L56.029 36.1217ZM55.6356 36.0269H55.9552L56.3614 34.5112C56.4022 34.3746 56.426 34.2336 56.4324 34.0913C56.4395 33.9802 56.4218 33.8689 56.3809 33.7651C56.3397 33.6614 56.2765 33.5676 56.1952 33.4902C56.1139 33.4129 56.0166 33.3538 55.9101 33.3171C55.8032 33.2805 55.6899 33.2671 55.5773 33.2778C55.3923 33.2851 55.2116 33.3329 55.0479 33.4176C54.8842 33.5023 54.7414 33.6219 54.6303 33.7677L54.4971 33.9146L54.6533 33.3348H54.3337L53.6058 36.0251H53.9254L54.3398 34.4857C54.3962 34.2387 54.5301 34.0155 54.7226 33.8478C54.9154 33.6802 55.1565 33.5766 55.4122 33.5518C55.5003 33.5418 55.5898 33.5507 55.6739 33.578C55.7581 33.6054 55.8355 33.6504 55.9001 33.71C55.9651 33.7697 56.0162 33.8424 56.0496 33.9234C56.083 34.0043 56.0983 34.0915 56.0944 34.1788C56.0933 34.2894 56.078 34.3993 56.0482 34.506L55.6356 36.0269Z" fill="#1A1818"/>
<path d="M57.0607 34.9604C57.0423 34.5248 57.1978 34.0996 57.494 33.776C57.7901 33.4523 58.2035 33.256 58.6449 33.2292C58.8732 33.219 59.099 33.2804 59.2901 33.4047C59.4808 33.529 59.6267 33.7098 59.7066 33.921L60.1906 32.1406H60.6068L59.5397 36.0727H59.1232L59.2471 35.6C59.1207 35.7613 58.9595 35.8932 58.7755 35.9867C58.5912 36.0797 58.3885 36.1319 58.1818 36.1392C58.0277 36.1403 57.875 36.1098 57.7333 36.05C57.592 35.9902 57.4641 35.9023 57.359 35.7914C57.2535 35.6808 57.1726 35.5496 57.1211 35.4065C57.0696 35.2634 57.049 35.1112 57.06 34.96L57.0607 34.9604ZM59.5593 34.4574C59.5632 34.3432 59.5433 34.2294 59.5007 34.1231C59.4584 34.0167 59.3941 33.9201 59.3125 33.8391C59.2304 33.7581 59.1328 33.6945 59.0252 33.6522C58.9172 33.6099 58.8018 33.5898 58.686 33.5931C58.3508 33.6164 58.0387 33.7692 57.8175 34.0183C57.5962 34.2673 57.4837 34.5924 57.5046 34.9229C57.4929 35.0318 57.505 35.1416 57.5398 35.2455C57.5749 35.3495 57.6317 35.4447 57.707 35.5251C57.7823 35.6056 57.8743 35.6693 57.9765 35.712C58.0788 35.755 58.1889 35.7757 58.3 35.7732C58.6374 35.7452 58.9524 35.5955 59.185 35.353C59.4172 35.1101 59.5504 34.7917 59.5593 34.4581" fill="#1A1818"/>
<path d="M58.1823 36.1871C58.0221 36.1874 57.8637 36.1556 57.7167 36.0929C57.5697 36.0307 57.4373 35.9393 57.3275 35.8246C57.2178 35.7098 57.1329 35.574 57.0782 35.426C57.0239 35.2776 57.0008 35.1198 57.0104 34.9624C56.9948 34.5149 57.1564 34.079 57.4614 33.7469C57.7664 33.4149 58.1904 33.2128 58.6439 33.1835C58.8588 33.1747 59.0722 33.2266 59.2582 33.3333C59.4443 33.44 59.5952 33.5968 59.694 33.7854L60.1517 32.0932H60.667L59.5739 36.1216H59.0587L59.1549 35.7668C59.0292 35.8977 58.8783 36.0023 58.711 36.0747C58.5441 36.1472 58.3637 36.186 58.1812 36.1888L58.1823 36.1871ZM58.6428 33.2776C58.2146 33.3065 57.8144 33.4985 57.5275 33.8131C57.2402 34.1277 57.0889 34.5401 57.1052 34.9627C57.0935 35.1083 57.1127 35.2542 57.1617 35.3917C57.2107 35.5292 57.2881 35.6552 57.3893 35.7616C57.4905 35.8679 57.613 35.9523 57.749 36.0093C57.885 36.0663 58.0317 36.0947 58.1798 36.0926C58.3801 36.0863 58.5761 36.0363 58.7544 35.946C58.9323 35.8557 59.0878 35.7273 59.2096 35.5705L59.341 35.4201L59.1823 36.0279H59.4983L60.5405 32.1869H60.2234L59.7131 34.067L59.6599 33.9393C59.5839 33.7367 59.4443 33.5632 59.2611 33.4442C59.0782 33.3252 58.8616 33.2669 58.6425 33.2776H58.6428ZM58.298 35.8207C58.1808 35.8228 58.0647 35.8004 57.9568 35.7553C57.8492 35.7098 57.7522 35.6426 57.6727 35.5579C57.5931 35.4732 57.5328 35.3728 57.4955 35.2636C57.4579 35.1541 57.4444 35.0383 57.4557 34.9232C57.4348 34.5808 57.5523 34.2441 57.7824 33.9866C58.0125 33.7291 58.3367 33.5716 58.684 33.5485C58.8062 33.5444 58.928 33.5651 59.0416 33.6094C59.1556 33.6537 59.259 33.7206 59.3453 33.806C59.4315 33.8913 59.499 33.9933 59.5438 34.1055C59.5885 34.2177 59.6091 34.3378 59.6045 34.4583C59.5967 34.8046 59.4589 35.1356 59.2174 35.3872C58.9759 35.6391 58.6485 35.7934 58.298 35.8204V35.8207ZM58.684 33.6419C58.362 33.6653 58.0622 33.813 57.8499 34.0528C57.6375 34.2927 57.5299 34.6054 57.5502 34.9228C57.5381 35.0257 57.5488 35.1296 57.5814 35.2283C57.6137 35.3266 57.6674 35.4169 57.738 35.4932C57.8091 35.5695 57.8957 35.6297 57.9923 35.6702C58.0889 35.7108 58.1929 35.7304 58.298 35.7276C58.6222 35.6982 58.9244 35.553 59.1475 35.3193C59.3708 35.0859 59.5001 34.7801 59.5107 34.4593C59.5146 34.3512 59.4958 34.2435 59.4557 34.1429C59.4156 34.0422 59.3548 33.9508 59.2774 33.8742C59.1997 33.7977 59.107 33.7377 59.0051 33.6979C58.9031 33.6581 58.7938 33.6394 58.684 33.6429" fill="#1A1818"/>
</svg>
